<?xml version="1.0" encoding="UTF-8"?>
<svg width="49px" height="43px" viewBox="0 0 49 43" version="1.1" xmlns="http://www.w3.org/2000/svg" xmlns:xlink="http://www.w3.org/1999/xlink">
    <!-- Generator: Sketch 51.2 (57519) - http://www.bohemiancoding.com/sketch -->
    <title>Group 49</title>
    <desc>Created with Sketch.</desc>
    <defs></defs>
    <g id="Dashboard" stroke="none" stroke-width="1" fill="none" fill-rule="evenodd" stroke-linecap="round">
        <g id="Group-49" transform="translate(-2.000000, -1.000000)">
            <g id="Group-2" transform="translate(0.560865, 0.653065)">
                <g id="Group-10" transform="translate(24.122437, 18.254509) rotate(87.000000) translate(-24.122437, -18.254509) translate(13.325827, 5.796882)" stroke="#000000" stroke-linejoin="round" stroke-width="1.2">
                    <path d="M18.9149499,17.7298353 L18.9149499,15.1200339 L18.9289359,15.0987897 C20.2555898,13.0836549 20.9160865,10.7028569 20.8172501,8.29225321 L20.6603681,4.4659255 C20.6319371,3.77249877 20.0615127,3.22498286 19.3675034,3.22498286 L19.3675034,3.22498286 C18.6815739,3.22498286 18.1255181,3.7810386 18.1255181,4.46696811 L18.1255181,5.30089886 L18.1255181,3.27830996 C18.1255181,2.39342017 17.4081732,1.67607526 16.5232834,1.67607526 C16.5166318,1.67607526 16.5099802,1.67611668 16.503329,1.67619952 L16.503329,1.67619952 C15.6041692,1.68739862 14.8811399,2.41948931 14.8811399,3.31871892 L14.8811399,4.8008096 L14.8811399,2.25134291 C14.8811399,1.35773711 14.1567293,0.633326487 13.2631235,0.633326487 L13.2631235,0.633326487 C12.3695177,0.633326487 11.6451071,1.35773711 11.6451071,2.25134291 L11.6451071,4.44466512 L11.6451071,1.76023457 C11.6451071,0.795144983 10.8627474,0.0127852965 9.89765782,0.0127852965 L9.89765782,0.0127852965 C8.90455933,0.0127852965 8.07196568,0.763067348 7.96895938,1.75080937 L7.7257458,4.08301901 L7.7257458,9.17736666" id="Path-3-Copy-20"></path>
                    <path d="M9.02172879,20.6968876 L9.02172879,16.3131294 L7.06455207,15.03234 C5.89495393,14.2669473 4.9734339,13.1776589 4.41244111,11.8973961 L3.59454979,10.0308554 C3.04620943,8.7794671 2.05021473,7.77802641 0.801835144,7.22287045 L0.801835144,7.22287045 C0.258165429,6.98109985 0.0134278417,6.34437466 0.255198444,5.80070495 C0.348170304,5.59163906 0.505288812,5.41760197 0.703791106,5.30380764 L0.801835144,5.24760246 C1.97080596,4.57747292 3.43179235,4.69666965 4.47667993,5.54742009 L4.67039461,5.70514314 L6.21381955,7.5198451" id="Path-3-Copy-21"></path>
                    <path d="M11.0635831,20.6968876 L19.4463252,20.6968876 C20.2416152,20.6968876 20.8863252,21.3415976 20.8863252,22.1368876 L20.8863252,23.2695937 C20.8863252,24.0648837 20.2416152,24.7095937 19.4463252,24.7095937 L8.34592641,24.7095937 C7.55063637,24.7095937 6.90592641,24.0648837 6.90592641,23.2695937 L6.90592641,22.1368876 C6.90592641,21.3415976 7.55063637,20.6968876 8.34592641,20.6968876 L9.00562582,20.6968876" id="Path-3-Copy-22"></path>
                </g>
                <g id="Group-8-Copy" transform="translate(41.493374, 10.147470) rotate(72.000000) translate(-41.493374, -10.147470) translate(32.616562, 5.556015)">
                    <path d="M16.3837282,4.60213509 L17.4054755,2.04776689" id="Path-3-Copy-7" stroke="#7813FE"></path>
                    <path d="M11.7858655,3.06951417 L11.7858655,0.00427232535" id="Path-3-Copy-15" stroke="#000000"></path>
                    <path d="M7.01821989,5.59985381 L5.48559897,3.55635925" id="Path-3-Copy-16" stroke="#000000"></path>
                    <path d="M4.39136328,1.91987399 L3.75591734,1.07202522" id="Path-3-Copy-22" stroke="#000000"></path>
                    <path d="M3.61026512,8.9155864 L0.306921468,7.14301021" id="Path-3-Copy-17" stroke="#000000"></path>
                </g>
                <g id="Group-8-Copy-2" transform="translate(5.778770, 31.251251) scale(-1, -1) rotate(62.000000) translate(-5.778770, -31.251251) translate(-0.612535, 28.636627)">
                    <path d="M11.4824539,4.36784457 L12.4521849,1.94351694" id="Path-3-Copy-7" stroke="#000000"></path>
                    <path d="M7.11866411,2.91324799 L7.11866411,0.00405482515" id="Path-3-Copy-15" stroke="#F1104D"></path>
                    <path d="M3.37952797,5.07452933 L1.92493138,3.13506722" id="Path-3-Copy-16" stroke="#000000"></path>
                    <path d="M0.886402242,1.58189393 L0.28330628,0.777208374" id="Path-3-Copy-22" stroke="#000000"></path>
                </g>
            </g>
            <polyline id="Star-Copy" stroke="#F1AE10" stroke-linejoin="round" transform="translate(11.176988, 5.080396) rotate(20.000000) translate(-11.176988, -5.080396) " points="11.1769879 7.14792304 9.13621685 8.22081988 9.52596944 5.94838792 7.87495098 4.33904267 10.1566024 4.00749931 11.1769879 1.93997242 12.1973734 4.00749931 14.4790248 4.33904267 12.8280064 5.94838792 13.217759 8.22081988"></polyline>
            <polyline id="Star-Copy-2" stroke="#1BD4A5" stroke-linejoin="round" transform="translate(28.806898, 38.695739) scale(-1, 1) rotate(20.000000) translate(-28.806898, -38.695739) " points="28.8068977 41.0750594 26.4583686 42.3097542 26.9068978 39.6946286 25.0068978 37.8425863 27.6326332 37.4610447 28.8068977 35.0817248 29.9811623 37.4610447 32.6068977 37.8425863 30.7068977 39.6946286 31.1554269 42.3097542"></polyline>
        </g>
    </g>
</svg>