<?xml version="1.0" encoding="UTF-8"?>
<svg width="767px" height="319px" viewBox="0 0 767 319" version="1.1" xmlns="http://www.w3.org/2000/svg" xmlns:xlink="http://www.w3.org/1999/xlink">
    <!-- Generator: Sketch 49.2 (51160) - http://www.bohemiancoding.com/sketch -->
    <title>Artboard 2</title>
    <desc>Created with Sketch.</desc>
    <defs></defs>
    <g id="Artboard-2" stroke="none" stroke-width="1" fill="none" fill-rule="evenodd">
        <g id="Group-47" transform="translate(9.000000, 10.000000)">
            <g id="Group-26" transform="translate(0.000000, 66.000000)" stroke="#000000" stroke-linecap="round" stroke-linejoin="round">
                <path d="M542,67 L544,62" id="Path-3-Copy-7"></path>
                <path d="M533,64 L533,58" id="Path-3-Copy-15"></path>
                <path d="M533,55 L533,52" id="Path-3-Copy-20"></path>
                <path d="M520,68 L517,64" id="Path-3-Copy-16"></path>
                <path d="M516,63 L515,61" id="Path-3-Copy-22"></path>
                <path d="M514,78 L504,75" id="Path-3-Copy-17"></path>
                <path d="M514,90 L509,91" id="Path-3-Copy-18"></path>
                <path d="M518,100 L514,104" id="Path-3-Copy-21"></path>
                <path d="M513,106 L511,108" id="Path-3-Copy-23"></path>
                <path d="M507,92 L497,94" id="Path-3-Copy-19"></path>
                <path d="M539.410574,101 C544.538377,98.0650694 548,92.4925414 548,86.1010605 C548,76.6564056 540.441267,69 531.117097,69 C524.496961,69 518.766775,72.8595654 516,78.478442" id="Oval-Copy-3" transform="translate(532.000000, 85.000000) rotate(-90.000000) translate(-532.000000, -85.000000) "></path>
                <path d="M378,235 L477,235" id="Path-3-Copy-9"></path>
                <path d="M0,235 L78,235" id="Path-3-Copy-24"></path>
                <path d="M507,235 L755,235" id="Path-3-Copy-26"></path>
                <path d="M393,231 L467,231" id="Path-3-Copy-11"></path>
                <path d="M664,231 L728,231" id="Path-3-Copy-27"></path>
                <path d="M537,185.00926 L537,202 C537,202.552285 536.552285,203 536,203 L471,203 C470.447715,203 470,202.552285 470,202 L470,185" id="Rectangle-4-Copy-9"></path>
                <polyline id="Rectangle-4-Copy-11" points="468 212.68399 470.040816 203 493 203 491.979592 215"></polyline>
                <polygon id="Rectangle-4-Copy-14" points="468 219 492 219 492 215 468 215"></polygon>
                <polygon id="Rectangle-4-Copy-16" points="517.024066 219 539 219 539 215 517.024066 215"></polygon>
                <polyline id="Rectangle-4-Copy-12" points="493 203 515.978723 203 516.683088 211.276288 517 215"></polyline>
                <polygon id="Rectangle-4-Copy-15" points="492 219 517 219 517 215 492 215"></polygon>
                <polyline id="Rectangle-4-Copy-17" points="531.64591 231 536 231 536 219 472 219 472 231 528.372138 231"></polyline>
                <polyline id="Rectangle-4-Copy-13" points="515 203 536.992389 203 539 215 516.003805 215"></polyline>
                <path d="M539.987323,180.159663 C539.995724,180.272009 540,180.385505 540,180.5 C540,182.985281 537.985281,185 535.5,185 C533.758534,185 532.248113,184.010779 531.5,182.563601 C530.751887,184.010779 529.241466,185 527.5,185 C525.758534,185 524.248113,184.010779 523.5,182.563601 C522.751887,184.010779 521.241466,185 519.5,185 C517.758534,185 516.248113,184.010779 515.5,182.563601 C514.751887,184.010779 513.241466,185 511.5,185 C509.758534,185 508.248113,184.010779 507.5,182.563601 C506.751887,184.010779 505.241466,185 503.5,185 C501.758534,185 500.248113,184.010779 499.5,182.563601 C498.751887,184.010779 497.241466,185 495.5,185 C493.758534,185 492.248113,184.010779 491.5,182.563601 C490.751887,184.010779 489.241466,185 487.5,185 C485.758534,185 484.248113,184.010779 483.5,182.563601 C482.751887,184.010779 481.241466,185 479.5,185 C477.758534,185 476.248113,184.010779 475.5,182.563601 C474.751887,184.010779 473.241466,185 471.5,185 C469.014719,185 467,182.985281 467,180.5 C467,180.385505 467.004276,180.272009 467.012677,180.159663 C467.004335,180.107672 467,180.054342 467,180 L467,177 C467,176.447715 467.447715,176 468,176 L539,176 C539.552285,176 540,176.447715 540,177 L540,180 C540,180.054342 539.995665,180.107672 539.987323,180.159663 Z" id="Combined-Shape"></path>
                <polyline id="Rectangle-4-Copy-17" points="581 178 581 145 517 145 517 170.982948"></polyline>
                <polyline id="Rectangle-4-Copy-27" transform="translate(534.000000, 153.000000) rotate(90.000000) translate(-534.000000, -153.000000) " points="531 144.004918 531 140 537 140 537 166 531 166 531 146.992252"></polyline>
                <polyline id="Rectangle-4-Copy-29" transform="translate(564.000000, 153.000000) scale(1, -1) rotate(90.000000) translate(-564.000000, -153.000000) " points="561 140 567 140 567 166 561 166 561 146.992252"></polyline>
                <polyline id="Rectangle-4-Copy-23" points="669 182 555 182 555 232"></polyline>
                <polyline id="Rectangle-4-Copy-18" points="598 85 534 85 534 141"></polyline>
                <rect id="Rectangle-4" x="540" y="109" width="26" height="26"></rect>
                <path d="M544,131 L544,110" id="Path-3-Copy"></path>
                <polyline id="Rectangle-4-Copy-24" points="561 229 561 195 618 195 618 218.362777"></polyline>
                <polyline id="Rectangle-4-Copy-30" points="624 229 624 195 680 195 680 218.362777"></polyline>
                <path d="M565,218 L565,200" id="Path-3-Copy-14"></path>
                <rect id="Rectangle-4-Copy-22" x="574" y="109" width="26" height="26"></rect>
                <path d="M578,131 L578,110" id="Path-3-Copy-13"></path>
                <path d="M544.5,100 C546.985281,100 549,97.9852814 549,95.5 C549,93.0147186 546.985281,91 544.5,91 C542.014719,91 540,93.0147186 540,95.5 C540,96.6840175 540.457277,97.7612323 541.204861,98.564674" id="Oval-Copy-3" transform="translate(544.500000, 95.500000) rotate(-150.000000) translate(-544.500000, -95.500000) "></path>
                <path d="M559.5,100 C561.985281,100 564,97.9852814 564,95.5 C564,93.0147186 561.985281,91 559.5,91 C557.014719,91 555,93.0147186 555,95.5 C555,96.6840175 555.457277,97.7612323 556.204861,98.564674" id="Oval-Copy-10" transform="translate(559.500000, 95.500000) rotate(-150.000000) translate(-559.500000, -95.500000) "></path>
                <path d="M574.5,100 C576.985281,100 579,97.9852814 579,95.5 C579,93.0147186 576.985281,91 574.5,91 C572.014719,91 570,93.0147186 570,95.5 C570,96.6840175 570.457277,97.7612323 571.204861,98.564674" id="Oval-Copy-11" transform="translate(574.500000, 95.500000) rotate(-150.000000) translate(-574.500000, -95.500000) "></path>
                <path d="M589.5,100 C591.985281,100 594,97.9852814 594,95.5 C594,93.0147186 591.985281,91 589.5,91 C587.014719,91 585,93.0147186 585,95.5 C585,96.6840175 585.457277,97.7612323 586.204861,98.564674" id="Oval-Copy-12" transform="translate(589.500000, 95.500000) rotate(-150.000000) translate(-589.500000, -95.500000) "></path>
                <path d="M462.004347,111 C462.001458,110.924984 462,110.849602 462,110.773879 C462,107.585054 464.585054,105 467.773879,105 L477.226121,105 C480.414946,105 483,107.585054 483,110.773879 C483,113.962704 480.414946,116.547757 477.226121,116.547757 L476.983212,116.547757 C476.994338,116.697049 477,116.847863 477,117 C477,120.313708 474.313708,123 471,123 L461,123 C457.686292,123 455,120.313708 455,117 C455,113.686292 457.686292,111 461,111 L462.004347,111 Z" id="Combined-Shape" transform="translate(469.000000, 114.000000) scale(-1, 1) translate(-469.000000, -114.000000) "></path>
                <polyline id="Rectangle-4-Copy-19" points="673 106 673 -2.84217094e-14 581 -1.33815339e-14 581 64.7361841"></polyline>
                <rect id="Rectangle-4-Copy" x="619" y="15" width="15" height="26"></rect>
                <rect id="Rectangle-4-Copy-2" x="592" y="15" width="15" height="26"></rect>
                <path d="M623,37 L623,16" id="Path-3-Copy-4"></path>
                <path d="M596,37 L596,16" id="Path-3-Copy-64"></path>
                <polyline id="Rectangle-4-Copy-20" points="641 106 641 68 577 68 577 79.734592"></polyline>
                <polyline id="Rectangle-4-Copy-29" transform="translate(628.000000, 82.000000) scale(1, -1) rotate(90.000000) translate(-628.000000, -82.000000) " points="621 75 635 75 635 89 621 89 621 78.7650587"></polyline>
                <polyline id="Rectangle-4-Copy-43" points="684 178 684 112 623 112 623 136.873965"></polyline>
                <rect id="Rectangle-4-Copy-50" x="633" y="159" width="16" height="4"></rect>
                <path d="M649,144.972138 L649,151 L633,151 L633,134 C633,129.581722 636.581722,126 641,126 L641,126 C645.418278,126 649,129.581722 649,134 L649,141.733782" id="Rectangle-4-Copy-44"></path>
                <path d="M635,146 L635,133 C635,129.134007 638.134007,126 642,126" id="Rectangle-4-Copy-54"></path>
                <rect id="Rectangle-4" x="645" y="15" width="15" height="26"></rect>
                <path d="M650,37 L650,16" id="Path-3-Copy"></path>
                <polyline id="Rectangle-4-Copy-51" points="660.054645 163 656 163 656 159 672 159 672 163 662.991873 163"></polyline>
                <path d="M664,126 L664,126 C668.418278,126 672,129.581722 672,134 L672,151 L656,151 L656,134 C656,129.581722 659.581722,126 664,126 Z" id="Rectangle-4-Copy-45"></path>
                <path d="M658,146 L658,133 C658,129.134007 661.134007,126 665,126" id="Rectangle-4-Copy-53"></path>
            </g>
            <g id="Group-27" transform="translate(11.000000, 35.000000)" stroke="#000000" stroke-linecap="round" stroke-linejoin="round">
                <path d="M129.193548,266.129032 L353.980565,266.129032" id="Path-3-Copy-8"></path>
                <path d="M268,262 L326,262" id="Path-3-Copy-11"></path>
                <path d="M0,262 L58,262" id="Path-3-Copy-25"></path>
                <path d="M219.193548,246.774194 L219.193548,207.129032 C219.193548,206.576748 218.745833,206.129032 218.193548,206.129032 L187.290323,206.129032 C186.738038,206.129032 186.290323,206.576748 186.290323,207.129032 L186.290323,246.774194 L158.225806,246.774194 L158.225806,121.032258 C158.225806,119.927689 159.121237,119.032258 160.225806,119.032258 L247.193548,119.032258 C248.298118,119.032258 249.193548,119.927689 249.193548,121.032258 L249.193548,246.774194 L219.193548,246.774194 Z" id="Combined-Shape"></path>
                <rect id="Rectangle-4-Copy-5" x="221.129032" y="162.580645" width="15.483871" height="25.1612903"></rect>
                <rect id="Rectangle-4" x="221.129032" y="130.645161" width="15.483871" height="25.1612903"></rect>
                <rect id="Rectangle-4-Copy" x="195.967742" y="130.645161" width="15.483871" height="25.1612903"></rect>
                <rect id="Rectangle-4-Copy-2" x="170.806452" y="130.645161" width="15.483871" height="25.1612903"></rect>
                <rect id="Rectangle-4-Copy-4" x="195.967742" y="162.580645" width="15.483871" height="25.1612903"></rect>
                <rect id="Rectangle-4-Copy-3" x="170.806452" y="162.580645" width="15.483871" height="25.1612903"></rect>
                <rect id="Rectangle-5" x="153.387097" y="250.645161" width="100.645161" height="3.87096774"></rect>
                <polyline id="Rectangle-5-Copy" points="255.430297 257.419355 258.870968 257.419355 258.870968 261.290323 148.548387 261.290323 148.548387 257.419355 251.691212 257.419355"></polyline>
                <path d="M202.741935,246.774194 L202.741935,211.935484" id="Path-3"></path>
                <path d="M225,151.935484 L225,131.612903" id="Path-3-Copy"></path>
                <path d="M225,183.870968 L225,163.548387" id="Path-3-Copy-2"></path>
                <path d="M199.83871,151.935484 L199.83871,131.612903" id="Path-3-Copy-4"></path>
                <path d="M199.83871,183.870968 L199.83871,163.548387" id="Path-3-Copy-3"></path>
                <path d="M174.677419,151.935484 L174.677419,131.612903" id="Path-3-Copy-64"></path>
                <path d="M174.677419,183.870968 L174.677419,163.548387" id="Path-3-Copy-63"></path>
                <g id="Group-41" transform="translate(232.000000, 78.000000)">
                    <path d="M0.0967741935,6.74657468 C4.90447112,5.5432149 8.93883002,5.78898033 12.1998509,7.48387097 C13.2550912,3.4581389 16.3175065,1.20007438 21.3870968,0.709677419" id="Path-3-Copy-7"></path>
                    <path d="M17.516129,14.6991662 C21.0126359,13.8396235 23.9467151,14.0151703 26.3183666,15.2258065 C27.0858142,12.3502835 29.3130253,10.7373803 33,10.3870968" id="Path-3-Copy-12"></path>
                </g>
                <polyline id="Rectangle-4-Copy-25" points="192.096774 80.2665288 192.096774 66.7741935 198.870968 66.7741935 198.870968 84.1935484 192.096774 84.1935484"></polyline>
                <polyline id="Rectangle-4-Copy-28" points="192.096774 28.0084643 192.096774 14.516129 198.870968 14.516129 198.870968 31.9354839 192.096774 31.9354839"></polyline>
                <polyline id="Rectangle-4-Copy-27" points="192.096774 44.5208887 192.096774 40.6451613 198.870968 40.6451613 198.870968 58.0645161 192.096774 58.0645161 192.096774 47.4118567"></polyline>
                <polyline id="Rectangle-4-Copy-26" points="192.096774 100.747214 192.096774 92.9032258 198.870968 92.9032258 198.870968 105.483871"></polyline>
                <polyline id="Rectangle-4-Copy-21" points="204.677419 110.322581 204.677419 0 141.774194 0 141.774194 54.7436736"></polyline>
                <path d="M105,38.1830372 C109.152102,37.3234945 112.636321,37.4990413 115.452657,38.7096774 C116.364001,35.8341545 119.008814,34.2212513 123.387097,33.8709677" id="Path-3-Copy-12" transform="translate(114.193548, 36.290323) scale(-1, 1) translate(-114.193548, -36.290323) "></path>
                <polyline id="Rectangle-5-Copy-4" transform="translate(108.387097, 264.193548) scale(-1, 1) translate(-108.387097, -264.193548) " points="75 262.258065 141.774194 262.258065 141.774194 266.129032 98.4531454 266.129032"></polyline>
                <polyline id="Rectangle-4-Copy-21" transform="translate(142.741935, 124.354839) scale(-1, 1) translate(-142.741935, -124.354839) " points="178.548387 182.903226 178.548387 65.8064516 106.935484 65.8064516 106.935484 112.071174"></polyline>
                <path d="M154.83871,85.1612903 C157.77829,85.1612903 160.16129,82.7782898 160.16129,79.8387097 C160.16129,76.8991296 157.77829,74.516129 154.83871,74.516129 C151.89913,74.516129 149.516129,76.8991296 149.516129,79.8387097 C149.516129,81.2391605 150.056995,82.5132855 150.941234,83.463593" id="Oval-Copy-3" transform="translate(154.838710, 79.838710) scale(-1, 1) rotate(-150.000000) translate(-154.838710, -79.838710) "></path>
                <path d="M138.387097,85.1612903 C141.326677,85.1612903 143.709677,82.7782898 143.709677,79.8387097 C143.709677,76.8991296 141.326677,74.516129 138.387097,74.516129 C135.447517,74.516129 133.064516,76.8991296 133.064516,79.8387097 C133.064516,81.2391605 133.605382,82.5132855 134.489621,83.463593" id="Oval-Copy-10" transform="translate(138.387097, 79.838710) scale(-1, 1) rotate(-150.000000) translate(-138.387097, -79.838710) "></path>
                <path d="M121.935484,85.1612903 C124.875064,85.1612903 127.258065,82.7782898 127.258065,79.8387097 C127.258065,76.8991296 124.875064,74.516129 121.935484,74.516129 C118.995904,74.516129 116.612903,76.8991296 116.612903,79.8387097 C116.612903,81.2391605 117.153769,82.5132855 118.038008,83.463593" id="Oval-Copy-11" transform="translate(121.935484, 79.838710) scale(-1, 1) rotate(-150.000000) translate(-121.935484, -79.838710) "></path>
                <polyline id="Rectangle-4-Copy-25" transform="translate(117.096774, 145.161290) scale(-1, 1) translate(-117.096774, -145.161290) " points="113.709677 149.943948 113.709677 136.451613 120.483871 136.451613 120.483871 153.870968 113.709677 153.870968"></polyline>
                <polyline id="Rectangle-4-Copy-27" transform="translate(117.096774, 119.032258) scale(-1, 1) translate(-117.096774, -119.032258) " points="113.709677 114.198308 113.709677 110.322581 120.483871 110.322581 120.483871 127.741935 113.709677 127.741935 113.709677 117.089276"></polyline>
                <polyline id="Rectangle-4-Copy-26" transform="translate(117.096774, 169.354839) scale(-1, 1) translate(-117.096774, -169.354839) " points="113.709677 171.028017 113.709677 162.580645 120.483871 162.580645 120.483871 176.129032"></polyline>
                <polyline id="Rectangle-4-Copy-21" transform="translate(113.709677, 225.000000) scale(-1, 1) translate(-113.709677, -225.000000) " points="149.516129 262.258065 149.516129 187.741935 77.9032258 187.741935"></polyline>
                <polyline id="Rectangle-4-Copy-25" transform="translate(116.129032, 234.193548) scale(-1, 1) translate(-116.129032, -234.193548) " points="112.741935 238.976206 112.741935 225.483871 119.516129 225.483871 119.516129 242.903226 112.741935 242.903226"></polyline>
                <polyline id="Rectangle-4-Copy-27" transform="translate(97.741935, 234.193548) scale(-1, 1) translate(-97.741935, -234.193548) " points="94.3548387 229.359598 94.3548387 225.483871 101.129032 225.483871 101.129032 242.903226 94.3548387 242.903226 94.3548387 232.250566"></polyline>
                <polyline id="Rectangle-4-Copy-26" transform="translate(132.580645, 232.258065) scale(-1, 1) translate(-132.580645, -232.258065) " points="129.193548 233.931243 129.193548 225.483871 135.967742 225.483871 135.967742 239.032258"></polyline>
                <rect id="Rectangle-4" transform="translate(136.451613, 205.161290) scale(-1, 1) translate(-136.451613, -205.161290) " x="123.387097" y="193.548387" width="26.1290323" height="23.2258065"></rect>
                <path d="M146.129032,212.903226 L146.129032,194.516129" id="Path-3-Copy" transform="translate(146.129032, 203.709677) scale(-1, 1) translate(-146.129032, -203.709677) "></path>
                <rect id="Rectangle-4-Copy-22" transform="translate(98.709677, 205.161290) scale(-1, 1) translate(-98.709677, -205.161290) " x="85.6451613" y="193.548387" width="26.1290323" height="23.2258065"></rect>
                <path d="M108.387097,212.903226 L108.387097,194.516129" id="Path-3-Copy-13" transform="translate(108.387097, 203.709677) scale(-1, 1) translate(-108.387097, -203.709677) "></path>
            </g>
            <g id="Group-2" transform="translate(326.000000, 0.000000)">
                <polyline id="Rectangle-4-Copy-23" stroke="#000000" stroke-linecap="round" stroke-linejoin="round" points="91.8036495 292.486209 91.8036495 157.685016 8.34820607 157.685016 8.34820607 283.090453"></polyline>
                <path d="M99.3891741,16.6998827 L99.3891741,157.878398 L0.762681368,157.878398 L0.762681368,16.5645464 C1.18958307,16.6565247 1.63266472,16.7049525 2.08705152,16.7049525 C5.54499169,16.7049525 8.34820607,13.9003043 8.34820607,10.4405953 C8.34820607,10.1520645 8.32870935,9.86808982 8.29096213,9.58991796 L92.9310364,9.58991796 C92.8932892,9.86808982 92.8737925,10.1520645 92.8737925,10.4405953 C92.8737925,13.9003043 95.6770069,16.7049525 99.134947,16.7049525 C99.2200971,16.7049525 99.3048502,16.7032519 99.3891741,16.6998827 Z" id="Combined-Shape" stroke="#000000" stroke-linecap="round" stroke-linejoin="round"></path>
                <path d="M99.4192862,21.5493535 L7.42193827,21.5493535" id="Path-3-Copy" stroke="#000000" stroke-linecap="round"></path>
                <path d="M99.4192862,25.7255917 L29.7735158,25.7255917" id="Path-3-Copy-8" stroke="#000000" stroke-linecap="round"></path>
                <path d="M73.9881328,163.287728 L73.9881328,253.056142" id="Path-3-Copy-9" stroke="#000000" stroke-linecap="round"></path>
                <path d="M26.088144,172.208654 L26.088144,291.415382" id="Path-3-Copy-10" stroke="#000000" stroke-linecap="round"></path>
                <polyline id="Rectangle-4-Copy-28" stroke="#000000" stroke-linecap="round" stroke-linejoin="round" points="79.3079576 178.505734 79.3079576 163.949373 86.6126379 163.949373 86.6126379 182.742444 79.3079576 182.742444"></polyline>
                <polyline id="Rectangle-4-Copy-27" stroke="#000000" stroke-linecap="round" stroke-linejoin="round" points="79.3079576 196.320353 79.3079576 192.13898 86.6126379 192.13898 86.6126379 210.932052 79.3079576 210.932052 79.3079576 199.439307"></polyline>
                <polyline id="Rectangle-4-Copy-35" stroke="#000000" stroke-linecap="round" stroke-linejoin="round" transform="translate(17.218175, 173.345908) scale(-1, -1) translate(-17.218175, -173.345908) " points="13.5658349 178.505734 13.5658349 163.949373 20.8705152 163.949373 20.8705152 182.742444 13.5658349 182.742444"></polyline>
                <polyline id="Rectangle-4-Copy-34" stroke="#000000" stroke-linecap="round" stroke-linejoin="round" transform="translate(17.218175, 201.535516) scale(-1, -1) translate(-17.218175, -201.535516) " points="13.5658349 196.320353 13.5658349 192.13898 20.8705152 192.13898 20.8705152 210.932052 13.5658349 210.932052 13.5658349 199.439307"></polyline>
                <polyline id="Rectangle-4-Copy-47" stroke="#000000" stroke-linecap="round" stroke-linejoin="round" transform="translate(17.218175, 229.868849) scale(-1, -1) translate(-17.218175, -229.868849) " points="13.5658349 224.653687 13.5658349 220.472313 20.8705152 220.472313 20.8705152 239.265385 13.5658349 239.265385 13.5658349 227.772641"></polyline>
                <polyline id="Rectangle-4-Copy-30" stroke="#000000" stroke-linecap="round" stroke-linejoin="round" transform="translate(50.356772, 6.810745) scale(-1, 1) translate(-50.356772, -6.810745) " points="79.5754934 8.80217292 79.5754934 4.81931698 21.1380509 4.81931698 21.1380509 8.80217292"></polyline>
                <polyline id="Rectangle-4-Copy-33" stroke="#000000" stroke-linecap="round" stroke-linejoin="round" transform="translate(50.356772, 2.634507) scale(-1, 1) translate(-50.356772, -2.634507) " points="69.1402358 4.62593479 69.1402358 0.643078856 31.5733085 0.643078856 31.5733085 4.62593479"></polyline>
                <g id="Group-4" transform="translate(6.261155, 29.233667)">
                    <g id="Group" transform="translate(40.412907, 18.698157)" stroke="#000000" stroke-linecap="round" stroke-width="2">
                        <path d="M2.50816147,46.7588144 L2.50816147,51.1072845" id="Path-5-Copy"></path>
                        <path d="M2.50816147,0.149013885 L2.50816147,4.49748398" id="Path-5"></path>
                    </g>
                    <g id="Group-Copy" transform="translate(42.831989, 44.562359) rotate(-270.000000) translate(-42.831989, -44.562359) translate(40.223175, 18.982901)" stroke="#000000" stroke-linecap="round" stroke-width="2">
                        <path d="M2.50816147,46.7588144 L2.50816147,51.1072845" id="Path-5-Copy"></path>
                        <path d="M2.50816147,0.149013885 L2.50816147,4.49748398" id="Path-5"></path>
                    </g>
                    <g id="Group-Copy-2" transform="translate(42.905215, 44.546301) rotate(-315.000000) translate(-42.905215, -44.546301) translate(40.291864, 18.848345)" stroke="#000000" stroke-linecap="round" stroke-width="2">
                        <path d="M2.50816147,46.7588144 L2.50816147,51.1072845" id="Path-5-Copy"></path>
                        <path d="M2.50816147,0.149013885 L2.50816147,4.49748398" id="Path-5"></path>
                    </g>
                    <g id="Group-Copy-3" transform="translate(42.918717, 44.123729) rotate(-45.000000) translate(-42.918717, -44.123729) translate(40.309902, 18.544270)" stroke="#000000" stroke-linecap="round" stroke-width="2">
                        <path d="M2.50816147,46.7588144 L2.50816147,51.1072845" id="Path-5-Copy"></path>
                        <path d="M2.50816147,0.149013885 L2.50816147,4.49748398" id="Path-5"></path>
                    </g>
                    <path d="M43.0910679,75.1247203 C60.4384461,75.1247203 74.5012748,61.0546984 74.5012748,43.6984467 C74.5012748,26.3421951 60.4384461,12.2721732 43.0910679,12.2721732 C25.7436896,12.2721732 11.6808609,26.3421951 11.6808609,43.6984467 C11.6808609,51.967171 14.8726768,59.4900254 20.0908492,65.1009545" id="Oval-Copy-3" stroke="#000000" stroke-linecap="round" transform="translate(43.091068, 43.698447) rotate(-150.000000) translate(-43.091068, -43.698447) "></path>
                    <g id="Group-9" transform="translate(47.506540, 40.637663) rotate(-295.000000) translate(-47.506540, -40.637663) translate(37.488692, 35.410960)" stroke="#000000" stroke-linecap="round" stroke-linejoin="round" stroke-width="3">
                        <polyline id="Path-5-Copy-2" points="0.711839535 5.5218253 10.130265 10.1783318 19.7339015 0.56978292"></polyline>
                    </g>
                    <ellipse id="Oval-3" stroke="#050505" stroke-width="2" cx="42.7845561" cy="43.8505003" rx="26.088144" ry="26.1014883"></ellipse>
                </g>
            </g>
        </g>
    </g>
</svg>