<?xml version="1.0" encoding="UTF-8"?>
<svg width="1798px" height="470px" viewBox="0 0 1798 470" version="1.1" xmlns="http://www.w3.org/2000/svg" xmlns:xlink="http://www.w3.org/1999/xlink">
    <!-- Generator: Sketch 49.2 (51160) - http://www.bohemiancoding.com/sketch -->
    <title>Artboard</title>
    <desc>Created with Sketch.</desc>
    <defs></defs>
    <g id="Artboard" stroke="none" stroke-width="1" fill="none" fill-rule="evenodd">
        <g id="Group-33" transform="translate(27.000000, 14.000000)">
            <g id="Group-24" transform="translate(884.000000, 51.000000)" stroke="#000000">
                <g id="Group-8" transform="translate(379.540305, 86.644880)" stroke-linecap="round" stroke-linejoin="round" stroke-width="1.2">
                    <path d="M78.1314921,25.5842834 L81.5647856,17.0561889" id="Path-3-Copy-7"></path>
                    <path d="M62.6816714,20.4674267 L62.6816714,10.2337134" id="Path-3-Copy-15"></path>
                    <path d="M62.6816714,5.11685668 L62.6816714,0" id="Path-3-Copy-20"></path>
                    <path d="M40.3652637,27.2899023 L35.2153234,20.4674267" id="Path-3-Copy-16"></path>
                    <path d="M33.0800866,17.4550856 L30.9448498,14.6244309" id="Path-3-Copy-22"></path>
                    <path d="M30.0653832,44.3460913 L12.8989157,39.2292346" id="Path-3-Copy-17"></path>
                    <path d="M30.0653832,64.813518 L21.4821495,66.5191369" id="Path-3-Copy-18"></path>
                    <path d="M36.9319702,81.8697069 L30.0653832,88.6921825" id="Path-3-Copy-21"></path>
                    <path d="M27.3228775,91.3046599 L24.1661918,94.2166448" id="Path-3-Copy-23"></path>
                    <path d="M16.8767033,67.4529236 L0.491356186,70.8265944" id="Path-3-Copy-19"></path>
                    <path d="M73.6863626,83.5753258 C82.488988,78.5694528 88.4313725,69.0648437 88.4313725,58.1634131 C88.4313725,42.0544312 75.4556977,28.9955212 59.4493916,28.9955212 C48.0849565,28.9955212 38.2482512,35.5784689 33.4986767,45.1621309" id="Oval-Copy-3" transform="translate(60.965025, 56.285424) rotate(-90.000000) translate(-60.965025, -56.285424) "></path>
                </g>
                <path d="M0.884856256,400.174292 L346.490196,400.174292" id="Path-3-Copy-9" stroke-width="1.2" stroke-linecap="round" stroke-linejoin="round"></path>
                <path d="M370.607843,400.174292 L861,400.174292" id="Path-3-Copy-68" stroke-width="1.2" stroke-linecap="round" stroke-linejoin="round"></path>
                <path d="M48.1459695,393.921569 L260.738562,393.921569" id="Path-3-Copy-10" stroke-width="1.2" stroke-linecap="round" stroke-linejoin="round"></path>
                <path d="M270.56427,393.921569 L328.625272,393.921569" id="Path-3-Copy-11" stroke-width="1.2" stroke-linecap="round" stroke-linejoin="round"></path>
                <path d="M534.965142,393.921569 L615.357298,393.921569" id="Path-3-Copy-65" stroke-width="1.2" stroke-linecap="round" stroke-linejoin="round"></path>
                <path d="M662.699346,393.921569 L695.749455,393.921569" id="Path-3-Copy-66" stroke-width="1.2" stroke-linecap="round" stroke-linejoin="round"></path>
                <path d="M723.440087,393.921569 L811.87146,393.921569" id="Path-3-Copy-67" stroke-width="1.2" stroke-linecap="round" stroke-linejoin="round"></path>
                <g id="Group-4" transform="translate(212.503268, 296.557734)" stroke-linecap="round" stroke-linejoin="round" stroke-width="1.2">
                    <path d="M47.4568778,49.2598186 L53.3296459,97.2970077" id="Combined-Shape"></path>
                    <path d="M34.1796992,64.5028791 L31.6789398,88.8387964" id="Combined-Shape-Copy"></path>
                    <path d="M17.9599499,64.9092229 C27.8789564,64.9092229 35.9198999,56.8792515 35.9198999,46.9737798 C35.9198999,37.068308 27.8789564,29.0383366 17.9599499,29.0383366 C8.04094348,29.0383366 0,37.068308 0,46.9737798 C0,51.6928641 1.82503903,55.9862693 4.80872248,59.1885102" id="Oval-Copy-3"></path>
                    <path d="M47.6819958,18.7286066 C46.4264177,11.0138354 39.7237835,5.12441234 31.6437213,5.12441234 C22.6693821,5.12441234 15.3942428,12.3896246 15.3942428,21.3517181" id="Oval-Copy-6"></path>
                    <path d="M62.9923378,25.3900433 C65.3085264,22.6995296 66.7083855,19.1996375 66.7083855,15.373237 C66.7083855,6.88283266 59.8161482,0 51.3141427,0 C47.88377,0 44.7154587,1.12048762 42.1561828,3.01496248" id="Oval-Copy-7"></path>
                    <path d="M56.4455569,71.7417727 C63.0582279,71.7417727 68.4188569,66.3884584 68.4188569,59.7848106 C68.4188569,58.2418757 68.1262105,56.7671987 67.593324,55.4131144" id="Oval-Copy-8"></path>
                    <path d="M72.3398442,54.0045259 C77.0268313,52.3830209 80.3921569,47.9356992 80.3921569,42.7034362 C80.3921569,36.0997883 75.0315279,30.746474 68.4188569,30.746474" id="Oval-Copy-9"></path>
                    <path d="M55.442116,60.2058628 C62.0459263,57.5554967 66.7083855,51.1002456 66.7083855,43.5575049 C66.7083855,33.6520331 58.667442,25.6220617 48.7484355,25.6220617 C43.9574562,25.6220617 39.6046265,27.4954433 36.3844141,30.5486862" id="Oval-Copy-5"></path>
                </g>
                <g id="Group-6" transform="translate(329.518519, 298.344227)" stroke-linecap="round" stroke-linejoin="round" stroke-width="1.2">
                    <path d="M119.915242,15.1938453 L119.915242,45.0427807 C119.915242,45.5950655 119.467526,46.0427807 118.915242,46.0427807 L6.13922464,46.0427807 C5.58693989,46.0427807 5.13922464,45.5950655 5.13922464,45.0427807 L5.13922464,15.1938453" id="Rectangle-4-Copy-9"></path>
                    <polyline id="Rectangle-4-Copy-11" points="1.71307488 62.5567748 5.13922464 46.0427807 43.6834094 46.0427807 41.9703346 66.5062389"></polyline>
                    <polygon id="Rectangle-4-Copy-14" points="1.71307488 73.4220153 41.9703346 73.4220153 41.9703346 66.5062389 1.71307488 66.5062389"></polygon>
                    <polygon id="Rectangle-4-Copy-16" points="83.9406691 73.4220153 123.203624 73.4220153 123.203624 66.5062389 83.9406691 66.5062389"></polygon>
                    <polyline id="Rectangle-4-Copy-12" points="43.6834094 46.0427807 82.2275942 46.0427807 83.409086 60.1562372 83.9406691 66.5062389"></polyline>
                    <polygon id="Rectangle-4-Copy-15" points="41.9703346 73.4311599 83.9406691 73.4311599 83.9406691 66.5062389 41.9703346 66.5062389"></polygon>
                    <polyline id="Rectangle-4-Copy-17" points="110.743285 93.7908497 118.202167 93.7908497 118.202167 73.3273916 8.5653744 73.3273916 8.5653744 93.7908497 105.135068 93.7908497"></polyline>
                    <polyline id="Rectangle-4-Copy-13" points="82.2275942 46.0427807 119.759383 46.0427807 123.185533 66.5062389 83.9406691 66.5062389"></polyline>
                    <path d="M125.053715,7.56556125 C125.054215,7.60158033 125.054466,7.63765939 125.054466,7.67379679 C125.054466,11.9119177 121.603102,15.3475936 117.345629,15.3475936 C114.362368,15.3475936 111.774904,13.6606875 110.49333,11.1928312 C109.211755,13.6606875 106.624291,15.3475936 103.64103,15.3475936 C100.657769,15.3475936 98.0703051,13.6606875 96.7887307,11.1928312 C95.5071563,13.6606875 92.9196923,15.3475936 89.9364312,15.3475936 C86.9531701,15.3475936 84.3657061,13.6606875 83.0841317,11.1928312 C81.8025573,13.6606875 79.2150933,15.3475936 76.2318322,15.3475936 C73.248571,15.3475936 70.661107,13.6606875 69.3795326,11.1928312 C68.0979582,13.6606875 65.5104942,15.3475936 62.5272331,15.3475936 C59.543972,15.3475936 56.956508,13.6606875 55.6749336,11.1928312 C54.3933592,13.6606875 51.8058952,15.3475936 48.8226341,15.3475936 C45.839373,15.3475936 43.2519089,13.6606875 41.9703346,11.1928312 C40.6887602,13.6606875 38.1012961,15.3475936 35.118035,15.3475936 C32.1347739,15.3475936 29.5473099,13.6606875 28.2657355,11.1928312 C26.9841611,13.6606875 24.3966971,15.3475936 21.413436,15.3475936 C18.4301749,15.3475936 15.8427109,13.6606875 14.5611365,11.1928312 C13.2795621,13.6606875 10.6920981,15.3475936 7.70883696,15.3475936 C3.45136387,15.3475936 0,11.9119177 0,7.67379679 C0,7.63765939 0.00025093306,7.60158033 0.000751159278,7.56556125 C0.000251913044,7.55258302 1.60434693e-18,7.53954137 0,7.52644088 L0,1 C-6.76353751e-17,0.44771525 0.44771525,1.01453063e-16 1,0 L124.054466,0 C124.606751,-1.01453063e-16 125.054466,0.44771525 125.054466,1 L125.054466,7.52644088 C125.054466,7.53954137 125.054214,7.55258302 125.053715,7.56556125 Z" id="Combined-Shape"></path>
                </g>
                <g id="Group-10" transform="translate(414.376906, 0.000000)">
                    <polyline id="Rectangle-4-Copy-17" stroke-width="1.2" stroke-linecap="round" stroke-linejoin="round" points="109.422658 301.328738 109.422658 245.517414 0 245.517414 0 289.461133"></polyline>
                    <polyline id="Rectangle-4-Copy-43" stroke-width="1.2" stroke-linecap="round" stroke-linejoin="round" points="328.267974 301.501205 328.267974 184.901961 183.115468 184.901961 183.115468 228.84568"></polyline>
                    <polyline id="Rectangle-4-Copy-27" stroke-width="1.2" stroke-linecap="round" stroke-linejoin="round" transform="translate(29.065394, 258.724421) rotate(90.000000) translate(-29.065394, -258.724421) " points="23.9362064 243.364464 23.9362064 236.525685 34.1945806 236.525685 34.1945806 280.923158 23.9362064 280.923158 23.9362064 248.46562"></polyline>
                    <polyline id="Rectangle-4-Copy-29" stroke-width="1.2" stroke-linecap="round" stroke-linejoin="round" transform="translate(80.357264, 258.724421) scale(1, -1) rotate(90.000000) translate(-80.357264, -258.724421) " points="75.2280773 236.525685 85.4864515 236.525685 85.4864515 280.923158 75.2280773 280.923158 75.2280773 248.46562"></polyline>
                    <polyline id="Rectangle-4-Copy-23" stroke-width="1.2" stroke-linecap="round" stroke-linejoin="round" points="342.580497 308.24468 64.9697032 308.24468 64.9697032 393.442979"></polyline>
                    <polyline id="Rectangle-4-Copy-18" stroke-width="1.2" stroke-linecap="round" stroke-linejoin="round" points="152.77999 301.303149 152.77999 142.607953 29.0653935 142.607953 29.0653935 238.791894"></polyline>
                    <rect id="Rectangle-4" stroke-width="1.2" x="39.9237677" y="184.190236" width="43.2529548" height="43.1974731" rx="1"></rect>
                    <path d="M46.1626838,221.430322 L46.1626838,185.297831" id="Path-3-Copy" stroke-width="1.2" stroke-linecap="round" stroke-linejoin="round"></path>
                    <polyline id="Rectangle-4-Copy-24" stroke-width="1.2" stroke-linecap="round" stroke-linejoin="round" points="75.2280773 387.794641 75.2280773 330.443416 170.972903 330.443416 170.972903 368.010509"></polyline>
                    <polyline id="Rectangle-4-Copy-42" stroke-width="1.2" stroke-linecap="round" stroke-linejoin="round" points="182.222222 387.852314 182.222222 330.501089 360.158619 330.501089"></polyline>
                    <g id="Group-41" transform="translate(254.636166, 370.613290) scale(-1, 1) translate(-254.636166, -370.613290) translate(196.636166, 342.113290)" stroke-linecap="round" stroke-linejoin="round">
                        <path d="M12.6504297,5.41343159 L41.3528521,5.41343159 C41.9051368,5.41343159 42.3528521,5.86114684 42.3528521,6.41343159 L42.3528521,42.8487965 C42.3528521,43.4010812 41.9051368,43.8487965 41.3528521,43.8487965 L28.6874263,43.8487965 L28.6874263,43.8487965 C28.6874263,39.4766239 25.1430801,35.9322777 20.7709075,35.9322777 L16.0445633,35.9322777 C11.6509738,35.9322777 8.0692399,39.4557968 7.99724957,43.8487965 L4.86673685,43.8487965 C4.3144521,43.8487965 3.86673685,43.4010812 3.86673685,42.8487965 L3.86673685,23.7561638 L11.7362647,6.00808922 C11.8965795,5.6465328 12.2549251,5.41343159 12.6504297,5.41343159 Z" id="Rectangle-4-Copy-22" stroke-width="1.2"></path>
                        <path d="M14.4068956,23.3631107 L11.9464691,16.6218428" id="Path-3-Copy-13" stroke-width="1.2"></path>
                        <polyline id="Path-3-Copy-84" stroke-width="1.2" points="2.00096297 37.8082928 0.613807799 37.8082928 0.613807799 46.3830506 7.99925753 46.3963041 7.99925753 44.0426668"></polyline>
                        <path d="M23.50468,20.9987944 L26.5980695,5.69806703" id="Path-3-Copy-81" stroke-width="1.2"></path>
                        <path d="M96.7270257,10.0243603 L115.059224,10.0243603" id="Path-3-Copy-85" stroke-width="1.2"></path>
                        <path d="M63.2747161,17.3073942 L104.947104,17.3073942" id="Path-3-Copy-86" stroke-width="1.2"></path>
                        <path d="M23.50468,36.4657418 L23.50468,23.8201691" id="Path-3-Copy-83" stroke-width="1.2"></path>
                        <path d="M42.1153153,23.771046 L4.17562134,23.771046" id="Path-3-Copy-82" stroke-width="1.2"></path>
                        <path d="M18.2384356,53.7595043 C22.487538,53.7595043 25.9321162,50.3192253 25.9321162,46.0754262 C25.9321162,41.831627 22.487538,38.3913481 18.2384356,38.3913481 C13.9893331,38.3913481 10.544755,41.831627 10.544755,46.0754262 C10.544755,48.0972225 11.3265649,49.9366451 12.6047148,51.3085805" id="Oval-Copy-10" stroke-width="1.2" transform="translate(18.238436, 46.075426) rotate(-150.000000) translate(-18.238436, -46.075426) "></path>
                        <path d="M97.8932147,53.7595043 C102.142317,53.7595043 105.586895,50.3192253 105.586895,46.0754262 C105.586895,41.831627 102.142317,38.3913481 97.8932147,38.3913481 C93.6441123,38.3913481 90.1995341,41.831627 90.1995341,46.0754262 C90.1995341,48.0972225 90.9813441,49.9366451 92.2594939,51.3085805" id="Oval-Copy-27" stroke-width="1.2" transform="translate(97.893215, 46.075426) rotate(-220.000000) translate(-97.893215, -46.075426) "></path>
                        <path d="M77.7861831,53.7595043 C82.0352855,53.7595043 85.4798637,50.3192253 85.4798637,46.0754262 C85.4798637,41.831627 82.0352855,38.3913481 77.7861831,38.3913481 C73.5370806,38.3913481 70.0925025,41.831627 70.0925025,46.0754262 C70.0925025,48.0972225 70.8743125,49.9366451 72.1524623,51.3085805" id="Oval-Copy-28" stroke-width="1.2" transform="translate(77.786183, 46.075426) rotate(10.000000) translate(-77.786183, -46.075426) "></path>
                        <path d="M44.8541475,30.1815322 L44.8541475,1.62836662 C44.8541475,1.07608187 45.3018627,0.628366619 45.8541475,0.628366619 L114.047505,0.628366619 C114.59979,0.628366619 115.047505,1.07608187 115.047505,1.62836662 L115.047505,42.8487965 C115.047505,43.4010812 114.59979,43.8487965 114.047505,43.8487965 L109.174494,43.8487965 L109.174494,43.8487965 C109.174494,38.6842572 104.987808,34.4975709 99.8232684,34.4975709 L76.264445,34.4975709 C71.0999057,34.4975709 66.9132194,38.6842572 66.9132194,43.8487965 L45.8541475,43.8487965 C45.3018627,43.8487965 44.8541475,43.4010812 44.8541475,42.8487965 L44.8541475,33.9458448" id="Rectangle-4-Copy-23" stroke-width="1.2"></path>
                        <g id="Group" transform="translate(53.561002, 9.359477) scale(-1, 1) translate(-53.561002, -9.359477) translate(49.061002, 5.359477)" stroke-width="0.8">
                            <circle id="Oval-Copy-3" cx="3.50393447" cy="3.50393447" r="3.50393447"></circle>
                            <path d="M4.8725331,2.64445072 L5.16431025,2.91862641 C5.99192799,3.69631812 6.04121946,4.99462861 5.27495062,5.83283359 L5.14646806,5.97337791 C4.43792543,6.74843742 4.44161043,7.93718051 5.15494461,8.70783234" id="Path-9" transform="translate(5.218167, 5.676142) rotate(110.000000) translate(-5.218167, -5.676142) "></path>
                        </g>
                    </g>
                    <path d="M82.0669935,369.991097 L82.0669935,339.314496" id="Path-3-Copy-14" stroke-width="1.2" stroke-linecap="round" stroke-linejoin="round"></path>
                    <rect id="Rectangle-4-Copy-22" stroke-width="1.2" x="98.0545547" y="184.190236" width="43.2529548" height="43.1974731" rx="1"></rect>
                    <path d="M104.293471,221.430322 L104.293471,185.297831" id="Path-3-Copy-13" stroke-width="1.2" stroke-linecap="round" stroke-linejoin="round"></path>
                    <path d="M46.7158789,168.141149 C51.0870017,168.141149 54.6304969,164.602076 54.6304969,160.236409 C54.6304969,155.870742 51.0870017,152.331669 46.7158789,152.331669 C42.3447561,152.331669 38.8012609,155.870742 38.8012609,160.236409 C38.8012609,162.316265 39.6055219,164.20851 40.920376,165.619842" id="Oval-Copy-3" stroke-width="1.2" stroke-linecap="round" stroke-linejoin="round" transform="translate(46.715879, 160.236409) rotate(-150.000000) translate(-46.715879, -160.236409) "></path>
                    <path d="M72.3618143,168.141149 C76.7329372,168.141149 80.2764323,164.602076 80.2764323,160.236409 C80.2764323,155.870742 76.7329372,152.331669 72.3618143,152.331669 C67.9906915,152.331669 64.4471963,155.870742 64.4471963,160.236409 C64.4471963,162.316265 65.2514573,164.20851 66.5663115,165.619842" id="Oval-Copy-10" stroke-width="1.2" stroke-linecap="round" stroke-linejoin="round" transform="translate(72.361814, 160.236409) rotate(-150.000000) translate(-72.361814, -160.236409) "></path>
                    <path d="M98.0077498,168.141149 C102.378873,168.141149 105.922368,164.602076 105.922368,160.236409 C105.922368,155.870742 102.378873,152.331669 98.0077498,152.331669 C93.636627,152.331669 90.0931318,155.870742 90.0931318,160.236409 C90.0931318,162.316265 90.8973928,164.20851 92.2122469,165.619842" id="Oval-Copy-11" stroke-width="1.2" stroke-linecap="round" stroke-linejoin="round" transform="translate(98.007750, 160.236409) rotate(-150.000000) translate(-98.007750, -160.236409) "></path>
                    <path d="M123.653685,168.141149 C128.024808,168.141149 131.568303,164.602076 131.568303,160.236409 C131.568303,155.870742 128.024808,152.331669 123.653685,152.331669 C119.282562,152.331669 115.739067,155.870742 115.739067,160.236409 C115.739067,162.316265 116.543328,164.20851 117.858182,165.619842" id="Oval-Copy-12" stroke-width="1.2" stroke-linecap="round" stroke-linejoin="round" transform="translate(123.653685, 160.236409) rotate(-150.000000) translate(-123.653685, -160.236409) "></path>
                    <polyline id="Rectangle-4-Copy-19" stroke-width="1.2" stroke-linecap="round" stroke-linejoin="round" points="266.187364 179.010142 266.187364 0.0837826931 109.422658 0.0837826931 109.422658 109.35746"></polyline>
                    <rect id="Rectangle-4" stroke-width="1.2" x="218.55207" y="26.7715056" width="26.1301991" height="43.1949432" rx="1"></rect>
                    <rect id="Rectangle-4-Copy-50" stroke-width="1.2" stroke-linecap="round" stroke-linejoin="round" x="200.980392" y="267.406354" width="27.3301991" height="7.36748834"></rect>
                    <polyline id="Rectangle-4-Copy-51" stroke-width="1.2" stroke-linecap="round" stroke-linejoin="round" points="248.995607 274.773843 242.069717 274.773843 242.069717 267.406354 269.399916 267.406354 269.399916 274.773843 254.012797 274.773843"></polyline>
                    <polyline id="Rectangle-4-Copy-52" stroke-width="1.2" stroke-linecap="round" stroke-linejoin="round" points="283.159041 271.424136 283.159041 267.406354 310.489241 267.406354 310.489241 274.773843 283.159041 274.773843"></polyline>
                    <path d="M228.310591,242.710287 L228.310591,253.414551 L200.980392,253.414551 L200.980392,222.684707 C200.980392,215.137681 207.098466,209.019608 214.645492,209.019608 L214.645492,209.019608 C222.192518,209.019608 228.310591,215.137681 228.310591,222.684707 L228.310591,236.959623" id="Rectangle-4-Copy-44" stroke-width="1.2" stroke-linecap="round" stroke-linejoin="round"></path>
                    <path d="M255.734816,209.019608 L255.734816,209.019608 C263.281842,209.019608 269.399916,215.137681 269.399916,222.684707 L269.399916,253.414551 L242.069717,253.414551 L242.069717,222.684707 C242.069717,215.137681 248.18779,209.019608 255.734816,209.019608 Z" id="Rectangle-4-Copy-45" stroke-width="1.2" stroke-linecap="round" stroke-linejoin="round"></path>
                    <path d="M286.434723,245.955702 L286.434723,223.912854 C286.434723,216.180868 292.702737,209.912854 300.434723,209.912854 L301.035871,209.912854" id="Rectangle-4-Copy-49" stroke-width="1.2" stroke-linecap="round" stroke-linejoin="round"></path>
                    <path d="M245.34797,245.955702 L245.34797,223.912854 C245.34797,216.180868 251.615983,209.912854 259.34797,209.912854 L259.949117,209.912854" id="Rectangle-4-Copy-53" stroke-width="1.2" stroke-linecap="round" stroke-linejoin="round"></path>
                    <path d="M204.258645,245.955702 L204.258645,223.912854 C204.258645,216.180868 210.526658,209.912854 218.258645,209.912854 L218.859792,209.912854" id="Rectangle-4-Copy-54" stroke-width="1.2" stroke-linecap="round" stroke-linejoin="round"></path>
                    <path d="M299.193726,253.414551 L283.159041,253.414551 L283.159041,222.684707 C283.159041,215.137681 289.277115,209.019608 296.824141,209.019608 L296.824141,209.019608 C304.371167,209.019608 310.489241,215.137681 310.489241,222.684707 L310.489241,253.414551 L303.540005,253.414551" id="Rectangle-4-Copy-46" stroke-width="1.2" stroke-linecap="round" stroke-linejoin="round"></path>
                    <rect id="Rectangle-4-Copy" stroke-width="1.2" x="173.88976" y="26.7715056" width="26.1301991" height="43.1949432" rx="1"></rect>
                    <rect id="Rectangle-4-Copy-2" stroke-width="1.2" x="130.120697" y="26.7715056" width="26.1301991" height="43.1949432" rx="1"></rect>
                    <path d="M225.019684,64.0884299 L225.019684,27.957998" id="Path-3-Copy" stroke-width="1.2" stroke-linecap="round" stroke-linejoin="round"></path>
                    <path d="M180.357375,64.0884299 L180.357375,27.957998" id="Path-3-Copy-4" stroke-width="1.2" stroke-linecap="round" stroke-linejoin="round"></path>
                    <path d="M134.801819,64.0884299 L134.801819,27.957998" id="Path-3-Copy-64" stroke-width="1.2" stroke-linecap="round" stroke-linejoin="round"></path>
                    <polyline id="Rectangle-4-Copy-20" stroke-width="1.2" stroke-linecap="round" stroke-linejoin="round" points="212.0064 179.698637 212.0064 114.492656 102.583742 114.492656 102.583742 134.628592"></polyline>
                    <polyline id="Rectangle-4-Copy-29" stroke-width="1.2" stroke-linecap="round" stroke-linejoin="round" transform="translate(188.814786, 138.899782) scale(1, -1) rotate(90.000000) translate(-188.814786, -138.899782) " points="177.649209 126.947741 199.980363 126.947741 199.980363 150.851823 177.649209 150.851823 177.649209 133.376332"></polyline>
                </g>
                <g id="Group-10-Copy" transform="translate(359.759259, 191.969499) scale(-1, 1) translate(-359.759259, -191.969499) translate(329.259259, 175.969499)" stroke-linecap="round" stroke-linejoin="round" stroke-width="1.2">
                    <path d="M12.2455227,11.016703 C12.2407144,10.8901247 12.2382885,10.7629363 12.2382885,10.6351813 C12.2382885,5.18115605 16.6596495,0.759795022 22.1136748,0.759795022 L37.795001,0.759795022 C43.2490263,0.759795022 47.6703873,5.18115605 47.6703873,10.6351813 C47.6703873,16.0892065 43.2490263,20.5105675 37.795001,20.5105675 L37.6316798,20.5105675 C37.6444564,20.7187924 37.6509386,20.9287191 37.6509386,21.1401598 C37.6509386,26.7311906 33.1185126,31.2636166 27.5274818,31.2636166 L10.1465697,31.2636166 C4.5555389,31.2636166 0.023112915,26.7311906 0.023112915,21.1401598 C0.023112915,15.549129 4.5555389,11.016703 10.1465697,11.016703 L12.2455227,11.016703 Z" id="Combined-Shape"></path>
                    <path d="M60.0699371,10.7710823 L60.0699371,19.5829731 C60.0699371,24.30599 56.2411754,28.1347517 51.5181585,28.1347517 L51.3714311,28.1347517 C46.7294495,28.1347517 42.9663799,24.3716821 42.9663799,19.7297005" id="Rectangle-4-Copy-31" transform="translate(51.518159, 19.452917) scale(-1, 1) rotate(90.000000) translate(-51.518159, -19.452917) "></path>
                </g>
            </g>
            <g id="Group-23" stroke="#000000" stroke-width="1.2">
                <g id="Group-2" transform="translate(571.849274, 404.947402)" stroke-linecap="round" stroke-linejoin="round">
                    <path d="M117.785835,39.5099316 C117.785835,33.1455512 112.658868,27.9862015 106.334434,27.9862015 C100.01,27.9862015 94.8830334,33.1455512 94.8830334,39.5099316 L35.9901161,39.5099316 C35.9901161,33.1455512 30.8631495,27.9862015 24.5387155,27.9862015 C18.2142816,27.9862015 13.087315,33.1455512 13.087315,39.5099316 L2,39.5099316 C0.8954305,39.5099316 1.3527075e-16,38.6145011 0,37.5099316 L3.10862447e-15,23.9905664 C2.92645708e-15,22.5030567 1.09001267,21.2401785 2.56155009,21.022779 L22.2862923,18.1087186 L22.3574964,18.1087186 L31.9813644,3.58173713 C33.4631689,1.34499124 35.967565,5.82193948e-15 38.6506187,5.32907052e-15 L83.3749903,5.32907052e-15 C85.5054508,3.04548221e-15 87.5479121,0.84978421 89.0496251,2.36098239 L104.69852,18.1087186 L105.311053,18.1087186 L130.441527,22.6325354 C131.68206,22.8558479 132.744766,23.6508284 133.309281,24.7778226 L139.238162,36.6142131 C139.732854,37.6018131 139.333273,38.803448 138.345673,39.2981397 C138.067626,39.4374141 137.760932,39.5099316 137.449954,39.5099316 L117.785835,39.5099316 Z" id="Combined-Shape"></path>
                    <path d="M65.4365748,34.4236448 L65.4365748,3.79300955" id="Path-3"></path>
                    <path d="M85.28927,21.4797312 L88.3944757,10.0573141" id="Path-3-Copy-7"></path>
                    <path d="M106.334434,47.7411673 C110.851887,47.7411673 114.514006,44.0559176 114.514006,39.5099316 C114.514006,34.9639456 110.851887,31.2786958 106.334434,31.2786958 C101.816981,31.2786958 98.1548622,34.9639456 98.1548622,39.5099316 C98.1548622,41.6756933 98.986047,43.6460951 100.344918,45.1157215" id="Oval-Copy-3"></path>
                    <path d="M24.5387155,47.7411673 C29.0561683,47.7411673 32.7182874,44.0559176 32.7182874,39.5099316 C32.7182874,34.9639456 29.0561683,31.2786958 24.5387155,31.2786958 C20.0212628,31.2786958 16.3591437,34.9639456 16.3591437,39.5099316 C16.3591437,41.6756933 17.1903285,43.6460951 18.5491994,45.1157215" id="Oval-Copy-4" transform="translate(24.538716, 39.509932) scale(-1, 1) translate(-24.538716, -39.509932) "></path>
                </g>
                <path d="M275.100108,450.983527 L581.229277,450.983527" id="Path-3-Copy-8" stroke-linecap="round" stroke-linejoin="round"></path>
                <path d="M695.49476,450.983527 L871,450.983527" id="Path-3-Copy-72" stroke-linecap="round" stroke-linejoin="round"></path>
                <path d="M720.223858,445.015881 L829.372976,445.015881" id="Path-3-Copy-73" stroke-linecap="round" stroke-linejoin="round"></path>
                <path d="M16.8577817,445.015881 L117.345522,445.015881" id="Path-3-Copy-74" stroke-linecap="round" stroke-linejoin="round"></path>
                <path d="M0.909570157,450.983527 L148.043712,450.983527" id="Path-3-Copy-69" stroke-linecap="round" stroke-linejoin="round"></path>
                <g id="Group-3" transform="translate(308.356480, 202.047440)">
                    <path d="M119.037766,215.113627 L119.037766,147.668382 C119.037766,147.116097 118.59005,146.668382 118.037766,146.668382 L64.5955186,146.668382 C64.0432339,146.668382 63.5955186,147.116097 63.5955186,147.668382 L63.5955186,215.113627 L16.3065432,215.113627 L16.3065432,2 C16.3065432,0.8954305 17.2019737,5.7046325e-14 18.3065432,5.68434189e-14 L167.58805,5.68434189e-14 C168.692619,5.66405127e-14 169.58805,0.8954305 169.58805,2 L169.58805,215.113627 L119.037766,215.113627 Z" id="Combined-Shape" stroke-linecap="round" stroke-linejoin="round"></path>
                    <rect id="Rectangle-4-Copy-5" x="122.899074" y="73.9341911" width="24.8904692" height="41.170866" rx="1"></rect>
                    <rect id="Rectangle-4" x="122.899074" y="20.1557843" width="24.8904692" height="41.170866" rx="1"></rect>
                    <rect id="Rectangle-4-Copy" x="80.5020619" y="20.1557843" width="24.8904692" height="41.170866" rx="1"></rect>
                    <rect id="Rectangle-4-Copy-2" x="38.1050494" y="20.1557843" width="24.8904692" height="41.170866" rx="1"></rect>
                    <rect id="Rectangle-4-Copy-4" x="80.5020619" y="73.9341911" width="24.8904692" height="41.170866" rx="1"></rect>
                    <rect id="Rectangle-4-Copy-3" x="38.1050494" y="73.9341911" width="24.8904692" height="41.170866" rx="1"></rect>
                    <rect id="Rectangle-5" stroke-linecap="round" stroke-linejoin="round" x="8.15327162" y="221.632222" width="169.58805" height="6.51859476"></rect>
                    <polyline id="Rectangle-5-Copy" stroke-linecap="round" stroke-linejoin="round" points="180.09703 233.039763 185.894593 233.039763 185.894593 239.558358 0 239.558358 0 233.039763 173.796637 233.039763"></polyline>
                    <path d="M90.5997981,213.683247 L90.5997981,155.703382" id="Path-3" stroke-linecap="round" stroke-linejoin="round"></path>
                    <path d="M128.821692,55.6685875 L128.821692,21.185433" id="Path-3-Copy" stroke-linecap="round" stroke-linejoin="round"></path>
                    <path d="M128.821692,109.446994 L128.821692,74.9638398" id="Path-3-Copy-2" stroke-linecap="round" stroke-linejoin="round"></path>
                    <path d="M86.4246791,55.6685875 L86.4246791,21.185433" id="Path-3-Copy-4" stroke-linecap="round" stroke-linejoin="round"></path>
                    <path d="M86.4246791,109.446994 L86.4246791,74.9638398" id="Path-3-Copy-3" stroke-linecap="round" stroke-linejoin="round"></path>
                    <path d="M43.1749392,55.7961757 L43.1749392,21.3130211" id="Path-3-Copy-64" stroke-linecap="round" stroke-linejoin="round"></path>
                    <path d="M43.1749392,109.504989 L43.1749392,75.0218344" id="Path-3-Copy-63" stroke-linecap="round" stroke-linejoin="round"></path>
                </g>
                <g id="Group" transform="translate(522.391080, 95.482335)" stroke-linecap="round" stroke-linejoin="round">
                    <path d="M0,10.5476988 C8.27693533,8.44518227 15.2224912,8.87458493 20.8366677,11.8359068 C22.6533704,4.80212644 27.9256273,0.856824165 36.6534384,0" id="Path-3-Copy-7"></path>
                    <path d="M29.3438578,24.1066202 C35.2339152,22.6104211 40.1765323,22.9159939 44.1717093,25.0233386 C45.4645167,20.0179389 49.2163759,17.2103711 55.4272869,16.6006353" id="Path-3-Copy-12"></path>
                </g>
                <g id="Group-7" transform="translate(283.627383, 0.000000)" stroke-linecap="round" stroke-linejoin="round">
                    <polyline id="Rectangle-4-Copy-21" points="104.885481 189.57484 104.885481 0 0 0 0 95.3582636"></polyline>
                    <polyline id="Rectangle-4-Copy-25" points="81.9417823 136.964979 81.9417823 114.216237 93.4136318 114.216237 93.4136318 143.586127 81.9417823 143.586127"></polyline>
                    <polyline id="Rectangle-4-Copy-28" points="81.9417823 48.8553099 81.9417823 26.1065685 93.4136318 26.1065685 93.4136318 55.4764582 81.9417823 55.4764582"></polyline>
                    <polyline id="Rectangle-4-Copy-27" points="81.9417823 76.6960701 81.9417823 70.161403 93.4136318 70.161403 93.4136318 99.5312926 81.9417823 99.5312926 81.9417823 81.5703845"></polyline>
                    <polyline id="Rectangle-4-Copy-26" points="81.9417823 171.781365 81.9417823 158.271072 93.4136318 158.271072 93.4136318 179.939668"></polyline>
                </g>
                <g id="Group-40" transform="translate(153.512744, 58.823938)">
                    <g id="Group-Copy-6" transform="translate(81.755021, 5.500000) scale(-1, 1) translate(-81.755021, -5.500000) translate(66.255021, 0.000000)" stroke-linecap="round" stroke-linejoin="round">
                        <path d="M0.403547711,9.09549988 C7.1730234,7.37478254 12.8536008,7.72620931 17.4452799,10.1497802 C18.9311107,4.39327484 23.2431432,1.16440611 30.3813777,0.463173964" id="Path-3-Copy-12"></path>
                    </g>
                    <g id="Group-3" transform="translate(69.641913, 388.591621) scale(-1, 1) translate(-69.641913, -388.591621) translate(0.641913, 385.091621)" stroke-linecap="round" stroke-linejoin="round">
                        <polyline id="Rectangle-5-Copy-4" points="0.22502531 0.224962098 137.431247 0.224962098 137.431247 6.6665143 31.643481 6.6665143"></polyline>
                    </g>
                    <g id="Group-7-Copy" transform="translate(131.233082, 150.262649) scale(-1, 1) translate(-131.233082, -150.262649) translate(70.733082, 52.262649)" stroke-linecap="round" stroke-linejoin="round">
                        <polyline id="Rectangle-4-Copy-21" points="120.675295 195.936895 120.675295 0 0 0 0 77.414311"></polyline>
                        <path d="M40.9336556,35.7992845 C45.7295278,35.7992845 49.6173505,31.9147101 49.6173505,27.1228447 C49.6173505,22.3309794 45.7295278,18.446405 40.9336556,18.446405 C36.1377833,18.446405 32.2499606,22.3309794 32.2499606,27.1228447 C32.2499606,29.4057463 33.132373,31.4827215 34.5749938,33.0318358" id="Oval-Copy-3" transform="translate(40.933656, 27.122845) rotate(-150.000000) translate(-40.933656, -27.122845) "></path>
                        <path d="M69.3549444,35.7992845 C74.1508167,35.7992845 78.0386393,31.9147101 78.0386393,27.1228447 C78.0386393,22.3309794 74.1508167,18.446405 69.3549444,18.446405 C64.5590721,18.446405 60.6712495,22.3309794 60.6712495,27.1228447 C60.6712495,29.4057463 61.5536618,31.4827215 62.9962826,33.0318358" id="Oval-Copy-10" transform="translate(69.354944, 27.122845) rotate(-150.000000) translate(-69.354944, -27.122845) "></path>
                        <path d="M96.7961888,35.7992845 C101.592061,35.7992845 105.479884,31.9147101 105.479884,27.1228447 C105.479884,22.3309794 101.592061,18.446405 96.7961888,18.446405 C92.0003165,18.446405 88.1124938,22.3309794 88.1124938,27.1228447 C88.1124938,29.4057463 88.9949062,31.4827215 90.437527,33.0318358" id="Oval-Copy-11" transform="translate(96.796189, 27.122845) rotate(-150.000000) translate(-96.796189, -27.122845) "></path>
                        <polyline id="Rectangle-4-Copy-25" points="98.0082566 143.927341 98.0082566 121.438176 109.341776 121.438176 109.341776 150.472939 98.0082566 150.472939"></polyline>
                        <polyline id="Rectangle-4-Copy-27" points="98.0082566 84.3461341 98.0082566 77.8860311 109.341776 77.8860311 109.341776 106.920794 98.0082566 106.920794 98.0082566 89.1648299"></polyline>
                        <polyline id="Rectangle-4-Copy-26" points="98.0082566 178.346453 98.0082566 164.99032 109.341776 164.99032 109.341776 186.411665"></polyline>
                    </g>
                    <g id="Group-7-Copy-2" transform="translate(81.297155, 322.338621) scale(-1, 1) translate(-81.297155, -322.338621) translate(18.297155, 258.838621)">
                        <polyline id="Rectangle-4-Copy-21" stroke-linecap="round" stroke-linejoin="round" points="125.181722 126.262835 125.181722 0 0 0"></polyline>
                        <polyline id="Rectangle-4-Copy-25" stroke-linecap="round" stroke-linejoin="round" points="73.5033331 88.1792701 73.5033331 65.6901045 84.8368521 65.6901045 84.8368521 94.7248675 73.5033331 94.7248675"></polyline>
                        <polyline id="Rectangle-4-Copy-27" stroke-linecap="round" stroke-linejoin="round" points="102.904666 72.1502075 102.904666 65.6901045 114.238185 65.6901045 114.238185 94.7248675 102.904666 94.7248675 102.904666 76.9689033"></polyline>
                        <polyline id="Rectangle-4-Copy-26" stroke-linecap="round" stroke-linejoin="round" points="44.1019999 79.0462379 44.1019999 65.6901045 55.4355188 65.6901045 55.4355188 87.1114499"></polyline>
                        <rect id="Rectangle-4" x="2.56008888" y="11.3849425" width="47.5725242" height="37.7238388" rx="1.35"></rect>
                        <path d="M8.73617741,42.6012722 L8.73617741,12.7458412" id="Path-3-Copy" stroke-linecap="round" stroke-linejoin="round"></path>
                        <rect id="Rectangle-4-Copy-22" x="66.2629776" y="11.3849425" width="47.5725242" height="37.7238388" rx="1.35"></rect>
                        <path d="M73.4191106,42.6012722 L73.4191106,12.7458412" id="Path-3-Copy-13" stroke-linecap="round" stroke-linejoin="round"></path>
                    </g>
                </g>
            </g>
            <g id="Group-2" transform="translate(813.000000, 11.000000)" stroke-linecap="round" stroke-linejoin="round">
                <polyline id="Rectangle-4-Copy-23" stroke="#000000" stroke-width="1.2" points="110.164379 434.983451 110.164379 189.222019 10.0178473 189.222019 10.0178473 423.708543"></polyline>
                <path d="M119.267009,20.0398592 L119.267009,189.454077 L0.915217642,189.454077 L0.915217642,19.8774556 C1.42749969,19.9878296 1.95919767,20.045943 2.50446182,20.045943 C6.65399003,20.045943 10.0178473,16.6803651 10.0178473,12.5287144 C10.0178473,12.1824775 9.99445122,11.8417078 9.94915456,11.5079016 L111.517244,11.5079016 C111.471947,11.8417078 111.448551,12.1824775 111.448551,12.5287144 C111.448551,16.6803651 114.812408,20.045943 118.961936,20.045943 C119.064117,20.045943 119.16582,20.0439022 119.267009,20.0398592 Z" id="Combined-Shape" stroke="#000000" stroke-width="1.2"></path>
                <path d="M119.303143,25.8592242 L8.90632592,25.8592242" id="Path-3-Copy" stroke="#000000" stroke-width="1.2"></path>
                <path d="M119.303143,30.87071 L35.728219,30.87071" id="Path-3-Copy-8" stroke="#000000"></path>
                <path d="M88.7857594,195.945273 L88.7857594,363.667371" id="Path-3-Copy-9" stroke="#000000" stroke-width="1.2"></path>
                <path d="M31.3057727,206.650385 L31.3057727,433.698458" id="Path-3-Copy-10" stroke="#000000" stroke-width="1.2"></path>
                <polyline id="Rectangle-4-Copy-28" stroke="#000000" stroke-width="1.2" points="95.1695491 214.206881 95.1695491 196.739247 103.935166 196.739247 103.935166 219.290933 95.1695491 219.290933"></polyline>
                <polyline id="Rectangle-4-Copy-27" stroke="#000000" stroke-width="1.2" points="95.1695491 235.584424 95.1695491 230.566776 103.935166 230.566776 103.935166 253.118462 95.1695491 253.118462 95.1695491 239.327169"></polyline>
                <polyline id="Rectangle-4-Copy-35" stroke="#000000" stroke-width="1.2" transform="translate(20.661810, 208.015090) scale(-1, -1) translate(-20.661810, -208.015090) " points="16.2790018 214.206881 16.2790018 196.739247 25.0446182 196.739247 25.0446182 219.290933 16.2790018 219.290933"></polyline>
                <polyline id="Rectangle-4-Copy-34" stroke="#000000" stroke-width="1.2" transform="translate(20.661810, 241.842619) scale(-1, -1) translate(-20.661810, -241.842619) " points="16.2790018 235.584424 16.2790018 230.566776 25.0446182 230.566776 25.0446182 253.118462 16.2790018 253.118462 16.2790018 239.327169"></polyline>
                <polyline id="Rectangle-4-Copy-47" stroke="#000000" stroke-width="1.2" transform="translate(20.661810, 275.842619) scale(-1, -1) translate(-20.661810, -275.842619) " points="16.2790018 269.584424 16.2790018 264.566776 25.0446182 264.566776 25.0446182 287.118462 16.2790018 287.118462 16.2790018 273.327169"></polyline>
                <polyline id="Rectangle-4-Copy-30" stroke="#000000" stroke-width="1.2" transform="translate(60.428127, 8.172894) scale(-1, 1) translate(-60.428127, -8.172894) " points="95.4905921 10.5626075 95.4905921 5.78318038 25.3656611 5.78318038 25.3656611 10.5626075"></polyline>
                <polyline id="Rectangle-4-Copy-33" stroke="#000000" stroke-width="1.2" transform="translate(60.428127, 3.161408) scale(-1, 1) translate(-60.428127, -3.161408) " points="82.968283 5.55112175 82.968283 0.771694627 37.8879702 0.771694627 37.8879702 5.55112175"></polyline>
                <g id="Group-4" transform="translate(7.513385, 35.080400)">
                    <g id="Group" transform="translate(48.495488, 22.437788)" stroke="#000000" stroke-width="2">
                        <path d="M3.00979376,56.1105772 L3.00979376,61.3287414" id="Path-5-Copy"></path>
                        <path d="M3.00979376,0.178816662 L3.00979376,5.39698078" id="Path-5"></path>
                    </g>
                    <g id="Group-Copy" transform="translate(51.093737, 53.344254) rotate(-270.000000) translate(-51.093737, -53.344254) translate(48.093737, 22.344254)" stroke="#000000" stroke-width="2">
                        <path d="M3.00979376,56.1105772 L3.00979376,61.3287414" id="Path-5-Copy"></path>
                        <path d="M3.00979376,0.178816662 L3.00979376,5.39698078" id="Path-5"></path>
                    </g>
                    <g id="Group-Copy-2" transform="translate(51.275205, 53.474250) rotate(-315.000000) translate(-51.275205, -53.474250) translate(48.275205, 22.474250)" stroke="#000000" stroke-width="2">
                        <path d="M3.00979376,56.1105772 L3.00979376,61.3287414" id="Path-5-Copy"></path>
                        <path d="M3.00979376,0.178816662 L3.00979376,5.39698078" id="Path-5"></path>
                    </g>
                    <g id="Group-Copy-3" transform="translate(51.625548, 53.256227) rotate(-45.000000) translate(-51.625548, -53.256227) translate(48.625548, 22.256227)" stroke="#000000" stroke-width="2">
                        <path d="M3.00979376,56.1105772 L3.00979376,61.3287414" id="Path-5-Copy"></path>
                        <path d="M3.00979376,0.178816662 L3.00979376,5.39698078" id="Path-5"></path>
                    </g>
                    <path d="M51.7092814,90.1496643 C72.5261354,90.1496643 89.4015297,73.265638 89.4015297,52.4381361 C89.4015297,31.6106342 72.5261354,14.7266079 51.7092814,14.7266079 C30.8924275,14.7266079 14.0170331,31.6106342 14.0170331,52.4381361 C14.0170331,62.3606052 17.8472122,71.3880305 24.1090191,78.1211453" id="Oval-Copy-3" stroke="#000000" stroke-width="1.2" transform="translate(51.709281, 52.438136) rotate(-150.000000) translate(-51.709281, -52.438136) "></path>
                    <g id="Group-9" transform="translate(56.792198, 48.842124) rotate(-295.000000) translate(-56.792198, -48.842124) translate(44.792198, 42.342124)" stroke="#000000" stroke-width="3">
                        <polyline id="Path-5-Copy-2" points="0.854207442 6.62619036 12.156318 12.2139981 23.6806818 0.683739503"></polyline>
                    </g>
                    <ellipse id="Oval-3" stroke="#050505" stroke-width="2" cx="51.3414673" cy="52.6206004" rx="31.3057727" ry="31.3217859"></ellipse>
                </g>
            </g>
        </g>
    </g>
</svg>