<?xml version="1.0" encoding="UTF-8"?>
<svg width="130px" height="130px" viewBox="0 0 130 130" version="1.1" xmlns="http://www.w3.org/2000/svg" xmlns:xlink="http://www.w3.org/1999/xlink">
    <!-- Generator: Sketch 50.2 (55047) - http://www.bohemiancoding.com/sketch -->
    <title>Artboard</title>
    <desc>Created with Sketch.</desc>
    <defs></defs>
    <g id="Artboard" stroke="none" stroke-width="1" fill="none" fill-rule="evenodd">
        <g id="Group-2" transform="translate(19.000000, 20.000000)">
            <g id="Group-3" transform="translate(35.000000, 29.000000)" stroke="#7813FE" stroke-linecap="round">
                <path d="M0.51786914,9.74890039 L13.0536247,21.9620742" id="Path-2"></path>
                <path d="M0.333052266,2.3524104 L16.6066867,18.4183378" id="Path-2-Copy"></path>
                <path d="M7,1 L19.8078749,13.6626112" id="Path-2-Copy-2"></path>
                <path d="M13.5016784,0.442353438 L21.8001666,8.71169903" id="Path-2-Copy-3"></path>
            </g>
            <ellipse id="Oval" stroke="#000000" cx="62.81571" cy="29.1359388" rx="29.18429" ry="29.1359388"></ellipse>
            <ellipse id="Oval-Copy" stroke="#000000" stroke-linecap="round" stroke-linejoin="round" cx="29.18429" cy="29.1359388" rx="29.18429" ry="29.1359388"></ellipse>
            <path d="M46.1389728,87.4078165 C62.2570111,87.4078165 75.3232628,74.3632123 75.3232628,58.2718777 C75.3232628,42.180543 62.2570111,29.1359388 46.1389728,29.1359388 C30.0209345,29.1359388 16.9546828,42.180543 16.9546828,58.2718777 C16.9546828,74.3632123 30.0209345,87.4078165 46.1389728,87.4078165 Z" id="Oval-Copy-2" stroke="#000000" stroke-linecap="round" stroke-linejoin="round" stroke-dasharray="2,4"></path>
            <g id="Group" transform="translate(36.688822, 69.648768)" stroke="#000000" stroke-linecap="round">
                <path d="M26.6855227,14.6617204 C32.4293711,19.6011388 38.5686419,21.1271204 46.9279217,16.2251972" id="Path-5"></path>
                <path d="M0.229865552,1.80934186 C8.1748412,-1.21558793 14.2424412,-0.000804756174 18.4326654,5.45369138 C20.1403302,7.67659172 21.8056868,9.72909789 23.4756035,11.5337771" id="Path-5-Copy"></path>
            </g>
            <g id="Group-Copy-6" transform="translate(37.244713, 67.706372)" stroke="#000000" stroke-linecap="round">
                <path d="M27.5193596,15.2166907 C32.9153404,19.6112338 38.0922981,21.2252384 46.0622038,16.2475405" id="Path-5"></path>
                <path d="M0.273839424,1.54804057 C8.28570639,-1.35360197 14.616594,0.133271722 19.2665023,6.00866165 C21.0186781,8.22262275 22.6395237,10.2840682 24.3094403,12.0887474" id="Path-5-Copy"></path>
            </g>
        </g>
    </g>
</svg>