<svg width="222px" height="222px" viewBox="0 0 222 222" version="1.1" xmlns="http://www.w3.org/2000/svg" fill="none" fill-rule="evenodd" stroke-linecap="round" stroke-linejoin="round">
  <path d="M101.315857,103.245716 L101.315857,134.37951" id="Path-4-Copy-2" stroke="#7813FE" transform="translate(101.315857, 118.812613) rotate(-45.000000) translate(-101.315857, -118.812613) "/>
  <path d="M100.741769,88.9379056 L100.741769,133.397007" id="Path-4-Copy-3" stroke="#7813FE" transform="translate(100.741769, 111.167456) rotate(-45.000000) translate(-100.741769, -111.167456) "/>
  <path d="M101.506774,78.2450188 L101.506774,131.477769" id="Path-4-Copy-4" stroke="#7813FE" transform="translate(101.506774, 104.861394) rotate(-45.000000) translate(-101.506774, -104.861394) "/>
  <path d="M103.5709,71.7869212 L103.5709,127.50777 L103.5709,71.7869212 Z" id="Path-4-Copy-5" stroke="#7813FE" transform="translate(104.070900, 99.647345) rotate(-45.000000) translate(-104.070900, -99.647345) "/>
  <path d="M107.931603,70.3638397 L107.931603,123.924334" id="Path-4-Copy-6" stroke="#7813FE" transform="translate(107.931603, 97.144087) rotate(-45.000000) translate(-107.931603, -97.144087) "/>
  <path d="M112.117288,69.8710682 L112.117288,118.64634" id="Path-4-Copy-7" stroke="#7813FE" transform="translate(112.117288, 94.258704) rotate(-45.000000) translate(-112.117288, -94.258704) "/>
  <path d="M116.578737,69.6890788 L116.578737,113.609091" id="Path-4-Copy-8" stroke="#7813FE" transform="translate(116.578737, 91.649085) rotate(-45.000000) translate(-116.578737, -91.649085) "/>
  <path d="M120.662836,69.6238852 L120.662836,107.700347" id="Path-4-Copy-9" stroke="#7813FE" transform="translate(120.662836, 88.662116) rotate(-45.000000) translate(-120.662836, -88.662116) "/>
  <path d="M125.445127,70.8695533 L125.445127,101.877126" id="Path-4-Copy-10" stroke="#7813FE" transform="translate(125.445127, 86.373340) rotate(-45.000000) translate(-125.445127, -86.373340) "/>
  <path d="M129.839282,72.4777406 L129.839282,94.5008993 L129.839282,72.4777406 Z" id="Path-4-Copy-11" stroke="#7813FE" transform="translate(130.339282, 83.489320) rotate(-45.000000) translate(-130.339282, -83.489320) "/>
  <path d="M135.288437,75.7876988 L135.288437,88.3613296" id="Path-4-Copy-12" stroke="#7813FE" transform="translate(135.288437, 82.074514) rotate(-45.000000) translate(-135.288437, -82.074514) "/>
  <path d="M151.21148,144.345794 C189.754615,144.345794 221,113.152176 221,74.6728972 C221,36.1936186 189.754615,5 151.21148,5 C112.668345,5 81.4229607,36.1936186 81.4229607,74.6728972 C81.4229607,112.911685 112.279006,143.955597 150.489672,144.342145 C150.729986,144.344576 150.970591,144.345794 151.21148,144.345794 Z" id="Oval" stroke="#000000"/>
  <path d="M140.577039,74.6728972 C140.577039,36.1936186 109.331655,5 70.7885196,5 C32.2453845,5 1,36.1936186 1,74.6728972 C1,113.074467 32.1193128,144.219775 70.5550973,144.345413 C109.331655,144.345794 140.577039,113.152176 140.577039,74.6728972 Z" id="Oval-Copy" stroke="#000000"/>
  <path d="M181.120846,144.345794 C181.120846,105.866516 149.875461,74.6728972 111.332326,74.6728972 C72.7891912,74.6728972 41.5438066,105.866516 41.5438066,144.345794 C41.5438066,182.735517 72.6439207,213.873453 111.063332,214.018185 C149.875461,214.018692 181.120846,182.825073 181.120846,144.345794 Z" id="Oval-Copy-2" stroke="#000000"/>
  <path d="M152.547346,206.612038 C166.282635,218.42369 180.9635,222.072777 200.953082,210.350786" id="Path-5" stroke="#000000"/>
  <path d="M89.2838175,175.878089 C108.282672,168.644561 122.79215,171.549477 132.812252,184.592838 C136.895798,189.908469 140.878173,194.816636 144.871452,199.132173" id="Path-5-Copy" stroke="#000000"/>
  <path d="M155.870608,203.294281 C168.774041,213.802971 181.153722,217.662547 200.212192,205.759356" id="Path-5" stroke="#000000"/>
  <path d="M90.7182775,170.608378 C109.87709,163.669668 125.016169,167.225235 136.135515,181.275081 C140.3255,186.569336 144.201435,191.498879 148.194714,195.814416" id="Path-5-Copy" stroke="#000000"/>
</svg>