<?xml version="1.0" encoding="UTF-8"?>
<svg width="817px" height="439px" viewBox="0 0 817 439" stroke="#000000" fill="none" fill-rule="evenodd"
     stroke-linecap="round" stroke-linejoin="round" version="1.1" xmlns="http://www.w3.org/2000/svg"
     xmlns:xlink="http://www.w3.org/1999/xlink">


    <path d="M559.432517,135.751248 C559.427915,135.630914 559.425593,135.509996 559.425593,135.388535 C559.425593,130.237535 563.601304,126.061824 568.752305,126.061824 L583.784198,126.061824 C588.935198,126.061824 593.110909,130.237535 593.110909,135.388535 C593.110909,140.539536 588.935198,144.715247 583.784198,144.715247 L583.514929,144.715247 C583.529716,144.933457 583.53723,145.153663 583.53723,145.375624 C583.53723,150.69102 579.22825,155 573.912854,155 L557.624376,155 C552.30898,155 548,150.69102 548,145.375624 C548,140.060228 552.30898,135.751248 557.624376,135.751248 L559.432517,135.751248 Z"
          id="Combined-Shape" stroke="#000000"
          transform="translate(570.500000, 140.500000) scale(-1, 1) translate(-570.500000, -140.500000) "></path>
    <path d="M552,135 L552,143 C552,147.418278 548.418278,151 544,151 L543.744954,151 C539.467534,151 536,147.532466 536,143.255046"
          id="Rectangle-4-Copy-31" stroke="#000000"
          transform="translate(544.000000, 143.000000) rotate(90.000000) translate(-544.000000, -143.000000) "></path>
    <path d="M477,403 L815,403" id="Path-3-Copy-9" stroke="#000000"></path>
    <path d="M529,396 L571,396" id="Path-3-Copy-10" stroke="#000000"></path>
    <path d="M593,396 L786,396" id="Path-3-Copy-13" stroke="#000000"></path>
    <path id="Path-3-Copy-45" stroke="#000000"
          d="M438 311 472.169784 314.553928 486 343.486888 486 390"></path>
    <path id="Path-3-Copy-73" stroke="#000000"
          d="M14 155 380.846814 155 423.610437 171.416283 426 341"></path>
    <path d="M50,148 L183,148" id="Path-3-Copy-74" stroke="#000000"></path>
    <path d="M231,148 L278,148" id="Path-3-Copy-75" stroke="#000000"></path>
    <path d="M320,148 L338,148" id="Path-3-Copy-76" stroke="#000000"></path>
    <path d="M580,361 L583,396" id="Combined-Shape" stroke="#000000"></path>
    <path d="M571,363 L568,390" id="Combined-Shape-Copy" stroke="#000000"></path>
    <path id="Oval-Copy-8" stroke="#000000" d="M578 359 599 368 593.842958 350"></path>
    <path id="Oval-Copy-9" stroke="#000000" d="M589.420301 348.404943 602 352 588 329"></path>
    <path id="Oval-Copy-21" stroke="#000000"
          d="M574.740162 323.8081 591 330 573.636455 306 568 314.216506"></path>
    <path id="Oval-Copy-23" stroke="#000000"
          d="M566.484863 336.068313 557 342 566.484863 312 570 317.972713"></path>
    <path id="Oval-Copy-24" stroke="#000000" d="M574 350 551 360 561.02153 340"></path>
    <path id="Oval-Copy-25" stroke="#000000" d="M565 369.283596 550 376 558.089788 357"></path>
    <path d="M456,225.585093 C465.032643,223.275789 472.612347,223.747424 478.739114,227 C480.721687,219.274428 486.475315,214.941095 496,214"
          id="Path-3-Copy-7" stroke="#000000"></path>
    <path d="M488,240.020449 C494.32285,238.4217 499.628643,238.748217 503.91738,241 C505.305181,235.651527 509.332721,232.651527 516,232"
          id="Path-3-Copy-12" stroke="#000000"></path>
    <path d="M509,387 C516.731986,387 523,384.537566 523,381.5 C523,378.462434 516.731986,376 509,376 C501.268014,376 495,378.462434 495,381.5 C495,382.947133 496.42264,384.263728 498.748458,385.245713"
          id="Oval-Copy-3" stroke="#000000"
          transform="translate(509.000000, 381.500000) scale(-1, -1) rotate(20.000000) translate(-509.000000, -381.500000) "></path>
    <path d="M522,389.95017 C522,390.223987 522,389.369326 522,387.386187 C522,384.411478 515.731986,382 508,382 C500.268014,382 494,384.411478 494,387.386187 C494,388.330978 494,389.185639 494,389.95017"
          id="Oval-Copy-13" stroke="#000000"
          transform="translate(508.000000, 386.000000) scale(-1, -1) rotate(20.000000) translate(-508.000000, -386.000000) "></path>
    <path d="M311.904908,141 C311.904908,134.073429 306.250424,128.458333 299.275264,128.458333 C292.300104,128.458333 286.64562,134.073429 286.64562,141 L221.693166,141 C221.693166,134.073429 216.038682,128.458333 209.063522,128.458333 C202.088363,128.458333 196.433879,134.073429 196.433879,141 L184,141 C182.895431,141 182,140.104569 182,139 L182,123.88602 C182,122.396338 183.093116,121.132305 184.567216,120.917402 L206.579346,117.708333 L206.657876,117.708333 L217.511761,101.540917 C218.997566,99.3277338 221.488122,98 224.153792,98 L274.327105,98 C276.439149,98 278.465502,98.8351968 279.964153,100.323409 L297.471029,117.708333 L298.146587,117.708333 L326.072207,122.668963 C327.30904,122.888671 328.370816,123.676646 328.939406,124.796794 L335.689479,138.094743 C336.189439,139.079686 335.796282,140.283438 334.811339,140.783398 C334.530821,140.92579 334.220669,141 333.906081,141 L311.904908,141 Z"
          id="Combined-Shape" stroke="#000000"></path>
    <path d="M254,136 L254,102" id="Path-3" stroke="#000000"></path>
    <path d="M276,121 L280,109" id="Path-3-Copy-7" stroke="#000000"></path>
    <path d="M299,151 C303.970563,151 308,146.970563 308,142 C308,137.029437 303.970563,133 299,133 C294.029437,133 290,137.029437 290,142 C290,144.368035 290.914554,146.522465 292.409723,148.129348"
          id="Oval-Copy-3" stroke="#000000"></path>
    <path d="M209,151 C213.970563,151 218,146.970563 218,142 C218,137.029437 213.970563,133 209,133 C204.029437,133 200,137.029437 200,142 C200,144.368035 200.914554,146.522465 202.409723,148.129348"
          id="Oval-Copy-4" stroke="#000000"
          transform="translate(209.000000, 142.000000) scale(-1, 1) translate(-209.000000, -142.000000) "></path>
    <path id="Path-3-Copy-30" stroke="#000000"
          transform="translate(350.500000, 128.500000) rotate(-3.000000) translate(-350.500000, -128.500000) "
          d="M354 144 347.664793 143.663464 348.327945 130.837441 347 118.505112 347.971597 113"></path>
    <path id="Path-3-Copy-54" stroke="#000000"
          transform="translate(351.500000, 147.000000) rotate(-3.000000) translate(-351.500000, -147.000000) "
          d="M348.053593 144 352.239489 144.455145 352.910767 146.811485 355 149.897187 351.438407 150 348 148.188171z"></path>
    <path id="Path-3-Copy-51" stroke="#000000"
          transform="translate(364.000000, 86.500000) rotate(-3.000000) translate(-364.000000, -86.500000) "
          d="M361.292409 94 370 86.7144698 365.014219 79 363.088878 80.2460184 364 86.0318707 358 88.8269568"></path>
    <path id="Path-3-Copy-60" stroke="#000000"
          transform="translate(356.500000, 84.000000) rotate(-3.000000) translate(-356.500000, -84.000000) "
          d="M354 87.9862527 356.282712 89 357.234584 88.4537768 357.99324 86.110357 359 86.110357 358.462429 79"></path>
    <path id="Path-3-Copy-53" stroke="#000000"
          transform="translate(353.500000, 79.500000) rotate(-3.000000) translate(-353.500000, -79.500000) "
          d="M354.416537 80.028399 357.143833 79.782693 357.353414 78.1611151 359 77.8891986 357.521839 75 350.11671 75.3718328 348 79.3095821 348.588894 83.5472131 349.656998 84"></path>
    <path id="Path-3-Copy-62" stroke="#000000"
          transform="translate(362.000000, 77.500000) rotate(-3.000000) translate(-362.000000, -77.500000) "
          d="M364 79 362.25782 76.1740032 360 76 361.578094 79"></path>
    <path d="M376,72 L368,74" id="Path-3-Copy-16" stroke="#000000"
          transform="translate(372.000000, 73.000000) rotate(-3.000000) translate(-372.000000, -73.000000) "></path>
    <path d="M397,76 L371,77" id="Path-3-Copy-24" stroke="#000000"
          transform="translate(384.000000, 76.500000) rotate(-3.000000) translate(-384.000000, -76.500000) "></path>
    <path d="M395,87 L377,83" id="Path-3-Copy-25" stroke="#000000"
          transform="translate(386.000000, 85.000000) rotate(-3.000000) translate(-386.000000, -85.000000) "></path>
    <path id="Path-3-Copy-63" stroke="#000000"
          transform="translate(352.000000, 117.500000) rotate(-3.000000) translate(-352.000000, -117.500000) "
          d="M353.191783 115.144112 354 120 351.097041 119.161331 350 115"></path>
    <path id="Path-3-Copy-49" stroke="#000000"
          transform="translate(357.500000, 129.500000) rotate(-3.000000) translate(-357.500000, -129.500000) "
          d="M356.458499 123.860847 356.844222 130.407156 354 144 358.601464 143.296682 361 128.94186 360.204691 115"></path>
    <path id="Path-3-Copy-55" stroke="#000000"
          transform="translate(357.000000, 146.000000) rotate(-3.000000) translate(-357.000000, -146.000000) "
          d="M354 146.956662 360 148 357.440408 145.582383 357.103256 144"></path>
    <path d="M352.831407,113.455807 L359.221843,113.421048 L360,98.4860946 L359.293039,92.9730616 M352.265728,98.7715148 L351.169672,104.832483 L353.041013,115 L348.656177,114.082255 L346.287726,105.655593 L346.506636,95.6467867 M350.989157,86 L350.861898,88.44245 L348.036852,90.4436559 L346.529399,95.027641 L345,111.447523 L347.757626,112.59881"
          id="Path-3-Copy-50" stroke="#000000"
          transform="translate(352.500000, 100.500000) rotate(-3.000000) translate(-352.500000, -100.500000) "></path>

</svg>