<?xml version="1.0" encoding="UTF-8"?>
<svg width="1395px" height="521px" viewBox="0 0 1395 521" version="1.1" stroke="#000000" fill="none" fill-rule="evenodd"
     stroke-linecap="round" stroke-linejoin="round" xmlns="http://www.w3.org/2000/svg"
     xmlns:xlink="http://www.w3.org/1999/xlink">


    <path d="M727.021156,186 L779,186 C779.552285,186 780,186.447715 780,187 L780,253 C780,253.552285 779.552285,254 779,254 L755.854956,254 L755.854956,254 C755.854956,246.264735 749.584284,239.994064 741.849019,239.994064 L733.535115,239.994064 C725.76201,239.994064 719.42528,246.227936 719.298083,254 L713,254 C712.447715,254 712,253.552285 712,253 L712,218.452035 L726.106793,186.595104 C726.267003,186.233308 726.625474,186 727.021156,186 Z"
          id="Rectangle-4-Copy-22"
          transform="translate(746.000000, 220.000000) scale(-1, 1) rotate(-20.000000) translate(-746.000000, -220.000000) "></path>
    <path d="M767,224 L763,212" id="Path-3-Copy-13"
          transform="translate(765.000000, 218.000000) scale(-1, 1) rotate(-20.000000) translate(-765.000000, -218.000000) "></path>
    <path id="Path-3-Copy-84"
          transform="translate(766.500000, 260.500000) scale(-1, 1) rotate(-20.000000) translate(-766.500000, -260.500000) "
          d="M762.441695 253 760 253 760 267.976851 773 268 773 263.889088"></path>
    <path d="M747,213 L752,186" id="Path-3-Copy-81"
          transform="translate(749.500000, 199.500000) scale(-1, 1) rotate(-20.000000) translate(-749.500000, -199.500000) "></path>
    <path d="M601,145.5 L633,145.5" id="Path-3-Copy-85"
          transform="translate(617.000000, 145.500000) scale(-1, 1) rotate(-20.000000) translate(-617.000000, -145.500000) "></path>
    <path d="M613,170.5 L687,170.5" id="Path-3-Copy-86"
          transform="translate(650.000000, 170.500000) scale(-1, 1) rotate(-20.000000) translate(-650.000000, -170.500000) "></path>
    <path d="M742.5,240 L742.5,218" id="Path-3-Copy-83"
          transform="translate(742.500000, 229.000000) scale(-1, 1) rotate(-20.000000) translate(-742.500000, -229.000000) "></path>
    <path d="M780,218.5 L713,218.5" id="Path-3-Copy-82"
          transform="translate(746.500000, 218.500000) scale(-1, 1) rotate(-20.000000) translate(-746.500000, -218.500000) "></path>
    <path d="M741.5,272 C748.955844,272 755,265.955844 755,258.5 C755,251.044156 748.955844,245 741.5,245 C734.044156,245 728,251.044156 728,258.5 C728,262.052053 729.371832,265.283697 731.614584,267.694022"
          id="Oval-Copy-10"
          transform="translate(741.500000, 258.500000) scale(-1, 1) rotate(-170.000000) translate(-741.500000, -258.500000) "></path>
    <path d="M609.5,224 C616.955844,224 623,217.955844 623,210.5 C623,203.044156 616.955844,197 609.5,197 C602.044156,197 596,203.044156 596,210.5 C596,214.052053 597.371832,217.283697 599.614584,219.694022"
          id="Oval-Copy-27"
          transform="translate(609.500000, 210.500000) scale(-1, 1) rotate(-240.000000) translate(-609.500000, -210.500000) "></path>
    <path d="M642.5,236 C649.955844,236 656,229.955844 656,222.5 C656,215.044156 649.955844,209 642.5,209 C635.044156,209 629,215.044156 629,222.5 C629,226.052053 630.371832,229.283697 632.614584,231.694022"
          id="Oval-Copy-28"
          transform="translate(642.500000, 222.500000) scale(-1, 1) rotate(-10.000000) translate(-642.500000, -222.500000) "></path>
    <path d="M591,194.967104 L591,144 C591,143.447715 591.447715,143 592,143 L714,143 C714.552285,143 715,143.447715 715,144 L715,218 C715,218.552285 714.552285,219 714,219 L704.625039,219 L704.625039,219 C704.625039,209.918531 697.263054,202.556546 688.181585,202.556546 L646.411884,202.556546 C637.330415,202.556546 629.96843,209.918531 629.96843,219 L592,219 C591.447715,219 591,218.552285 591,218 L591,201.586376"
          id="Rectangle-4-Copy-23"
          transform="translate(653.000000, 181.000000) scale(-1, 1) rotate(-20.000000) translate(-653.000000, -181.000000) "></path>
    <circle id="Oval-Copy-3"
            transform="translate(703.000000, 174.000000) rotate(20.000000) translate(-703.000000, -174.000000) "
            cx="703" cy="174" r="6"></circle>
    <path d="M704.42459,174 L704.894158,174.480832 C706.313795,175.934522 706.400432,178.227598 705.094533,179.784266 L704.879539,180.040545 C703.675002,181.476385 703.681427,183.571574 704.894747,185"
          id="Path-9"
          transform="translate(705.000000, 179.500000) rotate(130.000000) translate(-705.000000, -179.500000) "></path>
    <path d="M569,118 L603,118" id="Path-3-Copy-88"
          transform="translate(586.000000, 118.000000) rotate(20.000000) translate(-586.000000, -118.000000) "></path>
    <path d="M558,117 L592,117" id="Path-3-Copy-89"
          transform="translate(575.000000, 117.000000) rotate(20.000000) translate(-575.000000, -117.000000) "></path>
    <path d="M779,185 L779,175" id="Path-3-Copy-90"
          transform="translate(779.000000, 180.000000) rotate(20.000000) translate(-779.000000, -180.000000) "></path>
    <path d="M786,189 L791,177" id="Path-3-Copy-91"
          transform="translate(788.500000, 183.000000) rotate(20.000000) translate(-788.500000, -183.000000) "></path>
    <path d="M789,198 L798,194" id="Path-3-Copy-92"
          transform="translate(793.500000, 196.000000) rotate(20.000000) translate(-793.500000, -196.000000) "></path>
    <path d="M767,283 L771,291" id="Path-3-Copy-93"
          transform="translate(769.000000, 287.000000) rotate(20.000000) translate(-769.000000, -287.000000) "></path>
    <path d="M776,282 L781,284" id="Path-3-Copy-94"
          transform="translate(778.500000, 283.000000) rotate(20.000000) translate(-778.500000, -283.000000) "></path>
    <path d="M495,198 L587,198" id="Path-3-Copy-87"
          transform="translate(541.000000, 198.000000) rotate(20.000000) translate(-541.000000, -198.000000) "></path>
    <path d="M520,209.5 L594,209.5" id="Path-3-Copy-86"
          transform="translate(557.000000, 209.500000) rotate(20.000000) translate(-557.000000, -209.500000) "></path>
    <path d="M991,127.585093 C1000.03264,125.275789 1007.61235,125.747424 1013.73911,129 C1015.72169,121.274428 1021.47532,116.941095 1031,116"
          id="Path-3-Copy-7"
          transform="translate(1011.000000, 122.500000) scale(-1, 1) translate(-1011.000000, -122.500000) "></path>
    <path d="M971,142.020449 C977.32285,140.4217 982.628643,140.748217 986.91738,143 C988.305181,137.651527 992.332721,134.651527 999,134"
          id="Path-3-Copy-12"
          transform="translate(985.000000, 138.500000) scale(-1, 1) translate(-985.000000, -138.500000) "></path>
    <path id="Path-3-Copy-73"
          d="M11 236 567.361757 236 573.27036 243.426651 571.463208 250.550803 579.936062 258.694484 576.735578 263.951126 576.735578 271.755894 583 280.005572 573.27036 282"></path>
    <path d="M71,231 L318,231" id="Path-3-Copy-77"></path>
    <path d="M333,231 L559,231" id="Path-3-Copy-78"></path>
    <path d="M44,282 L568,282" id="Path-3-Copy-75"></path>
    <path id="Path-3-Copy-74" d="M535 298 535 450 500 450 500 309.419941"></path>
    <path d="M526,450 L526,356" id="Path-3-Copy-85"></path>
    <path id="Path-3-Copy-76" d="M544 471.700052 544 455 491 455 491 483"></path>
    <path id="Path-3-Copy-74" d="M180 298 180 450 145 450 145 309.419941"></path>
    <path d="M172,450 L172,356" id="Path-3-Copy-85"></path>
    <path id="Path-3-Copy-76"
          transform="translate(162.500000, 469.000000) scale(-1, 1) translate(-162.500000, -469.000000) "
          d="M189 471.700052 189 455 136 455 136 483"></path>
    <path id="Path-3-Copy-74" d="M351 298 351 450 316 450 316 309.419941"></path>
    <path d="M327,392 L327,298" id="Path-3-Copy-85"></path>
    <path id="Path-3-Copy-76" d="M360 477.18534 360 455 307 455 307 483"></path>
    <path id="Path-3-Copy-73"
          transform="translate(1099.000000, 259.000000) scale(-1, 1) translate(-1099.000000, -259.000000) "
          d="M859 236 1339 236 1332.73194 243.426651 1335.93428 250.571265 1326.24066 259 1326.24066 266.950869 1329.26471 272.397424 1326.24066 278.28775 1329.26471 282"></path>
    <path d="M1047,231 L1294,231" id="Path-3-Copy-77"
          transform="translate(1170.500000, 231.000000) scale(-1, 1) translate(-1170.500000, -231.000000) "></path>
    <path d="M902,231 L1033,231" id="Path-3-Copy-78"
          transform="translate(967.500000, 231.000000) scale(-1, 1) translate(-967.500000, -231.000000) "></path>
    <path d="M874,282 L1370,282" id="Path-3-Copy-75"
          transform="translate(1122.000000, 282.000000) scale(-1, 1) translate(-1122.000000, -282.000000) "></path>
    <path id="Path-3-Copy-74"
          transform="translate(924.500000, 374.000000) scale(-1, 1) translate(-924.500000, -374.000000) "
          d="M942 298 942 450 907 450 907 309.419941"></path>
    <path d="M916,450 L916,356" id="Path-3-Copy-85"
          transform="translate(916.000000, 403.000000) scale(-1, 1) translate(-916.000000, -403.000000) "></path>
    <path id="Path-3-Copy-76"
          transform="translate(924.500000, 469.000000) scale(-1, 1) translate(-924.500000, -469.000000) "
          d="M951 471.700052 951 455 898 455 898 483"></path>
    <path id="Path-3-Copy-74"
          transform="translate(1279.500000, 374.000000) scale(-1, 1) translate(-1279.500000, -374.000000) "
          d="M1297 298 1297 450 1262 450 1262 309.419941"></path>
    <path d="M1270,450 L1270,356" id="Path-3-Copy-85"
          transform="translate(1270.000000, 403.000000) scale(-1, 1) translate(-1270.000000, -403.000000) "></path>
    <path id="Path-3-Copy-76" d="M1306 471.700052 1306 455 1253 455 1253 483"></path>
    <path id="Path-3-Copy-74"
          transform="translate(1108.500000, 374.000000) scale(-1, 1) translate(-1108.500000, -374.000000) "
          d="M1126 298 1126 450 1091 450 1091 309.419941"></path>
    <path d="M1116,392 L1116,298" id="Path-3-Copy-85"
          transform="translate(1116.000000, 345.000000) scale(-1, 1) translate(-1116.000000, -345.000000) "></path>
    <path id="Path-3-Copy-76"
          transform="translate(1108.500000, 469.000000) scale(-1, 1) translate(-1108.500000, -469.000000) "
          d="M1135 477.18534 1135 455 1082 455 1082 483"></path>
    <path d="M1157.20372,62.7599979 C1157.19858,62.6272244 1157.19598,62.4937969 1157.19598,62.359763 C1157.19598,56.7508957 1161.74287,52.2040104 1167.35174,52.2040104 L1184.21023,52.2040104 C1189.8191,52.2040104 1194.36599,56.7508957 1194.36599,62.359763 C1194.36599,67.9686302 1189.8191,72.5155155 1184.21023,72.5155155 L1183.66142,72.5155155 C1183.68439,72.8006453 1183.6961,73.0889549 1183.6961,73.3799989 C1183.6961,79.2452636 1178.94136,84 1173.07609,84 L1155.62,84 C1149.75474,84 1145,79.2452636 1145,73.3799989 C1145,67.5147343 1149.75474,62.7599979 1155.62,62.7599979 L1157.20372,62.7599979 Z"
          id="Combined-Shape"
          transform="translate(1169.500000, 68.000000) scale(-1, 1) translate(-1169.500000, -68.000000) "></path>
    <path d="M1150,62 L1150,71 C1150,75.9705627 1145.97056,80 1141,80 L1140.71307,80 C1135.90098,80 1132,76.0990243 1132,71.2869269"
          id="Rectangle-4-Copy-31"
          transform="translate(1141.000000, 71.000000) rotate(90.000000) translate(-1141.000000, -71.000000) "></path>

</svg>