<?xml version="1.0" encoding="UTF-8"?>
<svg width="1440px" height="521px" viewBox="0 0 1440 521" stroke="#000000" fill="none" fill-rule="evenodd"
     stroke-linecap="round" stroke-linejoin="round" version="1.1" xmlns="http://www.w3.org/2000/svg"
     xmlns:xlink="http://www.w3.org/1999/xlink">


    <path d="M1032,192.476254 C1041.71009,189.989311 1049.85827,190.497226 1056.44455,194 C1058.57581,185.680154 1064.76096,181.013487 1075,180"
          id="Path-3-Copy-7"
          transform="translate(1053.500000, 187.000000) scale(-1, 1) translate(-1053.500000, -187.000000) "></path>
    <path d="M1090.55523,100.432498 C1090.54986,100.291413 1090.54715,100.149647 1090.54715,100.007248 C1090.54715,93.9405142 1095.46521,89.0224546 1101.53195,89.0224546 L1119.05549,89.0224546 C1125.12222,89.0224546 1130.04028,93.9405142 1130.04028,100.007248 C1130.04028,106.073982 1125.12222,110.992042 1119.05549,110.992042 L1118.83209,110.992042 C1118.84726,111.231492 1118.85496,111.472972 1118.85496,111.716249 C1118.85496,117.948093 1113.80305,123 1107.57121,123 L1088.28375,123 C1082.05191,123 1077,117.948093 1077,111.716249 C1077,105.484405 1082.05191,100.432498 1088.28375,100.432498 L1090.55523,100.432498 Z"
          id="Combined-Shape"
          transform="translate(1103.500000, 106.000000) scale(-1, 1) translate(-1103.500000, -106.000000) "></path>
    <path d="M1082,100 L1082,109.5 C1082,114.746705 1077.74671,119 1072.5,119 L1072.19713,119 C1067.1177,119 1063,114.882303 1063,109.802867"
          id="Rectangle-4-Copy-31"
          transform="translate(1072.500000, 109.500000) rotate(90.000000) translate(-1072.500000, -109.500000) "></path>
    <path d="M733,493 L1432,493" id="Path-3-Copy-9"></path>
    <path d="M785,483 L1196,483" id="Path-3-Copy-10"></path>
    <path id="Path-3-Copy-45" d="M634 321 678.169784 324.553928 702 373.486888 702 440"></path>
    <path id="Path-3-Copy-73" d="M21 155 576.868591 155 619.611589 171.372459 622 443"></path>
    <path d="M52,147 L378,147" id="Path-3-Copy-74"></path>
    <path d="M429,147 L476,147" id="Path-3-Copy-75"></path>
    <path d="M519,147 L537,147" id="Path-3-Copy-76"></path>
    <path d="M697,451.43452 C697.916112,451.557618 703.305199,451.079445 713.167262,450 L722,500"
          id="Path-3-Copy-70"></path>
    <path d="M1216,483 L1387,483" id="Path-3-Copy-11"></path>
    <path d="M1204,444 L1208,486" id="Combined-Shape"></path>
    <path d="M1192,446 L1189,478" id="Combined-Shape-Copy"></path>
    <path id="Oval-Copy-8" d="M1201 442 1226 453 1219.86066 431"></path>
    <path id="Oval-Copy-9" d="M1214.72465 428.623409 1230 433 1213 405"></path>
    <path id="Oval-Copy-21" d="M1198.20541 399.518121 1218 407 1196.86177 378 1190 387.928278"></path>
    <path id="Oval-Copy-23" d="M1187.67368 413.881976 1176 421 1187.67368 385 1192 392.167255"></path>
    <path id="Oval-Copy-24" d="M1196 431 1169 443 1180.7644 419"></path>
    <path id="Oval-Copy-25" d="M1186 453.869616 1168 462 1177.70775 439"></path>
    <path d="M671,246.367415 C681.613355,243.702833 690.519508,244.247028 697.718459,248 C700.047982,239.085879 706.808496,234.085879 718,233"
          id="Path-3-Copy-7"></path>
    <path d="M708,263.802771 C715.45193,261.848744 721.705187,262.24782 726.759769,265 C728.395391,258.462978 733.142135,254.796311 741,254"
          id="Path-3-Copy-12"></path>
    <path d="M749.5,475 C759.717268,475 768,471.865993 768,468 C768,464.134007 759.717268,461 749.5,461 C739.282732,461 731,464.134007 731,468 C731,469.841805 732.879917,471.517472 735.953319,472.767271"
          id="Oval-Copy-3"
          transform="translate(749.500000, 468.000000) scale(-1, -1) rotate(20.000000) translate(-749.500000, -468.000000) "></path>
    <path d="M766,479.931484 C766,480.307983 766,479.132824 766,476.406007 C766,472.315782 757.717268,469 747.5,469 C737.282732,469 729,472.315782 729,476.406007 C729,477.705095 729,478.880254 729,479.931484"
          id="Oval-Copy-13"
          transform="translate(747.500000, 474.500000) scale(-1, -1) rotate(20.000000) translate(-747.500000, -474.500000) "></path>
    <path d="M512.340291,138 C512.340291,130.59018 506.318633,124.583333 498.890541,124.583333 C491.462449,124.583333 485.44079,130.59018 485.44079,138 L416.270645,138 C416.270645,130.59018 410.248986,124.583333 402.820894,124.583333 C395.392802,124.583333 389.371143,130.59018 389.371143,138 L376,138 C374.895431,138 374,137.104569 374,136 L374,119.509323 C374,118.020377 375.092062,116.756736 376.565293,116.540985 L400.175407,113.083333 L400.259037,113.083333 L411.97352,95.5548314 C413.457986,93.3336106 415.953269,92 418.624872,92 L472.525887,92 C474.644205,92 476.67605,92.8401524 478.17577,94.3361841 L496.969148,113.083333 L497.688573,113.083333 L527.552799,118.412405 C528.790905,118.633336 529.853012,119.423704 530.420219,120.546199 L537.773383,135.097999 C538.271545,136.083853 537.876192,137.286885 536.890338,137.785047 C536.610661,137.92637 536.301691,138 535.988336,138 L512.340291,138 Z"
          id="Combined-Shape"></path>
    <path d="M451,132 L451,96" id="Path-3"></path>
    <path d="M474,117 L478,104" id="Path-3-Copy-7"></path>
    <path d="M498.5,148 C503.746705,148 508,143.746705 508,138.5 C508,133.253295 503.746705,129 498.5,129 C493.253295,129 489,133.253295 489,138.5 C489,140.999593 489.965363,143.273713 491.543596,144.969867"
          id="Oval-Copy-3"></path>
    <path d="M402.5,148 C407.746705,148 412,143.746705 412,138.5 C412,133.253295 407.746705,129 402.5,129 C397.253295,129 393,133.253295 393,138.5 C393,140.999593 393.965363,143.273713 395.543596,144.969867"
          id="Oval-Copy-4"
          transform="translate(402.500000, 138.500000) scale(-1, 1) translate(-402.500000, -138.500000) "></path>
    <path id="Path-3-Copy-30"
          transform="translate(547.000000, 128.500000) rotate(-3.000000) translate(-547.000000, -128.500000) "
          d="M551 146 543.759764 145.62004 544.517651 131.139046 543 117.215449 544.110396 111"></path>
    <path id="Path-3-Copy-54"
          transform="translate(549.011070, 148.711235) rotate(-3.000000) translate(-549.011070, -148.711235) "
          d="M545.251795 145.42276 549.787023 146.040815 550.623376 148.508805 553.01107 151.887146 548.940678 151.99971 545.01107 150.016052z"></path>
    <path id="Path-3-Copy-51"
          transform="translate(563.000000, 80.500000) rotate(-3.000000) translate(-563.000000, -80.500000) "
          d="M559.841144 89 570 80.7430657 564.183255 72 561.937025 73.4121542 563 79.9694535 556 83.1372177"></path>
    <path id="Path-3-Copy-60"
          transform="translate(554.000000, 77.500000) rotate(-3.000000) translate(-554.000000, -77.500000) "
          d="M551 81.8848779 553.739254 83 554.881501 82.3991545 555.791888 79.8213927 557 79.8213927 556.354914 72"></path>
    <path id="Path-3-Copy-53"
          transform="translate(551.000000, 73.000000) rotate(-3.000000) translate(-551.000000, -73.000000) "
          d="M551.999858 73.58711 554.975091 73.3141034 555.203724 71.5123501 557 71.2102206 555.387461 68 547.309138 68.4131476 545 72.7884246 545.64243 77.4969034 546.807634 78"></path>
    <path id="Path-3-Copy-62"
          transform="translate(560.500000, 70.500000) rotate(-3.000000) translate(-560.500000, -70.500000) "
          d="M563 72 560.822275 69.1740032 558 69 559.972618 72"></path>
    <path d="M576,64 L567,66" id="Path-3-Copy-16"
          transform="translate(571.500000, 65.000000) rotate(-3.000000) translate(-571.500000, -65.000000) "></path>
    <path d="M600,69 L571,70" id="Path-3-Copy-24"
          transform="translate(585.500000, 69.500000) rotate(-3.000000) translate(-585.500000, -69.500000) "></path>
    <path d="M597,82 L577,77" id="Path-3-Copy-25"
          transform="translate(587.000000, 79.500000) rotate(-3.000000) translate(-587.000000, -79.500000) "></path>
    <path id="Path-3-Copy-63"
          transform="translate(549.199916, 116.041319) rotate(-3.000000) translate(-549.199916, -116.041319) "
          d="M550.193302 113.186796 551.424249 119.067561 548.081538 117.973575 546.975583 113.015077"></path>
    <path id="Path-3-Copy-49"
          transform="translate(554.266868, 130.486014) rotate(-3.000000) translate(-554.266868, -130.486014) "
          d="M553.913747 122.315851 553.912823 128.996024 550.999634 145.986014 555.85312 145.184016 557.534102 127.73479 556.999634 114.986014"></path>
    <path id="Path-3-Copy-55"
          transform="translate(555.374772, 147.853331) rotate(-3.000000) translate(-555.374772, -147.853331) "
          d="M551.731223 149.172142 559.01832 150.007038 556.032129 146.985016 555.469494 145.699624"></path>
    <path d="M549.875594,111.242814 L557.118089,111.203262 L558,94.2083146 L557.198778,87.9348632 M549.234492,94.5331031 L547.992294,101.430067 L550.113148,113 L545.143668,111.95567 L542.459423,102.366709 L542.70752,90.977378 M547.787712,80 L547.643485,82.7793397 L544.441765,85.056574 L542.733319,90.2728329 L541,108.957526 L544.125309,110.267611"
          id="Path-3-Copy-50"
          transform="translate(549.500000, 96.500000) rotate(-3.000000) translate(-549.500000, -96.500000) "></path>

</svg>