<?xml version="1.0" encoding="UTF-8"?>
<svg width="780px" height="390px" viewBox="0 0 780 390" version="1.1" fill="none" fill-rule="evenodd"
     stroke-linecap="round" stroke-linejoin="round" stroke="#000000" xmlns="http://www.w3.org/2000/svg"
     xmlns:xlink="http://www.w3.org/1999/xlink">

    <path d="M367.945588,154.382056 L403.114286,154.382056 C403.66657,154.382056 404.114286,154.829771 404.114286,155.382056 L404.114286,200.097812 C404.114286,200.650097 403.66657,201.097812 403.114286,201.097812 L387.537394,201.097812 L387.537394,201.097812 C387.537394,195.783713 383.229465,191.475784 377.915366,191.475784 L372.219791,191.475784 C366.879713,191.475784 362.526431,195.758448 362.439104,201.097812 L358.428571,201.097812 C357.876287,201.097812 357.428571,200.650097 357.428571,200.097812 L357.428571,176.676487 L367.031128,154.977378 C367.191287,154.615464 367.54982,154.382056 367.945588,154.382056 Z"
          id="Rectangle-4-Copy-22"
          transform="translate(380.771429, 177.739934) scale(-1, 1) rotate(-20.000000) translate(-380.771429, -177.739934) "></path>
    <path d="M396.514286,181.542379 L393.257143,172.851076" id="Path-3-Copy-13"
          transform="translate(394.885714, 177.196727) scale(-1, 1) rotate(-20.000000) translate(-394.885714, -177.196727) "></path>
    <path id="Path-3-Copy-84"
          transform="translate(395.428571, 204.900257) scale(-1, 1) rotate(-20.000000) translate(-395.428571, -204.900257) "
          d="M392.717089 200.011399 391.085714 200.011399 391.085714 209.774026 399.771429 209.789116 399.771429 207.109427"></path>
    <path d="M382.4,172.851076 L385.657143,154.382056" id="Path-3-Copy-81"
          transform="translate(384.028571, 163.616566) scale(-1, 1) rotate(-20.000000) translate(-384.028571, -163.616566) "></path>
    <path d="M282.514286,127.221732 L304.228571,127.221732" id="Path-3-Copy-85"
          transform="translate(293.371429, 127.221732) scale(-1, 1) rotate(-20.000000) translate(-293.371429, -127.221732) "></path>
    <path d="M290.114286,144.604339 L340.057143,144.604339" id="Path-3-Copy-86"
          transform="translate(315.085714, 144.604339) scale(-1, 1) rotate(-20.000000) translate(-315.085714, -144.604339) "></path>
    <path d="M378.057143,191.320096 L378.057143,176.110314" id="Path-3-Copy-83"
          transform="translate(378.057143, 183.715205) scale(-1, 1) rotate(-20.000000) translate(-378.057143, -183.715205) "></path>
    <path d="M404.114286,176.110314 L358.514286,176.110314" id="Path-3-Copy-82"
          transform="translate(381.314286, 176.110314) scale(-1, 1) rotate(-20.000000) translate(-381.314286, -176.110314) "></path>
    <path d="M377.514286,213.048354 C382.611085,213.048354 386.742857,208.913924 386.742857,203.813844 C386.742857,198.713765 382.611085,194.579334 377.514286,194.579334 C372.417486,194.579334 368.285714,198.713765 368.285714,203.813844 C368.285714,206.243583 369.223495,208.454149 370.756636,210.102903"
          id="Oval-Copy-10"
          transform="translate(377.514286, 203.813844) scale(-1, 1) rotate(-170.000000) translate(-377.514286, -203.813844) "></path>
    <path d="M287.4,180.455966 C292.496799,180.455966 296.628571,176.321535 296.628571,171.221456 C296.628571,166.121377 292.496799,161.986946 287.4,161.986946 C282.303201,161.986946 278.171429,166.121377 278.171429,171.221456 C278.171429,173.651194 279.10921,175.861761 280.642351,177.510515"
          id="Oval-Copy-27"
          transform="translate(287.400000, 171.221456) scale(-1, 1) rotate(-240.000000) translate(-287.400000, -171.221456) "></path>
    <path d="M310.2,188.060857 C315.296799,188.060857 319.428571,183.926426 319.428571,178.826347 C319.428571,173.726268 315.296799,169.591837 310.2,169.591837 C305.103201,169.591837 300.971429,173.726268 300.971429,178.826347 C300.971429,181.256085 301.90921,183.466652 303.442351,185.115405"
          id="Oval-Copy-28"
          transform="translate(310.200000, 178.826347) scale(-1, 1) rotate(-10.000000) translate(-310.200000, -178.826347) "></path>
    <path d="M276,160.706423 L276,126.048906 C276,125.496621 276.447715,125.048906 277,125.048906 L359.685714,125.048906 C360.237999,125.048906 360.685714,125.496621 360.685714,126.048906 L360.685714,176.196727 C360.685714,176.749012 360.237999,177.196727 359.685714,177.196727 L353.600142,177.196727 L353.600142,177.196727 C353.600142,170.965427 348.548675,165.91396 342.317375,165.91396 L313.896229,165.91396 C307.664929,165.91396 302.613462,170.965427 302.613462,177.196727 L277,177.196727 C276.447715,177.196727 276,176.749012 276,176.196727 L276,165.248273"
          id="Rectangle-4-Copy-23"
          transform="translate(318.342857, 151.122817) scale(-1, 1) rotate(-20.000000) translate(-318.342857, -151.122817) "></path>
    <ellipse id="Oval-Copy-3"
             transform="translate(352.000000, 146.777165) rotate(20.000000) translate(-352.000000, -146.777165) "
             cx="352" cy="146.777165" rx="4.34285714" ry="4.34565177"></ellipse>
    <path d="M352.460983,146.777165 L353.059361,147.167336 C354.080988,147.833485 354.369159,149.201698 353.70301,150.223324 C353.564476,150.435784 353.390377,150.62279 353.18835,150.776139 L352.96117,150.948579 C352.015181,151.666633 351.830403,153.015606 352.548457,153.961595 C352.669237,154.120715 352.8116,154.262229 352.97144,154.382056"
          id="Path-9"
          transform="translate(353.085714, 150.579610) rotate(130.000000) translate(-353.085714, -150.579610) "></path>
    <path d="M260.8,108.209505 L284.685714,108.209505" id="Path-3-Copy-88"
          transform="translate(272.742857, 108.209505) rotate(20.000000) translate(-272.742857, -108.209505) "></path>
    <path d="M252.114286,108.209505 L276,108.209505" id="Path-3-Copy-89"
          transform="translate(264.057143, 108.209505) rotate(20.000000) translate(-264.057143, -108.209505) "></path>
    <path d="M403.571429,153.295643 L403.571429,146.777165" id="Path-3-Copy-90"
          transform="translate(403.571429, 150.036404) rotate(20.000000) translate(-403.571429, -150.036404) "></path>
    <path d="M408.457143,156.554881 L411.714286,147.863578" id="Path-3-Copy-91"
          transform="translate(410.085714, 152.209230) rotate(20.000000) translate(-410.085714, -152.209230) "></path>
    <path d="M409.542857,163.073359 L416.057143,159.81412" id="Path-3-Copy-92"
          transform="translate(412.800000, 161.443740) rotate(20.000000) translate(-412.800000, -161.443740) "></path>
    <path d="M394.342857,220.653245 L397.6,226.08531" id="Path-3-Copy-93"
          transform="translate(395.971429, 223.369277) rotate(20.000000) translate(-395.971429, -223.369277) "></path>
    <path d="M400.857143,219.566832 L404.114286,221.739658" id="Path-3-Copy-94"
          transform="translate(402.485714, 220.653245) rotate(20.000000) translate(-402.485714, -220.653245) "></path>
    <path d="M210.857143,163.616566 L273.828571,163.616566" id="Path-3-Copy-87"
          transform="translate(242.342857, 163.616566) rotate(20.000000) translate(-242.342857, -163.616566) "></path>
    <path d="M227.142857,169.591837 L277.085714,169.591837" id="Path-3-Copy-86"
          transform="translate(252.114286, 169.591837) rotate(20.000000) translate(-252.114286, -169.591837) "></path>
    <path id="Path-3-Copy-73"
          d="M10 203.270638 289.485453 203.270638 293.414988 208.181844 292.213136 212.893009 297.848033 218.278383 295.719541 221.754573 295.719541 226.915826 299.885714 232.371296 293.414988 233.6902"></path>
    <path d="M50.1714286,200.011399 L124,200.011399" id="Path-3-Copy-77" ></path>
    <path d="M132.685714,199.468193 L282.514286,199.468193" id="Path-3-Copy-78" ></path>
    <path d="M31.7142857,234.776613 L290.114286,234.776613" id="Path-3-Copy-75" ></path>
    <path id="Path-3-Copy-74"
          d="M268.4 244.55433 268.4 345.590734 244.514286 345.590734 244.514286 252.145315"></path>
    <path d="M262.428571,346.677147 L262.428571,283.665196" id="Path-3-Copy-85" ></path>
    <path id="Path-3-Copy-76"
          d="M272.742857 360.513428 272.742857 348.849972 238 348.849972 238 368.405405"></path>
    <path id="Path-3-Copy-74"
          d="M145.714286 244.55433 145.714286 345.590734 121.828571 345.590734 121.828571 252.145315"></path>
    <path d="M128.885714,307.566281 L128.885714,244.55433" id="Path-3-Copy-85" ></path>
    <path id="Path-3-Copy-76"
          d="M152.228571 364.344399 152.228571 348.849972 116.4 348.849972 116.4 368.405405"></path>
    <path d="M484.457143,60.6180265 C493.283325,58.302157 500.689779,58.7751333 506.676505,62.0369553 C508.613762,54.2894222 514.23588,49.9437704 523.542857,49"
          id="Path-3-Copy-7"
          transform="translate(504.000000, 55.518478) scale(-1, 1) translate(-504.000000, -55.518478) "></path>
    <path d="M464.914286,74.1279581 C471.288751,72.5840451 476.637857,72.8993627 480.961603,75.0739106 C482.360733,69.9088885 486.421151,67.0117874 493.142857,66.3826071"
          id="Path-3-Copy-12"
          transform="translate(479.028571, 70.728259) scale(-1, 1) translate(-479.028571, -70.728259) "></path>
    <path id="Path-3-Copy-73"
          transform="translate(625.057143, 218.480419) scale(-1, 1) translate(-625.057143, -218.480419) "
          d="M480.114286 203.270638 770 203.270638 765.833827 208.181844 767.962319 212.906541 761.519289 218.480419 761.519289 223.738288 763.529273 227.340066 761.519289 231.235309 763.529273 233.6902"></path>
    <path d="M604.971429,200.011399 L715.714286,200.011399" id="Path-3-Copy-77"
          transform="translate(660.342857, 200.011399) scale(-1, 1) translate(-660.342857, -200.011399) "></path>
    <path d="M508.342857,199.468193 L595.2,199.468193" id="Path-3-Copy-78"
          transform="translate(551.771429, 199.468193) scale(-1, 1) translate(-551.771429, -199.468193) "></path>
    <path d="M490.971429,234.776613 L749.371429,234.776613" id="Path-3-Copy-75"
          transform="translate(620.171429, 234.776613) scale(-1, 1) translate(-620.171429, -234.776613) "></path>
    <path id="Path-3-Copy-74"
          transform="translate(524.628571, 295.072532) scale(-1, 1) translate(-524.628571, -295.072532) "
          d="M536.571429 244.55433 536.571429 345.590734 512.685714 345.590734 512.685714 252.145315"></path>
    <path d="M518.657143,346.677147 L518.657143,283.665196" id="Path-3-Copy-85"
          transform="translate(518.657143, 315.171171) scale(-1, 1) translate(-518.657143, -315.171171) "></path>
    <path id="Path-3-Copy-76"
          transform="translate(525.171429, 358.627689) scale(-1, 1) translate(-525.171429, -358.627689) "
          d="M543.085714 360.513428 543.085714 348.849972 507.257143 348.849972 507.257143 368.405405"></path>
    <path id="Path-3-Copy-74"
          transform="translate(646.228571, 295.072532) scale(-1, 1) translate(-646.228571, -295.072532) "
          d="M658.171429 244.55433 658.171429 345.590734 634.285714 345.590734 634.285714 252.145315"></path>
    <path d="M650.028571,307.566281 L650.028571,244.55433" id="Path-3-Copy-85"
          transform="translate(650.028571, 276.060305) scale(-1, 1) translate(-650.028571, -276.060305) "></path>
    <path id="Path-3-Copy-76"
          transform="translate(645.685714, 358.627689) scale(-1, 1) translate(-645.685714, -358.627689) "
          d="M663.6 364.344399 663.6 348.849972 627.771429 348.849972 627.771429 368.405405"></path>

</svg>