<?xml version="1.0" encoding="UTF-8"?>
<svg width="210px" height="224px" viewBox="0 0 210 224" version="1.1" xmlns="http://www.w3.org/2000/svg" xmlns:xlink="http://www.w3.org/1999/xlink">
    <!-- Generator: Sketch 49.2 (51160) - http://www.bohemiancoding.com/sketch -->
    <title>Group 40</title>
    <desc>Created with Sketch.</desc>
    <defs>
        <rect id="path-1" x="0" y="0" width="233" height="274"></rect>
    </defs>
    <g id="Symbols" stroke="none" stroke-width="1" fill="none" fill-rule="evenodd">
        <g id="desktop-footer" transform="translate(-950.000000, -90.000000)">
            <g id="Group-40" transform="translate(927.000000, 49.000000)">
                <mask id="mask-2" fill="white">
                    <use xlink:href="#path-1"></use>
                </mask>
                <g id="Mask"></g>
                <g mask="url(#mask-2)">
                    <g transform="translate(23.000000, 42.000000)">
                        <g id="Group-8" transform="translate(104.549451, 16.498084)" stroke-linecap="round" stroke-linejoin="round">
                            <path d="M51,16.7816092 L53.2417582,11.1877395" id="Path-3-Copy-7" stroke="#000000" stroke-width="1.1"></path>
                            <path d="M40.9120879,13.4252874 L40.9120879,6.71264368" id="Path-3-Copy-15" stroke="#000000" stroke-width="1.1"></path>
                            <path d="M40.9120879,3.35632184 L40.9120879,0" id="Path-3-Copy-20" stroke="#000000" stroke-width="1.1"></path>
                            <path d="M26.3406593,17.9003831 L22.978022,13.4252874" id="Path-3-Copy-16" stroke="#000000" stroke-width="1.1"></path>
                            <path d="M21.5838258,11.4493895 L20.1896296,9.59266595" id="Path-3-Copy-22" stroke="#000000" stroke-width="1.1"></path>
                            <path d="M19.6153846,29.0881226 L8.40659341,25.7318008" id="Path-3-Copy-17" stroke="#000000" stroke-width="1.1"></path>
                            <path d="M19.6153846,42.51341 L14.010989,43.6321839" id="Path-3-Copy-18" stroke="#000000" stroke-width="1.1"></path>
                            <path d="M24.0989011,53.7011494 L19.6153846,58.1762452" id="Path-3-Copy-21" stroke="#000000" stroke-width="1.1"></path>
                            <path d="M17.8246741,59.8898588 L15.763526,61.7999295" id="Path-3-Copy-23" stroke="#000000" stroke-width="1.1"></path>
                            <path d="M11.0038774,44.2446866 L0.305116225,46.457593" id="Path-3-Copy-19" stroke="#000000" stroke-width="1.1"></path>
                            <path d="M48.0975666,54.8199234 C53.8452133,51.5363995 57.7252747,45.3020003 57.7252747,38.151378 C57.7252747,27.5849442 49.2528484,19.0191571 38.801581,19.0191571 C31.3812086,19.0191571 24.9583627,23.3371383 21.8571429,29.623391" id="Oval-Copy-3" stroke="#000000" stroke-width="1.1" transform="translate(39.791209, 36.919540) rotate(-90.000000) translate(-39.791209, -36.919540) "></path>
                        </g>
                        <g id="Group-6" transform="translate(71.483516, 155.226054)" stroke-linecap="round" stroke-linejoin="round">
                            <polyline id="Rectangle-4-Copy-9" stroke="#000000" stroke-width="1.1" points="78.4615385 10.3000027 78.4615385 30.2068966 3.36263736 30.2068966 3.36263736 10.5815187"></polyline>
                            <polyline id="Rectangle-4-Copy-11" stroke="#000000" stroke-width="1.1" points="1.12087912 41.0410925 3.36263736 30.2068966 28.5824176 30.2068966 27.4615385 43.6321839 27.4615385 47.8393052"></polyline>
                            <polyline id="Rectangle-4-Copy-12" stroke="#000000" stroke-width="1.1" points="28.5824176 30.2068966 53.8021978 30.2068966 54.9230769 43.6321839 54.9230769 47.8906378"></polyline>
                            <polygon id="Rectangle-4-Copy-15" stroke="#000000" stroke-width="1.1" points="1.46153846 48.1753581 80.6131543 48.1753581 80.6131543 43.6321839 1.46153846 43.6321839"></polygon>
                            <polyline id="Rectangle-4-Copy-17" stroke="#000000" stroke-width="1.1" points="5.6043956 48.4813705 5.6043956 61.532567 68.7907484 61.532567"></polyline>
                            <polyline id="Rectangle-4-Copy-21" stroke="#000000" stroke-width="1.1" points="72.4602508 61.532567 77.3406593 61.532567 77.3406593 48.4134995"></polyline>
                            <polyline id="Rectangle-4-Copy-13" stroke="#000000" stroke-width="1.1" points="53.8021978 30.2068966 78.3595591 30.2068966 80.6013173 43.6321839"></polyline>
                            <path d="M81.8099174,4.65306693 C81.8193663,4.77897113 81.8241758,4.90616634 81.8241758,5.03448276 C81.8241758,7.81495081 79.5659198,10.0689655 76.7802198,10.0689655 C74.8282473,10.0689655 73.1352481,8.96225139 72.2967033,7.34318582 C71.4581585,8.96225139 69.7651593,10.0689655 67.8131868,10.0689655 C65.8612143,10.0689655 64.1682151,8.96225139 63.3296703,7.34318582 C62.4911256,8.96225139 60.7981264,10.0689655 58.8461538,10.0689655 C56.8941813,10.0689655 55.2011821,8.96225139 54.3626374,7.34318582 C53.5240926,8.96225139 51.8310934,10.0689655 49.8791209,10.0689655 C47.9271484,10.0689655 46.2341492,8.96225139 45.3956044,7.34318582 C44.5570596,8.96225139 42.8640604,10.0689655 40.9120879,10.0689655 C38.9601154,10.0689655 37.2671162,8.96225139 36.4285714,7.34318582 C35.5900267,8.96225139 33.8970275,10.0689655 31.9450549,10.0689655 C29.9930824,10.0689655 28.3000832,8.96225139 27.4615385,7.34318582 C26.6229937,8.96225139 24.9299945,10.0689655 22.978022,10.0689655 C21.0260495,10.0689655 19.3330503,8.96225139 18.4945055,7.34318582 C17.6559607,8.96225139 15.9629615,10.0689655 14.010989,10.0689655 C12.0590165,10.0689655 10.3660173,8.96225139 9.52747253,7.34318582 C8.68892776,8.96225139 6.99592856,10.0689655 5.04395604,10.0689655 C2.25825604,10.0689655 0,7.81495081 0,5.03448276 C0,4.90616634 0.00480952123,4.77897113 0.0142584486,4.65306693 C0.00487564306,4.59471895 4.2263171e-15,4.53486373 4.21884749e-15,4.47386973 L0,1.12 C-7.57516201e-17,0.50144108 0.50144108,1.1362743e-16 1.12,0 L80.7041758,0 C81.3227347,-1.1362743e-16 81.8241758,0.50144108 81.8241758,1.12 L81.8241758,4.47386973 C81.8241758,4.53486373 81.8193002,4.59471895 81.8099174,4.65306693 Z" id="Combined-Shape" stroke="#000000" stroke-width="1.1"></path>
                        </g>
                        <g id="Group-10" transform="translate(0.527473, 0.000000)">
                            <polyline id="Rectangle-4-Copy-17" stroke="#000000" stroke-width="1.1" stroke-linecap="round" stroke-linejoin="round" points="198.736264 157.407544 198.736264 120.84135 127 120.84135 127 149.632184"></polyline>
                            <polyline id="Rectangle-4-Copy-27" stroke="#000000" stroke-width="1.1" stroke-linecap="round" stroke-linejoin="round" transform="translate(146.054945, 129.494253) rotate(90.000000) translate(-146.054945, -129.494253) " points="142.692308 119.43079 142.692308 114.950192 149.417582 114.950192 149.417582 144.038314 142.692308 144.038314 142.692308 122.772941"></polyline>
                            <polyline id="Rectangle-4-Copy-29" stroke="#000000" stroke-width="1.1" stroke-linecap="round" stroke-linejoin="round" transform="translate(179.681319, 129.494253) scale(1, -1) rotate(90.000000) translate(-179.681319, -129.494253) " points="176.318681 114.950192 183.043956 114.950192 183.043956 144.038314 176.318681 144.038314 176.318681 122.772941"></polyline>
                            <polyline id="Rectangle-4-Copy-23" stroke="#000000" stroke-width="1.1" stroke-linecap="round" stroke-linejoin="round" points="241.32967 251.583267 241.32967 161.938697 169.593407 161.938697 169.593407 217.758509"></polyline>
                            <path d="M0.351414246,221.758509 L119.593407,221.758509" id="Rectangle-4-Copy-42" stroke="#000000" stroke-width="1.1" stroke-linecap="round" stroke-linejoin="round"></path>
                            <path d="M40.9049133,213.758509 L69.3798706,213.758509" id="Rectangle-4-Copy-43" stroke="#000000" stroke-width="1.1" stroke-linecap="round" stroke-linejoin="round"></path>
                            <polyline id="Rectangle-4-Copy-18" stroke="#000000" stroke-width="1.1" stroke-linecap="round" stroke-linejoin="round" points="217.791209 177.288691 217.791209 53.4176245 146.054945 53.4176245 146.054945 116.434956"></polyline>
                            <rect id="Rectangle-4" stroke="#000000" stroke-width="1.1" x="153.33022" y="80.8181992" width="28.0428571" height="27.9881226" rx="1.12"></rect>
                            <path d="M157.263736,105.060084 L157.263736,81.3869732" id="Path-3-Copy" stroke="#000000" stroke-width="1.1" stroke-linecap="round" stroke-linejoin="round"></path>
                            <polyline id="Rectangle-4-Copy-24" stroke="#000000" stroke-width="1.1" stroke-linecap="round" stroke-linejoin="round" points="176.318681 214.057858 176.318681 176.482759 239.087912 176.482759 239.087912 201.095785"></polyline>
                            <path d="M180.802198,202.393418 L180.802198,182.29487" id="Path-3-Copy-14" stroke="#000000" stroke-width="1.1" stroke-linecap="round" stroke-linejoin="round"></path>
                            <rect id="Rectangle-4-Copy-22" stroke="#000000" stroke-width="1.1" x="191.44011" y="80.8181992" width="28.0428571" height="27.9881226" rx="1.12"></rect>
                            <path d="M195.373626,105.060084 L195.373626,81.3869732" id="Path-3-Copy-13" stroke="#000000" stroke-width="1.1" stroke-linecap="round" stroke-linejoin="round"></path>
                            <path d="M157.626405,70.1463406 C160.492064,70.1463406 162.815139,67.8276281 162.815139,64.9673513 C162.815139,62.1070745 160.492064,59.788362 157.626405,59.788362 C154.760746,59.788362 152.43767,62.1070745 152.43767,64.9673513 C152.43767,66.3300211 152.964935,67.569773 153.826938,68.4944433" id="Oval-Copy-3" stroke="#000000" stroke-width="1.1" stroke-linecap="round" stroke-linejoin="round" transform="translate(157.626405, 64.967351) rotate(-150.000000) translate(-157.626405, -64.967351) "></path>
                            <path d="M174.439592,70.1463406 C177.30525,70.1463406 179.628326,67.8276281 179.628326,64.9673513 C179.628326,62.1070745 177.30525,59.788362 174.439592,59.788362 C171.573933,59.788362 169.250857,62.1070745 169.250857,64.9673513 C169.250857,66.3300211 169.778121,67.569773 170.640125,68.4944433" id="Oval-Copy-10" stroke="#000000" stroke-width="1.1" stroke-linecap="round" stroke-linejoin="round" transform="translate(174.439592, 64.967351) rotate(-150.000000) translate(-174.439592, -64.967351) "></path>
                            <path d="M191.252778,70.1463406 C194.118437,70.1463406 196.441513,67.8276281 196.441513,64.9673513 C196.441513,62.1070745 194.118437,59.788362 191.252778,59.788362 C188.387119,59.788362 186.064044,62.1070745 186.064044,64.9673513 C186.064044,66.3300211 186.591308,67.569773 187.453312,68.4944433" id="Oval-Copy-11" stroke="#000000" stroke-width="1.1" stroke-linecap="round" stroke-linejoin="round" transform="translate(191.252778, 64.967351) rotate(-150.000000) translate(-191.252778, -64.967351) "></path>
                            <path d="M208.065965,70.1463406 C210.931624,70.1463406 213.2547,67.8276281 213.2547,64.9673513 C213.2547,62.1070745 210.931624,59.788362 208.065965,59.788362 C205.200306,59.788362 202.877231,62.1070745 202.877231,64.9673513 C202.877231,66.3300211 203.404495,67.569773 204.266499,68.4944433" id="Oval-Copy-12" stroke="#000000" stroke-width="1.1" stroke-linecap="round" stroke-linejoin="round" transform="translate(208.065965, 64.967351) rotate(-150.000000) translate(-208.065965, -64.967351) "></path>
                            <polyline id="Rectangle-4-Copy-19" stroke="#000000" stroke-width="1.1" stroke-linecap="round" stroke-linejoin="round" points="216.472527 0.0393249858 198.736264 0.0393249858 198.736264 31.6327263"></polyline>
                            <polyline id="Rectangle-4-Copy-20" stroke="#000000" stroke-width="1.1" stroke-linecap="round" stroke-linejoin="round" points="265.989011 109.043481 265.989011 34.9971794 194.252747 34.9971794 194.252747 48.1897452"></polyline>
                        </g>
                        <g id="Group-10-Copy" transform="translate(86.791209, 87.411877) scale(-1, 1) translate(-86.791209, -87.411877) translate(66.791209, 76.911877)" stroke-linecap="round" stroke-linejoin="round">
                            <path d="M7.87311181,6.71264368 C7.86988591,6.62871733 7.86825818,6.54438123 7.86825818,6.45966495 C7.86825818,2.88537748 10.7657907,-0.0121550221 14.3400782,-0.0121550221 L24.8906911,-0.0121550221 C28.4649786,-0.0121550221 31.3625111,2.88537748 31.3625111,6.45966495 C31.3625111,10.0339524 28.4649786,12.9314849 24.8906911,12.9314849 L24.6414539,12.9314849 C24.6533094,13.094539 24.6593407,13.2592088 24.6593407,13.4252874 C24.6593407,17.1325781 21.6539877,20.137931 17.946697,20.137931 L6.71264368,20.137931 C3.00535294,20.137931 4.00672585e-15,17.1325781 3.55271368e-15,13.4252874 C3.09870151e-15,9.71799662 3.00535294,6.71264368 6.71264368,6.71264368 L7.87311181,6.71264368 Z" id="Combined-Shape" stroke="#000000" stroke-width="1.1"></path>
                            <path d="M39.3515986,6.54977794 L39.3515986,12.4588533 C39.3515986,15.5540755 36.8424252,18.0632489 33.747203,18.0632489 L33.7160137,18.0632489 C30.6380168,18.0632489 28.1428074,15.5680394 28.1428074,12.4900426" id="Rectangle-4-Copy-31" stroke="#000000" stroke-width="1.1" transform="translate(33.747203, 12.306513) scale(-1, 1) rotate(90.000000) translate(-33.747203, -12.306513) "></path>
                        </g>
                    </g>
                </g>
            </g>
        </g>
    </g>
</svg>