<?xml version="1.0" encoding="UTF-8"?>
<svg width="1130px" height="530px" viewBox="0 0 1130 530" version="1.1" xmlns="http://www.w3.org/2000/svg" fill="none"
     fill-rule="evenodd" stroke-linecap="round" stroke-linejoin="round" xmlns:xlink="http://www.w3.org/1999/xlink">
    <path d="M983.128342,519.344828 C983.128342,511.879461 977.11591,505.827586 969.699198,505.827586 C962.282486,505.827586 956.270053,511.879461 956.270053,519.344828 L887.205882,519.344828 C887.205882,511.879461 881.19345,505.827586 873.776738,505.827586 C866.360026,505.827586 860.347594,511.879461 860.347594,519.344828 L847,519.344828 C845.895431,519.344828 845,518.449397 845,517.344828 L845,500.69271 C845,499.20524 846.089956,497.942383 847.561446,497.724938 L871.135304,494.241379 L871.218806,494.241379 L882.914678,476.582481 C884.396408,474.345306 886.901055,473 889.584425,473 L943.348768,473 C945.479564,473 947.522319,473.850052 949.024086,475.36167 L967.780749,494.241379 L968.499071,494.241379 L998.310035,499.609047 C999.550636,499.832425 1000.61336,500.627533 1001.1778,501.754651 L1008.5366,516.449283 C1009.03119,517.436931 1008.63149,518.638527 1007.64385,519.133123 C1007.36584,519.272341 1007.05921,519.344828 1006.7483,519.344828 L983.128342,519.344828 Z"
          id="Combined-Shape"></path>
    <path d="M921.737968,513.378655 L921.737968,477.449169" id="Path-3"></path>
    <path d="M945.019374,498.19555 L948.660873,484.797147" id="Path-3-Copy-7"></path>
    <path d="M969.699198,529 C974.996849,529 979.291444,524.677232 979.291444,519.344828 C979.291444,514.012423 974.996849,509.689655 969.699198,509.689655 C964.401547,509.689655 960.106952,514.012423 960.106952,519.344828 C960.106952,521.885248 961.081689,524.196514 962.675247,525.920373"
          id="Oval-Copy-3"></path>
    <path d="M873.776738,529 C879.074389,529 883.368984,524.677232 883.368984,519.344828 C883.368984,514.012423 879.074389,509.689655 873.776738,509.689655 C868.479087,509.689655 864.184492,514.012423 864.184492,519.344828 C864.184492,521.885248 865.159229,524.196514 866.752787,525.920373"
          id="Oval-Copy-4"
          transform="translate(873.776738, 519.344828) scale(-1, 1) translate(-873.776738, -519.344828) "></path>
    <path d="M497,527 L856,527" id="Path-3-Copy-8"></path>
    <path d="M990,527 L1129,527" id="Path-3-Copy-72"></path>
    <path d="M1019,520 L1127,520" id="Path-3-Copy-73"></path>
    <path d="M70,520 L312,520" id="Path-3-Copy-74"></path>
    <path d="M22,527 L348,527" id="Path-3-Copy-69"></path>
    <path d="M675.596491,487.326531 L675.596491,408.040816 C675.596491,407.488532 675.148776,407.040816 674.596491,407.040816 L611.578947,407.040816 C611.026663,407.040816 610.578947,407.488532 610.578947,408.040816 L610.578947,487.326531 L555.122807,487.326531 L555.122807,237 C555.122807,235.895431 556.018238,235 557.122807,235 L732.877193,235 C733.981762,235 734.877193,235.895431 734.877193,237 L734.877193,487.326531 L675.596491,487.326531 Z"
          id="Combined-Shape"></path>
    <rect id="Rectangle-4-Copy-5" x="679.421053" y="322.020408" width="30.5964912" height="49.7006803"></rect>
    <rect id="Rectangle-4" x="679.421053" y="258.938776" width="30.5964912" height="49.7006803"></rect>
    <rect id="Rectangle-4-Copy" x="629.701754" y="258.938776" width="30.5964912" height="49.7006803"></rect>
    <rect id="Rectangle-4-Copy-2" x="579.982456" y="258.938776" width="30.5964912" height="49.7006803"></rect>
    <rect id="Rectangle-4-Copy-4" x="629.701754" y="322.020408" width="30.5964912" height="49.7006803"></rect>
    <rect id="Rectangle-4-Copy-3" x="579.982456" y="322.020408" width="30.5964912" height="49.7006803"></rect>
    <rect id="Rectangle-5" x="545.561404" y="494.972789" width="198.877193" height="7.6462585"></rect>
    <path id="Rectangle-5-Copy"
          d="M747.201154 508.353741 754 508.353741 754 516 536 516 536 508.353741 739.812635 508.353741"></path>
    <path d="M642.247071,485.648707 L642.247071,417.638797" id="Path-3"></path>
    <path d="M687.070175,300.298799 L687.070175,259.85034" id="Path-3-Copy"></path>
    <path d="M687.070175,363.380432 L687.070175,322.931973" id="Path-3-Copy-2"></path>
    <path d="M637.350877,300.298799 L637.350877,259.85034" id="Path-3-Copy-4"></path>
    <path d="M637.350877,363.380432 L637.350877,322.931973" id="Path-3-Copy-3"></path>
    <path d="M586.631579,300.448459 L586.631579,260" id="Path-3-Copy-64"></path>
    <path d="M586.631579,363.448459 L586.631579,323" id="Path-3-Copy-63"></path>
    <path d="M767,122.372365 C776.706425,119.90613 784.851531,120.409816 791.435318,123.883422 C793.565779,115.632855 799.748595,111.005048 809.983765,110"
          id="Path-3-Copy-7"></path>
    <path d="M801.411765,138.276869 C808.31908,136.52184 814.115324,136.880274 818.800499,139.352172 C820.316584,133.480879 824.716418,130.187625 832,129.47241"
          id="Path-3-Copy-12"></path>
    <path id="Rectangle-4-Copy-21" d="M630 220.369742 630 1 507 1 507 109.854466"></path>
    <path id="Rectangle-4-Copy-25"
          d="M603.09375 158.658803 603.09375 131.974715 616.546875 131.974715 616.546875 166.425356 603.09375 166.425356"></path>
    <path id="Rectangle-4-Copy-28"
          d="M603.09375 55.3068801 603.09375 28.622792 616.546875 28.622792 616.546875 63.073433 603.09375 63.073433"></path>
    <path id="Rectangle-4-Copy-27"
          d="M603.09375 87.9638649 603.09375 80.2987536 616.546875 80.2987536 616.546875 114.749395 603.09375 114.749395 603.09375 93.6813959"></path>
    <path id="Rectangle-4-Copy-26"
          d="M603.09375 199.498141 603.09375 183.650677 616.546875 183.650677 616.546875 209.067763"></path>
    <path d="M432.836806,77.6689472 C440.775421,75.6505598 447.437077,76.0627805 452.821774,78.9056094 C454.564219,72.1532756 459.620973,68.3658389 467.992034,67.5432993"
          id="Path-3-Copy-12"
          transform="translate(450.414420, 73.224454) scale(-1, 1) translate(-450.414420, -73.224454) "></path>
    <path d="M323.050454,198.586978 C323.044261,198.424617 323.041137,198.26147 323.041137,198.097593 C323.041137,191.130358 328.689197,185.482297 335.656432,185.482297 L355.875287,185.482297 C362.842523,185.482297 368.490583,191.130358 368.490583,198.097593 C368.490583,205.064829 362.842523,210.712889 355.875287,210.712889 L355.569868,210.712889 C355.588439,210.997041 355.59787,211.283686 355.59787,211.572535 C355.59787,218.744259 349.784038,224.558091 342.612314,224.558091 L320.515822,224.558091 C313.344097,224.558091 307.530266,218.744259 307.530266,211.572535 C307.530266,204.40081 313.344097,198.586978 320.515822,198.586978 L323.050454,198.586978 Z"
          id="Combined-Shape"
          transform="translate(338.002980, 205.016059) scale(-1, 1) translate(-338.002980, -205.016059) "></path>
    <path d="M313.309028,198.106733 L313.309028,209.039452 C313.309028,215.069519 308.420692,219.957855 302.390625,219.957855 L302.049468,219.957855 C296.207816,219.957855 291.472222,215.222261 291.472222,209.380609"
          id="Rectangle-4-Copy-31"
          transform="translate(302.390625, 209.032294) rotate(90.000000) translate(-302.390625, -209.032294) "></path>
    <path id="Rectangle-5-Copy-4"
          transform="translate(436.284722, 522.751154) scale(-1, 1) translate(-436.284722, -522.751154) "
          d="M355.833333 518.97321 516.736111 518.97321 516.736111 526.529098 392.677995 526.529098"></path>
    <path id="Rectangle-4-Copy-21"
          transform="translate(508.502000, 243.219852) scale(-1, 1) translate(-508.502000, -243.219852) "
          d="M579.260417 358.136042 579.260417 128.303662 437.743583 128.303662 437.743583 219.110017"></path>
    <path d="M531.257208,170.29593 C536.881364,170.29593 541.440643,165.739356 541.440643,160.118537 C541.440643,154.497718 536.881364,149.941144 531.257208,149.941144 C525.633052,149.941144 521.073773,154.497718 521.073773,160.118537 C521.073773,162.796362 522.108585,165.232637 523.800357,167.049736"
          id="Oval-Copy-3"
          transform="translate(531.257208, 160.118537) scale(-1, 1) rotate(-150.000000) translate(-531.257208, -160.118537) "></path>
    <path d="M497.927347,170.29593 C503.551503,170.29593 508.110782,165.739356 508.110782,160.118537 C508.110782,154.497718 503.551503,149.941144 497.927347,149.941144 C492.303191,149.941144 487.743912,154.497718 487.743912,160.118537 C487.743912,162.796362 488.778724,165.232637 490.470496,167.049736"
          id="Oval-Copy-10"
          transform="translate(497.927347, 160.118537) scale(-1, 1) rotate(-150.000000) translate(-497.927347, -160.118537) "></path>
    <path d="M465.746791,170.29593 C471.370947,170.29593 475.930226,165.739356 475.930226,160.118537 C475.930226,154.497718 471.370947,149.941144 465.746791,149.941144 C460.122636,149.941144 455.563356,154.497718 455.563356,160.118537 C455.563356,162.796362 456.598168,165.232637 458.289941,167.049736"
          id="Oval-Copy-11"
          transform="translate(465.746791, 160.118537) scale(-1, 1) rotate(-150.000000) translate(-465.746791, -160.118537) "></path>
    <path id="Rectangle-4-Copy-25"
          transform="translate(457.679938, 287.778421) scale(-1, 1) translate(-457.679938, -287.778421) "
          d="M451.034487 297.129259 451.034487 270.749651 464.32539 270.749651 464.32539 304.807192 451.034487 304.807192"></path>
    <path id="Rectangle-4-Copy-27"
          transform="translate(457.679938, 236.692111) scale(-1, 1) translate(-457.679938, -236.692111) "
          d="M451.034487 227.240989 451.034487 219.663341 464.32539 219.663341 464.32539 253.720881 451.034487 253.720881 451.034487 232.89328"></path>
    <path id="Rectangle-4-Copy-26"
          transform="translate(457.679938, 334.399493) scale(-1, 1) translate(-457.679938, -334.399493) "
          d="M451.034487 337.502597 451.034487 321.835962 464.32539 321.835962 464.32539 346.963025"></path>
    <path id="Rectangle-4-Copy-21"
          transform="translate(450.231166, 444.668230) scale(-1, 1) translate(-450.231166, -444.668230) "
          d="M523.631944 518.720868 523.631944 370.615591 376.830388 370.615591"></path>
    <path id="Rectangle-4-Copy-25"
          transform="translate(430.788576, 464.698318) scale(-1, 1) translate(-430.788576, -464.698318) "
          d="M424.143124 474.049156 424.143124 447.669548 437.434028 447.669548 437.434028 481.727089 424.143124 481.727089"></path>
    <path id="Rectangle-4-Copy-27"
          transform="translate(396.309409, 464.698318) scale(-1, 1) translate(-396.309409, -464.698318) "
          d="M389.663957 455.247196 389.663957 447.669548 402.954861 447.669548 402.954861 481.727089 389.663957 481.727089 389.663957 460.899487"></path>
    <path id="Rectangle-4-Copy-26"
          transform="translate(465.267743, 460.233080) scale(-1, 1) translate(-465.267743, -460.233080) "
          d="M458.622291 463.336184 458.622291 447.669548 471.913194 447.669548 471.913194 472.796612"></path>
    <rect id="Rectangle-4"
          transform="translate(492.735379, 407.094914) scale(-1, 1) translate(-492.735379, -407.094914) " x="464.137424"
          y="384.266241" width="57.1959093" height="45.6573455"></rect>
    <path d="M513.386963,420.586536 L513.386963,385.566359" id="Path-3-Copy"
          transform="translate(513.386963, 403.076448) scale(-1, 1) translate(-513.386963, -403.076448) "></path>
    <rect id="Rectangle-4-Copy-22"
          transform="translate(418.030518, 407.094914) scale(-1, 1) translate(-418.030518, -407.094914) " x="389.432563"
          y="384.266241" width="57.1959093" height="45.6573455"></rect>
    <path d="M437.532796,420.586536 L437.532796,385.566359" id="Path-3-Copy-13"
          transform="translate(437.532796, 403.076448) scale(-1, 1) translate(-437.532796, -403.076448) "></path>
    <path d="M420.670923,295.893084 C390.708814,275.547368 354.545527,263.660099 315.607639,263.660099 C212.144378,263.660099 128.270833,347.588633 128.270833,451.119725 C128.270833,472.918149 131.98904,493.84757 138.825436,513.307575"
          id="Oval-Copy-12"></path>
    <path d="M102.232466,351.012567 C87.9705721,381.398538 80,415.327708 80,451.119725 C80,472.598138 82.8702617,493.405725 88.2479049,513.179369"
          id="Oval-Copy-15"></path>
    <path d="M279.841711,218.056606 C212.228356,228.360302 154.062131,267.421652 118.195745,322.379523"
          id="Oval-Copy-16"></path>
    <path d="M420.455909,239.930866 C406.926847,233.192339 392.658811,227.717226 377.80604,223.659866"
          id="Oval-Copy-17"></path>
    <path d="M315.032986,308.512402 C236.642111,308.512402 173.09375,372.102426 173.09375,450.544696 C173.09375,473.13791 178.365564,494.499019 187.745429,513.463497"
          id="Oval-Copy-3"></path>
    <path d="M420.293105,355.259548 C397.491689,330.053669 365.77473,313.07501 330.120735,309.305342"
          id="Oval-Copy-4"></path>
</svg>