<?xml version="1.0" encoding="UTF-8"?>
<svg width="1130px" height="450px" viewBox="0 0 1130 450" fill="none" fill-rule="evenodd" version="1.1"  stroke-linejoin="round" stroke-linecap="round"
     xmlns="http://www.w3.org/2000/svg" xmlns:xlink="http://www.w3.org/1999/xlink">

    <path d="M447.469158,126.641917 L451.312772,117.094612" id="Path-3-Copy-7" ></path>
    <path d="M430.172896,120.913534 L430.172896,109.456767" id="Path-3-Copy-15" ></path>
    <path d="M430.172896,103.728383 L430.172896,98" id="Path-3-Copy-20" ></path>
    <path d="M405.189405,128.551378 L399.423984,120.913534" id="Path-3-Copy-16" ></path>
    <path d="M397.03356,117.541181 L394.643137,114.372229" id="Path-3-Copy-22" ></path>
    <path d="M393.658563,147.64599 L374.440493,141.917607" id="Path-3-Copy-17" ></path>
    <path d="M393.658563,170.559524 L384.049528,172.468985" id="Path-3-Copy-18" ></path>
    <path d="M401.345791,189.654135 L393.658563,197.29198" id="Path-3-Copy-21" ></path>
    <path d="M390.588295,200.21668 L387.054346,203.476683" id="Path-3-Copy-23" ></path>
    <path d="M378.893675,173.514371 L360.550079,177.291236" id="Path-3-Copy-19" ></path>
    <path d="M442.492782,191.563596 C452.347428,185.959461 459,175.318935 459,163.11465 C459,145.080449 444.473574,130.46084 426.554319,130.46084 C413.831695,130.46084 402.819384,137.83053 397.502177,148.559556"
          id="Oval-Copy-3"
          transform="translate(428.251089, 161.012218) rotate(-90.000000) translate(-428.251089, -161.012218) "></path>
    <path d="M1,449 L323,449" id="Path-3-Copy-9" ></path>
    <path d="M350,449 L1109,449" id="Path-3-Copy-68" ></path>
    <path d="M9,442 L227,442" id="Path-3-Copy-10" ></path>
    <path d="M238,442 L303,442" id="Path-3-Copy-11" ></path>
    <path d="M534,442 L774,442" id="Path-3-Copy-65" ></path>
    <path d="M827,442 L864,442" id="Path-3-Copy-66" ></path>
    <path d="M895,442 L1054,442" id="Path-3-Copy-67" ></path>
    <path d="M226.128553,388.146968 L232.703189,441.925187" id="Combined-Shape"></path>
    <path d="M211.26459,405.21176 L208.464959,432.456116" id="Combined-Shape-Copy"></path>
    <path d="M193.106383,405.666667 C204.210832,405.666667 213.212766,396.677016 213.212766,385.587719 C213.212766,374.498423 204.210832,365.508772 193.106383,365.508772 C182.001934,365.508772 173,374.498423 173,385.587719 C173,390.870792 175.043153,395.677311 178.383423,399.262259"
          id="Oval-Copy-3" ></path>
    <path d="M226.380576,353.966903 C224.974941,345.330123 217.47126,338.736842 208.425532,338.736842 C198.37865,338.736842 190.234043,346.870336 190.234043,356.903509"
          id="Oval-Copy-6" ></path>
    <path d="M243.52069,361.424463 C246.113692,358.4124 247.680851,354.494228 247.680851,350.210526 C247.680851,340.705415 239.964907,333 230.446809,333 C226.606464,333 223.059501,334.2544 220.194361,336.375287"
          id="Oval-Copy-7" ></path>
    <path d="M236.191489,413.315789 C243.594455,413.315789 249.595745,407.322689 249.595745,399.929825 C249.595745,398.20249 249.268123,396.551571 248.671551,395.035657"
          id="Oval-Copy-8" ></path>
    <path d="M253.985338,393.458725 C259.232477,391.643431 263,386.6646 263,380.807018 C263,373.414153 256.99871,367.421053 249.595745,367.421053"
          id="Oval-Copy-9" ></path>
    <path d="M235.068125,400.401198 C242.461171,397.43408 247.680851,390.207348 247.680851,381.763158 C247.680851,370.673861 238.678917,361.684211 227.574468,361.684211 C222.210908,361.684211 217.337862,363.781484 213.732795,367.199627"
          id="Oval-Copy-5" ></path>
    <path d="M438.246575,351.886016 L438.246575,385.545455 C438.246575,386.097739 437.79886,386.545455 437.246575,386.545455 L310.753425,386.545455 C310.20114,386.545455 309.753425,386.097739 309.753425,385.545455 L309.753425,351.886016"
          id="Rectangle-4-Copy-9"></path>
    <path id="Rectangle-4-Copy-11"
          d="M305.917808 405.033072 309.753425 386.545455 352.90411 386.545455 350.986301 409.454545"></path>
    <path id="Rectangle-4-Copy-14"
          d="M305.917808 417.196841 350.986301 417.196841 350.986301 409.454545 305.917808 409.454545z"></path>
    <path id="Rectangle-4-Copy-16"
          d="M397.972603 417.196841 441.927959 417.196841 441.927959 409.454545 397.972603 409.454545z"></path>
    <path id="Rectangle-4-Copy-12"
          d="M352.90411 386.545455 396.054795 386.545455 397.377489 402.345641 397.972603 409.454545"></path>
    <path id="Rectangle-4-Copy-15"
          d="M350.986301 417.207079 397.972603 417.207079 397.972603 409.454545 350.986301 409.454545z"></path>
    <path id="Rectangle-4-Copy-17"
          d="M427.978458 440 436.328767 440 436.328767 417.090909 313.589041 417.090909 313.589041 440 421.699991 440"></path>
    <path id="Rectangle-4-Copy-13"
          d="M396.054795 386.545455 438.07209 386.545455 441.907706 409.454545 397.972603 409.454545"></path>
    <path d="M443.999934,343.557035 C443.999978,343.568321 444,343.579613 444,343.590909 C444,348.335537 440.136156,352.181818 435.369863,352.181818 C432.030066,352.181818 429.133368,350.293306 427.69863,347.530511 C426.263892,350.293306 423.367194,352.181818 420.027397,352.181818 C416.6876,352.181818 413.790903,350.293306 412.356164,347.530511 C410.921426,350.293306 408.024729,352.181818 404.684932,352.181818 C401.345134,352.181818 398.448437,350.293306 397.013699,347.530511 C395.57896,350.293306 392.682263,352.181818 389.342466,352.181818 C386.002669,352.181818 383.105971,350.293306 381.671233,347.530511 C380.236495,350.293306 377.339797,352.181818 374,352.181818 C370.660203,352.181818 367.763505,350.293306 366.328767,347.530511 C364.894029,350.293306 361.997331,352.181818 358.657534,352.181818 C355.317737,352.181818 352.42104,350.293306 350.986301,347.530511 C349.551563,350.293306 346.654866,352.181818 343.315068,352.181818 C339.975271,352.181818 337.078574,350.293306 335.643836,347.530511 C334.209097,350.293306 331.3124,352.181818 327.972603,352.181818 C324.632806,352.181818 321.736108,350.293306 320.30137,347.530511 C318.866632,350.293306 315.969934,352.181818 312.630137,352.181818 C307.863844,352.181818 304,348.335537 304,343.590909 C304,343.579613 304.000022,343.568321 304.000066,343.557035 C304.000022,343.55318 304,343.54932 304,343.545455 L304,336 C304,335.447715 304.447715,335 305,335 L443,335 C443.552285,335 444,335.447715 444,336 L444,343.545455 C444,343.54932 443.999978,343.55318 443.999934,343.557035 Z"
          id="Combined-Shape"></path>
    <path id="Rectangle-4-Copy-17"
          d="M521.5 338.341197 521.5 275.859739 399 275.859739 399 325.055269"></path>
    <path id="Rectangle-4-Copy-43"
          d="M766.5 338.534276 766.5 208 604 208 604 257.19553"></path>
    <path id="Rectangle-4-Copy-27"
          transform="translate(431.539062, 290.645145) rotate(90.000000) translate(-431.539062, -290.645145) "
          d="M425.796875 273.449485 425.796875 265.793388 437.28125 265.793388 437.28125 315.496901 425.796875 315.496901 425.796875 279.160292"></path>
    <path id="Rectangle-4-Copy-29"
          transform="translate(488.960938, 290.645145) scale(1, -1) rotate(90.000000) translate(-488.960938, -290.645145) "
          d="M483.21875 265.793388 494.703125 265.793388 494.703125 315.496901 483.21875 315.496901 483.21875 279.160292"></path>
    <path id="Rectangle-4-Copy-23"
          d="M942.523045 432.359979 942.523045 346.083678 471.734375 346.083678 471.734375 441.464213"></path>
    <path id="Rectangle-4-Copy-18"
          d="M570.039062 338.312549 570.039062 160.651343 431.539062 160.651343 431.539062 268.330438"></path>
    <path id="Rectangle-4"
          d="M492.789062 207.531508 492.789062 257.235021 443.023437 257.235021 443.023437 207.531508z"></path>
    <path d="M450.679688,248.893946 L450.679688,208.443182" id="Path-3-Copy" ></path>
    <path id="Rectangle-4-Copy-24"
          d="M483.21875 435.14083 483.21875 370.935434 590.40625 370.935434 590.40625 412.992253"></path>
    <path id="Rectangle-4-Copy-42"
          d="M603 435.205396 603 371 862.201966 371 862.201966 383.682371"></path>
    <path d="M861.341175,390.060403 L893.671141,390.060403 C894.223426,390.060403 894.671141,390.508118 894.671141,391.060403 L894.671141,432.089262 C894.671141,432.641547 894.223426,433.089262 893.671141,433.089262 L879.37253,433.089262 L879.37253,433.089262 C879.37253,428.194562 875.404591,424.226623 870.509891,424.226623 L865.218691,424.226623 C860.300014,424.226623 856.290219,428.171246 856.209625,433.089262 L852.585466,433.089262 C852.033181,433.089262 851.585466,432.641547 851.585466,432.089262 L851.585466,410.595315 L860.42701,390.65506 C860.587325,390.293504 860.94567,390.060403 861.341175,390.060403 Z"
          id="Rectangle-4-Copy-22"
          transform="translate(873.128303, 411.574833) scale(-1, 1) translate(-873.128303, -411.574833) "></path>
    <path d="M885.625782,410.155287 L882.871305,402.608356" id="Path-3-Copy-13"
          transform="translate(884.248543, 406.381821) scale(-1, 1) translate(-884.248543, -406.381821) "></path>
    <path id="Path-3-Copy-84"
          transform="translate(894.178784, 431.134037) scale(-1, 1) translate(-894.178784, -431.134037) "
          d="M891.597671 426.326845 890.044734 426.326845 890.044734 435.926391 898.312835 435.941228 898.312835 433.306303"></path>
    <path d="M869.223137,407.508406 L872.686224,390.379056" id="Path-3-Copy-81"
          transform="translate(870.954680, 398.943731) scale(-1, 1) translate(-870.954680, -398.943731) "></path>
    <path d="M770.189796,395.222394 L790.712915,395.222394" id="Path-3-Copy-85"
          transform="translate(780.451355, 395.222394) scale(-1, 1) translate(-780.451355, -395.222394) "></path>
    <path d="M781.510438,403.375839 L828.163184,403.375839" id="Path-3-Copy-86"
          transform="translate(804.836811, 403.375839) scale(-1, 1) translate(-804.836811, -403.375839) "></path>
    <path d="M872.686224,424.823843 L872.686224,410.66697" id="Path-3-Copy-83"
          transform="translate(872.686224, 417.745406) scale(-1, 1) translate(-872.686224, -417.745406) "></path>
    <path d="M894.325341,410.611976 L851.851391,410.611976" id="Path-3-Copy-82"
          transform="translate(873.088366, 410.611976) scale(-1, 1) translate(-873.088366, -410.611976) "></path>
    <path d="M878.581849,444.184421 C883.338771,444.184421 887.195018,440.332986 887.195018,435.582001 C887.195018,430.831017 883.338771,426.979582 878.581849,426.979582 C873.824927,426.979582 869.96868,430.831017 869.96868,435.582001 C869.96868,437.845427 870.843925,439.904683 872.27483,441.440582"
          id="Oval-Copy-10"
          transform="translate(878.581849, 435.582001) scale(-1, 1) rotate(-150.000000) translate(-878.581849, -435.582001) "></path>
    <path d="M789.407352,444.184421 C794.164274,444.184421 798.020522,440.332986 798.020522,435.582001 C798.020522,430.831017 794.164274,426.979582 789.407352,426.979582 C784.65043,426.979582 780.794183,430.831017 780.794183,435.582001 C780.794183,437.845427 781.669429,439.904683 783.100333,441.440582"
          id="Oval-Copy-27"
          transform="translate(789.407352, 435.582001) scale(-1, 1) rotate(-220.000000) translate(-789.407352, -435.582001) "></path>
    <path d="M811.917419,444.184421 C816.674341,444.184421 820.530589,440.332986 820.530589,435.582001 C820.530589,430.831017 816.674341,426.979582 811.917419,426.979582 C807.160497,426.979582 803.30425,430.831017 803.30425,435.582001 C803.30425,437.845427 804.179496,439.904683 805.6104,441.440582"
          id="Oval-Copy-28"
          transform="translate(811.917419, 435.582001) scale(-1, 1) rotate(10.000000) translate(-811.917419, -435.582001) "></path>
    <path d="M770.202915,417.788593 L770.202915,385.703464 C770.202915,385.151179 770.650631,384.703464 771.202915,384.703464 L847.785235,384.703464 C848.33752,384.703464 848.785235,385.151179 848.785235,385.703464 L848.785235,432.089262 C848.785235,432.641547 848.33752,433.089262 847.785235,433.089262 L842.210328,433.089262 L842.210328,433.089262 C842.210328,427.307498 837.523281,422.620451 831.741517,422.620451 L805.367126,422.620451 C799.585362,422.620451 794.898315,427.307498 794.898315,433.089262 L771.202915,433.089262 C770.650631,433.089262 770.202915,432.641547 770.202915,432.089262 L770.202915,422.002787"
          id="Rectangle-4-Copy-23"
          transform="translate(809.494075, 408.896363) scale(-1, 1) translate(-809.494075, -408.896363) "></path>
    <circle id="Oval-Copy-3"  cx="837.922697" cy="393.922697"
            r="3.92269737"></circle>
    <path d="M839.45486,392.960495 L839.781508,393.267438 C840.708036,394.138073 840.763219,395.591548 839.905372,396.529928 L839.761534,396.687269 C838.968312,397.554958 838.972437,398.88577 839.771023,399.748525"
          id="Path-9"
          transform="translate(839.841802, 396.354510) rotate(110.000000) translate(-839.841802, -396.354510) "></path>
    <path d="M490.875,415.209546 L490.875,380.866716" id="Path-3-Copy-14" ></path>
    <path id="Rectangle-4-Copy-22"
          d="M508.101563 257.235021 508.101562 207.531508 557.867188 207.531508 557.867188 257.235021z"></path>
    <path d="M515.757812,248.893946 L515.757812,208.443182" id="Path-3-Copy-13" ></path>
    <path d="M451.298996,189.236066 C456.192521,189.236066 460.159507,185.274032 460.159507,180.386614 C460.159507,175.499196 456.192521,171.537161 451.298996,171.537161 C446.405471,171.537161 442.438485,175.499196 442.438485,180.386614 C442.438485,182.715038 443.338865,184.833429 444.81086,186.413433"
          id="Oval-Copy-3"
          transform="translate(451.298996, 180.386614) rotate(-150.000000) translate(-451.298996, -180.386614) "></path>
    <path d="M480.009934,189.236066 C484.903459,189.236066 488.870445,185.274032 488.870445,180.386614 C488.870445,175.499196 484.903459,171.537161 480.009934,171.537161 C475.116408,171.537161 471.149422,175.499196 471.149422,180.386614 C471.149422,182.715038 472.049802,184.833429 473.521797,186.413433"
          id="Oval-Copy-10"
          transform="translate(480.009934, 180.386614) rotate(-150.000000) translate(-480.009934, -180.386614) "></path>
    <path d="M508.720871,189.236066 C513.614396,189.236066 517.581382,185.274032 517.581382,180.386614 C517.581382,175.499196 513.614396,171.537161 508.720871,171.537161 C503.827346,171.537161 499.86036,175.499196 499.86036,180.386614 C499.86036,182.715038 500.76074,184.833429 502.232735,186.413433"
          id="Oval-Copy-11"
          transform="translate(508.720871, 180.386614) rotate(-150.000000) translate(-508.720871, -180.386614) "></path>
    <path d="M537.431809,189.236066 C542.325334,189.236066 546.29232,185.274032 546.29232,180.386614 C546.29232,175.499196 542.325334,171.537161 537.431809,171.537161 C532.538283,171.537161 528.571297,175.499196 528.571297,180.386614 C528.571297,182.715038 529.471677,184.833429 530.943672,186.413433"
          id="Oval-Copy-12"
          transform="translate(537.431809, 180.386614) rotate(-150.000000) translate(-537.431809, -180.386614) "></path>
    <path id="Rectangle-4-Copy-19"
          d="M697 201.404037 697 1.09379575 521.5 1.09379575 521.5 123.42701"></path>
    <rect id="Rectangle-4"  x="643" y="31.2993197" width="30.5964912"
          height="49.7006803"></rect>
    <rect id="Rectangle-4-Copy-50"  x="624" y="300.364675"
          width="30.5964912" height="8.24799305"></rect>
    <path id="Rectangle-4-Copy-51"
          d="M677.753619 308.612668 670 308.612668 670 300.364675 700.596491 300.364675 700.596491 308.612668 683.370424 308.612668"></path>
    <path id="Rectangle-4-Copy-52"
          d="M716 304.862631 716 300.364675 746.596491 300.364675 746.596491 308.612668 716 308.612668"></path>
    <path d="M654.596491,272.717126 L654.596491,284.70068 L624,284.70068 L624,250.298246 C624,241.849258 630.849258,235 639.298246,235 L639.298246,235 C647.747233,235 654.596491,241.849258 654.596491,250.298246 L654.596491,266.279187"
          id="Rectangle-4-Copy-44" ></path>
    <path d="M685.298246,235 L685.298246,235 C693.747233,235 700.596491,241.849258 700.596491,250.298246 L700.596491,284.70068 L670,284.70068 L670,250.298246 C670,241.849258 676.849258,235 685.298246,235 Z"
          id="Rectangle-4-Copy-45" ></path>
    <path d="M719.667166,276.350408 L719.667166,250 C719.667166,242.268014 725.935179,236 733.667166,236 L736.013328,236"
          id="Rectangle-4-Copy-49" ></path>
    <path d="M673.670044,276.350408 L673.670044,250 C673.670044,242.268014 679.938057,236 687.670044,236 L690.016206,236"
          id="Rectangle-4-Copy-53" ></path>
    <path d="M627.670044,276.350408 L627.670044,250 C627.670044,242.268014 633.938057,236 641.670044,236 L644.016206,236"
          id="Rectangle-4-Copy-54" ></path>
    <path d="M733.951025,284.70068 L716,284.70068 L716,250.298246 C716,241.849258 722.849258,235 731.298246,235 L731.298246,235 C739.747233,235 746.596491,241.849258 746.596491,250.298246 L746.596491,284.70068 L738.816737,284.70068"
          id="Rectangle-4-Copy-46" ></path>
    <rect id="Rectangle-4-Copy"  x="593" y="31.2993197" width="30.5964912"
          height="49.7006803"></rect>
    <rect id="Rectangle-4-Copy-2"  x="544" y="31.2993197"
          width="30.5964912" height="49.7006803"></rect>
    <path d="M650.912281,72.7477788 L650.912281,32.2993197" id="Path-3-Copy" ></path>
    <path d="M600.912281,72.7477788 L600.912281,32.2993197" id="Path-3-Copy-4" ></path>
    <path d="M549.912281,72.7477788 L549.912281,32.2993197" id="Path-3-Copy-64" ></path>
    <path id="Rectangle-4-Copy-20"
          d="M636.34375 202.174815 636.34375 129.175924 513.84375 129.175924 513.84375 151.718351"></path>
    <path id="Rectangle-4-Copy-29"
          transform="translate(610.380456, 156.500000) scale(1, -1) rotate(90.000000) translate(-610.380456, -156.500000) "
          d="M597.880456 143.119544 622.880456 143.119544 622.880456 169.880456 597.880456 169.880456 597.880456 150.31643"></path>
    <path d="M332.315557,210.333333 C332.310174,210.191627 332.307458,210.049238 332.307458,209.906215 C332.307458,203.800367 337.257226,198.8506 343.363073,198.8506 L360.918509,198.8506 C367.024357,198.8506 371.974125,203.800367 371.974125,209.906215 C371.974125,216.012063 367.024357,220.96183 360.918509,220.96183 L360.735669,220.96183 C360.749973,221.194941 360.75723,221.429956 360.75723,221.666667 C360.75723,227.925894 355.683124,233 349.423896,233 L329.965753,233 C323.706526,233 318.63242,227.925894 318.63242,221.666667 C318.63242,215.40744 323.706526,210.333333 329.965753,210.333333 L332.315557,210.333333 Z"
          id="Combined-Shape"
          transform="translate(345.303272, 215.925300) scale(-1, 1) translate(-345.303272, -215.925300) "></path>
    <path d="M323.898614,210.058358 L323.898614,219.923377 C323.898614,225.210852 319.612268,229.497198 314.324793,229.497198 L314.16053,229.497198 C308.963775,229.497198 304.750973,225.284395 304.750973,220.08764"
          id="Rectangle-4-Copy-31"
          transform="translate(314.324793, 219.777778) rotate(90.000000) translate(-314.324793, -219.777778) "></path>
    <path d="M1057.74489,405.849152 L1060.70319,440.925187" id="Combined-Shape"></path>
    <path d="M1047.46678,407.70689 L1045.1067,434.734466" id="Combined-Shape-Copy"></path>
    <path id="Oval-Copy-8"
          d="M1055.55108 404.504684 1076.8097 413.824271 1071.58915 395.185098"></path>
    <path id="Oval-Copy-9"
          d="M1066.5819 393.308826 1079.01992 396.953271 1065.17759 373.637303"></path>
    <path id="Oval-Copy-21"
          d="M1053.28922 368.473505 1069.81566 374.674965 1052.16742 350.63791 1046.43855 358.867102"></path>
    <path id="Oval-Copy-23"
          d="M1044.86647 380.713397 1034.85406 386.582375 1044.86647 356.899529 1048.57712 362.809099"></path>
    <path id="Oval-Copy-24"
          d="M1051.97729 394.539262 1029.15549 404.387323 1039.09937 384.691201"></path>
    <path id="Oval-Copy-25"
          d="M1043.01778 414.552871 1028 421.416509 1036.09937 402"></path>

</svg>