<svg width="616px" height="280px" viewBox="0 0 616 280" xmlns="http://www.w3.org/2000/svg" version="1.1" stroke="#000" fill="none" fill-rule="evenodd"
     stroke-linecap="round" stroke-linejoin="round">
    <path d="M444,109 L446,104" id="Path-3-Copy-7" stroke="#000000"></path>
    <path d="M435,106 L435,100" id="Path-3-Copy-15" stroke="#000000"></path>
    <path d="M435,97 L435,94" id="Path-3-Copy-20" stroke="#000000"></path>
    <path d="M422,110 L419,106" id="Path-3-Copy-16" stroke="#000000"></path>
    <path d="M418,105 L417,103" id="Path-3-Copy-22" stroke="#000000"></path>
    <path d="M416,120 L406,117" id="Path-3-Copy-17" stroke="#000000"></path>
    <path d="M416,132 L411,133" id="Path-3-Copy-18" stroke="#000000"></path>
    <path d="M420,142 L416,146" id="Path-3-Copy-21" stroke="#000000"></path>
    <path d="M415,148 L413,150" id="Path-3-Copy-23" stroke="#000000"></path>
    <path d="M409,134 L399,136" id="Path-3-Copy-19" stroke="#000000"></path>
    <path d="M441.410574,143 C446.538377,140.065069 450,134.492541 450,128.10106 C450,118.656406 442.441267,111 433.117097,111 C426.496961,111 420.766775,114.859565 418,120.478442"
          id="Oval-Copy-3" stroke="#000000"
          transform="translate(434.000000, 127.000000) rotate(-90.000000) translate(-434.000000, -127.000000) "></path>
    <path d="M278.210189,274 C278.210189,270.134007 275.067033,267 271.189754,267 C267.312475,267 264.169319,270.134007 264.169319,274 L228.064224,274 C228.064224,270.134007 224.921069,267 221.043789,267 C217.16651,267 214.023354,270.134007 214.023354,274 L208,274 C206.895431,274 206,273.104569 206,272 L206,265.592826 C206,264.103807 207.092168,262.840127 208.565486,262.62446 L219.662911,261 L219.706564,261 L224.685428,253.553442 C226.170028,251.333023 228.66484,250 231.335851,250 L255.847842,250 C257.965534,250 259.99683,250.839657 261.496445,252.334907 L270.186835,261 L270.562356,261 L285.210925,263.612757 C286.448905,263.833567 287.510979,264.623696 288.078325,265.745957 L290.783822,271.097674 C291.282163,272.083437 290.887029,273.286542 289.901266,273.784883 C289.621505,273.926313 289.312417,274 288.998939,274 L278.210189,274 Z"
          id="Combined-Shape" stroke="#000000"></path>
    <path d="M246,271 L246,252" id="Path-3" stroke="#000000"></path>
    <path d="M258,263 L260,256" id="Path-3-Copy-7" stroke="#000000"></path>
    <path d="M271,279 C273.761424,279 276,276.761424 276,274 C276,271.238576 273.761424,269 271,269 C268.238576,269 266,271.238576 266,274 C266,275.315575 266.508086,276.51248 267.338735,277.405193"
          id="Oval-Copy-3" stroke="#000000"></path>
    <path d="M221,279 C223.761424,279 226,276.761424 226,274 C226,271.238576 223.761424,269 221,269 C218.238576,269 216,271.238576 216,274 C216,275.315575 216.508086,276.51248 217.338735,277.405193"
          id="Oval-Copy-4" stroke="#000000"
          transform="translate(221.000000, 274.000000) scale(-1, 1) translate(-221.000000, -274.000000) "></path>
    <path d="M58,277 L211,277" id="Path-3-Copy-8" stroke="#000000"></path>
    <path d="M280,277 L379,277" id="Path-3-Copy-9" stroke="#000000"></path>
    <path d="M295,273 L329,273" id="Path-3-Copy-10" stroke="#000000"></path>
    <path d="M335,273 L369,273" id="Path-3-Copy-11" stroke="#000000"></path>
    <path d="M151,257 L151,216 C151,215.447715 150.552285,215 150,215 L118,215 C117.447715,215 117,215.447715 117,216 L117,257 L88,257 L88,127 C88,125.895431 88.8954305,125 90,125 L180,125 C181.104569,125 182,125.895431 182,127 L182,257 L151,257 Z"
          id="Combined-Shape" stroke="#000000"></path>
    <rect id="Rectangle-4-Copy-5" stroke="#000000" x="153" y="170" width="16" height="26"></rect>
    <rect id="Rectangle-4" stroke="#000000" x="153" y="137" width="16" height="26"></rect>
    <rect id="Rectangle-4-Copy" stroke="#000000" x="127" y="137" width="16" height="26"></rect>
    <rect id="Rectangle-4-Copy-2" stroke="#000000" x="101" y="137" width="16" height="26"></rect>
    <rect id="Rectangle-4-Copy-4" stroke="#000000" x="127" y="170" width="16" height="26"></rect>
    <rect id="Rectangle-4-Copy-3" stroke="#000000" x="101" y="170" width="16" height="26"></rect>
    <rect id="Rectangle-5" stroke="#000000" x="83" y="261" width="104" height="4"></rect>
    <path id="Rectangle-5-Copy" stroke="#000000"
          d="M188.44464 268 192 268 192 272 78 272 78 268 184.580919 268"></path>
    <path d="M134,257 L134,221" id="Path-3" stroke="#000000"></path>
    <path d="M157,159 L157,138" id="Path-3-Copy" stroke="#000000"></path>
    <path d="M157,192 L157,171" id="Path-3-Copy-2" stroke="#000000"></path>
    <path d="M131,159 L131,138" id="Path-3-Copy-4" stroke="#000000"></path>
    <path d="M131,192 L131,171" id="Path-3-Copy-3" stroke="#000000"></path>
    <path d="M105,159 L105,138" id="Path-3-Copy-64" stroke="#000000"></path>
    <path d="M105,192 L105,171" id="Path-3-Copy-63" stroke="#000000"></path>
    <path d="M329,246 L332,274" id="Combined-Shape" stroke="#000000"></path>
    <path d="M321,255 L320,269" id="Combined-Shape-Copy" stroke="#000000"></path>
    <path d="M311.5,255 C317.29899,255 322,250.29899 322,244.5 C322,238.70101 317.29899,234 311.5,234 C305.70101,234 301,238.70101 301,244.5 C301,247.262708 302.06698,249.776209 303.811343,251.650906"
          id="Oval-Copy-3" stroke="#000000"></path>
    <path d="M329,228.38352 C328.261145,223.629329 324.316923,220 319.562142,220 C314.281117,220 310,224.477153 310,230"
          id="Oval-Copy-6" stroke="#000000"></path>
    <path d="M337.881059,232 C339.201781,230.410491 340,228.342815 340,226.082243 C340,221.066259 336.069953,217 331.221993,217 C329.265948,217 327.459334,217.661965 326,218.781188"
          id="Oval-Copy-7" stroke="#000000"></path>
    <path d="M334,259 C337.865993,259 341,255.721522 341,251.677315 C341,250.73239 340.828909,249.829269 340.517365,249"
          id="Oval-Copy-8" stroke="#000000"></path>
    <path d="M343.292343,249 C346.032516,248.023948 348,245.346918 348,242.197399 C348,238.222385 344.865993,235 341,235"
          id="Oval-Copy-9" stroke="#000000"></path>
    <path d="M333.312457,252 C337.232412,250.467279 340,246.734172 340,242.372164 C340,236.643776 335.226978,232 329.339157,232 C326.495281,232 323.911485,233.083387 322,234.849094"
          id="Oval-Copy-5" stroke="#000000"></path>
    <path d="M439,227.00926 L439,244 C439,244.552285 438.552285,245 438,245 L373,245 C372.447715,245 372,244.552285 372,244 L372,227"
          id="Rectangle-4-Copy-9" stroke="#000000"></path>
    <path id="Rectangle-4-Copy-11" stroke="#000000"
          d="M370 254.68399 372.040816 245 395 245 393.979592 257"></path>
    <path id="Rectangle-4-Copy-14" stroke="#000000" d="M370 261 394 261 394 257 370 257z"></path>
    <path id="Rectangle-4-Copy-16" stroke="#000000" d="M419.024066 261 441 261 441 257 419.024066 257z"></path>
    <path id="Rectangle-4-Copy-12" stroke="#000000"
          d="M395 245 417.978723 245 418.683088 253.276288 419 257"></path>
    <path id="Rectangle-4-Copy-15" stroke="#000000" d="M394 261 419 261 419 257 394 257z"></path>
    <path id="Rectangle-4-Copy-17" stroke="#000000"
          d="M433.64591 273 438 273 438 261 374 261 374 273 430.372138 273"></path>
    <path id="Rectangle-4-Copy-13" stroke="#000000"
          d="M417 245 438.992389 245 441 257 418.003805 257"></path>
    <path d="M441.987323,222.159663 C441.995724,222.272009 442,222.385505 442,222.5 C442,224.985281 439.985281,227 437.5,227 C435.758534,227 434.248113,226.010779 433.5,224.563601 C432.751887,226.010779 431.241466,227 429.5,227 C427.758534,227 426.248113,226.010779 425.5,224.563601 C424.751887,226.010779 423.241466,227 421.5,227 C419.758534,227 418.248113,226.010779 417.5,224.563601 C416.751887,226.010779 415.241466,227 413.5,227 C411.758534,227 410.248113,226.010779 409.5,224.563601 C408.751887,226.010779 407.241466,227 405.5,227 C403.758534,227 402.248113,226.010779 401.5,224.563601 C400.751887,226.010779 399.241466,227 397.5,227 C395.758534,227 394.248113,226.010779 393.5,224.563601 C392.751887,226.010779 391.241466,227 389.5,227 C387.758534,227 386.248113,226.010779 385.5,224.563601 C384.751887,226.010779 383.241466,227 381.5,227 C379.758534,227 378.248113,226.010779 377.5,224.563601 C376.751887,226.010779 375.241466,227 373.5,227 C371.014719,227 369,224.985281 369,222.5 C369,222.385505 369.004276,222.272009 369.012677,222.159663 C369.004335,222.107672 369,222.054342 369,222 L369,219 C369,218.447715 369.447715,218 370,218 L441,218 C441.552285,218 442,218.447715 442,219 L442,222 C442,222.054342 441.995665,222.107672 441.987323,222.159663 Z"
          id="Combined-Shape" stroke="#000000"></path>
    <path d="M216,141.238127 C220.967953,139.994655 225.136791,140.248613 228.506513,142 C229.596928,137.840077 232.761423,135.506744 238,135"
          id="Path-3-Copy-7" stroke="#000000"></path>
    <path d="M234,149.455805 C237.613057,148.567611 240.644939,148.749009 243.095646,150 C243.888675,147.028626 246.190126,145.36196 250,145"
          id="Path-3-Copy-12" stroke="#000000"></path>
    <path id="Rectangle-4-Copy-25" stroke="#000000" d="M123 84.9420798 123 71 130 71 130 89 123 89"></path>
    <path id="Rectangle-4-Copy-28" stroke="#000000" d="M123 30.9420798 123 17 130 17 130 35 123 35"></path>
    <path id="Rectangle-4-Copy-27" stroke="#000000"
          d="M123 48.0049183 123 44 130 44 130 62 123 62 123 50.992252"></path>
    <path id="Rectangle-4-Copy-26" stroke="#000000" d="M123 106.105454 123 98 130 98 130 111"></path>
    <path id="Rectangle-4-Copy-17" stroke="#000000" d="M483 220 483 187 419 187 419 212.982948"></path>
    <path id="Rectangle-4-Copy-27" stroke="#000000"
          transform="translate(436.000000, 195.000000) rotate(90.000000) translate(-436.000000, -195.000000) "
          d="M433 186.004918 433 182 439 182 439 208 433 208 433 188.992252"></path>
    <path id="Rectangle-4-Copy-29" stroke="#000000"
          transform="translate(466.000000, 195.000000) scale(1, -1) rotate(90.000000) translate(-466.000000, -195.000000) "
          d="M463 182 469 182 469 208 463 208 463 188.992252"></path>
    <path id="Rectangle-4-Copy-23" stroke="#000000" d="M571 224 457 224 457 274"></path>
    <path id="Rectangle-4-Copy-18" stroke="#000000" d="M500 127 436 127 436 183"></path>
    <rect id="Rectangle-4" stroke="#000000" x="442" y="151" width="26" height="26"></rect>
    <path d="M446,173 L446,152" id="Path-3-Copy" stroke="#000000"></path>
    <path id="Rectangle-4-Copy-24" stroke="#000000" d="M463 271 463 237 520 237 520 260.362777"></path>
    <path id="Rectangle-4-Copy-30" stroke="#000000" d="M526 271 526 237 583 237 583 260.362777"></path>
    <path d="M467,260 L467,242" id="Path-3-Copy-14" stroke="#000000"></path>
    <rect id="Rectangle-4-Copy-22" stroke="#000000" x="476" y="151" width="26" height="26"></rect>
    <path d="M480,173 L480,152" id="Path-3-Copy-13" stroke="#000000"></path>
    <path d="M446.5,142 C448.985281,142 451,139.985281 451,137.5 C451,135.014719 448.985281,133 446.5,133 C444.014719,133 442,135.014719 442,137.5 C442,138.684018 442.457277,139.761232 443.204861,140.564674"
          id="Oval-Copy-3" stroke="#000000"
          transform="translate(446.500000, 137.500000) rotate(-150.000000) translate(-446.500000, -137.500000) "></path>
    <path d="M461.5,142 C463.985281,142 466,139.985281 466,137.5 C466,135.014719 463.985281,133 461.5,133 C459.014719,133 457,135.014719 457,137.5 C457,138.684018 457.457277,139.761232 458.204861,140.564674"
          id="Oval-Copy-10" stroke="#000000"
          transform="translate(461.500000, 137.500000) rotate(-150.000000) translate(-461.500000, -137.500000) "></path>
    <path d="M476.5,142 C478.985281,142 481,139.985281 481,137.5 C481,135.014719 478.985281,133 476.5,133 C474.014719,133 472,135.014719 472,137.5 C472,138.684018 472.457277,139.761232 473.204861,140.564674"
          id="Oval-Copy-11" stroke="#000000"
          transform="translate(476.500000, 137.500000) rotate(-150.000000) translate(-476.500000, -137.500000) "></path>
    <path d="M491.5,142 C493.985281,142 496,139.985281 496,137.5 C496,135.014719 493.985281,133 491.5,133 C489.014719,133 487,135.014719 487,137.5 C487,138.684018 487.457277,139.761232 488.204861,140.564674"
          id="Oval-Copy-12" stroke="#000000"
          transform="translate(491.500000, 137.500000) rotate(-150.000000) translate(-491.500000, -137.500000) "></path>
    <path d="M364.004347,153 C364.001458,152.924984 364,152.849602 364,152.773879 C364,149.585054 366.585054,147 369.773879,147 L379.226121,147 C382.414946,147 385,149.585054 385,152.773879 C385,155.962704 382.414946,158.547757 379.226121,158.547757 L378.983212,158.547757 C378.994338,158.697049 379,158.847863 379,159 C379,162.313708 376.313708,165 373,165 L363,165 C359.686292,165 357,162.313708 357,159 C357,155.686292 359.686292,153 363,153 L364.004347,153 Z"
          id="Combined-Shape" stroke="#000000"
          transform="translate(371.000000, 156.000000) scale(-1, 1) translate(-371.000000, -156.000000) "></path>
    <path d="M359,153 L359,158 C359,160.761424 356.761424,163 354,163 L353.840596,163 C351.167209,163 349,160.832791 349,158.159404"
          id="Rectangle-4-Copy-31" stroke="#000000"
          transform="translate(354.000000, 158.000000) rotate(90.000000) translate(-354.000000, -158.000000) "></path>
    <path id="Rectangle-4-Copy-19" stroke="#000000" d="M575 148 575 42 483 42 483 106.736184"></path>
    <rect id="Rectangle-4" stroke="#000000" x="547" y="57" width="15" height="26"></rect>
    <rect id="Rectangle-4-Copy" stroke="#000000" x="521" y="57" width="15" height="26"></rect>
    <rect id="Rectangle-4-Copy-2" stroke="#000000" x="494" y="57" width="15" height="26"></rect>
    <path d="M552,79 L552,58" id="Path-3-Copy" stroke="#000000"></path>
    <path d="M525,79 L525,58" id="Path-3-Copy-4" stroke="#000000"></path>
    <path d="M498,79 L498,58" id="Path-3-Copy-64" stroke="#000000"></path>
    <path id="Rectangle-4-Copy-20" stroke="#000000" d="M543 148 543 110 479 110 479 121.734592"></path>
    <path id="Rectangle-4-Copy-29" stroke="#000000"
          transform="translate(530.000000, 124.000000) scale(1, -1) rotate(90.000000) translate(-530.000000, -124.000000) "
          d="M523 117 537 117 537 131 523 131 523 120.765059"></path>
    <path id="Rectangle-4-Copy-43" stroke="#000000" d="M607 220 607 154 525 154 525 178.873965"></path>
    <rect id="Rectangle-4-Copy-50" stroke="#000000" x="535" y="201" width="16" height="4"></rect>
    <path id="Rectangle-4-Copy-51" stroke="#000000"
          d="M562.054645 205 558 205 558 201 574 201 574 205 564.991873 205"></path>
    <path id="Rectangle-4-Copy-52" stroke="#000000"
          d="M581 203.181358 581 201 597 201 597 205 581 205"></path>
    <path d="M551,186.972138 L551,193 L535,193 L535,176 C535,171.581722 538.581722,168 543,168 L543,168 C547.418278,168 551,171.581722 551,176 L551,183.733782"
          id="Rectangle-4-Copy-44" stroke="#000000"></path>
    <path d="M566,168 L566,168 C570.418278,168 574,171.581722 574,176 L574,193 L558,193 L558,176 C558,171.581722 561.581722,168 566,168 Z"
          id="Rectangle-4-Copy-45" stroke="#000000"></path>
    <path d="M583,188 L583,175 C583,171.134007 586.134007,168 590,168" id="Rectangle-4-Copy-49" stroke="#000000"></path>
    <path d="M560,188 L560,175 C560,171.134007 563.134007,168 567,168" id="Rectangle-4-Copy-53" stroke="#000000"></path>
    <path d="M537,188 L537,175 C537,171.134007 540.134007,168 544,168" id="Rectangle-4-Copy-54" stroke="#000000"></path>
    <path d="M590.387233,193 L581,193 L581,176 C581,171.581722 584.581722,168 589,168 L589,168 C593.418278,168 597,171.581722 597,176 L597,193 L592.931688,193"
          id="Rectangle-4-Copy-46" stroke="#000000"></path>
    <path id="Rectangle-4-Copy-21" stroke="#000000" d="M136 116 136 2 71 2 71 58.5684628"></path>
    <path d="M33,41.4558051 C37.2905053,40.567611 40.890865,40.7490093 43.8010791,42 C44.7428011,39.0286263 47.4757748,37.3619597 52,37"
          id="Path-3-Copy-12" stroke="#000000"
          transform="translate(42.500000, 39.500000) scale(-1, 1) translate(-42.500000, -39.500000) "></path>
    <path id="Rectangle-5-Copy-4" stroke="#000000"
          transform="translate(36.500000, 275.000000) scale(-1, 1) translate(-36.500000, -275.000000) "
          d="M2 273 71 273 71 277 26.2349169 277"></path>
    <path id="Rectangle-4-Copy-21" stroke="#000000"
          transform="translate(72.000000, 130.500000) scale(-1, 1) translate(-72.000000, -130.500000) "
          d="M109 191 109 70 35 70 35 117.80688"></path>
    <path d="M84.5,90 C87.5375661,90 90,87.5375661 90,84.5 C90,81.4624339 87.5375661,79 84.5,79 C81.4624339,79 79,81.4624339 79,84.5 C79,85.9471326 79.5588944,87.2637283 80.4726084,88.2457127"
          id="Oval-Copy-3" stroke="#000000"
          transform="translate(84.500000, 84.500000) scale(-1, 1) rotate(-150.000000) translate(-84.500000, -84.500000) "></path>
    <path d="M67.5,90 C70.5375661,90 73,87.5375661 73,84.5 C73,81.4624339 70.5375661,79 67.5,79 C64.4624339,79 62,81.4624339 62,84.5 C62,85.9471326 62.5588944,87.2637283 63.4726084,88.2457127"
          id="Oval-Copy-10" stroke="#000000"
          transform="translate(67.500000, 84.500000) scale(-1, 1) rotate(-150.000000) translate(-67.500000, -84.500000) "></path>
    <path d="M50.5,90 C53.5375661,90 56,87.5375661 56,84.5 C56,81.4624339 53.5375661,79 50.5,79 C47.4624339,79 45,81.4624339 45,84.5 C45,85.9471326 45.5588944,87.2637283 46.4726084,88.2457127"
          id="Oval-Copy-11" stroke="#000000"
          transform="translate(50.500000, 84.500000) scale(-1, 1) rotate(-150.000000) translate(-50.500000, -84.500000) "></path>
    <path id="Rectangle-4-Copy-25" stroke="#000000"
          transform="translate(45.500000, 152.000000) scale(-1, 1) translate(-45.500000, -152.000000) "
          d="M42 156.94208 42 143 49 143 49 161 42 161"></path>
    <path id="Rectangle-4-Copy-27" stroke="#000000"
          transform="translate(45.500000, 125.000000) scale(-1, 1) translate(-45.500000, -125.000000) "
          d="M42 120.004918 42 116 49 116 49 134 42 134 42 122.992252"></path>
    <path id="Rectangle-4-Copy-26" stroke="#000000"
          transform="translate(45.500000, 177.000000) scale(-1, 1) translate(-45.500000, -177.000000) "
          d="M42 178.728951 42 170 49 170 49 184"></path>
    <path id="Rectangle-4-Copy-21" stroke="#000000"
          transform="translate(42.000000, 234.500000) scale(-1, 1) translate(-42.000000, -234.500000) "
          d="M79 273 79 196 5 196"></path>
    <path id="Rectangle-4-Copy-25" stroke="#000000"
          transform="translate(44.500000, 244.000000) scale(-1, 1) translate(-44.500000, -244.000000) "
          d="M41 248.94208 41 235 48 235 48 253 41 253"></path>
    <path id="Rectangle-4-Copy-27" stroke="#000000"
          transform="translate(25.500000, 244.000000) scale(-1, 1) translate(-25.500000, -244.000000) "
          d="M22 239.004918 22 235 29 235 29 253 22 253 22 241.992252"></path>
    <path id="Rectangle-4-Copy-26" stroke="#000000"
          transform="translate(61.500000, 242.000000) scale(-1, 1) translate(-61.500000, -242.000000) "
          d="M58 243.728951 58 235 65 235 65 249"></path>
    <rect id="Rectangle-4" stroke="#000000"
          transform="translate(65.500000, 214.000000) scale(-1, 1) translate(-65.500000, -214.000000) " x="52" y="202"
          width="27" height="24"></rect>
    <path d="M75.5,222 L75.5,203" id="Path-3-Copy" stroke="#000000"
          transform="translate(75.500000, 212.500000) scale(-1, 1) translate(-75.500000, -212.500000) "></path>
    <rect id="Rectangle-4-Copy-22" stroke="#000000"
          transform="translate(26.500000, 214.000000) scale(-1, 1) translate(-26.500000, -214.000000) " x="13" y="202"
          width="27" height="24"></rect>
    <path d="M36.5,222 L36.5,203" id="Path-3-Copy-13" stroke="#000000"
          transform="translate(36.500000, 212.500000) scale(-1, 1) translate(-36.500000, -212.500000) "></path>
</svg>