<?xml version="1.0" encoding="UTF-8"?>
<svg width="482px" height="440px" viewBox="0 0 482 440" version="1.1" xmlns="http://www.w3.org/2000/svg" xmlns:xlink="http://www.w3.org/1999/xlink">
    <!-- Generator: Sketch 50 (54983) - http://www.bohemiancoding.com/sketch -->
    <title>Artboard 4</title>
    <desc>Created with Sketch.</desc>
    <defs></defs>
    <g id="Artboard-4" stroke="none" stroke-width="1" fill="none" fill-rule="evenodd">
        <g id="Group-21" transform="translate(333.800000, 188.200000)" stroke="#000000">
            <path d="M4.26448971,9.55394981 C1.94438133,13.5284112 0.843792457,17.1965781 0.9627231,20.5584506 C1.08165374,23.9203231 3.17906076,25.7419691 7.25494415,26.0233884 C16.3528181,25.9663786 20.4663878,23.6904688 19.5956532,19.1956592 C18.7249186,14.7008496 16.405771,11.4869464 12.6382105,9.55394981 L15.6578105,2.99237327 L12.7646403,4.47922141 C12.0682282,4.8371191 11.2349626,4.80265628 10.5704828,4.38847383 L10.5704828,4.38847383 C9.91506767,3.97994152 9.08400095,3.98118276 8.42980906,4.39167104 L7.33051074,5.08145194 C6.62628026,5.52333812 5.74351788,5.56928243 4.99721971,5.20289057 L1.89986241,3.68225641 L4.26448971,9.55394981 Z" id="Path-6" stroke-width="1.2" stroke-linecap="round" stroke-linejoin="round"></path>
            <g id="Group-46" transform="translate(7.000000, 13.000000)" stroke-linecap="square">
                <path d="M0.658501841,2.08042486 L3.56372504,2.12337559 C4.34263192,2.13489092 4.96472569,2.77565473 4.95321036,3.55456162 C4.94374448,4.19484166 4.5041502,4.74840421 3.88265814,4.90266292 L1.61455148,5.46562298 C0.810521066,5.665189 0.320505854,6.47876465 0.52007187,7.28279507 C0.672121046,7.89538514 1.19138477,8.34725562 1.81910502,8.41323167 L4.33015629,8.6771538" id="Path-9" transform="translate(2.714456, 5.378789) scale(-1, 1) rotate(174.000000) translate(-2.714456, -5.378789) "></path>
                <path d="M3.43875211,0.689690107 L2.12824337,9.80103448" id="Path-9-Copy-5" transform="translate(2.783498, 5.245362) scale(-1, 1) rotate(174.000000) translate(-2.783498, -5.245362) "></path>
            </g>
            <path d="M4.40541292,9.61800581 C6.79149898,11.2055271 8.95093356,11.5833507 10.8837167,10.7514768" id="Path-7" stroke-width="1.2" stroke-linecap="round" stroke-linejoin="round"></path>
            <path d="M1.85860344,3.57152298 C1.66731886,1.82139334 2.74103218,1.22105611 5.07974338,1.77051129 C8.58781018,2.59469406 9.2654686,-0.519047936 12.2026095,1.13690332" id="Path-7-Copy" stroke-width="1.2" stroke-linecap="round" stroke-linejoin="round"></path>
        </g>
        <g id="Group-21-Copy-4" transform="translate(368.380004, 288.902187) scale(-1, 1) rotate(13.000000) translate(-368.380004, -288.902187) translate(354.880004, 274.902187)" stroke="#000000">
            <path d="M11.4644897,9.55394981 C9.14438133,13.5284112 8.04379246,17.1965781 8.1627231,20.5584506 C8.28165374,23.9203231 10.3790608,25.7419691 14.4549442,26.0233884 C23.5528181,25.9663786 27.6663878,23.6904688 26.7956532,19.1956592 C25.9249186,14.7008496 23.605771,11.4869464 19.8382105,9.55394981 L22.8578105,2.99237327 L19.9646403,4.47922141 C19.2682282,4.8371191 18.4349626,4.80265628 17.7704828,4.38847383 L17.7704828,4.38847383 C17.1150677,3.97994152 16.284001,3.98118276 15.6298091,4.39167104 L14.5305107,5.08145194 C13.8262803,5.52333812 12.9435179,5.56928243 12.1972197,5.20289057 L9.09986241,3.68225641 L11.4644897,9.55394981 Z" id="Path-6" stroke-width="1.2" stroke-linecap="round" stroke-linejoin="round"></path>
            <g id="Group-46" transform="translate(18.990846, 18.525329) scale(-1, 1) rotate(6.000000) translate(-18.990846, -18.525329) translate(15.990846, 13.525329)" stroke-linecap="square">
                <path d="M0.658501841,2.08042486 L3.56372504,2.12337559 C4.34263192,2.13489092 4.96472569,2.77565473 4.95321036,3.55456162 C4.94374448,4.19484166 4.5041502,4.74840421 3.88265814,4.90266292 L1.61455148,5.46562298 C0.810521066,5.665189 0.320505854,6.47876465 0.52007187,7.28279507 C0.672121046,7.89538514 1.19138477,8.34725562 1.81910502,8.41323167 L4.33015629,8.6771538" id="Path-9" transform="translate(2.714456, 5.378789) scale(-1, 1) rotate(174.000000) translate(-2.714456, -5.378789) "></path>
                <path d="M3.43875211,0.689690107 L2.12824337,9.80103448" id="Path-9-Copy-5" transform="translate(2.783498, 5.245362) scale(-1, 1) rotate(174.000000) translate(-2.783498, -5.245362) "></path>
            </g>
            <path d="M9.80501569,3.03953328 C8.29988193,3.94879509 6.89539115,4.16385247 5.59154333,3.68470542 C4.28769551,3.20555836 3.29593129,3.94111878 2.61625068,5.89138669 L6.03284104,11.3806816 C4.26035325,13.9908671 3.10724987,17.3973432 2.57353091,21.6001099 C2.03981194,25.8028765 4.7718344,27.5284812 10.7695983,26.7769238" id="Path-6-Copy" stroke-width="1.2" stroke-linecap="round" stroke-linejoin="round" transform="translate(6.638855, 14.993735) rotate(-10.000000) translate(-6.638855, -14.993735) "></path>
            <path d="M11.6054129,9.61800581 C13.991499,11.2055271 16.1509336,11.5833507 18.0837167,10.7514768" id="Path-7" stroke-width="1.2" stroke-linecap="round" stroke-linejoin="round"></path>
            <path d="M5.49908367,11.5048634 C6.28219557,11.9794249 7.23888112,12.028451 8.36914033,11.6519417" id="Path-7-Copy-3" stroke-width="1.2" stroke-linecap="round" stroke-linejoin="round"></path>
            <path d="M1.26191819,6.83139403 C1.72492724,7.13512781 2.79299468,7.28523784 4.46612052,7.28172412 L4.46612056,7.28174298 C4.66718475,7.28132073 4.8675051,7.30616676 5.06237358,7.35569715 L6.03690844,7.603398 C6.79420538,7.79588274 7.59779877,7.60765495 8.19083724,7.09887758 L9.80424717,5.71470691" id="Path-7-Copy-2" stroke-width="1.2" stroke-linecap="round" stroke-linejoin="round"></path>
            <path d="M9.05860344,3.57152298 C8.86731886,1.82139334 9.94103218,1.22105611 12.2797434,1.77051129 C15.7878102,2.59469406 16.4654686,-0.519047936 19.4026095,1.13690332" id="Path-7-Copy" stroke-width="1.2" stroke-linecap="round" stroke-linejoin="round"></path>
        </g>
        <g id="Group-21-Copy-5" transform="translate(209.379560, 289.285318) rotate(4.000000) translate(-209.379560, -289.285318) translate(199.379560, 275.785318)" stroke="#000000">
            <path d="M4.26448971,9.55394981 C1.94438133,13.5284112 0.843792457,17.1965781 0.9627231,20.5584506 C1.08165374,23.9203231 3.17906076,25.7419691 7.25494415,26.0233884 C16.3528181,25.9663786 20.4663878,23.6904688 19.5956532,19.1956592 C18.7249186,14.7008496 16.405771,11.4869464 12.6382105,9.55394981 L15.6578105,2.99237327 L12.7646403,4.47922141 C12.0682282,4.8371191 11.2349626,4.80265628 10.5704828,4.38847383 L10.5704828,4.38847383 C9.91506767,3.97994152 9.08400095,3.98118276 8.42980906,4.39167104 L7.33051074,5.08145194 C6.62628026,5.52333812 5.74351788,5.56928243 4.99721971,5.20289057 L1.89986241,3.68225641 L4.26448971,9.55394981 Z" id="Path-6" stroke-width="1.2" stroke-linecap="round" stroke-linejoin="round"></path>
            <g id="Group" transform="translate(8.824588, 19.280587) rotate(10.000000) translate(-8.824588, -19.280587) translate(4.324588, 15.280587)">
                <circle id="Oval-Copy-3" cx="3.5" cy="3.5" r="3.5"></circle>
                <path d="M4.86706187,2.64148134 L5.15851139,2.91534917 C5.98519982,3.69216763 6.03443595,4.98902028 5.26902753,5.82628407 L5.14068923,5.96667057 C4.43294221,6.74085979 4.43662307,7.92826808 5.14915627,8.69805457" id="Path-9" stroke-linecap="square" transform="translate(5.212308, 5.669768) rotate(110.000000) translate(-5.212308, -5.669768) "></path>
            </g>
            <path d="M4.40541292,9.61800581 C6.79149898,11.2055271 8.95093356,11.5833507 10.8837167,10.7514768" id="Path-7" stroke-width="1.2" stroke-linecap="round" stroke-linejoin="round"></path>
            <path d="M1.85860344,3.57152298 C1.66731886,1.82139334 2.74103218,1.22105611 5.07974338,1.77051129 C8.58781018,2.59469406 9.2654686,-0.519047936 12.2026095,1.13690332" id="Path-7-Copy" stroke-width="1.2" stroke-linecap="round" stroke-linejoin="round"></path>
        </g>
        <path d="M232.060335,74.5530906 L231.710061,74.5530906 C229.930222,74.5530906 228.487378,73.1102461 228.487378,71.3304072 L228.487378,71.3304072 C228.487378,69.5505683 229.930222,68.1077238 231.710061,68.1077238 L233.143689,68.1077238 C235.715298,68.1077238 237.8,70.1924253 237.8,72.764035 L237.8,135.507664" id="Combined-Shape" stroke="#000000" stroke-width="1.2" stroke-linecap="round" stroke-linejoin="round"></path>
        <path d="M228.460335,78.1530906 L228.460335,78.1530906 C225.161562,78.1530906 222.487378,75.4789064 222.487378,72.180133 L222.487378,70.7304072 C222.487378,66.6309723 225.810626,63.3077238 229.910061,63.3077238 L235.4,63.3077238 C240.039192,63.3077238 243.8,67.0685319 243.8,71.7077238 L243.8,135.507664" id="Combined-Shape-Copy-2" stroke="#000000" stroke-width="1.2" stroke-linecap="round" stroke-linejoin="round"></path>
        <path d="M308.572958,74.6453668 L308.222683,74.6453668 C306.442845,74.6453668 305,73.2025223 305,71.4226834 L305,71.4226834 C305,69.6428445 306.442845,68.2 308.222683,68.2 L309.656311,68.2 C312.227921,68.2 314.312622,70.2847015 314.312622,72.8563112 L314.312622,135.59994" id="Combined-Shape-Copy-4" stroke="#000000" stroke-width="1.2" stroke-linecap="round" stroke-linejoin="round" transform="translate(309.656311, 101.899970) scale(-1, 1) translate(-309.656311, -101.899970) "></path>
        <path d="M304.972958,78.2453668 L304.972958,78.2453668 C301.674184,78.2453668 299,75.5711826 299,72.2724093 L299,70.8226834 C299,66.7232486 302.323249,63.4 306.422683,63.4 L311.912622,63.4 C316.551814,63.4 320.312622,67.1608081 320.312622,71.8 L320.312622,135.59994" id="Combined-Shape-Copy-3" stroke="#000000" stroke-width="1.2" stroke-linecap="round" stroke-linejoin="round" transform="translate(309.656311, 99.499970) scale(-1, 1) translate(-309.656311, -99.499970) "></path>
        <path id="Rectangle-4-Copy-17" stroke="#000000" stroke-width="1.2" stroke-linecap="round" stroke-linejoin="round" d="M314.77903 58.6 321.8 58.6 321.8 52.6 218.6 52.6 218.6 58.6 309.500073 58.6"></path>
        <g id="Group-14" transform="translate(251.000000, 74.200000)" stroke="#000000" stroke-linecap="round" stroke-width="1.2">
            <path d="M6.61621622,11.027027 C9.05223976,11.027027 11.027027,9.05223976 11.027027,6.61621622 C11.027027,4.18019267 9.05223976,2.20540541 6.61621622,2.20540541 C4.18019267,2.20540541 2.20540541,4.18019267 2.20540541,6.61621622 C2.20540541,7.77676675 2.65361945,8.83263128 3.38638671,9.62014897" id="Oval-Copy-3" transform="translate(6.616216, 6.616216) rotate(-150.000000) translate(-6.616216, -6.616216) "></path>
            <path d="M20.9513514,11.027027 C23.3873749,11.027027 25.3621622,9.05223976 25.3621622,6.61621622 C25.3621622,4.18019267 23.3873749,2.20540541 20.9513514,2.20540541 C18.5153278,2.20540541 16.5405405,4.18019267 16.5405405,6.61621622 C16.5405405,7.77676675 16.9887546,8.83263128 17.7215218,9.62014897" id="Oval-Copy-10" transform="translate(20.951351, 6.616216) rotate(-150.000000) translate(-20.951351, -6.616216) "></path>
            <path d="M34.1837838,11.027027 C36.6198073,11.027027 38.5945946,9.05223976 38.5945946,6.61621622 C38.5945946,4.18019267 36.6198073,2.20540541 34.1837838,2.20540541 C31.7477602,2.20540541 29.772973,4.18019267 29.772973,6.61621622 C29.772973,7.77676675 30.221187,8.83263128 30.9539543,9.62014897" id="Oval-Copy-11" transform="translate(34.183784, 6.616216) rotate(-150.000000) translate(-34.183784, -6.616216) "></path>
        </g>
        <path d="M282.475318,135.4 L282.475318,108.992054 C282.475318,103.027379 277.639994,98.1920539 271.675318,98.1920539 L271.675318,98.1920539 C265.710643,98.1920539 260.875318,103.027379 260.875318,108.992054 L260.875318,135.4" id="Rectangle-4-Copy-33" stroke="#000000" stroke-width="1.2" stroke-linecap="round" stroke-linejoin="round"></path>
        <path d="M189.751112,159.4 L351.8,159.4" id="Path-3-Copy-8" stroke="#000000" stroke-width="1.2" stroke-linecap="round"></path>
        <path d="M439.839101,135.4 L348.2,135.4" id="Path-3-Copy-34" stroke="#000000" stroke-width="1.2" stroke-linecap="round"></path>
        <path d="M96.6391008,137.8 L1.18610543,137.8" id="Path-3-Copy-59" stroke="#000000" stroke-width="1.2" stroke-linecap="round"></path>
        <path d="M380.520212,128.2 L416.179657,128.2" id="Path-3-Copy-35" stroke="#000000" stroke-width="1.2" stroke-linecap="round"></path>
        <path d="M359.936519,211.41805 L458.984643,211.41805 C471.029435,211.41805 480.793668,201.653817 480.793668,189.609025 C480.793668,177.544149 471.049678,167.744381 458.984999,167.675515 L270.565138,166.6" id="Path-3-Copy-33" stroke="#000000" stroke-width="1.2" stroke-linecap="round"></path>
        <path d="M273.545922,211 L303.25404,211.692077 C315.376841,211.974489 325.057149,221.882934 325.057149,234.009025 L325.057149,234.009025 C325.057149,246.053817 315.292916,255.81805 303.248124,255.81805 L204.2,255.81805" id="Path-3-Copy-42" stroke="#000000" stroke-width="1.2" stroke-linecap="round" class="noDraw" stroke-dasharray="4.8" transform="translate(264.628574, 233.409025) scale(-1, -1) translate(-264.628574, -233.409025) "></path>
        <path d="M192.628574,298.6 L192.628574,343.04968 C192.628574,359.618223 179.197117,373.04968 162.628574,373.04968 L104.6,373.04968" id="Path-3-Copy-46" stroke="#000000" stroke-width="1.2" stroke-linecap="round" class="noDraw" stroke-dasharray="4.8" transform="translate(148.614287, 335.824840) scale(-1, -1) translate(-148.614287, -335.824840) "></path>
        <path d="M104.6,378.6 L104.6,426.22484" id="Path-3-Copy-47" stroke="#000000" stroke-width="1.2" stroke-linecap="round" transform="translate(104.600000, 402.412420) scale(-1, -1) translate(-104.600000, -402.412420) "></path>
        <circle id="Oval-4" fill="#7813FE" cx="104.6" cy="435" r="3.6"></circle>
        <path d="M386.544077,300.21805 L414.848124,300.21805 C426.892916,300.21805 436.657149,290.453817 436.657149,278.409025 C436.657149,266.326971 426.930726,256.496763 414.849352,256.36853 L323.6,255.4" id="Path-3-Copy-43" stroke="#000000" stroke-width="1.2" stroke-linecap="round" class="noDraw" stroke-dasharray="4.8"></path>
        <path d="M349.713072,298.6 L323.456536,298.6" id="Path-3-Copy-44" stroke="#000000" stroke-width="1.2" stroke-linecap="round" class="noDraw" stroke-dasharray="4.8" transform="translate(336.584804, 298.600000) scale(-1, -1) translate(-336.584804, -298.600000) "></path>
        <path d="M287.313072,298.6 L226.256536,298.6" id="Path-3-Copy-45" stroke="#000000" stroke-width="1.2" stroke-linecap="round" class="noDraw" stroke-dasharray="4.8" transform="translate(256.784804, 298.600000) scale(-1, -1) translate(-256.784804, -298.600000) "></path>
        <path d="M273.545922,211 L303.25404,211.692077 C315.376841,211.974489 325.057149,221.882934 325.057149,234.009025 L325.057149,234.009025 C325.057149,246.053817 315.292916,255.81805 303.248124,255.81805 L204.2,255.81805" id="Path-3-Copy-67" class="reverse" stroke="#FFFFFF" stroke-width="2" stroke-linecap="round" transform="translate(264.628574, 233.409025) scale(-1, -1) translate(-264.628574, -233.409025) "></path>
        <path d="M192.628574,298.6 L192.628574,343.04968 C192.628574,359.618223 179.197117,373.04968 162.628574,373.04968 L104.6,373.04968" id="Path-3-Copy-66" class="reverse" stroke="#FFFFFF" stroke-width="2" stroke-linecap="round" transform="translate(148.614287, 335.824840) scale(-1, -1) translate(-148.614287, -335.824840) "></path>
        <path d="M386.544077,300.21805 L414.848124,300.21805 C426.892916,300.21805 436.657149,290.453817 436.657149,278.409025 C436.657149,266.326971 426.930726,256.496763 414.849352,256.36853 L323.6,255.4" id="Path-3-Copy-65" class="reverse" stroke="#FFFFFF" stroke-width="2" stroke-linecap="round"></path>
        <path d="M349.713072,298.6 L323.456536,298.6" id="Path-3-Copy-64" class="reverse" stroke="#FFFFFF" stroke-width="2" stroke-linecap="round" transform="translate(336.584804, 298.600000) scale(-1, -1) translate(-336.584804, -298.600000) "></path>
        <path d="M287.313072,298.6 L226.256536,298.6" id="Path-3-Copy-63" class="reverse" stroke="#FFFFFF" stroke-width="2" stroke-linecap="round" transform="translate(256.784804, 298.600000) scale(-1, -1) translate(-256.784804, -298.600000) "></path>
        <path d="M263.458658,166.6 L166.670848,166.6" id="Path-3-Copy-32" stroke="#000000" stroke-width="1.2" stroke-linecap="round"></path>
        <path d="M271.4,135.246493 L271.4,107.181897" id="Path-3-Copy-24" stroke="#000000" stroke-width="1.2" stroke-linecap="round"></path>
        <path d="M311,135.864596 L311,96.667991" id="Path-3-Copy-28" stroke="#000000" stroke-width="1.2" stroke-linecap="round"></path>
        <path d="M231.8,135.864596 L231.8,96.667991" id="Path-3-Copy-30" stroke="#000000" stroke-width="1.2" stroke-linecap="round"></path>
        <path d="M207.8,121.455369 L207.8,41.9535433" id="Path-3-Copy-36" stroke="#000000" stroke-width="1.2" stroke-linecap="round"></path>
        <path d="M193.4,120.264596 L193.4,31.7228258" id="Path-3-Copy-37" stroke="#000000" stroke-width="1.2" stroke-linecap="round"></path>
        <path d="M317,135.864596 L317,118.468112" id="Path-3-Copy-29" stroke="#000000" stroke-width="1.2" stroke-linecap="round"></path>
        <path d="M225.8,135.864596 L225.8,118.468112" id="Path-3-Copy-31" stroke="#000000" stroke-width="1.2" stroke-linecap="round"></path>
        <path d="M273.8,122.136525 L273.8,117.347038" id="Path-3-Copy-25" stroke="#000000" stroke-width="1.2" stroke-linecap="round"></path>
        <path d="M269,122.136525 L269,117.347038" id="Path-3-Copy-26" stroke="#000000" stroke-width="1.2" stroke-linecap="round"></path>
        <path id="Rectangle-5" stroke="#000000" stroke-width="1.2" stroke-linecap="round" stroke-linejoin="round" d="M210.2 148.4 210.2 142.6 335 142.6 335 148.4"></path>
        <path id="Rectangle-5-Copy-2" stroke="#000000" stroke-width="1.2" stroke-linecap="round" stroke-linejoin="round" transform="translate(161.137637, 134.611315) scale(1, -1) translate(-161.137637, -134.611315) " d="M218.875274 141.022629 103.4 141.022629 103.4 128.2 199.03428 128.2"></path>
        <path d="M188.499344,148.6 L91.2733286,148.6" id="Rectangle-5-Copy-3" stroke="#000000" stroke-width="1.2" stroke-linecap="round" stroke-linejoin="round" transform="translate(139.886336, 148.600000) scale(1, -1) translate(-139.886336, -148.600000) "></path>
        <rect id="Rectangle-5-Copy" stroke="#000000" stroke-width="1.2" stroke-linecap="round" stroke-linejoin="round" transform="translate(272.600000, 151.000000) scale(1, -1) translate(-272.600000, -151.000000) " x="204.2" y="148.6" width="136.8" height="4.8"></rect>
        <path id="Rectangle-4-Copy-30" stroke="#000000" stroke-width="1.2" stroke-linecap="round" stroke-linejoin="round" transform="translate(270.200000, 49.600000) scale(-1, -1) translate(-270.200000, -49.600000) " d="M309.595422 52.6 315.8 52.6 315.8 46.6 224.6 46.6 224.6 52.6 304.930297 52.6"></path>
        <g id="Group-19" transform="translate(104.600000, 1.000000)" stroke="#000000" stroke-linecap="round" stroke-linejoin="round" stroke-width="1.2">
            <path id="Rectangle-4-Copy-41" transform="translate(59.400000, 13.200000) scale(-1, -1) translate(-59.400000, -13.200000) " d="M99.2053545 18 118.8 18 118.8 8.4 0 8.4 0 18 89.6582242 18"></path>
            <path id="Rectangle-4-Copy-40" d="M112.8 4.8 112.8 0 7.2 0 7.2 4.8"></path>
        </g>
        <path id="Rectangle-4-Copy-34" stroke="#000000" stroke-width="1.2" stroke-linecap="round" stroke-linejoin="round" transform="translate(200.600000, 26.200000) scale(-1, 1) translate(-200.600000, -26.200000) " d="M206.02941 28.6 211.4 28.6 211.4 23.8 189.8 23.8 189.8 28.6 199.199173 28.6"></path>
        <path id="Rectangle-4-Copy-37" stroke="#000000" stroke-width="1.2" stroke-linecap="round" stroke-linejoin="round" d="M210.273287 124.6 213.8 124.6 213.8 122.2 186.2 122.2 186.2 124.6 206.712715 124.6"></path>
        <path id="Rectangle-4-Copy-38" stroke="#000000" stroke-width="1.2" stroke-linecap="round" stroke-linejoin="round" d="M168.889909 124.6 177.8 124.6 177.8 122.2 150.2 122.2 150.2 124.6"></path>
        <path id="Rectangle-4-Copy-39" stroke="#000000" stroke-width="1.2" stroke-linecap="round" stroke-linejoin="round" d="M124.340118 124.6 141.8 124.6 141.8 122.2 114.2 122.2 114.2 124.6 119.598881 124.6"></path>
        <path d="M171.8,120.264596 L171.8,30.6635271" id="Path-3-Copy-39" stroke="#000000" stroke-width="1.2" stroke-linecap="round"></path>
        <path d="M157.4,120.264596 L157.4,30.6635271" id="Path-3-Copy-38" stroke="#000000" stroke-width="1.2" stroke-linecap="round"></path>
        <path id="Rectangle-4-Copy-35" stroke="#000000" stroke-width="1.2" stroke-linecap="round" stroke-linejoin="round" transform="translate(164.600000, 26.200000) scale(-1, -1) translate(-164.600000, -26.200000) " d="M173.930495 28.6 175.4 28.6 175.4 23.8 153.8 23.8 153.8 28.6 169.853429 28.6"></path>
        <path d="M168.2,45.9964839 L168.2,28.6" id="Path-3-Copy-31" stroke="#000000" stroke-width="1.2" stroke-linecap="round"></path>
        <path d="M135.8,120.264596 L135.8,30.6635271" id="Path-3-Copy-41" stroke="#000000" stroke-width="1.2" stroke-linecap="round"></path>
        <path d="M126.2,121.596484 L126.2,77.1200329" id="Path-3-Copy-31" stroke="#000000" stroke-width="1.2" stroke-linecap="round"></path>
        <path d="M121.4,121.615798 L121.4,30.6635271" id="Path-3-Copy-40" stroke="#000000" stroke-width="1.2" stroke-linecap="round"></path>
        <path id="Rectangle-4-Copy-36" stroke="#000000" stroke-width="1.2" stroke-linecap="round" stroke-linejoin="round" transform="translate(128.600000, 26.200000) scale(-1, -1) translate(-128.600000, -26.200000) " d="M137.930495 28.6 139.4 28.6 139.4 23.8 117.8 23.8 117.8 28.6 133.853429 28.6"></path>
        <g id="Group-20-Copy-2" transform="translate(295.400000, 285.400000)" stroke="#000000" stroke-linecap="round" stroke-width="1.2">
            <g id="Group-16-Copy-5">
                <path d="M10.2,7.2 C15.8333044,7.2 20.4,5.5882251 20.4,3.6 C20.4,1.6117749 15.8333044,0 10.2,0 C4.56669555,0 0,1.6117749 0,3.6 C0,4.54721404 1.03649499,5.40898582 2.73101927,6.05173923" id="Oval-Copy-3" transform="translate(10.200000, 3.600000) scale(1, -1) translate(-10.200000, -3.600000) "></path>
                <path d="M20.4,10.8 C20.4,10.205363 20.4,9.16436726 20.4,7.67701276 C20.4,5.445981 15.8333044,3.63737242 10.2,3.63737242 C4.56669555,3.63737242 0,5.445981 0,7.67701276 C0,8.3856061 0,9.42660185 0,10.8" id="Oval-Copy-13" transform="translate(10.200000, 7.218686) scale(1, -1) translate(-10.200000, -7.218686) "></path>
            </g>
            <g id="Group-16-Copy-4" transform="translate(0.000000, 8.400000)">
                <path d="M19.6706108,5.4 C20.1411234,4.98597242 20.4,4.53393151 20.4,4.06055042 C20.4,2.07232532 15.8333044,0.460550417 10.2,0.460550417 C4.56669555,0.460550417 0,2.07232532 0,4.06055042 C0,4.52353627 0.247631786,4.96610888 0.698699122,5.37266958" id="Oval-Copy-3" transform="translate(10.200000, 2.930275) scale(1, -1) translate(-10.200000, -2.930275) "></path>
                <path d="M20.4,8.4 C20.4,7.78482671 20.4,6.80793054 20.4,5.46931148 C20.4,3.4613829 15.8333044,1.83363518 10.2,1.83363518 C4.56669555,1.83363518 0,3.4613829 0,5.46931148 C0,6.10704549 0,7.08394166 0,8.4" id="Oval-Copy-13" transform="translate(10.200000, 5.116818) scale(1, -1) translate(-10.200000, -5.116818) "></path>
            </g>
        </g>
        <g id="Group-17" transform="translate(411.800000, 149.800000)" stroke="#000000" stroke-linecap="round" stroke-width="1.2">
            <g id="Group-16-Copy-3">
                <path d="M10.2,7.68 C15.8333044,7.68 20.4,5.96077344 20.4,3.84 C20.4,1.71922656 15.8333044,0 10.2,0 C4.56669555,0 0,1.71922656 0,3.84 C0,4.85036164 1.03649499,5.76958488 2.73101927,6.45518852" id="Oval-Copy-3" transform="translate(10.200000, 3.840000) scale(1, -1) translate(-10.200000, -3.840000) "></path>
                <path d="M20.4,10.8 C20.4,10.1971485 20.4,9.18179257 20.4,7.75393225 C20.4,5.61214176 15.8333044,3.87587752 10.2,3.87587752 C4.56669555,3.87587752 0,5.61214176 0,7.75393225 C0,8.43418185 0,9.44953777 0,10.8" id="Oval-Copy-13" transform="translate(10.200000, 7.337939) scale(1, -1) translate(-10.200000, -7.337939) "></path>
            </g>
        </g>
        <g id="Group-37" transform="translate(386.600000, 145.000000)" stroke="#000000" stroke-linecap="round" stroke-width="1.2">
            <g id="Group-16-Copy-5">
                <path d="M10.2,7.68 C15.8333044,7.68 20.4,5.96077344 20.4,3.84 C20.4,1.71922656 15.8333044,0 10.2,0 C4.56669555,0 0,1.71922656 0,3.84 C0,4.85036164 1.03649499,5.76958488 2.73101927,6.45518852" id="Oval-Copy-3" transform="translate(10.200000, 3.840000) scale(1, -1) translate(-10.200000, -3.840000) "></path>
                <path d="M20.4,10.8 C20.4,10.1971485 20.4,9.18179257 20.4,7.75393225 C20.4,5.61214176 15.8333044,3.87587752 10.2,3.87587752 C4.56669555,3.87587752 0,5.61214176 0,7.75393225 C0,8.43418185 0,9.44953777 0,10.8" id="Oval-Copy-13" transform="translate(10.200000, 7.337939) scale(1, -1) translate(-10.200000, -7.337939) "></path>
            </g>
            <g id="Group-16-Copy-4" transform="translate(0.000000, 8.400000)">
                <path d="M19.6706108,5.4 C20.1411234,4.98597242 20.4,4.53393151 20.4,4.06055042 C20.4,2.07232532 15.8333044,0.460550417 10.2,0.460550417 C4.56669555,0.460550417 0,2.07232532 0,4.06055042 C0,4.52353627 0.247631786,4.96610888 0.698699122,5.37266958" id="Oval-Copy-3" transform="translate(10.200000, 2.930275) scale(1, -1) translate(-10.200000, -2.930275) "></path>
                <path d="M20.4,8.4 C20.4,7.78482671 20.4,6.80793054 20.4,5.46931148 C20.4,3.4613829 15.8333044,1.83363518 10.2,1.83363518 C4.56669555,1.83363518 0,3.4613829 0,5.46931148 C0,6.10704549 0,7.08394166 0,8.4" id="Oval-Copy-13" transform="translate(10.200000, 5.116818) scale(1, -1) translate(-10.200000, -5.116818) "></path>
            </g>
        </g>
        <g id="Group-36" transform="translate(370.300000, 151.000000) scale(-1, 1) translate(-370.300000, -151.000000) translate(358.800000, 139.000000)" stroke="#000000" stroke-linecap="round" stroke-width="1.2">
            <g id="Group-16" transform="translate(1.200000, 0.000000)">
                <path d="M10.2,7.68 C15.8333044,7.68 20.4,5.96077344 20.4,3.84 C20.4,1.71922656 15.8333044,0 10.2,0 C4.56669555,0 0,1.71922656 0,3.84 C0,4.85036164 1.03649499,5.76958488 2.73101927,6.45518852" id="Oval-Copy-3" transform="translate(10.200000, 3.840000) scale(1, -1) translate(-10.200000, -3.840000) "></path>
                <path d="M20.4,10.8 C20.4,10.1971485 20.4,9.18179257 20.4,7.75393225 C20.4,5.61214176 15.8333044,3.87587752 10.2,3.87587752 C4.56669555,3.87587752 0,5.61214176 0,7.75393225 C0,8.43418185 0,9.44953777 0,10.8" id="Oval-Copy-13" transform="translate(10.200000, 7.337939) scale(1, -1) translate(-10.200000, -7.337939) "></path>
            </g>
            <g id="Group-16-Copy" transform="translate(0.000000, 8.200000)">
                <path d="M20.0745659,4.56689592 C20.2869795,4.27755601 20.4,3.97408974 20.4,3.66130675 C20.4,1.67308165 15.8333044,0.0613067533 10.2,0.0613067533 C4.56669555,0.0613067533 0,1.67308165 0,3.66130675 C0,4.1242926 0.185699864,5.16853547 1.38951743,5.6" id="Oval-Copy-3" transform="translate(10.200000, 2.830653) scale(1, -1) translate(-10.200000, -2.830653) "></path>
                <path d="M20.4,8.6 C20.4,7.98482671 20.4,7.00793054 20.4,5.66931148 C20.4,3.6613829 15.8333044,2.03363518 10.2,2.03363518 C4.56669555,2.03363518 0,3.6613829 0,5.66931148 C0,6.30704549 0,7.28394166 0,8.6" id="Oval-Copy-13" transform="translate(10.200000, 5.316818) scale(1, -1) translate(-10.200000, -5.316818) "></path>
            </g>
            <g id="Group-16-Copy-2" transform="translate(1.200000, 14.200000)">
                <path d="M18.9789912,5.6 C20.1751592,5.3110422 20.4,4.173059 20.4,3.69967791 C20.4,1.71145281 15.8333044,0.0996779091 10.2,0.0996779091 C4.56669555,0.0996779091 0,1.71145281 0,3.69967791 C0,3.99697963 0.102109417,4.28586408 0.294625866,4.562201" id="Oval-Copy-3" transform="translate(10.200000, 2.849839) scale(1, -1) translate(-10.200000, -2.849839) "></path>
                <path d="M20.4,8.6 C20.4,7.98482671 20.4,7.00793054 20.4,5.66931148 C20.4,3.6613829 15.8333044,2.03363518 10.2,2.03363518 C4.56669555,2.03363518 0,3.6613829 0,5.66931148 C0,6.30704549 0,7.28394166 0,8.6" id="Oval-Copy-13" transform="translate(10.200000, 5.316818) scale(1, -1) translate(-10.200000, -5.316818) "></path>
            </g>
        </g>
        <g id="Group-17-Copy-2" transform="translate(325.400000, 107.800000)" stroke="#000000" stroke-linecap="round" stroke-width="1.2">
            <g id="Group-37" transform="translate(26.400000, 6.000000)">
                <g id="Group-16-Copy-5">
                    <path d="M10.2,7.68 C15.8333044,7.68 20.4,5.96077344 20.4,3.84 C20.4,1.71922656 15.8333044,0 10.2,0 C4.56669555,0 0,1.71922656 0,3.84 C0,4.85036164 1.03649499,5.76958488 2.73101927,6.45518852" id="Oval-Copy-3" transform="translate(10.200000, 3.840000) scale(1, -1) translate(-10.200000, -3.840000) "></path>
                    <path d="M20.4,10.8 C20.4,10.1971485 20.4,9.18179257 20.4,7.75393225 C20.4,5.61214176 15.8333044,3.87587752 10.2,3.87587752 C4.56669555,3.87587752 0,5.61214176 0,7.75393225 C0,8.43418185 0,9.44953777 0,10.8" id="Oval-Copy-13" transform="translate(10.200000, 7.337939) scale(1, -1) translate(-10.200000, -7.337939) "></path>
                </g>
                <g id="Group-16-Copy-4" transform="translate(0.000000, 8.400000)">
                    <path d="M19.6706108,5.4 C20.1411234,4.98597242 20.4,4.53393151 20.4,4.06055042 C20.4,2.07232532 15.8333044,0.460550417 10.2,0.460550417 C4.56669555,0.460550417 0,2.07232532 0,4.06055042 C0,4.52353627 0.247631786,4.96610888 0.698699122,5.37266958" id="Oval-Copy-3" transform="translate(10.200000, 2.930275) scale(1, -1) translate(-10.200000, -2.930275) "></path>
                    <path d="M20.4,8.4 C20.4,7.78482671 20.4,6.80793054 20.4,5.46931148 C20.4,3.4613829 15.8333044,1.83363518 10.2,1.83363518 C4.56669555,1.83363518 0,3.4613829 0,5.46931148 C0,6.10704549 0,7.08394166 0,8.4" id="Oval-Copy-13" transform="translate(10.200000, 5.116818) scale(1, -1) translate(-10.200000, -5.116818) "></path>
                </g>
            </g>
            <g id="Group-36">
                <g id="Group-16" transform="translate(1.200000, 0.000000)">
                    <path d="M10.2,7.68 C15.8333044,7.68 20.4,5.96077344 20.4,3.84 C20.4,1.71922656 15.8333044,0 10.2,0 C4.56669555,0 0,1.71922656 0,3.84 C0,4.85036164 1.03649499,5.76958488 2.73101927,6.45518852" id="Oval-Copy-3" transform="translate(10.200000, 3.840000) scale(1, -1) translate(-10.200000, -3.840000) "></path>
                    <path d="M20.4,10.8 C20.4,10.1971485 20.4,9.18179257 20.4,7.75393225 C20.4,5.61214176 15.8333044,3.87587752 10.2,3.87587752 C4.56669555,3.87587752 0,5.61214176 0,7.75393225 C0,8.43418185 0,9.44953777 0,10.8" id="Oval-Copy-13" transform="translate(10.200000, 7.337939) scale(1, -1) translate(-10.200000, -7.337939) "></path>
                </g>
                <g id="Group-16-Copy" transform="translate(0.000000, 8.200000)">
                    <path d="M20.0745659,4.56689592 C20.2869795,4.27755601 20.4,3.97408974 20.4,3.66130675 C20.4,1.67308165 15.8333044,0.0613067533 10.2,0.0613067533 C4.56669555,0.0613067533 0,1.67308165 0,3.66130675 C0,4.1242926 0.185699864,5.16853547 1.38951743,5.6" id="Oval-Copy-3" transform="translate(10.200000, 2.830653) scale(1, -1) translate(-10.200000, -2.830653) "></path>
                    <path d="M20.4,8.6 C20.4,7.98482671 20.4,7.00793054 20.4,5.66931148 C20.4,3.6613829 15.8333044,2.03363518 10.2,2.03363518 C4.56669555,2.03363518 0,3.6613829 0,5.66931148 C0,6.30704549 0,7.28394166 0,8.6" id="Oval-Copy-13" transform="translate(10.200000, 5.316818) scale(1, -1) translate(-10.200000, -5.316818) "></path>
                </g>
                <g id="Group-16-Copy-2" transform="translate(1.200000, 14.200000)">
                    <path d="M18.9789912,5.6 C20.1751592,5.3110422 20.4,4.173059 20.4,3.69967791 C20.4,1.71145281 15.8333044,0.0996779091 10.2,0.0996779091 C4.56669555,0.0996779091 0,1.71145281 0,3.69967791 C0,3.99697963 0.102109417,4.28586408 0.294625866,4.562201" id="Oval-Copy-3" transform="translate(10.200000, 2.849839) scale(1, -1) translate(-10.200000, -2.849839) "></path>
                    <path d="M20.4,8.6 C20.4,7.98482671 20.4,7.00793054 20.4,5.66931148 C20.4,3.6613829 15.8333044,2.03363518 10.2,2.03363518 C4.56669555,2.03363518 0,3.6613829 0,5.66931148 C0,6.30704549 0,7.28394166 0,8.6" id="Oval-Copy-13" transform="translate(10.200000, 5.316818) scale(1, -1) translate(-10.200000, -5.316818) "></path>
                </g>
            </g>
        </g>
        <g id="Group-38" transform="translate(290.400000, 249.400000) scale(-1, 1) translate(-290.400000, -249.400000) translate(265.400000, 237.400000)" stroke="#000000" stroke-linecap="round" stroke-width="1.2">
            <g id="Group-37" transform="translate(28.400000, 6.000000)">
                <g id="Group-16-Copy-5">
                    <path d="M10.2,7.68 C15.8333044,7.68 20.4,5.96077344 20.4,3.84 C20.4,1.71922656 15.8333044,0 10.2,0 C4.56669555,0 0,1.71922656 0,3.84 C0,4.85036164 1.03649499,5.76958488 2.73101927,6.45518852" id="Oval-Copy-3" transform="translate(10.200000, 3.840000) scale(1, -1) translate(-10.200000, -3.840000) "></path>
                    <path d="M20.4,10.8 C20.4,10.1971485 20.4,9.18179257 20.4,7.75393225 C20.4,5.61214176 15.8333044,3.87587752 10.2,3.87587752 C4.56669555,3.87587752 0,5.61214176 0,7.75393225 C0,8.43418185 0,9.44953777 0,10.8" id="Oval-Copy-13" transform="translate(10.200000, 7.337939) scale(1, -1) translate(-10.200000, -7.337939) "></path>
                </g>
                <g id="Group-16-Copy-4" transform="translate(0.000000, 8.400000)">
                    <path d="M19.6706108,5.4 C20.1411234,4.98597242 20.4,4.53393151 20.4,4.06055042 C20.4,2.07232532 15.8333044,0.460550417 10.2,0.460550417 C4.56669555,0.460550417 0,2.07232532 0,4.06055042 C0,4.52353627 0.247631786,4.96610888 0.698699122,5.37266958" id="Oval-Copy-3" transform="translate(10.200000, 2.930275) scale(1, -1) translate(-10.200000, -2.930275) "></path>
                    <path d="M20.4,8.4 C20.4,7.78482671 20.4,6.80793054 20.4,5.46931148 C20.4,3.4613829 15.8333044,1.83363518 10.2,1.83363518 C4.56669555,1.83363518 0,3.4613829 0,5.46931148 C0,6.10704549 0,7.08394166 0,8.4" id="Oval-Copy-13" transform="translate(10.200000, 5.116818) scale(1, -1) translate(-10.200000, -5.116818) "></path>
                </g>
            </g>
            <g id="Group-36" transform="translate(12.100000, 12.000000) scale(-1, 1) translate(-12.100000, -12.000000) translate(0.600000, 0.000000)">
                <g id="Group-16" transform="translate(1.200000, 0.000000)">
                    <path d="M10.2,7.68 C15.8333044,7.68 20.4,5.96077344 20.4,3.84 C20.4,1.71922656 15.8333044,0 10.2,0 C4.56669555,0 0,1.71922656 0,3.84 C0,4.85036164 1.03649499,5.76958488 2.73101927,6.45518852" id="Oval-Copy-3" transform="translate(10.200000, 3.840000) scale(1, -1) translate(-10.200000, -3.840000) "></path>
                    <path d="M20.4,10.8 C20.4,10.1971485 20.4,9.18179257 20.4,7.75393225 C20.4,5.61214176 15.8333044,3.87587752 10.2,3.87587752 C4.56669555,3.87587752 0,5.61214176 0,7.75393225 C0,8.43418185 0,9.44953777 0,10.8" id="Oval-Copy-13" transform="translate(10.200000, 7.337939) scale(1, -1) translate(-10.200000, -7.337939) "></path>
                </g>
                <g id="Group-16-Copy" transform="translate(0.000000, 8.200000)">
                    <path d="M20.0745659,4.56689592 C20.2869795,4.27755601 20.4,3.97408974 20.4,3.66130675 C20.4,1.67308165 15.8333044,0.0613067533 10.2,0.0613067533 C4.56669555,0.0613067533 0,1.67308165 0,3.66130675 C0,4.1242926 0.185699864,5.16853547 1.38951743,5.6" id="Oval-Copy-3" transform="translate(10.200000, 2.830653) scale(1, -1) translate(-10.200000, -2.830653) "></path>
                    <path d="M20.4,8.6 C20.4,7.98482671 20.4,7.00793054 20.4,5.66931148 C20.4,3.6613829 15.8333044,2.03363518 10.2,2.03363518 C4.56669555,2.03363518 0,3.6613829 0,5.66931148 C0,6.30704549 0,7.28394166 0,8.6" id="Oval-Copy-13" transform="translate(10.200000, 5.316818) scale(1, -1) translate(-10.200000, -5.316818) "></path>
                </g>
                <g id="Group-16-Copy-2" transform="translate(1.200000, 14.200000)">
                    <path d="M18.9789912,5.6 C20.1751592,5.3110422 20.4,4.173059 20.4,3.69967791 C20.4,1.71145281 15.8333044,0.0996779091 10.2,0.0996779091 C4.56669555,0.0996779091 0,1.71145281 0,3.69967791 C0,3.99697963 0.102109417,4.28586408 0.294625866,4.562201" id="Oval-Copy-3" transform="translate(10.200000, 2.849839) scale(1, -1) translate(-10.200000, -2.849839) "></path>
                    <path d="M20.4,8.6 C20.4,7.98482671 20.4,7.00793054 20.4,5.66931148 C20.4,3.6613829 15.8333044,2.03363518 10.2,2.03363518 C4.56669555,2.03363518 0,3.6613829 0,5.66931148 C0,6.30704549 0,7.28394166 0,8.6" id="Oval-Copy-13" transform="translate(10.200000, 5.316818) scale(1, -1) translate(-10.200000, -5.316818) "></path>
                </g>
            </g>
        </g>
        <g id="Group-21-Copy-4" transform="translate(270.303708, 326.023686) scale(-1, 1) rotate(22.000000) translate(-270.303708, -326.023686) translate(256.803708, 312.023686)" stroke="#000000">
            <path d="M11.4644897,9.55394981 C9.14438133,13.5284112 8.04379246,17.1965781 8.1627231,20.5584506 C8.28165374,23.9203231 10.3790608,25.7419691 14.4549442,26.0233884 C23.5528181,25.9663786 27.6663878,23.6904688 26.7956532,19.1956592 C25.9249186,14.7008496 23.605771,11.4869464 19.8382105,9.55394981 L22.8578105,2.99237327 L19.9646403,4.47922141 C19.2682282,4.8371191 18.4349626,4.80265628 17.7704828,4.38847383 L17.7704828,4.38847383 C17.1150677,3.97994152 16.284001,3.98118276 15.6298091,4.39167104 L14.5305107,5.08145194 C13.8262803,5.52333812 12.9435179,5.56928243 12.1972197,5.20289057 L9.09986241,3.68225641 L11.4644897,9.55394981 Z" id="Path-6" stroke-width="1.2" stroke-linecap="round" stroke-linejoin="round"></path>
            <g id="Group-46" transform="translate(19.039839, 18.494499) scale(-1, 1) rotate(14.000000) translate(-19.039839, -18.494499) translate(15.539839, 13.994499)" stroke-linecap="square">
                <path d="M2.78722815,0.624709015 L2.31900112,4.00379069 C2.10912536,5.51841348 3.16683182,6.91639578 4.68145461,7.12627154 C5.23544158,7.20303549 5.79968853,7.11022358 6.29989925,6.86005664" id="Path-9" transform="translate(4.296180, 3.888593) scale(-1, 1) rotate(174.000000) translate(-4.296180, -3.888593) "></path>
                <path d="M6.63922131,7.36039504 L0.943051357,6.6379822" id="Path-9-Copy-5" transform="translate(3.791136, 6.999189) scale(-1, 1) rotate(174.000000) translate(-3.791136, -6.999189) "></path>
                <path d="M5.44749175,4.09303711 L1.1885276,3.66021517" id="Path-9-Copy-6" transform="translate(3.318010, 3.876626) scale(-1, 1) rotate(174.000000) translate(-3.318010, -3.876626) "></path>
            </g>
            <path d="M9.80501569,3.03953328 C8.29988193,3.94879509 6.89539115,4.16385247 5.59154333,3.68470542 C4.28769551,3.20555836 3.29593129,3.94111878 2.61625068,5.89138669 L6.03284104,11.3806816 C4.26035325,13.9908671 3.10724987,17.3973432 2.57353091,21.6001099 C2.03981194,25.8028765 4.7718344,27.5284812 10.7695983,26.7769238" id="Path-6-Copy" stroke-width="1.2" stroke-linecap="round" stroke-linejoin="round" transform="translate(6.638855, 14.993735) rotate(-10.000000) translate(-6.638855, -14.993735) "></path>
            <path d="M11.6054129,9.61800581 C13.991499,11.2055271 16.1509336,11.5833507 18.0837167,10.7514768" id="Path-7" stroke-width="1.2" stroke-linecap="round" stroke-linejoin="round"></path>
            <path d="M5.49908367,11.5048634 C6.28219557,11.9794249 7.23888112,12.028451 8.36914033,11.6519417" id="Path-7-Copy-3" stroke-width="1.2" stroke-linecap="round" stroke-linejoin="round"></path>
            <path d="M1.26191819,6.83139403 C1.72492724,7.13512781 2.79299468,7.28523784 4.46612052,7.28172412 L4.46612056,7.28174298 C4.66718475,7.28132073 4.8675051,7.30616676 5.06237358,7.35569715 L6.03690844,7.603398 C6.79420538,7.79588274 7.59779877,7.60765495 8.19083724,7.09887758 L9.80424717,5.71470691" id="Path-7-Copy-2" stroke-width="1.2" stroke-linecap="round" stroke-linejoin="round"></path>
            <path d="M9.05860344,3.57152298 C8.86731886,1.82139334 9.94103218,1.22105611 12.2797434,1.77051129 C15.7878102,2.59469406 16.4654686,-0.519047936 19.4026095,1.13690332" id="Path-7-Copy" stroke-width="1.2" stroke-linecap="round" stroke-linejoin="round"></path>
        </g>
        <path d="M201.8,399.4 L186.2,399.4" id="Path-3-Copy-27" stroke="#000000" stroke-width="1.2" stroke-linecap="round"></path>
        <path d="M408.2,399.4 L375.8,399.4" id="Path-3-Copy-58" stroke="#000000" stroke-width="1.2" stroke-linecap="round"></path>
        <path d="M359,399.4 L319.4,399.4" id="Path-3-Copy-57" stroke="#000000" stroke-width="1.2" stroke-linecap="round"></path>
        <path d="M300.2,399.4 L240.2,399.4" id="Path-3-Copy-61" stroke="#000000" stroke-width="1.2" stroke-linecap="round"></path>
        <path d="M253.4,404.2 L174.2,404.2" id="Path-3-Copy-32" stroke="#000000" stroke-width="1.2" stroke-linecap="round"></path>
        <path d="M434.6,404.2 L260.6,404.2" id="Path-3-Copy-56" stroke="#000000" stroke-width="1.2" stroke-linecap="round"></path>
        <g id="Group-22" transform="translate(350.400000, 304.600000)" stroke="#000000" stroke-linecap="round" stroke-width="1.2">
            <path d="M12.0438653,88.5912156 L9.96144549,68.6122069" id="Path-3-Copy-30"></path>
            <path id="Path-3-Copy-54" stroke-linejoin="round" d="M12.0438653 88.5912156 16.2758686 89.882938 17.2392049 95.0019891 18.2413951 96.4267583 15.1426302 96.4267583 12.0438653 92.508987z"></path>
            <path d="M16.2251291,89.5594212 L16.2251291,67.6855631" id="Path-3-Copy-48"></path>
            <path id="Path-3-Copy-51" stroke-linejoin="round" d="M11.4135863 7.8603911 12.4040371 2.85810808 11.671225 0.653595458 9.13888905 2.46384017 9.13888905 6.30849799"></path>
            <path id="Path-3-Copy-53" stroke-linejoin="round" d="M12.2313769 32.7200469 14.9844777 31.107753 13.1817878 45.1945538 16.961121 35.4295722 18.8984301 38.4728859 21.6908651 21.8049333 20.9610011 16.7196414 15.6746972 13.0386257 13.1817878 18.3407237 14.0133405 25.3251805z"></path>
            <path id="Path-3-Copy-52" stroke-linejoin="round" d="M23.5894474 7.48689594 22.6285349 4.23015591 21.4916766 7.80347562 22.6285349 9.7985555"></path>
            <path d="M20.8582359,86.6328848 L24.2,60" id="Path-3-Copy-49"></path>
            <path id="Path-3-Copy-55" stroke-linejoin="round" d="M18.3386593 96.4163243 20.8582359 96.4163243 19.824772 92.0375755 20.8582359 86.6328848 16.8155825 87.2740117"></path>
            <path d="M26.689594,61.313657 L29.3118389,64.2468912 C29.7535432,64.7409802 30.5121535,64.7834463 31.0062424,64.341742 C31.3376829,64.0454417 31.4781495,63.5901807 31.3712768,63.158643 L24.2,34.2019874 L28.1632259,18.574382 L24.2,7.14559132 L22.4730127,10.3504694 L24.2,18.574382 L20.9819989,25.7506732 M13.5132829,25.7955639 L11.3398629,18.4397831 L11.0119637,13.0626697 L11.8229867,8.20664582 L7.71695258,5.93450866 L6.22908873,11.9583662 L5.83342786,19.6961432 L8.60608173,39.3754862 L0.196665123,69.4501524 L24.2,60" id="Path-3-Copy-50" stroke-linejoin="round"></path>
        </g>
        <g id="Group-22-Copy" transform="translate(300.700000, 352.000000) scale(-1, 1) translate(-300.700000, -352.000000) translate(277.200000, 302.000000)" stroke="#000000" stroke-linecap="round" stroke-width="1.2">
            <path id="Path-3-Copy-30" stroke-linejoin="round" d="M12.2331613 92.2077684 5.35223635 90.405897 5.35223635 59.8619296"></path>
            <path id="Path-3-Copy-54" stroke-linejoin="round" d="M7.06963184 90.9110126 12.500891 92.337409 13.4392049 97.6019891 14.4413951 99.0267583 10.1729187 99.0267583 7.06963184 95.108987z"></path>
            <path d="M12.4251291,92.1594212 L11.4614792,66.10475" id="Path-3-Copy-48"></path>
            <path id="Path-3-Copy-51" stroke-linejoin="round" d="M7.17510589 7.69068653 8.60403709 3.05810808 7.65645805 0.0474313459 5.33888905 2.66384017 4.52634863 6.41007562"></path>
            <path d="M8.06239014,30.5533113 L11.5286027,27.2801523" id="Path-3-Copy-60" stroke-linejoin="round"></path>
            <path id="Path-3-Copy-53" stroke-linejoin="round" d="M15.3601235 27.8 19.5114831 25.3080216 21.1358506 20.7168721 20.7695934 16.3061281 17.3245293 17.4195363 19.5114831 14.4386257 13.1979259 14.4386257 10.5817878 20.0028153 11.4544455 27.3325255z"></path>
            <path id="Path-3-Copy-52" stroke-linejoin="round" d="M40.2528247 42.1425268 45.0089045 40.7410753 46.8204544 37.837855 40.8559855 39.0661537"></path>
            <path id="Path-3-Copy-49" stroke-linejoin="round" d="M12.3495468 90.8345134 18.9349076 90.8345134 19.7037502 76.0177706 20.4 62.6"></path>
            <path id="Path-3-Copy-55" stroke-linejoin="round" d="M13.4339415 97.6493732 21.2261588 97.6493732 17.4927714 94.3651062 17.4927714 91.0808392 12.9006249 91.0808392"></path>
            <path d="M20.505432,60.0867262 L22.1463995,58.2266552 L22.1463995,43.2479025 L29.4,45.3414757 L39.6552827,43.2479025 L41.0698288,38.41937 L29.4,39.9739039 L18.879462,30.5962253 M8.51328287,29.5955639 L6.33986286,21.0397831 L6.01196372,15.6626697 L8.02298671,8.40664582 L3.91695258,6.13450866 L1.22908873,14.5583662 L0.833427855,22.2961432 L3.58382278,38.6410929 L4.73403191,59.1834877 L17.582913,61.8954476" id="Path-3-Copy-50" stroke-linejoin="round"></path>
        </g>
        <g id="Group-22-Copy-2" transform="translate(207.800000, 314.200000)" stroke="#000000" stroke-linecap="round" stroke-width="1.2">
            <path id="Path-3-Copy-30" stroke-linejoin="round" d="M14.2242669 66.8574177 7.43316131 80.0077684 0.552236354 78.205897 5.34571886 65.1984934 1.65514509 55.4710654 2.41850739 43.8504672"></path>
            <path id="Path-3-Copy-54" stroke-linejoin="round" d="M2.26963184 78.7110126 7.70089099 80.137409 8.63920486 85.4019891 9.64139514 86.8267583 5.37291874 86.8267583 2.26963184 82.908987z"></path>
            <path d="M19.0882189,65.3092977 L9.08812606,55.9330444" id="Path-3-Copy-48"></path>
            <path id="Path-3-Copy-51" stroke-linejoin="round" d="M30.2664679 27.5279749 34.1312497 27.5279749 42.9534813 23.491948 41.1823259 20.8009929 33.2038752 22.9343871 22.3442873 21.2673855"></path>
            <path id="Path-3-Copy-60" stroke-linejoin="round" d="M18.5518268 14.8331246 21.3484052 16.5198537 23.0073057 15.3895834 24.7752166 12.0223941 25.8417186 10.7363997 24.6986011 4.13746415"></path>
            <path id="Path-3-Copy-53" stroke-linejoin="round" d="M20.0759426 6.32592806 23.358865 6.02524058 23.6111436 4.04080281 26.5361605 3.40539086 23.9004109 1.24136119 17.0161381 0 12.3521793 5.44626182 12.7161055 11.8717063 14.3407041 11.3016893"></path>
            <path id="Path-3-Copy-52" stroke-linejoin="round" d="M44.9490947 34.1032203 50.3560798 34.1032203 54.163715 31.4784837 45.6 30.6333774"></path>
            <path id="Path-3-Copy-62" stroke-linejoin="round" d="M42.9710657 22.7185047 49.0376857 21.2757719 45.0051757 19.4518632 41.640332 20.9211079"></path>
            <path id="Path-3-Copy-49" stroke-linejoin="round" d="M17.6511848 64.4090775 17.6511848 78.0135284 25.9622046 80.1047098 28.4766726 62.2647283 16.6437022 47.5093826"></path>
            <path id="Path-3-Copy-55" stroke-linejoin="round" d="M19.3545416 86.968534 26.3255339 86.968534 23.3927173 83.3880847 23.3927173 79.8076354"></path>
            <path d="M18.105432,44.2867262 L19.7463995,42.4266552 L22.2177314,32.5607913 L33,35.5414757 L44.4552827,34.6479025 L45.8698288,29.81937 L33,30.1739039 L20.079462,19.5962253 M13.243145,11.9410734 L4.39946689,33.0461063 L1.44160464,43.3453058 L15.182913,46.0954476" id="Path-3-Copy-50" stroke-linejoin="round"></path>
        </g>
    </g>
</svg>