<?xml version="1.0" encoding="UTF-8"?>
<svg width="333px" height="360px" vector-effect="non-scaling-stroke" viewBox="0 0 333 360" version="1.1" xmlns="http://www.w3.org/2000/svg" xmlns:xlink="http://www.w3.org/1999/xlink">
    <!-- Generator: Sketch 50 (54983) - http://www.bohemiancoding.com/sketch -->
    <title>Artboard 4 Copy</title>
    <desc>Created with Sketch.</desc>
    <defs></defs>
    <g id="Artboard-4-Copy" stroke="none" stroke-width="1" fill="none" fill-rule="evenodd">
        <g id="Group-2" transform="translate(-2.000000, 1.000000)">
            <g id="Group-21" transform="translate(212.266995, 153.435616)" stroke="#000000">
                <path d="M3.49772186,7.83074882 C1.59477582,11.0883553 0.692076079,14.0949122 0.789622641,16.8504196 C0.887169204,19.6059269 2.60745624,21.0990112 5.95048375,21.3296722 C13.4125331,21.282945 16.7864708,19.4175304 16.0722968,15.7334284 C15.3581229,12.0493265 13.4559649,9.41509992 10.3658229,7.83074882 L12.8424899,2.45265297 L10.4694755,3.67134829 C9.89825731,3.9647055 9.21493158,3.93645396 8.66987876,3.59694544 L8.66987876,3.59694544 C8.13225313,3.26206326 7.45072607,3.26308085 6.91410286,3.599567 L6.21559275,4.03756329 C5.51164551,4.47896891 4.62946673,4.52486627 3.88351386,4.15889503 L1.55826153,3.01810514 L3.49772186,7.83074882 Z" id="Path-6" stroke-linecap="round" stroke-linejoin="round"></path>
                <g id="Group-46" transform="translate(5.741379, 10.655251)" stroke-linecap="square">
                    <path d="M0.539838147,1.71020899 L3.43715914,2.22563723 C3.9809067,2.32236895 4.34328465,2.84158001 4.24655292,3.38532757 C4.17366464,3.7950466 3.85465246,4.11679846 3.44557169,4.19318765 L1.1027512,4.6306713 C0.559850682,4.73204915 0.201925838,5.25433997 0.303303688,5.79724049 C0.377465976,6.19439573 0.683328395,6.50790728 1.07853101,6.59185502 L3.55131827,7.11711695" id="Path-9" transform="translate(2.274157, 4.413663) scale(-1, 1) rotate(174.000000) translate(-2.274157, -4.413663) "></path>
                    <path d="M2.82045431,0.565293946 L1.74557892,8.03326798" id="Path-9-Copy-5" transform="translate(2.283017, 4.299281) scale(-1, 1) rotate(174.000000) translate(-2.283017, -4.299281) "></path>
                </g>
                <path d="M3.61330665,7.88325134 C5.57036739,9.18443884 7.34152925,9.49411622 8.92679223,8.81228346" id="Path-7" stroke-linecap="round" stroke-linejoin="round"></path>
                <path d="M1.52442104,2.92734417 C1.36753,1.49287719 2.24818649,1.00081997 4.1663905,1.4511725 C7.04369652,2.12670129 7.59950996,-0.425429701 10.0085443,0.931845418" id="Path-7-Copy" stroke-linecap="round" stroke-linejoin="round"></path>
            </g>
            <g id="Group-21-Copy-4" transform="translate(240.218674, 236.095225) scale(-1, 1) rotate(13.000000) translate(-240.218674, -236.095225) translate(228.718674, 224.595225)" stroke="#000000">
                <path d="M9.40314058,7.83074882 C7.50019454,11.0883553 6.5974948,14.0949122 6.69504136,16.8504196 C6.79258792,19.6059269 8.51287496,21.0990112 11.8559025,21.3296722 C19.3179518,21.282945 22.6918895,19.4175304 21.9777155,15.7334284 C21.2635416,12.0493265 19.3613836,9.41509992 16.2712417,7.83074882 L18.7479086,2.45265297 L16.3748942,3.67134829 C15.803676,3.9647055 15.1203503,3.93645396 14.5752975,3.59694544 L14.5752975,3.59694544 C14.0376718,3.26206326 13.3561448,3.26308085 12.8195216,3.599567 L12.1210115,4.03756329 C11.4170642,4.47896891 10.5348855,4.52486627 9.78893258,4.15889503 L7.46368025,3.01810514 L9.40314058,7.83074882 Z" id="Path-6" stroke-linecap="round" stroke-linejoin="round"></path>
                <g id="Group-46" transform="translate(16.076306, 15.535483) scale(-1, 1) rotate(6.000000) translate(-16.076306, -15.535483) translate(13.076306, 11.035483)" stroke-linecap="square">
                    <path d="M1.54115688,1.68504608 L4.23711618,1.86633866 C4.78815642,1.90339393 5.20482357,2.38013955 5.1677683,2.93117979 C5.13899878,3.35900457 4.84067753,3.7208714 4.4261949,3.83071618 L1.64350799,4.5681744 C1.10965249,4.70965496 0.791569765,5.25712302 0.933050334,5.79097851 C1.03053518,6.1588228 1.32835059,6.43945661 1.70133244,6.51493679 L4.55263701,7.09195404" id="Path-9" transform="translate(3.034748, 4.388500) scale(-1, 1) rotate(174.000000) translate(-3.034748, -4.388500) "></path>
                    <path d="M3.82045431,0.565293946 L2.74557892,8.03326798" id="Path-9-Copy-5" transform="translate(3.283017, 4.299281) scale(-1, 1) rotate(174.000000) translate(-3.283017, -4.299281) "></path>
                </g>
                <path d="M8.04204489,2.49130696 C6.80753863,3.2365695 5.65557944,3.41283799 4.58616731,3.02011243 C3.51675518,2.62738687 2.70331311,3.23027772 2.14584107,4.82878498 L4.94811839,9.32800155 C3.49432915,11.4674002 2.54855716,14.2594663 2.11080244,17.7041996 C1.67304772,21.148933 3.91384447,22.5632985 8.83319269,21.947296" id="Path-6-Copy" stroke-linecap="round" stroke-linejoin="round" transform="translate(5.445169, 12.289386) rotate(-10.000000) translate(-5.445169, -12.289386) "></path>
                <path d="M9.51872537,7.88325134 C11.4757861,9.18443884 13.246948,9.49411622 14.832211,8.81228346" id="Path-7" stroke-linecap="round" stroke-linejoin="round"></path>
                <path d="M4.51033217,9.42978532 C5.15263824,9.81875234 5.9373089,9.85893584 6.86434416,9.5503358" id="Path-7-Copy-3" stroke-linecap="round" stroke-linejoin="round"></path>
                <path d="M1.03502157,5.59924761 C1.41021826,5.84520777 2.26983058,5.96825959 3.61385851,5.96840307 L3.61385851,5.96840426 C3.81302078,5.96842552 4.01140597,5.99323735 4.20443874,6.04226751 L4.92435488,6.22512559 C5.5625209,6.38721921 6.23964905,6.22867628 6.7395207,5.80012227 L8.04141455,4.6839721" id="Path-7-Copy-2" stroke-linecap="round" stroke-linejoin="round"></path>
                <path d="M7.42983976,2.92734417 C7.27294872,1.49287719 8.15360521,1.00081997 10.0718092,1.4511725 C12.9491152,2.12670129 13.5049287,-0.425429701 15.913963,0.931845418" id="Path-7-Copy" stroke-linecap="round" stroke-linejoin="round"></path>
            </g>
            <g id="Group-21-Copy-5" transform="translate(110.519561, 236.244530) rotate(4.000000) translate(-110.519561, -236.244530) translate(102.019561, 225.244530)" stroke="#000000">
                <path d="M3.49772186,7.83074882 C1.59477582,11.0883553 0.692076079,14.0949122 0.789622641,16.8504196 C0.887169204,19.6059269 2.60745624,21.0990112 5.95048375,21.3296722 C13.4125331,21.282945 16.7864708,19.4175304 16.0722968,15.7334284 C15.3581229,12.0493265 13.4559649,9.41509992 10.3658229,7.83074882 L12.8424899,2.45265297 L10.4694755,3.67134829 C9.89825731,3.9647055 9.21493158,3.93645396 8.66987876,3.59694544 L8.66987876,3.59694544 C8.13225313,3.26206326 7.45072607,3.26308085 6.91410286,3.599567 L6.21559275,4.03756329 C5.51164551,4.47896891 4.62946673,4.52486627 3.88351386,4.15889503 L1.55826153,3.01810514 L3.49772186,7.83074882 Z" id="Path-6" stroke-linecap="round" stroke-linejoin="round"></path>
                <g id="Group" transform="translate(7.098282, 15.495584) rotate(10.000000) translate(-7.098282, -15.495584) translate(3.598282, 12.495584)">
                    <ellipse id="Oval-Copy-3" cx="2.87068966" cy="2.86872146" rx="2.87068966" ry="2.86872146"></ellipse>
                    <path d="M3.99194976,2.16504977 L4.23105938,2.38958106 C4.90893792,3.02612986 4.94930282,4.08930939 4.32164081,4.77542461 L4.21638247,4.8904855 C3.63599314,5.5249256 3.63901099,6.49839794 4.22332275,7.12922737" id="Path-9" stroke-linecap="square" transform="translate(4.275120, 4.647139) rotate(110.000000) translate(-4.275120, -4.647139) "></path>
                </g>
                <path d="M3.61330665,7.88325134 C5.57036739,9.18443884 7.34152925,9.49411622 8.92679223,8.81228346" id="Path-7" stroke-linecap="round" stroke-linejoin="round"></path>
                <path d="M1.52442104,2.92734417 C1.36753,1.49287719 2.24818649,1.00081997 4.1663905,1.4511725 C7.04369652,2.12670129 7.59950996,-0.425429701 10.0085443,0.931845418" id="Path-7-Copy" stroke-linecap="round" stroke-linejoin="round"></path>
            </g>
            <path d="M128.820423,60.2866656 L128.531317,60.2866656 C127.072499,60.2866656 125.889893,59.1040601 125.889893,57.6452424 L125.889893,57.6452424 C125.889893,56.1864247 127.072499,55.0038193 128.531317,55.0038193 L129.708986,55.0038193 C131.818213,55.0038193 133.528079,56.7136853 133.528079,58.8229119 L133.528079,110.247149" id="Combined-Shape" stroke="#000000" stroke-linecap="round" stroke-linejoin="round"></path>
            <path d="M125.867713,63.2373505 L125.867713,63.2373505 C123.162069,63.2373505 120.968711,61.0439925 120.968711,58.3383484 L120.968711,57.1534616 C120.968711,53.7934225 123.692561,51.0695727 127.0526,51.0695727 L130.049261,51.0695727 C134.688453,51.0695727 138.449261,54.8303808 138.449261,59.4695727 L138.449261,110.247149" id="Combined-Shape-Copy-2" stroke="#000000" stroke-linecap="round" stroke-linejoin="round"></path>
            <path d="M191.575849,60.3622984 L191.286743,60.3622984 C189.827926,60.3622984 188.64532,59.1796929 188.64532,57.7208752 L188.64532,57.7208752 C188.64532,56.2620575 189.827926,55.0794521 191.286743,55.0794521 L192.464413,55.0794521 C194.57364,55.0794521 196.283506,56.7893181 196.283506,58.8985447 L196.283506,110.322782" id="Combined-Shape-Copy-4" stroke="#000000" stroke-linecap="round" stroke-linejoin="round" transform="translate(192.464413, 82.701117) scale(-1, 1) translate(-192.464413, -82.701117) "></path>
            <path d="M188.62314,63.3129833 L188.62314,63.3129833 C185.917496,63.3129833 183.724138,61.1196253 183.724138,58.4139812 L183.724138,57.2290944 C183.724138,53.8690553 186.447988,51.1452055 189.808027,51.1452055 L192.804688,51.1452055 C197.44388,51.1452055 201.204688,54.9060136 201.204688,59.5452055 L201.204688,110.322782" id="Combined-Shape-Copy-3" stroke="#000000" stroke-linecap="round" stroke-linejoin="round" transform="translate(192.464413, 80.733994) scale(-1, 1) translate(-192.464413, -80.733994) "></path>
            <path id="Rectangle-4-Copy-17" stroke="#000000" stroke-linecap="round" stroke-linejoin="round" d="M196.666052 47.2109589 202.424631 47.2109589 202.424631 42.2931507 117.780296 42.2931507 117.780296 47.2109589 192.336267 47.2109589"></path>
            <g id="Group-14" transform="translate(144.354680, 59.997260)" stroke="#000000" stroke-linecap="round">
                <path d="M5.42660099,9.03813402 C7.4246203,9.03813402 9.04433498,7.41952985 9.04433498,5.42288041 C9.04433498,3.42623098 7.4246203,1.8076268 5.42660099,1.8076268 C3.42858167,1.8076268 1.808867,3.42623098 1.808867,5.42288041 C1.808867,6.37410791 2.17649083,7.23953112 2.77750437,7.88500795" id="Oval-Copy-3" transform="translate(5.426601, 5.422880) rotate(-150.000000) translate(-5.426601, -5.422880) "></path>
                <path d="M17.1842365,9.03813402 C19.1822558,9.03813402 20.8019704,7.41952985 20.8019704,5.42288041 C20.8019704,3.42623098 19.1822558,1.8076268 17.1842365,1.8076268 C15.1862171,1.8076268 13.5665025,3.42623098 13.5665025,5.42288041 C13.5665025,6.37410791 13.9341263,7.23953112 14.5351398,7.88500795" id="Oval-Copy-10" transform="translate(17.184236, 5.422880) rotate(-150.000000) translate(-17.184236, -5.422880) "></path>
                <path d="M28.0374384,9.03813402 C30.0354577,9.03813402 31.6551724,7.41952985 31.6551724,5.42288041 C31.6551724,3.42623098 30.0354577,1.8076268 28.0374384,1.8076268 C26.0394191,1.8076268 24.4197044,3.42623098 24.4197044,5.42288041 C24.4197044,6.37410791 24.7873283,7.23953112 25.3883418,7.88500795" id="Oval-Copy-11" transform="translate(28.037438, 5.422880) rotate(-150.000000) translate(-28.037438, -5.422880) "></path>
            </g>
            <path d="M170.170643,110.158904 L170.170643,88.5201084 C170.170643,83.6278993 166.204724,79.6619803 161.312515,79.6619803 L161.312515,79.6619803 C156.420306,79.6619803 152.454387,83.6278993 152.454387,88.5201084 L152.454387,110.158904" id="Rectangle-4-Copy-33" stroke="#000000" stroke-linecap="round" stroke-linejoin="round"></path>
            <path d="M94.1185232,129.830137 L227.030542,129.830137" id="Path-3-Copy-8" stroke="#000000" stroke-linecap="round"></path>
            <path d="M299.239952,110.158904 L224.077833,110.158904" id="Path-3-Copy-34" stroke="#000000" stroke-linecap="round"></path>
            <path d="M17.7483265,112.126027 L0.152643121,112.126027" id="Path-3-Copy-59" stroke="#000000" stroke-linecap="round"></path>
            <path d="M250.586775,104.257534 L279.834546,104.257534" id="Path-3-Copy-35" stroke="#000000" stroke-linecap="round"></path>
            <path d="M233.704091,172.465936 L314.94307,172.465936 C324.822172,172.465936 332.830767,164.462831 332.830767,154.590502 C332.830767,144.701711 324.838776,136.669481 314.943361,136.613036 L160.401948,135.731507" id="Path-3-Copy-33" stroke="#000000" stroke-linecap="round"></path>
            <path d="M162.846779,172.123288 L187.225543,172.690823 C197.16177,172.922138 205.096134,181.043363 205.096134,190.982283 L205.096134,190.982283 C205.096134,200.854612 197.09303,208.857717 187.220701,208.857717 L105.969458,208.857717" id="Path-3-Copy-42" stroke="#000000" stroke-linecap="round"  class="noDraw" stroke-dasharray="4.8" transform="translate(155.532796, 190.490502) scale(-1, -1) translate(-155.532796, -190.490502) "></path>
            <path d="M96.4786091,243.923288 L96.4786091,274.944829 C96.4786091,291.513372 83.0471516,304.944829 66.4786091,304.944829 L24.2778325,304.944829" id="Path-3-Copy-46" stroke="#000000" stroke-linecap="round"  class="noDraw" stroke-dasharray="4.8" transform="translate(60.378221, 274.434059) scale(-1, -1) translate(-60.378221, -274.434059) "></path>
            <path d="M24.2778325,309.494064 L24.2778325,348.529036" id="Path-3-Copy-47" stroke="#000000" stroke-linecap="round" transform="translate(24.277833, 329.011550) scale(-1, -1) translate(-24.277833, -329.011550) "></path>
            <ellipse id="Oval-4" fill="#7813FE" cx="24.2778325" cy="355.721461" rx="2.95270936" ry="2.95068493"></ellipse>
            <path d="M255.527531,245.249497 L278.742427,245.249497 C288.62153,245.249497 296.630125,237.246393 296.630125,227.374064 C296.630125,217.471193 288.652541,209.414013 278.743434,209.308909 L203.900985,208.515068" id="Path-3-Copy-43" stroke="#000000" stroke-linecap="round"  class="noDraw" stroke-dasharray="4.8"></path>
            <path d="M225.31885,243.923288 L203.783317,243.923288" id="Path-3-Copy-44" stroke="#000000" stroke-linecap="round"  class="noDraw" stroke-dasharray="4.8" transform="translate(214.551083, 243.923288) scale(-1, -1) translate(-214.551083, -243.923288) "></path>
            <path d="M174.138554,243.923288 L124.060164,243.923288" id="Path-3-Copy-45" stroke="#000000" stroke-linecap="round"  class="noDraw" stroke-dasharray="4.8" transform="translate(149.099359, 243.923288) scale(-1, -1) translate(-149.099359, -243.923288) "></path>
            <path d="M162.846779,172.123288 L187.225543,172.690823 C197.16177,172.922138 205.096134,181.043363 205.096134,190.982283 L205.096134,190.982283 C205.096134,200.854612 197.09303,208.857717 187.220701,208.857717 L105.969458,208.857717" id="Path-3-Copy-67" class="reverse" stroke="#FFFFFF" stroke-width="2" stroke-linecap="round" transform="translate(155.532796, 190.490502) scale(-1, -1) translate(-155.532796, -190.490502) "></path>
            <path d="M96.4786091,243.923288 L96.4786091,274.944829 C96.4786091,291.513372 83.0471516,304.944829 66.4786091,304.944829 L24.2778325,304.944829" id="Path-3-Copy-66" class="reverse" stroke="#FFFFFF" stroke-width="2" stroke-linecap="round" transform="translate(60.378221, 274.434059) scale(-1, -1) translate(-60.378221, -274.434059) "></path>
            <path d="M255.527531,245.249497 L278.742427,245.249497 C288.62153,245.249497 296.630125,237.246393 296.630125,227.374064 C296.630125,217.471193 288.652541,209.414013 278.743434,209.308909 L203.900985,208.515068" id="Path-3-Copy-65" class="reverse" stroke="#FFFFFF" stroke-width="2" stroke-linecap="round"></path>
            <path d="M225.31885,243.923288 L203.783317,243.923288" id="Path-3-Copy-64" class="reverse" stroke="#FFFFFF" stroke-width="2" stroke-linecap="round" transform="translate(214.551083, 243.923288) scale(-1, -1) translate(-214.551083, -243.923288) "></path>
            <path d="M174.138554,243.923288 L124.060164,243.923288" id="Path-3-Copy-63" class="reverse" stroke="#FFFFFF" stroke-width="2" stroke-linecap="round" transform="translate(149.099359, 243.923288) scale(-1, -1) translate(-149.099359, -243.923288) "></path>
            <path d="M154.573234,135.731507 L75.1881589,135.731507" id="Path-3-Copy-32" stroke="#000000" stroke-linecap="round"></path>
            <path d="M161.0867,110.033084 L161.0867,87.0303673" id="Path-3-Copy-24" stroke="#000000" stroke-linecap="round"></path>
            <path d="M193.566502,110.539703 L193.566502,78.4128054" id="Path-3-Copy-28" stroke="#000000" stroke-linecap="round"></path>
            <path d="M128.606897,110.539703 L128.606897,78.4128054" id="Path-3-Copy-30" stroke="#000000" stroke-linecap="round"></path>
            <path d="M108.922167,98.7294003 L108.922167,33.5669453" id="Path-3-Copy-36" stroke="#000000" stroke-linecap="round"></path>
            <path d="M97.11133,97.7534021 L97.11133,25.1814942" id="Path-3-Copy-37" stroke="#000000" stroke-linecap="round"></path>
            <path d="M198.487685,110.539703 L198.487685,96.2809415" id="Path-3-Copy-29" stroke="#000000" stroke-linecap="round"></path>
            <path d="M123.685714,110.539703 L123.685714,96.2809415" id="Path-3-Copy-31" stroke="#000000" stroke-linecap="round"></path>
            <path d="M163.055172,99.2877 L163.055172,95.3620701" id="Path-3-Copy-25" stroke="#000000" stroke-linecap="round"></path>
            <path d="M159.118227,99.2877 L159.118227,95.3620701" id="Path-3-Copy-26" stroke="#000000" stroke-linecap="round"></path>
            <path id="Rectangle-5" stroke="#000000" stroke-linecap="round" stroke-linejoin="round" d="M110.89064 120.814155 110.89064 116.060274 213.251232 116.060274 213.251232 119.174886"></path>
            <path id="Rectangle-5-Copy-2" stroke="#000000" stroke-linecap="round" stroke-linejoin="round" transform="translate(70.649835, 109.512470) scale(1, -1) translate(-70.649835, -109.512470) " d="M118.006074 114.767406 23.2935961 114.767406 23.2935961 104.257534 101.73255 104.257534"></path>
            <path d="M93.0918264,120.978082 L13.3473361,120.978082" id="Rectangle-5-Copy-3" stroke="#000000" stroke-linecap="round" stroke-linejoin="round" transform="translate(53.219581, 120.978082) scale(1, -1) translate(-53.219581, -120.978082) "></path>
            <rect id="Rectangle-5-Copy" stroke="#000000" stroke-linecap="round" stroke-linejoin="round" transform="translate(162.070936, 122.945205) scale(1, -1) translate(-162.070936, -122.945205) " x="105.969458" y="120.978082" width="112.202956" height="3.93424658"></rect>
            <path id="Rectangle-4-Copy-30" stroke="#000000" stroke-linecap="round" stroke-linejoin="round" transform="translate(160.102463, 39.834247) scale(-1, -1) translate(-160.102463, -39.834247) " d="M192.414472 42.2931507 197.503448 42.2931507 197.503448 37.3753425 122.701478 37.3753425 122.701478 42.2931507 188.58815 42.2931507"></path>
            <g id="Group-19" transform="translate(24.277833, 0.000000)" stroke="#000000" stroke-linecap="round" stroke-linejoin="round">
                <path id="Rectangle-4-Copy-41" transform="translate(48.719704, 10.819178) scale(-1, -1) translate(-48.719704, -10.819178) " d="M81.3679386 14.7534247 97.4394089 14.7534247 97.4394089 6.88493151 0 6.88493151 0 14.7534247 73.5374105 14.7534247"></path>
                <path id="Rectangle-4-Copy-40" d="M92.5182266 3.93424658 92.5182266 0 5.90541872 0 5.90541872 3.93424658"></path>
            </g>
            <path id="Rectangle-4-Copy-34" stroke="#000000" stroke-linecap="round" stroke-linejoin="round" transform="translate(103.016749, 20.654795) scale(-1, 1) translate(-103.016749, -20.654795) " d="M107.469935 22.6219178 111.874877 22.6219178 111.874877 18.6876712 94.1586207 18.6876712 94.1586207 22.6219178 101.867795 22.6219178"></path>
            <path id="Rectangle-4-Copy-37" stroke="#000000" stroke-linecap="round" stroke-linejoin="round" d="M110.95075 101.306849 113.84335 101.306849 113.84335 99.339726 91.2059113 99.339726 91.2059113 101.306849 108.03038 101.306849"></path>
            <path id="Rectangle-4-Copy-38" stroke="#000000" stroke-linecap="round" stroke-linejoin="round" d="M77.0082256 101.306849 84.3162562 101.306849 84.3162562 99.339726 61.6788177 99.339726 61.6788177 101.306849"></path>
            <path id="Rectangle-4-Copy-39" stroke="#000000" stroke-linecap="round" stroke-linejoin="round" d="M40.4686188 101.306849 54.7891626 101.306849 54.7891626 99.339726 32.1517241 99.339726 32.1517241 101.306849 36.5798702 101.306849"></path>
            <path d="M79.3950739,97.7534021 L79.3950739,24.3132562" id="Path-3-Copy-39" stroke="#000000" stroke-linecap="round"></path>
            <path d="M67.5842365,97.7534021 L67.5842365,24.3132562" id="Path-3-Copy-38" stroke="#000000" stroke-linecap="round"></path>
            <path id="Rectangle-4-Copy-35" stroke="#000000" stroke-linecap="round" stroke-linejoin="round" transform="translate(73.489655, 20.654795) scale(-1, -1) translate(-73.489655, -20.654795) " d="M81.1424993 22.6219178 82.3477833 22.6219178 82.3477833 18.6876712 64.6315271 18.6876712 64.6315271 22.6219178 77.7985023 22.6219178"></path>
            <path d="M76.4423645,36.8806798 L76.4423645,22.6219178" id="Path-3-Copy-31" stroke="#000000" stroke-linecap="round"></path>
            <path d="M49.8679803,97.7534021 L49.8679803,24.3132562" id="Path-3-Copy-41" stroke="#000000" stroke-linecap="round"></path>
            <path d="M41.9940887,98.8450633 L41.9940887,62.3906206" id="Path-3-Copy-31" stroke="#000000" stroke-linecap="round"></path>
            <path d="M38.0571429,98.8608942 L38.0571429,24.3132562" id="Path-3-Copy-40" stroke="#000000" stroke-linecap="round"></path>
            <path id="Rectangle-4-Copy-36" stroke="#000000" stroke-linecap="round" stroke-linejoin="round" transform="translate(43.962562, 20.654795) scale(-1, -1) translate(-43.962562, -20.654795) " d="M51.6154057 22.6219178 52.8206897 22.6219178 52.8206897 18.6876712 35.1044335 18.6876712 35.1044335 22.6219178 48.2714087 22.6219178"></path>
            <g id="Group-20-Copy-2" transform="translate(180.771429, 233.104110)" stroke="#000000" stroke-linecap="round">
                <g id="Group-16-Copy-5">
                    <path d="M8.36600985,5.90136986 C12.9864295,5.90136986 16.7320197,4.58030322 16.7320197,2.95068493 C16.7320197,1.32106664 12.9864295,0 8.36600985,0 C3.74559019,0 0,1.32106664 0,2.95068493 C0,3.72705443 0.850130125,4.43339249 2.23997393,4.96021549" id="Oval-Copy-3" transform="translate(8.366010, 2.950685) scale(1, -1) translate(-8.366010, -2.950685) "></path>
                    <path d="M16.7320197,8.85205479 C16.7320197,8.36466968 16.7320197,7.51143344 16.7320197,6.29234607 C16.7320197,4.46371502 12.9864295,2.98131666 8.36600985,2.98131666 C3.74559019,2.98131666 0,4.46371502 0,6.29234607 C0,6.87313377 0,7.72637001 0,8.85205479" id="Oval-Copy-13" transform="translate(8.366010, 5.916686) scale(1, -1) translate(-8.366010, -5.916686) "></path>
                </g>
                <g id="Group-16-Copy-4" transform="translate(0.000000, 6.884932)">
                    <path d="M16.1337768,4.4260274 C16.5196899,4.08667602 16.7320197,3.71616761 16.7320197,3.32816804 C16.7320197,1.69854975 12.9864295,0.377483104 8.36600985,0.377483104 C3.74559019,0.377483104 0,1.69854975 0,3.32816804 C0,3.70764731 0.203106859,4.07039518 0.573070955,4.40362644" id="Oval-Copy-3" transform="translate(8.366010, 2.401755) scale(1, -1) translate(-8.366010, -2.401755) "></path>
                    <path d="M16.7320197,6.88493151 C16.7320197,6.38071413 16.7320197,5.58001612 16.7320197,4.48283749 C16.7320197,2.83706955 12.9864295,1.50291102 8.36600985,1.50291102 C3.74559019,1.50291102 0,2.83706955 0,4.48283749 C0,5.00554642 0,5.80624442 0,6.88493151" id="Oval-Copy-13" transform="translate(8.366010, 4.193921) scale(1, -1) translate(-8.366010, -4.193921) "></path>
                </g>
            </g>
            <g id="Group-17" transform="translate(276.242365, 121.961644)" stroke="#000000" stroke-linecap="round">
                <g id="Group-16-Copy-3">
                    <path d="M8.36600985,6.29479452 C12.9864295,6.29479452 16.7320197,4.88565677 16.7320197,3.14739726 C16.7320197,1.40913775 12.9864295,0 8.36600985,0 C3.74559019,0 0,1.40913775 0,3.14739726 C0,3.97552472 0.850130125,4.72895199 2.23997393,5.29089652" id="Oval-Copy-3" transform="translate(8.366010, 3.147397) scale(1, -1) translate(-8.366010, -3.147397) "></path>
                    <path d="M16.7320197,8.85205479 C16.7320197,8.35793677 16.7320197,7.52571583 16.7320197,6.35539196 C16.7320197,4.59990615 12.9864295,3.17680372 8.36600985,3.17680372 C3.74559019,3.17680372 0,4.59990615 0,6.35539196 C0,6.91294814 0,7.74516909 0,8.85205479" id="Oval-Copy-13" transform="translate(8.366010, 6.014429) scale(1, -1) translate(-8.366010, -6.014429) "></path>
                </g>
            </g>
            <g id="Group-37" transform="translate(255.573399, 118.027397)" stroke="#000000" stroke-linecap="round">
                <g id="Group-16-Copy-5">
                    <path d="M8.36600985,6.29479452 C12.9864295,6.29479452 16.7320197,4.88565677 16.7320197,3.14739726 C16.7320197,1.40913775 12.9864295,0 8.36600985,0 C3.74559019,0 0,1.40913775 0,3.14739726 C0,3.97552472 0.850130125,4.72895199 2.23997393,5.29089652" id="Oval-Copy-3" transform="translate(8.366010, 3.147397) scale(1, -1) translate(-8.366010, -3.147397) "></path>
                    <path d="M16.7320197,8.85205479 C16.7320197,8.35793677 16.7320197,7.52571583 16.7320197,6.35539196 C16.7320197,4.59990615 12.9864295,3.17680372 8.36600985,3.17680372 C3.74559019,3.17680372 0,4.59990615 0,6.35539196 C0,6.91294814 0,7.74516909 0,8.85205479" id="Oval-Copy-13" transform="translate(8.366010, 6.014429) scale(1, -1) translate(-8.366010, -6.014429) "></path>
                </g>
                <g id="Group-16-Copy-4" transform="translate(0.000000, 6.884932)">
                    <path d="M16.1337768,4.4260274 C16.5196899,4.08667602 16.7320197,3.71616761 16.7320197,3.32816804 C16.7320197,1.69854975 12.9864295,0.377483104 8.36600985,0.377483104 C3.74559019,0.377483104 0,1.69854975 0,3.32816804 C0,3.70764731 0.203106859,4.07039518 0.573070955,4.40362644" id="Oval-Copy-3" transform="translate(8.366010, 2.401755) scale(1, -1) translate(-8.366010, -2.401755) "></path>
                    <path d="M16.7320197,6.88493151 C16.7320197,6.38071413 16.7320197,5.58001612 16.7320197,4.48283749 C16.7320197,2.83706955 12.9864295,1.50291102 8.36600985,1.50291102 C3.74559019,1.50291102 0,2.83706955 0,4.48283749 C0,5.00554642 0,5.80624442 0,6.88493151" id="Oval-Copy-13" transform="translate(8.366010, 4.193921) scale(1, -1) translate(-8.366010, -4.193921) "></path>
                </g>
            </g>
            <g id="Group-36" transform="translate(242.636453, 123.109589) scale(-1, 1) translate(-242.636453, -123.109589) translate(233.636453, 113.109589)" stroke="#000000" stroke-linecap="round">
                <g id="Group-16" transform="translate(0.984236, 0.000000)">
                    <path d="M8.36600985,6.29479452 C12.9864295,6.29479452 16.7320197,4.88565677 16.7320197,3.14739726 C16.7320197,1.40913775 12.9864295,0 8.36600985,0 C3.74559019,0 0,1.40913775 0,3.14739726 C0,3.97552472 0.850130125,4.72895199 2.23997393,5.29089652" id="Oval-Copy-3" transform="translate(8.366010, 3.147397) scale(1, -1) translate(-8.366010, -3.147397) "></path>
                    <path d="M16.7320197,8.85205479 C16.7320197,8.35793677 16.7320197,7.52571583 16.7320197,6.35539196 C16.7320197,4.59990615 12.9864295,3.17680372 8.36600985,3.17680372 C3.74559019,3.17680372 0,4.59990615 0,6.35539196 C0,6.91294814 0,7.74516909 0,8.85205479" id="Oval-Copy-13" transform="translate(8.366010, 6.014429) scale(1, -1) translate(-8.366010, -6.014429) "></path>
                </g>
                <g id="Group-16-Copy" transform="translate(0.000000, 6.721005)">
                    <path d="M16.4650996,3.74318638 C16.6393206,3.50603335 16.7320197,3.25730186 16.7320197,3.00093407 C16.7320197,1.37131578 12.9864295,0.0502491425 8.36600985,0.0502491425 C3.74559019,0.0502491425 0,1.37131578 0,3.00093407 C0,3.38041334 0.15231048,4.23631103 1.13967809,4.58995434" id="Oval-Copy-3" transform="translate(8.366010, 2.320102) scale(1, -1) translate(-8.366010, -2.320102) "></path>
                    <path d="M16.7320197,7.04885845 C16.7320197,6.54464107 16.7320197,5.74394306 16.7320197,4.64676443 C16.7320197,3.00099649 12.9864295,1.66683796 8.36600985,1.66683796 C3.74559019,1.66683796 0,3.00099649 0,4.64676443 C0,5.16947336 0,5.97017136 0,7.04885845" id="Oval-Copy-13" transform="translate(8.366010, 4.357848) scale(1, -1) translate(-8.366010, -4.357848) "></path>
                </g>
                <g id="Group-16-Copy-2" transform="translate(0.984236, 11.638813)">
                    <path d="M15.5665125,4.58995434 C16.5476059,4.35311449 16.7320197,3.42038398 16.7320197,3.0323844 C16.7320197,1.40276612 12.9864295,0.0816994734 8.36600985,0.0816994734 C3.74559019,0.0816994734 0,1.40276612 0,3.0323844 C0,3.27606321 0.0837498422,3.51284293 0.241651264,3.73933827" id="Oval-Copy-3" transform="translate(8.366010, 2.335827) scale(1, -1) translate(-8.366010, -2.335827) "></path>
                    <path d="M16.7320197,7.04885845 C16.7320197,6.54464107 16.7320197,5.74394306 16.7320197,4.64676443 C16.7320197,3.00099649 12.9864295,1.66683796 8.36600985,1.66683796 C3.74559019,1.66683796 0,3.00099649 0,4.64676443 C0,5.16947336 0,5.97017136 0,7.04885845" id="Oval-Copy-13" transform="translate(8.366010, 4.357848) scale(1, -1) translate(-8.366010, -4.357848) "></path>
                </g>
            </g>
            <g id="Group-17-Copy-2" transform="translate(205.377340, 87.536986)" stroke="#000000" stroke-linecap="round">
                <g id="Group-37" transform="translate(21.653202, 4.917808)">
                    <g id="Group-16-Copy-5">
                        <path d="M8.36600985,6.29479452 C12.9864295,6.29479452 16.7320197,4.88565677 16.7320197,3.14739726 C16.7320197,1.40913775 12.9864295,0 8.36600985,0 C3.74559019,0 0,1.40913775 0,3.14739726 C0,3.97552472 0.850130125,4.72895199 2.23997393,5.29089652" id="Oval-Copy-3" transform="translate(8.366010, 3.147397) scale(1, -1) translate(-8.366010, -3.147397) "></path>
                        <path d="M16.7320197,8.85205479 C16.7320197,8.35793677 16.7320197,7.52571583 16.7320197,6.35539196 C16.7320197,4.59990615 12.9864295,3.17680372 8.36600985,3.17680372 C3.74559019,3.17680372 0,4.59990615 0,6.35539196 C0,6.91294814 0,7.74516909 0,8.85205479" id="Oval-Copy-13" transform="translate(8.366010, 6.014429) scale(1, -1) translate(-8.366010, -6.014429) "></path>
                    </g>
                    <g id="Group-16-Copy-4" transform="translate(0.000000, 6.884932)">
                        <path d="M16.1337768,4.4260274 C16.5196899,4.08667602 16.7320197,3.71616761 16.7320197,3.32816804 C16.7320197,1.69854975 12.9864295,0.377483104 8.36600985,0.377483104 C3.74559019,0.377483104 0,1.69854975 0,3.32816804 C0,3.70764731 0.203106859,4.07039518 0.573070955,4.40362644" id="Oval-Copy-3" transform="translate(8.366010, 2.401755) scale(1, -1) translate(-8.366010, -2.401755) "></path>
                        <path d="M16.7320197,6.88493151 C16.7320197,6.38071413 16.7320197,5.58001612 16.7320197,4.48283749 C16.7320197,2.83706955 12.9864295,1.50291102 8.36600985,1.50291102 C3.74559019,1.50291102 0,2.83706955 0,4.48283749 C0,5.00554642 0,5.80624442 0,6.88493151" id="Oval-Copy-13" transform="translate(8.366010, 4.193921) scale(1, -1) translate(-8.366010, -4.193921) "></path>
                    </g>
                </g>
                <g id="Group-36">
                    <g id="Group-16" transform="translate(0.984236, 0.000000)">
                        <path d="M8.36600985,6.29479452 C12.9864295,6.29479452 16.7320197,4.88565677 16.7320197,3.14739726 C16.7320197,1.40913775 12.9864295,0 8.36600985,0 C3.74559019,0 0,1.40913775 0,3.14739726 C0,3.97552472 0.850130125,4.72895199 2.23997393,5.29089652" id="Oval-Copy-3" transform="translate(8.366010, 3.147397) scale(1, -1) translate(-8.366010, -3.147397) "></path>
                        <path d="M16.7320197,8.85205479 C16.7320197,8.35793677 16.7320197,7.52571583 16.7320197,6.35539196 C16.7320197,4.59990615 12.9864295,3.17680372 8.36600985,3.17680372 C3.74559019,3.17680372 0,4.59990615 0,6.35539196 C0,6.91294814 0,7.74516909 0,8.85205479" id="Oval-Copy-13" transform="translate(8.366010, 6.014429) scale(1, -1) translate(-8.366010, -6.014429) "></path>
                    </g>
                    <g id="Group-16-Copy" transform="translate(0.000000, 6.721005)">
                        <path d="M16.4650996,3.74318638 C16.6393206,3.50603335 16.7320197,3.25730186 16.7320197,3.00093407 C16.7320197,1.37131578 12.9864295,0.0502491425 8.36600985,0.0502491425 C3.74559019,0.0502491425 0,1.37131578 0,3.00093407 C0,3.38041334 0.15231048,4.23631103 1.13967809,4.58995434" id="Oval-Copy-3" transform="translate(8.366010, 2.320102) scale(1, -1) translate(-8.366010, -2.320102) "></path>
                        <path d="M16.7320197,7.04885845 C16.7320197,6.54464107 16.7320197,5.74394306 16.7320197,4.64676443 C16.7320197,3.00099649 12.9864295,1.66683796 8.36600985,1.66683796 C3.74559019,1.66683796 0,3.00099649 0,4.64676443 C0,5.16947336 0,5.97017136 0,7.04885845" id="Oval-Copy-13" transform="translate(8.366010, 4.357848) scale(1, -1) translate(-8.366010, -4.357848) "></path>
                    </g>
                    <g id="Group-16-Copy-2" transform="translate(0.984236, 11.638813)">
                        <path d="M15.5665125,4.58995434 C16.5476059,4.35311449 16.7320197,3.42038398 16.7320197,3.0323844 C16.7320197,1.40276612 12.9864295,0.0816994734 8.36600985,0.0816994734 C3.74559019,0.0816994734 0,1.40276612 0,3.0323844 C0,3.27606321 0.0837498422,3.51284293 0.241651264,3.73933827" id="Oval-Copy-3" transform="translate(8.366010, 2.335827) scale(1, -1) translate(-8.366010, -2.335827) "></path>
                        <path d="M16.7320197,7.04885845 C16.7320197,6.54464107 16.7320197,5.74394306 16.7320197,4.64676443 C16.7320197,3.00099649 12.9864295,1.66683796 8.36600985,1.66683796 C3.74559019,1.66683796 0,3.00099649 0,4.64676443 C0,5.16947336 0,5.97017136 0,7.04885845" id="Oval-Copy-13" transform="translate(8.366010, 4.357848) scale(1, -1) translate(-8.366010, -4.357848) "></path>
                    </g>
                </g>
            </g>
            <g id="Group-38" transform="translate(176.175369, 203.761644) scale(-1, 1) translate(-176.175369, -203.761644) translate(156.175369, 193.761644)" stroke="#000000" stroke-linecap="round">
                <g id="Group-37" transform="translate(22.293596, 4.917808)">
                    <g id="Group-16-Copy-5">
                        <path d="M8.36600985,6.29479452 C12.9864295,6.29479452 16.7320197,4.88565677 16.7320197,3.14739726 C16.7320197,1.40913775 12.9864295,0 8.36600985,0 C3.74559019,0 0,1.40913775 0,3.14739726 C0,3.97552472 0.850130125,4.72895199 2.23997393,5.29089652" id="Oval-Copy-3" transform="translate(8.366010, 3.147397) scale(1, -1) translate(-8.366010, -3.147397) "></path>
                        <path d="M16.7320197,8.85205479 C16.7320197,8.35793677 16.7320197,7.52571583 16.7320197,6.35539196 C16.7320197,4.59990615 12.9864295,3.17680372 8.36600985,3.17680372 C3.74559019,3.17680372 0,4.59990615 0,6.35539196 C0,6.91294814 0,7.74516909 0,8.85205479" id="Oval-Copy-13" transform="translate(8.366010, 6.014429) scale(1, -1) translate(-8.366010, -6.014429) "></path>
                    </g>
                    <g id="Group-16-Copy-4" transform="translate(0.000000, 6.884932)">
                        <path d="M16.1337768,4.4260274 C16.5196899,4.08667602 16.7320197,3.71616761 16.7320197,3.32816804 C16.7320197,1.69854975 12.9864295,0.377483104 8.36600985,0.377483104 C3.74559019,0.377483104 0,1.69854975 0,3.32816804 C0,3.70764731 0.203106859,4.07039518 0.573070955,4.40362644" id="Oval-Copy-3" transform="translate(8.366010, 2.401755) scale(1, -1) translate(-8.366010, -2.401755) "></path>
                        <path d="M16.7320197,6.88493151 C16.7320197,6.38071413 16.7320197,5.58001612 16.7320197,4.48283749 C16.7320197,2.83706955 12.9864295,1.50291102 8.36600985,1.50291102 C3.74559019,1.50291102 0,2.83706955 0,4.48283749 C0,5.00554642 0,5.80624442 0,6.88493151" id="Oval-Copy-13" transform="translate(8.366010, 4.193921) scale(1, -1) translate(-8.366010, -4.193921) "></path>
                    </g>
                </g>
                <g id="Group-36" transform="translate(9.356650, 10.000000) scale(-1, 1) translate(-9.356650, -10.000000) translate(0.356650, 0.000000)">
                    <g id="Group-16" transform="translate(0.984236, 0.000000)">
                        <path d="M8.36600985,6.29479452 C12.9864295,6.29479452 16.7320197,4.88565677 16.7320197,3.14739726 C16.7320197,1.40913775 12.9864295,0 8.36600985,0 C3.74559019,0 0,1.40913775 0,3.14739726 C0,3.97552472 0.850130125,4.72895199 2.23997393,5.29089652" id="Oval-Copy-3" transform="translate(8.366010, 3.147397) scale(1, -1) translate(-8.366010, -3.147397) "></path>
                        <path d="M16.7320197,8.85205479 C16.7320197,8.35793677 16.7320197,7.52571583 16.7320197,6.35539196 C16.7320197,4.59990615 12.9864295,3.17680372 8.36600985,3.17680372 C3.74559019,3.17680372 0,4.59990615 0,6.35539196 C0,6.91294814 0,7.74516909 0,8.85205479" id="Oval-Copy-13" transform="translate(8.366010, 6.014429) scale(1, -1) translate(-8.366010, -6.014429) "></path>
                    </g>
                    <g id="Group-16-Copy" transform="translate(0.000000, 6.721005)">
                        <path d="M16.4650996,3.74318638 C16.6393206,3.50603335 16.7320197,3.25730186 16.7320197,3.00093407 C16.7320197,1.37131578 12.9864295,0.0502491425 8.36600985,0.0502491425 C3.74559019,0.0502491425 0,1.37131578 0,3.00093407 C0,3.38041334 0.15231048,4.23631103 1.13967809,4.58995434" id="Oval-Copy-3" transform="translate(8.366010, 2.320102) scale(1, -1) translate(-8.366010, -2.320102) "></path>
                        <path d="M16.7320197,7.04885845 C16.7320197,6.54464107 16.7320197,5.74394306 16.7320197,4.64676443 C16.7320197,3.00099649 12.9864295,1.66683796 8.36600985,1.66683796 C3.74559019,1.66683796 0,3.00099649 0,4.64676443 C0,5.16947336 0,5.97017136 0,7.04885845" id="Oval-Copy-13" transform="translate(8.366010, 4.357848) scale(1, -1) translate(-8.366010, -4.357848) "></path>
                    </g>
                    <g id="Group-16-Copy-2" transform="translate(0.984236, 11.638813)">
                        <path d="M15.5665125,4.58995434 C16.5476059,4.35311449 16.7320197,3.42038398 16.7320197,3.0323844 C16.7320197,1.40276612 12.9864295,0.0816994734 8.36600985,0.0816994734 C3.74559019,0.0816994734 0,1.40276612 0,3.0323844 C0,3.27606321 0.0837498422,3.51284293 0.241651264,3.73933827" id="Oval-Copy-3" transform="translate(8.366010, 2.335827) scale(1, -1) translate(-8.366010, -2.335827) "></path>
                        <path d="M16.7320197,7.04885845 C16.7320197,6.54464107 16.7320197,5.74394306 16.7320197,4.64676443 C16.7320197,3.00099649 12.9864295,1.66683796 8.36600985,1.66683796 C3.74559019,1.66683796 0,3.00099649 0,4.64676443 C0,5.16947336 0,5.97017136 0,7.04885845" id="Oval-Copy-13" transform="translate(8.366010, 4.357848) scale(1, -1) translate(-8.366010, -4.357848) "></path>
                    </g>
                </g>
            </g>
            <g id="Group-21-Copy-4" transform="translate(159.800709, 266.584062) scale(-1, 1) rotate(22.000000) translate(-159.800709, -266.584062) translate(148.300709, 255.084062)" stroke="#000000">
                <path d="M9.40314058,7.83074882 C7.50019454,11.0883553 6.5974948,14.0949122 6.69504136,16.8504196 C6.79258792,19.6059269 8.51287496,21.0990112 11.8559025,21.3296722 C19.3179518,21.282945 22.6918895,19.4175304 21.9777155,15.7334284 C21.2635416,12.0493265 19.3613836,9.41509992 16.2712417,7.83074882 L18.7479086,2.45265297 L16.3748942,3.67134829 C15.803676,3.9647055 15.1203503,3.93645396 14.5752975,3.59694544 L14.5752975,3.59694544 C14.0376718,3.26206326 13.3561448,3.26308085 12.8195216,3.599567 L12.1210115,4.03756329 C11.4170642,4.47896891 10.5348855,4.52486627 9.78893258,4.15889503 L7.46368025,3.01810514 L9.40314058,7.83074882 Z" id="Path-6" stroke-linecap="round" stroke-linejoin="round"></path>
                <g id="Group-46" transform="translate(15.566344, 15.492403) scale(-1, 1) rotate(14.000000) translate(-15.566344, -15.492403) translate(12.566344, 11.492403)" stroke-linecap="square">
                    <path d="M2.28607629,0.512033188 L1.90235508,3.27935809 C1.73008553,4.52173355 2.59757778,5.66852993 3.83995324,5.84079948 C4.29422442,5.90378936 4.75692271,5.82776834 5.16715874,5.62274049" id="Path-9" transform="translate(3.523714, 3.187226) scale(-1, 1) rotate(174.000000) translate(-3.523714, -3.187226) "></path>
                    <path d="M5.44546969,6.0328352 L0.773487936,5.44072057" id="Path-9-Copy-5" transform="translate(3.109479, 5.736778) scale(-1, 1) rotate(174.000000) translate(-3.109479, -5.736778) "></path>
                    <path d="M4.46801663,3.35479526 L0.974826821,3.00003937" id="Path-9-Copy-6" transform="translate(2.721422, 3.177417) scale(-1, 1) rotate(174.000000) translate(-2.721422, -3.177417) "></path>
                </g>
                <path d="M8.04204489,2.49130696 C6.80753863,3.2365695 5.65557944,3.41283799 4.58616731,3.02011243 C3.51675518,2.62738687 2.70331311,3.23027772 2.14584107,4.82878498 L4.94811839,9.32800155 C3.49432915,11.4674002 2.54855716,14.2594663 2.11080244,17.7041996 C1.67304772,21.148933 3.91384447,22.5632985 8.83319269,21.947296" id="Path-6-Copy" stroke-linecap="round" stroke-linejoin="round" transform="translate(5.445169, 12.289386) rotate(-10.000000) translate(-5.445169, -12.289386) "></path>
                <path d="M9.51872537,7.88325134 C11.4757861,9.18443884 13.246948,9.49411622 14.832211,8.81228346" id="Path-7" stroke-linecap="round" stroke-linejoin="round"></path>
                <path d="M4.51033217,9.42978532 C5.15263824,9.81875234 5.9373089,9.85893584 6.86434416,9.5503358" id="Path-7-Copy-3" stroke-linecap="round" stroke-linejoin="round"></path>
                <path d="M1.03502157,5.59924761 C1.41021826,5.84520777 2.26983058,5.96825959 3.61385851,5.96840307 L3.61385851,5.96840426 C3.81302078,5.96842552 4.01140597,5.99323735 4.20443874,6.04226751 L4.92435488,6.22512559 C5.5625209,6.38721921 6.23964905,6.22867628 6.7395207,5.80012227 L8.04141455,4.6839721" id="Path-7-Copy-2" stroke-linecap="round" stroke-linejoin="round"></path>
                <path d="M7.42983976,2.92734417 C7.27294872,1.49287719 8.15360521,1.00081997 10.0718092,1.4511725 C12.9491152,2.12670129 13.5049287,-0.425429701 15.913963,0.931845418" id="Path-7-Copy" stroke-linecap="round" stroke-linejoin="round"></path>
            </g>
            <path d="M104.000985,326.542466 L91.2059113,326.542466" id="Path-3-Copy-27" stroke="#000000" stroke-linecap="round"></path>
            <path d="M273.289655,326.542466 L246.715271,326.542466" id="Path-3-Copy-58" stroke="#000000" stroke-linecap="round"></path>
            <path d="M232.935961,326.542466 L200.456158,326.542466" id="Path-3-Copy-57" stroke="#000000" stroke-linecap="round"></path>
            <path d="M184.708374,326.542466 L135.496552,326.542466" id="Path-3-Copy-61" stroke="#000000" stroke-linecap="round"></path>
            <path d="M146.323153,330.476712 L81.3635468,330.476712" id="Path-3-Copy-32" stroke="#000000" stroke-linecap="round"></path>
            <path d="M294.942857,330.476712 L152.228571,330.476712" id="Path-3-Copy-56" stroke="#000000" stroke-linecap="round"></path>
            <g id="Group-22" transform="translate(225.882266, 248.841096)" stroke="#000000" stroke-linecap="round">
                <path d="M9.87834269,72.6124347 L8.17034815,56.2369458" id="Path-3-Copy-30"></path>
                <path id="Path-3-Copy-54" stroke-linejoin="round" d="M9.87834269 72.6124347 13.3494194 73.6711752 14.1395449 77.8669271 14.9615384 79.0347174 12.4199405 79.0347174 9.87834269 75.8235761z"></path>
                <path d="M13.3078029,73.4060096 L13.3078029,55.4774365" id="Path-3-Copy-48"></path>
                <path id="Path-3-Copy-51" stroke-linejoin="round" d="M9.36138973 6.44264933 10.1737546 2.34260457 9.57270426 0.535709519 7.49568978 2.01944891 7.49568978 5.17066388"></path>
                <path id="Path-3-Copy-53" stroke-linejoin="round" d="M10.0321392 26.818486 12.2902243 25.4969939 10.8116634 37.0430247 13.9114613 29.0393069 15.5004365 31.5337125 17.7907834 17.87208 17.1921511 13.7039983 12.8563403 10.6869101 10.8116634 15.0326936 11.4937004 20.7573968z"></path>
                <path id="Path-3-Copy-52" stroke-linejoin="round" d="M19.347995 6.13651973 18.5598575 3.46718258 17.6274096 6.39599943 18.5598575 8.03123613"></path>
                <path d="M17.1078634,71.0073188 L19.8487685,49.1780822" id="Path-3-Copy-49"></path>
                <path id="Path-3-Copy-55" stroke-linejoin="round" d="M15.0413142 79.0261653 17.1078634 79.0261653 16.2602194 75.4371909 17.1078634 71.0073188 13.7920911 71.5328086"></path>
                <path d="M21.8907261,50.2548011 L24.0414836,52.6589816 C24.4037682,53.0639541 25.0259781,53.0987608 25.4312284,52.7367246 C25.7030749,52.4938666 25.8182852,52.1207189 25.7306285,51.7670156 L19.8487685,28.0331358 L23.0993947,15.2242081 L19.8487685,5.85677462 L18.4322986,8.48360392 L19.8487685,15.2242081 L17.2093735,21.1061454 M11.0835547,21.1429394 L9.300922,15.1138861 L9.03198009,10.7066174 L9.69717876,6.72645171 L6.3294217,4.86412924 L5.10908017,9.80149191 L4.78456029,16.1436425 L7.0586828,32.273515 L0.161304153,56.9237551 L19.8487685,49.1780822" id="Path-3-Copy-50" stroke-linejoin="round"></path>
            </g>
            <g id="Group-22-Copy" transform="translate(184.893103, 287.710046) scale(-1, 1) translate(-184.893103, -287.710046) translate(165.393103, 246.710046)" stroke="#000000" stroke-linecap="round">
                <path id="Path-3-Copy-30" stroke-linejoin="round" d="M10.0336027 75.5766869 4.38988844 74.0998106 4.38988844 49.0649149"></path>
                <path id="Path-3-Copy-54" stroke-linejoin="round" d="M5.79849114 74.5138208 10.2531938 75.6829448 11.0227961 79.9979774 11.8447896 81.1657677 8.34379788 81.1657677 5.79849114 77.9546263z"></path>
                <path d="M10.1910541,75.5370598 L9.40067137,54.1817471" id="Path-3-Copy-48"></path>
                <path id="Path-3-Copy-51" stroke-linejoin="round" d="M5.88500065 6.30355357 7.05700579 2.50653151 6.27980426 0.0388763771 4.37894102 2.18337585 3.71249777 5.25392043"></path>
                <path d="M6.61274856,25.0425542 L9.45572583,22.3597596" id="Path-3-Copy-60" stroke-linejoin="round"></path>
                <path id="Path-3-Copy-53" stroke-linejoin="round" d="M12.5983279 22.7858447 16.0032607 20.7433327 17.3355622 16.9802673 17.0351591 13.3650685 14.2095278 14.2776565 16.0032607 11.8343987 10.8248998 11.8343987 8.67915111 16.3950016 9.39490237 22.4026864z"></path>
                <path id="Path-3-Copy-52" stroke-linejoin="round" d="M33.0152479 34.5414775 36.9161704 33.3927992 38.4019983 31.0132191 33.5099586 32.0199753"></path>
                <path id="Path-3-Copy-49" stroke-linejoin="round" d="M10.1290618 74.4511194 15.5303552 74.4511194 16.1609577 62.3068029 16.7320197 51.3091324"></path>
                <path id="Path-3-Copy-55" stroke-linejoin="round" d="M11.0184791 80.036815 17.4096327 80.036815 14.3475194 77.3449158 14.3475194 74.6530166 10.5810545 74.6530166"></path>
                <path d="M16.8184947,49.249166 L18.1644114,47.7245873 L18.1644114,35.4474817 L24.1137931,37.163447 L32.5251457,35.4474817 L33.6853522,31.4898489 L24.1137931,32.7639988 L15.4848789,25.077728 M6.98256944,24.2575512 L5.19993678,17.2449364 L4.93099487,12.8376676 L6.58042999,6.89037865 L3.21267293,5.02805618 L1.00809495,11.9325421 L0.683575064,18.2746927 L2.93944085,31.6715807 L3.88283898,48.5088404 L14.4214533,50.7316568" id="Path-3-Copy-50" stroke-linejoin="round"></path>
            </g>
            <g id="Group-22-Copy-2" transform="translate(108.922167, 256.709589)" stroke="#000000" stroke-linecap="round">
                <path id="Path-3-Copy-30" stroke-linejoin="round" d="M11.6667017 54.7986597 6.09665693 65.5771435 0.452942625 64.1002672 4.38454281 53.4389478 1.35754511 45.4660102 1.98365261 35.9413647"></path>
                <path id="Path-3-Copy-54" stroke-linejoin="round" d="M1.86154533 64.5142775 6.31624803 65.6834015 7.08585029 69.998434 7.9078438 71.1662243 4.40685207 71.1662243 1.86154533 67.9550829z"></path>
                <path d="M15.6561007,53.5297668 L7.45405413,45.8446643" id="Path-3-Copy-48"></path>
                <path id="Path-3-Copy-51" stroke-linejoin="round" d="M24.8244675 22.5628836 27.9943501 22.5628836 35.2303184 19.2548159 33.777622 17.0492156 27.2337203 18.7978196 18.3267184 17.4314872"></path>
                <path id="Path-3-Copy-60" stroke-linejoin="round" d="M15.2161535 12.1577436 17.5098989 13.5402454 18.8705241 12.6138366 20.3205594 9.85397145 21.1953012 8.79992578 20.2577196 3.3912092"></path>
                <path id="Path-3-Copy-53" stroke-linejoin="round" d="M16.4662288 5.18495017 19.1588721 4.93849628 19.3657902 3.31198221 21.7648804 2.79117653 19.6030464 1.01746271 13.9565862 0 10.131221 4.46394519 10.4297121 9.73046243 11.7622031 9.26325673"></path>
                <path id="Path-3-Copy-52" stroke-linejoin="round" d="M36.8671146 27.9521829 41.3019078 27.9521829 44.4249189 25.8008576 37.4009852 25.1081792"></path>
                <path id="Path-3-Copy-62" stroke-linejoin="round" d="M35.2447411 18.6208749 40.2205649 17.438361 36.9131121 15.9434221 34.1532772 17.1476661"></path>
                <path id="Path-3-Copy-49" stroke-linejoin="round" d="M14.4774496 52.7919151 14.4774496 63.9425952 21.2941235 65.6566001 23.3564827 51.0343321 13.6511153 38.9403387"></path>
                <path id="Path-3-Copy-55" stroke-linejoin="round" d="M15.8745378 71.2824285 21.5921251 71.2824285 19.1866376 68.3477681 19.1866376 65.4131076"></path>
                <path d="M14.8500218,36.2989377 L16.1959385,34.774359 L18.2229176,26.6879545 L27.0665025,29.1310269 L36.4620915,28.3986233 L37.622298,24.4409905 L27.0665025,24.7315787 L16.4691154,16.0617463 M10.8619884,9.78731815 L3.60842974,27.0857355 L1.18239987,35.5273169 L12.4529804,37.7814285" id="Path-3-Copy-50" stroke-linejoin="round"></path>
            </g>
        </g>
    </g>
</svg>