<?xml version="1.0" encoding="UTF-8"?>
<svg width="590px" height="480px" viewBox="0 0 590 480" version="1.1" xmlns="http://www.w3.org/2000/svg" xmlns:xlink="http://www.w3.org/1999/xlink">
    <!-- Generator: Sketch 50 (54983) - http://www.bohemiancoding.com/sketch -->
    <title>Artboard 5</title>
    <desc>Created with Sketch.</desc>
    <defs>
        <linearGradient x1="6.44440736%" y1="100%" x2="75.7360884%" y2="100%" id="linearGradient-1">
            <stop stop-color="#000000" stop-opacity="0" offset="0%"></stop>
            <stop stop-color="#000000" offset="100%"></stop>
        </linearGradient>
        <linearGradient x1="72.5135685%" y1="73.279947%" x2="6.99749294%" y2="73.2799447%" id="linearGradient-2">
            <stop stop-color="#000000" stop-opacity="0" offset="0%"></stop>
            <stop stop-color="#000000" offset="100%"></stop>
        </linearGradient>
        <linearGradient x1="83.4614114%" y1="90.013839%" x2="36.5785818%" y2="19.7184514%" id="linearGradient-3">
            <stop stop-color="#000000" stop-opacity="0" offset="0%"></stop>
            <stop stop-color="#000000" offset="100%"></stop>
        </linearGradient>
        <linearGradient x1="91.3786156%" y1="104.034798%" x2="56.6611772%" y2="64.0088779%" id="linearGradient-4">
            <stop stop-color="#000000" stop-opacity="0" offset="0%"></stop>
            <stop stop-color="#000000" offset="100%"></stop>
        </linearGradient>
        <linearGradient x1="24.1151912%" y1="50%" x2="100%" y2="113.449713%" id="linearGradient-5">
            <stop stop-color="#000000" stop-opacity="0" offset="0%"></stop>
            <stop stop-color="#000000" offset="100%"></stop>
        </linearGradient>
        <linearGradient x1="50%" y1="0%" x2="119.054155%" y2="100%" id="linearGradient-6">
            <stop stop-color="#000000" stop-opacity="0" offset="0%"></stop>
            <stop stop-color="#000000" offset="100%"></stop>
        </linearGradient>
        <linearGradient x1="70.2095152%" y1="50%" x2="0%" y2="50%" id="linearGradient-7">
            <stop stop-color="#000000" stop-opacity="0" offset="0%"></stop>
            <stop stop-color="#000000" offset="100%"></stop>
        </linearGradient>
        <linearGradient x1="61.0172112%" y1="50%" x2="0%" y2="50%" id="linearGradient-8">
            <stop stop-color="#000000" stop-opacity="0" offset="0%"></stop>
            <stop stop-color="#000000" offset="100%"></stop>
        </linearGradient>
        <linearGradient x1="0%" y1="100%" x2="117.671844%" y2="-23.8492088%" id="linearGradient-9">
            <stop stop-color="#000000" stop-opacity="0" offset="0%"></stop>
            <stop stop-color="#000000" offset="100%"></stop>
        </linearGradient>
    </defs>
    <g id="Artboard-5" stroke="none" stroke-width="1" fill="none" fill-rule="evenodd">
        <g id="Group-17-Copy-3" transform="translate(197.899668, 239.100000) scale(-1, 1) translate(-197.899668, -239.100000) translate(173.399668, 226.600000)" stroke="#000000" stroke-linecap="round" stroke-width="1.2">
            <g id="Group-21-Copy-2" transform="translate(0.000000, 4.800000)">
                <g id="Group-16" transform="translate(1.200663, 0.000000)">
                    <path d="M10.2056385,7.68 C15.842057,7.68 20.4112769,5.96077344 20.4112769,3.84 C20.4112769,1.71922656 15.842057,0 10.2056385,0 C4.56921998,0 0,1.71922656 0,3.84 C0,4.85036164 1.03706795,5.76958488 2.73252895,6.45518852" id="Oval-Copy-3" transform="translate(10.205638, 3.840000) scale(1, -1) translate(-10.205638, -3.840000) "></path>
                    <path d="M20.4112769,9.56412248 C20.4112769,9.76127097 20.4112769,9.14591505 20.4112769,7.71805473 C20.4112769,5.57626424 15.842057,3.84 10.2056385,3.84 C4.56921998,3.84 0,5.57626424 0,7.71805473 C0,8.39830433 0,9.01366025 0,9.56412248" id="Oval-Copy-13" transform="translate(10.205638, 6.720000) scale(1, -1) translate(-10.205638, -6.720000) "></path>
                </g>
                <g id="Group-16-Copy" transform="translate(0.000000, 7.000000)">
                    <path d="M20.053065,4.73468805 C20.2866122,4.43238703 20.4112769,4.11424794 20.4112769,3.78583793 C20.4112769,1.79761283 15.842057,0.185837926 10.2056385,0.185837926 C4.56921998,0.185837926 0,1.79761283 0,3.78583793 C0,4.24882377 0.247768675,4.69139639 0.699085357,5.09795709 C0.810343758,5.19818227 1.16299316,5.3655299 1.75703356,5.6" id="Oval-Copy-3" transform="translate(10.205638, 2.892919) scale(1, -1) translate(-10.205638, -2.892919) "></path>
                    <path d="M20.4112769,7.36636482 C20.4112769,7.55119153 20.4112769,6.97429536 20.4112769,5.63567631 C20.4112769,3.62774773 15.842057,2 10.2056385,2 C4.56921998,2 0,3.62774773 0,5.63567631 C0,6.27341031 0,6.85030648 0,7.36636482" id="Oval-Copy-13" transform="translate(10.205638, 4.700000) scale(1, -1) translate(-10.205638, -4.700000) "></path>
                </g>
                <g id="Group-16-Copy-2" transform="translate(1.200663, 11.800000)">
                    <path d="M18.745921,5.6 C19.2458389,5.36046363 19.5576934,5.18626055 19.6814845,5.07739075 C20.1522573,4.66336316 20.4112769,4.21132226 20.4112769,3.73794117 C20.4112769,1.74971607 15.842057,0.137941165 10.2056385,0.137941165 C4.56921998,0.137941165 0,1.74971607 0,3.73794117 C0,4.01756404 0.0903766748,4.28974094 0.261388201,4.55103546" id="Oval-Copy-3" transform="translate(10.205638, 2.868971) scale(1, -1) translate(-10.205638, -2.868971) "></path>
                    <path d="M20.4112769,7.36636482 C20.4112769,7.55119153 20.4112769,6.97429536 20.4112769,5.63567631 C20.4112769,3.62774773 15.842057,2 10.2056385,2 C4.56921998,2 0,3.62774773 0,5.63567631 C0,6.27341031 0,6.85030648 0,7.36636482" id="Oval-Copy-13" transform="translate(10.205638, 4.700000) scale(1, -1) translate(-10.205638, -4.700000) "></path>
                </g>
            </g>
            <g id="Group-24" transform="translate(37.526534, 8.000000) scale(-1, 1) translate(-37.526534, -8.000000) translate(27.026534, 0.000000)">
                <g id="Group-16-Copy-5">
                    <path d="M10.2056385,7.68 C15.842057,7.68 20.4112769,5.96077344 20.4112769,3.84 C20.4112769,1.71922656 15.842057,0 10.2056385,0 C4.56921998,0 0,1.71922656 0,3.84 C0,4.85036164 1.03706795,5.76958488 2.73252895,6.45518852" id="Oval-Copy-3" transform="translate(10.205638, 3.840000) scale(1, -1) translate(-10.205638, -3.840000) "></path>
                    <path d="M20.4112769,9.56412248 C20.4112769,9.76127097 20.4112769,9.14591505 20.4112769,7.71805473 C20.4112769,5.57626424 15.842057,3.84 10.2056385,3.84 C4.56921998,3.84 0,5.57626424 0,7.71805473 C0,8.39830433 0,9.01366025 0,9.56412248" id="Oval-Copy-13" transform="translate(10.205638, 6.720000) scale(1, -1) translate(-10.205638, -6.720000) "></path>
                </g>
                <g id="Group-16-Copy-4" transform="translate(0.000000, 7.200000)">
                    <path d="M19.6814845,5.4 C20.1522573,4.98597242 20.4112769,4.53393151 20.4112769,4.06055042 C20.4112769,2.07232532 15.842057,0.460550417 10.2056385,0.460550417 C4.56921998,0.460550417 0,2.07232532 0,4.06055042 C0,4.52353627 0.247768675,4.96610888 0.699085357,5.37266958" id="Oval-Copy-3" transform="translate(10.205638, 2.930275) scale(1, -1) translate(-10.205638, -2.930275) "></path>
                    <path d="M20.4112769,7.16636482 C20.4112769,7.35119153 20.4112769,6.77429536 20.4112769,5.43567631 C20.4112769,3.42774773 15.842057,1.8 10.2056385,1.8 C4.56921998,1.8 0,3.42774773 0,5.43567631 C0,6.07341031 0,6.65030648 0,7.16636482" id="Oval-Copy-13" transform="translate(10.205638, 4.500000) scale(1, -1) translate(-10.205638, -4.500000) "></path>
                </g>
            </g>
        </g>
        <g id="Group-17-Copy-4" transform="translate(377.285240, 280.600000)" stroke="#000000" stroke-linecap="round" stroke-width="0.96">
            <g id="Group-21-Copy-2" transform="translate(0.000000, 4.114286)">
                <g id="Group-16" transform="translate(1.020564, 0.000000)">
                    <path d="M8.6747927,6.58285714 C13.4657484,6.58285714 17.3495854,5.10923438 17.3495854,3.29142857 C17.3495854,1.47362277 13.4657484,0 8.6747927,0 C3.88383699,0 0,1.47362277 0,3.29142857 C0,4.15745283 0.88150776,4.94535847 2.32264961,5.53301873" id="Oval-Copy-3" transform="translate(8.674793, 3.291429) scale(1, -1) translate(-8.674793, -3.291429) "></path>
                    <path d="M17.3495854,8.19781927 C17.3495854,8.36680369 17.3495854,7.83935576 17.3495854,6.61547548 C17.3495854,4.77965506 13.4657484,3.29142857 8.6747927,3.29142857 C3.88383699,3.29142857 0,4.77965506 0,6.61547548 C0,7.19854657 0,7.7259945 0,8.19781927" id="Oval-Copy-13" transform="translate(8.674793, 5.760000) scale(1, -1) translate(-8.674793, -5.760000) "></path>
                </g>
                <g id="Group-16-Copy" transform="translate(0.000000, 6.142857)">
                    <path d="M17.0451052,3.9154469 C17.2436204,3.65633174 17.3495854,3.38364109 17.3495854,3.10214679 C17.3495854,1.39795385 13.4657484,0.0164325077 8.6747927,0.0164325077 C3.88383699,0.0164325077 0,1.39795385 0,3.10214679 C0,3.49899181 0.210603374,3.87833976 0.594222553,4.22682037 C0.688792194,4.31272766 0.988544185,4.45616849 1.49347853,4.65714286" id="Oval-Copy-3" transform="translate(8.674793, 2.336788) scale(1, -1) translate(-8.674793, -2.336788) "></path>
                    <path d="M17.3495854,6.17116985 C17.3495854,6.32959274 17.3495854,5.83511031 17.3495854,4.68772255 C17.3495854,2.96664091 13.4657484,1.57142857 8.6747927,1.57142857 C3.88383699,1.57142857 0,2.96664091 0,4.68772255 C0,5.2343517 0,5.72883413 0,6.17116985" id="Oval-Copy-13" transform="translate(8.674793, 3.885714) scale(1, -1) translate(-8.674793, -3.885714) "></path>
                </g>
                <g id="Group-16-Copy-2" transform="translate(1.020564, 9.257143)">
                    <path d="M15.9340329,5.65714286 C16.3589631,5.45182597 16.6240394,5.30250904 16.7292619,5.20919207 C17.1294187,4.85431128 17.3495854,4.46684765 17.3495854,4.06109243 C17.3495854,2.35689949 13.4657484,0.975378142 8.6747927,0.975378142 C3.88383699,0.975378142 0,2.35689949 0,4.06109243 C0,4.30076918 0.0768201736,4.53406366 0.222179971,4.7580304" id="Oval-Copy-3" transform="translate(8.674793, 3.316260) scale(1, -1) translate(-8.674793, -3.316260) "></path>
                    <path d="M17.3495854,7.17116985 C17.3495854,7.32959274 17.3495854,6.83511031 17.3495854,5.68772255 C17.3495854,3.96664091 13.4657484,2.57142857 8.6747927,2.57142857 C3.88383699,2.57142857 0,3.96664091 0,5.68772255 C0,6.2343517 0,6.72883413 0,7.17116985" id="Oval-Copy-13" transform="translate(8.674793, 4.885714) scale(1, -1) translate(-8.674793, -4.885714) "></path>
                </g>
            </g>
            <g id="Group-24" transform="translate(31.822554, 7.000000) scale(-1, 1) translate(-31.822554, -7.000000) translate(22.822554, 0.000000)">
                <g id="Group-16-Copy-5">
                    <path d="M8.6747927,6.58285714 C13.4657484,6.58285714 17.3495854,5.10923438 17.3495854,3.29142857 C17.3495854,1.47362277 13.4657484,0 8.6747927,0 C3.88383699,0 0,1.47362277 0,3.29142857 C0,4.15745283 0.88150776,4.94535847 2.32264961,5.53301873" id="Oval-Copy-3" transform="translate(8.674793, 3.291429) scale(1, -1) translate(-8.674793, -3.291429) "></path>
                    <path d="M17.3495854,8.19781927 C17.3495854,8.36680369 17.3495854,7.83935576 17.3495854,6.61547548 C17.3495854,4.77965506 13.4657484,3.29142857 8.6747927,3.29142857 C3.88383699,3.29142857 0,4.77965506 0,6.61547548 C0,7.19854657 0,7.7259945 0,8.19781927" id="Oval-Copy-13" transform="translate(8.674793, 5.760000) scale(1, -1) translate(-8.674793, -5.760000) "></path>
                </g>
                <g id="Group-16-Copy-4" transform="translate(0.000000, 6.171429)">
                    <path d="M16.7292619,4.62857143 C17.1294187,4.27369064 17.3495854,3.88622701 17.3495854,3.48047179 C17.3495854,1.77627884 13.4657484,0.3947575 8.6747927,0.3947575 C3.88383699,0.3947575 0,1.77627884 0,3.48047179 C0,3.8773168 0.210603374,4.25666475 0.594222553,4.60514536" id="Oval-Copy-3" transform="translate(8.674793, 2.511664) scale(1, -1) translate(-8.674793, -2.511664) "></path>
                    <path d="M17.3495854,6.14259842 C17.3495854,6.30102131 17.3495854,5.80653888 17.3495854,4.65915112 C17.3495854,2.93806948 13.4657484,1.54285714 8.6747927,1.54285714 C3.88383699,1.54285714 0,2.93806948 0,4.65915112 C0,5.20578027 0,5.7002627 0,6.14259842" id="Oval-Copy-13" transform="translate(8.674793, 3.857143) scale(1, -1) translate(-8.674793, -3.857143) "></path>
                </g>
            </g>
        </g>
        <path d="M282.432836,211 C280.138351,209.910653 276.136139,209.562979 270.426202,209.956978" id="Oval-Copy-15" stroke="#000000" stroke-width="1.2" stroke-linecap="round" transform="translate(276.429519, 210.400000) rotate(20.000000) translate(-276.429519, -210.400000) "></path>
        <path d="M232.004975,209.8 L239.208955,203.8" id="Oval-Copy-16" stroke="#000000" stroke-width="1.2" stroke-linecap="round" transform="translate(235.606965, 206.800000) rotate(20.000000) translate(-235.606965, -206.800000) "></path>
        <g id="Group-26" transform="translate(205.590381, 133.000000)" stroke="#000000" stroke-linecap="round" stroke-width="1.2">
            <path d="M36.436757,98.6156674 C50.4155239,98.6156674 62.7770441,91.6952362 70.2785532,81.0953464" id="Oval-Copy-3" transform="translate(53.357655, 89.855507) rotate(20.000000) translate(-53.357655, -89.855507) "></path>
            <path d="M91.7179695,46.5778641 C88.3425479,27.104084 71.3541132,12.2939894 50.9046834,12.2939894 C28.0274555,12.2939894 9.48179788,30.8294007 9.48179788,53.6939894 C9.48179788,64.5869508 13.6910737,74.4973263 20.5726507,81.8889906" id="Oval-Copy-14" transform="translate(50.599884, 47.091490) rotate(20.000000) translate(-50.599884, -47.091490) "></path>
        </g>
        <g id="Group-17" transform="translate(281.633499, 185.800000)" stroke="#000000">
            <g id="Group-16-Copy-3" transform="translate(54.829187, 37.200000)" stroke-linecap="round" stroke-width="1.2">
                <path d="M10.2056385,7.68 C15.842057,7.68 20.4112769,5.96077344 20.4112769,3.84 C20.4112769,1.71922656 15.842057,0 10.2056385,0 C4.56921998,0 0,1.71922656 0,3.84 C0,4.85036164 1.03706795,5.76958488 2.73252895,6.45518852" id="Oval-Copy-3" transform="translate(10.205638, 3.840000) scale(1, -1) translate(-10.205638, -3.840000) "></path>
                <path d="M20.4112769,9.56412248 C20.4112769,9.76127097 20.4112769,9.14591505 20.4112769,7.71805473 C20.4112769,5.57626424 15.842057,3.84 10.2056385,3.84 C4.56921998,3.84 0,5.57626424 0,7.71805473 C0,8.39830433 0,9.01366025 0,9.56412248" id="Oval-Copy-13" transform="translate(10.205638, 6.720000) scale(1, -1) translate(-10.205638, -6.720000) "></path>
            </g>
            <g id="Group-16-Copy-5" transform="translate(29.615257, 30.000000)" stroke-linecap="round" stroke-width="1.2">
                <path d="M10.2056385,7.68 C15.842057,7.68 20.4112769,5.96077344 20.4112769,3.84 C20.4112769,1.71922656 15.842057,0 10.2056385,0 C4.56921998,0 0,1.71922656 0,3.84 C0,4.85036164 1.03706795,5.76958488 2.73252895,6.45518852" id="Oval-Copy-3" transform="translate(10.205638, 3.840000) scale(1, -1) translate(-10.205638, -3.840000) "></path>
                <path d="M20.4112769,9.56412248 C20.4112769,9.76127097 20.4112769,9.14591505 20.4112769,7.71805473 C20.4112769,5.57626424 15.842057,3.84 10.2056385,3.84 C4.56921998,3.84 0,5.57626424 0,7.71805473 C0,8.39830433 0,9.01366025 0,9.56412248" id="Oval-Copy-13" transform="translate(10.205638, 6.720000) scale(1, -1) translate(-10.205638, -6.720000) "></path>
            </g>
            <g id="Group-16-Copy-4" transform="translate(29.615257, 37.200000)" stroke-linecap="round" stroke-width="1.2">
                <path d="M19.6814845,5.4 C20.1522573,4.98597242 20.4112769,4.53393151 20.4112769,4.06055042 C20.4112769,2.07232532 15.842057,0.460550417 10.2056385,0.460550417 C4.56921998,0.460550417 0,2.07232532 0,4.06055042 C0,4.52353627 0.247768675,4.96610888 0.699085357,5.37266958" id="Oval-Copy-3" transform="translate(10.205638, 2.930275) scale(1, -1) translate(-10.205638, -2.930275) "></path>
                <path d="M20.4112769,7.16636482 C20.4112769,7.35119153 20.4112769,6.77429536 20.4112769,5.43567631 C20.4112769,3.42774773 15.842057,1.8 10.2056385,1.8 C4.56921998,1.8 0,3.42774773 0,5.43567631 C0,6.07341031 0,6.65030648 0,7.16636482" id="Oval-Copy-13" transform="translate(10.205638, 4.500000) scale(1, -1) translate(-10.205638, -4.500000) "></path>
            </g>
            <g id="Group-21-Copy-5" transform="translate(55.690913, 18.450228) rotate(7.000000) translate(-55.690913, -18.450228) translate(43.690913, 1.950228)">
                <path d="M11.1155874,32.0329836 C20.0140817,31.45322 23.9819235,28.6796538 23.0191128,23.7122849 C21.9429049,18.159873 19.076492,14.1897573 14.4198739,11.801938 L18.1520299,3.69646109 L14.3988677,5.62420772 C13.6480139,6.00987078 12.7497603,5.97273068 12.0333069,5.52639885 L11.8133171,5.38935092 C11.0343085,4.90404884 10.0467384,4.90552347 9.26918266,5.3931498 L7.59191609,6.44500918 C6.88791382,6.88650811 6.00562172,6.93241459 5.25960178,6.56636168 L1.14752285,4.54866968 L3.66635703,11.2937391 C0.481494103,19.3177378 -0.50176166,24.6235124 0.716589743,27.2110628" id="Path-6" stroke-width="1.2" stroke-linecap="round" stroke-linejoin="round"></path>
                <g id="Group" transform="translate(9.833125, 22.958598) rotate(10.000000) translate(-9.833125, -22.958598) translate(5.333125, 18.958598)">
                    <circle id="Oval-Copy-3" cx="3.5" cy="3.5" r="3.5"></circle>
                    <path d="M4.86706187,2.64148134 L5.15851139,2.91534917 C5.98519982,3.69216763 6.03443595,4.98902028 5.26902753,5.82628407 L5.14068923,5.96667057 C4.43294221,6.74085979 4.43662307,7.92826808 5.14915627,8.69805457" id="Path-9" stroke-linecap="round" transform="translate(5.212308, 5.669768) rotate(110.000000) translate(-5.212308, -5.669768) "></path>
                </g>
                <path d="M4.24432559,11.881066 C7.19347304,13.8421217 9.86248446,14.308845 12.2513599,13.281236" id="Path-7" stroke-width="1.2" stroke-linecap="round" stroke-linejoin="round"></path>
                <path d="M1.09652771,4.41188132 C0.860104378,2.24995648 2.18718931,1.50836343 5.07778252,2.18710218 C9.41367232,3.2052103 10.2512425,-0.641176863 13.8814811,1.40440999" id="Path-7-Copy" stroke-width="1.2" stroke-linecap="round" stroke-linejoin="round"></path>
            </g>
            <g id="Group-16-Copy-8" transform="translate(29.615257, 42.000000)" stroke-linecap="round" stroke-width="1.2">
                <path d="M19.6814845,5.4 C20.1522573,4.98597242 20.4112769,4.53393151 20.4112769,4.06055042 C20.4112769,2.07232532 15.842057,0.460550417 10.2056385,0.460550417 C4.56921998,0.460550417 0,2.07232532 0,4.06055042 C0,4.52353627 0.247768675,4.96610888 0.699085357,5.37266958" id="Oval-Copy-3" transform="translate(10.205638, 2.930275) scale(1, -1) translate(-10.205638, -2.930275) "></path>
                <path d="M20.4112769,7.16636482 C20.4112769,7.35119153 20.4112769,6.77429536 20.4112769,5.43567631 C20.4112769,3.42774773 15.842057,1.8 10.2056385,1.8 C4.56921998,1.8 0,3.42774773 0,5.43567631 C0,6.07341031 0,6.65030648 0,7.16636482" id="Oval-Copy-13" transform="translate(10.205638, 4.500000) scale(1, -1) translate(-10.205638, -4.500000) "></path>
            </g>
            <g id="Group-21-Copy" transform="translate(12.812604, 34.300000) scale(-1, 1) translate(-12.812604, -34.300000) translate(0.812604, 16.800000)" stroke-linecap="round" stroke-width="1.2">
                <g id="Group-16" transform="translate(1.200663, 0.000000)">
                    <path d="M10.2056385,7.68 C15.842057,7.68 20.4112769,5.96077344 20.4112769,3.84 C20.4112769,1.71922656 15.842057,0 10.2056385,0 C4.56921998,0 0,1.71922656 0,3.84 C0,4.85036164 1.03706795,5.76958488 2.73252895,6.45518852" id="Oval-Copy-3" transform="translate(10.205638, 3.840000) scale(1, -1) translate(-10.205638, -3.840000) "></path>
                    <path d="M20.4112769,9.56412248 C20.4112769,9.76127097 20.4112769,9.14591505 20.4112769,7.71805473 C20.4112769,5.57626424 15.842057,3.84 10.2056385,3.84 C4.56921998,3.84 0,5.57626424 0,7.71805473 C0,8.39830433 0,9.01366025 0,9.56412248" id="Oval-Copy-13" transform="translate(10.205638, 6.720000) scale(1, -1) translate(-10.205638, -6.720000) "></path>
                </g>
                <g id="Group-16-Copy" transform="translate(0.000000, 7.000000)">
                    <path d="M20.053065,4.73468805 C20.2866122,4.43238703 20.4112769,4.11424794 20.4112769,3.78583793 C20.4112769,1.79761283 15.842057,0.185837926 10.2056385,0.185837926 C4.56921998,0.185837926 0,1.79761283 0,3.78583793 C0,4.24882377 0.247768675,4.69139639 0.699085357,5.09795709 C0.810343758,5.19818227 1.16299316,5.3655299 1.75703356,5.6" id="Oval-Copy-3" transform="translate(10.205638, 2.892919) scale(1, -1) translate(-10.205638, -2.892919) "></path>
                    <path d="M20.4112769,7.36636482 C20.4112769,7.55119153 20.4112769,6.97429536 20.4112769,5.63567631 C20.4112769,3.62774773 15.842057,2 10.2056385,2 C4.56921998,2 0,3.62774773 0,5.63567631 C0,6.27341031 0,6.85030648 0,7.36636482" id="Oval-Copy-13" transform="translate(10.205638, 4.700000) scale(1, -1) translate(-10.205638, -4.700000) "></path>
                </g>
                <g id="Group-16-Copy-2" transform="translate(1.200663, 11.800000)">
                    <path d="M18.745921,5.6 C19.2458389,5.36046363 19.5576934,5.18626055 19.6814845,5.07739075 C20.1522573,4.66336316 20.4112769,4.21132226 20.4112769,3.73794117 C20.4112769,1.74971607 15.842057,0.137941165 10.2056385,0.137941165 C4.56921998,0.137941165 0,1.74971607 0,3.73794117 C0,4.01756404 0.0903766748,4.28974094 0.261388201,4.55103546" id="Oval-Copy-3" transform="translate(10.205638, 2.868971) scale(1, -1) translate(-10.205638, -2.868971) "></path>
                    <path d="M20.4112769,7.36636482 C20.4112769,7.55119153 20.4112769,6.97429536 20.4112769,5.63567631 C20.4112769,3.62774773 15.842057,2 10.2056385,2 C4.56921998,2 0,3.62774773 0,5.63567631 C0,6.27341031 0,6.85030648 0,7.36636482" id="Oval-Copy-13" transform="translate(10.205638, 4.700000) scale(1, -1) translate(-10.205638, -4.700000) "></path>
                </g>
                <g id="Group-16-Copy-6" transform="translate(2.401327, 16.600000)">
                    <path d="M18.745921,5.6 C19.2458389,5.36046363 19.5576934,5.18626055 19.6814845,5.07739075 C20.1522573,4.66336316 20.4112769,4.21132226 20.4112769,3.73794117 C20.4112769,1.74971607 15.842057,0.137941165 10.2056385,0.137941165 C4.56921998,0.137941165 0,1.74971607 0,3.73794117 C0,4.01756404 0.0903766748,4.28974094 0.261388201,4.55103546" id="Oval-Copy-3" transform="translate(10.205638, 2.868971) scale(1, -1) translate(-10.205638, -2.868971) "></path>
                    <path d="M20.4112769,7.36636482 C20.4112769,7.55119153 20.4112769,6.97429536 20.4112769,5.63567631 C20.4112769,3.62774773 15.842057,2 10.2056385,2 C4.56921998,2 0,3.62774773 0,5.63567631 C0,6.27341031 0,6.85030648 0,7.36636482" id="Oval-Copy-13" transform="translate(10.205638, 4.700000) scale(1, -1) translate(-10.205638, -4.700000) "></path>
                </g>
                <g id="Group-16-Copy-7" transform="translate(11.111940, 30.200000) scale(-1, 1) translate(-11.111940, -30.200000) translate(0.611940, 26.200000)">
                    <path d="M18.745921,5.6 C19.2458389,5.36046363 19.5576934,5.18626055 19.6814845,5.07739075 C20.1522573,4.66336316 20.4112769,4.21132226 20.4112769,3.73794117 C20.4112769,1.74971607 15.842057,0.137941165 10.2056385,0.137941165 C4.56921998,0.137941165 0,1.74971607 0,3.73794117 C0,4.01756404 0.0903766748,4.28974094 0.261388201,4.55103546" id="Oval-Copy-3" transform="translate(10.205638, 2.868971) scale(1, -1) translate(-10.205638, -2.868971) "></path>
                    <path d="M20.4112769,7.36636482 C20.4112769,7.55119153 20.4112769,6.97429536 20.4112769,5.63567631 C20.4112769,3.62774773 15.842057,2 10.2056385,2 C4.56921998,2 0,3.62774773 0,5.63567631 C0,6.27341031 0,6.85030648 0,7.36636482" id="Oval-Copy-13" transform="translate(10.205638, 4.700000) scale(1, -1) translate(-10.205638, -4.700000) "></path>
                </g>
                <g id="Group-16-Copy-4" transform="translate(2.401327, 21.600000)">
                    <path d="M19.6814845,5.4 C20.1522573,4.98597242 20.4112769,4.53393151 20.4112769,4.06055042 C20.4112769,2.07232532 15.842057,0.460550417 10.2056385,0.460550417 C4.56921998,0.460550417 0,2.07232532 0,4.06055042 C0,4.52353627 0.247768675,4.96610888 0.699085357,5.37266958" id="Oval-Copy-3" transform="translate(10.205638, 2.930275) scale(1, -1) translate(-10.205638, -2.930275) "></path>
                    <path d="M20.4112769,7.16636482 C20.4112769,7.35119153 20.4112769,6.77429536 20.4112769,5.43567631 C20.4112769,3.42774773 15.842057,1.8 10.2056385,1.8 C4.56921998,1.8 0,3.42774773 0,5.43567631 C0,6.07341031 0,6.65030648 0,7.16636482" id="Oval-Copy-13" transform="translate(10.205638, 4.500000) scale(1, -1) translate(-10.205638, -4.500000) "></path>
                </g>
            </g>
        </g>
        <g id="Group-17-Copy-5" transform="translate(443.522388, 301.000000)" stroke="#000000" stroke-linecap="round" stroke-width="0.96">
            <g id="Group-16-Copy-5" transform="translate(23.792921, 11.379310)">
                <path d="M8.86719408,6.62068966 C13.7644102,6.62068966 17.7343882,5.13859779 17.7343882,3.31034483 C17.7343882,1.48209186 13.7644102,0 8.86719408,0 C3.96997802,0 0,1.48209186 0,3.31034483 C0,4.18134624 0.901059041,4.97378007 2.3741645,5.56481769" id="Oval-Copy-3" transform="translate(8.867194, 3.310345) scale(1, -1) translate(-8.867194, -3.310345) "></path>
                <path d="M17.7343882,8.24493317 C17.7343882,8.41488876 17.7343882,7.88440952 17.7343882,6.65349545 C17.7343882,4.80712435 13.7644102,3.31034483 8.86719408,3.31034483 C3.96997802,3.31034483 0,4.80712435 0,6.65349545 C0,7.23991753 0,7.77039677 0,8.24493317" id="Oval-Copy-13" transform="translate(8.867194, 5.793103) scale(1, -1) translate(-8.867194, -5.793103) "></path>
            </g>
            <g id="Group-21-Copy" transform="translate(10.820787, 9.000000) scale(-1, 1) translate(-10.820787, -9.000000) translate(0.820787, 0.000000)">
                <g id="Group-16" transform="translate(1.043199, 0.000000)">
                    <path d="M8.86719408,6.62068966 C13.7644102,6.62068966 17.7343882,5.13859779 17.7343882,3.31034483 C17.7343882,1.48209186 13.7644102,0 8.86719408,0 C3.96997802,0 0,1.48209186 0,3.31034483 C0,4.18134624 0.901059041,4.97378007 2.3741645,5.56481769" id="Oval-Copy-3" transform="translate(8.867194, 3.310345) scale(1, -1) translate(-8.867194, -3.310345) "></path>
                    <path d="M17.7343882,8.24493317 C17.7343882,8.41488876 17.7343882,7.88440952 17.7343882,6.65349545 C17.7343882,4.80712435 13.7644102,3.31034483 8.86719408,3.31034483 C3.96997802,3.31034483 0,4.80712435 0,6.65349545 C0,7.23991753 0,7.77039677 0,8.24493317" id="Oval-Copy-13" transform="translate(8.867194, 5.793103) scale(1, -1) translate(-8.867194, -5.793103) "></path>
                </g>
                <g id="Group-16-Copy" transform="translate(0.000000, 6.172414)">
                    <path d="M17.4231548,3.9436966 C17.6260729,3.68309227 17.7343882,3.40883443 17.7343882,3.12572235 C17.7343882,1.4117352 13.7644102,0.0222740739 8.86719408,0.0222740739 C3.96997802,0.0222740739 0,1.4117352 0,3.12572235 C0,3.52484808 0.215274423,3.9063762 0.607402031,4.25685956 C0.704069166,4.34326058 1.01046947,4.48752578 1.52660293,4.68965517" id="Oval-Copy-3" transform="translate(8.867194, 2.355965) scale(1, -1) translate(-8.867194, -2.355965) "></path>
                    <path d="M17.7343882,6.21238347 C17.7343882,6.37171684 17.7343882,5.87439255 17.7343882,4.72041061 C17.7343882,2.9894377 13.7644102,1.5862069 8.86719408,1.5862069 C3.96997802,1.5862069 0,2.9894377 0,4.72041061 C0,5.2701813 0,5.76750559 0,6.21238347" id="Oval-Copy-13" transform="translate(8.867194, 3.913793) scale(1, -1) translate(-8.867194, -3.913793) "></path>
                </g>
                <g id="Group-16-Copy-2" transform="translate(1.043199, 9.310345)">
                    <path d="M16.2874396,5.68965517 C16.7217945,5.48315831 16.99275,5.33298323 17.1003062,5.23912996 C17.5093383,4.88220962 17.7343882,4.49251919 17.7343882,4.08443204 C17.7343882,2.37044488 13.7644102,0.980983763 8.86719408,0.980983763 C3.96997802,0.980983763 0,2.37044488 0,4.08443204 C0,4.32548624 0.0785239962,4.5601215 0.227107782,4.7853754" id="Oval-Copy-3" transform="translate(8.867194, 3.335319) scale(1, -1) translate(-8.867194, -3.335319) "></path>
                    <path d="M17.7343882,7.21238347 C17.7343882,7.37171684 17.7343882,6.87439255 17.7343882,5.72041061 C17.7343882,3.9894377 13.7644102,2.5862069 8.86719408,2.5862069 C3.96997802,2.5862069 0,3.9894377 0,5.72041061 C0,6.2701813 0,6.76750559 0,7.21238347" id="Oval-Copy-13" transform="translate(8.867194, 4.913793) scale(1, -1) translate(-8.867194, -4.913793) "></path>
                </g>
            </g>
        </g>
        <g id="Group-17-Copy" transform="translate(89.126036, 308.200000)" stroke="#000000" stroke-linecap="round" stroke-width="1.08">
            <g id="Group-16-Copy-3" transform="translate(24.013267, 8.400000)">
                <path d="M10.2056385,7.68 C15.842057,7.68 20.4112769,5.96077344 20.4112769,3.84 C20.4112769,1.71922656 15.842057,0 10.2056385,0 C4.56921998,0 0,1.71922656 0,3.84 C0,4.85036164 1.03706795,5.76958488 2.73252895,6.45518852" id="Oval-Copy-3" transform="translate(10.205638, 3.840000) scale(1, -1) translate(-10.205638, -3.840000) "></path>
                <path d="M20.4112769,9.56412248 C20.4112769,9.76127097 20.4112769,9.14591505 20.4112769,7.71805473 C20.4112769,5.57626424 15.842057,3.84 10.2056385,3.84 C4.56921998,3.84 0,5.57626424 0,7.71805473 C0,8.39830433 0,9.01366025 0,9.56412248" id="Oval-Copy-13" transform="translate(10.205638, 6.720000) scale(1, -1) translate(-10.205638, -6.720000) "></path>
            </g>
            <g id="Group-16-Copy-5">
                <path d="M10.2056385,7.68 C15.842057,7.68 20.4112769,5.96077344 20.4112769,3.84 C20.4112769,1.71922656 15.842057,0 10.2056385,0 C4.56921998,0 0,1.71922656 0,3.84 C0,4.85036164 1.03706795,5.76958488 2.73252895,6.45518852" id="Oval-Copy-3" transform="translate(10.205638, 3.840000) scale(1, -1) translate(-10.205638, -3.840000) "></path>
                <path d="M20.4112769,9.56412248 C20.4112769,9.76127097 20.4112769,9.14591505 20.4112769,7.71805473 C20.4112769,5.57626424 15.842057,3.84 10.2056385,3.84 C4.56921998,3.84 0,5.57626424 0,7.71805473 C0,8.39830433 0,9.01366025 0,9.56412248" id="Oval-Copy-13" transform="translate(10.205638, 6.720000) scale(1, -1) translate(-10.205638, -6.720000) "></path>
            </g>
            <g id="Group-16-Copy-4" transform="translate(0.000000, 7.200000)">
                <path d="M19.6814845,5.4 C20.1522573,4.98597242 20.4112769,4.53393151 20.4112769,4.06055042 C20.4112769,2.07232532 15.842057,0.460550417 10.2056385,0.460550417 C4.56921998,0.460550417 0,2.07232532 0,4.06055042 C0,4.52353627 0.247768675,4.96610888 0.699085357,5.37266958" id="Oval-Copy-3" transform="translate(10.205638, 2.930275) scale(1, -1) translate(-10.205638, -2.930275) "></path>
                <path d="M20.4112769,7.16636482 C20.4112769,7.35119153 20.4112769,6.77429536 20.4112769,5.43567631 C20.4112769,3.42774773 15.842057,1.8 10.2056385,1.8 C4.56921998,1.8 0,3.42774773 0,5.43567631 C0,6.07341031 0,6.65030648 0,7.16636482" id="Oval-Copy-13" transform="translate(10.205638, 4.500000) scale(1, -1) translate(-10.205638, -4.500000) "></path>
            </g>
        </g>
        <g id="Group-17-Copy-6" transform="translate(464.933665, 157.000000)" stroke="#000000" stroke-linecap="round" stroke-width="1.08">
            <g id="Group-16-Copy-3" transform="translate(25.213930, 7.200000)">
                <path d="M10.2056385,7.68 C15.842057,7.68 20.4112769,5.96077344 20.4112769,3.84 C20.4112769,1.71922656 15.842057,0 10.2056385,0 C4.56921998,0 0,1.71922656 0,3.84 C0,4.85036164 1.03706795,5.76958488 2.73252895,6.45518852" id="Oval-Copy-3" transform="translate(10.205638, 3.840000) scale(1, -1) translate(-10.205638, -3.840000) "></path>
                <path d="M20.4112769,9.56412248 C20.4112769,9.76127097 20.4112769,9.14591505 20.4112769,7.71805473 C20.4112769,5.57626424 15.842057,3.84 10.2056385,3.84 C4.56921998,3.84 0,5.57626424 0,7.71805473 C0,8.39830433 0,9.01366025 0,9.56412248" id="Oval-Copy-13" transform="translate(10.205638, 6.720000) scale(1, -1) translate(-10.205638, -6.720000) "></path>
            </g>
            <g id="Group-16-Copy-5">
                <path d="M10.2056385,7.68 C15.842057,7.68 20.4112769,5.96077344 20.4112769,3.84 C20.4112769,1.71922656 15.842057,0 10.2056385,0 C4.56921998,0 0,1.71922656 0,3.84 C0,4.85036164 1.03706795,5.76958488 2.73252895,6.45518852" id="Oval-Copy-3" transform="translate(10.205638, 3.840000) scale(1, -1) translate(-10.205638, -3.840000) "></path>
                <path d="M20.4112769,9.56412248 C20.4112769,9.76127097 20.4112769,9.14591505 20.4112769,7.71805473 C20.4112769,5.57626424 15.842057,3.84 10.2056385,3.84 C4.56921998,3.84 0,5.57626424 0,7.71805473 C0,8.39830433 0,9.01366025 0,9.56412248" id="Oval-Copy-13" transform="translate(10.205638, 6.720000) scale(1, -1) translate(-10.205638, -6.720000) "></path>
            </g>
            <g id="Group-16-Copy-4" transform="translate(0.000000, 7.200000)">
                <path d="M19.6814845,5.4 C20.1522573,4.98597242 20.4112769,4.53393151 20.4112769,4.06055042 C20.4112769,2.07232532 15.842057,0.460550417 10.2056385,0.460550417 C4.56921998,0.460550417 0,2.07232532 0,4.06055042 C0,4.52353627 0.247768675,4.96610888 0.699085357,5.37266958" id="Oval-Copy-3" transform="translate(10.205638, 2.930275) scale(1, -1) translate(-10.205638, -2.930275) "></path>
                <path d="M20.4112769,7.16636482 C20.4112769,7.35119153 20.4112769,6.77429536 20.4112769,5.43567631 C20.4112769,3.42774773 15.842057,1.8 10.2056385,1.8 C4.56921998,1.8 0,3.42774773 0,5.43567631 C0,6.07341031 0,6.65030648 0,7.16636482" id="Oval-Copy-13" transform="translate(10.205638, 4.500000) scale(1, -1) translate(-10.205638, -4.500000) "></path>
            </g>
            <g id="Group-16-Copy-8" transform="translate(0.000000, 12.000000)">
                <path d="M19.6814845,5.4 C20.1522573,4.98597242 20.4112769,4.53393151 20.4112769,4.06055042 C20.4112769,2.07232532 15.842057,0.460550417 10.2056385,0.460550417 C4.56921998,0.460550417 0,2.07232532 0,4.06055042 C0,4.52353627 0.247768675,4.96610888 0.699085357,5.37266958" id="Oval-Copy-3" transform="translate(10.205638, 2.930275) scale(1, -1) translate(-10.205638, -2.930275) "></path>
                <path d="M20.4112769,7.16636482 C20.4112769,7.35119153 20.4112769,6.77429536 20.4112769,5.43567631 C20.4112769,3.42774773 15.842057,1.8 10.2056385,1.8 C4.56921998,1.8 0,3.42774773 0,5.43567631 C0,6.07341031 0,6.65030648 0,7.16636482" id="Oval-Copy-13" transform="translate(10.205638, 4.500000) scale(1, -1) translate(-10.205638, -4.500000) "></path>
            </g>
        </g>
        <g id="Group-17-Copy-2" transform="translate(210.906302, 219.800000) scale(-1, 1) translate(-210.906302, -219.800000) translate(187.406302, 209.800000)" stroke="#000000" stroke-linecap="round" stroke-width="1.2">
            <g id="Group-16">
                <path d="M10.2056385,7.68 C15.842057,7.68 20.4112769,5.96077344 20.4112769,3.84 C20.4112769,1.71922656 15.842057,0 10.2056385,0 C4.56921998,0 0,1.71922656 0,3.84 C0,4.85036164 1.03706795,5.76958488 2.73252895,6.45518852" id="Oval-Copy-3" transform="translate(10.205638, 3.840000) scale(1, -1) translate(-10.205638, -3.840000) "></path>
                <path d="M20.4112769,9.56412248 C20.4112769,9.76127097 20.4112769,9.14591505 20.4112769,7.71805473 C20.4112769,5.57626424 15.842057,3.84 10.2056385,3.84 C4.56921998,3.84 0,5.57626424 0,7.71805473 C0,8.39830433 0,9.01366025 0,9.56412248" id="Oval-Copy-13" transform="translate(10.205638, 6.720000) scale(1, -1) translate(-10.205638, -6.720000) "></path>
            </g>
            <g id="Group-16-Copy" transform="translate(0.000000, 7.200000)">
                <path d="M19.6814845,5.4 C20.1522573,4.98597242 20.4112769,4.53393151 20.4112769,4.06055042 C20.4112769,2.07232532 15.842057,0.460550417 10.2056385,0.460550417 C4.56921998,0.460550417 0,2.07232532 0,4.06055042 C0,4.52353627 0.247768675,4.96610888 0.699085357,5.37266958" id="Oval-Copy-3" transform="translate(10.205638, 2.930275) scale(1, -1) translate(-10.205638, -2.930275) "></path>
                <path d="M20.4112769,7.16636482 C20.4112769,7.35119153 20.4112769,6.77429536 20.4112769,5.43567631 C20.4112769,3.42774773 15.842057,1.8 10.2056385,1.8 C4.56921998,1.8 0,3.42774773 0,5.43567631 C0,6.07341031 0,6.65030648 0,7.16636482" id="Oval-Copy-13" transform="translate(10.205638, 4.500000) scale(1, -1) translate(-10.205638, -4.500000) "></path>
            </g>
            <g id="Group-16-Copy-5" transform="translate(25.213930, 4.800000)">
                <path d="M10.2056385,7.68 C15.842057,7.68 20.4112769,5.96077344 20.4112769,3.84 C20.4112769,1.71922656 15.842057,0 10.2056385,0 C4.56921998,0 0,1.71922656 0,3.84 C0,4.85036164 1.03706795,5.76958488 2.73252895,6.45518852" id="Oval-Copy-3" transform="translate(10.205638, 3.840000) scale(1, -1) translate(-10.205638, -3.840000) "></path>
                <path d="M20.4112769,9.56412248 C20.4112769,9.76127097 20.4112769,9.14591505 20.4112769,7.71805473 C20.4112769,5.57626424 15.842057,3.84 10.2056385,3.84 C4.56921998,3.84 0,5.57626424 0,7.71805473 C0,8.39830433 0,9.01366025 0,9.56412248" id="Oval-Copy-13" transform="translate(10.205638, 6.720000) scale(1, -1) translate(-10.205638, -6.720000) "></path>
            </g>
            <g id="Group-16-Copy-4" transform="translate(25.213930, 12.000000)">
                <path d="M19.6814845,5.4 C20.1522573,4.98597242 20.4112769,4.53393151 20.4112769,4.06055042 C20.4112769,2.07232532 15.842057,0.460550417 10.2056385,0.460550417 C4.56921998,0.460550417 0,2.07232532 0,4.06055042 C0,4.52353627 0.247768675,4.96610888 0.699085357,5.37266958" id="Oval-Copy-3" transform="translate(10.205638, 2.930275) scale(1, -1) translate(-10.205638, -2.930275) "></path>
                <path d="M20.4112769,7.16636482 C20.4112769,7.35119153 20.4112769,6.77429536 20.4112769,5.43567631 C20.4112769,3.42774773 15.842057,1.8 10.2056385,1.8 C4.56921998,1.8 0,3.42774773 0,5.43567631 C0,6.07341031 0,6.65030648 0,7.16636482" id="Oval-Copy-13" transform="translate(10.205638, 4.500000) scale(1, -1) translate(-10.205638, -4.500000) "></path>
            </g>
            <g id="Group-16-Copy-2" transform="translate(0.000000, 12.000000)">
                <path d="M19.6814845,5.4 C20.1522573,4.98597242 20.4112769,4.53393151 20.4112769,4.06055042 C20.4112769,2.07232532 15.842057,0.460550417 10.2056385,0.460550417 C4.56921998,0.460550417 0,2.07232532 0,4.06055042 C0,4.52353627 0.247768675,4.96610888 0.699085357,5.37266958" id="Oval-Copy-3" transform="translate(10.205638, 2.930275) scale(1, -1) translate(-10.205638, -2.930275) "></path>
                <path d="M20.4112769,7.16636482 C20.4112769,7.35119153 20.4112769,6.77429536 20.4112769,5.43567631 C20.4112769,3.42774773 15.842057,1.8 10.2056385,1.8 C4.56921998,1.8 0,3.42774773 0,5.43567631 C0,6.07341031 0,6.65030648 0,7.16636482" id="Oval-Copy-13" transform="translate(10.205638, 4.500000) scale(1, -1) translate(-10.205638, -4.500000) "></path>
            </g>
        </g>
        <g id="Group-23" transform="translate(250.014925, 0.800000)">
            <path d="M314.985075,0.6 L314.985075,61.8496805 C314.985075,75.7672562 303.70265,87.0496805 289.785075,87.0496805 L3.60199005,87.0496805" id="Path-3-Copy-46" stroke="url(#linearGradient-1)" stroke-width="1.2" stroke-linecap="round"  class="noDraw" stroke-dasharray="4.8" transform="translate(159.293532, 43.824840) scale(-1, -1) translate(-159.293532, -43.824840) "></path>
            <path d="M314.985075,0.6 L314.985075,61.8496805 C314.985075,75.7672562 303.70265,87.0496805 289.785075,87.0496805 L3.60199005,87.0496805" id="Path-3-Copy-48" class="reverse" stroke="#FFFFFF" stroke-width="2" stroke-linecap="round" transform="translate(159.293532, 43.824840) scale(-1, -1) translate(-159.293532, -43.824840) "></path>
            <path d="M3.60199005,116.22484 L3.60199005,92.6" id="Path-3-Copy-47" stroke="#000000" stroke-width="1.2" stroke-linecap="round" transform="translate(3.601990, 104.412420) scale(-1, -1) translate(-3.601990, -104.412420) "></path>
            <ellipse id="Oval-4" fill="#F1AE10" cx="3.60199005" cy="125" rx="3.60199005" ry="3.6"></ellipse>
        </g>
        <g id="Group-23-Copy" transform="translate(253.014925, 302.200000)">
            <path d="M0.60199005,0.0729934538 L0.60199005,28.0762972 C0.60199005,41.8834159 11.7948713,53.0762972 25.60199,53.0762972 L307.267085,53.0762972 C321.074203,53.0762972 332.267085,64.2691784 332.267085,78.0762972 L332.267085,135.83578" id="Path-3-Copy-46" stroke="#000000" stroke-width="1.2" stroke-linecap="round"  class="noDraw" stroke-dasharray="4.8" transform="translate(166.434537, 67.954387) scale(-1, -1) translate(-166.434537, -67.954387) "></path>
            <path d="M0.60199005,0.0729934538 L0.60199005,28.0762972 C0.60199005,41.8834159 11.7948713,53.0762972 25.60199,53.0762972 L307.267085,53.0762972 C321.074203,53.0762972 332.267085,64.2691784 332.267085,78.0762972 L332.267085,135.83578" id="Path-3-Copy-49" class="reverse" stroke="#FFFFFF" stroke-width="2" stroke-linecap="round" transform="translate(166.434537, 67.954387) scale(-1, -1) translate(-166.434537, -67.954387) "></path>
            <path d="M332.200663,165.62484 L332.200663,142" id="Path-3-Copy-47" stroke="#000000" stroke-width="1.2" stroke-linecap="round" transform="translate(332.200663, 153.812420) scale(-1, -1) translate(-332.200663, -153.812420) "></path>
            <ellipse id="Oval-4" fill="#1BD4A5" cx="331.60199" cy="173.6" rx="3.60199005" ry="3.6"></ellipse>
        </g>
        <g id="Group-16-Copy-3" transform="translate(59.109453, 161.800000)" stroke="#000000" stroke-linecap="round" stroke-width="1.2">
            <path d="M10.2056385,7.68 C15.842057,7.68 20.4112769,5.96077344 20.4112769,3.84 C20.4112769,1.71922656 15.842057,0 10.2056385,0 C4.56921998,0 0,1.71922656 0,3.84 C0,4.85036164 1.03706795,5.76958488 2.73252895,6.45518852" id="Oval-Copy-3" transform="translate(10.205638, 3.840000) scale(1, -1) translate(-10.205638, -3.840000) "></path>
            <path d="M20.4112769,9.56412248 C20.4112769,9.76127097 20.4112769,9.14591505 20.4112769,7.71805473 C20.4112769,5.57626424 15.842057,3.84 10.2056385,3.84 C4.56921998,3.84 0,5.57626424 0,7.71805473 C0,8.39830433 0,9.01366025 0,9.56412248" id="Oval-Copy-13" transform="translate(10.205638, 6.720000) scale(1, -1) translate(-10.205638, -6.720000) "></path>
        </g>
        <path d="M412.104478,151 C349.987348,114.708945 304.762362,111.343907 276.429519,140.904884" id="Path-5" stroke="#000000" stroke-width="0.6" stroke-linecap="round" stroke-linejoin="round"  class="noDraw" stroke-dasharray="2.4,6"></path>
        <path d="M585,206.2 C545.863178,179 504.240182,179 460.131012,206.2" id="Path-5-Copy-9" stroke="url(#linearGradient-2)" stroke-width="0.6" stroke-linecap="round" stroke-linejoin="round"  class="noDraw" stroke-dasharray="2.4,6" transform="translate(522.565506, 196.000000) scale(1, -1) translate(-522.565506, -196.000000) "></path>
        <path d="M215.195688,138.274728 C180.558025,121.454254 148.540335,125.696012 119.14262,151" id="Path-5-Copy-2" stroke="#000000" stroke-width="0.6" stroke-linecap="round" stroke-linejoin="round"  class="noDraw" stroke-dasharray="2.4,6" transform="translate(167.169154, 139.600000) scale(-1, 1) translate(-167.169154, -139.600000) "></path>
        <path d="M92.7280265,174.677689 C133.65267,161.677562 170.873234,176.984999 204.389718,220.6" id="Path-5-Copy-4" stroke="#000000" stroke-width="0.6" stroke-linecap="round" stroke-linejoin="round"  class="noDraw" stroke-dasharray="2.4,6" transform="translate(148.558872, 195.400000) scale(-1, 1) translate(-148.558872, -195.400000) "></path>
        <path d="M170.771144,223 C135.264847,213.921385 108.930332,201.106415 91.7676016,184.555091 C58.6594243,152.626362 22.6417527,141.291681 -16.2854133,150.551048" id="Path-5-Copy-12" stroke="url(#linearGradient-3)" stroke-width="0.6" stroke-linecap="round" stroke-linejoin="round"  class="noDraw" stroke-dasharray="2.4,6" transform="translate(77.242865, 185.214347) scale(-1, -1) translate(-77.242865, -185.214347) "></path>
        <path d="M531.27632,169.170687 C491.109083,176.193975 456.582828,161.481862 427.697555,125.034347 C388.939345,76.1291327 345.802851,55.5342824 298.288073,63.249796" id="Path-5-Copy-13" stroke="url(#linearGradient-4)" stroke-width="0.6" stroke-linecap="round" stroke-linejoin="round"  class="noDraw" stroke-dasharray="2.4,6" transform="translate(414.782196, 116.272746) rotate(-40.000000) translate(-414.782196, -116.272746) "></path>
        <path d="M-33.3416252,257.10002 C-2.12369905,242.801276 30.2942114,257.434603 63.9121061,301" id="Path-5-Copy-8" stroke="url(#linearGradient-5)" stroke-width="0.6" stroke-linecap="round" stroke-linejoin="round"  class="noDraw" stroke-dasharray="2.4,6" transform="translate(15.285240, 276.400000) scale(1, -1) translate(-15.285240, -276.400000) "></path>
        <path d="M-41.7462687,181.647258 C4.92486768,173.370362 38.1432204,181.95461 57.9087894,207.4" id="Path-5-Copy-7" stroke="url(#linearGradient-6)" stroke-width="0.6" stroke-linecap="round" stroke-linejoin="round"  class="noDraw" stroke-dasharray="2.4,6" transform="translate(8.081260, 193.000000) scale(1, -1) translate(-8.081260, -193.000000) "></path>
        <path d="M440.920398,250.6 C403.729349,187.385851 358.904584,163.814843 306.446103,179.886976" id="Path-5-Copy-5" stroke="#000000" stroke-width="0.6" stroke-linecap="round" stroke-linejoin="round"  class="noDraw" stroke-dasharray="2.4,6"></path>
        <path d="M373.68325,267.645768 C345.004965,256.652935 321.39192,260.171013 302.844113,278.2" id="Path-5-Copy" stroke="#000000" stroke-width="0.6" stroke-linecap="round" stroke-linejoin="round"  class="noDraw" stroke-dasharray="2.4,6" transform="translate(338.263682, 269.800000) scale(1, -1) translate(-338.263682, -269.800000) "></path>
        <path d="M485.344942,242.289517 C452.082888,237.173008 428.069621,239.943169 413.305141,250.6" id="Path-5-Copy-6" stroke="url(#linearGradient-7)" stroke-width="0.6" stroke-linecap="round" stroke-linejoin="round"  class="noDraw" stroke-dasharray="2.4,6"></path>
        <path d="M538.174129,294.716653 C504.685884,289.781676 481.072838,293.476124 467.334992,305.8" id="Path-5-Copy-11" stroke="url(#linearGradient-8)" stroke-width="0.6" stroke-linecap="round" stroke-linejoin="round"  class="noDraw" stroke-dasharray="2.4,6" transform="translate(502.754561, 299.200000) scale(1, -1) translate(-502.754561, -299.200000) "></path>
        <path d="M236.807629,244.6 C195.217526,246.751417 168.402711,258.751417 156.363184,280.6" id="Path-5-Copy-3" stroke="#000000" stroke-width="0.6" stroke-linecap="round" stroke-linejoin="round"  class="noDraw" stroke-dasharray="2.4,6" transform="translate(196.585406, 262.600000) scale(-1, -1) translate(-196.585406, -262.600000) "></path>
        <path d="M27.8922056,321.4 C39.9317328,299.551417 66.7465476,287.551417 108.33665,285.4" id="Path-5-Copy-10" stroke="url(#linearGradient-9)" stroke-width="0.6" stroke-linecap="round" stroke-linejoin="round"  class="noDraw" stroke-dasharray="2.4,6"></path>
        <path d="M412.104478,151 C349.987348,114.708945 304.762362,111.343907 276.429519,140.904884" id="Path-5-Copy-27" class="reverse" stroke="#FFFFFF" stroke-width="2" stroke-linecap="round" stroke-linejoin="round"></path>
        <path d="M585,206.2 C545.863178,179 504.240182,179 460.131012,206.2" id="Path-5-Copy-26" class="reverse" stroke="#FFFFFF" stroke-width="2" stroke-linecap="round" stroke-linejoin="round" transform="translate(522.565506, 196.000000) scale(1, -1) translate(-522.565506, -196.000000) "></path>
        <path d="M215.195688,138.274728 C180.558025,121.454254 148.540335,125.696012 119.14262,151" id="Path-5-Copy-25" class="reverse" stroke="#FFFFFF" stroke-width="2" stroke-linecap="round" stroke-linejoin="round" transform="translate(167.169154, 139.600000) scale(-1, 1) translate(-167.169154, -139.600000) "></path>
        <path d="M92.7280265,174.677689 C133.65267,161.677562 170.873234,176.984999 204.389718,220.6" id="Path-5-Copy-24" class="reverse" stroke="#FFFFFF" stroke-width="2" stroke-linecap="round" stroke-linejoin="round" transform="translate(148.558872, 195.400000) scale(-1, 1) translate(-148.558872, -195.400000) "></path>
        <path d="M170.771144,223 C135.264847,213.921385 108.930332,201.106415 91.7676016,184.555091 C58.6594243,152.626362 22.6417527,141.291681 -16.2854133,150.551048" id="Path-5-Copy-23" class="reverse" stroke="#FFFFFF" stroke-width="2" stroke-linecap="round" stroke-linejoin="round" transform="translate(77.242865, 185.214347) scale(-1, -1) translate(-77.242865, -185.214347) "></path>
        <path d="M531.27632,169.170687 C491.109083,176.193975 456.582828,161.481862 427.697555,125.034347 C388.939345,76.1291327 345.802851,55.5342824 298.288073,63.249796" id="Path-5-Copy-22" class="reverse" stroke="#FFFFFF" stroke-width="2" stroke-linecap="round" stroke-linejoin="round" transform="translate(414.782196, 116.272746) rotate(-40.000000) translate(-414.782196, -116.272746) "></path>
        <path d="M-33.3416252,257.10002 C-2.12369905,242.801276 30.2942114,257.434603 63.9121061,301" id="Path-5-Copy-21" class="reverse" stroke="#FFFFFF" stroke-width="2" stroke-linecap="round" stroke-linejoin="round" transform="translate(15.285240, 276.400000) scale(1, -1) translate(-15.285240, -276.400000) "></path>
        <path d="M-41.7462687,181.647258 C4.92486768,173.370362 38.1432204,181.95461 57.9087894,207.4" id="Path-5-Copy-20" class="reverse" stroke="#FFFFFF" stroke-width="2" stroke-linecap="round" stroke-linejoin="round" transform="translate(8.081260, 193.000000) scale(1, -1) translate(-8.081260, -193.000000) "></path>
        <path d="M440.920398,250.6 C403.729349,187.385851 358.904584,163.814843 306.446103,179.886976" id="Path-5-Copy-19" class="reverse" stroke="#FFFFFF" stroke-width="2" stroke-linecap="round" stroke-linejoin="round"></path>
        <path d="M373.68325,267.645768 C345.004965,256.652935 321.39192,260.171013 302.844113,278.2" id="Path-5-Copy-18" class="reverse" stroke="#FFFFFF" stroke-width="2" stroke-linecap="round" stroke-linejoin="round" transform="translate(338.263682, 269.800000) scale(1, -1) translate(-338.263682, -269.800000) "></path>
        <path d="M485.344942,242.289517 C452.082888,237.173008 428.069621,239.943169 413.305141,250.6" id="Path-5-Copy-17" class="reverse" stroke="#FFFFFF" stroke-width="2" stroke-linecap="round" stroke-linejoin="round"></path>
        <path d="M538.174129,294.716653 C504.685884,289.781676 481.072838,293.476124 467.334992,305.8" id="Path-5-Copy-16" class="reverse" stroke="#FFFFFF" stroke-width="2" stroke-linecap="round" stroke-linejoin="round" transform="translate(502.754561, 299.200000) scale(1, -1) translate(-502.754561, -299.200000) "></path>
        <path d="M236.807629,244.6 C195.217526,246.751417 168.402711,258.751417 156.363184,280.6" id="Path-5-Copy-15" class="reverse" stroke="#FFFFFF" stroke-width="2" stroke-linecap="round" stroke-linejoin="round" transform="translate(196.585406, 262.600000) scale(-1, -1) translate(-196.585406, -262.600000) "></path>
        <path d="M27.8922056,321.4 C39.9317328,299.551417 66.7465476,287.551417 108.33665,285.4" id="Path-5-Copy-14" class="reverse" stroke="#FFFFFF" stroke-width="2" stroke-linecap="round" stroke-linejoin="round"></path>
        <g id="Group-27" transform="translate(252.616915, 242.200000)" stroke="#000000" stroke-linecap="round">
            <g id="Group-16-Copy-3" transform="translate(1.000000, 0.000000)">
                <path d="M18.0099502,13.2 C27.9565711,13.2 36.0199005,10.2450793 36.0199005,6.6 C36.0199005,2.95492065 27.9565711,0 18.0099502,0 C8.06332938,0 0,2.95492065 0,6.6 C0,8.33655907 1.83011992,9.91647401 4.82210992,11.0948553" id="Oval-Copy-3" stroke-width="1.2" transform="translate(18.009950, 6.600000) scale(1, -1) translate(-18.009950, -6.600000) "></path>
                <g id="Group" transform="translate(9.009312, 2.520648)" stroke-width="0.9">
                    <ellipse id="Oval-Copy-3" transform="translate(8.500000, 4.250000) rotate(-1.000000) translate(-8.500000, -4.250000) " cx="8.5" cy="4.25" rx="7.5" ry="2.25"></ellipse>
                    <path d="M11.7710581,-0.851149589 L11.7710581,-0.851149589 C13.2103815,0.147589779 14.0819477,1.77726288 14.1135394,3.52887182 L14.1550804,5.8321186 C14.182518,7.35339914 14.8845824,8.78381489 16.0712218,9.7361459" id="Path-9" transform="translate(13.921140, 4.442498) rotate(110.000000) translate(-13.921140, -4.442498) "></path>
                </g>
                <path d="M36.0199005,16.7364669 C36.0199005,17.085584 36.0199005,15.9958912 36.0199005,13.4673886 C36.0199005,9.6746346 27.9565711,6.6 18.0099502,6.6 C8.06332938,6.6 0,9.6746346 0,13.4673886 C0,14.6719973 0,15.76169 0,16.7364669" id="Oval-Copy-13" stroke-width="1.2" transform="translate(18.009950, 11.700000) scale(1, -1) translate(-18.009950, -11.700000) "></path>
            </g>
            <g id="Group-25" transform="translate(0.000000, 12.000000)" stroke-width="1.2">
                <g id="Group-16-Copy" transform="translate(19.720564, 6.000000) scale(-1, 1) translate(-19.720564, -6.000000) translate(1.220564, 0.000000)">
                    <path d="M35.3877617,7.88724938 C35.7999038,7.36470047 36.0199005,6.81477432 36.0199005,6.24709416 C36.0199005,2.81030506 27.9565711,0.0242370157 18.0099502,0.0242370157 C8.06332938,0.0242370157 0,2.81030506 0,6.24709416 C0,7.04739827 0.437238838,7.81241664 1.23368004,8.51518586 C1.33777223,8.60703544 1.56159894,8.73149729 1.90516018,8.88857143" id="Oval-Copy-3" transform="translate(18.009950, 4.456404) scale(1, -1) translate(-18.009950, -4.456404) "></path>
                    <path d="M36.0199005,11.9418592 C36.0199005,12.2613454 36.0199005,11.2641391 36.0199005,8.95024047 C36.0199005,5.4793925 27.9565711,2.66571429 18.0099502,2.66571429 C8.06332938,2.66571429 0,5.4793925 0,8.95024047 C0,10.0526093 0,11.0498155 0,11.9418592" id="Oval-Copy-13" transform="translate(18.009950, 7.332857) scale(1, -1) translate(-18.009950, -7.332857) "></path>
                </g>
                <g id="Group-16-Copy-2" transform="translate(18.519900, 13.700000) scale(-1, 1) translate(-18.519900, -13.700000) translate(0.019900, 7.200000)">
                    <path d="M34.7320315,9.19090909 C35.5628069,8.4569511 36.0199005,7.65560586 36.0199005,6.81643028 C36.0199005,3.29184943 27.9565711,0.434612103 18.0099502,0.434612103 C8.06332938,0.434612103 0,3.29184943 0,6.81643028 C0,7.31212538 0.15948825,7.79462079 0.461273297,8.25782472" id="Oval-Copy-3" transform="translate(18.009950, 4.812761) scale(1, -1) translate(-18.009950, -4.812761) "></path>
                    <path d="M36.0199005,12.3221922 C36.0199005,12.6498395 36.0199005,11.62716 36.0199005,9.25415345 C36.0199005,5.6946437 27.9565711,2.80909091 18.0099502,2.80909091 C8.06332938,2.80909091 0,5.6946437 0,9.25415345 C0,10.3846819 0,11.4073615 0,12.3221922" id="Oval-Copy-13" transform="translate(18.009950, 7.595455) scale(1, -1) translate(-18.009950, -7.595455) "></path>
                </g>
            </g>
        </g>
        <g id="Group-16-Copy-9" transform="translate(173.481758, 201.000000) scale(-1, 1) translate(-173.481758, -201.000000) translate(156.981758, 193.000000)" stroke="#000000" stroke-linecap="round">
            <path d="M16.2089552,12.2571429 C25.160914,12.2571429 32.4179104,9.51328797 32.4179104,6.12857143 C32.4179104,2.74385489 25.160914,-5.68434189e-14 16.2089552,-5.68434189e-14 C7.25699644,-5.68434189e-14 0,2.74385489 0,6.12857143 C0,7.74109056 1.64710792,9.20815444 4.33989893,10.3023656" id="Oval-Copy-3" stroke-width="1.08" transform="translate(16.208955, 6.128571) scale(1, -1) translate(-16.208955, -6.128571) "></path>
            <g id="Group" transform="translate(14.981758, 6.000000) scale(-1, 1) translate(-14.981758, -6.000000) translate(6.481758, 2.500000)" stroke-width="0.9">
                <ellipse id="Oval-Copy-3" transform="translate(7.225000, 3.612500) rotate(-2.000000) translate(-7.225000, -3.612500) " cx="7.225" cy="3.6125" rx="6.375" ry="1.9125"></ellipse>
                <path d="M10.177017,-0.534388759 L10.177017,-0.534388759 C11.3688156,0.318366818 12.1011058,1.67279188 12.1620013,3.13698714 L12.2327565,4.83825134 C12.2855993,6.10882483 12.8479744,7.30456247 13.7929396,8.15555609" id="Path-9" transform="translate(11.984978, 3.810584) rotate(110.000000) translate(-11.984978, -3.810584) "></path>
            </g>
            <path d="M32.4179104,15.541005 C32.4179104,15.8651851 32.4179104,14.8533276 32.4179104,12.5054323 C32.4179104,8.98358927 25.160914,6.12857143 16.2089552,6.12857143 C7.25699644,6.12857143 0,8.98358927 0,12.5054323 C0,13.6239975 0,14.635855 0,15.541005" id="Oval-Copy-13" stroke-width="1.08" transform="translate(16.208955, 10.864286) scale(1, -1) translate(-16.208955, -10.864286) "></path>
        </g>
        <path d="M272.351642,186.485533 C269.61488,174.08743 269.273427,160.242231 252.372232,158.67204 C235.471038,157.101849 232.678831,175.169309 235.532314,185.479634 C238.385797,195.789959 241.780885,204.671747 252.019821,208.017472 C262.258758,211.363196 276.45169,205.059604 272.351642,186.485533 Z" id="Oval-Copy-15" stroke="#000000" stroke-width="1.2" stroke-linecap="round" transform="translate(253.817307, 183.725188) rotate(20.000000) translate(-253.817307, -183.725188) "></path>
        <path d="M245.947422,179.800146 C245.141406,179.591098 243.9178,179.834728 242.276602,180.531036" id="Path-3-Copy-17" stroke="#000000" stroke-linecap="round" transform="translate(244.112012, 180.227742) rotate(-7.000000) translate(-244.112012, -180.227742) "></path>
        <path d="M265.388182,180.183887 C264.359423,179.443254 262.850557,179.718765 260.861583,181.01042" id="Path-3-Copy-18" stroke="#000000" stroke-linecap="round" transform="translate(263.124883, 180.394720) rotate(33.000000) translate(-263.124883, -180.394720) "></path>
        <path d="M256.395708,203.468912 C256.66303,204.299638 256.20572,205.098782 255.023779,205.866343" id="Path-3-Copy-24" stroke="#000000" stroke-width="0.8" stroke-linecap="round" transform="translate(255.746725, 204.667628) rotate(33.000000) translate(-255.746725, -204.667628) "></path>
        <path d="M260.108645,155.806816 C256.422233,166.444982 250.679318,173.333396 242.8799,176.472055" id="Path-3-Copy-21" stroke="#000000" stroke-width="1.4" stroke-linecap="round" transform="translate(251.494273, 166.139435) rotate(33.000000) translate(-251.494273, -166.139435) "></path>
        <path d="M271.694088,169.709735 C265.554217,174.111088 260.739186,174.339052 257.248995,170.393627" id="Path-3-Copy-22" stroke="#000000" stroke-width="1.4" stroke-linecap="round" transform="translate(264.471542, 171.450398) rotate(33.000000) translate(-264.471542, -171.450398) "></path>
        <path d="M267.497434,158.773561 C265.949027,159.063264 265.239649,160.37081 265.369299,162.696197" id="Path-3-Copy-25" stroke="#000000" stroke-width="1.2" stroke-linecap="round" transform="translate(266.425854, 160.734879) rotate(33.000000) translate(-266.425854, -160.734879) "></path>
        <path d="M264.158194,158.153205 C265.065067,158.887867 265.530021,160.073972 265.553057,161.71152" id="Path-3-Copy-26" stroke="#000000" stroke-width="1.2" stroke-linecap="round" transform="translate(264.855625, 159.932362) rotate(33.000000) translate(-264.855625, -159.932362) "></path>
        <ellipse id="Oval" fill="#000000" cx="245.4" cy="184.441775" rx="1.39999998" ry="1.40220339"></ellipse>
        <circle id="Oval-Copy" fill="#000000" cx="262.4" cy="184.4" r="1.39999998"></circle>
        <path d="M258.852866,195.158424 C258.457481,199.222199 256.234942,201.55313 252.185248,202.151214" id="Path-3-Copy-19" stroke="#000000" stroke-width="1.4" stroke-linecap="round" transform="translate(255.519057, 198.654819) rotate(33.000000) translate(-255.519057, -198.654819) "></path>
        <path d="M257.341655,189.862638 C253.449987,193.787044 253.713982,191.091378 252.21497,187.353007 C251.916412,186.608434 250.825855,185.405823 248.9433,183.745172" id="Path-3-Copy-20" stroke="#000000" stroke-linecap="round" transform="translate(253.142478, 187.767401) rotate(33.000000) translate(-253.142478, -187.767401) "></path>
        <path d="M269.295945,222.555571 C270.025384,221.718598 270.426202,220.806382 270.426202,219.851684 C270.426202,216.36774 265.088466,213.449532 257.921593,212.68922 C257.128442,212.605077 255.050917,210.042004 251.689016,205 C252.238224,210.017768 252.238224,212.546169 251.689016,212.585204 C243.937882,213.136112 238.008292,216.179666 238.008292,219.851684 C238.008292,220.978215 238.566379,222.045597 239.563934,223" id="Oval-6" stroke="#000000" stroke-width="1.2" stroke-linecap="round" stroke-linejoin="round" transform="translate(254.217247, 214.000000) scale(1, -1) translate(-254.217247, -214.000000) "></path>
        <g id="Group-23" transform="translate(421.000000, 137.000000)">
            <path d="M7.34308315,29.4325943 C13.987847,26.8182365 19.7100868,26.0810773 24.5098024,27.2211168 L24.5098042,27.2211093 C26.8372552,27.7739309 28.6139297,29.6564858 29.0312487,32.0120079 L29.5340723,34.850153 C29.9756966,37.3428646 30.020157,39.8897513 29.6658046,42.3963582 L29.5840796,42.9744618 C29.1822501,45.8169103 27.9378293,48.4737199 26.0113953,50.6020603 L25.9112573,50.7126935 C23.9933897,52.8315696 21.1700392,53.8934035 18.3312013,53.5634768 L18.0480327,53.5305672 C14.9460941,53.1700632 12.0754565,51.711762 9.95498845,49.419252 L9.67376905,49.1152162 C7.36715241,46.6214547 5.99625499,43.4052546 5.79452209,40.0142915 L5.2731338,31.2501856" id="Path-3-Copy-17" stroke="#000000" stroke-width="1.2" stroke-linecap="round" stroke-linejoin="round"></path>
            <path d="M30.0645617,34.0164238 C34.7519511,26.2670567 33.7021715,13.4368286 20.3846794,11.9505063 C22.5309001,4.79014793 19.8104428,-1.20577645 12.4623365,0.275891362 C5.11423018,1.75755917 3.46583109,9.42432758 8.82509224,13.2285546" id="Path-3-Copy-17" stroke="#000000" stroke-width="1.2" stroke-linecap="round" stroke-linejoin="round"></path>
            <path d="M5.00045718,37.1814082 C0.663407153,35.862398 -3.58023844,15.9591066 11.0443932,13.0781181" id="Path-3-Copy-34" stroke="#000000" stroke-width="1.2" stroke-linecap="round" stroke-linejoin="round"></path>
            <path d="M12.8669133,33.1048225 C10.7318253,32.586088 9.01639836,33.2211619 7.72063237,35.0100445" id="Path-3-Copy-17" stroke="#000000" stroke-width="0.8" stroke-linecap="round" transform="translate(10.293773, 33.969978) rotate(-7.000000) translate(-10.293773, -33.969978) "></path>
            <path d="M27.578709,31.7528078 C25.2428014,31.0801523 23.5465126,31.4125994 22.4898425,32.7501491" id="Path-3-Copy-18" stroke="#000000" stroke-width="0.8" stroke-linecap="round" transform="translate(25.034276, 32.082665) rotate(33.000000) translate(-25.034276, -32.082665) "></path>
            <path d="M21.0468907,44.5808871 C18.3717217,47.6046711 16.1532451,48.4098336 14.3914609,46.9963747" id="Path-3-Copy-19" stroke="#000000" stroke-linecap="round" transform="translate(17.719176, 46.126318) rotate(33.000000) translate(-17.719176, -46.126318) "></path>
            <path d="M11.6281293,28.2332895 C6.94870261,27.4757815 5.44238493,23.6845439 7.10917629,16.8595769" id="Path-3-Copy-35" stroke="#000000" stroke-width="0.8" stroke-linecap="round" transform="translate(9.040324, 22.546433) rotate(33.000000) translate(-9.040324, -22.546433) "></path>
            <path d="M27.0949731,25.2862508 C25.7203904,22.570138 23.8958497,20.7233305 21.6213509,19.7458282" id="Path-3-Copy-36" stroke="#000000" stroke-width="0.8" stroke-linecap="round" transform="translate(24.358162, 22.516039) rotate(33.000000) translate(-24.358162, -22.516039) "></path>
            <path d="M31.4897079,40.6159022 C32.0905605,38.3971847 31.2015327,37.0282019 28.8226245,36.5089538" id="Path-3-Copy-37" stroke="#000000" stroke-width="0.8" stroke-linecap="round" transform="translate(30.247035, 38.562428) rotate(33.000000) translate(-30.247035, -38.562428) "></path>
            <path d="M7.08501524,42.6145876 C5.12817955,43.1137129 4.12911294,41.847126 4.0878154,38.8148268" id="Path-3-Copy-38" stroke="#000000" stroke-width="0.8" stroke-linecap="round" transform="translate(5.586415, 40.767616) rotate(33.000000) translate(-5.586415, -40.767616) "></path>
            <path d="M14.5900889,58.32629 C14.3414481,56.6264914 13.6393752,54.7616996 12.4838701,52.7319145" id="Path-3-Copy-45" stroke="#000000" stroke-width="1.2" stroke-linecap="round" transform="translate(13.536979, 55.529102) rotate(33.000000) translate(-13.536979, -55.529102) "></path>
            <path d="M21.3296989,59.7651951 C19.8508835,58.5563412 19.3011502,56.4221053 19.680499,53.3624872" id="Path-3-Copy-64" stroke="#000000" stroke-width="1.2" stroke-linecap="round" transform="translate(20.447015, 56.563841) rotate(33.000000) translate(-20.447015, -56.563841) "></path>
            <path d="M17.7006053,39.1395036 C17.9934346,39.4970237 18.7809147,40.3086556 20.0630455,41.5743993 L20.0630257,41.5744193 C20.4560425,41.9624129 20.4601146,42.595547 20.072121,42.9885638 C19.9832531,43.0785822 19.8781128,43.1509222 19.7622778,43.2017461 L19.2291415,43.4356657" id="Path-3-Copy-23" stroke="#000000" stroke-width="0.6" stroke-linecap="round" transform="translate(18.882346, 41.287585) rotate(33.000000) translate(-18.882346, -41.287585) "></path>
            <path d="M19.7281801,50.4779104 C19.4867966,51.108883 19.087283,51.4962854 18.5296392,51.6401174" id="Path-3-Copy-33" stroke="#000000" stroke-width="0.5" stroke-linecap="round" transform="translate(19.128910, 51.059014) rotate(33.000000) translate(-19.128910, -51.059014) "></path>
            <circle id="Oval" fill="#000000" cx="11.4982758" cy="37.187931" r="1.04999995"></circle>
            <circle id="Oval-Copy" fill="#000000" cx="24.3499877" cy="35.6500061" r="1.04999995"></circle>
        </g>
        <g id="Group-13" transform="translate(391.538823, 257.994889) rotate(-15.000000) translate(-391.538823, -257.994889) translate(370.038823, 233.994889)">
            <path d="M35.3831678,27.7222095 C37.0012129,26.4859832 38.1147517,22.1616875 34.7305072,16.5339193 C31.3462628,10.9061512 24.7144786,3.347835 14.8127814,7.95886233 C4.9110842,12.5698897 5.4666917,20.5178881 7.21287414,28.3757082 C8.37699577,33.614255 11.3964454,36.2158472 16.2712231,36.1804849" id="Path-3-Copy-19" stroke="#000000" stroke-width="1.2" stroke-linecap="round" transform="translate(21.571171, 21.356485) rotate(33.000000) translate(-21.571171, -21.356485) "></path>
            <path d="M8.06954641,24.5328593 L11.4000638,33.2546905 C12.6516798,36.5323744 14.9787955,39.2881522 18.0005678,41.0710282 L19.905465,42.1949368 C21.6467541,43.2223149 23.7670856,43.3804893 25.6415357,42.6228415 L25.6415357,42.6228415 C27.5352002,41.8574272 29.0173908,40.3276494 29.7226005,38.4107499 L30.3009646,36.8386422 C31.3807061,33.9036912 31.2554152,30.6607539 29.9524466,27.8178589 L26.6358644,20.5815412 C25.7768429,18.7072769 24.7900288,16.8942642 23.6823968,15.1553174 L23.6550968,15.1124573 C22.7245058,13.6514594 20.7884991,13.2166437 19.3225335,14.1393891 C14.0658883,17.448193 10.6372782,19.3626101 9.03671775,19.8826637 C7.18205531,20.4852801 6.85966486,22.0353453 8.06954641,24.5328593 Z" id="Path-3-Copy-19" stroke="#000000" stroke-width="1.2" stroke-linecap="round" stroke-linejoin="round" transform="translate(19.191053, 28.375694) rotate(33.000000) translate(-19.191053, -28.375694) "></path>
            <circle id="Oval" fill="#000000" cx="15.6244163" cy="23.0777107" r="1"></circle>
            <path d="M20.4752226,32.7196276 C19.7461241,34.4017735 18.6626923,34.9933938 17.2249273,34.4944885" id="Path-3-Copy-23" stroke="#000000" stroke-linecap="round" transform="translate(18.850075, 33.692650) rotate(33.000000) translate(-18.850075, -33.692650) "></path>
            <path d="M20.8865352,26.8409945 C20.2178553,27.7725584 19.4084541,28.0355488 18.4583315,27.6299658" id="Path-3-Copy-39" stroke="#000000" stroke-width="0.8" stroke-linecap="round" transform="translate(19.672433, 27.340995) rotate(33.000000) translate(-19.672433, -27.340995) "></path>
            <path d="M15.487921,20.0463206 C14.6976302,20.8262507 14.1555592,21.5255293 13.8617078,22.1441564" id="Path-3-Copy-41" stroke="#000000" stroke-width="0.8" stroke-linecap="round" transform="translate(14.674814, 21.095238) rotate(33.000000) translate(-14.674814, -21.095238) "></path>
            <path d="M24.7534622,22.8188287 C25.3316515,22.78562 25.9512802,22.8358889 26.6123483,22.9696355" id="Path-3-Copy-42" stroke="#000000" stroke-width="0.8" stroke-linecap="round" transform="translate(25.682905, 23.308920) rotate(33.000000) translate(-25.682905, -23.308920) "></path>
            <path d="M18.3103357,40.8609613 C18.0480945,41.5916445 17.4649988,41.928448 16.5610484,41.8713717" id="Path-3-Copy-40" stroke="#000000" stroke-width="0.5" stroke-linecap="round" transform="translate(17.435692, 41.369268) rotate(33.000000) translate(-17.435692, -41.369268) "></path>
            <path d="M27.8192502,29.0604163 C27.2145459,29.9894555 26.0389637,30.9410019 24.2925038,31.9150554 C22.1856621,29.5055881 20.0147232,28.8708157 17.7796871,30.0107384 C15.5446509,31.1506611 14.7077079,33.0781512 15.2688579,35.7932089 C13.2228627,36.457993 11.4697595,36.712213 10.0095483,36.555869" id="Path-3-Copy-65" stroke="#000000" stroke-linecap="round" transform="translate(18.914399, 32.830469) rotate(33.000000) translate(-18.914399, -32.830469) "></path>
            <circle id="Oval-Copy-2" fill="#000000" cx="24.8335227" cy="25.0276452" r="1"></circle>
        </g>
        <g id="Group-23" transform="translate(78.000000, 126.000000)">
            <path d="M29.5898713,9.00668847 L29.5898713,9.00668847 C31.7038703,11.3131492 32.876576,14.3282129 32.876576,17.4569112 L32.876576,31.8601273 C32.876576,35.6078304 31.6477591,39.2521621 29.378425,42.2346779 L28.8734102,42.8984033 C26.9477759,45.4292049 24.146093,47.1492764 21.0178572,47.7212591 L21.0178572,47.7212591 C17.9493581,48.2823193 14.7935459,47.3974913 12.464023,45.3229315 L10.633848,43.6930667 C7.1405193,40.5820781 5.23496289,36.0626113 5.44630489,31.3896112 L6.11551051,16.5927521" id="Path-3-Copy-17" stroke="#000000" stroke-width="1.2" stroke-linecap="round"></path>
            <path d="M7.69311698,7.14871274 C4.72636977,7.14871274 1.38438517,12.6540299 0.689814801,15.3061029 C5.7595394,17.1877956 12.7228229,16.1226466 16.9368321,13.6543807 C16.9368321,14.7431056 16.613562,16.3884609 15.9670218,18.5904467 C20.2880086,17.4255166 23.5482385,15.7801613 25.7477113,13.6543807 C27.9471841,11.5286001 29.5840107,8.9961807 30.6581911,6.0571226 C24.4458841,-0.299203683 16.1463335,-0.682871078 5.7595394,4.90612042 C6.49921828,7.14871274 8.1757727,6.00803492 7.69311698,7.14871274 Z" id="Path-3-Copy-17" stroke="#000000" stroke-width="1.2" stroke-linecap="round" stroke-linejoin="round"></path>
            <path d="M15.4718048,24.8066379 C14.408673,24.8117752 13.4980853,24.866414 12.7400418,24.9705542" id="Path-3-Copy-17" stroke="#000000" stroke-width="0.8" stroke-linecap="round" transform="translate(14.105923, 25.306638) rotate(-7.000000) translate(-14.105923, -25.306638) "></path>
            <path d="M28.4215042,24.127348 C27.2224212,24.0467871 26.1393327,24.4132811 25.1722387,25.22683" id="Path-3-Copy-18" stroke="#000000" stroke-width="0.8" stroke-linecap="round" transform="translate(26.796871, 24.671645) rotate(33.000000) translate(-26.796871, -24.671645) "></path>
            <path d="M19.215228,45.0061406 C19.6216284,45.8606397 20.0804788,46.681556 20.591779,47.4688893" id="Path-3-Copy-29" stroke="#000000" stroke-width="0.8" stroke-linecap="round" transform="translate(19.903503, 46.237515) rotate(33.000000) translate(-19.903503, -46.237515) "></path>
            <path d="M35.4241066,27.8450132 C36.1596258,26.489229 36.9631373,22.48545 35.4918922,21.2916318 C33.8647118,19.9712824 32.4328898,19.7125921 31.1964262,20.5155609" id="Path-3-Copy-27" stroke="#000000" stroke-linecap="round" transform="translate(33.756127, 23.952545) rotate(33.000000) translate(-33.756127, -23.952545) "></path>
            <path d="M7.07840899,27.3317313 C7.8139281,25.9759471 8.72743383,24.1591583 6.83887294,22.2183267 C5.31265881,20.6498707 3.80096457,20.2774656 2.30379025,21.1011115" id="Path-3-Copy-28" stroke="#000000" stroke-linecap="round" transform="translate(5.130988, 24.003724) scale(-1, 1) rotate(33.000000) translate(-5.130988, -24.003724) "></path>
            <path d="M23.2015357,36.5603755 C21.9262772,39.2050654 19.8515386,40.330619 16.9773197,39.9370363" id="Path-3-Copy-19" stroke="#000000" stroke-linecap="round" transform="translate(20.089428, 38.286945) rotate(33.000000) translate(-20.089428, -38.286945) "></path>
            <path d="M22.5266368,32.385783 C22.2857284,32.9165165 20.8840576,33.8863483 20.2063446,33.6029756 C19.6988333,33.3907695 19.7053024,32.4789846 18.8379128,30.5293102 C18.6285877,30.0588 18.0597148,29.1828125 17.131294,27.9013478" id="Path-3-Copy-23" stroke="#000000" stroke-width="0.8" stroke-linecap="round" transform="translate(19.828965, 30.777579) rotate(33.000000) translate(-19.828965, -30.777579) "></path>
            <circle id="Oval" fill="#000000" cx="14.6" cy="27.6" r="1.10000002"></circle>
            <circle id="Oval-Copy" fill="#000000" cx="25.6999985" cy="27.6" r="1.10000002"></circle>
        </g>
        <g id="Group-23-Copy-2" transform="translate(72.273830, 232.476043) rotate(-10.000000) translate(-72.273830, -232.476043) translate(55.273830, 212.976043)">
            <path d="M25.796298,4.85198482 L25.796298,4.85198482 C27.6392716,6.86274543 28.6616304,9.49126252 28.6616304,12.2188456 L28.6616304,24.7754956 C28.6616304,28.0427239 27.5903541,31.2198336 25.6119602,33.8199756 L25.1716909,34.398608 C23.4929329,36.6049479 21.0504401,38.1044974 18.3232601,38.603149 L18.3232601,38.603149 C15.6481583,39.0922783 12.8969374,38.3208899 10.8660713,36.5122993 L9.27053411,35.0913915 C6.22506811,32.3792475 4.5638138,28.4391996 4.74806068,24.3653021 L5.3314707,11.4654762 C6.19622994,5.19992718 9.71324806,1.87843779 15.8825251,1.50100803 C19.8542182,1.25802411 23.1588092,2.37501637 25.796298,4.85198482 Z" id="Path-3-Copy-17" stroke="#000000" stroke-width="1.2" stroke-linecap="round"></path>
            <path d="M10.9680925,17.2253155 C10.0412596,17.2297942 9.26745112,17.6928116 8.646667,18.6143679" id="Path-3-Copy-17" stroke="#000000" stroke-width="0.8" stroke-linecap="round" transform="translate(9.807380, 17.919842) rotate(-7.000000) translate(-9.807380, -17.919842) "></path>
            <path d="M24.9450628,17.2972677 C23.8997084,17.2270351 22.9402822,17.3658368 22.0667841,17.7136725" id="Path-3-Copy-18" stroke="#000000" stroke-width="0.8" stroke-linecap="round" transform="translate(23.505923, 17.779570) rotate(33.000000) translate(-23.505923, -17.779570) "></path>
            <path d="M16.3567041,36.423693 C16.9212786,36.1840453 17.3885162,35.6099095 17.7584168,34.7012856" id="Path-3-Copy-29" stroke="#000000" stroke-width="0.6" stroke-linecap="round" transform="translate(17.057560, 35.562489) rotate(33.000000) translate(-17.057560, -35.562489) "></path>
            <path d="M30.7720302,21.2803993 C32.064423,20.3375437 31.8814153,18.2819116 30.8050198,16.8990115 C29.6210589,15.3779167 28.3815057,14.708453 27.0863601,14.8906203" id="Path-3-Copy-27" stroke="#000000" stroke-linecap="round" transform="translate(29.382035, 18.070897) rotate(33.000000) translate(-29.382035, -18.070897) "></path>
            <path d="M6.28142378,20.7949307 C6.92264557,19.6129649 7.48561027,17.9738763 5.83917257,16.2818692 C4.50862692,14.9144973 3.26854794,14.6082437 2.11893565,15.3631083" id="Path-3-Copy-28" stroke="#000000" stroke-linecap="round" transform="translate(4.518849, 17.877644) scale(-1, 1) rotate(33.000000) translate(-4.518849, -17.877644) "></path>
            <path d="M21.8237002,0.286417636 C25.3020228,6.88428089 23.684355,13.600709 16.9706969,20.4357018" id="Path-3-Copy-30" stroke="#000000" stroke-linecap="round" transform="translate(20.287511, 10.361060) scale(-1, 1) rotate(33.000000) translate(-20.287511, -10.361060) "></path>
            <path d="M3.86166907,5.60701367 C8.21238114,10.2725812 12.193433,11.5937457 15.8048246,9.57050714" id="Path-3-Copy-32" stroke="#000000" stroke-linecap="round" transform="translate(9.833247, 8.047754) scale(-1, 1) rotate(33.000000) translate(-9.833247, -8.047754) "></path>
            <path d="M21.361302,1.4345061 C24.8396245,8.03236935 24.8050989,13.9428094 21.2577251,19.1658262" id="Path-3-Copy-31" stroke="#000000" stroke-linecap="round" transform="translate(22.601065, 10.300166) scale(-1, 1) rotate(33.000000) translate(-22.601065, -10.300166) "></path>
            <path d="M19.97158,28.7536652 C19.348839,31.2988723 17.7422037,32.8121612 15.1516744,33.293532" id="Path-3-Copy-19" stroke="#000000" stroke-linecap="round" transform="translate(17.561627, 31.023599) rotate(33.000000) translate(-17.561627, -31.023599) "></path>
            <path d="M18.9136271,26.7420159 C18.7036044,27.2047066 17.1120377,28.5754239 16.6495087,28.1854426 C16.1426246,27.7580633 15.3892971,26.5313001 14.3895262,24.5051528" id="Path-3-Copy-23" stroke="#000000" stroke-width="0.8" stroke-linecap="round" transform="translate(16.651577, 26.379778) rotate(33.000000) translate(-16.651577, -26.379778) "></path>
            <circle id="Oval" fill="#000000" cx="11.3999531" cy="20.3757502" r="1"></circle>
            <circle id="Oval-Copy" fill="#000000" cx="23.1189229" cy="20.7158986" r="1"></circle>
        </g>
        <g id="Group-13" transform="translate(430.000000, 245.000000)">
            <path d="M40.3777979,32.9760707 C41.8011513,30.7331669 44.634065,23.8521307 40.8737934,17.5990549 C37.1135218,11.3459792 28.1010957,3.67811957 17.0992099,8.80148327 C6.09732415,13.924847 5.73710177,26.3060115 7.75780454,32.0492907 C9.10493973,35.8781434 13.100085,39.1557869 19.7432405,41.8822209" id="Path-3-Copy-19" stroke="#000000" stroke-width="1.2" stroke-linecap="round" transform="translate(24.773421, 24.502850) rotate(33.000000) translate(-24.773421, -24.502850) "></path>
            <path d="M8.5156878,27.1181317 L13.3834761,38.4638368 C14.8025932,41.7714755 17.4390135,44.4069417 20.7471657,45.8248615 L22.6803373,46.6534456 C24.7373684,47.5351176 27.0650571,47.5394461 29.1253531,46.6654305 L29.1253531,46.6654305 C31.1932684,45.7881827 32.837063,44.1383633 33.7067396,42.0672524 L34.5224948,40.1245538 C35.9069375,36.8275418 35.8486291,33.1016397 34.3616968,29.8495631 L30.1147766,20.5611042 C29.550582,19.3271517 28.502685,18.3803363 27.2180193,17.9437721 C20.4635438,21.4959391 15.3883981,23.8889788 9.97979387,24.4388914" id="Path-3-Copy-19" stroke="#000000" stroke-width="1.2" stroke-linecap="round" stroke-linejoin="round" transform="translate(22.018058, 32.630804) rotate(33.000000) translate(-22.018058, -32.630804) "></path>
            <circle id="Oval" fill="#000000" cx="16.7682927" cy="30.402439" r="1"></circle>
            <circle id="Oval-Copy-4" stroke="#000000" cx="16.4634146" cy="30.097561" r="3.65853659"></circle>
            <path d="M23.0054801,35.8264619 C22.6107483,36.7254584 21.7004585,37.1946521 20.2746107,37.2340428" id="Path-3-Copy-23" stroke="#000000" stroke-linecap="round" transform="translate(21.640045, 36.530252) rotate(33.000000) translate(-21.640045, -36.530252) "></path>
            <path d="M25.5816745,30.1232238 C23.6939932,29.4847725 21.9719752,30.2180239 20.4156205,32.3229779" id="Path-3-Copy-68" stroke="#000000" stroke-linecap="round" transform="translate(22.998647, 31.111664) rotate(33.000000) translate(-22.998647, -31.111664) "></path>
            <path d="M26.4625701,37.85252 C23.8508847,42.1345877 20.5193419,43.7308793 16.4679418,42.6413949" id="Path-3-Copy-65" stroke="#000000" stroke-linecap="round" transform="translate(21.465256, 40.412688) rotate(33.000000) translate(-21.465256, -40.412688) "></path>
            <circle id="Oval-Copy-5" stroke="#000000" cx="29.51221" cy="31.9268293" r="3.65853659"></circle>
            <circle id="Oval-Copy-2" fill="#000000" cx="29.207332" cy="31.98779" r="1"></circle>
        </g>
        <g id="Group-23" transform="translate(114.000000, 259.000000)">
            <path d="M11.5811012,19.2501856 C16.973201,18.3675604 22.5675801,16.0353768 28.3642383,12.2536348 L29.2478018,14.2823596 C30.6722881,17.5530818 31.3497071,21.1002318 31.230768,24.6657106 L31.0740598,29.3634057 C30.976889,32.2763274 29.9766727,35.0870195 28.2118398,37.4064849 L28.2118398,37.4064849 C26.5025056,39.6530101 23.8417238,40.9719023 21.0188355,40.9719023 L19.8520534,40.9719023 C16.9331778,40.9719023 14.1680103,39.6634694 12.3171035,37.4064849 L12.3171035,37.4064849 C10.4264462,35.1010289 9.39317771,32.2116055 9.39317771,29.2300434 L9.39317771,19.2501856" id="Path-3-Copy-17" stroke="#000000" stroke-width="1.2" stroke-linecap="round"></path>
            <path d="M24.7752053,45.0520231 C31.6115007,43.5066612 35.8175813,38.2949392 37.393447,29.4168571 C39.7572456,16.0997339 34.0304029,1.78779327 20.7129108,0.30147096 C7.39541862,-1.18485135 3.08478874,11.9740051 4.37775631,22.5520425 C5.67072387,33.1300799 6.5755517,31.376282 5.67072387,36.9960676 C5.06750532,40.7425914 3.31565605,44.1316323 0.415176074,47.1631904 C4.30536066,49.0494684 9.46804399,49.0494684 15.9032261,47.1631904" id="Path-3-Copy-17" stroke="#000000" stroke-width="1.2" stroke-linecap="round"></path>
            <path d="M13.6165192,21.800033 C12.8105034,21.5909853 12.2070551,21.800033 11.8061743,22.427176" id="Path-3-Copy-17" stroke="#000000" stroke-width="0.8" stroke-linecap="round" transform="translate(12.711347, 22.157478) rotate(-7.000000) translate(-12.711347, -22.157478) "></path>
            <path d="M28.0992778,20.5931364 C27.293262,20.3840888 26.6898138,20.5931364 26.288933,21.2202794" id="Path-3-Copy-18" stroke="#000000" stroke-width="0.8" stroke-linecap="round" transform="translate(27.194105, 20.950582) rotate(33.000000) translate(-27.194105, -20.950582) "></path>
            <path d="M23.4462749,31.5647024 C23.1219999,34.7469378 21.1667814,36.4396177 17.5806195,36.6427423" id="Path-3-Copy-19" stroke="#000000" stroke-linecap="round" transform="translate(20.513447, 34.103722) rotate(33.000000) translate(-20.513447, -34.103722) "></path>
            <path d="M18.3823479,48.4191623 C17.6603724,46.5939311 15.8612447,44.1772083 12.9849648,41.168994" id="Path-3-Copy-45" stroke="#000000" stroke-width="1.2" stroke-linecap="round" transform="translate(15.683656, 44.794078) rotate(33.000000) translate(-15.683656, -44.794078) "></path>
            <path d="M27.3759734,48.0805662 C25.8971581,46.8717123 24.3495471,44.7084967 22.7331405,41.5909194" id="Path-3-Copy-64" stroke="#000000" stroke-width="1.2" stroke-linecap="round" transform="translate(25.054557, 44.835743) rotate(33.000000) translate(-25.054557, -44.835743) "></path>
            <path d="M21.7120469,29.3733117 C21.239392,30.4145947 20.401393,30.7672917 19.1980501,30.4314026" id="Path-3-Copy-23" stroke="#000000" stroke-width="0.5" stroke-linecap="round" transform="translate(20.455048, 29.976760) rotate(33.000000) translate(-20.455048, -29.976760) "></path>
            <circle id="Oval" fill="#000000" cx="13.6551724" cy="24.3448276" r="1.20689655"></circle>
            <circle id="Oval-Copy" fill="#000000" cx="25.7241379" cy="24.3448276" r="1.20689655"></circle>
        </g>
    </g>
</svg>