<?xml version="1.0" encoding="UTF-8"?>
<svg width="390px" height="420px" viewBox="0 0 390 420" version="1.1" xmlns="http://www.w3.org/2000/svg" xmlns:xlink="http://www.w3.org/1999/xlink">
    <!-- Generator: Sketch 50 (54983) - http://www.bohemiancoding.com/sketch -->
    <title>Artboard 5 Copy</title>
    <desc>Created with Sketch.</desc>
    <defs>
        <linearGradient x1="6.44440736%" y1="100%" x2="6.44440725%" y2="50%" id="linearGradient-1">
            <stop stop-color="#000000" stop-opacity="0" offset="0%"></stop>
            <stop stop-color="#000000" offset="100%"></stop>
        </linearGradient>
        <linearGradient x1="14.7705745%" y1="27.6656065%" x2="-5.90447868%" y2="100%" id="linearGradient-2">
            <stop stop-color="#000000" stop-opacity="0" offset="0%"></stop>
            <stop stop-color="#000000" offset="100%"></stop>
        </linearGradient>
        <linearGradient x1="72.5164063%" y1="68.8857361%" x2="36.5785818%" y2="19.7184514%" id="linearGradient-3">
            <stop stop-color="#000000" stop-opacity="0" offset="0%"></stop>
            <stop stop-color="#000000" offset="100%"></stop>
        </linearGradient>
        <linearGradient x1="74.3986135%" y1="74.7010168%" x2="42.1281617%" y2="37.687511%" id="linearGradient-4">
            <stop stop-color="#000000" stop-opacity="0" offset="0%"></stop>
            <stop stop-color="#000000" offset="100%"></stop>
        </linearGradient>
        <linearGradient x1="63.089071%" y1="50%" x2="100%" y2="113.449713%" id="linearGradient-5">
            <stop stop-color="#000000" stop-opacity="0" offset="0%"></stop>
            <stop stop-color="#000000" offset="100%"></stop>
        </linearGradient>
        <linearGradient x1="74.3614871%" y1="23.6486872%" x2="119.054155%" y2="100%" id="linearGradient-6">
            <stop stop-color="#000000" stop-opacity="0" offset="0%"></stop>
            <stop stop-color="#000000" offset="100%"></stop>
        </linearGradient>
        <linearGradient x1="70.2095152%" y1="50%" x2="0%" y2="50%" id="linearGradient-7">
            <stop stop-color="#000000" stop-opacity="0" offset="0%"></stop>
            <stop stop-color="#000000" offset="100%"></stop>
        </linearGradient>
        <linearGradient x1="25.6352243%" y1="0%" x2="-10.3914171%" y2="100%" id="linearGradient-8">
            <stop stop-color="#000000" stop-opacity="0" offset="0%"></stop>
            <stop stop-color="#000000" offset="100%"></stop>
        </linearGradient>
        <linearGradient x1="0%" y1="100%" x2="117.671844%" y2="-23.8492088%" id="linearGradient-9">
            <stop stop-color="#000000" stop-opacity="0" offset="0%"></stop>
            <stop stop-color="#000000" offset="100%"></stop>
        </linearGradient>
    </defs>
    <g id="Artboard-5-Copy" stroke="none" stroke-width="1" fill="none" fill-rule="evenodd">
        <g id="Group-2" transform="translate(-64.000000, 6.000000)">
            <g id="Group-17-Copy-3" transform="translate(204.911109, 221.968354) scale(-1, 1) translate(-204.911109, -221.968354) translate(183.911109, 210.468354)" stroke="#000000" stroke-linecap="round">
                <g id="Group-21-Copy-2" transform="translate(0.000000, 4.101266)">
                    <g id="Group-16" transform="translate(1.025883, 0.000000)">
                        <path d="M8.72000756,6.56202532 C13.5359347,6.56202532 17.4400151,5.09306591 17.4400151,3.28101266 C17.4400151,1.4689594 13.5359347,0 8.72000756,0 C3.90408037,0 0,1.4689594 0,3.28101266 C0,4.14429634 0.886102364,4.9297086 2.33475575,5.51550917" id="Oval-Copy-3" transform="translate(8.720008, 3.281013) scale(1, -1) translate(-8.720008, -3.281013) "></path>
                        <path d="M17.4400151,8.1718768 C17.4400151,8.34032646 17.4400151,7.81454767 17.4400151,6.59454043 C17.4400151,4.76452957 13.5359347,3.28101266 8.72000756,3.28101266 C3.90408037,3.28101266 0,4.76452957 0,6.59454043 C0,7.17576636 0,7.70154515 0,8.1718768" id="Oval-Copy-13" transform="translate(8.720008, 5.741772) scale(1, -1) translate(-8.720008, -5.741772) "></path>
                    </g>
                    <g id="Group-16-Copy" transform="translate(0.000000, 5.981013)">
                        <path d="M17.1339479,4.04546131 C17.3334977,3.78716614 17.4400151,3.51533843 17.4400151,3.23473494 C17.4400151,1.53593501 13.5359347,0.158785569 8.72000756,0.158785569 C3.90408037,0.158785569 0,1.53593501 0,3.23473494 C0,3.63032411 0.211701083,4.0084716 0.597319767,4.35584941 C0.692382325,4.44148485 0.993696686,4.58447175 1.50126285,4.78481013" id="Oval-Copy-3" transform="translate(8.720008, 2.471798) scale(1, -1) translate(-8.720008, -2.471798) "></path>
                        <path d="M17.4400151,6.29404589 C17.4400151,6.45196745 17.4400151,5.95904983 17.4400151,4.81529305 C17.4400151,3.09965787 13.5359347,1.70886076 8.72000756,1.70886076 C3.90408037,1.70886076 0,3.09965787 0,4.81529305 C0,5.36019235 0,5.85310997 0,6.29404589" id="Oval-Copy-13" transform="translate(8.720008, 4.015823) scale(1, -1) translate(-8.720008, -4.015823) "></path>
                    </g>
                    <g id="Group-16-Copy-2" transform="translate(1.025883, 10.082278)">
                        <path d="M16.0170844,4.78481013 C16.4442295,4.58014298 16.7106874,4.43129857 16.8164583,4.3382769 C17.2187008,3.98451916 17.4400151,3.59828168 17.4400151,3.19381049 C17.4400151,1.49501056 13.5359347,0.117861122 8.72000756,0.117861122 C3.90408037,0.117861122 0,1.49501056 0,3.19381049 C0,3.43272877 0.0772205766,3.66528498 0.22333802,3.88854296" id="Oval-Copy-3" transform="translate(8.720008, 2.451336) scale(1, -1) translate(-8.720008, -2.451336) "></path>
                        <path d="M17.4400151,6.29404589 C17.4400151,6.45196745 17.4400151,5.95904983 17.4400151,4.81529305 C17.4400151,3.09965787 13.5359347,1.70886076 8.72000756,1.70886076 C3.90408037,1.70886076 0,3.09965787 0,4.81529305 C0,5.36019235 0,5.85310997 0,6.29404589" id="Oval-Copy-13" transform="translate(8.720008, 4.015823) scale(1, -1) translate(-8.720008, -4.015823) "></path>
                    </g>
                </g>
                <g id="Group-24" transform="translate(32.035330, 7.000000) scale(-1, 1) translate(-32.035330, -7.000000) translate(23.035330, 0.000000)">
                    <g id="Group-16-Copy-5">
                        <path d="M8.72000756,6.56202532 C13.5359347,6.56202532 17.4400151,5.09306591 17.4400151,3.28101266 C17.4400151,1.4689594 13.5359347,0 8.72000756,0 C3.90408037,0 0,1.4689594 0,3.28101266 C0,4.14429634 0.886102364,4.9297086 2.33475575,5.51550917" id="Oval-Copy-3" transform="translate(8.720008, 3.281013) scale(1, -1) translate(-8.720008, -3.281013) "></path>
                        <path d="M17.4400151,8.1718768 C17.4400151,8.34032646 17.4400151,7.81454767 17.4400151,6.59454043 C17.4400151,4.76452957 13.5359347,3.28101266 8.72000756,3.28101266 C3.90408037,3.28101266 0,4.76452957 0,6.59454043 C0,7.17576636 0,7.70154515 0,8.1718768" id="Oval-Copy-13" transform="translate(8.720008, 5.741772) scale(1, -1) translate(-8.720008, -5.741772) "></path>
                    </g>
                    <g id="Group-16-Copy-4" transform="translate(0.000000, 6.151899)">
                        <path d="M16.8164583,4.61392405 C17.2187008,4.2601663 17.4400151,3.87392882 17.4400151,3.46945763 C17.4400151,1.77065771 13.5359347,0.393508268 8.72000756,0.393508268 C3.90408037,0.393508268 0,1.77065771 0,3.46945763 C0,3.86504681 0.211701083,4.2431943 0.597319767,4.59057211" id="Oval-Copy-3" transform="translate(8.720008, 2.503716) scale(1, -1) translate(-8.720008, -2.503716) "></path>
                        <path d="M17.4400151,6.12315982 C17.4400151,6.28108137 17.4400151,5.78816376 17.4400151,4.64440697 C17.4400151,2.92877179 13.5359347,1.53797468 8.72000756,1.53797468 C3.90408037,1.53797468 0,2.92877179 0,4.64440697 C0,5.18930628 0,5.68222389 0,6.12315982" id="Oval-Copy-13" transform="translate(8.720008, 3.844937) scale(1, -1) translate(-8.720008, -3.844937) "></path>
                    </g>
                </g>
            </g>
            <g id="Group-17-Copy-4" transform="translate(358.250047, 256.607595)" stroke="#000000" stroke-linecap="round" stroke-width="0.8">
                <g id="Group-21-Copy-2" transform="translate(0.000000, 3.515371)">
                    <g id="Group-16" transform="translate(0.872001, 0.000000)">
                        <path d="M7.41200642,5.62459313 C11.5055445,5.62459313 14.8240128,4.36548507 14.8240128,2.81229656 C14.8240128,1.25910806 11.5055445,0 7.41200642,0 C3.31846831,0 0,1.25910806 0,2.81229656 C0,3.552254 0.75318701,4.22546451 1.98454239,4.72757929" id="Oval-Copy-3" transform="translate(7.412006, 2.812297) scale(1, -1) translate(-7.412006, -2.812297) "></path>
                        <path d="M14.8240128,7.00446583 C14.8240128,7.14885125 14.8240128,6.69818372 14.8240128,5.65246323 C14.8240128,4.08388249 11.5055445,2.81229656 7.41200642,2.81229656 C3.31846831,2.81229656 0,4.08388249 0,5.65246323 C0,6.15065688 0,6.60132441 0,7.00446583" id="Oval-Copy-13" transform="translate(7.412006, 4.921519) scale(1, -1) translate(-7.412006, -4.921519) "></path>
                    </g>
                    <g id="Group-16-Copy" transform="translate(0.000000, 5.248644)">
                        <path d="M14.5638557,3.34547678 C14.7334731,3.12408092 14.8240128,2.89108574 14.8240128,2.65056846 C14.8240128,1.19445424 11.5055445,0.0140404338 7.41200642,0.0140404338 C3.31846831,0.0140404338 0,1.19445424 0,2.65056846 C0,2.9896449 0.179945921,3.31377131 0.507721802,3.61152373 C0.588524976,3.68492553 0.844642183,3.80748573 1.27607342,3.97920434" id="Oval-Copy-3" transform="translate(7.412006, 1.996622) scale(1, -1) translate(-7.412006, -1.996622) "></path>
                        <path d="M14.8240128,5.272835 C14.8240128,5.40819633 14.8240128,4.98569552 14.8240128,4.00533256 C14.8240128,2.53478812 11.5055445,1.34267631 7.41200642,1.34267631 C3.31846831,1.34267631 0,2.53478812 0,4.00533256 C0,4.47238911 0,4.89488992 0,5.272835" id="Oval-Copy-13" transform="translate(7.412006, 3.320072) scale(1, -1) translate(-7.412006, -3.320072) "></path>
                    </g>
                    <g id="Group-16-Copy-2" transform="translate(0.872001, 7.909584)">
                        <path d="M13.6145217,4.83363472 C13.977595,4.65820574 14.2040843,4.53062482 14.2939896,4.45089196 C14.6358957,4.14767103 14.8240128,3.81661033 14.8240128,3.46992074 C14.8240128,2.01380652 11.5055445,0.833392716 7.41200642,0.833392716 C3.31846831,0.833392716 0,2.01380652 0,3.46992074 C0,3.67470784 0.0656374901,3.87404174 0.189837317,4.06540572" id="Oval-Copy-3" transform="translate(7.412006, 2.833514) scale(1, -1) translate(-7.412006, -2.833514) "></path>
                        <path d="M14.8240128,6.12726538 C14.8240128,6.26262671 14.8240128,5.8401259 14.8240128,4.85976294 C14.8240128,3.3892185 11.5055445,2.19710669 7.41200642,2.19710669 C3.31846831,2.19710669 0,3.3892185 0,4.85976294 C0,5.32681949 0,5.7493203 0,6.12726538" id="Oval-Copy-13" transform="translate(7.412006, 4.174503) scale(1, -1) translate(-7.412006, -4.174503) "></path>
                    </g>
                </g>
                <g id="Group-24" transform="translate(27.380030, 6.000000) scale(-1, 1) translate(-27.380030, -6.000000) translate(19.880030, 0.000000)">
                    <g id="Group-16-Copy-5">
                        <path d="M7.41200642,5.62459313 C11.5055445,5.62459313 14.8240128,4.36548507 14.8240128,2.81229656 C14.8240128,1.25910806 11.5055445,0 7.41200642,0 C3.31846831,0 0,1.25910806 0,2.81229656 C0,3.552254 0.75318701,4.22546451 1.98454239,4.72757929" id="Oval-Copy-3" transform="translate(7.412006, 2.812297) scale(1, -1) translate(-7.412006, -2.812297) "></path>
                        <path d="M14.8240128,7.00446583 C14.8240128,7.14885125 14.8240128,6.69818372 14.8240128,5.65246323 C14.8240128,4.08388249 11.5055445,2.81229656 7.41200642,2.81229656 C3.31846831,2.81229656 0,4.08388249 0,5.65246323 C0,6.15065688 0,6.60132441 0,7.00446583" id="Oval-Copy-13" transform="translate(7.412006, 4.921519) scale(1, -1) translate(-7.412006, -4.921519) "></path>
                    </g>
                    <g id="Group-16-Copy-4" transform="translate(0.000000, 5.273056)">
                        <path d="M14.2939896,3.95479204 C14.6358957,3.65157112 14.8240128,3.32051042 14.8240128,2.97382083 C14.8240128,1.51770661 11.5055445,0.337292801 7.41200642,0.337292801 C3.31846831,0.337292801 0,1.51770661 0,2.97382083 C0,3.31289727 0.179945921,3.63702368 0.507721802,3.9347761" id="Oval-Copy-3" transform="translate(7.412006, 2.146042) scale(1, -1) translate(-7.412006, -2.146042) "></path>
                        <path d="M14.8240128,5.2484227 C14.8240128,5.38378403 14.8240128,4.96128322 14.8240128,3.98092026 C14.8240128,2.51037582 11.5055445,1.31826401 7.41200642,1.31826401 C3.31846831,1.31826401 0,2.51037582 0,3.98092026 C0,4.44797681 0,4.87047762 0,5.2484227" id="Oval-Copy-13" transform="translate(7.412006, 3.295660) scale(1, -1) translate(-7.412006, -3.295660) "></path>
                    </g>
                </g>
            </g>
            <path d="M277.205271,197.139241 C275.244793,196.208469 271.825182,195.911406 266.946439,196.248051" id="Oval-Copy-15" stroke="#000000" stroke-width="1.2" stroke-linecap="round" transform="translate(272.075855, 196.626582) rotate(20.000000) translate(-272.075855, -196.626582) "></path>
            <path d="M234.118175,196.113924 L240.273474,190.987342" id="Oval-Copy-16" stroke="#000000" stroke-width="1.2" stroke-linecap="round" transform="translate(237.195825, 193.550633) rotate(20.000000) translate(-237.195825, -193.550633) "></path>
            <g id="Group-26" transform="translate(211.548744, 130.493671)" stroke="#000000" stroke-linecap="round" stroke-width="1.2">
                <path d="M31.1326721,84.2602222 C43.0765553,84.2602222 53.6386136,78.3471955 60.0481309,69.2903276" id="Oval-Copy-3" transform="translate(45.590402, 76.775275) rotate(20.000000) translate(-45.590402, -76.775275) "></path>
                <path d="M78.3666195,39.7975421 C75.4825568,23.1585528 60.9671221,10.504358 43.494508,10.504358 C23.9475094,10.504358 8.10153616,26.3415766 8.10153616,45.8777757 C8.10153616,55.1850529 11.6980693,63.6527788 17.5778977,69.9684413" id="Oval-Copy-14" transform="translate(43.234078, 40.236400) rotate(20.000000) translate(-43.234078, -40.236400) "></path>
            </g>
            <g id="Group-17" transform="translate(276.522294, 175.607595)" stroke="#000000">
                <g id="Group-16-Copy-3" transform="translate(46.847723, 31.784810)" stroke-linecap="round">
                    <path d="M8.72000756,6.56202532 C13.5359347,6.56202532 17.4400151,5.09306591 17.4400151,3.28101266 C17.4400151,1.4689594 13.5359347,0 8.72000756,0 C3.90408037,0 0,1.4689594 0,3.28101266 C0,4.14429634 0.886102364,4.9297086 2.33475575,5.51550917" id="Oval-Copy-3" transform="translate(8.720008, 3.281013) scale(1, -1) translate(-8.720008, -3.281013) "></path>
                    <path d="M17.4400151,8.1718768 C17.4400151,8.34032646 17.4400151,7.81454767 17.4400151,6.59454043 C17.4400151,4.76452957 13.5359347,3.28101266 8.72000756,3.28101266 C3.90408037,3.28101266 0,4.76452957 0,6.59454043 C0,7.17576636 0,7.70154515 0,8.1718768" id="Oval-Copy-13" transform="translate(8.720008, 5.741772) scale(1, -1) translate(-8.720008, -5.741772) "></path>
                </g>
                <g id="Group-16-Copy-5" transform="translate(25.304175, 25.632911)" stroke-linecap="round">
                    <path d="M8.72000756,6.56202532 C13.5359347,6.56202532 17.4400151,5.09306591 17.4400151,3.28101266 C17.4400151,1.4689594 13.5359347,0 8.72000756,0 C3.90408037,0 0,1.4689594 0,3.28101266 C0,4.14429634 0.886102364,4.9297086 2.33475575,5.51550917" id="Oval-Copy-3" transform="translate(8.720008, 3.281013) scale(1, -1) translate(-8.720008, -3.281013) "></path>
                    <path d="M17.4400151,8.1718768 C17.4400151,8.34032646 17.4400151,7.81454767 17.4400151,6.59454043 C17.4400151,4.76452957 13.5359347,3.28101266 8.72000756,3.28101266 C3.90408037,3.28101266 0,4.76452957 0,6.59454043 C0,7.17576636 0,7.70154515 0,8.1718768" id="Oval-Copy-13" transform="translate(8.720008, 5.741772) scale(1, -1) translate(-8.720008, -5.741772) "></path>
                </g>
                <g id="Group-16-Copy-4" transform="translate(25.304175, 31.784810)" stroke-linecap="round">
                    <path d="M16.8164583,4.61392405 C17.2187008,4.2601663 17.4400151,3.87392882 17.4400151,3.46945763 C17.4400151,1.77065771 13.5359347,0.393508268 8.72000756,0.393508268 C3.90408037,0.393508268 0,1.77065771 0,3.46945763 C0,3.86504681 0.211701083,4.2431943 0.597319767,4.59057211" id="Oval-Copy-3" transform="translate(8.720008, 2.503716) scale(1, -1) translate(-8.720008, -2.503716) "></path>
                    <path d="M17.4400151,6.12315982 C17.4400151,6.28108137 17.4400151,5.78816376 17.4400151,4.64440697 C17.4400151,2.92877179 13.5359347,1.53797468 8.72000756,1.53797468 C3.90408037,1.53797468 0,2.92877179 0,4.64440697 C0,5.18930628 0,5.68222389 0,6.12315982" id="Oval-Copy-13" transform="translate(8.720008, 3.844937) scale(1, -1) translate(-8.720008, -3.844937) "></path>
                </g>
                <g id="Group-21-Copy-5" transform="translate(47.344686, 15.636212) rotate(7.000000) translate(-47.344686, -15.636212) translate(37.344686, 1.636212)">
                    <path d="M9.49749558,27.3699544 C17.1006395,26.8745867 20.490884,24.5047675 19.6682293,20.2604966 C18.7486846,15.5163472 16.2995343,12.1241598 12.3207784,10.0839344 L15.5096458,3.15836866 L12.4542488,4.72772031 C11.7187746,5.10548388 10.8389198,5.06910452 10.1371415,4.63191485 L10.1371415,4.63191485 C9.44492805,4.20068387 8.56739041,4.2019942 7.87646787,4.63529047 L6.6516017,5.40343729 C5.94759944,5.84493621 5.06530733,5.89084269 4.31928739,5.52478978 L0.980478381,3.88652156 L3.13264683,9.64971377 C0.411403189,16.5056621 -0.428720406,21.0390771 0.612276046,23.2499587" id="Path-6" stroke-linecap="round" stroke-linejoin="round"></path>
                    <g id="Group" transform="translate(8.401721, 19.616523) rotate(10.000000) translate(-8.401721, -19.616523) translate(4.556784, 16.198802)">
                        <circle id="Oval-Copy-3" cx="2.99050633" cy="2.99050633" r="2.99050633"></circle>
                        <path d="M4.15856553,2.2569619 L4.40758885,2.4909629 C5.11393656,3.15470019 5.1560054,4.26277049 4.50201719,4.97815411 L4.39236105,5.0981046 C3.7876405,5.75959539 3.79078553,6.7741531 4.39959555,7.43188207" id="Path-9" stroke-linecap="round" transform="translate(4.453554, 4.844422) rotate(110.000000) translate(-4.453554, -4.844422) "></path>
                    </g>
                    <path d="M3.62648073,10.1515437 C6.1463219,11.8271293 8.42680635,12.2259119 10.4679341,11.3478915" id="Path-7" stroke-width="1.2" stroke-linecap="round" stroke-linejoin="round"></path>
                    <path d="M0.936906585,3.76964543 C0.734899311,1.92243117 1.868801,1.28879154 4.33861164,1.86872655 C8.04332761,2.73862906 8.75897305,-0.54784099 11.8607591,1.19997056" id="Path-7-Copy" stroke-width="1.2" stroke-linecap="round" stroke-linejoin="round"></path>
                </g>
                <g id="Group-16-Copy-8" transform="translate(25.304175, 35.886076)" stroke-linecap="round">
                    <path d="M16.8164583,4.61392405 C17.2187008,4.2601663 17.4400151,3.87392882 17.4400151,3.46945763 C17.4400151,1.77065771 13.5359347,0.393508268 8.72000756,0.393508268 C3.90408037,0.393508268 0,1.77065771 0,3.46945763 C0,3.86504681 0.211701083,4.2431943 0.597319767,4.59057211" id="Oval-Copy-3" transform="translate(8.720008, 2.503716) scale(1, -1) translate(-8.720008, -2.503716) "></path>
                    <path d="M17.4400151,6.12315982 C17.4400151,6.28108137 17.4400151,5.78816376 17.4400151,4.64440697 C17.4400151,2.92877179 13.5359347,1.53797468 8.72000756,1.53797468 C3.90408037,1.53797468 0,2.92877179 0,4.64440697 C0,5.18930628 0,5.68222389 0,6.12315982" id="Oval-Copy-13" transform="translate(8.720008, 3.844937) scale(1, -1) translate(-8.720008, -3.844937) "></path>
                </g>
                <g id="Group-21-Copy" transform="translate(10.700642, 29.354430) scale(-1, 1) translate(-10.700642, -29.354430) translate(0.200642, 14.354430)" stroke-linecap="round">
                    <g id="Group-16" transform="translate(1.025883, 0.000000)">
                        <path d="M8.72000756,6.56202532 C13.5359347,6.56202532 17.4400151,5.09306591 17.4400151,3.28101266 C17.4400151,1.4689594 13.5359347,0 8.72000756,0 C3.90408037,0 0,1.4689594 0,3.28101266 C0,4.14429634 0.886102364,4.9297086 2.33475575,5.51550917" id="Oval-Copy-3" transform="translate(8.720008, 3.281013) scale(1, -1) translate(-8.720008, -3.281013) "></path>
                        <path d="M17.4400151,8.1718768 C17.4400151,8.34032646 17.4400151,7.81454767 17.4400151,6.59454043 C17.4400151,4.76452957 13.5359347,3.28101266 8.72000756,3.28101266 C3.90408037,3.28101266 0,4.76452957 0,6.59454043 C0,7.17576636 0,7.70154515 0,8.1718768" id="Oval-Copy-13" transform="translate(8.720008, 5.741772) scale(1, -1) translate(-8.720008, -5.741772) "></path>
                    </g>
                    <g id="Group-16-Copy" transform="translate(0.000000, 5.981013)">
                        <path d="M17.1339479,4.04546131 C17.3334977,3.78716614 17.4400151,3.51533843 17.4400151,3.23473494 C17.4400151,1.53593501 13.5359347,0.158785569 8.72000756,0.158785569 C3.90408037,0.158785569 0,1.53593501 0,3.23473494 C0,3.63032411 0.211701083,4.0084716 0.597319767,4.35584941 C0.692382325,4.44148485 0.993696686,4.58447175 1.50126285,4.78481013" id="Oval-Copy-3" transform="translate(8.720008, 2.471798) scale(1, -1) translate(-8.720008, -2.471798) "></path>
                        <path d="M17.4400151,6.29404589 C17.4400151,6.45196745 17.4400151,5.95904983 17.4400151,4.81529305 C17.4400151,3.09965787 13.5359347,1.70886076 8.72000756,1.70886076 C3.90408037,1.70886076 0,3.09965787 0,4.81529305 C0,5.36019235 0,5.85310997 0,6.29404589" id="Oval-Copy-13" transform="translate(8.720008, 4.015823) scale(1, -1) translate(-8.720008, -4.015823) "></path>
                    </g>
                    <g id="Group-16-Copy-2" transform="translate(1.025883, 10.082278)">
                        <path d="M16.0170844,4.78481013 C16.4442295,4.58014298 16.7106874,4.43129857 16.8164583,4.3382769 C17.2187008,3.98451916 17.4400151,3.59828168 17.4400151,3.19381049 C17.4400151,1.49501056 13.5359347,0.117861122 8.72000756,0.117861122 C3.90408037,0.117861122 0,1.49501056 0,3.19381049 C0,3.43272877 0.0772205766,3.66528498 0.22333802,3.88854296" id="Oval-Copy-3" transform="translate(8.720008, 2.451336) scale(1, -1) translate(-8.720008, -2.451336) "></path>
                        <path d="M17.4400151,6.29404589 C17.4400151,6.45196745 17.4400151,5.95904983 17.4400151,4.81529305 C17.4400151,3.09965787 13.5359347,1.70886076 8.72000756,1.70886076 C3.90408037,1.70886076 0,3.09965787 0,4.81529305 C0,5.36019235 0,5.85310997 0,6.29404589" id="Oval-Copy-13" transform="translate(8.720008, 4.015823) scale(1, -1) translate(-8.720008, -4.015823) "></path>
                    </g>
                    <g id="Group-16-Copy-6" transform="translate(2.051766, 14.183544)">
                        <path d="M16.0170844,4.78481013 C16.4442295,4.58014298 16.7106874,4.43129857 16.8164583,4.3382769 C17.2187008,3.98451916 17.4400151,3.59828168 17.4400151,3.19381049 C17.4400151,1.49501056 13.5359347,0.117861122 8.72000756,0.117861122 C3.90408037,0.117861122 0,1.49501056 0,3.19381049 C0,3.43272877 0.0772205766,3.66528498 0.22333802,3.88854296" id="Oval-Copy-3" transform="translate(8.720008, 2.451336) scale(1, -1) translate(-8.720008, -2.451336) "></path>
                        <path d="M17.4400151,6.29404589 C17.4400151,6.45196745 17.4400151,5.95904983 17.4400151,4.81529305 C17.4400151,3.09965787 13.5359347,1.70886076 8.72000756,1.70886076 C3.90408037,1.70886076 0,3.09965787 0,4.81529305 C0,5.36019235 0,5.85310997 0,6.29404589" id="Oval-Copy-13" transform="translate(8.720008, 4.015823) scale(1, -1) translate(-8.720008, -4.015823) "></path>
                    </g>
                    <g id="Group-16-Copy-7" transform="translate(9.465898, 25.886076) scale(-1, 1) translate(-9.465898, -25.886076) translate(0.465898, 22.386076)">
                        <path d="M16.0170844,4.78481013 C16.4442295,4.58014298 16.7106874,4.43129857 16.8164583,4.3382769 C17.2187008,3.98451916 17.4400151,3.59828168 17.4400151,3.19381049 C17.4400151,1.49501056 13.5359347,0.117861122 8.72000756,0.117861122 C3.90408037,0.117861122 0,1.49501056 0,3.19381049 C0,3.43272877 0.0772205766,3.66528498 0.22333802,3.88854296" id="Oval-Copy-3" transform="translate(8.720008, 2.451336) scale(1, -1) translate(-8.720008, -2.451336) "></path>
                        <path d="M17.4400151,6.29404589 C17.4400151,6.45196745 17.4400151,5.95904983 17.4400151,4.81529305 C17.4400151,3.09965787 13.5359347,1.70886076 8.72000756,1.70886076 C3.90408037,1.70886076 0,3.09965787 0,4.81529305 C0,5.36019235 0,5.85310997 0,6.29404589" id="Oval-Copy-13" transform="translate(8.720008, 4.015823) scale(1, -1) translate(-8.720008, -4.015823) "></path>
                    </g>
                    <g id="Group-16-Copy-4" transform="translate(2.051766, 18.455696)">
                        <path d="M16.8164583,4.61392405 C17.2187008,4.2601663 17.4400151,3.87392882 17.4400151,3.46945763 C17.4400151,1.77065771 13.5359347,0.393508268 8.72000756,0.393508268 C3.90408037,0.393508268 0,1.77065771 0,3.46945763 C0,3.86504681 0.211701083,4.2431943 0.597319767,4.59057211" id="Oval-Copy-3" transform="translate(8.720008, 2.503716) scale(1, -1) translate(-8.720008, -2.503716) "></path>
                        <path d="M17.4400151,6.12315982 C17.4400151,6.28108137 17.4400151,5.78816376 17.4400151,4.64440697 C17.4400151,2.92877179 13.5359347,1.53797468 8.72000756,1.53797468 C3.90408037,1.53797468 0,2.92877179 0,4.64440697 C0,5.18930628 0,5.68222389 0,6.12315982" id="Oval-Copy-13" transform="translate(8.720008, 3.844937) scale(1, -1) translate(-8.720008, -3.844937) "></path>
                    </g>
                </g>
            </g>
            <g id="Group-17-Copy-5" transform="translate(414.845078, 274.037975)" stroke="#000000" stroke-linecap="round" stroke-width="0.8">
                <g id="Group-16-Copy-5" transform="translate(20.329394, 9.722828)">
                    <path d="M7.57640001,5.65691838 C11.7607302,5.65691838 15.1528,4.39057406 15.1528,2.82845919 C15.1528,1.26634431 11.7607302,0 7.57640001,0 C3.39206983,0 0,1.26634431 0,2.82845919 C0,3.57266926 0.769892218,4.24974879 2.02855828,4.75474929" id="Oval-Copy-3" transform="translate(7.576400, 2.828459) scale(1, -1) translate(-7.576400, -2.828459) "></path>
                    <path d="M15.1528,7.04472138 C15.1528,7.1899366 15.1528,6.73667902 15.1528,5.68494865 C15.1528,4.10735308 11.7607302,2.82845919 7.57640001,2.82845919 C3.39206983,2.82845919 0,4.10735308 0,5.68494865 C0,6.18600548 0,6.63926306 0,7.04472138" id="Oval-Copy-13" transform="translate(7.576400, 4.949804) scale(1, -1) translate(-7.576400, -4.949804) "></path>
                </g>
                <g id="Group-21-Copy" transform="translate(9.289913, 7.500000) scale(-1, 1) translate(-9.289913, -7.500000) translate(0.789913, 0.000000)">
                    <g id="Group-16" transform="translate(0.891341, 0.000000)">
                        <path d="M7.57640001,5.65691838 C11.7607302,5.65691838 15.1528,4.39057406 15.1528,2.82845919 C15.1528,1.26634431 11.7607302,0 7.57640001,0 C3.39206983,0 0,1.26634431 0,2.82845919 C0,3.57266926 0.769892218,4.24974879 2.02855828,4.75474929" id="Oval-Copy-3" transform="translate(7.576400, 2.828459) scale(1, -1) translate(-7.576400, -2.828459) "></path>
                        <path d="M15.1528,7.04472138 C15.1528,7.1899366 15.1528,6.73667902 15.1528,5.68494865 C15.1528,4.10735308 11.7607302,2.82845919 7.57640001,2.82845919 C3.39206983,2.82845919 0,4.10735308 0,5.68494865 C0,6.18600548 0,6.63926306 0,7.04472138" id="Oval-Copy-13" transform="translate(7.576400, 4.949804) scale(1, -1) translate(-7.576400, -4.949804) "></path>
                    </g>
                    <g id="Group-16-Copy" transform="translate(0.000000, 5.273898)">
                        <path d="M14.8868728,3.36961418 C15.0602521,3.14694593 15.1528,2.9126117 15.1528,2.67071213 C15.1528,1.20622944 11.7607302,0.0190316454 7.57640001,0.0190316454 C3.39206983,0.0190316454 0,1.20622944 0,2.67071213 C0,3.01173729 0.183937007,3.3377265 0.518982748,3.63719013 C0.601578085,3.71101378 0.863375809,3.83427836 1.30437592,4.00698385" id="Oval-Copy-3" transform="translate(7.576400, 2.013008) scale(1, -1) translate(-7.576400, -2.013008) "></path>
                        <path d="M15.1528,5.30804917 C15.1528,5.44418844 15.1528,5.01925946 15.1528,4.03326223 C15.1528,2.55426639 11.7607302,1.35530336 7.57640001,1.35530336 C3.39206983,1.35530336 0,2.55426639 0,4.03326223 C0,4.50300301 0,4.92793199 0,5.30804917" id="Oval-Copy-13" transform="translate(7.576400, 3.344064) scale(1, -1) translate(-7.576400, -3.344064) "></path>
                    </g>
                    <g id="Group-16-Copy-2" transform="translate(0.891341, 7.955041)">
                        <path d="M13.9164832,4.86141423 C14.2876092,4.68497703 14.5191219,4.55666289 14.6110211,4.4764718 C14.9605106,4.17150822 15.1528,3.83854488 15.1528,3.48986282 C15.1528,2.02538012 11.7607302,0.838182329 7.57640001,0.838182329 C3.39206983,0.838182329 0,2.02538012 0,3.48986282 C0,3.69582685 0.0670932879,3.89630634 0.194047788,4.08877012" id="Oval-Copy-3" transform="translate(7.576400, 2.849798) scale(1, -1) translate(-7.576400, -2.849798) "></path>
                        <path d="M15.1528,6.16247955 C15.1528,6.29861882 15.1528,5.87368984 15.1528,4.88769261 C15.1528,3.40869677 11.7607302,2.20973374 7.57640001,2.20973374 C3.39206983,2.20973374 0,3.40869677 0,4.88769261 C0,5.35743339 0,5.78236237 0,6.16247955" id="Oval-Copy-13" transform="translate(7.576400, 4.198494) scale(1, -1) translate(-7.576400, -4.198494) "></path>
                    </g>
                </g>
            </g>
            <g id="Group-17-Copy" transform="translate(112.038069, 280.189873)" stroke="#000000" stroke-linecap="round" stroke-width="0.8">
                <g id="Group-16-Copy-3" transform="translate(20.517665, 7.177215)">
                    <path d="M8.72000756,6.56202532 C13.5359347,6.56202532 17.4400151,5.09306591 17.4400151,3.28101266 C17.4400151,1.4689594 13.5359347,0 8.72000756,0 C3.90408037,0 0,1.4689594 0,3.28101266 C0,4.14429634 0.886102364,4.9297086 2.33475575,5.51550917" id="Oval-Copy-3" transform="translate(8.720008, 3.281013) scale(1, -1) translate(-8.720008, -3.281013) "></path>
                    <path d="M17.4400151,8.1718768 C17.4400151,8.34032646 17.4400151,7.81454767 17.4400151,6.59454043 C17.4400151,4.76452957 13.5359347,3.28101266 8.72000756,3.28101266 C3.90408037,3.28101266 0,4.76452957 0,6.59454043 C0,7.17576636 0,7.70154515 0,8.1718768" id="Oval-Copy-13" transform="translate(8.720008, 5.741772) scale(1, -1) translate(-8.720008, -5.741772) "></path>
                </g>
                <g id="Group-16-Copy-5">
                    <path d="M8.72000756,6.56202532 C13.5359347,6.56202532 17.4400151,5.09306591 17.4400151,3.28101266 C17.4400151,1.4689594 13.5359347,0 8.72000756,0 C3.90408037,0 0,1.4689594 0,3.28101266 C0,4.14429634 0.886102364,4.9297086 2.33475575,5.51550917" id="Oval-Copy-3" transform="translate(8.720008, 3.281013) scale(1, -1) translate(-8.720008, -3.281013) "></path>
                    <path d="M17.4400151,8.1718768 C17.4400151,8.34032646 17.4400151,7.81454767 17.4400151,6.59454043 C17.4400151,4.76452957 13.5359347,3.28101266 8.72000756,3.28101266 C3.90408037,3.28101266 0,4.76452957 0,6.59454043 C0,7.17576636 0,7.70154515 0,8.1718768" id="Oval-Copy-13" transform="translate(8.720008, 5.741772) scale(1, -1) translate(-8.720008, -5.741772) "></path>
                </g>
                <g id="Group-16-Copy-4" transform="translate(0.000000, 6.151899)">
                    <path d="M16.8164583,4.61392405 C17.2187008,4.2601663 17.4400151,3.87392882 17.4400151,3.46945763 C17.4400151,1.77065771 13.5359347,0.393508268 8.72000756,0.393508268 C3.90408037,0.393508268 0,1.77065771 0,3.46945763 C0,3.86504681 0.211701083,4.2431943 0.597319767,4.59057211" id="Oval-Copy-3" transform="translate(8.720008, 2.503716) scale(1, -1) translate(-8.720008, -2.503716) "></path>
                    <path d="M17.4400151,6.12315982 C17.4400151,6.28108137 17.4400151,5.78816376 17.4400151,4.64440697 C17.4400151,2.92877179 13.5359347,1.53797468 8.72000756,1.53797468 C3.90408037,1.53797468 0,2.92877179 0,4.64440697 C0,5.18930628 0,5.68222389 0,6.12315982" id="Oval-Copy-13" transform="translate(8.720008, 3.844937) scale(1, -1) translate(-8.720008, -3.844937) "></path>
                </g>
            </g>
            <g id="Group-17-Copy-6" transform="translate(433.139524, 151.000000)" stroke="#000000" stroke-linecap="round" stroke-width="0.8">
                <g id="Group-16-Copy-5">
                    <path d="M8.72000756,6.56202532 C13.5359347,6.56202532 17.4400151,5.09306591 17.4400151,3.28101266 C17.4400151,1.4689594 13.5359347,0 8.72000756,0 C3.90408037,0 0,1.4689594 0,3.28101266 C0,4.14429634 0.886102364,4.9297086 2.33475575,5.51550917" id="Oval-Copy-3" transform="translate(8.720008, 3.281013) scale(1, -1) translate(-8.720008, -3.281013) "></path>
                    <path d="M17.4400151,8.1718768 C17.4400151,8.34032646 17.4400151,7.81454767 17.4400151,6.59454043 C17.4400151,4.76452957 13.5359347,3.28101266 8.72000756,3.28101266 C3.90408037,3.28101266 0,4.76452957 0,6.59454043 C0,7.17576636 0,7.70154515 0,8.1718768" id="Oval-Copy-13" transform="translate(8.720008, 5.741772) scale(1, -1) translate(-8.720008, -5.741772) "></path>
                </g>
                <g id="Group-16-Copy-4" transform="translate(0.000000, 6.151899)">
                    <path d="M16.8164583,4.61392405 C17.2187008,4.2601663 17.4400151,3.87392882 17.4400151,3.46945763 C17.4400151,1.77065771 13.5359347,0.393508268 8.72000756,0.393508268 C3.90408037,0.393508268 0,1.77065771 0,3.46945763 C0,3.86504681 0.211701083,4.2431943 0.597319767,4.59057211" id="Oval-Copy-3" transform="translate(8.720008, 2.503716) scale(1, -1) translate(-8.720008, -2.503716) "></path>
                    <path d="M17.4400151,6.12315982 C17.4400151,6.28108137 17.4400151,5.78816376 17.4400151,4.64440697 C17.4400151,2.92877179 13.5359347,1.53797468 8.72000756,1.53797468 C3.90408037,1.53797468 0,2.92877179 0,4.64440697 C0,5.18930628 0,5.68222389 0,6.12315982" id="Oval-Copy-13" transform="translate(8.720008, 3.844937) scale(1, -1) translate(-8.720008, -3.844937) "></path>
                </g>
                <g id="Group-16-Copy-8" transform="translate(0.000000, 10.253165)">
                    <path d="M16.8164583,4.61392405 C17.2187008,4.2601663 17.4400151,3.87392882 17.4400151,3.46945763 C17.4400151,1.77065771 13.5359347,0.393508268 8.72000756,0.393508268 C3.90408037,0.393508268 0,1.77065771 0,3.46945763 C0,3.86504681 0.211701083,4.2431943 0.597319767,4.59057211" id="Oval-Copy-3" transform="translate(8.720008, 2.503716) scale(1, -1) translate(-8.720008, -2.503716) "></path>
                    <path d="M17.4400151,6.12315982 C17.4400151,6.28108137 17.4400151,5.78816376 17.4400151,4.64440697 C17.4400151,2.92877179 13.5359347,1.53797468 8.72000756,1.53797468 C3.90408037,1.53797468 0,2.92877179 0,4.64440697 C0,5.18930628 0,5.68222389 0,6.12315982" id="Oval-Copy-13" transform="translate(8.720008, 3.844937) scale(1, -1) translate(-8.720008, -3.844937) "></path>
                </g>
            </g>
            <g id="Group-17-Copy-2" transform="translate(216.169941, 205.113924) scale(-1, 1) translate(-216.169941, -205.113924) translate(196.169941, 196.113924)" stroke="#000000" stroke-linecap="round">
                <g id="Group-16">
                    <path d="M8.72000756,6.56202532 C13.5359347,6.56202532 17.4400151,5.09306591 17.4400151,3.28101266 C17.4400151,1.4689594 13.5359347,0 8.72000756,0 C3.90408037,0 0,1.4689594 0,3.28101266 C0,4.14429634 0.886102364,4.9297086 2.33475575,5.51550917" id="Oval-Copy-3" transform="translate(8.720008, 3.281013) scale(1, -1) translate(-8.720008, -3.281013) "></path>
                    <path d="M17.4400151,8.1718768 C17.4400151,8.34032646 17.4400151,7.81454767 17.4400151,6.59454043 C17.4400151,4.76452957 13.5359347,3.28101266 8.72000756,3.28101266 C3.90408037,3.28101266 0,4.76452957 0,6.59454043 C0,7.17576636 0,7.70154515 0,8.1718768" id="Oval-Copy-13" transform="translate(8.720008, 5.741772) scale(1, -1) translate(-8.720008, -5.741772) "></path>
                </g>
                <g id="Group-16-Copy" transform="translate(0.000000, 6.151899)">
                    <path d="M16.8164583,4.61392405 C17.2187008,4.2601663 17.4400151,3.87392882 17.4400151,3.46945763 C17.4400151,1.77065771 13.5359347,0.393508268 8.72000756,0.393508268 C3.90408037,0.393508268 0,1.77065771 0,3.46945763 C0,3.86504681 0.211701083,4.2431943 0.597319767,4.59057211" id="Oval-Copy-3" transform="translate(8.720008, 2.503716) scale(1, -1) translate(-8.720008, -2.503716) "></path>
                    <path d="M17.4400151,6.12315982 C17.4400151,6.28108137 17.4400151,5.78816376 17.4400151,4.64440697 C17.4400151,2.92877179 13.5359347,1.53797468 8.72000756,1.53797468 C3.90408037,1.53797468 0,2.92877179 0,4.64440697 C0,5.18930628 0,5.68222389 0,6.12315982" id="Oval-Copy-13" transform="translate(8.720008, 3.844937) scale(1, -1) translate(-8.720008, -3.844937) "></path>
                </g>
                <g id="Group-16-Copy-5" transform="translate(21.543548, 4.101266)">
                    <path d="M8.72000756,6.56202532 C13.5359347,6.56202532 17.4400151,5.09306591 17.4400151,3.28101266 C17.4400151,1.4689594 13.5359347,0 8.72000756,0 C3.90408037,0 0,1.4689594 0,3.28101266 C0,4.14429634 0.886102364,4.9297086 2.33475575,5.51550917" id="Oval-Copy-3" transform="translate(8.720008, 3.281013) scale(1, -1) translate(-8.720008, -3.281013) "></path>
                    <path d="M17.4400151,8.1718768 C17.4400151,8.34032646 17.4400151,7.81454767 17.4400151,6.59454043 C17.4400151,4.76452957 13.5359347,3.28101266 8.72000756,3.28101266 C3.90408037,3.28101266 0,4.76452957 0,6.59454043 C0,7.17576636 0,7.70154515 0,8.1718768" id="Oval-Copy-13" transform="translate(8.720008, 5.741772) scale(1, -1) translate(-8.720008, -5.741772) "></path>
                </g>
                <g id="Group-16-Copy-4" transform="translate(21.543548, 10.253165)">
                    <path d="M16.8164583,4.61392405 C17.2187008,4.2601663 17.4400151,3.87392882 17.4400151,3.46945763 C17.4400151,1.77065771 13.5359347,0.393508268 8.72000756,0.393508268 C3.90408037,0.393508268 0,1.77065771 0,3.46945763 C0,3.86504681 0.211701083,4.2431943 0.597319767,4.59057211" id="Oval-Copy-3" transform="translate(8.720008, 2.503716) scale(1, -1) translate(-8.720008, -2.503716) "></path>
                    <path d="M17.4400151,6.12315982 C17.4400151,6.28108137 17.4400151,5.78816376 17.4400151,4.64440697 C17.4400151,2.92877179 13.5359347,1.53797468 8.72000756,1.53797468 C3.90408037,1.53797468 0,2.92877179 0,4.64440697 C0,5.18930628 0,5.68222389 0,6.12315982" id="Oval-Copy-13" transform="translate(8.720008, 3.844937) scale(1, -1) translate(-8.720008, -3.844937) "></path>
                </g>
                <g id="Group-16-Copy-2" transform="translate(0.000000, 10.253165)">
                    <path d="M16.8164583,4.61392405 C17.2187008,4.2601663 17.4400151,3.87392882 17.4400151,3.46945763 C17.4400151,1.77065771 13.5359347,0.393508268 8.72000756,0.393508268 C3.90408037,0.393508268 0,1.77065771 0,3.46945763 C0,3.86504681 0.211701083,4.2431943 0.597319767,4.59057211" id="Oval-Copy-3" transform="translate(8.720008, 2.503716) scale(1, -1) translate(-8.720008, -2.503716) "></path>
                    <path d="M17.4400151,6.12315982 C17.4400151,6.28108137 17.4400151,5.78816376 17.4400151,4.64440697 C17.4400151,2.92877179 13.5359347,1.53797468 8.72000756,1.53797468 C3.90408037,1.53797468 0,2.92877179 0,4.64440697 C0,5.18930628 0,5.68222389 0,6.12315982" id="Oval-Copy-13" transform="translate(8.720008, 3.844937) scale(1, -1) translate(-8.720008, -3.844937) "></path>
                </g>
            </g>
            <g id="Group-23" transform="translate(249.506424, 0.537975)">
                <path d="M142.529106,0.680355845 L142.529106,19.3455892 C142.529106,33.2631649 131.246682,44.5455892 117.329106,44.5455892 L23.0776497,44.5455892 C12.0319547,44.5455892 3.07764973,53.4998942 3.07764973,64.5455892 L3.07764973,91.3778915" id="Path-3-Copy-46" stroke="url(#linearGradient-1)" stroke-width="1.2" stroke-linecap="round"  class="noDraw" stroke-dasharray="4.8" transform="translate(72.803378, 46.029124) scale(-1, -1) translate(-72.803378, -46.029124) "></path>
                <path d="M142.529106,0.680355845 L142.529106,19.3455892 C142.529106,33.2631649 131.246682,44.5455892 117.329106,44.5455892 L23.0776497,44.5455892 C12.0319547,44.5455892 3.07764973,53.4998942 3.07764973,64.5455892 L3.07764973,91.3778915" id="Path-3-Copy-49" class="reverse" stroke="#FFFFFF" stroke-width="2" stroke-linecap="round"   transform="translate(72.803378, 46.029124) scale(-1, -1) translate(-72.803378, -46.029124) "></path>
                <path d="M3.07764973,116.306034 L3.07764973,96.1202532" id="Path-3-Copy-47" stroke="#000000" stroke-width="1.2" stroke-linecap="round" transform="translate(3.077650, 106.213144) scale(-1, -1) translate(-3.077650, -106.213144) "></path>
                <ellipse id="Oval-4" fill="#F1AE10" cx="3.07764973" cy="123.803797" rx="3.07764973" ry="3.07594937"></ellipse>
            </g>
            <g id="Group-23-Copy" transform="translate(249.069715, 275.063291)">
                <path d="M3.23028528,0.0623678244 L3.23028528,100.774584" id="Path-3-Copy-46" stroke="#000000" stroke-width="1.2" stroke-linecap="round"  class="noDraw" stroke-dasharray="4.8" transform="translate(3.230285, 50.418476) scale(-1, -1) translate(-3.230285, -50.418476) "></path>
                <path d="M3.23028528,0.0623678244 L3.23028528,100.774584" id="Path-3-Copy-48" class="reverse" stroke="#FFFFFF" stroke-width="2" stroke-linecap="round"   transform="translate(3.230285, 50.418476) scale(-1, -1) translate(-3.230285, -50.418476) "></path>
                <path d="M3.02588324,126.185781 L3.02588324,106" id="Path-3-Copy-47" stroke="#000000" stroke-width="1.2" stroke-linecap="round" transform="translate(3.025883, 116.092891) scale(-1, -1) translate(-3.025883, -116.092891) "></path>
                <ellipse id="Oval-4" fill="#1BD4A5" cx="3.07764973" cy="133.075949" rx="3.07764973" ry="3.07594937"></ellipse>
            </g>
            <g id="Group-16-Copy-3" transform="translate(86.390988, 155.101266)" stroke="#000000" stroke-linecap="round" stroke-width="0.8">
                <path d="M8.72000756,6.56202532 C13.5359347,6.56202532 17.4400151,5.09306591 17.4400151,3.28101266 C17.4400151,1.4689594 13.5359347,0 8.72000756,0 C3.90408037,0 0,1.4689594 0,3.28101266 C0,4.14429634 0.886102364,4.9297086 2.33475575,5.51550917" id="Oval-Copy-3" transform="translate(8.720008, 3.281013) scale(1, -1) translate(-8.720008, -3.281013) "></path>
                <path d="M17.4400151,8.1718768 C17.4400151,8.34032646 17.4400151,7.81454767 17.4400151,6.59454043 C17.4400151,4.76452957 13.5359347,3.28101266 8.72000756,3.28101266 C3.90408037,3.28101266 0,4.76452957 0,6.59454043 C0,7.17576636 0,7.70154515 0,8.1718768" id="Oval-Copy-13" transform="translate(8.720008, 5.741772) scale(1, -1) translate(-8.720008, -5.741772) "></path>
            </g>
            <path d="M388.000661,145.873418 C334.925898,114.865238 296.284296,111.990047 272.075855,137.247844" id="Path-5" stroke="#000000" stroke-width="0.6" stroke-linecap="round" stroke-linejoin="round"  class="noDraw" stroke-dasharray="2.4,6"></path>
            <path d="M535.727848,193.037975 C502.288158,169.797468 466.724206,169.797468 429.035991,193.037975" id="Path-5-Copy-9" stroke="url(#linearGradient-2)" stroke-width="0.6" stroke-linecap="round" stroke-linejoin="round"  class="noDraw" stroke-dasharray="2.4,6" transform="translate(482.381920, 184.322785) scale(1, -1) translate(-482.381920, -184.322785) "></path>
            <path d="M219.75581,135.000559 C190.160337,120.628635 162.803451,124.252921 137.68515,145.873418" id="Path-5-Copy-2" stroke="#000000" stroke-width="0.6" stroke-linecap="round" stroke-linejoin="round"  class="noDraw" stroke-dasharray="2.4,6" transform="translate(178.720480, 136.132911) scale(-1, 1) translate(-178.720480, -136.132911) "></path>
            <path d="M115.115719,166.104355 C150.082978,154.996651 181.885358,168.075791 210.52286,205.341772" id="Path-5-Copy-4" stroke="#000000" stroke-width="0.6" stroke-linecap="round" stroke-linejoin="round"  class="noDraw" stroke-dasharray="2.4,6" transform="translate(162.819290, 183.810127) scale(-1, 1) translate(-162.819290, -183.810127) "></path>
            <path d="M181.79813,207.392405 C151.46047,199.63536 128.959461,188.685861 114.295103,174.543907 C86.0064702,147.263031 55.2318773,137.578335 21.971324,145.489819" id="Path-5-Copy-12" stroke="url(#linearGradient-3)" stroke-width="0.6" stroke-linecap="round" stroke-linejoin="round"  class="noDraw" stroke-dasharray="2.4,6" transform="translate(101.884727, 175.107195) scale(-1, -1) translate(-101.884727, -175.107195) "></path>
            <path d="M489.824704,161.399005 C455.504596,167.399916 426.004315,154.829439 401.323861,123.687575 C368.207668,81.9014742 331.350537,64.3046084 290.752467,70.8969776" id="Path-5-Copy-13" stroke="url(#linearGradient-4)" stroke-width="0.6" stroke-linecap="round" stroke-linejoin="round"  class="noDraw" stroke-dasharray="2.4,6" transform="translate(390.288586, 116.201397) rotate(-40.000000) translate(-390.288586, -116.201397) "></path>
            <path d="M7.39797846,236.528498 C34.071523,224.311217 61.7703705,236.814376 90.4945211,274.037975" id="Path-5-Copy-8" stroke="url(#linearGradient-5)" stroke-width="0.6" stroke-linecap="round" stroke-linejoin="round"  class="noDraw" stroke-dasharray="2.4,6" transform="translate(48.946250, 253.018987) scale(1, -1) translate(-48.946250, -253.018987) "></path>
            <path d="M0.216795768,172.059366 C40.0940325,164.987335 68.4768022,172.321977 85.3651049,194.063291" id="Path-5-Copy-7" stroke="url(#linearGradient-6)" stroke-width="0.6" stroke-linecap="round" stroke-linejoin="round"  class="noDraw" stroke-dasharray="2.4,6" transform="translate(42.790950, 181.759494) scale(1, -1) translate(-42.790950, -181.759494) "></path>
            <path d="M412.621859,230.974684 C380.844697,176.962594 342.545056,156.822809 297.722936,170.555328" id="Path-5-Copy-5" stroke="#000000" stroke-width="0.6" stroke-linecap="round" stroke-linejoin="round"  class="noDraw" stroke-dasharray="2.4,6"></path>
            <path d="M355.172398,245.539105 C330.6688,236.146495 310.493096,239.152448 294.645286,254.556962" id="Path-5-Copy" stroke="#000000" stroke-width="0.6" stroke-linecap="round" stroke-linejoin="round"  class="noDraw" stroke-dasharray="2.4,6" transform="translate(324.908842, 247.379747) scale(1, -1) translate(-324.908842, -247.379747) "></path>
            <path d="M450.579539,223.873954 C422.15943,219.502254 401.641765,221.869164 389.026544,230.974684" id="Path-5-Copy-6" stroke="url(#linearGradient-7)" stroke-width="0.6" stroke-linecap="round" stroke-linejoin="round"  class="noDraw" stroke-dasharray="2.4,6"></path>
            <path d="M495.718402,268.669292 C467.105027,264.452697 446.929324,267.609347 435.19129,278.139241" id="Path-5-Copy-11" stroke="url(#linearGradient-8)" stroke-width="0.6" stroke-linecap="round" stroke-linejoin="round"  class="noDraw" stroke-dasharray="2.4,6" transform="translate(465.454846, 272.500000) scale(1, -1) translate(-465.454846, -272.500000) "></path>
            <path d="M238.221708,225.848101 C202.685861,227.686337 179.774468,237.939502 169.487531,256.607595" id="Path-5-Copy-3" stroke="#000000" stroke-width="0.6" stroke-linecap="round" stroke-linejoin="round"  class="noDraw" stroke-dasharray="2.4,6" transform="translate(203.854619, 241.227848) scale(-1, -1) translate(-203.854619, -241.227848) "></path>
            <path d="M59.7180238,291.468354 C70.0049616,272.800261 92.916354,262.547097 128.452201,260.708861" id="Path-5-Copy-10" stroke="url(#linearGradient-9)" stroke-width="0.6" stroke-linecap="round" stroke-linejoin="round"  class="noDraw" stroke-dasharray="2.4,6"></path>
            <path d="M388.000661,145.873418 C334.925898,114.865238 296.284296,111.990047 272.075855,137.247844" id="Path-5-Copy-27" class="reverse" stroke="#FFFFFF" stroke-width="2" stroke-linecap="round" stroke-linejoin="round"  ></path>
            <path d="M535.727848,193.037975 C502.288158,169.797468 466.724206,169.797468 429.035991,193.037975" id="Path-5-Copy-26" class="reverse" stroke="#FFFFFF" stroke-width="2" stroke-linecap="round" stroke-linejoin="round"   transform="translate(482.381920, 184.322785) scale(1, -1) translate(-482.381920, -184.322785) "></path>
            <path d="M219.75581,135.000559 C190.160337,120.628635 162.803451,124.252921 137.68515,145.873418" id="Path-5-Copy-25" class="reverse" stroke="#FFFFFF" stroke-width="2" stroke-linecap="round" stroke-linejoin="round"   transform="translate(178.720480, 136.132911) scale(-1, 1) translate(-178.720480, -136.132911) "></path>
            <path d="M115.115719,166.104355 C150.082978,154.996651 181.885358,168.075791 210.52286,205.341772" id="Path-5-Copy-24" class="reverse" stroke="#FFFFFF" stroke-width="2" stroke-linecap="round" stroke-linejoin="round"   transform="translate(162.819290, 183.810127) scale(-1, 1) translate(-162.819290, -183.810127) "></path>
            <path d="M181.79813,207.392405 C151.46047,199.63536 128.959461,188.685861 114.295103,174.543907 C86.0064702,147.263031 55.2318773,137.578335 21.971324,145.489819" id="Path-5-Copy-23" class="reverse" stroke="#FFFFFF" stroke-width="2" stroke-linecap="round" stroke-linejoin="round"   transform="translate(101.884727, 175.107195) scale(-1, -1) translate(-101.884727, -175.107195) "></path>
            <path d="M489.824704,161.399005 C455.504596,167.399916 426.004315,154.829439 401.323861,123.687575 C368.207668,81.9014742 331.350537,64.3046084 290.752467,70.8969776" id="Path-5-Copy-22" class="reverse" stroke="#FFFFFF" stroke-width="2" stroke-linecap="round" stroke-linejoin="round"   transform="translate(390.288586, 116.201397) rotate(-40.000000) translate(-390.288586, -116.201397) "></path>
            <path d="M7.39797846,236.528498 C34.071523,224.311217 61.7703705,236.814376 90.4945211,274.037975" id="Path-5-Copy-21" class="reverse" stroke="#FFFFFF" stroke-width="2" stroke-linecap="round" stroke-linejoin="round"   transform="translate(48.946250, 253.018987) scale(1, -1) translate(-48.946250, -253.018987) "></path>
            <path d="M0.216795768,172.059366 C40.0940325,164.987335 68.4768022,172.321977 85.3651049,194.063291" id="Path-5-Copy-20" class="reverse" stroke="#FFFFFF" stroke-width="2" stroke-linecap="round" stroke-linejoin="round"   transform="translate(42.790950, 181.759494) scale(1, -1) translate(-42.790950, -181.759494) "></path>
            <path d="M412.621859,230.974684 C380.844697,176.962594 342.545056,156.822809 297.722936,170.555328" id="Path-5-Copy-19" class="reverse" stroke="#FFFFFF" stroke-width="2" stroke-linecap="round" stroke-linejoin="round"  ></path>
            <path d="M355.172398,245.539105 C330.6688,236.146495 310.493096,239.152448 294.645286,254.556962" id="Path-5-Copy-18" class="reverse" stroke="#FFFFFF" stroke-width="2" stroke-linecap="round" stroke-linejoin="round"   transform="translate(324.908842, 247.379747) scale(1, -1) translate(-324.908842, -247.379747) "></path>
            <path d="M450.579539,223.873954 C422.15943,219.502254 401.641765,221.869164 389.026544,230.974684" id="Path-5-Copy-17" class="reverse" stroke="#FFFFFF" stroke-width="2" stroke-linecap="round" stroke-linejoin="round"  ></path>
            <path d="M495.718402,268.669292 C467.105027,264.452697 446.929324,267.609347 435.19129,278.139241" id="Path-5-Copy-16" class="reverse" stroke="#FFFFFF" stroke-width="2" stroke-linecap="round" stroke-linejoin="round"   transform="translate(465.454846, 272.500000) scale(1, -1) translate(-465.454846, -272.500000) "></path>
            <path d="M238.221708,225.848101 C202.685861,227.686337 179.774468,237.939502 169.487531,256.607595" id="Path-5-Copy-15" class="reverse" stroke="#FFFFFF" stroke-width="2" stroke-linecap="round" stroke-linejoin="round"   transform="translate(203.854619, 241.227848) scale(-1, -1) translate(-203.854619, -241.227848) "></path>
            <path d="M59.7180238,291.468354 C70.0049616,272.800261 92.916354,262.547097 128.452201,260.708861" id="Path-5-Copy-14" class="reverse" stroke="#FFFFFF" stroke-width="2" stroke-linecap="round" stroke-linejoin="round"  ></path>
            <g id="Group-27" transform="translate(251.729643, 223.797468)" stroke="#000000" stroke-linecap="round">
                <g id="Group-16-Copy-3" transform="translate(0.854430, 0.000000)">
                    <path d="M15.3882486,11.278481 C23.8869437,11.278481 30.7764973,8.75370704 30.7764973,5.63924051 C30.7764973,2.52477397 23.8869437,0 15.3882486,0 C6.88955359,0 0,2.52477397 0,5.63924051 C0,7.12300933 1.56371005,8.47293665 4.12015721,9.47978139" id="Oval-Copy-3" stroke-width="1.2" transform="translate(15.388249, 5.639241) scale(1, -1) translate(-15.388249, -5.639241) "></path>
                    <g id="Group" transform="translate(7.697830, 2.153718)" stroke-width="0.9">
                        <ellipse id="Oval-Copy-3" transform="translate(7.262658, 3.631329) rotate(-1.000000) translate(-7.262658, -3.631329) " cx="7.26265823" cy="3.63132911" rx="6.40822785" ry="1.92246835"></ellipse>
                        <path d="M10.0575497,-0.727248067 L10.0575497,-0.727248067 C11.2873512,0.126105191 12.0320439,1.5185474 12.0590368,3.01517529 L12.0945307,4.98313931 C12.1179742,6.28296762 12.7178394,7.5051583 13.7317401,8.31885884" id="Path-9" transform="translate(11.894645, 3.795805) rotate(110.000000) translate(-11.894645, -3.795805) "></path>
                    </g>
                    <path d="M30.7764973,14.3001458 C30.7764973,14.598442 30.7764973,13.6673754 30.7764973,11.5069459 C30.7764973,8.26630171 23.8869437,5.63924051 15.3882486,5.63924051 C6.88955359,5.63924051 0,8.26630171 0,11.5069459 C0,12.5362002 0,13.4672668 0,14.3001458" id="Oval-Copy-13" stroke-width="1.2" transform="translate(15.388249, 9.996835) scale(1, -1) translate(-15.388249, -9.996835) "></path>
                </g>
                <g id="Group-25" transform="translate(0.000000, 10.253165)" stroke-width="1.2">
                    <g id="Group-16-Copy" transform="translate(16.849849, 5.126582) scale(-1, 1) translate(-16.849849, -5.126582) translate(1.042887, 0.000000)">
                        <path d="M30.2363787,6.73910548 C30.5885254,6.29262382 30.7764973,5.82275021 30.7764973,5.33770703 C30.7764973,2.40121002 23.8869437,0.0207088425 15.3882486,0.0207088425 C6.88955359,0.0207088425 0,2.40121002 0,5.33770703 C0,6.02151118 0.373590147,6.67516612 1.05409371,7.27563349 C1.14303323,7.35411256 1.33427758,7.46045655 1.62782673,7.59466546" id="Oval-Copy-3" transform="translate(15.388249, 3.807687) scale(1, -1) translate(-15.388249, -3.807687) "></path>
                        <path d="M30.7764973,10.2034873 C30.7764973,10.476466 30.7764973,9.62442266 30.7764973,7.64735736 C30.7764973,4.68175941 23.8869437,2.27766727 15.3882486,2.27766727 C6.88955359,2.27766727 0,4.68175941 0,7.64735736 C0,8.58925474 0,9.44129805 0,10.2034873" id="Oval-Copy-13" transform="translate(15.388249, 6.265416) scale(1, -1) translate(-15.388249, -6.265416) "></path>
                    </g>
                    <g id="Group-16-Copy-2" transform="translate(15.823966, 11.705696) scale(-1, 1) translate(-15.823966, -11.705696) translate(0.017004, 6.151899)">
                        <path d="M29.6761029,7.85299194 C30.3859426,7.22587594 30.7764973,6.54118222 30.7764973,5.82416512 C30.7764973,2.81265616 23.8869437,0.371345784 15.3882486,0.371345784 C6.88955359,0.371345784 0,2.81265616 0,5.82416512 C0,6.24770207 0.136271606,6.6599608 0.394125918,7.05573631" id="Oval-Copy-3" transform="translate(15.388249, 4.112169) scale(1, -1) translate(-15.388249, -4.112169) "></path>
                        <path d="M30.7764973,10.5284553 C30.7764973,10.8084072 30.7764973,9.93459869 30.7764973,7.90702985 C30.7764973,4.86567658 23.8869437,2.40017261 15.3882486,2.40017261 C6.88955359,2.40017261 0,4.86567658 0,7.90702985 C0,8.87298771 0,9.74679621 0,10.5284553" id="Oval-Copy-13" transform="translate(15.388249, 6.489787) scale(1, -1) translate(-15.388249, -6.489787) "></path>
                    </g>
                </g>
            </g>
            <g id="Group-16-Copy-9" transform="translate(184.114160, 188.594937) scale(-1, 1) translate(-184.114160, -188.594937) translate(170.016059, 181.759494)" stroke="#000000" stroke-linecap="round">
                <path d="M13.8494238,10.4728752 C21.4982493,10.4728752 27.6988475,8.12844225 27.6988475,5.23643761 C27.6988475,2.34443298 21.4982493,-5.68434189e-14 13.8494238,-5.68434189e-14 C6.20059823,-5.68434189e-14 0,2.34443298 0,5.23643761 C0,6.61422295 1.40733905,7.86772689 3.70814149,8.80265415" id="Oval-Copy-3" stroke-width="1.08" transform="translate(13.849424, 5.236438) scale(1, -1) translate(-13.849424, -5.236438) "></path>
                <g id="Group" transform="translate(12.800869, 5.126582) scale(-1, 1) translate(-12.800869, -5.126582) translate(5.538211, 2.136076)" stroke-width="0.9">
                    <ellipse id="Oval-Copy-3" transform="translate(6.173259, 3.086630) rotate(-2.000000) translate(-6.173259, -3.086630) " cx="6.17325949" cy="3.08662975" rx="5.44699367" ry="1.6340981"></ellipse>
                    <path d="M8.69555251,-0.45659799 L8.69555251,-0.45659799 C9.71386146,0.272022281 10.3395524,1.4292842 10.3915834,2.68033712 L10.4520387,4.13394893 C10.4971893,5.21956552 10.9776997,6.24124009 11.7851067,6.96835488" id="Path-9" transform="translate(10.240330, 3.255878) rotate(110.000000) translate(-10.240330, -3.255878) "></path>
                </g>
                <path d="M27.6988475,13.2787068 C27.6988475,13.5556962 27.6988475,12.6911343 27.6988475,10.6850212 C27.6988475,7.67585159 21.4982493,5.23643761 13.8494238,5.23643761 C6.20059823,5.23643761 0,7.67585159 0,10.6850212 C0,11.6407573 0,12.5053192 0,13.2787068" id="Oval-Copy-13" stroke-width="1.08" transform="translate(13.849424, 9.282776) scale(1, -1) translate(-13.849424, -9.282776) "></path>
            </g>
            <path d="M268.591593,176.193335 C266.25322,165.60002 265.961472,153.77026 251.520578,152.428642 C237.079684,151.087023 234.693938,166.52441 237.13204,175.333865 C239.570143,184.14332 242.471009,191.732189 251.219468,194.590878 C259.967926,197.449566 272.094798,192.063586 268.591593,176.193335 Z" id="Oval-Copy-15" stroke="#000000" stroke-width="1.2" stroke-linecap="round" transform="translate(252.755294, 173.834812) rotate(20.000000) translate(-252.755294, -173.834812) "></path>
            <path d="M246.031025,170.481137 C245.342341,170.302521 244.296854,170.510686 242.894565,171.105632" id="Path-3-Copy-17" stroke="#000000" stroke-linecap="round" transform="translate(244.462795, 170.846488) rotate(-7.000000) translate(-244.462795, -170.846488) "></path>
            <path d="M262.641801,170.809017 C261.762798,170.176198 260.473577,170.411603 258.774137,171.515232" id="Path-3-Copy-18" stroke="#000000" stroke-linecap="round" transform="translate(260.707969, 170.989160) rotate(33.000000) translate(-260.707969, -170.989160) "></path>
            <path d="M254.958358,190.704451 C255.186766,191.414248 254.796027,192.09706 253.78614,192.752888" id="Path-3-Copy-24" stroke="#000000" stroke-width="0.8" stroke-linecap="round" transform="translate(254.403847, 191.728669) rotate(33.000000) translate(-254.403847, -191.728669) "></path>
            <path d="M258.130805,149.980507 C254.981022,159.07008 250.074101,164.955749 243.410041,167.637515" id="Path-3-Copy-21" stroke="#000000" stroke-width="1.4" stroke-linecap="round" transform="translate(250.770423, 158.809011) rotate(33.000000) translate(-250.770423, -158.809011) "></path>
            <path d="M268.029759,161.859583 C262.783666,165.620234 258.669558,165.815013 255.687433,162.443922" id="Path-3-Copy-22" stroke="#000000" stroke-width="1.4" stroke-linecap="round" transform="translate(261.858596, 163.346859) rotate(33.000000) translate(-261.858596, -163.346859) "></path>
            <path d="M264.44401,152.515385 C263.121004,152.762916 262.51489,153.880122 262.625666,155.867004" id="Path-3-Copy-25" stroke="#000000" stroke-width="1.2" stroke-linecap="round" transform="translate(263.528419, 154.191194) rotate(33.000000) translate(-263.528419, -154.191194) "></path>
            <path d="M261.590862,151.985333 C262.365722,152.613051 262.762993,153.626495 262.782675,155.025666" id="Path-3-Copy-26" stroke="#000000" stroke-width="1.2" stroke-linecap="round" transform="translate(262.186769, 153.505499) rotate(33.000000) translate(-262.186769, -153.505499) "></path>
            <ellipse id="Oval" fill="#000000" cx="245.563291" cy="174.447086" rx="1.19620251" ry="1.19808517"></ellipse>
            <circle id="Oval-Copy" fill="#000000" cx="260.088608" cy="174.411392" r="1.19620251"></circle>
            <path d="M257.057829,183.603716 C256.72,187.07593 254.820994,189.067547 251.360813,189.578569" id="Path-3-Copy-19" stroke="#000000" stroke-width="1.4" stroke-linecap="round" transform="translate(254.209321, 186.591143) rotate(33.000000) translate(-254.209321, -186.591143) "></path>
            <path d="M255.766604,179.078836 C252.441445,182.431968 252.66701,180.128709 251.386209,176.934531 C251.131111,176.298346 250.199307,175.270798 248.590795,173.851888" id="Path-3-Copy-20" stroke="#000000" stroke-linecap="round" transform="translate(252.178699, 177.288602) rotate(33.000000) translate(-252.178699, -177.288602) "></path>
            <path d="M265.980713,207.012671 C266.603968,206.297537 266.946439,205.518111 266.946439,204.702388 C266.946439,201.725601 262.385714,199.232195 256.262121,198.582562 C255.584429,198.510667 253.809327,196.320699 250.936817,192.012658 C251.406077,196.299991 251.406077,198.460334 250.936817,198.493687 C244.314013,198.964399 239.247591,201.564904 239.247591,204.702388 C239.247591,205.664931 239.724438,206.576934 240.576779,207.392405" id="Oval-6" stroke="#000000" stroke-width="1.2" stroke-linecap="round" stroke-linejoin="round" transform="translate(253.097015, 199.702532) scale(1, -1) translate(-253.097015, -199.702532) "></path>
            <g id="Group-23" transform="translate(395.601266, 133.911392)">
                <path d="M6.27415333,25.1481027 C11.5417723,23.0755774 16.1308589,22.3837644 20.0414129,23.0726636 L20.0414137,23.0726586 C22.5241343,23.5100248 24.4686801,25.4526817 24.9084589,27.9349761 L25.1477825,29.2858183 C25.5827741,31.7410915 25.6265667,34.2497261 25.2775364,36.7186857 L25.2775364,36.7186857 C24.934201,39.1473601 23.8709301,41.4174189 22.2249263,43.2359376 L22.1393654,43.330466 C20.5006811,45.1408981 18.0883247,46.0481612 15.6627353,45.7662618 L15.4207875,45.7381429 C12.7703969,45.4301173 10.3176368,44.1841004 8.50584457,42.2253103 L8.26556216,41.9655328 C6.29471883,39.8347872 5.12338243,37.0867682 4.95101571,34.1894263 L4.50552572,26.7011079" id="Path-3-Copy-17" stroke="#000000" stroke-width="1.2" stroke-linecap="round" stroke-linejoin="round"></path>
                <path d="M25.6880749,29.0646659 C29.6931228,22.4433712 28.7961592,11.4808346 17.4172893,10.2108756 C19.2510856,4.09284791 16.9266441,-1.03025203 10.6481989,0.235729961 C4.36975364,1.50171195 2.96131138,8.05243179 7.54042691,11.3028789" id="Path-3-Copy-17" stroke="#000000" stroke-width="1.2" stroke-linecap="round" stroke-linejoin="round"></path>
                <path d="M4.27254253,31.7689248 C0.566835226,30.6419223 -3.05906449,13.6359455 9.43666506,11.1743414" id="Path-3-Copy-34" stroke="#000000" stroke-width="1.2" stroke-linecap="round" stroke-linejoin="round"></path>
                <path d="M10.9938816,28.2857661 C9.16959759,27.8425435 7.70388467,28.38517 6.59674284,29.9136456" id="Path-3-Copy-17" stroke="#000000" stroke-width="0.8" stroke-linecap="round" transform="translate(8.795312, 29.024981) rotate(-7.000000) translate(-8.795312, -29.024981) "></path>
                <path d="M23.5640868,27.1305636 C21.5682164,26.5558263 20.1188557,26.8398792 19.2160047,27.9827223" id="Path-3-Copy-18" stroke="#000000" stroke-width="0.8" stroke-linecap="round" transform="translate(21.390046, 27.412404) rotate(33.000000) translate(-21.390046, -27.412404) "></path>
                <path d="M17.9831028,38.0912643 C15.6973571,40.6748772 13.8018233,41.3628325 12.2965014,40.1551303" id="Path-3-Copy-19" stroke="#000000" stroke-linecap="round" transform="translate(15.139802, 39.411727) rotate(33.000000) translate(-15.139802, -39.411727) "></path>
                <path d="M9.93542696,24.1233802 C5.93718261,23.4761424 4.65013902,20.2367939 6.0742962,14.4053347" id="Path-3-Copy-35" stroke="#000000" stroke-width="0.8" stroke-linecap="round" transform="translate(7.724328, 19.264357) rotate(33.000000) translate(-7.724328, -19.264357) "></path>
                <path d="M23.1507681,21.6053408 C21.976283,19.2846116 20.41734,17.7066431 18.4739391,16.8714355" id="Path-3-Copy-36" stroke="#000000" stroke-width="0.8" stroke-linecap="round" transform="translate(20.812354, 19.238388) rotate(33.000000) translate(-20.812354, -19.238388) "></path>
                <path d="M26.9057631,34.7034607 C27.4191498,32.8077211 26.6595375,31.6380206 24.626926,31.1943593" id="Path-3-Copy-37" stroke="#000000" stroke-width="0.8" stroke-linecap="round" transform="translate(25.843986, 32.948910) rotate(33.000000) translate(-25.843986, -32.948910) "></path>
                <path d="M6.05365226,36.4111982 C4.3816724,36.8376661 3.52803954,35.7554557 3.49275367,33.1645672" id="Path-3-Copy-38" stroke="#000000" stroke-width="0.8" stroke-linecap="round" transform="translate(4.773203, 34.833090) rotate(33.000000) translate(-4.773203, -34.833090) "></path>
                <path d="M12.4662152,49.8357541 C12.2537689,48.3833945 11.6538965,46.7900597 10.6665978,45.0557497" id="Path-3-Copy-45" stroke="#000000" stroke-width="1.2" stroke-linecap="round" transform="translate(11.566407, 47.445752) rotate(33.000000) translate(-11.566407, -47.445752) "></path>
                <path d="M18.2247427,51.0651984 C16.9611979,50.0323169 16.4914891,48.2087608 16.8156162,45.5945302" id="Path-3-Copy-64" stroke="#000000" stroke-width="1.2" stroke-linecap="round" transform="translate(17.470551, 48.329864) rotate(33.000000) translate(-17.470551, -48.329864) "></path>
                <path d="M15.1239349,33.441981 C15.3623809,33.7331034 15.9846866,34.3766267 16.9908522,35.3725507 L16.9908707,35.372532 C17.3833978,35.7610637 17.3866368,36.394237 16.9981051,36.7867642 C16.9094254,36.8763558 16.8046063,36.9483732 16.6891704,36.999022 L16.4299627,37.1127523" id="Path-3-Copy-23" stroke="#000000" stroke-width="0.6" stroke-linecap="round" transform="translate(16.133650, 35.277367) rotate(33.000000) translate(-16.133650, -35.277367) "></path>
                <path d="M16.8563564,43.1298601 C16.650111,43.6689823 16.3087545,43.9999907 15.8322867,44.1228851" id="Path-3-Copy-33" stroke="#000000" stroke-width="0.5" stroke-linecap="round" transform="translate(16.344322, 43.626373) rotate(33.000000) translate(-16.344322, -43.626373) "></path>
                <circle id="Oval" fill="#000000" cx="9.82447617" cy="31.774498" r="1"></circle>
                <circle id="Oval-Copy" fill="#000000" cx="20.8053693" cy="30.4604482" r="1"></circle>
            </g>
            <g id="Group-13" transform="translate(370.428741, 237.293101) rotate(-15.000000) translate(-370.428741, -237.293101) translate(352.058488, 216.786772)">
                <path d="M30.2324535,23.686698 C31.6149604,22.6304287 32.5664018,18.9356191 29.6748005,14.127083 C26.7831992,9.31854688 21.1168013,2.86049193 12.6564904,6.80029376 C4.19617954,10.7400956 4.67090747,17.5311069 6.16289879,24.2450672 C7.15755968,28.7210407 9.73746918,30.9439201 13.9026273,30.9137055" id="Path-3-Copy-19" stroke="#000000" stroke-width="1.2" stroke-linecap="round" transform="translate(18.431063, 18.247630) rotate(33.000000) translate(-18.431063, -18.247630) "></path>
                <path d="M6.8948656,20.9616203 L9.74056087,28.4138178 C10.8099796,31.2143705 12.798338,33.5689908 15.380232,35.0923343 L17.0078341,36.0526359 C18.4956443,36.9304589 20.30732,37.065608 21.908907,36.4182506 L21.908907,36.4182506 C23.5269115,35.7642574 24.7933402,34.4571688 25.3958929,32.8193116 L25.8900646,31.476055 C26.8126286,28.9683437 26.7055763,26.1974796 25.5922803,23.7684238 L22.7765821,17.6249648 C22.0305621,15.9972536 21.1735601,14.4227367 20.2116333,12.9125426 L20.2116333,12.9125426 C19.4165082,11.6642217 17.7623252,11.2927019 16.5097597,12.0811236 C12.0183223,14.9082662 9.08881362,16.5440023 7.72124618,16.9883519 C6.13656625,17.5032456 5.86110605,18.8276684 6.8948656,20.9616203 Z" id="Path-3-Copy-19" stroke="#000000" stroke-width="1.2" stroke-linecap="round" stroke-linejoin="round" transform="translate(16.397419, 24.245055) rotate(33.000000) translate(-16.397419, -24.245055) "></path>
                <circle id="Oval" fill="#000000" cx="13.3499759" cy="19.7182971" r="1"></circle>
                <path d="M17.4946522,27.9566438 C16.8716883,29.3939204 15.9459713,29.8994187 14.7175012,29.4731389" id="Path-3-Copy-23" stroke="#000000" stroke-linecap="round" transform="translate(16.106077, 28.788024) rotate(33.000000) translate(-16.106077, -28.788024) "></path>
                <path d="M17.8460902,22.9337612 C17.2747498,23.7297176 16.5831728,23.9544246 15.7713592,23.6078821" id="Path-3-Copy-39" stroke="#000000" stroke-width="0.8" stroke-linecap="round" transform="translate(16.808725, 23.360976) rotate(33.000000) translate(-16.808725, -23.360976) "></path>
                <path d="M13.2333502,17.1281853 C12.5581018,17.7945813 12.0949398,18.3920661 11.8438643,18.9206399" id="Path-3-Copy-41" stroke="#000000" stroke-width="0.8" stroke-linecap="round" transform="translate(12.538607, 18.024413) rotate(33.000000) translate(-12.538607, -18.024413) "></path>
                <path d="M21.1501101,19.4971005 C21.6441326,19.468726 22.1735622,19.5116773 22.7383988,19.6259544" id="Path-3-Copy-42" stroke="#000000" stroke-width="0.8" stroke-linecap="round" transform="translate(21.944254, 19.915850) rotate(33.000000) translate(-21.944254, -19.915850) "></path>
                <path d="M15.6449071,34.9128467 C15.4208403,35.5371646 14.9226255,35.8249397 14.1502629,35.776172" id="Path-3-Copy-40" stroke="#000000" stroke-width="0.5" stroke-linecap="round" transform="translate(14.897585, 35.347159) rotate(33.000000) translate(-14.897585, -35.347159) "></path>
                <path d="M23.7696125,24.8301026 C23.2529348,25.6239019 22.2484817,26.436932 20.7562532,27.2691929 C18.9561037,25.2104708 17.1011875,24.668102 15.1915048,25.6420866 C13.281822,26.6160712 12.5667124,28.2629773 13.046176,30.582805 C11.2980156,31.1508168 9.800111,31.3680301 8.55246214,31.234445" id="Path-3-Copy-65" stroke="#000000" stroke-linecap="round" transform="translate(16.161037, 28.051350) rotate(33.000000) translate(-16.161037, -28.051350) "></path>
                <circle id="Oval-Copy-2" fill="#000000" cx="21.2185162" cy="21.3843804" r="1"></circle>
            </g>
            <g id="Group-23" transform="translate(102.531646, 124.512658)">
                <path d="M25.282485,7.69558825 L25.282485,7.69558825 C27.08875,9.66629834 28.0907453,12.2424604 28.0907453,14.9157152 L28.0907453,27.2222607 C28.0907453,30.424412 27.0408069,33.5382398 25.1018188,36.0865919 L24.6703188,36.653699 C23.0249984,38.8160928 20.6311555,40.2857741 17.9582957,40.7744936 L17.9582957,40.7744936 C15.3364769,41.2538804 12.640055,40.4978565 10.6496399,38.7252896 L9.08588275,37.3326835 C6.10107662,34.6745604 4.47291133,30.8129907 4.65348836,26.8202374 L5.22527796,14.1773515" id="Path-3-Copy-17" stroke="#000000" stroke-width="1.2" stroke-linecap="round"></path>
                <path d="M6.57323286,6.10807734 C4.03835392,6.10807734 1.18286074,10.8119876 0.589398722,13.0779993 C4.92112543,14.6857748 10.8707664,13.775679 14.4713439,11.6667177 C14.4713439,12.5969573 14.1951321,14.0027989 13.6427085,15.8842424 C17.3346909,14.8888908 20.1203303,13.4830492 21.9996267,11.6667177 C23.8789231,9.85038612 25.2774775,7.68661009 26.1952899,5.17538956 C20.887306,-0.255648717 13.7959179,-0.583465794 4.92112543,4.19193833 C5.55312954,6.10807734 6.98562858,5.13344756 6.57323286,6.10807734 Z" id="Path-3-Copy-17" stroke="#000000" stroke-width="1.2" stroke-linecap="round" stroke-linejoin="round"></path>
                <path d="M13.21958,21.1955451 C12.3112079,21.1999345 11.5331742,21.2466195 10.8854788,21.3356001" id="Path-3-Copy-17" stroke="#000000" stroke-width="0.8" stroke-linecap="round" transform="translate(12.052529, 21.622760) rotate(-7.000000) translate(-12.052529, -21.622760) "></path>
                <path d="M24.2841966,20.6151391 C23.2596637,20.5463054 22.33424,20.8594491 21.5079255,21.5545699" id="Path-3-Copy-18" stroke="#000000" stroke-width="0.8" stroke-linecap="round" transform="translate(22.896061, 21.080203) rotate(33.000000) translate(-22.896061, -21.080203) "></path>
                <path d="M16.4180745,38.4546138 C16.7653154,39.1847238 17.1573711,39.8861396 17.5942416,40.5588611" id="Path-3-Copy-29" stroke="#000000" stroke-width="0.8" stroke-linecap="round" transform="translate(17.006158, 39.506737) rotate(33.000000) translate(-17.006158, -39.506737) "></path>
                <path d="M30.2674329,23.7916252 C30.8958828,22.633202 31.5824275,19.2122516 30.3253509,18.192217 C28.9350385,17.0640704 27.7116463,16.8430375 26.6551743,17.5291185" id="Path-3-Copy-27" stroke="#000000" stroke-linecap="round" transform="translate(28.842261, 20.465782) rotate(33.000000) translate(-28.842261, -20.465782) "></path>
                <path d="M6.04800768,23.3530615 C6.67645756,22.1946383 7.4569846,20.6423188 5.84334081,18.9840133 C4.53929708,17.6438768 3.24765961,17.3256826 1.96842838,18.0294307" id="Path-3-Copy-28" stroke="#000000" stroke-linecap="round" transform="translate(4.384072, 20.509511) scale(-1, 1) rotate(33.000000) translate(-4.384072, -20.509511) "></path>
                <path d="M19.824097,31.2382956 C18.7344774,33.4979989 16.9617576,34.4597061 14.5059377,34.1234171" id="Path-3-Copy-19" stroke="#000000" stroke-linecap="round" transform="translate(17.165017, 32.713529) rotate(33.000000) translate(-17.165017, -32.713529) "></path>
                <path d="M19.2474428,27.6713969 C19.0416034,28.1248717 17.8439733,28.9535254 17.2649146,28.7114032 C16.8312816,28.5300879 16.836809,27.7510311 16.095685,26.0851701 C15.9168313,25.6831519 15.430769,24.9346816 14.6374981,23.8397592" id="Path-3-Copy-23" stroke="#000000" stroke-width="0.8" stroke-linecap="round" transform="translate(16.942470, 26.297299) rotate(33.000000) translate(-16.942470, -26.297299) "></path>
                <circle id="Oval" fill="#000000" cx="12.4746836" cy="23.5822785" r="1"></circle>
                <circle id="Oval-Copy" fill="#000000" cx="21.9588595" cy="23.5822785" r="1"></circle>
            </g>
            <g id="Group-23-Copy-2" transform="translate(97.639032, 215.489024) rotate(-10.000000) translate(-97.639032, -215.489024) translate(83.113715, 198.827632)">
                <path d="M22.0411407,4.14568323 L22.0411407,4.14568323 C23.6158333,5.86373818 24.4893677,8.10962304 24.4893677,10.4401529 L24.4893677,21.1689361 C24.4893677,23.9605552 23.5740367,26.6751743 21.8836369,28.8968146 L21.5074574,29.3912157 C20.0730756,31.2763795 17.9861355,32.5576402 15.6559501,32.9837032 L15.6559501,32.9837032 C13.3702619,33.4016302 11.0195351,32.7425325 9.28430145,31.1972178 L7.92102598,29.9831509 C5.31888731,27.6658128 3.89946116,24.2993161 4.05688729,20.8184543 L4.55537053,9.79645119 C5.2942471,4.44297575 8.29929423,1.60499431 13.5705119,1.28250686 C16.9640472,1.07489401 19.7875901,2.02928614 22.0411407,4.14568323 Z" id="Path-3-Copy-17" stroke="#000000" stroke-width="1.2" stroke-linecap="round"></path>
                <path d="M9.37147143,14.7178329 C8.57955726,14.7216596 7.91839178,15.1172758 7.38797496,15.9046814" id="Path-3-Copy-17" stroke="#000000" stroke-width="0.8" stroke-linecap="round" transform="translate(8.379723, 15.311257) rotate(-7.000000) translate(-8.379723, -15.311257) "></path>
                <path d="M21.3138195,14.779311 C20.4206369,14.7193022 19.600874,14.8378985 18.8545307,15.1350999" id="Path-3-Copy-18" stroke="#000000" stroke-width="0.8" stroke-linecap="round" transform="translate(20.084175, 15.191405) rotate(33.000000) translate(-20.084175, -15.191405) "></path>
                <path d="M13.9756649,31.1215098 C14.4580545,30.9167476 14.8572765,30.4261885 15.1733308,29.6498326" id="Path-3-Copy-29" stroke="#000000" stroke-width="0.6" stroke-linecap="round" transform="translate(14.574498, 30.385671) rotate(33.000000) translate(-14.574498, -30.385671) "></path>
                <path d="M26.2925575,18.1826196 C27.3968171,17.3770152 27.2404498,15.6206207 26.3207447,14.4390288 C25.3091326,13.1393592 24.2500207,12.5673491 23.1434089,12.7229984" id="Path-3-Copy-27" stroke="#000000" stroke-linecap="round" transform="translate(25.104903, 15.440324) rotate(33.000000) translate(-25.104903, -15.440324) "></path>
                <path d="M5.36703931,17.7678205 C5.91491868,16.7579131 6.39593283,15.357426 4.98916644,13.9117237 C3.85230781,12.7433996 2.79274666,12.4817272 1.81048299,13.1267065" id="Path-3-Copy-28" stroke="#000000" stroke-linecap="round" transform="translate(3.861042, 15.275203) scale(-1, 1) rotate(33.000000) translate(-3.861042, -15.275203) "></path>
                <path d="M18.6468325,0.24472393 C21.6188169,5.88213873 20.2366324,11.6208589 14.500279,17.4608845" id="Path-3-Copy-30" stroke="#000000" stroke-linecap="round" transform="translate(17.334266, 8.852804) scale(-1, 1) rotate(33.000000) translate(-17.334266, -8.852804) "></path>
                <path d="M3.29952737,4.79080282 C7.01690794,8.77720542 10.4184396,9.9060485 13.5041223,8.17733205" id="Path-3-Copy-32" stroke="#000000" stroke-linecap="round" transform="translate(8.401825, 6.876246) scale(-1, 1) rotate(33.000000) translate(-8.401825, -6.876246) "></path>
                <path d="M18.2517454,1.22568559 C21.2237298,6.8631004 21.19423,11.9131599 18.1632461,16.3758642" id="Path-3-Copy-31" stroke="#000000" stroke-linecap="round" transform="translate(19.311036, 8.800775) scale(-1, 1) rotate(33.000000) translate(-19.311036, -8.800775) "></path>
                <path d="M17.0643247,24.5680051 C16.5322358,26.7427073 15.1594779,28.0357073 12.9460509,28.4470052" id="Path-3-Copy-19" stroke="#000000" stroke-linecap="round" transform="translate(15.005188, 26.507505) rotate(33.000000) translate(-15.005188, -26.507505) "></path>
                <path d="M16.1603776,22.8491908 C15.9809278,23.2445278 14.6210449,24.4157103 14.225846,24.0824984 C13.7927489,23.7173326 13.149083,22.6691488 12.2948483,20.9379471" id="Path-3-Copy-23" stroke="#000000" stroke-width="0.8" stroke-linecap="round" transform="translate(14.227613, 22.539684) rotate(33.000000) translate(-14.227613, -22.539684) "></path>
                <circle id="Oval" fill="#000000" cx="9.74046623" cy="17.40966" r="1"></circle>
                <circle id="Oval-Copy" fill="#000000" cx="19.7535101" cy="17.7002931" r="1"></circle>
            </g>
            <g id="Group-13" transform="translate(403.291139, 226.189873)">
                <path d="M34.5000172,28.1757566 C35.7161736,26.2593515 38.1367011,20.3799851 34.9238108,15.0371672 C31.7109205,9.69434931 24.0104298,3.1426971 14.6100844,7.5202547 C5.20973899,11.8978123 4.90195404,22.4766554 6.62850388,27.3838876 C7.77953711,30.6553757 11.1931106,33.4558938 16.8692245,35.7854419" id="Path-3-Copy-19" stroke="#000000" stroke-width="1.2" stroke-linecap="round" transform="translate(21.167164, 20.935979) rotate(33.000000) translate(-21.167164, -20.935979) "></path>
                <path d="M7.27606236,23.1705555 L11.4352485,32.8646707 C12.6477854,35.6908177 14.900423,37.94264 17.7270087,39.1541538 L19.3787692,39.8621212 C21.1363591,40.6154486 23.125207,40.619147 24.8855865,39.8723615 L24.8855865,39.8723615 C26.6524762,39.1228143 28.0569842,37.7131585 28.8000623,35.9435384 L29.4970684,34.2836378 C30.6799782,31.4665705 30.6301578,28.2830466 29.3596776,25.5043735 L25.73098,17.5680321 C25.248915,16.5137055 24.35356,15.7047177 23.2559026,15.331704 C17.4846735,18.3667834 13.1483149,20.4114693 8.52703907,20.8813312" id="Path-3-Copy-19" stroke="#000000" stroke-width="1.2" stroke-linecap="round" stroke-linejoin="round" transform="translate(18.812898, 27.880750) rotate(33.000000) translate(-18.812898, -27.880750) "></path>
                <circle id="Oval" fill="#000000" cx="14.3273387" cy="25.9767675" r="1"></circle>
                <circle id="Oval-Copy-4" stroke="#000000" cx="14.0668416" cy="25.7162705" r="3.1259648"></circle>
                <path d="M19.6565811,30.6112174 C19.3193102,31.3793474 18.541531,31.7802407 17.3232433,31.8138973" id="Path-3-Copy-23" stroke="#000000" stroke-linecap="round" transform="translate(18.489912, 31.212557) rotate(33.000000) translate(-18.489912, -31.212557) "></path>
                <path d="M21.8577599,25.7381975 C20.2448676,25.1926854 18.7735231,25.8191976 17.4437264,27.6177342" id="Path-3-Copy-68" stroke="#000000" stroke-linecap="round" transform="translate(19.650743, 26.582751) rotate(33.000000) translate(-19.650743, -26.582751) "></path>
                <path d="M22.6104238,32.3423431 C20.3789205,36.0010718 17.5323491,37.3649918 14.0707098,36.4341033" id="Path-3-Copy-65" stroke="#000000" stroke-linecap="round" transform="translate(18.340567, 34.529829) rotate(33.000000) translate(-18.340567, -34.529829) "></path>
                <circle id="Oval-Copy-5" stroke="#000000" cx="25.2161288" cy="27.2792529" r="3.1259648"></circle>
                <circle id="Oval-Copy-2" fill="#000000" cx="24.9556317" cy="27.3313395" r="1"></circle>
            </g>
            <g id="Group-23" transform="translate(133.291139, 238.151899)">
                <path d="M9.89524467,16.4479434 C14.5024186,15.6938016 19.282426,13.7011131 24.2352669,10.4698778 L24.6752531,11.4801174 C26.0997394,14.7508396 26.7771583,18.2979896 26.6582192,21.8634684 L26.5506207,25.0889859 C26.467595,27.5778747 25.6129798,29.9794154 24.105053,31.9612371 L24.105053,31.9612371 C22.6445459,33.8807364 20.3710931,35.0076381 17.9591316,35.0076381 L16.9621975,35.0076381 C14.4682215,35.0076381 12.1055784,33.8896732 10.5241074,31.9612371 L10.5241074,31.9612371 C8.9086724,29.9913855 8.0258164,27.5225743 8.0258164,24.9750371 L8.0258164,16.4479434" id="Path-3-Copy-17" stroke="#000000" stroke-width="1.2" stroke-linecap="round"></path>
                <path d="M21.1686881,38.4938172 C27.0098265,37.173413 30.6036296,32.7203594 31.9500971,25.1346564 C33.9697984,13.7561018 29.0766101,1.52754488 17.6977402,0.257585947 C6.31887034,-1.01237299 2.63573721,10.2309537 3.74048798,19.2691502 C4.84523875,28.3073467 5.61835114,26.8088485 4.84523875,31.6105641 C4.32983049,34.8117079 2.83299726,37.7074074 0.354739051,40.2976627 C3.67863094,41.9093559 8.08978442,41.9093559 13.5881995,40.2976627" id="Path-3-Copy-17" stroke="#000000" stroke-width="1.2" stroke-linecap="round"></path>
                <path d="M11.6343676,18.6266105 C10.9456833,18.4479938 10.4300788,18.6266105 10.087554,19.1624605" id="Path-3-Copy-17" stroke="#000000" stroke-width="0.8" stroke-linecap="round" transform="translate(10.860961, 18.932023) rotate(-7.000000) translate(-10.860961, -18.932023) "></path>
                <path d="M24.0088766,17.5954014 C23.3201922,17.4167847 22.8045877,17.5954014 22.462063,18.1312514" id="Path-3-Copy-18" stroke="#000000" stroke-width="0.8" stroke-linecap="round" transform="translate(23.235470, 17.900813) rotate(33.000000) translate(-23.235470, -17.900813) "></path>
                <path d="M20.0332095,26.9698406 C19.7561391,29.6888392 18.0855411,31.1351164 15.0214154,31.3086722" id="Path-3-Copy-19" stroke="#000000" stroke-linecap="round" transform="translate(17.527312, 29.139256) rotate(33.000000) translate(-17.527312, -29.139256) "></path>
                <path d="M15.7064365,41.3708032 C15.0895587,39.8112702 13.5523294,37.7463489 11.0947484,35.1760392" id="Path-3-Copy-45" stroke="#000000" stroke-width="1.2" stroke-linecap="round" transform="translate(13.400592, 38.273421) rotate(33.000000) translate(-13.400592, -38.273421) "></path>
                <path d="M23.3908634,41.0814964 C22.1273186,40.0486149 20.8049928,38.2002978 19.4238859,35.536545" id="Path-3-Copy-64" stroke="#000000" stroke-width="1.2" stroke-linecap="round" transform="translate(21.407375, 38.309021) rotate(33.000000) translate(-21.407375, -38.309021) "></path>
                <path d="M18.5514325,25.0974499 C18.1475818,25.9871537 17.43157,26.2885087 16.4033972,26.0015149" id="Path-3-Copy-23" stroke="#000000" stroke-width="0.5" stroke-linecap="round" transform="translate(17.477415, 25.613054) rotate(33.000000) translate(-17.477415, -25.613054) "></path>
                <circle id="Oval" fill="#000000" cx="11.6673942" cy="20.8009603" r="1.03120908"></circle>
                <circle id="Oval-Copy" fill="#000000" cx="21.9794849" cy="20.8009603" r="1.03120908"></circle>
            </g>
        </g>
    </g>
</svg>