<?xml version="1.0" encoding="UTF-8"?>
<svg width="342px" height="96px" viewBox="0 0 342 96" version="1.1" xmlns="http://www.w3.org/2000/svg" xmlns:xlink="http://www.w3.org/1999/xlink">
    <!-- Generator: Sketch 49.2 (51160) - http://www.bohemiancoding.com/sketch -->
    <title>Group 11</title>
    <desc>Created with Sketch.</desc>
    <defs></defs>
    <g id="Flow" stroke="none" stroke-width="1" fill="none" fill-rule="evenodd" stroke-linecap="round">
        <g id="Group-11" transform="translate(1.000000, -13.000000)" stroke="#000000" stroke-width="1.2">
            <g id="Group-8" transform="translate(316.587797, 50.558135) rotate(-45.000000) translate(-316.587797, -50.558135) translate(282.087797, 13.558135)">
                <path d="M60.4663176,20.0433644 L63.1387662,13.362243" id="Path-3-Copy-7"></path>
                <path d="M48.4402989,16.0346915 L48.4402989,8.01734577" id="Path-3-Copy-15"></path>
                <path d="M48.4402989,4.00867289 L48.4402989,0" id="Path-3-Copy-20"></path>
                <path d="M31.0693831,21.3795887 L27.0607102,16.0346915" id="Path-3-Copy-16"></path>
                <path d="M25.3986587,13.6747485 L23.7366072,11.4571432" id="Path-3-Copy-22"></path>
                <path d="M23.0520373,34.7418317 L9.68979436,30.7331588" id="Path-3-Copy-17"></path>
                <path d="M23.0520373,50.7765232 L16.3709158,52.1127475" id="Path-3-Copy-18"></path>
                <path d="M28.3969345,64.1387662 L23.0520373,69.4836633" id="Path-3-Copy-21"></path>
                <path d="M20.9172925,71.5303432 L18.4601532,73.8116646" id="Path-3-Copy-23"></path>
                <path d="M12.7860729,52.8442992 L0.031847813,55.4873169" id="Path-3-Copy-19"></path>
                <path d="M57.0062638,65.4749905 C63.858158,61.553265 68.4836633,54.1071175 68.4836633,45.5666655 C68.4836633,32.9464882 58.3835003,22.715813 45.9243179,22.715813 C37.0783311,22.715813 29.4215173,27.8730581 25.7244859,35.3811374" id="Oval-Copy-3" transform="translate(47.104075, 44.095402) rotate(-90.000000) translate(-47.104075, -44.095402) "></path>
            </g>
            <g id="Group-10-Copy" transform="translate(18.000000, 99.243310) scale(-1, 1) translate(-18.000000, -99.243310) translate(0.000000, 90.243310)" stroke-linejoin="round">
                <path d="M7.50434654,6 C7.50145769,5.92498435 7.5,5.84960171 7.5,5.77387861 C7.5,2.5850535 10.0850535,-1.00282107e-14 13.2738786,-1.06139884e-14 L22.7261214,-1.11927714e-14 C25.9149465,-1.1778549e-14 28.5,2.5850535 28.5,5.77387861 C28.5,8.96270371 25.9149465,11.5477572 22.7261214,11.5477572 L22.4832124,11.5477572 C22.4943377,11.6970495 22.5,11.8478635 22.5,12 C22.5,15.3137085 19.8137085,18 16.5,18 L6.5,18 C3.1862915,18 0.5,15.3137085 0.5,12 C0.5,8.6862915 3.1862915,6 6.5,6 L7.50434654,6 Z" id="Combined-Shape"></path>
                <path d="M35.6077987,5.8544248 L35.6077987,11.1455752 C35.6077987,13.9069989 33.3692225,16.1455752 30.6077987,16.1455752 L30.589329,16.1455752 C27.8381058,16.1455752 25.6077987,13.9152681 25.6077987,11.1640449" id="Rectangle-4-Copy-31" transform="translate(30.607799, 11.000000) scale(-1, 1) rotate(90.000000) translate(-30.607799, -11.000000) "></path>
            </g>
            <g id="Group" transform="translate(36.000000, 46.243310)" stroke-linejoin="round">
                <path d="M0,6.39863711 C5.07720686,5.12317023 9.33772391,5.38366229 12.7815511,7.18011329 C13.8959462,2.91315337 17.1300344,0.519782275 22.4838158,0" id="Path-3-Copy-7"></path>
                <path d="M18,14.6239969 C21.6130571,13.7163453 24.6449389,13.9017175 27.0956455,15.1801133 C27.8886746,12.1436466 30.1901261,10.4404687 34,10.0705797" id="Path-3-Copy-12"></path>
            </g>
        </g>
    </g>
</svg>