<?xml version="1.0" encoding="UTF-8"?>
<svg width="130px" height="130px" viewBox="0 0 130 130" version="1.1" xmlns="http://www.w3.org/2000/svg" xmlns:xlink="http://www.w3.org/1999/xlink">
    <!-- Generator: Sketch 49.2 (51160) - http://www.bohemiancoding.com/sketch -->
    <title>Artboard</title>
    <desc>Created with Sketch.</desc>
    <defs></defs>
    <g id="Artboard" stroke="none" stroke-width="1" fill="none" fill-rule="evenodd">
        <g id="Group-11" transform="translate(5.000000, 12.000000)" stroke="#000000">
            <g id="Group-27" transform="translate(14.909506, 22.313735)">
                <path d="M12.9364653,19.9849316 C11.3337062,16.1338575 1.50910254,18.5567487 1.50910254,18.5567487 C1.50910254,18.5567487 -1.14694387,18.1930954 0.588285219,16.9763332 C2.32351431,15.7595711 2.48189489,13.4975585 2.48189489,12.4199473 C2.48189489,11.3423362 3.63966921,7.3975674 5.86559162,7.97520581 C8.09151403,8.55284422 8.20524817,10.7440678 11.9871852,10.1874638 C13.4887548,9.96647138 15.3729444,9.93531075 17.130982,9.97807829" id="Path-20-Copy-2" stroke-linecap="round"></path>
                <path d="M22.0995783,31.6349527 C22.650688,32.5414647 23.0048264,33.1391517 24.5267051,32.7633387 C26.9664236,32.1608742 28.9785923,31.4408557 32.029918,32.6614269 C35.0812438,33.8819982 37.012408,34.1829934 39.5777073,37.0237248 C42.1430066,39.8644562 44.679547,39.9033248 42.1286272,43.3806493 C39.5777073,46.8579738 38.8553781,45.8331679 38.028558,48.3155491 C37.2017378,50.7979303 35.1243822,51.0813872 33.5771501,52.5508127 C32.029918,54.0202383 34.6603577,57.5838322 32.9722533,57.5838322 C31.284149,57.5838322 29.642445,55.9551399 29.642445,50.0717496 C29.642445,44.1883593 26.2661429,42.6302943 26.1199516,41.7239905 C25.9737602,40.8176867 26.6874617,37.5129013 25.618587,36.2529874 C24.8588609,35.357476 23.1973724,34.708616 21.7175704,33.6150278" id="Path-20-Copy" stroke-linecap="round"></path>
                <path d="M30.6787262,14.1803196 C31.5582711,15.7777274 33.4903939,17.5647385 33.4903939,17.5647385 C33.4903939,17.5647385 34.0008655,19.0754027 31.9105683,19.0754027 C29.8202712,19.0754027 26.5978296,20.2353009 25.9737602,22.9689064 C25.3496907,25.7025119 24.5497123,25.7778793 24.5497123,25.7778793" id="Path-20-Copy-3" stroke-linecap="round"></path>
                <path d="M48.9505436,31.4122023 C49.3507112,33.3492673 50.2630246,38.1478552 51.7321222,37.385635 C53.2012197,36.6234148 56.2036302,35.7570598 57.2028813,37.385635 C58.2021323,39.0142102 58.2535825,43.412592 58.2535825,43.412592 C58.2535825,43.412592 60.6771124,46.5031378 61.7027966,47.7195399 C62.7284809,48.9359419 63.6272009,47.7195399 63.6272009,46.6234083 C63.6272009,45.5272767 63.9705359,46.5910021 64.5382186,44.4959576 C65.1059013,42.400913 65.7362841,42.3147192 65.7362841,40.9068867 C65.7362841,39.4990542 66.9617208,38.5785884 67.5556605,37.385635 C68.1496001,36.1926815 67.5556605,33.3315996 67.5556605,32.8094254 C67.5556605,32.2872511 67.5980152,30.0188639 70.3093304,30.0188639 C73.0206456,30.0188639 76.6852477,31.2375299 77.5390235,32.6601122 C78.3927994,34.0826945 78.3000186,36.2885669 79.6657715,36.7891767 C81.0315244,37.2897866 80.2835091,35.8879824 80.2835091,34.1435795 C80.2835091,32.3991766 81.4550472,29.8009343 81.5276374,29.8009343 C81.6002276,29.8009343 84.1221353,30.9062961 85.7215228,31.1592492 C87.3209103,31.4122023 89.1568169,29.1713064 89.1568169,27.5008352 C89.1568169,25.830364 91.5114306,25.1113414 92.6651818,23.5626402 C93.8189329,22.013939 94.4227294,20.8692048 95.3130407,18.2859422 C96.203352,15.7026796 95.0745988,16.6343164 96.043269,13.8316745 C97.0119392,11.0290327 99.8198811,11.5083811 101.128427,9.4899958 C102.436973,7.47161048 99.9030473,5.73397255 98.3680776,3.11108638 C96.8331078,0.488200215 98.6315174,1.89773576 92.9247758,1.89773576 C87.2180342,1.89773576 86.572895,1.2995167 84.0865613,1.2995167 C81.6002276,1.2995167 80.2388012,1.73585904 78.5567282,0.623983378 C76.8746552,-0.48789228 75.6588899,-0.0684624359 74.6205139,1.52131197 C73.5821378,3.11108638 77.2106852,3.27537918 71.8418965,5.65134294 C66.4731078,8.0273067 64.8165135,7.34500838 63.5858456,8.82219391 C62.3551777,10.2993794 64.170249,10.5569325 60.6865651,10.0234642 C57.2028813,9.4899958 56.7849633,8.04228634 55.8936906,10.2302798 C55.5391722,11.1005901 55.0779414,12.0533935 54.52924,12.9420199 C53.6984849,14.2874343 52.6672197,15.4857352 51.5022253,16.0278827 C49.5677692,16.9281105 48.2592231,16.9208623 48.2592231,18.5357639 C48.2592231,20.1506654 47.7621486,22.6783584 50.640277,22.6783584 C53.5184054,22.6783584 53.3874831,19.8327105 55.2951822,19.8327105 C57.2028813,19.8327105 59.0439119,19.1248019 61.3148788,18.3144518 C63.5858456,17.5041018 64.0362893,16.003722 65.4179063,17.9182162 C66.7995233,19.8327105 66.7596227,20.0400094 66.7596227,20.8909494 C66.7596227,21.7418895 67.2326607,21.0803694 65.4092531,20.9856594 C63.5858456,20.8909494 64.5179804,19.0112466 62.6022728,20.5140424 C60.6865651,22.0168383 61.844479,22.6783584 59.5236801,22.6783584 C57.2028813,22.6783584 58.5348192,22.9267305 56.349903,22.9267305 C54.1649868,22.9267305 53.2815375,22.8854486 52.3199464,23.4993392 C51.3583553,24.1132297 50.640277,24.3744399 50.640277,24.8822979 C50.640277,25.390156 52.0764335,26.4885529 51.3583553,27.5008352 C47.961898,29.0025014 48.8366305,30.8607904 48.9505436,31.4122023 Z" id="Path-21"></path>
                <path d="M85.6602749,35.310486 C85.6602749,36.9893194 85.4992274,35.6721078 87.1427269,35.6721078 C88.7862264,35.6721078 87.9425361,35.8655841 90.9938447,37.5190865 C94.0451533,39.1725889 93.6063439,38.6048253 96.5427478,39.8779261 C99.4791517,41.1510268 99.6840802,39.3079139 99.0172709,38.1536716 C98.3504615,36.9994293 98.0698342,36.9307961 95.3914386,35.310486 C92.7130431,33.6901759 89.6457499,32.4039729 89.6457499,33.5460513 C89.6457499,34.6881297 88.9843692,35.3511029 88.3885836,33.8356108 C87.7927981,32.3201186 85.6602749,33.6316526 85.6602749,35.310486 Z" id="Path-6"></path>
                <path d="M93.1382233,16.3460303 C94.3640585,16.7742871 93.0529413,18.6549528 94.1793064,18.6549528 C95.3056715,18.6549528 95.1316436,18.6637181 97.2228443,19.9530568 C99.3140451,21.2423955 99.0069714,20.2653336 101.019423,21.2580495 C103.031874,22.2507653 103.172321,20.8135755 102.715326,19.913541 C102.258331,19.0135065 101.514395,18.845301 100.724877,19.593591 C99.6182518,18.3892986 98.1354091,17.3020266 98.1354091,18.1925762 C98.1354091,19.0831257 95.8393216,17.7282039 95.4310026,16.5464804 C95.0226836,15.3647568 91.9123881,15.9177735 93.1382233,16.3460303 Z" id="Path-6-Copy" transform="translate(97.892515, 18.714745) rotate(-104.000000) translate(-97.892515, -18.714745) "></path>
                <path d="M90.9818551,45.9161027 C89.9665477,45.9161027 88.7263832,46.1697932 88.3801838,46.9185754 C88.0339843,47.6673576 87.4908193,48.7327409 87.4908193,48.7327409 C87.4908193,48.7327409 86.6014549,49.0698246 87.4908193,50.6200583 C88.3801838,52.170292 88.0664765,54.9605956 89.9331929,54.9605956 C91.7999093,54.9605956 95.024107,54.1199347 95.024107,54.1199347 L97.806354,54.5380706 C97.806354,54.5380706 99.4712167,57.4041595 99.4712167,58.0174644 C99.4712167,58.6307694 101.209115,59.0284228 102.309822,59.6765481 C103.410529,60.3246733 104.370341,56.0613844 104.370341,54.9605956 C104.370341,53.8598067 104.404271,51.5944407 103.808773,50.012898 C103.213276,48.4313554 102.01423,48.1870282 101.33707,45.2235011 C100.659911,42.2599739 100.008918,41.154796 99.2107045,42.0507597 C98.4124906,42.9467234 95.8582635,42.5613595 95.3585172,42.5613595 C94.8587709,42.5613595 91.9971625,45.9161027 90.9818551,45.9161027 Z" id="Path-11"></path>
                <path d="M49.7677542,8.95028038 C50.4031067,8.95028038 50.407962,9.57297654 50.407962,9.57297654 L50.407962,10.4455164 C50.407962,10.6630893 51.1959987,11.2488459 51.5706336,11.4787714 C51.9452684,11.708697 52.4428128,10.8360265 52.4428128,10.4455164 C52.4428128,10.0550062 52.6732896,8.04256074 52.4428128,6.99123522 C52.212336,5.93990969 51.9907651,5.5478425 51.7190863,5.86568993 C51.4474075,6.18353736 50.5780549,6.04682767 50.407962,6.04682767 C50.2378692,6.04682767 49.3742265,8.95028038 49.7677542,8.95028038 Z" id="Path-11-Copy"></path>
            </g>
            <g id="Group-16-Copy-9" transform="translate(7.495191, 56.905536) rotate(-24.000000) translate(-7.495191, -56.905536) translate(1.586100, 53.682395)" stroke-linecap="round">
                <path d="M5.59976851,4.02464646 C8.69243526,4.02464646 11.199537,3.12369866 11.199537,2.01232323 C11.199537,0.900947798 8.69243526,0 5.59976851,0 C2.50710176,0 0,0.900947798 0,2.01232323 C0,2.54179567 0.569032547,3.02350773 1.49932115,3.38279317" id="Oval-Copy-3" transform="translate(5.599769, 2.012323) scale(1, -1) translate(-5.599769, -2.012323) "></path>
                <path d="M11.199537,5.65965908 C11.199537,5.34373926 11.199537,4.8116496 11.199537,4.0633901 C11.199537,2.94100084 8.69243526,2.03112457 5.59976851,2.03112457 C2.50710176,2.03112457 0,2.94100084 0,4.0633901 C0,4.41986981 0,4.95195947 0,5.65965908" id="Oval-Copy-13" transform="translate(5.599769, 3.845392) scale(1, -1) translate(-5.599769, -3.845392) "></path>
            </g>
            <g id="Group-16-Copy-11" transform="translate(14.032114, 88.565528) scale(-1, 1) rotate(21.000000) translate(-14.032114, -88.565528) translate(7.213932, 84.929165)" stroke-linecap="round">
                <path d="M6.77940578,5.12655776 C10.5235682,5.12655776 13.5588116,3.97893871 13.5588116,2.56327888 C13.5588116,1.14761904 10.5235682,0 6.77940578,0 C3.03524335,0 0,1.14761904 0,2.56327888 C0,3.23771603 0.688903932,3.85131642 1.81516547,4.30897093" id="Oval-Copy-3" transform="translate(6.779406, 2.563279) scale(1, -1) translate(-6.779406, -2.563279) "></path>
                <g id="Group" transform="translate(6.601734, 2.592027) scale(-1, 1) translate(-6.601734, -2.592027) translate(2.965370, 0.773845)" stroke-width="0.5">
                    <ellipse id="Oval-Copy-3" transform="translate(3.144117, 1.572059) rotate(-1.000000) translate(-3.144117, -1.572059) " cx="3.14411723" cy="1.57205861" rx="2.77422108" ry="1"></ellipse>
                    <path d="M4.35406903,-0.314836951 L4.35406903,-0.314836951 C4.88646917,0.0545928902 5.20885816,0.657402689 5.22054382,1.30531608 L5.23590967,2.15727818 C5.24605872,2.71999399 5.50574966,3.24909926 5.94468298,3.60136283" id="Path-9" transform="translate(5.149376, 1.643263) rotate(110.000000) translate(-5.149376, -1.643263) "></path>
                </g>
                <path d="M13.5588116,6.76045537 C13.5588116,6.89604393 13.5588116,6.47283386 13.5588116,5.49082516 C13.5588116,4.0178121 10.5235682,2.82369908 6.77940578,2.82369908 C3.03524335,2.82369908 0,4.0178121 0,5.49082516 C0,5.95866576 0,6.38187583 0,6.76045537" id="Oval-Copy-13" transform="translate(6.779406, 4.804415) scale(1, -1) translate(-6.779406, -4.804415) "></path>
            </g>
            <g id="Group-16-Copy-12" transform="translate(110.539386, 8.048702) scale(-1, 1) rotate(21.000000) translate(-110.539386, -8.048702) translate(103.266658, 4.412338)" stroke-linecap="round">
                <path d="M6.77940578,5.12655776 C10.5235682,5.12655776 13.5588116,3.97893871 13.5588116,2.56327888 C13.5588116,1.14761904 10.5235682,0 6.77940578,0 C3.03524335,0 -2.84217094e-14,1.14761904 -2.84217094e-14,2.56327888 C-2.84217094e-14,3.23771603 0.688903932,3.85131642 1.81516547,4.30897093" id="Oval-Copy-3" transform="translate(6.779406, 2.563279) scale(1, -1) translate(-6.779406, -2.563279) "></path>
                <g id="Group" transform="translate(6.373350, 2.665035) scale(-1, 1) translate(-6.373350, -2.665035) translate(2.509257, 0.947660)" stroke-width="0.5">
                    <ellipse id="Oval-Copy-3" transform="translate(3.144117, 1.572059) rotate(-1.000000) translate(-3.144117, -1.572059) " cx="3.14411723" cy="1.57205861" rx="2.77422108" ry="1"></ellipse>
                    <path d="M4.35406903,-0.314836951 L4.35406903,-0.314836951 C4.88646917,0.0545928902 5.20885816,0.657402689 5.22054382,1.30531608 L5.23590967,2.15727818 C5.24605872,2.71999399 5.50574966,3.24909926 5.94468298,3.60136283" id="Path-9" transform="translate(5.149376, 1.643263) rotate(110.000000) translate(-5.149376, -1.643263) "></path>
                </g>
                <path d="M13.5588116,6.76045537 C13.5588116,6.89604393 13.5588116,6.47283386 13.5588116,5.49082516 C13.5588116,4.0178121 10.5235682,2.82369908 6.77940578,2.82369908 C3.03524335,2.82369908 0,4.0178121 0,5.49082516 C0,5.95866576 0,6.38187583 0,6.76045537" id="Oval-Copy-13" transform="translate(6.779406, 4.804415) scale(1, -1) translate(-6.779406, -4.804415) "></path>
            </g>
            <path d="M64.9354604,96.452919 C80.6380299,96.452919 93.3674776,77.6004458 93.3674776,54.3447417 C93.3674776,31.0890375 80.6380299,12.2365643 64.9354604,12.2365643 C49.2328909,12.2365643 36.5034433,31.0890375 36.5034433,54.3447417 C36.5034433,56.1156836 36.5772607,57.8610914 36.7205874,59.5745844" id="Oval" stroke-width="1.5" stroke-linecap="round" stroke-linejoin="round" stroke-dasharray="2,4" transform="translate(64.935460, 54.344742) scale(-1, -1) rotate(30.000000) translate(-64.935460, -54.344742) "></path>
            <path d="M69.4271894,68.8228213 C61.4020668,73.0886576 55.0478252,82.5474276 52.2115001,94.4636484" id="Oval-Copy" stroke-width="1.2" stroke-linecap="round" stroke-linejoin="round" stroke-dasharray="2,4" transform="translate(60.819345, 81.643235) scale(-1, -1) rotate(30.000000) translate(-60.819345, -81.643235) "></path>
            <path d="M32.6422279,79.4577642 C43.8953842,73.8492788 52.0003449,58.0961826 52.0003449,39.5395073 C52.0003449,21.4250873 44.2771065,5.98220519 33.4413748,0.0394330219" id="Oval-Copy-2" stroke-width="1.5" stroke-linecap="round" stroke-linejoin="round" stroke-dasharray="2,4" transform="translate(42.321286, 39.748599) scale(-1, -1) rotate(30.000000) translate(-42.321286, -39.748599) "></path>
        </g>
    </g>
</svg>