
<svg width="497px" height="359px" viewBox="0 0 497 359" version="1.1" xmlns="http://www.w3.org/2000/svg"   stroke="no#000000e" stroke-width="1" fill="none" fill-rule="evenodd">
    <path d="M132,352 L246,352" id="Path-3-Copy-75" stroke-linecap="round" stroke-linejoin="round"></path>
    <path d="M87,352 L63,352" id="Path-3-Copy-87" stroke-linecap="round" stroke-linejoin="round"></path>
    <path d="M35,352 L9,352" id="Path-3-Copy-89" stroke-linecap="round" stroke-linejoin="round"></path>
    <path d="M284,51.1292882 C289.19377,49.7081776 293.5521,49.9984149 297.07499,52 C298.21497,47.2458021 301.523306,44.5791355 307,44" id="Path-3-Copy-12" stroke-linecap="round" stroke-linejoin="round" transform="translate(295.500000, 48.000000) scale(-1, 1) translate(-295.500000, -48.000000) "></path>
    <path d="M257.218002,163.716646 C257.214371,163.621099 257.212539,163.525091 257.212539,163.428655 C257.212539,159.313162 260.548806,155.976896 264.664299,155.976896 L276.506649,155.976896 C280.622142,155.976896 283.958409,159.313162 283.958409,163.428655 C283.958409,167.544148 280.622142,170.880414 276.506649,170.880414 L276.378466,170.880414 C276.388219,171.038465 276.393167,171.197816 276.393167,171.358323 C276.393167,175.578705 272.971872,179 268.75149,179 L255.641677,179 C251.421295,179 248,175.578705 248,171.358323 C248,167.137941 251.421295,163.716646 255.641677,163.716646 L257.218002,163.716646 Z" id="Combined-Shape" stroke-linecap="round" stroke-linejoin="round" transform="translate(266.000000, 167.500000) scale(-1, 1) translate(-266.000000, -167.500000) "></path>
    <path d="M252,163 L252,169.5 C252,173.089851 249.089851,176 245.5,176 L245.292775,176 C241.817371,176 239,173.182629 239,169.707225" id="Rectangle-4-Copy-31" stroke-linecap="round" stroke-linejoin="round" transform="translate(245.500000, 169.500000) rotate(90.000000) translate(-245.500000, -169.500000) "></path>
    <path d="M296,107 C300.418278,107 304,105.656854 304,104 C304,102.343146 300.418278,101 296,101 C291.581722,101 288,102.343146 288,104 C288,104.789345 288.812937,105.507488 290.141976,106.043116" id="Oval-Copy-3" stroke-linecap="round" stroke-linejoin="round" transform="translate(296.000000, 104.000000) scale(1, -1) rotate(20.000000) translate(-296.000000, -104.000000) "></path>
    <path d="M305,109 C305,108.564673 305,107.831471 305,106.800394 C305,105.253779 301.418278,104 297,104 C292.581722,104 289,105.253779 289,106.800394 C289,107.291612 289,108.024813 289,109" id="Oval-Copy-13" stroke-linecap="round" stroke-linejoin="round" transform="translate(297.000000, 106.500000) scale(1, -1) rotate(20.000000) translate(-297.000000, -106.500000) "></path>
    <path d="M31,358 L489,358" id="Path-3-Copy-8" stroke-linecap="round" stroke-linejoin="round" transform="translate(260.000000, 358.000000) scale(-1, 1) translate(-260.000000, -358.000000) "></path>
    <path d="M1,356.880364 L21,357.119636" id="Path-3-Copy-14" stroke-linecap="round" stroke-linejoin="round" transform="translate(11.000000, 357.000000) scale(-1, 1) translate(-11.000000, -357.000000) "></path>
    <path d="M426.739927,306.325994 L426.739927,279.39299 L383.668819,279.39299 L383.668819,332 L347,332 L347,167 C347,165.895431 347.895431,165 349,165 L464,165 C465.104569,165 466,165.895431 466,167 L466,332 L449.511896,332" id="Combined-Shape" stroke-linecap="round" stroke-linejoin="round" transform="translate(406.500000, 248.500000) scale(-1, 1) translate(-406.500000, -248.500000) "></path>
    <path d="M369.82407,317.698035 C367.844847,321.149434 366.905964,324.334849 367.007421,327.25428 C367.108877,330.17371 368.898119,331.755617 372.375147,332 C380.136301,331.950493 383.645478,329.974106 382.902677,326.07084 C382.159877,322.167573 380.181474,319.376638 376.967468,317.698035 L379.543408,312 L377.076542,313.290532 C376.483087,313.600996 375.769068,313.571197 375.203545,313.212366 L375.203545,313.212366 C374.645961,312.858572 373.933953,312.859643 373.377437,313.215114 L372.620426,313.698649 C371.908877,314.153146 371.010847,314.200319 370.255596,313.822873 L367.806869,312.599091 L369.82407,317.698035 Z" id="Path-6" stroke-linecap="round" stroke-linejoin="round" transform="translate(375.000000, 322.000000) scale(-1, 1) rotate(2.000000) translate(-375.000000, -322.000000) "></path>
    <g class="q"  transform="translate(369.000000, 321.000000)" stroke-linecap="round" stroke-linejoin="round" stroke-width="0.8">
        <ellipse id="Oval-Copy-3" transform="translate(4.138518, 3.808612) rotate(12.000000) translate(-4.138518, -3.808612) " cx="4.13851804" cy="3.80861244" rx="3.01359593" ry="3.00283309"></ellipse>
        <path d="M4.89633827,3.33789824 L5.14763248,3.57318979 C5.8585083,4.23879635 5.90080095,5.35271413 5.24244172,6.0703071 L5.13196277,6.19072605 C4.52313641,6.85432958 4.52629925,7.87433414 5.13922928,8.53414924" id="Path-9" transform="translate(5.193605, 5.936024) rotate(122.000000) translate(-5.193605, -5.936024) "></path>
    </g>
    <path d="M386.182704,312 C384.907397,312.760621 383.717364,312.940522 382.612607,312.539703 C381.50785,312.138884 380.667524,312.7542 380.091627,314.385649 L382.986521,318.977587 C381.484683,321.161075 380.507653,324.01068 380.05543,327.526403 C379.603207,331.042127 381.918064,332.48564 387,331.856943" id="Path-6-Copy" stroke-linecap="round" stroke-linejoin="round" transform="translate(383.500000, 322.000000) scale(-1, 1) rotate(-8.000000) translate(-383.500000, -322.000000) "></path>
    <path d="M374,317 C376.209917,318.016005 378.209917,318.257811 380,317.725416" id="Path-7" stroke-linecap="round" stroke-linejoin="round" transform="translate(377.000000, 317.500000) scale(-1, 1) rotate(2.000000) translate(-377.000000, -317.500000) "></path>
    <path d="M382,319 C382.545712,319.474561 383.212378,319.523588 384,319.147078" id="Path-7-Copy-3" stroke-linecap="round" stroke-linejoin="round" transform="translate(383.000000, 319.500000) scale(-1, 1) rotate(2.000000) translate(-383.000000, -319.500000) "></path>
    <path d="M381,315.137919 C381.369024,315.438954 382.207082,315.591899 383.514176,315.596754 L383.514176,315.596744 C383.756575,315.597644 383.99744,315.635262 384.228571,315.708316 L384.885784,315.916044 C385.507279,316.112482 386.186355,315.934887 386.632107,315.459336 L388,314" id="Path-7-Copy-2" stroke-linecap="round" stroke-linejoin="round" transform="translate(384.500000, 315.000000) scale(-1, 1) rotate(2.000000) translate(-384.500000, -315.000000) "></path>
    <path d="M373.018835,312 C372.852753,310.804485 373.785003,310.394394 375.815584,310.769727 C378.861457,311.332727 379.449833,309.205727 382,310.336909" id="Path-7-Copy" stroke-linecap="round" stroke-linejoin="round" transform="translate(377.500000, 311.000000) scale(-1, 1) rotate(2.000000) translate(-377.500000, -311.000000) "></path>
    <rect id="Rectangle-4-Copy-5" transform="translate(373.000000, 238.500000) scale(-1, 1) translate(-373.000000, -238.500000) " x="363.5" y="222.5" width="19" height="32" rx="1"></rect>
    <rect id="Rectangle-4" transform="translate(373.000000, 196.500000) scale(-1, 1) translate(-373.000000, -196.500000) " x="363.5" y="180.5" width="19" height="32" rx="1"></rect>
    <rect id="Rectangle-4-Copy" transform="translate(406.000000, 196.500000) scale(-1, 1) translate(-406.000000, -196.500000) " x="396.5" y="180.5" width="19" height="32" rx="1"></rect>
    <rect id="Rectangle-4-Copy-2" transform="translate(439.000000, 196.500000) scale(-1, 1) translate(-439.000000, -196.500000) " x="429.5" y="180.5" width="19" height="32" rx="1"></rect>
    <rect id="Rectangle-4-Copy-4" transform="translate(406.000000, 238.500000) scale(-1, 1) translate(-406.000000, -238.500000) " x="396.5" y="222.5" width="19" height="32" rx="1"></rect>
    <rect id="Rectangle-4-Copy-3" transform="translate(439.000000, 238.500000) scale(-1, 1) translate(-439.000000, -238.500000) " x="429.5" y="222.5" width="19" height="32" rx="1"></rect>
    <rect id="Rectangle-5" stroke-linecap="round" stroke-linejoin="round" transform="translate(405.500000, 338.500000) scale(-1, 1) translate(-405.500000, -338.500000) " x="340" y="336" width="131" height="5"></rect>
    <path id="Rectangle-5-Copy" stroke-linecap="round" stroke-linejoin="round" transform="translate(406.000000, 347.500000) scale(-1, 1) translate(-406.000000, -347.500000) " d="M473.509019 345 478 345 478 350 334 350 334 345 468.62853 345"></path>
    <path d="M408.5,330 L408.5,285" id="Path-3" stroke-linecap="round" stroke-linejoin="round" transform="translate(408.500000, 307.500000) scale(-1, 1) translate(-408.500000, -307.500000) "></path>
    <path d="M378.5,208 L378.5,181" id="Path-3-Copy" stroke-linecap="round" stroke-linejoin="round" transform="translate(378.500000, 194.500000) scale(-1, 1) translate(-378.500000, -194.500000) "></path>
    <path d="M378.5,250 L378.5,223" id="Path-3-Copy-2" stroke-linecap="round" stroke-linejoin="round" transform="translate(378.500000, 236.500000) scale(-1, 1) translate(-378.500000, -236.500000) "></path>
    <path d="M411.5,208 L411.5,181" id="Path-3-Copy-4" stroke-linecap="round" stroke-linejoin="round" transform="translate(411.500000, 194.500000) scale(-1, 1) translate(-411.500000, -194.500000) "></path>
    <path d="M411.5,250 L411.5,223" id="Path-3-Copy-3" stroke-linecap="round" stroke-linejoin="round" transform="translate(411.500000, 236.500000) scale(-1, 1) translate(-411.500000, -236.500000) "></path>
    <path d="M444.5,208 L444.5,181" id="Path-3-Copy-6" stroke-linecap="round" stroke-linejoin="round" transform="translate(444.500000, 194.500000) scale(-1, 1) translate(-444.500000, -194.500000) "></path>
    <path d="M444.5,250 L444.5,223" id="Path-3-Copy-5" stroke-linecap="round" stroke-linejoin="round" transform="translate(444.500000, 236.500000) scale(-1, 1) translate(-444.500000, -236.500000) "></path>
    <path id="Rectangle-4-Copy-25" stroke-linecap="round" stroke-linejoin="round" transform="translate(389.500000, 108.500000) scale(-1, 1) translate(-389.500000, -108.500000) " d="M385 114.81488 385 97 394 97 394 120 385 120"></path>
    <path id="Rectangle-4-Copy-28" stroke-linecap="round" stroke-linejoin="round" transform="translate(389.500000, 39.500000) scale(-1, 1) translate(-389.500000, -39.500000) " d="M385 45.8148797 385 28 394 28 394 51 385 51"></path>
    <path id="Rectangle-4-Copy-27" stroke-linecap="round" stroke-linejoin="round" transform="translate(389.500000, 73.500000) scale(-1, 1) translate(-389.500000, -73.500000) " d="M385 67.1173956 385 62 394 62 394 85 385 85 385 70.9345442"></path>
    <path id="Rectangle-4-Copy-26" stroke-linecap="round" stroke-linejoin="round" transform="translate(389.500000, 139.500000) scale(-1, 1) translate(-389.500000, -139.500000) " d="M385 141.59944 385 131 394 131 394 148"></path>
    <path id="Rectangle-4-Copy-21" stroke-linecap="round" stroke-linejoin="round" transform="translate(344.000000, 164.500000) scale(-1, 1) translate(-344.000000, -164.500000) " d="M370 238 370 91 318 91"></path>
    <path d="M358,119 C361.865993,119 365,115.865993 365,112 C365,108.134007 361.865993,105 358,105 C354.134007,105 351,108.134007 351,112 C351,113.841805 351.71132,115.517472 352.874229,116.767271" id="Oval-Copy-10" stroke-linecap="round" stroke-linejoin="round" transform="translate(358.000000, 112.000000) scale(-1, 1) rotate(-150.000000) translate(-358.000000, -112.000000) "></path>
    <path d="M337,119 C340.865993,119 344,115.865993 344,112 C344,108.134007 340.865993,105 337,105 C333.134007,105 330,108.134007 330,112 C330,113.841805 330.71132,115.517472 331.874229,116.767271" id="Oval-Copy-11" stroke-linecap="round" stroke-linejoin="round" transform="translate(337.000000, 112.000000) scale(-1, 1) rotate(-150.000000) translate(-337.000000, -112.000000) "></path>
    <path id="Rectangle-4-Copy-25" stroke-linecap="round" stroke-linejoin="round" transform="translate(331.500000, 190.500000) scale(-1, 1) translate(-331.500000, -190.500000) " d="M327 196.81488 327 179 336 179 336 202 327 202"></path>
    <path id="Rectangle-4-Copy-27" stroke-linecap="round" stroke-linejoin="round" transform="translate(331.500000, 156.500000) scale(-1, 1) translate(-331.500000, -156.500000) " d="M327 150.117396 327 145 336 145 336 168 327 168 327 153.934544"></path>
    <path id="Rectangle-4-Copy-26" stroke-linecap="round" stroke-linejoin="round" transform="translate(331.500000, 222.500000) scale(-1, 1) translate(-331.500000, -222.500000) " d="M327 224.59944 327 214 336 214 336 231"></path>
    <path id="Rectangle-4-Copy-21" stroke-linecap="round" stroke-linejoin="round" transform="translate(304.500000, 295.500000) scale(-1, 1) translate(-304.500000, -295.500000) " d="M332 345 332 246 277 246"></path>
    <path d="M256.200724,346 C261.366925,345.759103 264.154345,344.060743 263.993399,339.962352 C263.828531,335.764071 261.615189,332.079118 257.353375,328.907495 L260.59814,322 L257.474201,323.5728 C256.733241,323.945849 255.852167,323.909797 255.144163,323.477458 L255.131461,323.469701 C254.425003,323.038307 253.536276,323.039622 252.831098,323.473106 L251.548872,324.26131 C250.853162,324.688973 249.98773,324.733525 249.251783,324.379561 L245.814289,322.726253 L248.004183,328.474407 C245.235239,335.312466 244.380389,339.834052 245.439633,342.039164" id="Path-6" stroke-linecap="round" stroke-linejoin="round" transform="translate(254.500000, 334.000000) scale(-1, 1) rotate(15.000000) translate(-254.500000, -334.000000) "></path>
    <g class="q"  transform="translate(252.000000, 333.000000)" stroke-linecap="round" stroke-linejoin="round" stroke-width="0.8">
        <ellipse id="Oval-Copy-3" transform="translate(4.408667, 4.728826) rotate(25.000000) translate(-4.408667, -4.728826) " cx="4.40866695" cy="4.72882567" rx="3.13815789" ry="3.05098684"></ellipse>
        <path d="M5.6912089,4.45207446 L5.9553797,4.69341376 C6.68156552,5.35683747 6.73244426,6.48333856 6.06902056,7.20952438 C6.06326475,7.21582471 6.05746373,7.22208359 6.05161795,7.22830053 L5.93674352,7.35046868 C5.30684308,8.02036336 5.31008981,9.0656842 5.9441394,9.7316531" id="Path-9" transform="translate(6.000762, 7.091864) rotate(122.000000) translate(-6.000762, -7.091864) "></path>
    </g>
    <path d="M252,329 C254.578237,331.032011 256.91157,331.515621 259,330.450831" id="Path-7" stroke-linecap="round" stroke-linejoin="round" transform="translate(255.500000, 330.000000) scale(-1, 1) rotate(15.000000) translate(-255.500000, -330.000000) "></path>
    <path d="M248.023021,322 C247.820031,320.206727 248.959448,319.591591 251.44127,320.154591 C255.164003,320.999091 255.883129,317.808591 259,319.505364" id="Path-7-Copy" stroke-linecap="round" stroke-linejoin="round" transform="translate(253.500000, 320.500000) scale(-1, 1) rotate(15.000000) translate(-253.500000, -320.500000) "></path>
    <path id="Rectangle-5-Copy-4" stroke-linecap="round" stroke-linejoin="round" transform="translate(295.000000, 347.500000) scale(-1, 1) translate(-295.000000, -347.500000) " d="M263 345 327 345 327 350 275.717114 350"></path>
    <path id="Rectangle-4-Copy-25" stroke-linecap="round" stroke-linejoin="round" transform="translate(313.500000, 309.500000) scale(-1, 1) translate(-313.500000, -309.500000) " d="M309 315.81488 309 298 318 298 318 321 309 321"></path>
    <path id="Rectangle-4-Copy-27" stroke-linecap="round" stroke-linejoin="round" transform="translate(289.500000, 309.500000) scale(-1, 1) translate(-289.500000, -309.500000) " d="M285 303.117396 285 298 294 298 294 321 285 321 285 306.934544"></path>
    <rect id="Rectangle-4-Copy-22" transform="translate(304.000000, 270.000000) scale(-1, 1) translate(-304.000000, -270.000000) " x="285.5" y="255.5" width="37" height="29" rx="1"></rect>
    <path d="M318,279 L318,256" id="Path-3-Copy-13" stroke-linecap="round" stroke-linejoin="round" transform="translate(318.000000, 267.500000) scale(-1, 1) translate(-318.000000, -267.500000) "></path>
    <path d="M307,213.455788 C291.170679,204.265341 272.759628,199 253.113188,199 C193.956208,199 146,246.738723 146,305.627423 C146,318.026411 148.125952,329.931109 152.034784,341" id="Oval-Copy-12" stroke-linecap="round" stroke-linejoin="round"></path>
    <path d="M131,249 C123.965125,263.164462 119.449791,278.669906 118,295" id="Oval-Copy-15" stroke-linecap="round" stroke-linejoin="round"></path>
    <path d="M232,173 C193.518194,178.827273 160.413176,200.918485 140,232" id="Oval-Copy-16" stroke-linecap="round" stroke-linejoin="round"></path>
    <path d="M305,182 C299.519607,179.617388 293.842487,177.606856 288,176" id="Oval-Copy-17" stroke-linecap="round" stroke-linejoin="round"></path>
    <path d="M252,225 C207.264935,225 171,261.301503 171,306.081677 C171,318.979417 174.008449,331.173789 179.361226,342" id="Oval-Copy-3" stroke-linecap="round" stroke-linejoin="round"></path>
    <path d="M296,237 C285.686475,230.551906 273.785854,226.322823 261,225" id="Oval-Copy-4" stroke-linecap="round" stroke-linejoin="round"></path>
    <path d="M353.5,66 C359.29899,66 364,64.209139 364,62 C364,59.790861 359.29899,58 353.5,58 C347.70101,58 343,59.790861 343,62 C343,63.05246 344.06698,64.0099842 345.811343,64.7241547" id="Oval-Copy-3" stroke-linecap="round" stroke-linejoin="round" transform="translate(353.500000, 62.000000) scale(-1, -1) rotate(11.000000) translate(-353.500000, -62.000000) "></path>
    <g class="q"  transform="translate(347.000000, 59.000000)" stroke-linecap="round" stroke-linejoin="round" stroke-width="0.7">
        <ellipse id="Oval-Copy-3" transform="translate(6.000000, 2.500000) rotate(11.000000) translate(-6.000000, -2.500000) " cx="6" cy="2.5" rx="5" ry="1.5"></ellipse>
        <path d="M8,0 L8,-1.33226763e-15 C9.00084215,0.658167044 9.61275258,1.76753742 9.63554482,2.96518068 L9.66218421,4.36497626 C9.68191271,5.40163212 10.1747357,6.37231901 11,7" id="Path-9" transform="translate(9.500000, 3.500000) rotate(123.000000) translate(-9.500000, -3.500000) "></path>
    </g>
    <path d="M363.379512,67.9626276 C363.379512,68.1679906 363.379512,67.5269948 363.379512,66.0396403 C363.379512,63.8086086 358.678502,62 352.879512,62 C347.080523,62 342.379512,63.8086086 342.379512,66.0396403 C342.379512,66.7482337 342.379512,67.3892294 342.379512,67.9626276" id="Oval-Copy-13" stroke-linecap="round" stroke-linejoin="round" transform="translate(352.879512, 65.000000) scale(-1, -1) rotate(11.000000) translate(-352.879512, -65.000000) "></path>
    <path d="M43.62467,312 L68,312 C68.5522847,312 69,312.447715 69,313 L69,344 C69,344.552285 68.5522847,345 68,345 L57.282552,345 L57.282552,345 C57.282552,341.246121 54.2394321,338.203001 50.4855535,338.203001 L46.4508645,338.203001 C42.6786224,338.203001 39.6034446,341.228263 39.5417168,345 L37,345 C36.4477153,345 36,344.552285 36,344 L36,327.748781 L42.7103071,312.595104 C42.8705169,312.233308 43.2289882,312 43.62467,312 Z" id="Rectangle-4-Copy-22" stroke-linecap="round" stroke-linejoin="round"></path>
    <path d="M45,328 L43,322" id="Path-3-Copy-13" stroke-linecap="round" stroke-linejoin="round"></path>
    <path id="Path-3-Copy-84" stroke-linecap="round" stroke-linejoin="round" d="M35.1269362 340 34 340 34 346.989197 40 347 40 345.081574"></path>
    <path d="M53,326 L56,313" id="Path-3-Copy-81" stroke-linecap="round" stroke-linejoin="round"></path>
    <path d="M117,316.5 L133,316.5" id="Path-3-Copy-85" stroke-linecap="round" stroke-linejoin="round"></path>
    <path d="M88,322.5 L124,322.5" id="Path-3-Copy-86" stroke-linecap="round" stroke-linejoin="round"></path>
    <path d="M53.5,339 L53.5,328" id="Path-3-Copy-83" stroke-linecap="round" stroke-linejoin="round"></path>
    <path d="M70,327.5 L37,327.5" id="Path-3-Copy-82" stroke-linecap="round" stroke-linejoin="round"></path>
    <path d="M48.5,354 C52.0898509,354 55,351.089851 55,347.5 C55,343.910149 52.0898509,341 48.5,341 C44.9101491,341 42,343.910149 42,347.5 C42,349.210248 42.6605115,350.766224 43.7403554,351.926751" id="Oval-Copy-10" stroke-linecap="round" stroke-linejoin="round" transform="translate(48.500000, 347.500000) rotate(-150.000000) translate(-48.500000, -347.500000) "></path>
    <path d="M118.5,354 C122.089851,354 125,351.089851 125,347.5 C125,343.910149 122.089851,341 118.5,341 C114.910149,341 112,343.910149 112,347.5 C112,349.210248 112.660512,350.766224 113.740355,351.926751" id="Oval-Copy-27" stroke-linecap="round" stroke-linejoin="round" transform="translate(118.500000, 347.500000) rotate(-220.000000) translate(-118.500000, -347.500000) "></path>
    <path d="M100.5,354 C104.089851,354 107,351.089851 107,347.5 C107,343.910149 104.089851,341 100.5,341 C96.9101491,341 94,343.910149 94,347.5 C94,349.210248 94.6605115,350.766224 95.7403554,351.926751" id="Oval-Copy-28" stroke-linecap="round" stroke-linejoin="round" transform="translate(100.500000, 347.500000) rotate(10.000000) translate(-100.500000, -347.500000) "></path>
    <path d="M73,333.299774 L73,309 C73,308.447715 73.4477153,308 74,308 L132,308 C132.552285,308 133,308.447715 133,309 L133,344 C133,344.552285 132.552285,345 132,345 L127.979858,345 L127.979858,345 C127.979858,340.578759 124.395733,336.994634 119.974492,336.994634 L99.8610575,336.994634 C95.4398161,336.994634 91.8556918,340.578759 91.8556918,345 L74,345 C73.4477153,345 73,344.552285 73,344 L73,336.522314" id="Rectangle-4-Copy-23" stroke-linecap="round" stroke-linejoin="round"></path>
    <g class="q"  transform="translate(76.000000, 312.000000)" stroke-linecap="round" stroke-linejoin="round" stroke-width="0.8">
        <circle id="Oval-Copy-3" cx="3" cy="3" r="3"></circle>
        <path d="M4.21229495,2 L4.45605329,2.22691409 C5.14260651,2.86602493 5.18337981,3.9398805 4.54726631,4.62921178 L4.44037828,4.74504215 C3.85202328,5.38261941 3.85507419,6.36608537 4.4473736,7" id="Path-9" transform="translate(4.500000, 4.500000) rotate(110.000000) translate(-4.500000, -4.500000) "></path>
    </g>
    <path id="Rectangle-4-Copy-21" stroke-linecap="round" stroke-linejoin="round" transform="translate(406.000000, 81.500000) scale(-1, 1) translate(-406.000000, -81.500000) " d="M435 155 435 8 377 8 377 81.5"></path>
    <path id="Rectangle-4-Copy-24" stroke-linecap="round" stroke-linejoin="round" transform="translate(435.000000, 121.000000) scale(-1, 1) translate(-435.000000, -121.000000) " d="M449 121 449 88 421 88 421 154"></path>
    <path d="M440.5,103 C442.432997,103 444,101.432997 444,99.5 C444,97.5670034 442.432997,96 440.5,96 C438.567003,96 437,97.5670034 437,99.5 C437,100.420903 437.35566,101.258736 437.937114,101.883635" id="Oval-Copy-3" stroke-linecap="round" stroke-linejoin="round" transform="translate(440.500000, 99.500000) scale(-1, 1) rotate(-50.000000) translate(-440.500000, -99.500000) "></path>
    <path d="M440.5,116 C442.432997,116 444,114.432997 444,112.5 C444,110.567003 442.432997,109 440.5,109 C438.567003,109 437,110.567003 437,112.5 C437,113.420903 437.35566,114.258736 437.937114,114.883635" id="Oval-Copy-5" stroke-linecap="round" stroke-linejoin="round" transform="translate(440.500000, 112.500000) scale(-1, 1) rotate(-50.000000) translate(-440.500000, -112.500000) "></path>
    <path d="M170.514173,85.3158024 C174.14218,85.3158024 177.08326,84.2589008 177.08326,82.9551466 C177.08326,81.6513925 174.14218,80.5944909 170.514173,80.5944909 C166.886167,80.5944909 163.945087,81.6513925 163.945087,82.9551466 C163.945087,83.5762706 164.612619,84.1413669 165.70394,84.5628445" id="Oval-Copy-3" stroke-linecap="round" stroke-linejoin="round" transform="translate(170.514173, 82.955147) scale(-1, -1) rotate(24.000000) translate(-170.514173, -82.955147) "></path>
    <path d="M176.208625,87.0479257 C176.208625,86.6773203 176.208625,86.0531261 176.208625,85.1753431 C176.208625,83.8586686 173.267545,82.7912931 169.639538,82.7912931 C166.011532,82.7912931 163.070451,83.8586686 163.070451,85.1753431 C163.070451,85.5935293 163.070451,86.2177235 163.070451,87.0479257" id="Oval-Copy-13" stroke-linecap="round" stroke-linejoin="round" transform="translate(169.639538, 84.919609) scale(-1, -1) rotate(24.000000) translate(-169.639538, -84.919609) "></path>
    <path d="M69.6865571,78.3221349 C70.6593371,78.3221349 71.4479312,77.5335408 71.4479312,76.5607608 C71.4479312,75.5879807 70.6593371,74.7993867 69.6865571,74.7993867 C68.713777,74.7993867 67.925183,75.5879807 67.925183,76.5607608 C67.925183,77.0242047 68.1041688,77.4458443 68.3967856,77.7603247" id="Oval-Copy-3" stroke-linecap="round" stroke-linejoin="round" transform="translate(69.686557, 76.560761) scale(-1, 1) rotate(-166.000000) translate(-69.686557, -76.560761) "></path>
    <path d="M75.9659667,80.0628231 C76.9387468,80.0628231 77.7273408,79.274229 77.7273408,78.301449 C77.7273408,77.3286689 76.9387468,76.5400749 75.9659667,76.5400749 C74.9931867,76.5400749 74.2045926,77.3286689 74.2045926,78.301449 C74.2045926,78.764893 74.3835784,79.1865325 74.6761952,79.5010129" id="Oval-Copy-10" stroke-linecap="round" stroke-linejoin="round" transform="translate(75.965967, 78.301449) scale(-1, 1) rotate(-166.000000) translate(-75.965967, -78.301449) "></path>
    <path d="M82.7385325,82.0048251 C83.7113126,82.0048251 84.4999066,81.216231 84.4999066,80.243451 C84.4999066,79.2706709 83.7113126,78.4820769 82.7385325,78.4820769 C81.7657525,78.4820769 80.9771584,79.2706709 80.9771584,80.243451 C80.9771584,80.706895 81.1561443,81.1285345 81.448761,81.4430149" id="Oval-Copy-11" stroke-linecap="round" stroke-linejoin="round" transform="translate(82.738533, 80.243451) scale(-1, 1) rotate(-166.000000) translate(-82.738533, -80.243451) "></path>
    <path d="M89.5110984,83.9468271 C90.4838784,83.9468271 91.2724725,83.158233 91.2724725,82.185453 C91.2724725,81.2126729 90.4838784,80.4240789 89.5110984,80.4240789 C88.5383183,80.4240789 87.7497243,81.2126729 87.7497243,82.185453 C87.7497243,82.648897 87.9287101,83.0705365 88.2213269,83.3850169" id="Oval-Copy-19" stroke-linecap="round" stroke-linejoin="round" transform="translate(89.511098, 82.185453) scale(-1, 1) rotate(-166.000000) translate(-89.511098, -82.185453) "></path>
    <path d="M95.7192837,85.7269956 C96.6920638,85.7269956 97.4806578,84.9384015 97.4806578,83.9656215 C97.4806578,82.9928414 96.6920638,82.2042474 95.7192837,82.2042474 C94.7465036,82.2042474 93.9579096,82.9928414 93.9579096,83.9656215 C93.9579096,84.4290655 94.1368954,84.850705 94.4295122,85.1651854" id="Oval-Copy-18" stroke-linecap="round" stroke-linejoin="round" transform="translate(95.719284, 83.965621) scale(-1, 1) rotate(-166.000000) translate(-95.719284, -83.965621) "></path>
    <path d="M102.49185,87.6689976 C103.46463,87.6689976 104.253224,86.8804035 104.253224,85.9076235 C104.253224,84.9348434 103.46463,84.1462494 102.49185,84.1462494 C101.519069,84.1462494 100.730475,84.9348434 100.730475,85.9076235 C100.730475,86.3710675 100.909461,86.792707 101.202078,87.1071874" id="Oval-Copy-14" stroke-linecap="round" stroke-linejoin="round" transform="translate(102.491850, 85.907623) scale(-1, 1) rotate(-166.000000) translate(-102.491850, -85.907623) "></path>
    <path d="M31.7937144,84.7780188 L84.6277151,61.478256 L98.1394559,61.478256 L104.719702,60.6284229 C106.078329,60.4529574 107.321956,61.412099 107.497421,62.7707255 C107.527618,63.0045352 107.524327,63.2414558 107.48765,63.4743367 L107.48765,63.4743367 C107.158577,65.5637409 105.993436,67.4292809 104.260289,68.6417576 L93.3035765,76.3068643 L62.0660122,89.8434689" id="Path-3-Copy-80" stroke-linecap="round" stroke-linejoin="round" transform="translate(69.655783, 75.225593) scale(-1, 1) rotate(5.000000) translate(-69.655783, -75.225593) "></path>
    <path d="M53.4614681,63.2287481 L51.2192086,67.787556 L47.7052272,70.5944096 C45.6579656,69.3378824 44.6687088,68.6818754 44.7374567,68.6263887 C44.8062045,68.570902 45.811998,67.7784052 47.7548369,66.2488985 L48.4400558,63.2287481" id="Path-5-Copy" stroke-linecap="round" stroke-linejoin="round" transform="translate(49.097787, 66.911579) scale(-1, 1) rotate(5.000000) translate(-49.097787, -66.911579) "></path>
    <path d="M113.736365,84.4864942 L96.3137075,115.705498 C85.3908723,122.215861 79.9638287,125.4433 80.0325766,125.387813 C80.1013244,125.332326 84.013776,113.813296 91.7699312,90.8307232" id="Path-5-Copy-2" stroke-linecap="round" stroke-linejoin="round" transform="translate(96.884148, 104.937505) scale(-1, 1) rotate(5.000000) translate(-96.884148, -104.937505) "></path>
    <path d="M114.396075,94.6642664 C114.464823,94.6087796 121.897486,91.6453268 136.694063,85.7739078" id="Path-5-Copy-6" stroke-linecap="round" stroke-linejoin="round" transform="translate(125.545069, 90.219087) scale(-1, 1) rotate(5.000000) translate(-125.545069, -90.219087) "></path>
    <path d="M119.202264,86.679053 L109.100581,80.956951 C112.131986,80.1706658 113.682063,79.7497799 113.750811,79.6942932 C113.819558,79.6388064 119.989648,80.4814353 132.261079,82.2221798" id="Path-5-Copy-9" stroke-linecap="round" stroke-linejoin="round" transform="translate(120.680830, 83.185388) scale(-1, 1) rotate(5.000000) translate(-120.680830, -83.185388) "></path>
    <path d="M102.164712,95.3940535 L104.529841,97.7400441 C108.856997,96.8961202 111.054948,96.4464149 111.123696,96.3909282 C111.192444,96.3354415 114.790916,95.0975883 121.91911,92.6773688" id="Path-5-Copy-10" stroke-linecap="round" stroke-linejoin="round" transform="translate(112.041911, 95.208706) scale(-1, 1) rotate(5.000000) translate(-112.041911, -95.208706) "></path>
    <path d="M121.926474,99.899116 C121.995222,99.8436293 129.427885,96.8801765 144.224462,91.0087575" id="Path-5-Copy-7" stroke-linecap="round" stroke-linejoin="round" transform="translate(133.075468, 95.453937) scale(-1, 1) rotate(5.000000) translate(-133.075468, -95.453937) "></path>
    <path d="M124.359077,100.177423 C124.427825,100.121936 128.180171,98.581365 135.616116,95.5557099" id="Path-5-Copy-8" stroke-linecap="round" stroke-linejoin="round" transform="translate(129.987596, 97.866566) scale(-1, 1) rotate(5.000000) translate(-129.987596, -97.866566) "></path>
    <path d="M86.6328493,52.4165877 C86.7015972,52.361101 88.6993792,51.5281587 92.6261954,49.9177609" id="Path-5-Copy-12" stroke-linecap="round" stroke-linejoin="round" transform="translate(89.629522, 51.167174) scale(-1, 1) rotate(5.000000) translate(-89.629522, -51.167174) "></path>
    <path d="M90.522441,56.9217647 C90.5911889,56.8662779 93.3039267,55.7187735 98.6606546,53.4792514" id="Path-5-Copy-13" stroke-linecap="round" stroke-linejoin="round" transform="translate(94.591548, 55.200508) scale(-1, 1) rotate(5.000000) translate(-94.591548, -55.200508) "></path>
    <path d="M94.5616859,65.6501566 L93.8478442,46.5258484 C88.2877914,48.5130469 85.5421389,49.4789028 85.6108868,49.423416 C85.6796347,49.3679293 82.3181771,58.9304265 75.5265139,78.1109076" id="Path-5-Copy-4" stroke-linecap="round" stroke-linejoin="round" transform="translate(85.044100, 62.318378) scale(-1, 1) rotate(5.000000) translate(-85.044100, -62.318378) "></path>
    <path d="M98.3955111,85.615243 L82.5489569,115.213917" id="Path-5-Copy-3" stroke-linecap="round" stroke-linejoin="round" transform="translate(90.472234, 100.414580) scale(-1, 1) rotate(5.000000) translate(-90.472234, -100.414580) "></path>
    <path id="Path-5-Copy-5" stroke-linecap="round" stroke-linejoin="round" transform="translate(87.827238, 63.331129) scale(-1, 1) rotate(5.000000) translate(-87.827238, -63.331129) " d="M89.4156693 55.470286 91.8754747 55.0396814 87.8183051 69.1948049 83.7790004 71.6225767"></path>
    <path d="M143.884649,124.264673 C148.426662,124.264673 152.10869,122.872506 152.10869,121.155181 C152.10869,119.437856 148.426662,118.045689 143.884649,118.045689 C139.342637,118.045689 135.660608,119.437856 135.660608,121.155181 C135.660608,121.973335 136.496312,122.717689 137.86257,123.272866" id="Oval-Copy-3" stroke-linecap="round" stroke-linejoin="round" transform="translate(143.884649, 121.155181) scale(1, -1) rotate(-21.000000) translate(-143.884649, -121.155181) "></path>
    <g class="q"  transform="translate(139.000000, 118.000000)" stroke-linecap="round" stroke-linejoin="round" stroke-width="0.6">
        <ellipse id="Oval-Copy-3" transform="translate(4.054730, 2.554149) rotate(20.000000) translate(-4.054730, -2.554149) " cx="4.05472988" cy="2.55414852" rx="3.36538462" ry="1.00961538"></ellipse>
        <path d="M5.32998771,1.13118654 L5.32998771,1.13118654 C5.97583791,1.57933882 6.36692532,2.3106024 6.3811011,3.09658077 L6.39974129,4.13008893 C6.41205302,4.81271482 6.72708195,5.45456804 7.25954832,5.88189606" id="Path-9" transform="translate(6.294768, 3.506541) rotate(131.000000) translate(-6.294768, -3.506541) "></path>
    </g>
    <path d="M151.134394,126.066166 C151.134394,126.230647 151.134394,125.717255 151.134394,124.525988 C151.134394,122.739088 147.452366,121.290519 142.910353,121.290519 C138.368341,121.290519 134.686312,122.739088 134.686312,124.525988 C134.686312,125.093522 134.686312,125.606914 134.686312,126.066166" id="Oval-Copy-13" stroke-linecap="round" stroke-linejoin="round" transform="translate(142.910353, 123.693309) scale(1, -1) rotate(-21.000000) translate(-142.910353, -123.693309) "></path>
    <path d="M38.1917215,44.9655295 C42.7337339,44.9655295 46.4157625,43.5733623 46.4157625,41.8560371 C46.4157625,40.1387119 42.7337339,38.7465447 38.1917215,38.7465447 C33.6497091,38.7465447 29.9676805,40.1387119 29.9676805,41.8560371 C29.9676805,42.6741912 30.8033841,43.4185448 32.1696427,43.9737217" id="Oval-Copy-3" stroke-linecap="round" stroke-linejoin="round" transform="translate(38.191721, 41.856037) scale(1, -1) rotate(-21.000000) translate(-38.191721, -41.856037) "></path>
    <g class="q"  transform="translate(33.000000, 39.000000)" stroke-linecap="round" stroke-linejoin="round" stroke-width="0.6">
        <ellipse id="Oval-Copy-3" transform="translate(4.285499, 2.451569) rotate(20.000000) translate(-4.285499, -2.451569) " cx="4.28549911" cy="2.45156877" rx="3.36538462" ry="1.00961538"></ellipse>
        <path d="M5.56075694,1.02860679 L5.56075694,1.02860679 C6.20660715,1.47675907 6.59769455,2.20802264 6.61187033,2.99400101 L6.63051052,4.02750918 C6.64282225,4.71013506 6.95785118,5.35198829 7.49031755,5.7793163" id="Path-9" transform="translate(6.525537, 3.403962) rotate(131.000000) translate(-6.525537, -3.403962) "></path>
    </g>
    <path d="M45.4414664,46.767022 C45.4414664,46.9315034 45.4414664,46.4181108 45.4414664,45.2268441 C45.4414664,43.4399442 41.7594378,41.9913756 37.2174254,41.9913756 C32.675413,41.9913756 28.9933844,43.4399442 28.9933844,45.2268441 C28.9933844,45.7943777 28.9933844,46.3077703 28.9933844,46.767022" id="Oval-Copy-13" stroke-linecap="round" stroke-linejoin="round" transform="translate(37.217425, 44.394165) scale(1, -1) rotate(-21.000000) translate(-37.217425, -44.394165) "></path>

</svg>