
<svg width="1021px" height="460px" viewBox="0 0 1021 460" version="1.1" xmlns="http://www.w3.org/2000/svg"  stroke="#000000" stroke-width="1" fill="none" fill-rule="evenodd" stroke-linecap="round" stroke-linejoin="round">
    <path d="M402,97 L406,87" id="Path-3-Copy-7" transform="translate(404.000000, 92.000000) scale(-1, 1) rotate(30.000000) translate(-404.000000, -92.000000) "></path>
    <path d="M418,82 L418,71" id="Path-3-Copy-15" transform="translate(418.000000, 76.500000) scale(-1, 1) rotate(30.000000) translate(-418.000000, -76.500000) "></path>
    <path d="M411,67 L411,61" id="Path-3-Copy-20" transform="translate(411.000000, 64.000000) scale(-1, 1) rotate(30.000000) translate(-411.000000, -64.000000) "></path>
    <path d="M450,75 L444,67" id="Path-3-Copy-16" transform="translate(447.000000, 71.000000) scale(-1, 1) rotate(30.000000) translate(-447.000000, -71.000000) "></path>
    <path d="M449,61 L447,58" id="Path-3-Copy-22" transform="translate(448.000000, 59.500000) scale(-1, 1) rotate(30.000000) translate(-448.000000, -59.500000) "></path>
    <path d="M482,82 L463,76" id="Path-3-Copy-17" transform="translate(472.500000, 79.000000) scale(-1, 1) rotate(30.000000) translate(-472.500000, -79.000000) "></path>
    <path d="M487,103 L477,105" id="Path-3-Copy-18" transform="translate(482.000000, 104.000000) scale(-1, 1) rotate(30.000000) translate(-482.000000, -104.000000) "></path>
    <path d="M489,124 L481,132" id="Path-3-Copy-21" transform="translate(485.000000, 128.000000) scale(-1, 1) rotate(30.000000) translate(-485.000000, -128.000000) "></path>
    <path d="M499,129 L495,132" id="Path-3-Copy-23" transform="translate(497.000000, 130.500000) scale(-1, 1) rotate(30.000000) translate(-497.000000, -130.500000) "></path>
    <path d="M509,96 L491,100" id="Path-3-Copy-19" transform="translate(500.000000, 98.000000) scale(-1, 1) rotate(30.000000) translate(-500.000000, -98.000000) "></path>
    <path d="M456.626407,145 C466.40128,139.405289 473,128.782657 473,116.598897 C473,98.5950231 458.591165,84 440.816966,84 C428.197331,84 417.274164,91.3572966 412,102.06828" id="Oval-Copy-3" transform="translate(442.500000, 114.500000) scale(-1, 1) rotate(-60.000000) translate(-442.500000, -114.500000) "></path>
    <path d="M372,457 L1021,457" id="Path-3-Copy-9"></path>
    <path d="M10,457 L359.117894,457" id="Path-3-Copy-14"></path>
    <path d="M585,450 L677,450" id="Path-3-Copy-10"></path>
    <path d="M79,450 L286,450" id="Path-3-Copy-13"></path>
    <path id="Path-3-Copy-45" d="M383 129 428.938372 131.557324 489 166.768342 489 265"></path>
    <path id="Path-3-Copy-46" d="M148 199.480823 148 138 112.167761 138 101 169.109789 101 445"></path>
    <path id="Path-3-Copy-47" d="M159 152 204.938372 154.562176 227.250709 188.136808 235 327"></path>
    <path id="Path-3-Copy-68" d="M397 292 483.361418 303.939401 514 315.763551 514 424"></path>
    <path id="Path-3-Copy-73" d="M131 122.73951 131 90.9696763 168.615842 36.8811667 256.222215 25 342.631466 36.8811667 373.287017 48.6476443 375 369"></path>
    <path id="Path-3-Copy-69" d="M376 242 444.469937 263.879915 451 300"></path>
    <path d="M507,429.040086 C507.662402,429.129337 511.559025,428.782642 518.689869,428 L527,450" id="Path-3-Copy-70"></path>
    <path d="M728,450 L1017,450" id="Path-3-Copy-11"></path>
    <path d="M686,415 L689,450" id="Combined-Shape"></path>
    <path d="M675,417 L673,444" id="Combined-Shape-Copy"></path>
    <path id="Oval-Copy-8" d="M684 413.5 705 423 699.842958 404"></path>
    <path id="Oval-Copy-9" d="M694.420301 402.404943 707 406 693 383"></path>
    <path id="Oval-Copy-21" d="M680.740162 377.8081 697 384 679.636455 360 674 368.216506"></path>
    <path id="Oval-Copy-23" d="M673.214468 390.068313 663 396 673.214468 366 677 371.972713"></path>
    <path id="Oval-Copy-24" d="M680 404 657 414 667.02153 394"></path>
    <path id="Oval-Copy-25" d="M671 423.283596 656 430 664.089788 411"></path>
    <path d="M710,441 C716.075132,441 721,439.209139 721,437 C721,434.790861 716.075132,433 710,433 C703.924868,433 699,434.790861 699,437 C699,438.05246 700.117789,439.009984 701.945217,439.724155" id="Oval-Copy-3" transform="translate(710.000000, 437.000000) scale(1, -1) translate(-710.000000, -437.000000) "></path>
    <path d="M721,445 C721,444.303477 721,443.130354 721,441.480631 C721,439.006047 716.075132,437 710,437 C703.924868,437 699,439.006047 699,441.480631 C699,442.266579 699,443.439702 699,445" id="Oval-Copy-13" transform="translate(710.000000, 441.000000) scale(1, -1) translate(-710.000000, -441.000000) "></path>
    <path d="M719.649042,446.880851 C719.878115,446.567412 720,446.238671 720,445.899837 C720,443.746016 715.075132,442 709,442 C702.924868,442 698,443.746016 698,445.899837 C698,446.401384 698.200265,447.5326 699.498499,448" id="Oval-Copy-3" transform="translate(709.000000, 445.000000) scale(1, -1) translate(-709.000000, -445.000000) "></path>
    <path d="M720,451 C720,450.344201 720,449.302792 720,447.875772 C720,445.735242 715.075132,444 709,444 C702.924868,444 698,445.735242 698,447.875772 C698,448.555621 698,449.597031 698,451" id="Oval-Copy-13" transform="translate(709.000000, 447.500000) scale(1, -1) translate(-709.000000, -447.500000) "></path>
    <path d="M549,140.476254 C558.710091,137.989311 566.858273,138.497226 573.444547,142 C575.575813,133.680154 581.760964,129.013487 592,128" id="Path-3-Copy-7"></path>
    <path d="M583,155.91161 C590.000298,154.135222 595.874569,154.498019 600.622813,157 C602.159307,151.057253 606.618369,147.723919 614,147" id="Path-3-Copy-12"></path>
    <path d="M518.5,249 C524.29899,249 529,247.209139 529,245 C529,242.790861 524.29899,241 518.5,241 C512.70101,241 508,242.790861 508,245 C508,246.05246 509.06698,247.009984 510.811343,247.724155" id="Oval-Copy-3" transform="translate(518.500000, 245.000000) scale(1, -1) rotate(-12.000000) translate(-518.500000, -245.000000) "></path>
    <path d="M528.198253,251.706595 C528.198253,251.097138 528.198253,250.070655 528.198253,248.627148 C528.198253,246.461886 523.497243,244.706595 517.698253,244.706595 C511.899263,244.706595 507.198253,246.461886 507.198253,248.627148 C507.198253,249.314852 507.198253,250.341334 507.198253,251.706595" id="Oval-Copy-13" transform="translate(517.698253, 248.206595) scale(1, -1) rotate(-12.000000) translate(-517.698253, -248.206595) "></path>
    <path d="M504,284 L523.022886,290.314327 C533.246732,293.707961 540.147097,303.268995 540.147097,314.041357 L540.147097,422.573548 C540.147097,431.093342 547.053755,438 555.573548,438 L561.453532,438 C566.725901,438 571,433.725901 571,428.453532 L571,426.922128 C571,422.495531 567.411534,418.907065 562.984937,418.907065 L562.984937,418.907065 C558.55834,418.907065 554.969874,422.495531 554.969874,426.922128 L554.969874,427.270816" id="Path-4"></path>
    <path d="M450,239.032487 L451.097393,239.005143 C460.098195,238.780863 467.576603,245.89564 467.800883,254.896443 C467.804255,255.031782 467.805942,255.167157 467.805942,255.302538 L467.805942,259.732146 C467.805942,267.064578 472.5073,273.570787 479.469035,275.872699 L498,282" id="Path-4-Copy-4"></path>
    <path d="M441,244 L445.927472,244 C453.659459,244 459.927472,250.268014 459.927472,258 L459.927472,261.926195 C459.927472,270.545542 465.449601,278.195319 473.630599,280.909066 L519.361675,296.07868 C527.542673,298.792426 533.064802,306.442204 533.064802,315.06155 L533.064802,424 C533.064802,435.59798 542.466822,445 554.064802,445 L561.91675,445 C570.799284,445 578,437.799284 578,428.91675 L578,428.91675 C578,420.035473 570.800302,412.835775 561.919025,412.835775 C561.918267,412.835775 561.917508,412.835775 561.91675,412.835775 L558.283527,412.836289" id="Path-4-Copy"></path>
    <path d="M527,346 L527,425 C527,438.807119 538.192881,450 552,450 L562.901126,450 C574.553677,450 583.999936,440.553741 583.999936,428.90119 C583.999936,428.694563 583.996901,428.487947 583.990831,428.281409 L583.895607,425.041171 C583.584915,414.469018 575.483171,405.766236 564.960227,404.701048" id="Path-4-Copy-2"></path>
    <path d="M433,249 L442.489536,249.346793 C448.942102,249.5826 454.051291,254.881914 454.051291,261.338788 L454.051291,265.809835 C454.051291,275.386262 460.186677,283.885428 469.276134,286.900349 L514.666892,301.956206 C522.02994,304.398488 527,311.283361 527,319.040888 L527,336" id="Path-4-Copy-3"></path>
    <path d="M593,398 L585,406" id="Path-3-Copy-21"></path>
    <path d="M555,355 L555,355 C550.593409,352.478149 547.786513,347.874066 547.563317,342.801792 L547,330" id="Path-3-Copy-74"></path>
    <path d="M554,368 L554,368 C549.800021,365.421714 547.192213,360.891205 547.072207,355.964443 L547,353" id="Path-3-Copy-76"></path>
    <path d="M482,270.999457 L482,270.999457 C476.667231,271.056674 472.276272,266.822078 472.140171,261.490739 L472,256" id="Path-3-Copy-77"></path>
    <path d="M537,280 L534.628482,282.779452 C532.454314,285.327608 528.670317,285.738386 526,283.716131" id="Path-3-Copy-78"></path>
    <path d="M543,281 L539,284" id="Path-3-Copy-79"></path>
    <path d="M579,392 L578,398" id="Path-3-Copy-71"></path>
    <path d="M597,418.020675 L593,417.979325" id="Path-3-Copy-72"></path>
    <path d="M691.5,213 C697.29899,213 702,211.209139 702,209 C702,206.790861 697.29899,205 691.5,205 C685.70101,205 681,206.790861 681,209 C681,210.05246 682.06698,211.009984 683.811343,211.724155" id="Oval-Copy-3" transform="translate(691.500000, 209.000000) scale(1, -1) rotate(24.000000) translate(-691.500000, -209.000000) "></path>
    <path d="M703,215 C703,214.390542 703,213.36406 703,211.920552 C703,209.755291 698.29899,208 692.5,208 C686.70101,208 682,209.755291 682,211.920552 C682,212.608256 682,213.634739 682,215" id="Oval-Copy-13" transform="translate(692.500000, 211.500000) scale(1, -1) rotate(24.000000) translate(-692.500000, -211.500000) "></path>
    <path d="M855,201 C856.656854,201 858,199.656854 858,198 C858,196.343146 856.656854,195 855,195 C853.343146,195 852,196.343146 852,198 C852,198.789345 852.304851,199.507488 852.803241,200.043116" id="Oval-Copy-3" transform="translate(855.000000, 198.000000) rotate(-166.000000) translate(-855.000000, -198.000000) "></path>
    <path d="M845,204 C846.656854,204 848,202.656854 848,201 C848,199.343146 846.656854,198 845,198 C843.343146,198 842,199.343146 842,201 C842,201.789345 842.304851,202.507488 842.803241,203.043116" id="Oval-Copy-10" transform="translate(845.000000, 201.000000) rotate(-166.000000) translate(-845.000000, -201.000000) "></path>
    <path d="M834,207 C835.656854,207 837,205.656854 837,204 C837,202.343146 835.656854,201 834,201 C832.343146,201 831,202.343146 831,204 C831,204.789345 831.304851,205.507488 831.803241,206.043116" id="Oval-Copy-11" transform="translate(834.000000, 204.000000) rotate(-166.000000) translate(-834.000000, -204.000000) "></path>
    <path d="M823,210 C824.656854,210 826,208.656854 826,207 C826,205.343146 824.656854,204 823,204 C821.343146,204 820,205.343146 820,207 C820,207.789345 820.304851,208.507488 820.803241,209.043116" id="Oval-Copy-19" transform="translate(823.000000, 207.000000) rotate(-166.000000) translate(-823.000000, -207.000000) "></path>
    <path d="M813,213 C814.656854,213 816,211.656854 816,210 C816,208.343146 814.656854,207 813,207 C811.343146,207 810,208.343146 810,210 C810,210.789345 810.304851,211.507488 810.803241,212.043116" id="Oval-Copy-18" transform="translate(813.000000, 210.000000) rotate(-166.000000) translate(-813.000000, -210.000000) "></path>
    <path d="M802,216 C803.656854,216 805,214.656854 805,213 C805,211.343146 803.656854,210 802,210 C800.343146,210 799,211.343146 799,213 C799,213.789345 799.304851,214.507488 799.803241,215.043116" id="Oval-Copy-14" transform="translate(802.000000, 213.000000) rotate(-166.000000) translate(-802.000000, -213.000000) "></path>
    <path d="M794,211.683415 L879.819162,173.429272 L901.766512,173.429272 L912.39978,172.041192 C914.630066,171.750047 916.674089,173.322033 916.965234,175.552319 C917.01529,175.935769 917.010477,176.324395 916.950941,176.706488 L916.635697,178.729663 C916.302488,180.868135 915.117057,182.780357 913.349945,184.02992 L893.911511,197.775258 L843.171806,220" id="Path-3-Copy-80" transform="translate(855.500000, 196.000000) rotate(5.000000) translate(-855.500000, -196.000000) "></path>
    <path d="M896,176 L892.403079,183.427126 L886.766124,188 C883.482009,185.952889 881.895093,184.884135 882.005374,184.793737 C882.115656,184.703339 883.7291,183.412217 886.845706,180.920373 L887.9449,176" id="Path-5-Copy" transform="translate(889.000000, 182.000000) rotate(5.000000) translate(-889.000000, -182.000000) "></path>
    <path d="M839,211 L810.569136,262.138627 C792.744895,272.802998 783.888867,278.089739 784.001053,277.998848 C784.113238,277.907957 790.497704,259.039086 803.154453,221.392233" id="Path-5-Copy-2" transform="translate(811.500000, 244.500000) rotate(5.000000) translate(-811.500000, -244.500000) "></path>
    <path d="M746,227 C746.110993,226.912623 758.110993,222.245956 782,213" id="Path-5-Copy-6" transform="translate(764.000000, 220.000000) rotate(5.000000) translate(-764.000000, -220.000000) "></path>
    <path d="M770.57408,214 L754,204.991822 C758.973701,203.75399 761.51695,203.091399 761.629747,203.004048 C761.742543,202.916696 771.865961,204.243228 792,206.983643" id="Path-5-Copy-9" transform="translate(773.000000, 208.500000) rotate(5.000000) translate(-773.000000, -208.500000) "></path>
    <path d="M770,228.292884 L773.831255,232 C780.840781,230.666438 784.401226,229.955817 784.512591,229.868138 C784.623955,229.780458 790.453091,227.824412 802,224" id="Path-5-Copy-10" transform="translate(786.000000, 228.000000) rotate(5.000000) translate(-786.000000, -228.000000) "></path>
    <path d="M734,235 C734.110993,234.912623 746.110993,230.245956 770,221" id="Path-5-Copy-7" transform="translate(752.000000, 228.000000) rotate(5.000000) translate(-752.000000, -228.000000) "></path>
    <path d="M748,237 C748.109928,236.903955 754.109928,234.237288 766,229" id="Path-5-Copy-8" transform="translate(757.000000, 233.000000) rotate(5.000000) translate(-757.000000, -233.000000) "></path>
    <path d="M818,159 C818.114707,158.91118 821.44804,157.577846 828,155" id="Path-5-Copy-12" transform="translate(823.000000, 157.000000) rotate(5.000000) translate(-823.000000, -157.000000) "></path>
    <path d="M808,166 C808.109818,165.903291 812.443151,163.903291 821,160" id="Path-5-Copy-13" transform="translate(814.500000, 163.000000) rotate(5.000000) translate(-814.500000, -163.000000) "></path>
    <path d="M846,179.879781 L844.837463,149 C835.78256,152.208705 831.311089,153.76826 831.423049,153.678666 C831.535009,153.589073 826.06066,169.029517 815,200" id="Path-5-Copy-4" transform="translate(830.500000, 174.500000) rotate(5.000000) translate(-830.500000, -174.500000) "></path>
    <path d="M835,213 L809,261" id="Path-5-Copy-3" transform="translate(822.000000, 237.000000) rotate(5.000000) translate(-822.000000, -237.000000) "></path>
    <path id="Path-5-Copy-5" transform="translate(825.500000, 176.500000) rotate(5.000000) translate(-825.500000, -176.500000) " d="M828.050445 163.701103 832 163 825.485658 186.047141 819 190"></path>
    <path d="M734.5,275 C741.955844,275 748,272.761424 748,270 C748,267.238576 741.955844,265 734.5,265 C727.044156,265 721,267.238576 721,270 C721,271.315575 722.371832,272.51248 724.614584,273.405193" id="Oval-Copy-3" transform="translate(734.500000, 270.000000) scale(-1, -1) rotate(-21.000000) translate(-734.500000, -270.000000) "></path>
    <g class="q" transform="translate(728.000000, 267.000000)">
        <ellipse id="Oval-Copy-3" transform="translate(6.000000, 3.500000) rotate(-20.000000) translate(-6.000000, -3.500000) " cx="6" cy="3.5" rx="5" ry="1.5"></ellipse>
        <path d="M8,-1 L8,-1 C9.00084215,-0.341832956 9.61275258,0.767537416 9.63554482,1.96518068 L9.66218421,3.36497626 C9.68191271,4.40163212 10.1747357,5.37231901 11,6" id="Path-9" transform="translate(9.500000, 2.500000) rotate(91.000000) translate(-9.500000, -2.500000) "></path>
    </g>
    <path d="M750,278.95017 C750,279.223987 750,278.369326 750,276.386187 C750,273.411478 743.955844,271 736.5,271 C729.044156,271 723,273.411478 723,276.386187 C723,277.330978 723,278.185639 723,278.95017" id="Oval-Copy-13" transform="translate(736.500000, 275.000000) scale(-1, -1) rotate(-21.000000) translate(-736.500000, -275.000000) "></path>
    <path d="M906.5,146 C913.955844,146 920,143.761424 920,141 C920,138.238576 913.955844,136 906.5,136 C899.044156,136 893,138.238576 893,141 C893,142.315575 894.371832,143.51248 896.614584,144.405193" id="Oval-Copy-3" transform="translate(906.500000, 141.000000) scale(-1, -1) rotate(-21.000000) translate(-906.500000, -141.000000) "></path>
    <g class="q" transform="translate(900.000000, 138.000000)">
        <ellipse id="Oval-Copy-3" transform="translate(6.000000, 3.500000) rotate(-20.000000) translate(-6.000000, -3.500000) " cx="6" cy="3.5" rx="5" ry="1.5"></ellipse>
        <path d="M8,-1 L8,-1 C9.00084215,-0.341832956 9.61275258,0.767537416 9.63554482,1.96518068 L9.66218421,3.36497626 C9.68191271,4.40163212 10.1747357,5.37231901 11,6" id="Path-9" transform="translate(9.500000, 2.500000) rotate(91.000000) translate(-9.500000, -2.500000) "></path>
    </g>
    <path d="M922,149.95017 C922,150.223987 922,149.369326 922,147.386187 C922,144.411478 915.955844,142 908.5,142 C901.044156,142 895,144.411478 895,147.386187 C895,148.330978 895,149.185639 895,149.95017" id="Oval-Copy-13" transform="translate(908.500000, 146.000000) scale(-1, -1) rotate(-21.000000) translate(-908.500000, -146.000000) "></path>
    <path d="M379.5,17 C386.955844,17 393,14.7614237 393,12 C393,9.23857625 386.955844,7 379.5,7 C372.044156,7 366,9.23857625 366,12 C366,13.3155751 367.371832,14.5124803 369.614584,15.4051934" id="Oval-Copy-3" transform="translate(379.500000, 12.000000) scale(-1, -1) rotate(20.000000) translate(-379.500000, -12.000000) "></path>
    <g class="q" transform="translate(373.000000, 9.000000)" stroke-width="0.6">
        <ellipse id="Oval-Copy-3" transform="translate(6.000000, 3.500000) rotate(19.000000) translate(-6.000000, -3.500000) " cx="6" cy="3.5" rx="5" ry="1.5"></ellipse>
        <path d="M7.64533697,1.3988233 L7.64533697,1.3988233 C8.64617912,2.05699034 9.25808954,3.16636071 9.28088179,4.36400398 L9.30752117,5.76379956 C9.32724968,6.80045542 9.82007266,7.77114231 10.645337,8.3988233" id="Path-9" transform="translate(9.145337, 4.898823) rotate(130.000000) translate(-9.145337, -4.898823) "></path>
    </g>
    <path d="M391,20.9501701 C391,21.2239875 391,20.3693265 391,18.3861871 C391,15.4114781 384.955844,13 377.5,13 C370.044156,13 364,15.4114781 364,18.3861871 C364,19.3309782 364,20.1856392 364,20.9501701" id="Oval-Copy-13" transform="translate(377.500000, 17.000000) scale(-1, -1) rotate(20.000000) translate(-377.500000, -17.000000) "></path>

</svg>