
<svg width="960px" height="460px" viewBox="0 0 960 460" version="1.1" xmlns="http://www.w3.org/2000/svg" stroke="#000000" stroke-width="1" fill="none" fill-rule="evenodd">
    <path d="M211,450 L425,450" id="Path-3-Copy-75" stroke-width="1.5" stroke-linecap="round" stroke-linejoin="round"></path>
    <path d="M791,450 L935,450" id="Path-3-Copy-76" stroke-width="1.5" stroke-linecap="round" stroke-linejoin="round"></path>
    <path d="M156,450 L125,450" id="Path-3-Copy-87" stroke-width="1.5" stroke-linecap="round" stroke-linejoin="round"></path>
    <path d="M95,450 L9,450" id="Path-3-Copy-89" stroke-width="1.5" stroke-linecap="round" stroke-linejoin="round"></path>
    <path d="M514,57.276869 C520.907315,55.5218396 526.70356,55.880274 531.388734,58.3521722 C532.904819,52.4808791 537.304653,49.187625 544.588235,48.4724099" id="Path-3-Copy-12" stroke-width="1.5" stroke-linecap="round" stroke-linejoin="round" transform="translate(529.294118, 53.412291) scale(-1, 1) translate(-529.294118, -53.412291) "></path>
    <path d="M418.488868,162.417584 C418.483487,162.276407 418.480771,162.134547 418.480771,161.992053 C418.480771,155.929927 423.395096,151.015602 429.457222,151.015602 L447.023549,151.015602 C453.085676,151.015602 458,155.929927 458,161.992053 C458,168.054179 453.085676,172.968504 447.023549,172.968504 L446.771245,172.968504 C446.787083,173.213224 446.795125,173.460069 446.795125,173.708792 C446.795125,179.944754 441.739879,185 435.503917,185 L416.263161,185 C410.027199,185 404.971953,179.944754 404.971953,173.708792 C404.971953,167.47283 410.027199,162.417584 416.263161,162.417584 L418.488868,162.417584 Z" id="Combined-Shape" stroke-width="1.5" stroke-linecap="round" stroke-linejoin="round" transform="translate(431.485977, 168.007801) scale(-1, 1) translate(-431.485977, -168.007801) "></path>
    <path d="M410,162 L410,171.5 C410,176.746705 405.746705,181 400.5,181 L400.197133,181 C395.117697,181 391,176.882303 391,171.802867" id="Rectangle-4-Copy-31" stroke-width="1.5" stroke-linecap="round" stroke-linejoin="round" transform="translate(400.500000, 171.500000) rotate(90.000000) translate(-400.500000, -171.500000) "></path>
    <path d="M489.650339,130.882716 C495.283643,130.882716 499.850339,129.16349 499.850339,127.042716 C499.850339,124.921943 495.283643,123.202716 489.650339,123.202716 C484.017034,123.202716 479.450339,124.921943 479.450339,127.042716 C479.450339,128.053078 480.486834,128.972301 482.181358,129.657905" id="Oval-Copy-3" stroke-width="1.2" stroke-linecap="round" stroke-linejoin="round" transform="translate(489.650339, 127.042716) scale(1, -1) rotate(20.000000) translate(-489.650339, -127.042716) "></path>
    <path d="M501.046704,133.791765 C501.046704,133.188913 501.046704,132.173557 501.046704,130.745697 C501.046704,128.603907 496.480009,126.867642 490.846704,126.867642 C485.2134,126.867642 480.646704,128.603907 480.646704,130.745697 C480.646704,131.425947 480.646704,132.441303 480.646704,133.791765" id="Oval-Copy-13" stroke-width="1.2" stroke-linecap="round" stroke-linejoin="round" transform="translate(490.846704, 130.329704) scale(1, -1) rotate(20.000000) translate(-490.846704, -130.329704) "></path>
    <path d="M145,457 L959,457" id="Path-3-Copy-8" stroke-width="1.5" stroke-linecap="round" stroke-linejoin="round" transform="translate(552.000000, 457.000000) scale(-1, 1) translate(-552.000000, -457.000000) "></path>
    <path d="M2,456.823112 L132,457.176888" id="Path-3-Copy-14" stroke-width="1.5" stroke-linecap="round" stroke-linejoin="round" transform="translate(67.000000, 457.000000) scale(-1, 1) translate(-67.000000, -457.000000) "></path>
    <path d="M715.584448,389.554199 L715.584448,354.573613 L659.658365,354.573613 L659.658365,422.899597 L612.045393,422.899597 L612.045393,208 C612.045393,206.895431 612.940823,206 614.045393,206 L764.562057,206 C765.666627,206 766.562057,206.895431 766.562057,208 L766.562057,422.899597 L736.041257,422.899597" id="Combined-Shape" stroke-width="1.5" stroke-linecap="round" stroke-linejoin="round" transform="translate(689.303725, 314.449798) scale(-1, 1) translate(-689.303725, -314.449798) "></path>
    <rect id="Rectangle-4-Copy-5" stroke-width="1.5" transform="translate(646.565073, 301.304368) scale(-1, 1) translate(-646.565073, -301.304368) " x="634.164719" y="280.693044" width="24.8007088" height="41.2226478" rx="1"></rect>
    <rect id="Rectangle-4" stroke-width="1.5" transform="translate(646.565073, 247.079469) scale(-1, 1) translate(-646.565073, -247.079469) " x="634.164719" y="226.468145" width="24.8007088" height="41.2226478" rx="1"></rect>
    <rect id="Rectangle-4-Copy" stroke-width="1.5" transform="translate(689.303725, 247.079469) scale(-1, 1) translate(-689.303725, -247.079469) " x="676.903371" y="226.468145" width="24.8007088" height="41.2226478" rx="1"></rect>
    <rect id="Rectangle-4-Copy-2" stroke-width="1.5" transform="translate(732.042377, 247.079469) scale(-1, 1) translate(-732.042377, -247.079469) " x="719.642022" y="226.468145" width="24.8007088" height="41.2226478" rx="1"></rect>
    <rect id="Rectangle-4-Copy-4" stroke-width="1.5" transform="translate(689.303725, 301.304368) scale(-1, 1) translate(-689.303725, -301.304368) " x="676.903371" y="280.693044" width="24.8007088" height="41.2226478" rx="1"></rect>
    <rect id="Rectangle-4-Copy-3" stroke-width="1.5" transform="translate(732.042377, 301.304368) scale(-1, 1) translate(-732.042377, -301.304368) " x="719.642022" y="280.693044" width="24.8007088" height="41.2226478" rx="1"></rect>
    <rect id="Rectangle-5" stroke-width="1.5" stroke-linecap="round" stroke-linejoin="round" transform="translate(689.303725, 432.758669) scale(-1, 1) translate(-689.303725, -432.758669) " x="603.826421" y="429.472312" width="170.954607" height="6.57271505"></rect>
    <path id="Rectangle-5-Copy-4" stroke-width="1.5" stroke-linecap="round" stroke-linejoin="round" transform="translate(517.000000, 444.285000) scale(-1, 1) translate(-517.000000, -444.285000) " d="M447 441 587 441 587 447.57 479.058195 447.57"></path>
    <path d="M436.722733,442.430402 C443.382585,442.113586 446.975902,439.879991 446.768424,434.489998 C446.555889,428.968635 443.702627,424.122376 438.208637,419.95122 L442.391528,410.866839 L438.0389,413.102491 C437.288046,413.488154 436.389793,413.451014 435.673339,413.004682 L435.133513,412.668384 C434.354505,412.183082 433.366934,412.184557 432.589379,412.672183 L430.419306,414.033095 C429.715304,414.474594 428.833012,414.5205 428.086992,414.154447 L423.333375,411.821969 L426.156411,419.381645 C422.58691,428.374708 421.484906,434.321264 422.850398,437.221315" id="Path-6" stroke-width="1.2" stroke-linecap="round" stroke-linejoin="round" transform="translate(434.530296, 426.648620) scale(-1, 1) rotate(15.000000) translate(-434.530296, -426.648620) "></path>
    <g class="q"  transform="translate(431.000000, 425.000000)" stroke-linecap="round" stroke-linejoin="round">
        <circle id="Oval-Copy-3" transform="translate(6.149919, 5.792876) rotate(25.000000) translate(-6.149919, -5.792876) " cx="6.14991908" cy="5.79287628" r="3.92269737"></circle>
        <path d="M6.47454851,5.41388048 L6.80119658,5.72082352 C7.72772473,6.59145887 7.78290713,8.04493329 6.92505983,8.98331399 L6.78122202,9.14065507 C5.98799992,10.0083436 5.99212531,11.339156 6.79071163,12.2019102" id="Path-9" transform="translate(6.861490, 8.807895) rotate(135.000000) translate(-6.861490, -8.807895) "></path>
    </g>
    <path d="M431.741478,419.389896 C435.046796,421.58779 438.038146,422.11088 440.715528,420.959166" id="Path-7" stroke-width="1.2" stroke-linecap="round" stroke-linejoin="round" transform="translate(436.228503, 420.471531) scale(-1, 1) rotate(15.000000) translate(-436.228503, -420.471531) "></path>
    <path d="M426.943897,411.185802 C426.678921,408.76278 428.166279,407.931624 431.405971,408.692335 C436.265509,409.833401 437.204233,405.522483 441.272898,407.815116" id="Path-7-Copy" stroke-width="1.2" stroke-linecap="round" stroke-linejoin="round" transform="translate(434.093372, 409.159042) scale(-1, 1) rotate(15.000000) translate(-434.093372, -409.159042) "></path>
    <path id="Rectangle-5-Copy" stroke-width="1.5" stroke-linecap="round" stroke-linejoin="round" transform="translate(689.303725, 444.259563) scale(-1, 1) translate(-689.303725, -444.259563) " d="M777.15572 440.974563 783 440.974563 783 447.544563 595.60745 447.544563 595.60745 440.974563 770.804558 440.974563"></path>
    <path d="M691.67014,421.457341 L691.67014,362.996101" id="Path-3" stroke-width="1.5" stroke-linecap="round" stroke-linejoin="round" transform="translate(691.670140, 392.226721) scale(-1, 1) translate(-691.670140, -392.226721) "></path>
    <path d="M653.14025,262.130773 L653.14025,227.361324" id="Path-3-Copy" stroke-width="1.5" stroke-linecap="round" stroke-linejoin="round" transform="translate(653.140250, 244.746048) scale(-1, 1) translate(-653.140250, -244.746048) "></path>
    <path d="M653.14025,316.355672 L653.14025,281.586223" id="Path-3-Copy-2" stroke-width="1.5" stroke-linecap="round" stroke-linejoin="round" transform="translate(653.140250, 298.970948) scale(-1, 1) translate(-653.140250, -298.970948) "></path>
    <path d="M695.878902,262.130773 L695.878902,227.361324" id="Path-3-Copy-4" stroke-width="1.5" stroke-linecap="round" stroke-linejoin="round" transform="translate(695.878902, 244.746048) scale(-1, 1) translate(-695.878902, -244.746048) "></path>
    <path d="M695.878902,316.355672 L695.878902,281.586223" id="Path-3-Copy-3" stroke-width="1.5" stroke-linecap="round" stroke-linejoin="round" transform="translate(695.878902, 298.970948) scale(-1, 1) translate(-695.878902, -298.970948) "></path>
    <path d="M738.878902,262.130773 L738.878902,227.361324" id="Path-3-Copy-6" stroke-width="1.5" stroke-linecap="round" stroke-linejoin="round" transform="translate(738.878902, 244.746048) scale(-1, 1) translate(-738.878902, -244.746048) "></path>
    <path d="M738.878902,316.355672 L738.878902,281.586223" id="Path-3-Copy-5" stroke-width="1.5" stroke-linecap="round" stroke-linejoin="round" transform="translate(738.878902, 298.970948) scale(-1, 1) translate(-738.878902, -298.970948) "></path>
    <path id="Rectangle-4-Copy-21" stroke-width="1.5" stroke-linecap="round" stroke-linejoin="round" transform="translate(685.000000, 97.728678) scale(-1, 1) translate(-685.000000, -97.728678) " d="M723 193.457356 723 2 647 2 647 97.7286782"></path>
    <path id="Rectangle-4-Copy-24" stroke-width="1.5" stroke-linecap="round" stroke-linejoin="round" transform="translate(723.000000, 150.228678) scale(-1, 1) translate(-723.000000, -150.228678) " d="M741 150.228678 741 107 705 107 705 193.457356"></path>
    <path d="M730.301599,126.154241 C732.850502,126.154241 734.916797,124.090525 734.916797,121.544803 C734.916797,118.99908 732.850502,116.935364 730.301599,116.935364 C727.752695,116.935364 725.6864,118.99908 725.6864,121.544803 C725.6864,122.757615 726.155383,123.861028 726.922105,124.684009" id="Oval-Copy-3" stroke-width="1.5" stroke-linecap="round" stroke-linejoin="round" transform="translate(730.301599, 121.544803) scale(-1, 1) rotate(-50.000000) translate(-730.301599, -121.544803) "></path>
    <path d="M730.301599,143.154241 C732.850502,143.154241 734.916797,141.090525 734.916797,138.544803 C734.916797,135.99908 732.850502,133.935364 730.301599,133.935364 C727.752695,133.935364 725.6864,135.99908 725.6864,138.544803 C725.6864,139.757615 726.155383,140.861028 726.922105,141.684009" id="Oval-Copy-5" stroke-width="1.5" stroke-linecap="round" stroke-linejoin="round" transform="translate(730.301599, 138.544803) scale(-1, 1) rotate(-50.000000) translate(-730.301599, -138.544803) "></path>
    <path id="Rectangle-4-Copy-25" stroke-width="1.5" stroke-linecap="round" stroke-linejoin="round" transform="translate(664.390625, 132.181197) scale(-1, 1) translate(-664.390625, -132.181197) " d="M658.59375 140.325068 658.59375 117.350427 670.1875 117.350427 670.1875 147.011966 658.59375 147.011966"></path>
    <path id="Rectangle-4-Copy-28" stroke-width="1.5" stroke-linecap="round" stroke-linejoin="round" transform="translate(664.390625, 43.196581) scale(-1, 1) translate(-664.390625, -43.196581) " d="M658.59375 51.3404528 658.59375 28.365812 670.1875 28.365812 670.1875 58.0273504 658.59375 58.0273504"></path>
    <path id="Rectangle-4-Copy-27" stroke-width="1.5" stroke-linecap="round" stroke-linejoin="round" transform="translate(664.390625, 87.688889) scale(-1, 1) translate(-664.390625, -87.688889) " d="M658.59375 79.4576774 658.59375 72.8581197 670.1875 72.8581197 670.1875 102.519658 658.59375 102.519658 658.59375 84.3803947"></path>
    <path id="Rectangle-4-Copy-26" stroke-width="1.5" stroke-linecap="round" stroke-linejoin="round" transform="translate(664.390625, 172.784620) scale(-1, 1) translate(-664.390625, -172.784620) " d="M658.59375 175.487188 658.59375 161.842735 670.1875 161.842735 670.1875 183.726505"></path>
    <path id="Rectangle-4-Copy-21" stroke-width="1.5" stroke-linecap="round" stroke-linejoin="round" transform="translate(571.134670, 205.574388) scale(-1, 1) translate(-571.134670, -205.574388) " d="M624 301.148775 624 110 518.269341 110 518.269341 188.957993"></path>
    <path d="M599.63467,146.513141 C604.528196,146.513141 608.495182,142.551106 608.495182,137.663689 C608.495182,132.776271 604.528196,128.814236 599.63467,128.814236 C594.741145,128.814236 590.774159,132.776271 590.774159,137.663689 C590.774159,139.992112 591.674539,142.110504 593.146534,143.690508" id="Oval-Copy-3" stroke-width="1.5" stroke-linecap="round" stroke-linejoin="round" transform="translate(599.634670, 137.663689) scale(-1, 1) rotate(-150.000000) translate(-599.634670, -137.663689) "></path>
    <path d="M570.63467,146.513141 C575.528196,146.513141 579.495182,142.551106 579.495182,137.663689 C579.495182,132.776271 575.528196,128.814236 570.63467,128.814236 C565.741145,128.814236 561.774159,132.776271 561.774159,137.663689 C561.774159,139.992112 562.674539,142.110504 564.146534,143.690508" id="Oval-Copy-10" stroke-width="1.5" stroke-linecap="round" stroke-linejoin="round" transform="translate(570.634670, 137.663689) scale(-1, 1) rotate(-150.000000) translate(-570.634670, -137.663689) "></path>
    <path d="M542.63467,146.513141 C547.528196,146.513141 551.495182,142.551106 551.495182,137.663689 C551.495182,132.776271 547.528196,128.814236 542.63467,128.814236 C537.741145,128.814236 533.774159,132.776271 533.774159,137.663689 C533.774159,139.992112 534.674539,142.110504 536.146534,143.690508" id="Oval-Copy-11" stroke-width="1.5" stroke-linecap="round" stroke-linejoin="round" transform="translate(542.634670, 137.663689) scale(-1, 1) rotate(-150.000000) translate(-542.634670, -137.663689) "></path>
    <path id="Rectangle-4-Copy-25" stroke-width="1.5" stroke-linecap="round" stroke-linejoin="round" transform="translate(535.615777, 239.971377) scale(-1, 1) translate(-535.615777, -239.971377) " d="M529.833632 248.102123 529.833632 225.164512 541.397923 225.164512 541.397923 254.778243 529.833632 254.778243"></path>
    <path id="Rectangle-4-Copy-27" stroke-width="1.5" stroke-linecap="round" stroke-linejoin="round" transform="translate(535.615777, 195.550780) scale(-1, 1) translate(-535.615777, -195.550780) " d="M529.833632 187.332835 529.833632 180.743914 541.397923 180.743914 541.397923 210.357646 529.833632 210.357646 529.833632 192.247618"></path>
    <path id="Rectangle-4-Copy-26" stroke-width="1.5" stroke-linecap="round" stroke-linejoin="round" transform="translate(535.615777, 280.509358) scale(-1, 1) translate(-535.615777, -280.509358) " d="M529.833632 283.207571 529.833632 269.585109 541.397923 269.585109 541.397923 291.433607"></path>
    <path id="Rectangle-4-Copy-21" stroke-width="1.5" stroke-linecap="round" stroke-linejoin="round" transform="translate(529.134670, 376.390292) scale(-1, 1) translate(-529.134670, -376.390292) " d="M593 440.780583 593 312 465.269341 312"></path>
    <path id="Rectangle-4-Copy-25" stroke-width="1.5" stroke-linecap="round" stroke-linejoin="round" transform="translate(512.217855, 393.806866) scale(-1, 1) translate(-512.217855, -393.806866) " d="M506.435709 401.937612 506.435709 379 518 379 518 408.613732 506.435709 408.613732"></path>
    <path id="Rectangle-4-Copy-27" stroke-width="1.5" stroke-linecap="round" stroke-linejoin="round" transform="translate(482.217855, 393.806866) scale(-1, 1) translate(-482.217855, -393.806866) " d="M476.435709 385.588921 476.435709 379 488 379 488 408.613732 476.435709 408.613732 476.435709 390.503704"></path>
    <path id="Rectangle-4-Copy-26" stroke-width="1.5" stroke-linecap="round" stroke-linejoin="round" transform="translate(542.217855, 389.924249) scale(-1, 1) translate(-542.217855, -389.924249) " d="M536.435709 392.622462 536.435709 379 548 379 548 400.848498"></path>
    <rect id="Rectangle-4" stroke-width="1.5" transform="translate(566.117188, 342.850000) scale(-1, 1) translate(-566.117188, -342.850000) " x="541.984375" y="323.75" width="48.265625" height="38.2000008" rx="1"></rect>
    <path d="M584.085938,355.450764 L584.085938,325" id="Path-3-Copy" stroke-width="1.5" stroke-linecap="round" stroke-linejoin="round" transform="translate(584.085938, 340.225382) scale(-1, 1) translate(-584.085938, -340.225382) "></path>
    <rect id="Rectangle-4-Copy-22" stroke-width="1.5" transform="translate(501.117187, 342.850000) scale(-1, 1) translate(-501.117187, -342.850000) " x="476.984375" y="323.75" width="48.265625" height="38.2000008" rx="1"></rect>
    <path d="M518.085938,355.450764 L518.085938,325" id="Path-3-Copy-13" stroke-width="1.5" stroke-linecap="round" stroke-linejoin="round" transform="translate(518.085938, 340.225382) scale(-1, 1) translate(-518.085938, -340.225382) "></path>
    <path d="M503.414579,247.027243 C477.344829,229.336225 445.879492,219 412,219 C321.977586,219 249,291.977586 249,382 C249,400.954178 252.235177,419.152739 258.183461,436.073614" id="Oval-Copy-12" stroke-width="1.5" stroke-linecap="round" stroke-linejoin="round"></path>
    <path d="M226.344261,294.954767 C213.93512,321.375994 207,350.878105 207,382" id="Oval-Copy-15" stroke-width="1.5" stroke-linecap="round" stroke-linejoin="round"></path>
    <path d="M380.880401,179.346825 C322.050654,188.306101 271.440767,222.270748 240.23376,270.057747" id="Oval-Copy-16" stroke-width="1.5" stroke-linecap="round" stroke-linejoin="round"></path>
    <path d="M503.227498,198.366944 C491.455988,192.507656 479.041504,187.746933 466.118246,184.218975" id="Oval-Copy-17" stroke-width="1.5" stroke-linecap="round" stroke-linejoin="round"></path>
    <path d="M411.5,258 C343.292833,258 288,313.292833 288,381.5 C288,401.145265 292.586956,419.719188 300.748289,436.209191" id="Oval-Copy-3" stroke-width="1.5" stroke-linecap="round" stroke-linejoin="round"></path>
    <path d="M503.085844,298.647605 C483.246545,276.730574 455.649916,261.967281 424.627709,258.689477" id="Oval-Copy-4" stroke-width="1.5" stroke-linecap="round" stroke-linejoin="round"></path>
    <path d="M603.990512,77.1752152 C611.378852,77.1752152 617.368285,74.9106233 617.368285,72.1171076 C617.368285,69.3235919 611.378852,67.059 603.990512,67.059 C596.602171,67.059 590.612738,69.3235919 590.612738,72.1171076 C590.612738,73.4479716 591.972149,74.6587867 594.194597,75.5618745" id="Oval-Copy-3" stroke-width="1.2" stroke-linecap="round" stroke-linejoin="round" transform="translate(603.990512, 72.117108) scale(-1, -1) rotate(11.000000) translate(-603.990512, -72.117108) "></path>
    <g class="q" transform="translate(598.000000, 69.000000)" stroke-linecap="round" stroke-linejoin="round" stroke-width="0.8">
        <ellipse id="Oval-Copy-3" transform="translate(5.548253, 3.006099) rotate(9.000000) translate(-5.548253, -3.006099) " cx="5.54825278" cy="3.00609886" rx="5.16554186" ry="1.54966256"></ellipse>
        <path d="M7.72141133,0.139083322 L7.72141133,0.139083322 C8.7127293,0.82695399 9.31301088,1.94937328 9.33476934,3.15577452 L9.36338023,4.7421102 C9.38227755,5.78987531 9.86581667,6.77505831 10.6831014,7.43096573" id="Path-9" transform="translate(9.202256, 3.785025) rotate(120.000000) translate(-9.202256, -3.785025) "></path>
    </g>
    <path d="M616.524447,80.3181262 C616.524447,80.5856825 616.524447,79.7505638 616.524447,77.8127701 C616.524447,74.9060796 610.535014,72.5497413 603.146673,72.5497413 C595.758333,72.5497413 589.7689,74.9060796 589.7689,77.8127701 C589.7689,78.7359581 589.7689,79.5710767 589.7689,80.3181262" id="Oval-Copy-13" stroke-width="1.2" stroke-linecap="round" stroke-linejoin="round" transform="translate(603.146673, 76.458279) scale(-1, -1) rotate(11.000000) translate(-603.146673, -76.458279) "></path>
    <path d="M650.800939,404.73359 C648.223041,409.133886 647.000164,413.195071 647.132309,416.917144 C647.264454,420.639217 649.594907,422.65604 654.123666,422.967611 C664.232415,422.904493 668.803048,420.384736 667.835565,415.40834 C666.868082,410.431943 664.291251,406.873693 660.105073,404.73359 L663.460184,397.468987 L660.205599,399.135599 C659.45624,399.519332 658.560606,399.482357 657.845426,399.038165 L657.807598,399.01467 C657.078963,398.562121 656.156342,398.563497 655.42906,399.018217 L654.078876,399.862397 C653.376124,400.30178 652.496402,400.34748 651.751905,399.983278 L648.173575,398.232786 L650.800939,404.73359 Z" id="Path-6" stroke-width="1.2" stroke-linecap="round" stroke-linejoin="round" transform="translate(657.542485, 410.218299) scale(-1, 1) rotate(2.000000) translate(-657.542485, -410.218299) "></path>
    <g class="q"  transform="translate(651.000000, 410.000000)" stroke-linecap="round" stroke-linejoin="round">
        <ellipse id="Oval-Copy-3" transform="translate(4.724808, 4.787741) rotate(12.000000) translate(-4.724808, -4.787741) " cx="4.72480758" cy="4.78774121" rx="3.92269737" ry="3.90868773"></ellipse>
        <path d="M5.71123692,4.17502823 L6.0383382,4.48129939 C6.96366157,5.34769727 7.0187125,6.79764691 6.16174824,7.73171376 L6.01794146,7.88845908 C5.22545249,8.75224969 5.22956946,10.0799556 6.02740004,10.9388149" id="Path-9" transform="translate(6.098179, 7.556922) rotate(122.000000) translate(-6.098179, -7.556922) "></path>
    </g>
    <path d="M673.175203,397.098471 C671.502832,398.105154 669.942287,398.343253 668.493567,397.812769 C667.044848,397.282285 665.942887,398.096655 665.187687,400.25588 L668.983898,406.333314 C667.014467,409.223162 665.733241,412.994618 665.14022,417.647681 C664.547199,422.300744 667.58278,424.211235 674.246962,423.379154" id="Path-6-Copy" stroke-width="1.2" stroke-linecap="round" stroke-linejoin="round" transform="translate(669.657247, 410.333481) scale(-1, 1) rotate(-8.000000) translate(-669.657247, -410.333481) "></path>
    <path d="M656.768764,404.703073 C659.41997,406.460686 661.819342,406.878991 663.966879,405.957988" id="Path-7" stroke-width="1.2" stroke-linecap="round" stroke-linejoin="round" transform="translate(660.367821, 405.568036) scale(-1, 1) rotate(2.000000) translate(-660.367821, -405.568036) "></path>
    <path d="M667.619421,406.484266 C668.489546,407.009673 669.55253,407.063952 670.808373,406.647103" id="Path-7-Copy-3" stroke-width="1.2" stroke-linecap="round" stroke-linejoin="round" transform="translate(669.213897, 407.037838) scale(-1, 1) rotate(2.000000) translate(-669.213897, -407.037838) "></path>
    <path d="M665.818784,401.25932 C666.336188,401.597525 667.533611,401.76369 669.411053,401.757816 L669.411053,401.757815 C669.61226,401.757185 669.812747,401.78186 670.007796,401.83126 L671.262154,402.148945 C672.017462,402.340239 672.818628,402.152966 673.410877,401.646681 L675.310261,400.022988" id="Path-7-Copy-2" stroke-width="1.2" stroke-linecap="round" stroke-linejoin="round" transform="translate(670.564522, 401.109473) scale(-1, 1) rotate(2.000000) translate(-670.564522, -401.109473) "></path>
    <path d="M655.006629,397.990117 C654.794091,396.052474 655.987106,395.387815 658.585674,395.99614 C662.483526,396.908628 663.23648,393.461271 666.499969,395.294645" id="Path-7-Copy" stroke-width="1.2" stroke-linecap="round" stroke-linejoin="round" transform="translate(660.741247, 396.369357) scale(-1, 1) rotate(2.000000) translate(-660.741247, -396.369357) "></path>
    <path d="M102.084569,398.060403 L134.414534,398.060403 C134.966819,398.060403 135.414534,398.508118 135.414534,399.060403 L135.414534,440.089262 C135.414534,440.641547 134.966819,441.089262 134.414534,441.089262 L120.115924,441.089262 L120.115924,441.089262 C120.115924,436.194562 116.147985,432.226623 111.253284,432.226623 L105.962084,432.226623 C101.043407,432.226623 97.0336125,436.171246 96.9530184,441.089262 L93.3288591,441.089262 C92.7765743,441.089262 92.3288591,440.641547 92.3288591,440.089262 L92.3288591,418.595315 L101.170404,398.65506 C101.330718,398.293504 101.689064,398.060403 102.084569,398.060403 Z" id="Rectangle-4-Copy-22" stroke-width="1.5" stroke-linecap="round" stroke-linejoin="round"></path>
    <path d="M104.128695,418.155287 L101.374218,410.608356" id="Path-3-Copy-13" stroke-width="1.5" stroke-linecap="round" stroke-linejoin="round"></path>
    <path id="Path-3-Copy-84" stroke-width="1.5" stroke-linecap="round" stroke-linejoin="round" d="M90.2401024 434.326845 88.6871653 434.326845 88.6871653 443.926391 96.9552664 443.941228 96.9552664 441.306303"></path>
    <path d="M114.313776,415.508406 L117.776863,398.379056" id="Path-3-Copy-81" stroke-width="1.5" stroke-linecap="round" stroke-linejoin="round"></path>
    <path d="M196.287085,403.222394 L216.810204,403.222394" id="Path-3-Copy-85" stroke-width="1.5" stroke-linecap="round" stroke-linejoin="round"></path>
    <path d="M158.836816,411.375839 L205.489562,411.375839" id="Path-3-Copy-86" stroke-width="1.5" stroke-linecap="round" stroke-linejoin="round"></path>
    <path d="M114.313776,432.823843 L114.313776,418.66697" id="Path-3-Copy-83" stroke-width="1.5" stroke-linecap="round" stroke-linejoin="round"></path>
    <path d="M135.148609,418.611976 L92.674659,418.611976" id="Path-3-Copy-82" stroke-width="1.5" stroke-linecap="round" stroke-linejoin="round"></path>
    <path d="M108.418151,452.184421 C113.175073,452.184421 117.03132,448.332986 117.03132,443.582001 C117.03132,438.831017 113.175073,434.979582 108.418151,434.979582 C103.661229,434.979582 99.8049818,438.831017 99.8049818,443.582001 C99.8049818,445.845427 100.680228,447.904683 102.111132,449.440582" id="Oval-Copy-10" stroke-width="1.5" stroke-linecap="round" stroke-linejoin="round" transform="translate(108.418151, 443.582001) rotate(-150.000000) translate(-108.418151, -443.582001) "></path>
    <path d="M197.592648,452.184421 C202.34957,452.184421 206.205817,448.332986 206.205817,443.582001 C206.205817,438.831017 202.34957,434.979582 197.592648,434.979582 C192.835726,434.979582 188.979478,438.831017 188.979478,443.582001 C188.979478,445.845427 189.854724,447.904683 191.285629,449.440582" id="Oval-Copy-27" stroke-width="1.5" stroke-linecap="round" stroke-linejoin="round" transform="translate(197.592648, 443.582001) rotate(-220.000000) translate(-197.592648, -443.582001) "></path>
    <path d="M175.082581,452.184421 C179.839503,452.184421 183.69575,448.332986 183.69575,443.582001 C183.69575,438.831017 179.839503,434.979582 175.082581,434.979582 C170.325659,434.979582 166.469411,438.831017 166.469411,443.582001 C166.469411,445.845427 167.344657,447.904683 168.775561,449.440582" id="Oval-Copy-28" stroke-width="1.5" stroke-linecap="round" stroke-linejoin="round" transform="translate(175.082581, 443.582001) rotate(10.000000) translate(-175.082581, -443.582001) "></path>
    <path d="M138.214765,425.788593 L138.214765,393.703464 C138.214765,393.151179 138.66248,392.703464 139.214765,392.703464 L215.797085,392.703464 C216.349369,392.703464 216.797085,393.151179 216.797085,393.703464 L216.797085,440.089262 C216.797085,440.641547 216.349369,441.089262 215.797085,441.089262 L210.222177,441.089262 L210.222177,441.089262 C210.222177,435.307498 205.535131,430.620451 199.753366,430.620451 L173.378976,430.620451 C167.597211,430.620451 162.910165,435.307498 162.910165,441.089262 L139.214765,441.089262 C138.66248,441.089262 138.214765,440.641547 138.214765,440.089262 L138.214765,430.002787" id="Rectangle-4-Copy-23" stroke-width="1.5" stroke-linecap="round" stroke-linejoin="round"></path>
    <g class="q"  transform="translate(143.000000, 398.000000)" stroke-linecap="round" stroke-linejoin="round">
        <circle id="Oval-Copy-3" cx="3.92269737" cy="3.92269737" r="3.92269737"></circle>
        <path d="M5.45486023,2.96049483 L5.7815083,3.26743786 C6.70803646,4.13807322 6.76321886,5.59154764 5.90537155,6.52992834 L5.76153375,6.68726941 C4.96831164,7.55495799 4.97243704,8.88577038 5.77102335,9.7485245" id="Path-9" transform="translate(5.841802, 6.354510) rotate(110.000000) translate(-5.841802, -6.354510) "></path>
    </g>

</svg>