<?xml version="1.0" encoding="UTF-8"?>
<svg width="51px" height="22px" viewBox="0 0 51 22" version="1.1" xmlns="http://www.w3.org/2000/svg" xmlns:xlink="http://www.w3.org/1999/xlink">
    <!-- Generator: Sketch 49.2 (51160) - http://www.bohemiancoding.com/sketch -->
    <title>download (2)</title>
    <desc>Created with Sketch.</desc>
    <defs></defs>
    <g id="Dashboard" stroke="none" stroke-width="1" fill="none" fill-rule="evenodd">
        <g id="Dashboard_mob_02" transform="translate(-35.000000, -403.000000)">
            <g id="Group-5-Copy" transform="translate(15.000000, 376.000000)">
                <g id="download-(2)" transform="translate(45.000000, 38.000000) scale(-1, -1) rotate(-90.000000) translate(-45.000000, -38.000000) translate(34.000000, 13.000000)">
                    <path d="M19.548,34.941 C20.934,33.752 20.712,29.68 20.535,26.409 C20.487,25.539 20.442,24.701 20.426,23.942 C20.3368978,23.3607379 19.8340532,22.9333752 19.2460299,22.9391549 C18.6580067,22.9449346 18.1636596,23.3820988 18.086,23.965 L18.086,25.887 C18.086,26.2183708 17.8173708,26.487 17.486,26.487 C17.3268701,26.487 17.1742578,26.4237859 17.0617359,26.3112641 C16.9492141,26.1987422 16.886,26.0461299 16.886,25.887 L16.886,24.997 L16.824,22.663 C16.7074487,22.0394309 16.1294364,21.6114837 15.499,21.682 C14.781,21.682 14.174,22.141 14.174,22.682 L14.174,25.159 C14.1538416,25.4903708 13.8688708,25.7426584 13.5375,25.7225 C13.2061292,25.7023416 12.9538416,25.4173708 12.974,25.086 L12.952,21.866 C12.8880795,21.1914468 12.3036327,20.6872788 11.627,20.723 C11.0280999,20.7000829 10.4911493,21.0895786 10.327,21.666 L10.34,24.455 L10.3,24.934 C10.2924292,25.0903745 10.2215319,25.2369305 10.1036285,25.3399309 C9.98572505,25.4429313 9.83097438,25.4935014 9.675,25.48 C9.35461207,25.4650324 9.10265057,25.2007372 9.103,24.88 L9.103,21.9 C9.10275483,21.7848334 9.1114476,21.6698214 9.129,21.556 L9.08,11.619 C9.09063015,10.8728419 8.49802903,10.2574827 7.752,10.24 C6.99450176,10.2676886 6.4018237,10.9023815 6.426,11.66 L6.426,22.717 C6.40809277,23.7742614 6.14193595,24.8125127 5.649,25.748 C5.44258267,26.1420983 5.33160329,26.5791652 5.325,27.024 C5.31638614,27.9228334 5.48035155,28.8149682 5.808,29.652 C5.94441431,29.9540998 5.81009973,30.3095856 5.50799999,30.446 C5.20590024,30.5824143 4.85041434,30.4480997 4.714,30.146 C4.31636115,29.1535817 4.11628596,28.0930813 4.125,27.024 C4.13089337,26.3920004 4.28538853,25.7702515 4.576,25.209 C4.78739846,24.7948969 4.9530428,24.3589908 5.07,23.909 L4.548,23.909 C4.38619353,23.9103043 4.22632216,23.9443195 4.078,24.009 C3.38492103,24.3360516 2.81576354,24.8778559 2.455,25.554 C1.45920445,27.4437987 1.37243832,29.6828061 2.219,31.644 C2.899,33.288 5.048,35.244 6.332,36.407 C7.332,37.318 7.544,37.507 7.544,37.879 L7.544,40.101 L17.793,40.101 C17.729,38.89 17.834,36.412 19.548,34.941 Z" id="Shape"></path>
                    <path d="M20.329,35.852 C22.163,34.278 21.934,30.063 21.729,26.345 C21.682,25.488 21.637,24.662 21.621,23.916 C21.5604957,22.6644456 20.5041571,21.6946117 19.252,21.741 C18.7863183,21.7395717 18.3297347,21.8699252 17.935,22.117 C17.568139,21.0987148 16.5812764,20.4376993 15.5,20.486 C14.9476579,20.4822986 14.4069469,20.6446512 13.948,20.952 C13.5202939,20.0640587 12.6133536,19.507776 11.628,19.529 C11.1692596,19.5275277 10.7180708,19.6457536 10.319,19.872 L10.277,11.6 C10.2903014,10.6821171 9.80459375,9.82926937 9.00836664,9.37242335 C8.21213952,8.91557733 7.23074329,8.92665448 6.44503068,9.40135605 C5.65931806,9.87605763 5.19298406,10.7396512 5.227,11.657 L5.227,22.706 L4.527,22.706 C4.194449,22.7091132 3.86617437,22.7813063 3.563,22.918 C2.63795647,23.3537984 1.87804239,24.0761902 1.396,24.978 C0.227457273,27.1852572 0.120478474,29.8027453 1.105,32.098 C1.888,33.991 4.163,36.056 5.521,37.29 C5.834,37.574 6.182,37.89 6.34,38.056 L6.34,40.095 L5.061,40.095 C4.90187011,40.095 4.74925776,40.1582141 4.63673593,40.2707359 C4.5242141,40.3832578 4.461,40.5358701 4.461,40.695 L4.461,48.674 C4.461,49.0053708 4.72962915,49.274 5.061,49.274 C5.39237085,49.274 5.661,49.0053708 5.661,48.674 L5.661,41.294 L20.186,41.294 L20.186,48.674 C20.186,49.0053708 20.4546292,49.274 20.786,49.274 C21.1173708,49.274 21.386,49.0053708 21.386,48.674 L21.386,40.694 C21.386,40.3626292 21.1173708,40.094 20.786,40.094 L19,40.094 C18.941,39.127 18.986,37 20.329,35.852 Z M7.544,40.095 L7.544,37.873 C7.544,37.503 7.336,37.312 6.332,36.401 C5.048,35.235 2.898,33.282 2.219,31.638 C1.37243832,29.6768061 1.45920445,27.4377987 2.455,25.548 C2.8155099,24.8705803 3.38509212,24.3276534 4.079,24 C4.22732216,23.9353195 4.38719353,23.9013043 4.549,23.9 L5.071,23.9 C4.9540428,24.3499908 4.78839846,24.7858969 4.577,25.2 C4.28638853,25.7612515 4.13189337,26.3830004 4.126,27.015 C4.11728596,28.0840813 4.31736115,29.1445817 4.715,30.137 C4.8032446,30.3324243 4.98904359,30.4659258 5.20240827,30.4872159 C5.41577296,30.508506 5.62428819,30.4143501 5.74940827,30.2402159 C5.87452836,30.0660817 5.8972446,29.8384243 5.809,29.643 C5.48135155,28.8059682 5.31738614,27.9138334 5.326,27.015 C5.33260329,26.5701652 5.44358267,26.1330983 5.65,25.739 C6.14293595,24.8035127 6.40909277,23.7652614 6.427,22.708 L6.427,11.66 C6.4028237,10.9023815 6.99550176,10.2676886 7.753,10.24 C8.4974537,10.2590965 9.08810119,10.8733699 9.078,11.618 L9.127,21.555 C9.1094476,21.6688214 9.10075483,21.7838334 9.101,21.899 L9.101,24.886 C9.10065057,25.2067372 9.35261207,25.4710324 9.673,25.486 C9.82897438,25.4995014 9.98372505,25.4489313 10.1016285,25.3459309 C10.2195319,25.2429305 10.2904292,25.0963745 10.298,24.94 L10.338,24.461 L10.325,21.672 C10.4891493,21.0955786 11.0260999,20.7060829 11.625,20.729 C12.3016327,20.6932788 12.8860795,21.1974468 12.95,21.872 L12.972,25.092 C12.9518416,25.4233708 13.2041292,25.7083416 13.5355,25.7285 C13.8668708,25.7486584 14.1518416,25.4963708 14.172,25.165 L14.172,22.688 C14.172,22.145 14.779,21.688 15.497,21.688 C16.1274364,21.6174837 16.7054487,22.0454309 16.822,22.669 L16.883,25 L16.883,25.89 C16.883,26.0491299 16.9462141,26.2017422 17.0587359,26.3142641 C17.1712578,26.4267859 17.3238701,26.49 17.483,26.49 C17.8143708,26.49 18.083,26.2213708 18.083,25.89 L18.083,23.966 C18.1606596,23.3830988 18.6550067,22.9459346 19.2430299,22.9401549 C19.8310532,22.9343752 20.3338978,23.3617379 20.423,23.943 C20.44,24.702 20.485,25.543 20.532,26.41 C20.709,29.681 20.932,33.753 19.545,34.942 C17.83,36.413 17.726,38.891 17.79,40.095 L7.544,40.095 Z" id="Shape" fill="#000000" fill-rule="nonzero"></path>
                    <path d="M1.50434793,12.0340728 L1.50434793,6.5" id="Path-3-Copy-17" stroke="#000000" stroke-width="1.4" stroke-linecap="round"></path>
                    <path d="M4.50434793,6.03407284 L4.50434793,0.5" id="Path-3-Copy-18" stroke="#000000" stroke-width="1.4" stroke-linecap="round"></path>
                    <path d="M13.5043479,16.0340728 L13.5043479,6.45348372" id="Path-3-Copy-19" stroke="#000000" stroke-width="1.4" stroke-linecap="round"></path>
                </g>
            </g>
        </g>
    </g>
</svg>