<?xml version="1.0" encoding="UTF-8"?>
<svg width="271px" height="162px" viewBox="0 0 271 162" version="1.1" xmlns="http://www.w3.org/2000/svg" xmlns:xlink="http://www.w3.org/1999/xlink">
    <!-- Generator: Sketch 50.2 (55047) - http://www.bohemiancoding.com/sketch -->
    <title>Group 3</title>
    <desc>Created with Sketch.</desc>
    <defs></defs>
    <g id="Full-page" stroke="none" stroke-width="1" fill="none" fill-rule="evenodd">
        <g id="Desktop---get-invited-Copy-3" transform="translate(-884.000000, -531.000000)">
            <g id="Group-3" transform="translate(883.000000, 526.000000)">
                <path d="M247,113.734486 L247,152.418896 C247,155.18032 244.761424,157.418896 242,157.418896 C241.911304,157.418896 241.822624,157.416536 241.734053,157.411818 L228.225865,156.692308" id="Rectangle-6" stroke="#000000" stroke-width="1.2" stroke-linecap="round" stroke-linejoin="round"></path>
                <path d="M255,108.734486 L255,146.008697 C255,147.531692 254.305858,148.971653 253.11439,149.920293 L245.227041,156.200154" id="Rectangle-6-Copy-5" stroke="#000000" stroke-width="1.2" stroke-linecap="round" stroke-linejoin="round"></path>
                <path d="M154.316038,152.357644 L27.6706434,144.964948 C25.0424574,144.811532 22.98346,142.64644 22.9621768,140.013866 L22.0426014,26.2694658 C22.0202772,23.5081322 24.2406829,21.2515318 27.0020164,21.2292076 C27.089518,21.2285002 27.177023,21.2300899 27.2644411,21.2339752 L242.222003,30.7876446 C244.894456,30.9064203 247,33.1076224 247,35.7827136 L247,78.6364707" id="Rectangle-6-Copy" stroke="#000000" stroke-width="1.2" stroke-linecap="round" stroke-linejoin="round"></path>
                <path d="M23.5038506,22.2695561 L34.8456214,15.0578827 C35.7120879,14.5069393 36.7271663,14.2361152 37.7529236,14.2822111 L248.269358,23.7424744 C251.475088,23.8865346 254,26.5274603 254,29.7364252 L254,71.6364707" id="Rectangle-6-Copy-4" stroke="#000000" stroke-width="1.2" stroke-linecap="round" stroke-linejoin="round"></path>
                <path d="M249.436255,29.5006826 L252.762195,26.3278684" id="Path-13" stroke="#000000" stroke-width="1.2" stroke-linecap="round" stroke-linejoin="round"></path>
                <g id="Group-8-Copy" transform="translate(261.429445, 16.323777) rotate(62.000000) translate(-261.429445, -16.323777) translate(246.929445, 8.823777)" stroke-linecap="round">
                    <path d="M26.7623186,7.51744678 L28.4313115,3.34496452" id="Path-3-Copy-7" stroke="#000000"></path>
                    <path d="M19.2518505,5.01395743 L19.2518505,0.00697871267" id="Path-3-Copy-15" stroke="#7813FE"></path>
                    <path d="M11.4640473,9.14718977 L8.96055799,5.80920396" id="Path-3-Copy-16" stroke="#000000"></path>
                    <path d="M7.17315749,3.13605539 L6.13517601,1.75112037" id="Path-3-Copy-22" stroke="#000000"></path>
                    <path d="M5.89725755,14.5633375 L0.501346822,11.6678885" id="Path-3-Copy-17" stroke="#F1AE10"></path>
                </g>
                <g id="Group-8-Copy-2" transform="translate(13.137451, 152.825046) scale(-1, -1) rotate(62.000000) translate(-13.137451, -152.825046) translate(2.137451, 148.325046)" stroke-linecap="round">
                    <path d="M19.7623186,7.51744678 L21.4313115,3.34496452" id="Path-3-Copy-7" stroke="#000000"></path>
                    <path d="M12.2518505,5.01395743 L12.2518505,0.00697871267" id="Path-3-Copy-15" stroke="#F1104D"></path>
                    <path d="M5.8164665,8.73371374 L3.31297714,5.39572793" id="Path-3-Copy-16" stroke="#000000"></path>
                    <path d="M1.52557665,2.72257936 L0.487595161,1.33764434" id="Path-3-Copy-22" stroke="#000000"></path>
                </g>
                <polyline id="Star-Copy" stroke="#000000" stroke-linecap="round" stroke-linejoin="round" transform="translate(6.071871, 16.931461) rotate(-20.000000) translate(-6.071871, -16.931461) " points="6.07187115 19.9369176 3.10530789 21.4965322 3.67187106 18.1932154 1.27187096 15.8537935 4.58858952 15.3718461 6.07187115 12.3663893 7.55515279 15.3718461 10.8718713 15.8537935 8.47187125 18.1932154 9.03843442 21.4965322"></polyline>
                <path d="M169.350016,140.37544 L216.350016,143.673685 C218.969169,143.857486 221,146.035826 221,148.661419 L221,160.636826 C221,163.39825 218.761424,165.636826 216,165.636826 C215.88322,165.636826 215.766477,165.632735 215.649984,165.62456 L168.649984,162.326315 C166.030831,162.142514 164,159.964174 164,157.338581 L164,145.363174 C164,142.60175 166.238576,140.363174 169,140.363174 C169.11678,140.363174 169.233523,140.367265 169.350016,140.37544 Z" id="Rectangle-13" stroke="#1BD4A5" stroke-linecap="round" stroke-linejoin="round"></path>
                <path d="M182.527344,153.587891 C182.972658,153.505859 183.362303,153.417969 183.696289,153.324219 C184.030275,153.230468 184.308593,153.116212 184.53125,152.981445 C184.753907,152.846679 184.920898,152.682618 185.032227,152.489258 C185.143555,152.295897 185.199219,152.052736 185.199219,151.759766 C185.199219,151.513671 185.10547,151.291017 184.917969,151.091797 C184.730468,150.892577 184.484377,150.722657 184.179688,150.582031 C183.874998,150.441406 183.523439,150.335938 183.125,150.265625 C182.726561,150.195312 182.310549,150.160156 181.876953,150.160156 L181.560547,150.160156 C181.455078,150.160156 181.343751,150.166016 181.226562,150.177734 C181.296875,150.564455 181.34668,151.003904 181.375977,151.496094 C181.405274,151.988284 181.419922,152.498044 181.419922,153.025391 C181.419922,153.470705 181.411133,153.921873 181.393555,154.378906 C181.375976,154.83594 181.355469,155.2666 181.332031,155.670898 C181.308594,156.075197 181.276367,156.444334 181.235352,156.77832 C181.194336,157.112306 181.15625,157.384765 181.121094,157.595703 C181.085937,157.759766 181.018555,157.882812 180.918945,157.964844 C180.819335,158.046875 180.705079,158.087891 180.576172,158.087891 C180.447265,158.087891 180.327149,158.046875 180.21582,157.964844 C180.104492,157.882812 180.048828,157.759766 180.048828,157.595703 C180.048828,157.537109 180.054687,157.490235 180.066406,157.455078 C180.101563,157.162108 180.139648,156.836916 180.180664,156.479492 C180.22168,156.122069 180.253906,155.744143 180.277344,155.345703 C180.300781,154.947264 180.321289,154.540041 180.338867,154.124023 C180.356445,153.708006 180.365234,153.294924 180.365234,152.884766 C180.365234,152.216794 180.341797,151.598636 180.294922,151.030273 C180.248047,150.461911 180.160157,150.025392 180.03125,149.720703 C179.960937,149.568359 179.925781,149.427735 179.925781,149.298828 C179.925781,149.134765 179.966796,149.00293 180.048828,148.90332 C180.13086,148.80371 180.236327,148.753906 180.365234,148.753906 C180.587892,148.753906 180.781249,148.888671 180.945312,149.158203 C181.074219,149.146484 181.197265,149.140625 181.314453,149.140625 L181.666016,149.140625 C182.251956,149.140625 182.823239,149.193359 183.379883,149.298828 C183.936526,149.404297 184.428709,149.562499 184.856445,149.773438 C185.284182,149.984376 185.629881,150.253905 185.893555,150.582031 C186.157228,150.910158 186.289062,151.302732 186.289062,151.759766 C186.289062,152.568363 185.975589,153.20117 185.348633,153.658203 C184.721677,154.115237 183.839849,154.419921 182.703125,154.572266 C182.679687,154.572266 182.665039,154.575195 182.65918,154.581055 C182.65332,154.586914 182.638672,154.589844 182.615234,154.589844 C182.46289,154.589844 182.351563,154.53418 182.28125,154.422852 C182.210937,154.311523 182.175781,154.185548 182.175781,154.044922 C182.175781,153.951171 182.205078,153.857422 182.263672,153.763672 C182.322266,153.669921 182.410156,153.611328 182.527344,153.587891 Z M188.714844,152.322266 C188.855469,152.263672 188.960937,152.234375 189.03125,152.234375 C189.125,152.234375 189.21875,152.263672 189.3125,152.322266 C189.394532,152.310547 189.485351,152.295899 189.584961,152.27832 C189.684571,152.260742 189.769531,152.251953 189.839844,152.251953 C190.226564,152.251953 190.578123,152.331054 190.894531,152.489258 C191.210939,152.647462 191.483397,152.861327 191.711914,153.130859 C191.940431,153.400392 192.11914,153.716795 192.248047,154.080078 C192.376954,154.443361 192.441406,154.830076 192.441406,155.240234 C192.441406,155.603517 192.374024,155.952147 192.239258,156.286133 C192.104492,156.620119 191.916993,156.916014 191.676758,157.173828 C191.436522,157.431642 191.158205,157.636718 190.841797,157.789062 C190.525389,157.941407 190.191408,158.017578 189.839844,158.017578 C189.406248,158.017578 189.007814,157.947266 188.644531,157.806641 C188.281248,157.666015 187.970704,157.472657 187.712891,157.226562 C187.455077,156.980468 187.25293,156.687502 187.106445,156.347656 C186.95996,156.007811 186.886719,155.638674 186.886719,155.240234 C186.886719,154.923827 186.921875,154.598634 186.992188,154.264648 C187.0625,153.930662 187.173827,153.623048 187.326172,153.341797 C187.478516,153.060545 187.668944,152.826173 187.897461,152.638672 C188.125978,152.451171 188.398436,152.345703 188.714844,152.322266 Z M188.925781,153.236328 C188.679686,153.271485 188.492188,153.362304 188.363281,153.508789 C188.234374,153.655274 188.137696,153.828124 188.073242,154.027344 C188.008789,154.226563 187.970703,154.434569 187.958984,154.651367 C187.947266,154.868165 187.941406,155.064452 187.941406,155.240234 C187.941406,155.451173 187.976562,155.665038 188.046875,155.881836 C188.117188,156.098634 188.231445,156.291991 188.389648,156.461914 C188.547852,156.631837 188.744139,156.769531 188.978516,156.875 C189.212892,156.980469 189.499998,157.033203 189.839844,157.033203 C190.097658,157.033203 190.329101,156.983399 190.53418,156.883789 C190.739259,156.784179 190.909179,156.649415 191.043945,156.479492 C191.178712,156.309569 191.28125,156.119142 191.351562,155.908203 C191.421875,155.697265 191.457031,155.474611 191.457031,155.240234 C191.457031,154.630856 191.310548,154.129885 191.017578,153.737305 C190.724608,153.344725 190.332034,153.13086 189.839844,153.095703 L189.505859,153.095703 C189.412109,153.095703 189.312501,153.11914 189.207031,153.166016 C189.101562,153.212891 189.007813,153.236328 188.925781,153.236328 Z M194.796875,153.341797 C194.585936,153.435547 194.480469,153.593749 194.480469,153.816406 C194.480469,153.957032 194.588866,154.126952 194.805664,154.326172 C195.022462,154.525392 195.268553,154.727538 195.543945,154.932617 C195.819337,155.137696 196.085936,155.333983 196.34375,155.521484 C196.601564,155.708985 196.777343,155.861328 196.871094,155.978516 C197.046876,156.224611 197.134766,156.476561 197.134766,156.734375 C197.134766,157.003908 197.079102,157.220702 196.967773,157.384766 C196.856445,157.548829 196.704103,157.677734 196.510742,157.771484 C196.317382,157.865235 196.094728,157.929687 195.842773,157.964844 C195.590819,158 195.330079,158.017578 195.060547,158.017578 C194.873046,158.017578 194.644533,158.011719 194.375,158 C194.105467,157.988281 193.844728,157.958985 193.592773,157.912109 C193.340819,157.865234 193.126954,157.797852 192.951172,157.709961 C192.77539,157.62207 192.6875,157.507813 192.6875,157.367188 C192.6875,157.249999 192.722656,157.126954 192.792969,156.998047 C192.863282,156.86914 192.96289,156.804688 193.091797,156.804688 C193.103516,156.804688 193.115234,156.807617 193.126953,156.813477 C193.138672,156.819336 193.15625,156.822266 193.179688,156.822266 C193.437501,156.892578 193.765623,156.945312 194.164062,156.980469 C194.562502,157.015625 194.949217,157.033203 195.324219,157.033203 C195.523438,157.033203 195.687499,157.000977 195.816406,156.936523 C195.945313,156.87207 196.009766,156.775391 196.009766,156.646484 C196.009766,156.529296 195.951172,156.403321 195.833984,156.268555 C195.716796,156.133788 195.573243,156.001954 195.40332,155.873047 C195.233398,155.74414 195.057618,155.621094 194.875977,155.503906 C194.694335,155.386718 194.539063,155.28125 194.410156,155.1875 C194.035154,154.929686 193.762696,154.686525 193.592773,154.458008 C193.422851,154.229491 193.337891,153.98047 193.337891,153.710938 C193.337891,153.406248 193.416991,153.157228 193.575195,152.963867 C193.733399,152.770507 193.935546,152.615235 194.181641,152.498047 C194.427736,152.380859 194.700194,152.301758 194.999023,152.260742 C195.297853,152.219726 195.587889,152.199219 195.869141,152.199219 C196.033204,152.199219 196.197265,152.205078 196.361328,152.216797 C196.525391,152.228516 196.671874,152.254883 196.800781,152.295898 C196.929688,152.336914 197.035156,152.395507 197.117188,152.47168 C197.199219,152.547852 197.240234,152.65039 197.240234,152.779297 C197.240234,152.908204 197.213867,153.019531 197.161133,153.113281 C197.108398,153.207032 197.023438,153.253906 196.90625,153.253906 C196.800781,153.253906 196.645509,153.236328 196.44043,153.201172 C196.235351,153.166015 195.998048,153.148438 195.728516,153.148438 C195.365233,153.148438 195.054689,153.21289 194.796875,153.341797 Z M202.566406,157.982422 C201.417963,157.888671 200.574221,157.507816 200.035156,156.839844 C199.496091,156.171872 199.226562,155.216803 199.226562,153.974609 L199.226562,153.236328 C198.769529,153.236328 198.388673,153.192383 198.083984,153.104492 C197.779295,153.016601 197.626953,152.826173 197.626953,152.533203 C197.650391,152.427734 197.703125,152.336914 197.785156,152.260742 C197.867188,152.18457 197.984374,152.146484 198.136719,152.146484 C198.277344,152.146484 198.447265,152.164062 198.646484,152.199219 C198.845704,152.234375 199.062499,152.251953 199.296875,152.251953 C199.296875,151.876951 199.308594,151.493166 199.332031,151.100586 C199.355469,150.708006 199.399414,150.353517 199.463867,150.037109 C199.528321,149.720702 199.613281,149.459962 199.71875,149.254883 C199.824219,149.049804 199.964843,148.947266 200.140625,148.947266 C200.269532,148.947266 200.386718,149.002929 200.492188,149.114258 C200.597657,149.225586 200.650391,149.374999 200.650391,149.5625 C200.650391,149.85547 200.615235,150.248044 200.544922,150.740234 C200.474609,151.232424 200.421875,151.748044 200.386719,152.287109 C200.480469,152.298828 200.577148,152.307617 200.676758,152.313477 C200.776368,152.319336 200.878906,152.322266 200.984375,152.322266 C201.171876,152.322266 201.362304,152.316406 201.555664,152.304688 C201.749024,152.292969 201.945312,152.275391 202.144531,152.251953 C202.308595,152.251953 202.443359,152.298828 202.548828,152.392578 C202.654297,152.486329 202.707031,152.591796 202.707031,152.708984 C202.707031,152.873048 202.660157,152.993164 202.566406,153.069336 C202.472656,153.145508 202.35254,153.198242 202.206055,153.227539 C202.05957,153.256836 201.889649,153.271484 201.696289,153.271484 L200.316406,153.271484 C200.304687,153.400391 200.298828,153.523437 200.298828,153.640625 L200.298828,153.992188 C200.298828,154.414065 200.336914,154.791991 200.413086,155.125977 C200.489258,155.459963 200.621093,155.755858 200.808594,156.013672 C200.996095,156.271486 201.242186,156.482421 201.546875,156.646484 C201.851564,156.810548 202.22656,156.927734 202.671875,156.998047 C202.800782,157.021484 202.894531,157.074218 202.953125,157.15625 C203.011719,157.238282 203.041016,157.332031 203.041016,157.4375 C203.041016,157.578126 203.00293,157.704101 202.926758,157.81543 C202.850586,157.926758 202.73047,157.982422 202.566406,157.982422 Z" id="Post" fill="#000000" transform="translate(191.483398, 153.420898) rotate(2.000000) translate(-191.483398, -153.420898) "></path>
                <g id="Group-2" transform="translate(241.000000, 96.000000) rotate(-6.000000) translate(-241.000000, -96.000000) translate(223.000000, 87.000000)" stroke="#000000" stroke-linecap="round" stroke-linejoin="round" stroke-width="1.2">
                    <polyline id="Rectangle-4-Copy-24" transform="translate(17.705600, 8.932973) scale(-1, 1) translate(-17.705600, -8.932973) " points="20.4855182 2.59617554 0.732108286 6.06213193 25.3291588 17.013888 29.2939023 10.3435225 17.4852565 7.00002763 31.3692497 6.44159627 34.6790917 0.852058776 24.7375508 2.12145841"></polyline>
                    <polyline id="Rectangle-4-Copy-27" transform="translate(4.122076, 10.753674) scale(-1, 1) translate(-4.122076, -10.753674) " points="2.16433031 10.4780508 6.07982193 14.9514398 4.37860339 6.55590794"></polyline>
                    <path d="M2.32872226,13.6511824 L7.59166469,15.165404" id="Rectangle-4-Copy-28" transform="translate(4.960193, 14.408293) scale(-1, 1) translate(-4.960193, -14.408293) "></path>
                </g>
                <path d="M149.163892,101.979413 C157.982969,102.044215 165.101427,103.901676 170.519263,107.551796 C178.646018,113.026975 213.164368,109.091318 201.858778,99.2527632 C191.763416,90.4673955 187.722313,105.050707 199.846461,106.740303 C207.929227,107.866701 215.095209,107.177542 221.344408,104.672827" id="Path-12" stroke="#000000" stroke-width="1.2" stroke-linecap="round" stroke-linejoin="round" stroke-dasharray="2,4"></path>
                <path d="M41.7692393,48.9985378 L172.830861,54.9985378" id="Path-11" stroke="#000000" stroke-width="1.2" stroke-linecap="round" stroke-linejoin="round"></path>
                <path d="M42.8966205,96.3545919 L130.256576,101.005351" id="Path-11-Copy-2" stroke="#000000" stroke-width="1.2" stroke-linecap="round" stroke-linejoin="round"></path>
                <path d="M141.415844,96.4396633 C141.561678,96.1844537 141.693838,95.9110189 141.812328,95.6193508 C141.930818,95.3276827 141.990063,95.0542479 141.990063,94.7990383 C141.990063,94.5438287 141.912589,94.3433099 141.757641,94.1974758 C141.602692,94.0516418 141.342929,93.9787258 140.978344,93.9787258 C140.777822,93.9787258 140.572746,94.001512 140.363109,94.0470852 C140.153473,94.0926583 139.952954,94.142788 139.761547,94.1974758 C139.57014,94.2521636 139.396964,94.3022933 139.242016,94.3478664 C139.087067,94.3934396 138.964021,94.4162258 138.872875,94.4162258 C138.672353,94.4162258 138.526521,94.3250809 138.435375,94.1427883 C138.344229,93.9604957 138.298656,93.7873204 138.298656,93.6232571 C138.298656,93.3862767 138.389801,93.1903151 138.572094,93.0353664 C138.754386,92.8804177 138.986806,92.7573721 139.269359,92.6662258 C139.551913,92.5750795 139.861806,92.5067208 140.199047,92.4611477 C140.536288,92.4155745 140.868967,92.3927883 141.197094,92.3927883 C141.908035,92.3927883 142.505034,92.6069789 142.988109,93.0353664 C143.471185,93.463754 143.712719,94.0151808 143.712719,94.6896633 C143.712719,95.2183118 143.607902,95.6968226 143.398266,96.1252102 C143.188629,96.5535977 142.965324,96.9683071 142.728344,97.3693508 C142.436676,97.87977 142.176913,98.3491664 141.949047,98.7775539 C141.721181,99.2059415 141.52522,99.6343226 141.361156,100.06271 C141.197093,100.491098 141.060376,100.937708 140.951,101.402554 C140.841624,101.8674 140.759594,102.400598 140.704906,103.002163 C140.704906,103.658417 140.668448,104.086798 140.595531,104.28732 C140.522614,104.487841 140.312981,104.588101 139.966625,104.588101 C139.784332,104.588101 139.638501,104.533414 139.529125,104.424038 C139.419749,104.314663 139.333162,104.173388 139.269359,104.00021 C139.205557,103.827032 139.164542,103.640185 139.146313,103.439663 C139.128083,103.239141 139.118969,103.047737 139.118969,102.865445 C139.118969,102.227421 139.18277,101.625864 139.310375,101.060757 C139.43798,100.49565 139.611155,99.9487805 139.829906,99.4201321 C140.048657,98.8914836 140.294749,98.381072 140.568188,97.8888821 C140.841626,97.3966921 141.124176,96.913624 141.415844,96.4396633 Z M139.665844,105.463101 C139.775219,105.426642 139.85725,105.408413 139.911938,105.408413 C140.003084,105.408413 140.076,105.417528 140.130688,105.435757 C140.185375,105.453986 140.230948,105.463101 140.267406,105.463101 C140.340323,105.463101 140.408682,105.458544 140.472484,105.449429 C140.536287,105.440314 140.595531,105.435757 140.650219,105.435757 C141.051262,105.435757 141.388499,105.504116 141.661938,105.640835 C141.935376,105.777555 142.154124,105.95073 142.318188,106.160366 C142.482251,106.370003 142.600739,106.60698 142.673656,106.871304 C142.746573,107.135628 142.783031,107.395391 142.783031,107.650601 C142.783031,107.92404 142.732902,108.192917 142.632641,108.457241 C142.53238,108.721566 142.395662,108.958542 142.222484,109.168179 C142.049306,109.377815 141.835116,109.550991 141.579906,109.68771 C141.324697,109.82443 141.051262,109.892788 140.759594,109.892788 C140.449696,109.892788 140.144361,109.838101 139.843578,109.728726 C139.542795,109.61935 139.278475,109.459847 139.050609,109.25021 C138.822744,109.040574 138.635897,108.780811 138.490063,108.470913 C138.344228,108.161016 138.271313,107.814665 138.271313,107.431851 C138.271313,106.976119 138.403473,106.56141 138.667797,106.18771 C138.932121,105.81401 139.2648,105.572476 139.665844,105.463101 Z M140.322094,106.884976 L140.048656,106.884976 C139.95751,106.976122 139.889151,107.094611 139.843578,107.240445 C139.798005,107.386279 139.775219,107.522996 139.775219,107.650601 C139.775219,107.90581 139.870921,108.0881 140.062328,108.197476 C140.253735,108.306851 140.449697,108.361538 140.650219,108.361538 C140.887199,108.361538 141.074046,108.29318 141.210766,108.15646 C141.347485,108.019741 141.415844,107.851123 141.415844,107.650601 C141.415844,107.41362 141.352042,107.217659 141.224438,107.06271 C141.096833,106.907761 140.86897,106.830288 140.540844,106.830288 C140.431468,106.830288 140.358552,106.848517 140.322094,106.884976 Z" id="?" fill="#000000" transform="translate(140.992016, 101.142788) rotate(6.000000) translate(-140.992016, -101.142788) "></path>
                <path d="M41.7692393,63.9985378 L120.177641,67.9898178" id="Path-11-Copy" stroke="#000000" stroke-width="1.2" stroke-linecap="round" stroke-linejoin="round"></path>
            </g>
        </g>
    </g>
</svg>