<?xml version="1.0" encoding="UTF-8"?>
<svg width="60px" height="60px" viewBox="0 0 60 60" version="1.1" xmlns="http://www.w3.org/2000/svg" xmlns:xlink="http://www.w3.org/1999/xlink">
    <!-- Generator: Sketch 49.2 (51160) - http://www.bohemiancoding.com/sketch -->
    <title>Artboard</title>
    <desc>Created with Sketch.</desc>
    <defs></defs>
    <g id="Artboard" stroke="none" stroke-width="1" fill="none" fill-rule="evenodd">
        <g id="Group-11-Copy-2" transform="translate(5.000000, 4.250000)">
            <path d="M3.09159709,27.7448706 L3.09159709,31.9098344" id="Path-5-Copy" stroke="#000000" stroke-width="2" stroke-linecap="round" transform="translate(3.091597, 29.827353) rotate(80.000000) translate(-3.091597, -29.827353) "></path>
            <path d="M47.0562289,19.9927198 L47.0562289,24.1576836" id="Path-5" stroke="#000000" stroke-width="2" stroke-linecap="round" transform="translate(47.056229, 22.075202) rotate(80.000000) translate(-47.056229, -22.075202) "></path>
            <path d="M21.0472489,1.77899644 L21.0472489,5.94396019" id="Path-5-Copy" stroke="#000000" stroke-width="2" stroke-linecap="round" transform="translate(21.047249, 3.861478) rotate(-190.000000) translate(-21.047249, -3.861478) "></path>
            <path d="M28.7993997,45.7436283 L28.7993997,49.908592" id="Path-5" stroke="#000000" stroke-width="2" stroke-linecap="round" transform="translate(28.799400, 47.826110) rotate(-190.000000) translate(-28.799400, -47.826110) "></path>
            <path d="M6.69171439,11.0431963 L6.69171439,15.20816" id="Path-5-Copy" stroke="#000000" stroke-width="2" stroke-linecap="round" transform="translate(6.691714, 13.125678) rotate(-235.000000) translate(-6.691714, -13.125678) "></path>
            <path d="M43.2610021,36.6492872 L43.2610021,40.8142509" id="Path-5" stroke="#000000" stroke-width="2" stroke-linecap="round" transform="translate(43.261002, 38.731769) rotate(-235.000000) translate(-43.261002, -38.731769) "></path>
            <path d="M12.3557969,42.1004052 L12.3557969,46.2653689" id="Path-5-Copy" stroke="#000000" stroke-width="2" stroke-linecap="round" transform="translate(12.355797, 44.182887) rotate(35.000000) translate(-12.355797, -44.182887) "></path>
            <path d="M37.9618878,5.53111749 L37.9618878,9.69608124" id="Path-5" stroke="#000000" stroke-width="2" stroke-linecap="round" transform="translate(37.961888, 7.613599) rotate(35.000000) translate(-37.961888, -7.613599) "></path>
            <path d="M25.1312911,41.7244267 C33.6666009,41.7244267 40.5858366,34.805191 40.5858366,26.2698812 C40.5858366,17.7345714 33.6666009,10.8153358 25.1312911,10.8153358 C16.5959813,10.8153358 9.67674565,17.7345714 9.67674565,26.2698812 C9.67674565,30.3362041 11.2471926,34.0357295 13.8146536,36.7950244" id="Oval-Copy-3" stroke="#000000" stroke-width="2" stroke-linecap="round" transform="translate(25.131291, 26.269881) rotate(-70.000000) translate(-25.131291, -26.269881) "></path>
            <path d="M23.8830321,19.0262957 L26.3948103,33.1405433" id="Path-5-Copy-2" stroke="#000000" stroke-width="3" stroke-linecap="round" transform="translate(25.138921, 26.083419) rotate(-215.000000) translate(-25.138921, -26.083419) "></path>
            <circle id="Oval-3" stroke="#050505" stroke-width="2" cx="25.5" cy="25.7433103" r="25"></circle>
        </g>
    </g>
</svg>