<?xml version="1.0" encoding="UTF-8"?>
<svg width="284px" height="140px" viewBox="0 0 284 140" version="1.1" xmlns="http://www.w3.org/2000/svg" xmlns:xlink="http://www.w3.org/1999/xlink">
    <!-- Generator: Sketch 49.2 (51160) - http://www.bohemiancoding.com/sketch -->
    <title>Artboard 2</title>
    <desc>Created with Sketch.</desc>
    <defs></defs>
    <g id="Artboard-2" stroke="none" stroke-width="1" fill="none" fill-rule="evenodd">
        <g id="Group-11-Copy" transform="translate(10.000000, 12.000000)">
            <path d="M49,105.24331 L82.5272156,105.24331" id="Path-3-Copy-10" stroke="#000000" stroke-width="1.5" stroke-linecap="round"></path>
            <path d="M181,105.24331 L244.527216,105.24331" id="Path-3-Copy-24" stroke="#000000" stroke-width="1.5" stroke-linecap="round"></path>
            <path d="M74.6431005,118.24331 L273.068219,118.24331" id="Path-3-Copy-25" stroke="#000000" stroke-width="1.5" stroke-linecap="round"></path>
            <path d="M0,118.24331 L65.4147044,118.24331" id="Path-3-Copy-26" stroke="#000000" stroke-width="1.5" stroke-linecap="round"></path>
            <g id="Group-2" transform="translate(90.000000, 0.243310)">
                <g id="Group-5">
                    <g id="Group-2">
                        <g id="Group-5">
                            <path d="M72.4247918,110 L81,110 C82.6568542,110 84,108.656854 84,107 L84,3 C84,1.34314575 82.6568542,-3.04359188e-16 81,0 L3,0 C1.34314575,3.04359188e-16 -2.02906125e-16,1.34314575 0,3 L-8.8817842e-16,107 C-8.77897433e-15,108.656854 1.34314575,110 3,110 L62.2675013,110" id="Rectangle-4-Copy-17" stroke="#000000" stroke-width="2" stroke-linecap="round" stroke-linejoin="round"></path>
                            <path d="M0,22 L4,22 C5.1045695,22 6,22.8954305 6,24 L6,32 C6,33.1045695 5.1045695,34 4,34 L0,34" id="Rectangle-4" stroke="#000000" stroke-linecap="round" stroke-linejoin="round"></path>
                            <circle id="Oval" fill="#000000" cx="3" cy="25" r="1"></circle>
                            <circle id="Oval-Copy" fill="#000000" cx="3" cy="31" r="1"></circle>
                            <circle id="Oval-Copy-4" fill="#000000" cx="3" cy="78" r="1"></circle>
                            <circle id="Oval-Copy-2" fill="#000000" cx="3" cy="84" r="1"></circle>
                            <path d="M0,75 L4,75 C5.1045695,75 6,75.8954305 6,77 L6,85 C6,86.1045695 5.1045695,87 4,87 L3,87" id="Rectangle-4-Copy-7" stroke="#000000" stroke-linecap="round" stroke-linejoin="round"></path>
                            <path d="M28.1195404,8 L66,8 C67.6568542,8 69,9.34314575 69,11 L69,23 C69,24.6568542 67.6568542,26 66,26 L18,26 C16.3431458,26 15,24.6568542 15,23 L15,11 C15,9.34314575 16.3431458,8 18,8 L24.1281064,8" id="Rectangle-4-Copy-5" stroke="#000000" stroke-linecap="round" stroke-linejoin="round"></path>
                            <path d="M75,61 L75,67.8398294" id="Path-5-Copy-3" stroke="#000000" stroke-width="3" stroke-linecap="round"></path>
                            <circle id="Oval" fill="#000000" cx="75" cy="60" r="3"></circle>
                        </g>
                    </g>
                </g>
            </g>
        </g>
    </g>
</svg>