<?xml version="1.0" encoding="UTF-8"?>
<svg width="19px" height="22px" viewBox="0 0 19 22" version="1.1" xmlns="http://www.w3.org/2000/svg" xmlns:xlink="http://www.w3.org/1999/xlink">
    <!-- Generator: Sketch 50.2 (55047) - http://www.bohemiancoding.com/sketch -->
    <title>Group 8</title>
    <desc>Created with Sketch.</desc>
    <defs></defs>
    <g id="Dashboard" stroke="none" stroke-width="1" fill="none" fill-rule="evenodd">
        <g id="Dashboard_invite_01" transform="translate(-169.000000, -941.000000)">
            <g id="Group-5" transform="translate(140.000000, 697.000000)">
                <g id="Group-8" transform="translate(30.000000, 245.000000)">
                    <path d="M14.330589,0 L17.25,0 C16.3928571,2.00192448 14.55,4.96064463 11.7214286,8.87616044 C14.55,11.8448772 16.3928571,15.5718714 17.25,20.0571429 L0.535714286,20.0571429 C1.39285714,16.0808006 3.23571429,12.3538065 6.06428571,8.87616044 C2.94923202,5.10516587 1.03048925,2.14644572 0.308057394,0 L10.687661,0" id="Rectangle-9" stroke="#F1AE10" stroke-width="1.2" stroke-linecap="round" stroke-linejoin="round"></path>
                    <path d="M13.290975,16.7017808 L13.4397466,17.0722602 C13.5426489,17.3285134 13.4183334,17.6196665 13.1620801,17.7225688 C13.1028415,17.746357 13.0395955,17.7585813 12.975759,17.7585813 L5.72861715,17.7585813 C5.6181602,17.7585813 5.52861715,17.6690382 5.52861715,17.5585813 C5.52861715,17.4660527 5.59208719,17.3856041 5.68207554,17.3640719 L11.7590413,15.9099938 C12.3953525,15.7577392 13.0471652,16.0946316 13.290975,16.7017808 Z" id="Rectangle-9-Copy" fill="#F1AE10"></path>
                    <path d="M12.3592481,7.90058225 L5.44686308,7.90058225 C5.1707207,7.90058225 4.94686308,7.67672463 4.94686308,7.40058225 C4.94686308,7.3013433 4.9763943,7.20434898 5.0316971,7.12194771 L7.2098834,3.8764462 C7.82542584,2.95928685 9.06792614,2.71477804 9.9850855,3.33032048 C10.1932572,3.47003286 10.3733047,3.64763958 10.5158452,3.85388507 L12.7705726,7.11630742 C12.9275733,7.34347565 12.8706912,7.65490607 12.643523,7.81190672 C12.5599704,7.86965164 12.4608134,7.90058225 12.3592481,7.90058225 Z" id="Rectangle-9-Copy-2" fill="#F1AE10" transform="translate(8.905024, 5.251605) scale(1, -1) translate(-8.905024, -5.251605) "></path>
                </g>
            </g>
        </g>
    </g>
</svg>