<?xml version="1.0" encoding="UTF-8"?>
<svg width="253px" height="190px" viewBox="0 0 253 190" version="1.1" xmlns="http://www.w3.org/2000/svg" xmlns:xlink="http://www.w3.org/1999/xlink">
    <!-- Generator: Sketch 50.2 (55047) - http://www.bohemiancoding.com/sketch -->
    <title>Group 8</title>
    <desc>Created with Sketch.</desc>
    <defs></defs>
    <g id="Full-page" stroke="none" stroke-width="1" fill="none" fill-rule="evenodd">
        <g id="Desktop---get-invited-Copy-3" transform="translate(-315.000000, -531.000000)">
            <g id="Group-8" transform="translate(289.000000, 489.000000)">
                <g id="Group-23" transform="translate(44.000000, 204.272727) rotate(-9.000000) translate(-44.000000, -204.272727) translate(29.000000, 177.000000)">
                    <path d="M6.67553014,26.7569039 C12.4660629,24.4786401 17.4859614,23.7685021 21.7352255,24.6264897 L21.7352244,24.6264948 C24.1528281,25.1146438 26.0254346,27.0325278 26.455696,29.4611019 L26.7885558,31.3399013 C27.2301802,33.8326129 27.2746406,36.3794997 26.9202882,38.8861065 L26.8946178,39.0676925 C26.5293183,41.6517367 25.3980267,44.0670181 23.646723,46.001873 L23.5556885,46.1024487 C21.8121724,48.0286997 19.2454902,48.9940032 16.6647285,48.6940698 L16.4073025,48.664152 C13.5873583,48.3364211 10.9776877,47.0106927 9.0499895,44.9265928 L8.7943355,44.6501965 C6.69741128,42.3831406 5.4511409,39.4593224 5.26774736,36.3766287 L4.793758,28.4092596" id="Path-3-Copy-17" stroke="#000000" stroke-width="1.2" stroke-linecap="round" stroke-linejoin="round"></path>
                    <path d="M27.3314198,30.9240216 C31.5926828,23.8791425 30.6383377,12.2152987 18.5315267,10.8640966 C20.4826365,4.35467994 18.0094934,-1.09616041 11.3293968,0.250810329 C4.64930016,1.59778107 3.15075554,8.56757052 8.02281113,12.0259587" id="Path-3-Copy-17" stroke="#000000" stroke-width="1.2" stroke-linecap="round" stroke-linejoin="round"></path>
                    <path d="M4.54587016,33.8012802 C0.603097412,32.60218 -3.25476222,14.5082787 10.0403574,11.8891983" id="Path-3-Copy-34" stroke="#000000" stroke-width="1.2" stroke-linecap="round" stroke-linejoin="round"></path>
                    <path d="M11.6971939,30.0952932 C9.75620485,29.6237163 8.19672578,30.2010563 7.0187567,31.8273132" id="Path-3-Copy-17" stroke="#000000" stroke-width="0.8" stroke-linecap="round" transform="translate(9.357975, 30.881798) rotate(-7.000000) translate(-9.357975, -30.881798) "></path>
                    <path d="M25.0715537,28.8661889 C22.9480013,28.2546839 21.4059205,28.5569085 20.4453114,29.7728628" id="Path-3-Copy-18" stroke="#000000" stroke-width="0.8" stroke-linecap="round" transform="translate(22.758433, 29.166059) rotate(33.000000) translate(-22.758433, -29.166059) "></path>
                    <path d="M19.133537,40.5280791 C16.7015651,43.2769737 14.6847682,44.0089397 13.0831463,42.723977" id="Path-3-Copy-19" stroke="#000000" stroke-linecap="round" transform="translate(16.108342, 41.933016) rotate(33.000000) translate(-16.108342, -41.933016) "></path>
                    <path d="M10.5710267,25.6666268 C6.31700237,24.9779831 4.94762266,21.5314036 6.46288754,15.3268881" id="Path-3-Copy-35" stroke="#000000" stroke-width="0.8" stroke-linecap="round" transform="translate(8.218477, 20.496757) rotate(33.000000) translate(-8.218477, -20.496757) "></path>
                    <path d="M24.6317937,22.9875007 C23.3821731,20.5183073 21.7234998,18.8393914 19.6557736,17.9507529" id="Path-3-Copy-36" stroke="#000000" stroke-width="0.8" stroke-linecap="round" transform="translate(22.143784, 20.469127) rotate(33.000000) translate(-22.143784, -20.469127) "></path>
                    <path d="M28.6270072,36.9235474 C29.1732369,34.9065315 28.3650298,33.6620017 26.2023859,33.189958" id="Path-3-Copy-37" stroke="#000000" stroke-width="0.8" stroke-linecap="round" transform="translate(27.497305, 35.056753) rotate(33.000000) translate(-27.497305, -35.056753) "></path>
                    <path d="M6.44092295,38.7405341 C4.66198141,39.1942844 3.75373903,38.0428418 3.71619582,35.2862062" id="Path-3-Copy-38" stroke="#000000" stroke-width="0.8" stroke-linecap="round" transform="translate(5.078559, 37.061469) rotate(33.000000) translate(-5.078559, -37.061469) "></path>
                    <path d="M13.2637172,53.0239 C13.0376801,51.4786285 12.399432,49.7833632 11.3489728,47.9381041" id="Path-3-Copy-45" stroke="#000000" stroke-width="1.2" stroke-linecap="round" transform="translate(12.306345, 50.481002) rotate(33.000000) translate(-12.306345, -50.481002) "></path>
                    <path d="M19.3906353,54.3319956 C18.0462577,53.2330375 17.5465002,51.292823 17.8913627,48.511352" id="Path-3-Copy-64" stroke="#000000" stroke-width="1.2" stroke-linecap="round" transform="translate(18.588196, 51.421674) rotate(33.000000) translate(-18.588196, -51.421674) "></path>
                    <path d="M16.0914594,35.5813669 C16.350374,35.89748 17.0346668,36.6041095 18.144338,37.7012556 L18.1443622,37.7012311 C18.5371102,38.0895461 18.5407038,38.7227227 18.1523889,39.1154707 C18.0636262,39.2052467 17.958667,39.2774036 17.8430576,39.3281285 L17.4810377,39.4869688" id="Path-3-Copy-23" stroke="#000000" stroke-width="0.6" stroke-linecap="round" transform="translate(17.165769, 37.534168) rotate(33.000000) translate(-17.165769, -37.534168) "></path>
                    <path d="M17.9347092,45.8890094 C17.7152697,46.4626209 17.3520755,46.8148049 16.8451266,46.9455613" id="Path-3-Copy-33" stroke="#000000" stroke-width="0.5" stroke-linecap="round" transform="translate(17.389918, 46.417285) rotate(33.000000) translate(-17.389918, -46.417285) "></path>
                    <circle id="Oval" fill="#000000" cx="10.452978" cy="33.80721" r="1"></circle>
                    <circle id="Oval-Copy" fill="#000000" cx="22.1363525" cy="32.4090964" r="1"></circle>
                </g>
                <g id="Group-6" transform="translate(24.000000, 55.000000)">
                    <g id="Group-4" transform="translate(47.000000, 35.670520)" stroke="#000000" stroke-linecap="round" stroke-linejoin="round" stroke-width="1.2">
                        <path d="M56.8875992,95.2601156 L4.35512763,88.4277029 C1.86397537,88.1037017 3.86036134e-15,85.9815971 3.55271368e-15,83.4694633 L8.8817842e-15,12.0743498 C8.54360732e-15,9.31292601 2.23857625,7.07434976 5,7.07434976 C5.18863529,7.07434976 5.37711943,7.08502474 5.56454844,7.10632349 L76.9518317,15.2185148 C79.4785539,15.5056423 81.3872832,17.6435571 81.3872832,20.186541 L81.3872832,92.4680887 C81.3872832,95.2295124 79.148707,97.4680887 76.3872832,97.4680887 C76.2086742,97.4680887 76.0301935,97.4585183 75.8526086,97.4394188 L64.1889303,96.1849711" id="Rectangle-6"></path>
                        <path d="M1.82842498,7.85027364 L12.5911494,1.33267907 C13.5391392,0.758603875 14.650994,0.515755938 15.7520095,0.642293637 L85.3208977,8.63771854 C88.3496206,8.98580412 90.6358382,11.5498217 90.6358382,14.5984814 L90.6358382,85.6486236 C90.6358382,87.2234881 89.8938574,88.706314 88.6333872,89.6504606 L79.3772287,96.5837238" id="Rectangle-6-Copy-2"></path>
                        <path d="M80.5868051,16.7550666 L85.8622967,13.1704882" id="Path-13"></path>
                    </g>
                    <g id="Group-23-Copy-2" transform="translate(18.127871, 19.861653) rotate(-10.000000) translate(-18.127871, -19.861653) translate(3.127871, 2.655770)">
                        <path d="M22.7614394,4.28116307 L22.7614394,4.28116307 C24.3875926,6.05536361 25.2896739,8.3746434 25.2896739,10.7813344 L25.2896739,21.8607314 C25.2896739,24.7435799 24.3444301,27.546912 22.5987884,29.841155 L22.2103155,30.351713 C20.7290584,32.2984834 18.5739177,33.6216153 16.1675825,34.061602 L16.1675825,34.061602 C13.8071985,34.4931868 11.3796507,33.8125499 9.58770999,32.2167347 L8.17988304,30.9629925 C5.49270715,28.5699243 4.02689453,25.0934114 4.1894653,21.498796 L4.70423885,10.1165967 C5.46726171,4.58817104 8.57051299,1.6574451 14.0139927,1.32441885 C17.5184278,1.11002127 20.4342434,2.09560268 22.7614394,4.28116307 Z" id="Path-3-Copy-17" stroke="#000000" stroke-width="1.2" stroke-linecap="round"></path>
                        <path d="M9.67772866,15.1988078 C8.85993495,15.2027596 8.17716275,15.6113044 7.62941205,16.4244422" id="Path-3-Copy-17" stroke="#000000" stroke-width="0.8" stroke-linecap="round" transform="translate(8.653570, 15.811625) rotate(-7.000000) translate(-8.653570, -15.811625) "></path>
                        <path d="M22.0103495,15.262295 C21.087978,15.2003251 20.2414255,15.3227971 19.4706919,15.629711" id="Path-3-Copy-18" stroke="#000000" stroke-width="0.8" stroke-linecap="round" transform="translate(20.740521, 15.687856) rotate(33.000000) translate(-20.740521, -15.687856) "></path>
                        <path d="M14.432386,32.1385526 C14.93054,31.9270988 15.3428084,31.4205084 15.6691913,30.6187814" id="Path-3-Copy-29" stroke="#000000" stroke-width="0.6" stroke-linecap="round" transform="translate(15.050789, 31.378667) rotate(33.000000) translate(-15.050789, -31.378667) "></path>
                        <path d="M27.1517914,18.7768229 C28.2921379,17.9448915 28.1306606,16.1310985 27.1808998,14.9108925 C26.1362285,13.56875 25.042505,12.9780468 23.8997295,13.1387827" id="Path-3-Copy-27" stroke="#000000" stroke-linecap="round" transform="translate(25.925325, 15.944909) rotate(33.000000) translate(-25.925325, -15.944909) "></path>
                        <path d="M5.54243275,18.3484682 C6.10821668,17.3055573 6.60495024,15.8593026 5.1522111,14.3663552 C3.97820022,13.1598506 2.88401289,12.8896268 1.8696491,13.5556838" id="Path-3-Copy-28" stroke="#000000" stroke-linecap="round" transform="translate(3.987220, 15.774392) scale(-1, 1) rotate(33.000000) translate(-3.987220, -15.774392) "></path>
                        <path d="M19.2562061,0.252721444 C22.3253142,6.07436549 20.8979603,12.0006255 14.9741443,18.0315016" id="Path-3-Copy-30" stroke="#000000" stroke-linecap="round" transform="translate(17.900745, 9.142112) scale(-1, 1) rotate(33.000000) translate(-17.900745, -9.142112) "></path>
                        <path d="M3.40735506,4.947365 C7.24621865,9.0640422 10.7589114,10.2297756 13.9454334,8.44456512" id="Path-3-Copy-32" stroke="#000000" stroke-linecap="round" transform="translate(8.676394, 7.100960) scale(-1, 1) rotate(33.000000) translate(-8.676394, -7.100960) "></path>
                        <path d="M18.8482076,1.26574068 C21.9173157,7.08738472 21.8868519,12.3024789 18.7568162,16.9110231" id="Path-3-Copy-31" stroke="#000000" stroke-linecap="round" transform="translate(19.942116, 9.088382) scale(-1, 1) rotate(33.000000) translate(-19.942116, -9.088382) "></path>
                        <path d="M17.6219823,25.3708811 C17.072505,27.616652 15.6548857,28.9519069 13.3691244,29.3766459" id="Path-3-Copy-19" stroke="#000000" stroke-linecap="round" transform="translate(15.495553, 27.373763) rotate(33.000000) translate(-15.495553, -27.373763) "></path>
                        <path d="M16.6884945,23.5958964 C16.5031804,24.0041529 15.0988568,25.2136093 14.6907429,24.8695082 C14.2434923,24.4924088 13.5787915,23.4099707 12.6966407,21.6221937" id="Path-3-Copy-23" stroke="#000000" stroke-width="0.8" stroke-linecap="round" transform="translate(14.692568, 23.276275) rotate(33.000000) translate(-14.692568, -23.276275) "></path>
                        <circle id="Oval" fill="#000000" cx="10.0587821" cy="17.9786031" r="1"></circle>
                        <circle id="Oval-Copy" fill="#000000" cx="20.3990496" cy="18.2787341" r="1"></circle>
                    </g>
                    <path d="M96.1433005,70.8225458 L91.0407942,70.8150289 C85.30781,70.8150289 81.6032428,74.450198 81.6032428,80.0761424 L81.6032428,84.346189 L76.473317,84.346189 C76.0308179,84.346189 75.6705202,84.6908148 75.6705202,85.1140665 L75.6705202,91.301914 C75.6705202,91.7251657 76.0308179,92.0697915 76.473317,92.0697915 L81.6032428,92.0697915 L81.6032428,107.681656 C81.6032428,108.104907 81.9615328,108.449533 82.4060396,108.449533 L89.0984792,108.449533 C89.5409783,108.449533 89.901276,108.104907 89.901276,107.681656 L89.901276,92.0697915 L95.8985894,92.0697915 C96.3410885,92.0697915 96.7013862,91.7270861 96.7013862,91.301914 L96.7033365,85.1140665 C96.7033365,84.9099027 96.6191275,84.7151762 96.4683772,84.5709282 C96.317627,84.4266803 96.1139879,84.346189 95.9005398,84.346189 L89.8992683,84.346189 L89.8992683,80.7259989 C89.8992683,78.9861348 90.3319582,78.1021566 92.7031199,78.1021566 L96.1393998,78.1002911 C96.5818988,78.1002911 96.9421965,77.7556653 96.9421965,77.3324136 L96.9421965,75.6014233" id="facebook" stroke="#3B5998" stroke-width="2" opacity="0.941464552" stroke-linecap="round" stroke-linejoin="round" transform="translate(86.306358, 89.632281) rotate(2.000000) translate(-86.306358, -89.632281) "></path>
                    <g id="Group-4-Copy" transform="translate(161.500000, 55.000000) scale(-1, 1) translate(-161.500000, -55.000000) translate(116.000000, 7.000000)" stroke="#000000" stroke-linecap="round" stroke-linejoin="round" stroke-width="1.2">
                        <path d="M56.8875992,95.2601156 L4.35512763,88.4277029 C1.86397537,88.1037017 1.09657887e-14,85.9815971 1.0658141e-14,83.4694633 L1.59872116e-14,12.0743498 C1.56490347e-14,9.31292601 2.23857625,7.07434976 5,7.07434976 C5.18863529,7.07434976 5.37711943,7.08502474 5.56454844,7.10632349 L76.9518317,15.2185148 C79.4785539,15.5056423 81.3872832,17.6435571 81.3872832,20.186541 L81.3872832,23.4203462" id="Rectangle-6-Copy-3"></path>
                        <path d="M1.82842498,7.85027364 L12.5911494,1.33267907 C13.5391392,0.758603875 14.650994,0.515755938 15.7520095,0.642293637 L85.3208977,8.63771854 C88.3496206,8.98580412 90.6358382,11.5498217 90.6358382,14.5984814 L90.6358382,22.9761859" id="Rectangle-6-Copy-2"></path>
                        <path d="M80.5868051,16.7550666 L85.8622967,13.1704882" id="Path-13"></path>
                    </g>
                    <g id="Group-23" transform="translate(184.699383, 139.015402) rotate(10.000000) translate(-184.699383, -139.015402) translate(168.199383, 117.304876)">
                        <path d="M10.0572721,16.7172664 C14.7398851,15.9507761 19.5981616,13.9254588 24.6321017,10.6413144 L25.11472,11.7494404 C26.5392063,15.0201627 27.2166252,18.5673127 27.0976861,22.1327915 L26.9853677,25.4997997 C26.9009826,28.0294422 26.0323737,30.4703064 24.4997556,32.484579 L24.4997556,32.484579 C23.0153338,34.4355087 20.7046549,35.5808625 18.2531992,35.5808625 L17.2399411,35.5808625 C14.7051281,35.5808625 12.3037984,34.4445919 10.696432,32.484579 L10.696432,32.484579 C9.0545454,30.4824725 8.15723327,27.9732364 8.15723327,25.3839851 L8.15723327,16.7172664" id="Path-3-Copy-17" stroke="#000000" stroke-width="1.2" stroke-linecap="round"></path>
                        <path d="M21.5153098,39.1241253 C27.4520927,37.7821005 31.1047416,33.2561314 32.4732566,25.546218 C34.526029,13.9813479 29.5527183,1.55255731 17.9875278,0.261803729 C6.42233723,-1.02894985 2.67889548,10.3984781 3.80173574,19.5846685 C4.92457599,28.7708588 5.71034753,27.2478238 4.92457599,32.128164 C4.4007283,35.3817241 2.87938552,38.3248386 0.360547643,40.9575074 C3.73886584,42.595591 8.22224873,42.595591 13.8106963,40.9575074" id="Path-3-Copy-17" stroke="#000000" stroke-width="1.2" stroke-linecap="round"></path>
                        <path d="M11.8248719,18.9316076 C11.1249109,18.7500662 10.6008637,18.9316076 10.2527303,19.4762318" id="Path-3-Copy-17" stroke="#000000" stroke-width="0.8" stroke-linecap="round" transform="translate(11.038801, 19.242021) rotate(-7.000000) translate(-11.038801, -19.242021) "></path>
                        <path d="M24.4020044,17.8835132 C23.7020433,17.7019718 23.1779962,17.8835132 22.8298628,18.4281374" id="Path-3-Copy-18" stroke="#000000" stroke-width="0.8" stroke-linecap="round" transform="translate(23.615934, 18.193926) rotate(33.000000) translate(-23.615934, -18.193926) "></path>
                        <path d="M20.3612387,27.4114521 C20.0796315,30.1749723 18.3816786,31.6449312 15.2673801,31.8213289" id="Path-3-Copy-19" stroke="#000000" stroke-linecap="round" transform="translate(17.814309, 29.616390) rotate(33.000000) translate(-17.814309, -29.616390) "></path>
                        <path d="M15.9636179,42.0482199 C15.3366392,40.4631507 13.7742389,38.3644177 11.2764168,35.7520211" id="Path-3-Copy-45" stroke="#000000" stroke-width="1.2" stroke-linecap="round" transform="translate(13.620017, 38.900121) rotate(33.000000) translate(-13.620017, -38.900121) "></path>
                        <path d="M23.7738716,41.7541759 C22.4896373,40.7043817 21.1456593,38.8257998 19.7419378,36.11843" id="Path-3-Copy-64" stroke="#000000" stroke-width="1.2" stroke-linecap="round" transform="translate(21.757905, 38.936303) rotate(33.000000) translate(-21.757905, -38.936303) "></path>
                        <path d="M18.8551986,25.5084022 C18.4447351,26.4126743 17.7169992,26.7189638 16.6719908,26.4272707" id="Path-3-Copy-23" stroke="#000000" stroke-width="0.5" stroke-linecap="round" transform="translate(17.763595, 26.032449) rotate(33.000000) translate(-17.763595, -26.032449) "></path>
                        <circle id="Oval" fill="#000000" cx="11.8584392" cy="21.1415608" r="1.04809437"></circle>
                        <circle id="Oval-Copy" fill="#000000" cx="22.3393829" cy="21.1415608" r="1.04809437"></circle>
                    </g>
                    <g id="Group" transform="translate(167.693642, 62.491329) rotate(-3.000000) translate(-167.693642, -62.491329) translate(152.433526, 49.543353)" stroke="#1DA1F2" stroke-linecap="round" stroke-linejoin="round" stroke-width="2">
                        <path d="M28.0924523,2.56706823 C28.5830616,1.95233184 28.9642616,1.24121855 29.2054923,0.465898838 C28.0121732,1.19445559 26.6944545,1.72394316 25.2910983,2.01151003 C24.1673474,0.772825848 22.5673584,0 20.794762,0 C17.3927424,0 14.6328662,2.85067877 14.6328662,6.36494848 C14.6328662,6.86401877 14.6876977,7.35065482 14.7920695,7.81517658 C12.2064528,7.68183142 9.76857302,6.96949478 7.5973365,5.80087249" id="twitter"></path>
                        <path d="M4.07004,3.29294351 C3.3570223,2.64048109 2.6958358,1.92884613 2.0936681,1.16545589 C1.56255939,2.10417947 1.2602221,3.19770314 1.2602221,4.36591318 C1.2602221,6.57511532 2.34920856,8.5244137 4.00003131,9.66496062 C2.99131277,9.62903501 2.04150179,9.34146814 1.20938836,8.86451215 L1.20938836,8.94470686 C1.20938836,12.0290033 3.33382322,14.6018358 6.15123521,15.1879862 C5.63486319,15.3317696 5.09035036,15.4105468 4.52714231,15.4105468 C4.1298004,15.4105468 3.74453004,15.3704494 3.36725512,15.2916723 C4.15119996,17.8229898 6.42680346,19.6630938 9.12110923,19.7142483 C7.01407621,21.421626 4.35586749,22.4349549 1.46888735,22.4349549 C0.971210535,22.4349549 0.481607548,22.4045377 0,22.3478748 C2.72644429,24.1575615 5.96389113,25.2123649 9.44351351,25.2123649 C20.7773602,25.2123649 27.1865784,16.2289378 27.1865784,7.81517658 L27.1665115,6.99123673 C28.378565,6.09815933 29.6263403,4.73572394 30.4504191,3.45831948" id="twitter-copy"></path>
                    </g>
                </g>
                <g id="Group-7" opacity="0.200000003" transform="translate(53.000000, 43.000000)" stroke="#000000" stroke-dasharray="2,4" stroke-linecap="round" stroke-linejoin="round" stroke-width="1.2">
                    <path d="M100.710548,175.021583 C112.879209,182.19958 126.806168,186.714349 141.689694,187.764162" id="Oval" transform="translate(121.200121, 181.392873) scale(-1, 1) translate(-121.200121, -181.392873) "></path>
                    <path d="M177.647354,72.3255647 C176.005185,79.2836295 175.136252,86.5403397 175.136252,94 C175.136252,111.326119 179.823852,127.55739 188,141.494763" id="Oval-Copy-3" transform="translate(181.568126, 106.910164) scale(-1, 1) translate(-181.568126, -106.910164) "></path>
                    <path d="M46.5506406,188 C98.4654071,188 140.550641,145.914766 140.550641,94 C140.550641,42.0852335 98.4654071,0 46.5506406,0 C29.6143099,0 13.7241189,4.47905696 0,12.3172386" id="Oval-Copy-2" transform="translate(70.275320, 94.000000) scale(-1, 1) translate(-70.275320, -94.000000) "></path>
                </g>
                <path d="M32.726199,188.283561 C40.9719654,207.672769 54.1747891,224.44585 70.7437527,237.011887 M263.113137,141.377677 C263.113137,106.254532 248.01741,74.6571824 223.960081,52.7197532" id="Oval-2" stroke="#000000" opacity="0.200000003" stroke-linecap="round" stroke-linejoin="round" stroke-dasharray="2,4" transform="translate(147.919668, 144.865820) rotate(40.000000) translate(-147.919668, -144.865820) "></path>
                <g id="Group-23" transform="translate(262.172779, 91.807792) rotate(10.000000) translate(-262.172779, -91.807792) translate(244.672779, 70.269331)">
                    <path d="M26.5550127,8.08292555 L26.5550127,8.08292555 C28.4521913,10.1528262 29.5046195,12.8586526 29.5046195,15.6664587 L29.5046195,28.592422 C29.5046195,31.9557452 28.4018351,35.2262993 26.3652532,37.9029161 L25.9120348,38.4985671 C24.1839015,40.7697993 21.6695707,42.3134532 18.8621795,42.826771 L18.8621795,42.826771 C16.1083983,43.3302865 13.2762591,42.5362102 11.1856617,40.6744257 L9.54319688,39.2117265 C6.40815835,36.4198136 4.69804362,32.3638819 4.88770952,28.1701639 L5.48827866,14.8909314" id="Path-3-Copy-17" stroke="#000000" stroke-width="1.2" stroke-linecap="round"></path>
                    <path d="M6.90407934,6.41551143 C4.2416139,6.41551143 1.24239694,11.3561807 0.619064565,13.7362462 C5.16881741,15.4249448 11.417918,14.4690418 15.1997211,12.2539314 C15.1997211,13.2309922 14.9096069,14.7075931 14.3293785,16.6837342 C18.2071872,15.6382841 21.1330345,14.1616832 23.1069204,12.2539314 C25.0808063,10.3461795 26.5497532,8.0734955 27.5137613,5.43587925 C21.9386139,-0.268516126 14.4902993,-0.612833018 5.16881741,4.40292858 C5.83263179,6.41551143 7.33723191,5.39182621 6.90407934,6.41551143 Z" id="Path-3-Copy-17" stroke="#000000" stroke-width="1.2" stroke-linecap="round" stroke-linejoin="round"></path>
                    <path d="M13.884953,22.2623674 C12.9308604,22.2669777 12.1136663,22.3160125 11.4333709,22.4094717" id="Path-3-Copy-17" stroke="#000000" stroke-width="0.8" stroke-linecap="round" transform="translate(12.659162, 22.711085) rotate(-7.000000) translate(-12.659162, -22.711085) "></path>
                    <path d="M25.5064781,21.6527482 C24.430378,21.58045 23.4583755,21.9093549 22.5904706,22.6394628" id="Path-3-Copy-18" stroke="#000000" stroke-width="0.8" stroke-linecap="round" transform="translate(24.048474, 22.141220) rotate(33.000000) translate(-24.048474, -22.141220) "></path>
                    <path d="M17.2444353,40.3901262 C17.6091537,41.1569844 18.0209425,41.8937041 18.4798017,42.6002853" id="Path-3-Copy-29" stroke="#000000" stroke-width="0.8" stroke-linecap="round" transform="translate(17.862119, 41.495206) rotate(33.000000) translate(-17.862119, -41.495206) "></path>
                    <path d="M31.7908649,24.9891144 C32.4509462,23.772385 33.1720463,20.17925 31.8516981,19.1078747 C30.391408,17.9229457 29.1064395,17.6907878 27.9967927,18.4114008" id="Path-3-Copy-27" stroke="#000000" stroke-linecap="round" transform="translate(30.293960, 21.495874) rotate(33.000000) translate(-30.293960, -21.495874) "></path>
                    <path d="M6.35241833,24.5284768 C7.01249958,23.3117474 7.83231241,21.6812959 6.13745008,19.9395239 C4.76777072,18.5319352 3.41112205,18.1977255 2.06750407,18.9368949" id="Path-3-Copy-28" stroke="#000000" stroke-linecap="round" transform="translate(4.604733, 21.541803) scale(-1, 1) rotate(33.000000) translate(-4.604733, -21.541803) "></path>
                    <path d="M20.821891,32.8105934 C19.6774283,35.184033 17.8154833,36.1941452 15.2360561,35.84093" id="Path-3-Copy-19" stroke="#000000" stroke-linecap="round" transform="translate(18.028974, 34.360079) rotate(33.000000) translate(-18.028974, -34.360079) "></path>
                    <path d="M20.2162125,29.0641643 C20.0000127,29.5404635 18.742103,30.4108254 18.133899,30.1565165 C17.6784402,29.9660752 17.6842457,29.1478067 16.9058192,27.3980989 C16.7179634,26.9758461 16.2074364,26.1897035 15.3742382,25.0396711" id="Path-3-Copy-23" stroke="#000000" stroke-width="0.8" stroke-linecap="round" transform="translate(17.795225, 27.620904) rotate(33.000000) translate(-17.795225, -27.620904) "></path>
                    <circle id="Oval" fill="#000000" cx="13.1025641" cy="24.7692308" r="1"></circle>
                    <circle id="Oval-Copy" fill="#000000" cx="23.0641012" cy="24.7692308" r="1"></circle>
                </g>
                <path d="" id="Oval-Copy" stroke="#000000" stroke-width="1.2" stroke-linecap="round" stroke-linejoin="round" stroke-dasharray="2,4" transform="translate(227.636252, 184.994763) scale(-1, 1) translate(-227.636252, -184.994763) "></path>
            </g>
        </g>
    </g>
</svg>