<?xml version="1.0" encoding="UTF-8"?>
<svg width="558px" height="721px" viewBox="0 0 558 721" version="1.1" xmlns="http://www.w3.org/2000/svg" xmlns:xlink="http://www.w3.org/1999/xlink">
    <!-- Generator: Sketch 49.2 (51160) - http://www.bohemiancoding.com/sketch -->
    <title>Group 21</title>
    <desc>Created with Sketch.</desc>
    <defs></defs>
    <g id="Login" stroke="none" stroke-width="1" fill="none" fill-rule="evenodd">
        <g id="Group-21" transform="translate(-13.000000, -25.000000)" stroke="#000000">
            <g id="Group-11" transform="translate(129.000000, 397.000000)">
                <g id="Group-Copy-6" transform="translate(232.500000, 5.000000) scale(-1, 1) translate(-232.500000, -5.000000) translate(218.000000, 0.000000)" stroke-linecap="round" stroke-linejoin="round">
                    <path d="M0.382352941,8.61423547 C6.79628831,6.98456536 12.1785155,7.31739731 16.5290346,9.61273131 C17.9368279,4.16081628 22.0223878,1.10279462 28.7857143,0.438666334" id="Path-3-Copy-12"></path>
                </g>
                <g id="Group-10-Copy-2" transform="translate(174.071429, 139.341270) scale(-1, 1) translate(-174.071429, -139.341270) translate(149.071429, 126.642857)" stroke-linecap="round" stroke-linejoin="round">
                    <path d="M9.96144527,8.41431901 C9.95747927,8.31027719 9.95547825,8.20573195 9.95547825,8.10071935 C9.95547825,3.63316585 13.5771459,0.0114981654 18.0446994,0.0114981654 L30.9904052,0.0114981654 C35.4579586,0.0114981654 39.0796263,3.63316585 39.0796263,8.10071935 C39.0796263,12.5682728 35.4579586,16.1899405 30.9904052,16.1899405 L30.8044669,16.1899405 C30.8161391,16.37029 30.8220657,16.552205 30.8220657,16.7355042 C30.8220657,21.3311678 27.0965442,25.0566893 22.5008806,25.0566893 L8.32118517,25.0566893 C3.7255215,25.0566893 4.11552016e-15,21.3311678 3.55271368e-15,16.7355042 C2.9899072e-15,12.1398405 3.7255215,8.41431901 8.32118517,8.41431901 L9.96144527,8.41431901 Z" id="Combined-Shape"></path>
                    <path d="M49.3764172,8.10657596 L49.3764172,15.1077098 C49.3764172,18.9743292 46.2419029,22.1088435 42.3752834,22.1088435 L42.1520819,22.1088435 C38.4087333,22.1088435 35.3741497,19.0742599 35.3741497,15.3309113" id="Rectangle-4-Copy-31" transform="translate(42.375283, 15.107710) scale(-1, 1) rotate(90.000000) translate(-42.375283, -15.107710) "></path>
                </g>
                <g id="Group-16-Copy-5" transform="translate(224.379619, 74.517082) rotate(-20.000000) translate(-224.379619, -74.517082) translate(214.879619, 69.017082)" stroke-linecap="round">
                    <path d="M9.47142857,7.13142857 C14.7023541,7.13142857 18.9428571,5.53500391 18.9428571,3.56571429 C18.9428571,1.59642466 14.7023541,0 9.47142857,0 C4.24050301,0 0,1.59642466 0,3.56571429 C0,4.50390724 0.962459631,5.35747167 2.53594646,5.99410362" id="Oval-Copy-3" transform="translate(9.471429, 3.565714) scale(1, -1) translate(-9.471429, -3.565714) "></path>
                    <path d="M18.9428571,10.0285714 C18.9428571,9.46878074 18.9428571,8.52595024 18.9428571,7.20007994 C18.9428571,5.2112745 14.7023541,3.59902913 9.47142857,3.59902913 C4.24050301,3.59902913 0,5.2112745 0,7.20007994 C0,7.83174029 0,8.77457079 0,10.0285714" id="Oval-Copy-13" transform="translate(9.471429, 6.813800) scale(1, -1) translate(-9.471429, -6.813800) "></path>
                </g>
                <g id="Group-3" transform="translate(389.000000, 247.285714) scale(-1, 1) translate(-389.000000, -247.285714) translate(337.000000, 145.785714)">
                    <polyline id="Combined-Shape" stroke-linecap="round" stroke-linejoin="round" points="77.5500696 171.371756 77.5500696 138.889783 25.6187066 138.889783 25.6187066 202.33534"></polyline>
                    <path d="M0.406661353,202.428571 L0.406661353,2.92693085 C0.406661353,1.82236135 1.30209185,0.926930854 2.40666135,0.926930854 L101.886645,0.926930854 C102.991214,0.926930854 103.886645,1.82236135 103.886645,2.92693085 L103.886645,202.428571" id="Combined-Shape-Copy" stroke-linecap="round" stroke-linejoin="round"></path>
                    <rect id="Rectangle-4-Copy-5" x="60.1213887" y="70.0899697" width="23.4220867" height="38.6710301" rx="1"></rect>
                    <rect id="Rectangle-4" x="60.1213887" y="19.7382776" width="23.4220867" height="38.6710301" rx="1"></rect>
                    <rect id="Rectangle-4-Copy" x="20.4354978" y="19.7382776" width="23.4220867" height="38.6710301" rx="1"></rect>
                    <rect id="Rectangle-4-Copy-4" x="20.4354978" y="70.0899697" width="23.4220867" height="38.6710301" rx="1"></rect>
                    <path d="M50.949156,200.996102 L50.949156,146.710665" id="Path-3" stroke-linecap="round"></path>
                    <path d="M65.7269104,53.0500035 L65.7269104,20.7640865" id="Path-3-Copy" stroke-linecap="round"></path>
                    <path d="M65.7269104,103.401696 L65.7269104,71.1157785" id="Path-3-Copy-2" stroke-linecap="round"></path>
                    <path d="M26.0410195,53.0500035 L26.0410195,20.7640865" id="Path-3-Copy-4" stroke-linecap="round"></path>
                    <path d="M26.0410195,103.401696 L26.0410195,71.1157785" id="Path-3-Copy-3" stroke-linecap="round"></path>
                </g>
                <g id="Group-7-Copy" transform="translate(298.714286, 146.571429) scale(-1, 1) translate(-298.714286, -146.571429) translate(249.214286, 57.571429)" stroke-linecap="round">
                    <polyline id="Rectangle-4-Copy-21" stroke-linejoin="round" points="98.1784691 177.495291 98.1784691 0 0 0 0 73.3181367"></polyline>
                    <path d="M22.6249488,33.9050597 C27.1689366,33.9050597 30.8525665,30.2260273 30.8525665,25.6877109 C30.8525665,21.1493944 27.1689366,17.470362 22.6249488,17.470362 C18.080961,17.470362 14.3973311,21.1493944 14.3973311,25.6877109 C14.3973311,27.8498187 15.2333982,29.8168963 16.600251,31.2840432" id="Oval-Copy-3" transform="translate(22.624949, 25.687711) rotate(-150.000000) translate(-22.624949, -25.687711) "></path>
                    <path d="M49.5535203,33.9050597 C54.097508,33.9050597 57.781138,30.2260273 57.781138,25.6877109 C57.781138,21.1493944 54.097508,17.470362 49.5535203,17.470362 C45.0095325,17.470362 41.3259026,21.1493944 41.3259026,25.6877109 C41.3259026,27.8498187 42.1619697,29.8168963 43.5288224,31.2840432" id="Oval-Copy-10" transform="translate(49.553520, 25.687711) rotate(-150.000000) translate(-49.553520, -25.687711) "></path>
                    <path d="M75.5535203,33.9050597 C80.097508,33.9050597 83.781138,30.2260273 83.781138,25.6877109 C83.781138,21.1493944 80.097508,17.470362 75.5535203,17.470362 C71.0095325,17.470362 67.3259026,21.1493944 67.3259026,25.6877109 C67.3259026,27.8498187 68.1619697,29.8168963 69.5288224,31.2840432" id="Oval-Copy-11" transform="translate(75.553520, 25.687711) rotate(-150.000000) translate(-75.553520, -25.687711) "></path>
                    <polyline id="Rectangle-4-Copy-25" stroke-linejoin="round" points="76.701929 128.237686 76.701929 106.938475 87.440199 106.938475 87.440199 134.43694 76.701929 134.43694"></polyline>
                    <polyline id="Rectangle-4-Copy-27" stroke-linejoin="round" points="76.701929 71.8090612 76.701929 65.6907775 87.440199 65.6907775 87.440199 93.1892425 76.701929 93.1892425 76.701929 76.3727884"></polyline>
                    <polyline id="Rectangle-4-Copy-26" stroke-linejoin="round" points="76.701929 160.835601 76.701929 148.186173 87.440199 148.186173 87.440199 168.474064"></polyline>
                </g>
                <g id="Group-7-Copy-2" transform="translate(259.928571, 297.142857) scale(-1, 1) translate(-259.928571, -297.142857) translate(200.428571, 245.142857)">
                    <polyline id="Rectangle-4-Copy-21" stroke-linecap="round" stroke-linejoin="round" points="118.607041 103.071429 118.607041 0 0 0"></polyline>
                    <polyline id="Rectangle-4-Copy-25" stroke-linecap="round" stroke-linejoin="round" points="69.6428571 83.5134964 69.6428571 62.2142857 80.3811272 62.2142857 80.3811272 89.7127507 69.6428571 89.7127507"></polyline>
                    <polyline id="Rectangle-4-Copy-27" stroke-linecap="round" stroke-linejoin="round" points="97.5 68.3325694 97.5 62.2142857 108.23827 62.2142857 108.23827 89.7127507 97.5 89.7127507 97.5 72.8962966"></polyline>
                    <polyline id="Rectangle-4-Copy-26" stroke-linecap="round" stroke-linejoin="round" points="41.7857143 74.8637146 41.7857143 62.2142857 52.5239843 62.2142857 52.5239843 82.5021771"></polyline>
                    <rect id="Rectangle-4" x="2.35714286" y="10.7142857" width="45.2109375" height="35.8642864" rx="1"></rect>
                    <path d="M8.27734375,40.3471381 L8.27734375,12.0714286" id="Path-3-Copy" stroke-linecap="round"></path>
                    <rect id="Rectangle-4-Copy-22" x="62.7142857" y="10.7142857" width="45.2109375" height="35.8642864" rx="1"></rect>
                    <path d="M69.563058,40.3471381 L69.563058,12.0714286" id="Path-3-Copy-13" stroke-linecap="round"></path>
                </g>
                <g id="Group-2" transform="translate(0.000000, 143.718944)" stroke-linecap="round">
                    <path d="M236.349202,54.2422193 C215.56222,40.1361049 190.473011,31.8944099 163.458851,31.8944099 C91.6785564,31.8944099 33.4891304,90.0838359 33.4891304,161.86413 C33.4891304,173.212626 34.9436185,184.221407 37.6763483,194.714228" id="Oval-Copy-12"></path>
                    <path d="M15.4243446,92.4577219 C5.52978912,113.524958 0,137.048769 0,161.86413" id="Oval-Copy-15"></path>
                    <path d="M138.64532,0.276544423 C91.736818,7.42031469 51.3825058,34.5023745 26.4992793,72.6058274" id="Oval-Copy-16"></path>
                    <path d="M236.200031,15.4424313 C226.813897,10.770468 216.915081,6.9744564 206.610589,4.16140321" id="Oval-Copy-17"></path>
                    <path d="M163.060171,62.9914596 C108.674488,62.9914596 64.5861801,107.079767 64.5861801,161.46545 C64.5861801,173.192848 66.6361977,184.441439 70.3974266,194.872417" id="Oval-Copy-3"></path>
                    <path d="M236.087082,95.4022437 C220.268014,77.9264749 198.263559,66.1548117 173.527684,63.5412214" id="Oval-Copy-4"></path>
                </g>
                <g id="Group-16-Copy-14" transform="translate(301.437857, 23.636461) scale(-1, 1) rotate(-11.000000) translate(-301.437857, -23.636461) translate(288.937857, 17.136461)" stroke-linecap="round">
                    <path d="M12.4222181,9.39362839 C19.2828197,9.39362839 24.8444362,7.29079305 24.8444362,4.69681419 C24.8444362,2.10283534 19.2828197,1.0658141e-13 12.4222181,1.0658141e-13 C5.56161649,1.0658141e-13 0,2.10283534 0,4.69681419 C0,5.93261651 1.26231047,7.05694483 3.32601147,7.89552631" id="Oval-Copy-3" transform="translate(12.422218, 4.696814) scale(1, -1) translate(-12.422218, -4.696814) "></path>
                    <g id="Group" transform="translate(11.866648, 4.486236) scale(-1, 1) translate(-11.866648, -4.486236) translate(4.866648, 1.486236)" stroke-width="0.8">
                        <ellipse id="Oval-Copy-3" transform="translate(5.950000, 2.975000) rotate(-1.000000) translate(-5.950000, -2.975000) " cx="5.95" cy="2.975" rx="5.25" ry="1.575"></ellipse>
                        <path d="M8.2397407,-0.595804712 L8.2397407,-0.595804712 C9.24726702,0.103312845 9.85736338,1.24408402 9.8794776,2.47021028 L9.90855629,4.08248302 C9.92776259,5.1473794 10.4192077,6.14867043 11.2498553,6.81530213" id="Path-9" transform="translate(9.744798, 3.109749) rotate(110.000000) translate(-9.744798, -3.109749) "></path>
                    </g>
                    <path d="M24.8444362,12.3874944 C24.8444362,12.6359396 24.8444362,11.8604722 24.8444362,10.0610924 C24.8444362,7.36202255 19.2828197,5.17399415 12.4222181,5.17399415 C5.56161649,5.17399415 0,7.36202255 0,10.0610924 C0,10.9183383 0,11.6938056 0,12.3874944" id="Oval-Copy-13" transform="translate(12.422218, 8.803351) scale(1, -1) translate(-12.422218, -8.803351) "></path>
                </g>
            </g>
            <g id="Group-4" transform="translate(79.053804, 94.074654) rotate(18.000000) translate(-79.053804, -94.074654) translate(22.053804, 13.679132)">
                <g id="Group-17">
                    <g id="Group-16-Copy-3" transform="translate(81.702097, 56.508742)" stroke-linecap="round">
                        <path d="M15.5695828,11.7165032 C24.1684259,11.7165032 31.1391656,9.09367462 31.1391656,5.8582516 C31.1391656,2.62282858 24.1684259,0 15.5695828,0 C6.97073965,0 0,2.62282858 0,5.8582516 C0,7.39964553 1.58213672,8.80199996 4.16870888,9.84794751" id="Oval-Copy-3" transform="translate(15.569583, 5.858252) scale(1, -1) translate(-15.569583, -5.858252) "></path>
                        <path d="M31.1391656,14.5908947 C31.1391656,14.8916618 31.1391656,13.9528832 31.1391656,11.774559 C31.1391656,8.50707263 24.1684259,5.8582516 15.5695828,5.8582516 C6.97073965,5.8582516 0,8.50707263 0,11.774559 C0,12.8123385 0,13.7511171 0,14.5908947" id="Oval-Copy-13" transform="translate(15.569583, 10.251940) scale(1, -1) translate(-15.569583, -10.251940) "></path>
                    </g>
                    <g id="Group-16-Copy-5" transform="translate(43.236069, 45.524520)" stroke-linecap="round">
                        <path d="M15.5695828,11.7165032 C24.1684259,11.7165032 31.1391656,9.09367462 31.1391656,5.8582516 C31.1391656,2.62282858 24.1684259,0 15.5695828,0 C6.97073965,0 0,2.62282858 0,5.8582516 C0,7.39964553 1.58213672,8.80199996 4.16870888,9.84794751" id="Oval-Copy-3" transform="translate(15.569583, 5.858252) scale(1, -1) translate(-15.569583, -5.858252) "></path>
                        <path d="M31.1391656,14.5908947 C31.1391656,14.8916618 31.1391656,13.9528832 31.1391656,11.774559 C31.1391656,8.50707263 24.1684259,5.8582516 15.5695828,5.8582516 C6.97073965,5.8582516 0,8.50707263 0,11.774559 C0,12.8123385 0,13.7511171 0,14.5908947" id="Oval-Copy-13" transform="translate(15.569583, 10.251940) scale(1, -1) translate(-15.569583, -10.251940) "></path>
                    </g>
                    <g id="Group-16-Copy-4" transform="translate(43.236069, 56.508742)" stroke-linecap="round">
                        <path d="M30.0258042,8.23816631 C30.7440087,7.60653148 31.1391656,6.91690404 31.1391656,6.19472031 C31.1391656,3.16151123 24.1684259,0.702609432 15.5695828,0.702609432 C6.97073965,0.702609432 0,3.16151123 0,6.19472031 C0,6.9010452 0.37799251,7.57622794 1.06651508,8.1964714" id="Oval-Copy-3" transform="translate(15.569583, 4.470388) scale(1, -1) translate(-15.569583, -4.470388) "></path>
                        <path d="M31.1391656,10.9329084 C31.1391656,11.2148775 31.1391656,10.3347726 31.1391656,8.2925936 C31.1391656,5.22932516 24.1684259,2.74605544 15.5695828,2.74605544 C6.97073965,2.74605544 0,5.22932516 0,8.2925936 C0,9.26551189 0,10.1456168 0,10.9329084" id="Oval-Copy-13" transform="translate(15.569583, 6.865139) scale(1, -1) translate(-15.569583, -6.865139) "></path>
                    </g>
                    <g id="Group-21-Copy-5" transform="translate(81.824942, 27.411368) rotate(13.000000) translate(-81.824942, -27.411368) translate(64.810017, 3.590473)">
                        <path d="M19.9761581,47.5095875 C29.0415094,47.0783403 33.9327107,44.0379836 33.650293,36.7011575 C33.360992,29.1855114 29.4771486,22.5888119 21.9987629,16.9110589 L27.6924891,4.54545397 L21.3304885,7.81318523 C20.5796346,8.19884829 19.681381,8.16170819 18.9649276,7.71537636 L17.3530302,6.71120615 C16.5740216,6.22590408 15.5864515,6.22737871 14.8088958,6.71500504 L10.9869679,9.11183969 C10.2829657,9.55333861 9.40067356,9.59924509 8.65465362,9.23319218 L1.75064519,5.84557176 L5.59334426,16.1357576 C0.734560833,28.3770606 -0.765480742,36.4714779 1.09321953,40.4190095" id="Path-6" stroke-linecap="round" stroke-linejoin="round"></path>
                        <g id="Group" transform="translate(14.549648, 33.702480) rotate(10.000000) translate(-14.549648, -33.702480) translate(8.169051, 27.747257)">
                            <circle id="Oval-Copy-3" cx="5.33955224" cy="5.33955224" r="5.33955224"></circle>
                            <path d="M7.42512318,4.02980788 L7.86975459,4.44761691 C9.13093918,5.63272056 9.20605313,7.61118126 8.0383565,8.88849947 L7.84256534,9.1026712 C6.76283615,10.2837637 6.76845161,12.0952576 7.85548254,13.2696334" id="Path-9" stroke-linecap="square" transform="translate(7.951826, 8.649721) rotate(110.000000) translate(-7.951826, -8.649721) "></path>
                        </g>
                        <path d="M6.4750852,17.0317755 C10.9742643,20.0235353 15.0460717,20.735562 18.6905074,19.1678558" id="Path-7" stroke-linecap="round" stroke-linejoin="round"></path>
                        <path d="M1.67284771,5.63688931 C1.3121635,2.33868627 3.33674617,1.20732204 7.74659571,2.24279661 C14.36137,3.79600847 15.6391557,-2.0719873 21.1773981,1.04873208" id="Path-7-Copy" stroke-linecap="round" stroke-linejoin="round"></path>
                    </g>
                    <g id="Group-16-Copy-8" transform="translate(43.236069, 63.831557)" stroke-linecap="round">
                        <path d="M30.0258042,8.23816631 C30.7440087,7.60653148 31.1391656,6.91690404 31.1391656,6.19472031 C31.1391656,3.16151123 24.1684259,0.702609432 15.5695828,0.702609432 C6.97073965,0.702609432 0,3.16151123 0,6.19472031 C0,6.9010452 0.37799251,7.57622794 1.06651508,8.1964714" id="Oval-Copy-3" transform="translate(15.569583, 4.470388) scale(1, -1) translate(-15.569583, -4.470388) "></path>
                        <path d="M31.1391656,10.9329084 C31.1391656,11.2148775 31.1391656,10.3347726 31.1391656,8.2925936 C31.1391656,5.22932516 24.1684259,2.74605544 15.5695828,2.74605544 C6.97073965,2.74605544 0,5.22932516 0,8.2925936 C0,9.26551189 0,10.1456168 0,10.9329084" id="Oval-Copy-13" transform="translate(15.569583, 6.865139) scale(1, -1) translate(-15.569583, -6.865139) "></path>
                    </g>
                    <g id="Group-21-Copy" transform="translate(18.043535, 51.334542) scale(-1, 1) translate(-18.043535, -51.334542) translate(0.177863, 25.386780)" stroke-linecap="round">
                        <g id="Group-16" transform="translate(1.831716, 0.000000)">
                            <path d="M15.5695828,11.7165032 C24.1684259,11.7165032 31.1391656,9.09367462 31.1391656,5.8582516 C31.1391656,2.62282858 24.1684259,0 15.5695828,0 C6.97073965,0 0,2.62282858 0,5.8582516 C0,7.39964553 1.58213672,8.80199996 4.16870888,9.84794751" id="Oval-Copy-3" transform="translate(15.569583, 5.858252) scale(1, -1) translate(-15.569583, -5.858252) "></path>
                            <path d="M31.1391656,14.5908947 C31.1391656,14.8916618 31.1391656,13.9528832 31.1391656,11.774559 C31.1391656,8.50707263 24.1684259,5.8582516 15.5695828,5.8582516 C6.97073965,5.8582516 0,8.50707263 0,11.774559 C0,12.8123385 0,13.7511171 0,14.5908947" id="Oval-Copy-13" transform="translate(15.569583, 10.251940) scale(1, -1) translate(-15.569583, -10.251940) "></path>
                        </g>
                        <g id="Group-16-Copy" transform="translate(0.000000, 10.679104)">
                            <path d="M30.5926823,7.22317548 C30.9489787,6.76198917 31.1391656,6.27664051 31.1391656,5.77562268 C31.1391656,2.7424136 24.1684259,0.283511803 15.5695828,0.283511803 C6.97073965,0.283511803 0,2.7424136 0,5.77562268 C0,6.48194757 0.37799251,7.15713031 1.06651508,7.77737377 C1.23624938,7.93027594 1.77424649,8.1855792 2.68050642,8.54328358" id="Oval-Copy-3" transform="translate(15.569583, 4.413398) scale(1, -1) translate(-15.569583, -4.413398) "></path>
                            <path d="M31.1391656,11.2380257 C31.1391656,11.5199948 31.1391656,10.6398898 31.1391656,8.59771087 C31.1391656,5.53444243 24.1684259,3.05117271 15.5695828,3.05117271 C6.97073965,3.05117271 0,5.53444243 0,8.59771087 C0,9.57062916 0,10.4507341 0,11.2380257" id="Oval-Copy-13" transform="translate(15.569583, 7.170256) scale(1, -1) translate(-15.569583, -7.170256) "></path>
                        </g>
                        <g id="Group-16-Copy-2" transform="translate(1.831716, 18.001919)">
                            <path d="M28.5985213,8.54328358 C29.3611892,8.17785017 29.8369502,7.91208832 30.0258042,7.74599804 C30.7440087,7.11436321 31.1391656,6.42473577 31.1391656,5.70255203 C31.1391656,2.66934295 24.1684259,0.210441159 15.5695828,0.210441159 C6.97073965,0.210441159 0,2.66934295 0,5.70255203 C0,6.12914088 0.137877422,6.54437024 0.398770273,6.9429976" id="Oval-Copy-3" transform="translate(15.569583, 4.376862) scale(1, -1) translate(-15.569583, -4.376862) "></path>
                            <path d="M31.1391656,11.2380257 C31.1391656,11.5199948 31.1391656,10.6398898 31.1391656,8.59771087 C31.1391656,5.53444243 24.1684259,3.05117271 15.5695828,3.05117271 C6.97073965,3.05117271 0,5.53444243 0,8.59771087 C0,9.57062916 0,10.4507341 0,11.2380257" id="Oval-Copy-13" transform="translate(15.569583, 7.170256) scale(1, -1) translate(-15.569583, -7.170256) "></path>
                        </g>
                        <g id="Group-16-Copy-6" transform="translate(3.663431, 25.324733)">
                            <path d="M28.5985213,8.54328358 C29.3611892,8.17785017 29.8369502,7.91208832 30.0258042,7.74599804 C30.7440087,7.11436321 31.1391656,6.42473577 31.1391656,5.70255203 C31.1391656,2.66934295 24.1684259,0.210441159 15.5695828,0.210441159 C6.97073965,0.210441159 0,2.66934295 0,5.70255203 C0,6.12914088 0.137877422,6.54437024 0.398770273,6.9429976" id="Oval-Copy-3" transform="translate(15.569583, 4.376862) scale(1, -1) translate(-15.569583, -4.376862) "></path>
                            <path d="M31.1391656,11.2380257 C31.1391656,11.5199948 31.1391656,10.6398898 31.1391656,8.59771087 C31.1391656,5.53444243 24.1684259,3.05117271 15.5695828,3.05117271 C6.97073965,3.05117271 0,5.53444243 0,8.59771087 C0,9.57062916 0,10.4507341 0,11.2380257" id="Oval-Copy-13" transform="translate(15.569583, 7.170256) scale(1, -1) translate(-15.569583, -7.170256) "></path>
                        </g>
                        <g id="Group-16-Copy-7" transform="translate(17.232075, 45.925586) scale(-1, 1) translate(-17.232075, -45.925586) translate(1.493269, 39.970362)">
                            <path d="M28.5985213,8.54328358 C29.3611892,8.17785017 29.8369502,7.91208832 30.0258042,7.74599804 C30.7440087,7.11436321 31.1391656,6.42473577 31.1391656,5.70255203 C31.1391656,2.66934295 24.1684259,0.210441159 15.5695828,0.210441159 C6.97073965,0.210441159 0,2.66934295 0,5.70255203 C0,6.12914088 0.137877422,6.54437024 0.398770273,6.9429976" id="Oval-Copy-3" transform="translate(15.569583, 4.376862) scale(1, -1) translate(-15.569583, -4.376862) "></path>
                            <path d="M31.1391656,11.2380257 C31.1391656,11.5199948 31.1391656,10.6398898 31.1391656,8.59771087 C31.1391656,5.53444243 24.1684259,3.05117271 15.5695828,3.05117271 C6.97073965,3.05117271 0,5.53444243 0,8.59771087 C0,9.57062916 0,10.4507341 0,11.2380257" id="Oval-Copy-13" transform="translate(15.569583, 7.170256) scale(1, -1) translate(-15.569583, -7.170256) "></path>
                        </g>
                        <g id="Group-16-Copy-4" transform="translate(3.663431, 32.952665)">
                            <path d="M30.0258042,8.23816631 C30.7440087,7.60653148 31.1391656,6.91690404 31.1391656,6.19472031 C31.1391656,3.16151123 24.1684259,0.702609432 15.5695828,0.702609432 C6.97073965,0.702609432 0,3.16151123 0,6.19472031 C0,6.9010452 0.37799251,7.57622794 1.06651508,8.1964714" id="Oval-Copy-3" transform="translate(15.569583, 4.470388) scale(1, -1) translate(-15.569583, -4.470388) "></path>
                            <path d="M31.1391656,10.9329084 C31.1391656,11.2148775 31.1391656,10.3347726 31.1391656,8.2925936 C31.1391656,5.22932516 24.1684259,2.74605544 15.5695828,2.74605544 C6.97073965,2.74605544 0,5.22932516 0,8.2925936 C0,9.26551189 0,10.1456168 0,10.9329084" id="Oval-Copy-13" transform="translate(15.569583, 6.865139) scale(1, -1) translate(-15.569583, -6.865139) "></path>
                        </g>
                    </g>
                </g>
                <path d="M108.044776,97.8358209 L108.044776,129.992461" id="Path-7-Copy-10" stroke-linecap="round" stroke-linejoin="round"></path>
                <path d="M53.5970149,85.0746269 L53.5970149,108.501322" id="Path-7-Copy-12" stroke-linecap="round" stroke-linejoin="round"></path>
                <path d="M113.149254,85.0746269 L113.149254,100.48928" id="Path-7-Copy-14" stroke-linecap="round" stroke-linejoin="round"></path>
                <path d="M81.6716418,77.0490577 L81.6716418,98.114189" id="Path-7-Copy-18" stroke-linecap="round" stroke-linejoin="round"></path>
                <path d="M98.6865672,16.1641791 L98.6865672,23.8715056" id="Path-7-Copy-17" stroke-linecap="round" stroke-linejoin="round"></path>
                <path d="M102.089552,21.2686567 L102.089552,42.5200277" id="Path-7-Copy-19" stroke-linecap="round" stroke-linejoin="round"></path>
                <path d="M108.044776,78.2686567 L108.044776,89.4639271" id="Path-7-Copy-15" stroke-linecap="round" stroke-linejoin="round"></path>
                <path d="M12.761194,85.0746269 L12.761194,102.726207" id="Path-7-Copy-5" stroke-linecap="round" stroke-linejoin="round"></path>
                <path d="M46.7910448,95.2835821 L46.7910448,143.312752" id="Path-7-Copy-13" stroke-linecap="round" stroke-linejoin="round"></path>
                <path d="M46.7910448,148.038621 L46.7910448,160.327677" id="Path-7-Copy-16" stroke-linecap="round" stroke-linejoin="round"></path>
                <path d="M3.40298507,81.6716418 L3.40298507,95.004137" id="Path-7-Copy-4" stroke-linecap="round" stroke-linejoin="round"></path>
                <path d="M3.40298507,100.502274 L3.40298507,124.493529" id="Path-7-Copy-6" stroke-linecap="round" stroke-linejoin="round"></path>
            </g>
        </g>
    </g>
</svg>