<?xml version="1.0" encoding="UTF-8"?>
<svg width="482px" height="745px" viewBox="0 0 482 745" version="1.1" xmlns="http://www.w3.org/2000/svg" xmlns:xlink="http://www.w3.org/1999/xlink">
    <!-- Generator: Sketch 49.2 (51160) - http://www.bohemiancoding.com/sketch -->
    <title>Group 8</title>
    <desc>Created with Sketch.</desc>
    <defs></defs>
    <g id="Login" stroke="none" stroke-width="1" fill="none" fill-rule="evenodd" stroke-linecap="round">
        <g id="Group-8" transform="translate(1.000000, -2.000000)" stroke="#000000">
            <g id="Group-4" transform="translate(0.000000, 340.000000)">
                <polyline id="Rectangle-4-Copy-17" stroke-linejoin="round" points="116.508152 406.34943 116.508152 346.924131 0 346.924131 0 393.713358"></polyline>
                <polyline id="Rectangle-4-Copy-43" stroke-linejoin="round" points="349.524457 406.533065 349.524457 282.383618 194.972826 282.383618 194.972826 329.172845"></polyline>
                <polyline id="Rectangle-4-Copy-27" stroke-linejoin="round" transform="translate(30.947478, 360.986337) rotate(90.000000) translate(-30.947478, -360.986337) " points="25.4861583 344.63177 25.4861583 337.350156 36.4087976 337.350156 36.4087976 384.622519 25.4861583 384.622519 25.4861583 350.063243"></polyline>
                <polyline id="Rectangle-4-Copy-29" stroke-linejoin="round" transform="translate(85.560674, 360.986337) scale(1, -1) rotate(90.000000) translate(-85.560674, -360.986337) " points="80.0993546 337.350156 91.0219939 337.350156 91.0219939 384.622519 80.0993546 384.622519 80.0993546 350.063243"></polyline>
                <polyline id="Rectangle-4-Copy-18" stroke-linejoin="round" points="162.673021 406.322184 162.673021 237.350928 30.9474779 237.350928 30.9474779 339.763111"></polyline>
                <polygon id="Rectangle-4" stroke-linejoin="round" points="89.201554 281.938042 89.201554 329.210404 41.8701172 329.210404 41.8701172 281.938042"></polygon>
                <path d="M49.1518767,321.277317 L49.1518767,282.805122" id="Path-3-Copy"></path>
                <polygon id="Rectangle-4-Copy-22" stroke-linejoin="round" points="103.765073 329.210404 103.765073 281.938042 151.09651 281.938042 151.09651 329.210404"></polygon>
                <path d="M111.046833,321.277317 L111.046833,282.805122" id="Path-3-Copy-13"></path>
                <path d="M49.7408931,264.537486 C54.3950611,264.537486 58.1680098,260.769246 58.1680098,256.120887 C58.1680098,251.472528 54.3950611,247.704288 49.7408931,247.704288 C45.086725,247.704288 41.3137763,251.472528 41.3137763,256.120887 C41.3137763,258.33542 42.1701159,260.350195 43.5701114,261.852916" id="Oval-Copy-3" transform="translate(49.740893, 256.120887) rotate(-150.000000) translate(-49.740893, -256.120887) "></path>
                <path d="M77.0474912,264.537486 C81.7016593,264.537486 85.474608,260.769246 85.474608,256.120887 C85.474608,251.472528 81.7016593,247.704288 77.0474912,247.704288 C72.3933231,247.704288 68.6203744,251.472528 68.6203744,256.120887 C68.6203744,258.33542 69.4767141,260.350195 70.8767096,261.852916" id="Oval-Copy-10" transform="translate(77.047491, 256.120887) rotate(-150.000000) translate(-77.047491, -256.120887) "></path>
                <path d="M104.354089,264.537486 C109.008257,264.537486 112.781206,260.769246 112.781206,256.120887 C112.781206,251.472528 109.008257,247.704288 104.354089,247.704288 C99.6999213,247.704288 95.9269726,251.472528 95.9269726,256.120887 C95.9269726,258.33542 96.7833122,260.350195 98.1833077,261.852916" id="Oval-Copy-11" transform="translate(104.354089, 256.120887) rotate(-150.000000) translate(-104.354089, -256.120887) "></path>
                <path d="M131.660688,264.537486 C136.314856,264.537486 140.087804,260.769246 140.087804,256.120887 C140.087804,251.472528 136.314856,247.704288 131.660688,247.704288 C127.006519,247.704288 123.233571,251.472528 123.233571,256.120887 C123.233571,258.33542 124.08991,260.350195 125.489906,261.852916" id="Oval-Copy-12" transform="translate(131.660688, 256.120887) rotate(-150.000000) translate(-131.660688, -256.120887) "></path>
                <polyline id="Rectangle-4-Copy-19" stroke-linejoin="round" points="283.423913 276.110284 283.423913 85.5978261 116.508152 85.5978261 116.508152 201.94735"></polyline>
                <g id="Group-7" transform="translate(222.554348, 0.000000)" stroke-linejoin="round">
                    <path d="M0,11.7671947 C9.2316541,9.42159097 16.9783583,9.90063999 23.2401126,13.2043417 C25.2663663,5.35733506 31.1467617,0.955887814 40.8812986,0" id="Path-3-Copy-7"></path>
                    <path d="M32.7285806,26.8937612 C39.2980378,25.2245757 44.8107705,25.565478 49.2667787,27.9164681 C50.7087075,22.3323578 54.893332,19.2001868 61.8206522,18.5199551" id="Path-3-Copy-12"></path>
                </g>
                <rect id="Rectangle-4" stroke-linejoin="round" x="232.065217" y="114.325906" width="29.0999237" height="47.2696687"></rect>
                <rect id="Rectangle-4-Copy-50" stroke-linejoin="round" x="213.994565" y="370.230455" width="29.0999237" height="7.8445586"></rect>
                <polyline id="Rectangle-4-Copy-51" stroke-linejoin="round" points="265.118931 378.075014 257.744565 378.075014 257.744565 370.230455 286.844489 370.230455 286.844489 378.075014 270.461001 378.075014"></polyline>
                <polyline id="Rectangle-4-Copy-52" stroke-linejoin="round" points="301.494565 374.508403 301.494565 370.230455 330.594489 370.230455 330.594489 378.075014 301.494565 378.075014"></polyline>
                <path d="M243.094489,343.935233 L243.094489,355.332635 L213.994565,355.332635 L213.994565,322.612928 C213.994565,314.577206 220.508805,308.062966 228.544527,308.062966 L228.544527,308.062966 C236.580249,308.062966 243.094489,314.577206 243.094489,322.612928 L243.094489,337.812193" id="Rectangle-4-Copy-44" stroke-linejoin="round"></path>
                <path d="M272.294527,308.062966 L272.294527,308.062966 C280.330249,308.062966 286.844489,314.577206 286.844489,322.612928 L286.844489,355.332635 L257.744565,355.332635 L257.744565,322.612928 C257.744565,314.577206 264.258805,308.062966 272.294527,308.062966 Z" id="Rectangle-4-Copy-45" stroke-linejoin="round"></path>
                <path d="M304.982359,347.3908 L304.982359,323.014053 C304.982359,315.282066 311.250372,309.014053 318.982359,309.014053 L320.528981,309.014053" id="Rectangle-4-Copy-49"></path>
                <path d="M261.235096,347.3908 L261.235096,323.014053 C261.235096,315.282066 267.50311,309.014053 275.235096,309.014053 L276.781718,309.014053" id="Rectangle-4-Copy-53"></path>
                <path d="M217.485096,347.3908 L217.485096,323.014053 C217.485096,315.282066 223.75311,309.014053 231.485096,309.014053 L233.031718,309.014053" id="Rectangle-4-Copy-54"></path>
                <path d="M318.567551,355.332635 L301.494565,355.332635 L301.494565,322.612928 C301.494565,314.577206 308.008805,308.062966 316.044527,308.062966 L316.044527,308.062966 C324.080249,308.062966 330.594489,314.577206 330.594489,322.612928 L330.594489,355.332635 L323.195266,355.332635" id="Rectangle-4-Copy-46" stroke-linejoin="round"></path>
                <rect id="Rectangle-4-Copy" stroke-linejoin="round" x="184.51087" y="114.325906" width="29.0999237" height="47.2696687"></rect>
                <rect id="Rectangle-4-Copy-2" stroke-linejoin="round" x="137.907609" y="114.325906" width="29.0999237" height="47.2696687"></rect>
                <path d="M239.590484,153.746995 L239.590484,115.276993" id="Path-3-Copy"></path>
                <path d="M192.036137,153.746995 L192.036137,115.276993" id="Path-3-Copy-4"></path>
                <path d="M143.530702,153.746995 L143.530702,115.276993" id="Path-3-Copy-64"></path>
                <polyline id="Rectangle-4-Copy-20" stroke-linejoin="round" points="225.734545 276.843361 225.734545 207.415068 109.226393 207.415068 109.226393 228.854876"></polyline>
                <polyline id="Rectangle-4-Copy-29" stroke-linejoin="round" transform="translate(201.041194, 233.402640) scale(1, -1) rotate(90.000000) translate(-201.041194, -233.402640) " points="189.152607 220.676663 212.929781 220.676663 212.929781 246.128617 189.152607 246.128617 189.152607 227.521527"></polyline>
            </g>
            <g id="Group-40" transform="translate(249.000000, 0.000000)">
                <g id="Group-16-Copy-9" transform="translate(12.751691, 74.798581) rotate(-24.000000) translate(-12.751691, -74.798581) translate(2.251691, 69.298581)">
                    <path d="M10.2477752,7.3652459 C15.9074651,7.3652459 20.4955504,5.71647945 20.4955504,3.68262295 C20.4955504,1.64876646 15.9074651,0 10.2477752,0 C4.58808523,0 0,1.64876646 0,3.68262295 C0,4.65157633 1.04134976,5.53312648 2.74381093,6.19063161" id="Oval-Copy-3" transform="translate(10.247775, 3.682623) scale(1, -1) translate(-10.247775, -3.682623) "></path>
                    <path d="M20.4955504,10.357377 C20.4955504,9.77923257 20.4955504,8.8054896 20.4955504,7.43614814 C20.4955504,5.38213595 15.9074651,3.71703008 10.2477752,3.71703008 C4.58808523,3.71703008 0,5.38213595 0,7.43614814 C0,8.08851866 0,9.06226163 0,10.357377" id="Oval-Copy-13" transform="translate(10.247775, 7.037204) scale(1, -1) translate(-10.247775, -7.037204) "></path>
                </g>
                <g id="Group-10" transform="translate(140.539342, 78.427789) rotate(5.000000) translate(-140.539342, -78.427789) translate(54.039342, 15.427789)">
                    <g id="Group-6" transform="translate(88.951447, 55.039664) rotate(-21.000000) translate(-88.951447, -55.039664) translate(58.451447, 51.039664)">
                        <path d="M56.9663599,6.59106059 C58.4838968,6.59106059 59.7141035,5.36085387 59.7141035,3.84331699 C59.7141035,2.3257801 58.4838968,1.09557339 56.9663599,1.09557339 C55.448823,1.09557339 54.2186163,2.3257801 54.2186163,3.84331699 C54.2186163,4.56628957 54.4978342,5.22404733 54.9543164,5.71463665" id="Oval-Copy-3" transform="translate(56.966360, 3.843317) rotate(-150.000000) translate(-56.966360, -3.843317) "></path>
                        <path d="M46.8014706,6.50123116 C48.3190075,6.50123116 49.5492142,5.27102445 49.5492142,3.75348756 C49.5492142,2.23595067 48.3190075,1.00574396 46.8014706,1.00574396 C45.2839337,1.00574396 44.053727,2.23595067 44.053727,3.75348756 C44.053727,4.47646014 44.3329449,5.1342179 44.7894271,5.62480722" id="Oval-Copy-10" transform="translate(46.801471, 3.753488) rotate(-150.000000) translate(-46.801471, -3.753488) "></path>
                        <path d="M35.8104962,6.50123116 C37.3280331,6.50123116 38.5582398,5.27102445 38.5582398,3.75348756 C38.5582398,2.23595067 37.3280331,1.00574396 35.8104962,1.00574396 C34.2929593,1.00574396 33.0627526,2.23595067 33.0627526,3.75348756 C33.0627526,4.47646014 33.3419705,5.1342179 33.7984527,5.62480722" id="Oval-Copy-11" transform="translate(35.810496, 3.753488) rotate(-150.000000) translate(-35.810496, -3.753488) "></path>
                        <path d="M24.8195218,6.50123116 C26.3370587,6.50123116 27.5672654,5.27102445 27.5672654,3.75348756 C27.5672654,2.23595067 26.3370587,1.00574396 24.8195218,1.00574396 C23.3019849,1.00574396 22.0717782,2.23595067 22.0717782,3.75348756 C22.0717782,4.47646014 22.3509961,5.1342179 22.8074783,5.62480722" id="Oval-Copy-19" transform="translate(24.819522, 3.753488) rotate(-150.000000) translate(-24.819522, -3.753488) "></path>
                        <path d="M14.744462,6.50123116 C16.2619988,6.50123116 17.4922056,5.27102445 17.4922056,3.75348756 C17.4922056,2.23595067 16.2619988,1.00574396 14.744462,1.00574396 C13.2269251,1.00574396 11.9967184,2.23595067 11.9967184,3.75348756 C11.9967184,4.47646014 12.2759362,5.1342179 12.7324184,5.62480722" id="Oval-Copy-18" transform="translate(14.744462, 3.753488) rotate(-150.000000) translate(-14.744462, -3.753488) "></path>
                        <path d="M3.75348756,6.50123116 C5.27102445,6.50123116 6.50123116,5.27102445 6.50123116,3.75348756 C6.50123116,2.23595067 5.27102445,1.00574396 3.75348756,1.00574396 C2.23595067,1.00574396 1.00574396,2.23595067 1.00574396,3.75348756 C1.00574396,4.47646014 1.28496185,5.1342179 1.74144403,5.62480722" id="Oval-Copy-14" transform="translate(3.753488, 3.753488) rotate(-150.000000) translate(-3.753488, -3.753488) "></path>
                    </g>
                    <path d="M54.405236,58.2313575 L136.826277,21.8837275 L157.904593,21.8837275 L168.169777,20.5579878 C170.289234,20.2842617 172.229293,21.7805225 172.503019,23.8999799 C172.550125,24.264723 172.544992,24.6343191 172.487775,24.9976134 L172.213638,26.7382076 C171.875452,28.8854725 170.678047,30.8026739 168.896904,32.048727 L150.360621,45.0163564 L101.630021,66.1334596" id="Path-3-Copy-80" stroke-linejoin="round"></path>
                    <path d="M151.095444,21.8687235 L147.597519,28.9804637 L142.115708,33.3591555 C138.92198,31.398973 137.37874,30.3756021 137.485986,30.2890428 C137.593233,30.2024835 139.162271,28.9661886 142.1931,26.5801581 L143.262041,21.8687235" id="Path-5-Copy" stroke-linejoin="round"></path>
                    <path d="M101.484627,61.3022502 L74.3052816,110.003896 C57.2656587,120.160063 48.7994706,125.194866 48.9067173,125.108307 C49.013964,125.021748 55.1173884,107.052061 67.2169906,71.1992475" id="Path-5-Copy-2" stroke-linejoin="round"></path>
                    <path d="M11.260681,81.1637709 C11.3679277,81.0772116 22.9628817,76.4542251 46.0455429,67.2948116" id="Path-5-Copy-6" stroke-linejoin="round"></path>
                    <path d="M32.9495634,68.0872357 L17.190938,59.1607564 C21.9199304,57.9341517 24.3380499,57.2775696 24.4452966,57.1910103 C24.5525433,57.104451 34.177883,58.418952 53.3213158,61.1345134" id="Path-5-Copy-9" stroke-linejoin="round"></path>
                    <path d="M34.9078523,80.4366897 L38.5974539,84.0964351 C45.3478165,82.7799139 48.7766211,82.0783736 48.8838678,81.9918143 C48.9911145,81.905255 54.6047299,79.9742041 65.7247139,76.1986616" id="Path-5-Copy-10" stroke-linejoin="round"></path>
                    <path d="M0.269706612,90.3229162 C0.376953306,90.2363569 11.9719073,85.6133705 35.0545685,76.4539569" id="Path-5-Copy-7" stroke-linejoin="round"></path>
                    <path d="M14.0084246,90.3229162 C14.1156713,90.2363569 19.9693316,87.8330663 31.5694056,83.1130445" id="Path-5-Copy-8" stroke-linejoin="round"></path>
                    <path d="M74.4837368,10.606031 C74.5909835,10.5194716 77.7075234,9.22008171 83.8333566,6.70786116" id="Path-5-Copy-12" stroke-linejoin="round"></path>
                    <path d="M65.6478203,18.2848157 C65.755067,18.1982564 69.9869381,16.4081494 78.3434336,12.9144949" id="Path-5-Copy-13" stroke-linejoin="round"></path>
                    <path d="M102.64817,30.5607542 L101.534577,0.72683335 C92.8608949,3.82686304 88.577677,5.33359822 88.6849237,5.24703891 C88.7921704,5.16047959 83.5482965,20.0779752 72.953302,49.9995257" id="Path-5-Copy-4" stroke-linejoin="round"></path>
                    <path d="M96.9050544,62.2181648 L72.1844298,108.392096" id="Path-5-Copy-3" stroke-linejoin="round"></path>
                    <polyline id="Path-5-Copy-5" stroke-linejoin="round" points="86.0912131 15.0525477 89.9285094 14.3808046 83.5993249 36.4627972 77.2980095 40.2501213"></polyline>
                </g>
                <g id="Group-16-Copy-11" transform="translate(53.755982, 134.433721) scale(-1, 1) rotate(21.000000) translate(-53.755982, -134.433721) translate(40.755982, 127.933721)">
                    <path d="M12.8295039,9.7016162 C19.9150433,9.7016162 25.6590079,7.52983544 25.6590079,4.8508081 C25.6590079,2.17178076 19.9150433,0 12.8295039,0 C5.74396457,0 0,2.17178076 0,4.8508081 C0,6.12712852 1.3036977,7.28832007 3.43506103,8.15439603" id="Oval-Copy-3" transform="translate(12.829504, 4.850808) scale(1, -1) translate(-12.829504, -4.850808) "></path>
                    <g id="Group" transform="translate(12.374812, 4.464443) scale(-1, 1) translate(-12.374812, -4.464443) translate(5.374812, 1.464443)" stroke-width="0.8">
                        <ellipse id="Oval-Copy-3" transform="translate(5.950000, 2.975000) rotate(-1.000000) translate(-5.950000, -2.975000) " cx="5.95" cy="2.975" rx="5.25" ry="1.575"></ellipse>
                        <path d="M8.2397407,-0.595804712 L8.2397407,-0.595804712 C9.24726702,0.103312845 9.85736338,1.24408402 9.8794776,2.47021028 L9.90855629,4.08248302 C9.92776259,5.1473794 10.4192077,6.14867043 11.2498553,6.81530213" id="Path-9" transform="translate(9.744798, 3.109749) rotate(110.000000) translate(-9.744798, -3.109749) "></path>
                    </g>
                    <path d="M25.6590079,12.7936417 C25.6590079,13.0502327 25.6590079,12.2493402 25.6590079,10.3909642 C25.6590079,7.60340034 19.9150433,5.34363331 12.8295039,5.34363331 C5.74396457,5.34363331 0,7.60340034 0,10.3909642 C0,11.2763166 0,12.0772091 0,12.7936417" id="Oval-Copy-13" transform="translate(12.829504, 9.091985) scale(1, -1) translate(-12.829504, -9.091985) "></path>
                </g>
                <g id="Group-16-Copy-12" transform="translate(218.636949, 10.727056) scale(-1, 1) rotate(21.000000) translate(-218.636949, -10.727056) translate(205.636949, 4.227056)">
                    <path d="M12.8295039,9.7016162 C19.9150433,9.7016162 25.6590079,7.52983544 25.6590079,4.8508081 C25.6590079,2.17178076 19.9150433,0 12.8295039,0 C5.74396457,0 -2.84217094e-14,2.17178076 -2.84217094e-14,4.8508081 C-2.84217094e-14,6.12712852 1.3036977,7.28832007 3.43506103,8.15439603" id="Oval-Copy-3" transform="translate(12.829504, 4.850808) scale(1, -1) translate(-12.829504, -4.850808) "></path>
                    <g id="Group" transform="translate(12.373575, 4.793374) scale(-1, 1) translate(-12.373575, -4.793374) translate(5.373575, 1.793374)" stroke-width="0.8">
                        <ellipse id="Oval-Copy-3" transform="translate(5.950000, 2.975000) rotate(-1.000000) translate(-5.950000, -2.975000) " cx="5.95" cy="2.975" rx="5.25" ry="1.575"></ellipse>
                        <path d="M8.2397407,-0.595804712 L8.2397407,-0.595804712 C9.24726702,0.103312845 9.85736338,1.24408402 9.8794776,2.47021028 L9.90855629,4.08248302 C9.92776259,5.1473794 10.4192077,6.14867043 11.2498553,6.81530213" id="Path-9" transform="translate(9.744798, 3.109749) rotate(110.000000) translate(-9.744798, -3.109749) "></path>
                    </g>
                    <path d="M25.6590079,12.7936417 C25.6590079,13.0502327 25.6590079,12.2493402 25.6590079,10.3909642 C25.6590079,7.60340034 19.9150433,5.34363331 12.8295039,5.34363331 C5.74396457,5.34363331 0,7.60340034 0,10.3909642 C0,11.2763166 0,12.0772091 0,12.7936417" id="Oval-Copy-13" transform="translate(12.829504, 9.091985) scale(1, -1) translate(-12.829504, -9.091985) "></path>
                </g>
            </g>
        </g>
    </g>
</svg>