<?xml version="1.0" encoding="UTF-8"?>
<svg width="140px" height="140px" viewBox="0 0 140 140" version="1.1" xmlns="http://www.w3.org/2000/svg" xmlns:xlink="http://www.w3.org/1999/xlink">
    <!-- Generator: Sketch 49.2 (51160) - http://www.bohemiancoding.com/sketch -->
    <title>Artboard 4</title>
    <desc>Created with Sketch.</desc>
    <defs></defs>
    <g id="Artboard-4" stroke="none" stroke-width="1" fill="none" fill-rule="evenodd" stroke-linecap="round">
        <g id="Group-2" transform="translate(26.000000, 36.000000)">
            <g id="Group-10" transform="translate(43.855072, 32.891304) rotate(87.000000) translate(-43.855072, -32.891304) translate(24.507246, 10.318841)" stroke="#000000" stroke-linejoin="round" stroke-width="1.8">
                <path d="M34.3557254,32.2031702 L34.3557254,27.4629187 L36.046695,24.8944027 C37.3733489,22.8792679 38.0338455,20.4984699 37.9350092,18.0878662 L37.5259747,8.11157897 C37.4743348,6.85208961 36.4382578,5.85762194 35.1777102,5.85762194 L35.1777102,5.85762194 C33.9318382,5.85762194 32.9218595,6.86760072 32.9218595,8.11347269 L32.9218595,9.62816323 L32.9218595,5.95448135 C32.9218595,4.34723255 31.6189269,3.04429996 30.0116781,3.04429996 C29.9995965,3.04429996 29.987515,3.04437519 29.9754344,3.04452566 L29.9754344,3.04452566 C28.3422664,3.06486688 27.0290093,4.39458263 27.0290093,6.02787722 L27.0290093,8.71983784 L27.0290093,4.08917385 C27.0290093,2.46609394 25.713243,1.1503277 24.0901631,1.1503277 L24.0901631,1.1503277 C22.4670832,1.1503277 21.151317,2.46609394 21.151317,4.08917385 L21.151317,8.07296317 L21.151317,3.19716074 C21.151317,1.44424293 19.7302963,0.0232222732 17.9773785,0.0232222732 L17.9773785,0.0232222732 C16.1735874,0.0232222732 14.6613254,1.38597947 14.4742323,3.18004151 L14.0324771,7.41609576 L14.0324771,16.6690945" id="Path-3-Copy-20"></path>
                <path d="M16.3864053,37.5923061 L16.3864053,29.6299697 L11.368353,26.3461232 C10.1987549,25.5807305 9.27723487,24.4914421 8.71624208,23.2111792 L6.10056746,17.2418493 C5.38015885,15.5977776 4.07162274,14.2820865 2.4315038,13.5527236 L1.45639445,13.1190912 C0.468912718,12.6799569 0.024389345,11.523456 0.463523704,10.5359743 C0.63239096,10.1562424 0.917769474,9.84013419 1.27831446,9.63344652 L1.45639445,9.53135958 C3.57962716,8.3141855 6.2332555,8.53068568 8.13111253,10.0759263 L8.48296164,10.3624028 L11.2863253,13.6584942" id="Path-3-Copy-21"></path>
                <path d="M20.0950796,37.5923061 L36.4963866,37.5923061 C37.2916766,37.5923061 37.9363866,38.237016 37.9363866,39.0323061 L37.9363866,43.4406906 C37.9363866,44.2359806 37.2916766,44.8806906 36.4963866,44.8806906 L13.9834174,44.8806906 C13.1881273,44.8806906 12.5434174,44.2359806 12.5434174,43.4406906 L12.5434174,39.0323061 C12.5434174,38.237016 13.1881273,37.5923061 13.9834174,37.5923061 L16.3571571,37.5923061" id="Path-3-Copy-22"></path>
            </g>
            <g id="Group-8-Copy" transform="translate(75.365516, 18.431118) rotate(72.000000) translate(-75.365516, -18.431118) translate(59.242327, 10.091538)">
                <path d="M29.7582003,8.35898005 L31.614027,3.71941332" id="Path-3-Copy-7" stroke="#7813FE"></path>
                <path d="M21.4069802,5.57524002 L21.4069802,0.00775993788" id="Path-3-Copy-15" stroke="#000000"></path>
                <path d="M12.747379,10.171163 L9.96363894,6.45950965" id="Path-3-Copy-16" stroke="#000000"></path>
                <path d="M7.97614963,3.48711806 L6.82197232,1.94714784" id="Path-3-Copy-22" stroke="#000000"></path>
                <path d="M6.55742031,16.1936161 L0.557469605,12.9740389" id="Path-3-Copy-17" stroke="#000000"></path>
            </g>
            <g id="Group-8-Copy-2" transform="translate(10.496133, 56.762476) scale(-1, -1) rotate(62.000000) translate(-10.496133, -56.762476) translate(-1.112563, 52.013465)">
                <path d="M20.8558856,7.93343198 L22.6172338,3.53006137" id="Path-3-Copy-7" stroke="#000000"></path>
                <path d="M12.9298185,5.29140961 L12.9298185,0.0073648865" id="Path-3-Copy-15" stroke="#F1104D"></path>
                <path d="M6.13832631,9.21700225 L3.49630394,5.69430576" id="Path-3-Copy-16" stroke="#000000"></path>
                <path d="M1.60999591,2.87323592 L0.514576712,1.41166419" id="Path-3-Copy-22" stroke="#000000"></path>
            </g>
        </g>
        <polygon id="Star" stroke="#7813FE" stroke-linejoin="round" transform="translate(31.213052, 21.213052) rotate(-10.000000) translate(-31.213052, -21.213052) " points="31.2130517 23.4630517 28.5680181 24.8536282 29.0731745 21.9083399 26.9332974 19.8224752 29.8905349 19.3927635 31.2130517 16.7130517 32.5355685 19.3927635 35.492806 19.8224752 33.3529288 21.9083399 33.8580853 24.8536282"></polygon>
        <polyline id="Star-Copy" stroke="#F1AE10" stroke-linejoin="round" transform="translate(114.176988, 104.080396) rotate(20.000000) translate(-114.176988, -104.080396) " points="114.176988 106.147923 112.136217 107.22082 112.525969 104.948388 110.874951 103.339043 113.156602 103.007499 114.176988 100.939972 115.197373 103.007499 117.479025 103.339043 115.828006 104.948388 116.217759 107.22082"></polyline>
        <polyline id="Star-Copy-2" stroke="#1BD4A5" stroke-linejoin="round" transform="translate(16.674951, 118.553987) scale(-1, 1) rotate(20.000000) translate(-16.674951, -118.553987) " points="16.6749509 120.933307 14.3264218 122.168002 14.774951 119.552876 12.874951 117.700834 15.5006864 117.319292 16.6749509 114.939972 17.8492155 117.319292 20.4749509 117.700834 18.5749509 119.552876 19.0234801 122.168002"></polyline>
        <g id="Group-16-Copy-12" transform="translate(17.818893, 52.851650) scale(-1, 1) rotate(31.000000) translate(-17.818893, -52.851650) translate(6.318893, 47.101650)" stroke="#000000">
            <path d="M11.3491766,8.58219895 C17.6171537,8.58219895 22.6983531,6.66100827 22.6983531,4.29109947 C22.6983531,1.92119067 17.6171537,0 11.3491766,0 C5.08119943,0 -2.84217094e-14,1.92119067 -2.84217094e-14,4.29109947 C-2.84217094e-14,5.42015216 1.15327104,6.44736006 3.03870783,7.21350418" id="Oval-Copy-3" transform="translate(11.349177, 4.291099) scale(1, -1) translate(-11.349177, -4.291099) "></path>
            <g id="Group" transform="translate(10.945855, 4.240292) scale(-1, 1) translate(-10.945855, -4.240292) translate(4.753547, 1.586446)" stroke-width="0.8">
                <ellipse id="Oval-Copy-3" transform="translate(5.263462, 2.631731) rotate(-1.000000) translate(-5.263462, -2.631731) " cx="5.26346154" cy="2.63173077" rx="4.64423077" ry="1.39326923"></ellipse>
                <path d="M7.28900139,-0.527058015 L7.28900139,-0.527058015 C8.18027467,0.0913921324 8.7199753,1.10053586 8.73953787,2.18518601 L8.76526133,3.61142729 C8.78225152,4.553451 9.21699144,5.43920845 9.95179503,6.02892111" id="Path-9" transform="translate(8.620398, 2.750932) rotate(110.000000) translate(-8.620398, -2.750932) "></path>
            </g>
            <path d="M22.6983531,11.3174523 C22.6983531,11.5444366 22.6983531,10.8359548 22.6983531,9.19200683 C22.6983531,6.72608491 17.6171537,4.72706023 11.3491766,4.72706023 C5.08119943,4.72706023 0,6.72608491 0,9.19200683 C0,9.97520314 0,10.683685 0,11.3174523" id="Oval-Copy-13" transform="translate(11.349177, 8.042910) scale(1, -1) translate(-11.349177, -8.042910) "></path>
        </g>
        <g id="Group-16-Copy-14" transform="translate(111.465937, 22.727056) scale(-1, 1) rotate(-20.000000) translate(-111.465937, -22.727056) translate(98.465937, 16.227056)" stroke="#000000">
            <path d="M12.8295039,9.7016162 C19.9150433,9.7016162 25.6590079,7.52983544 25.6590079,4.8508081 C25.6590079,2.17178076 19.9150433,0 12.8295039,0 C5.74396457,0 -2.84217094e-14,2.17178076 -2.84217094e-14,4.8508081 C-2.84217094e-14,6.12712852 1.3036977,7.28832007 3.43506103,8.15439603" id="Oval-Copy-3" transform="translate(12.829504, 4.850808) scale(1, -1) translate(-12.829504, -4.850808) "></path>
            <g id="Group" transform="translate(12.373575, 4.793374) scale(-1, 1) translate(-12.373575, -4.793374) translate(5.373575, 1.793374)" stroke-width="0.8">
                <ellipse id="Oval-Copy-3" transform="translate(5.950000, 2.975000) rotate(-1.000000) translate(-5.950000, -2.975000) " cx="5.95" cy="2.975" rx="5.25" ry="1.575"></ellipse>
                <path d="M8.2397407,-0.595804712 L8.2397407,-0.595804712 C9.24726702,0.103312845 9.85736338,1.24408402 9.8794776,2.47021028 L9.90855629,4.08248302 C9.92776259,5.1473794 10.4192077,6.14867043 11.2498553,6.81530213" id="Path-9" transform="translate(9.744798, 3.109749) rotate(110.000000) translate(-9.744798, -3.109749) "></path>
            </g>
            <path d="M25.6590079,12.7936417 C25.6590079,13.0502327 25.6590079,12.2493402 25.6590079,10.3909642 C25.6590079,7.60340034 19.9150433,5.34363331 12.8295039,5.34363331 C5.74396457,5.34363331 0,7.60340034 0,10.3909642 C0,11.2763166 0,12.0772091 0,12.7936417" id="Oval-Copy-13" transform="translate(12.829504, 9.091985) scale(1, -1) translate(-12.829504, -9.091985) "></path>
        </g>
        <g id="Group-16-Copy-13" transform="translate(99.465937, 124.727056) scale(-1, 1) rotate(-9.000000) translate(-99.465937, -124.727056) translate(88.465937, 119.227056)" stroke="#000000">
            <path d="M10.8557341,8.20905986 C16.8511905,8.20905986 21.7114682,6.37139922 21.7114682,4.10452993 C21.7114682,1.83766065 16.8511905,0 10.8557341,0 C4.86027771,0 -2.84217094e-14,1.83766065 -2.84217094e-14,4.10452993 C-2.84217094e-14,5.18449337 1.10312882,6.16704006 2.9065901,6.89987356" id="Oval-Copy-3" transform="translate(10.855734, 4.104530) scale(1, -1) translate(-10.855734, -4.104530) "></path>
            <path d="M21.7114682,10.8253892 C21.7114682,11.0425046 21.7114682,10.3648263 21.7114682,8.79235436 C21.7114682,6.43364644 16.8511905,4.52153588 10.8557341,4.52153588 C4.86027771,4.52153588 0,6.43364644 0,8.79235436 C0,9.54149865 0,10.2191769 0,10.8253892" id="Oval-Copy-13" transform="translate(10.855734, 7.693218) scale(1, -1) translate(-10.855734, -7.693218) "></path>
        </g>
    </g>
</svg>