<?xml version="1.0" encoding="UTF-8"?>
<svg width="120px" height="53px" viewBox="0 0 120 53" version="1.1" xmlns="http://www.w3.org/2000/svg" xmlns:xlink="http://www.w3.org/1999/xlink">
    <!-- Generator: Sketch 49.2 (51160) - http://www.bohemiancoding.com/sketch -->
    <title>Group 24</title>
    <desc>Created with Sketch.</desc>
    <defs></defs>
    <g id="Dashboard" stroke="none" stroke-width="1" fill="none" fill-rule="evenodd" stroke-linecap="round">
        <g id="Dashboard_01" transform="translate(-1090.000000, -671.000000)" stroke="#000000">
            <g id="Group-26" transform="translate(810.000000, 377.000000)">
                <g id="Group-24" transform="translate(278.000000, 292.000000)">
                    <g id="Group-11" stroke-width="1.2">
                        <polyline id="Path-4-Copy-4" stroke-linejoin="round" transform="translate(16.545129, 14.545129) rotate(45.000000) translate(-16.545129, -14.545129) " points="13.8589549 19.7009511 19.2313025 19.7009511 19.2313025 9.38930628"></polyline>
                        <path d="M18.9762608,28.7748413 C24.7766067,27.4470987 29.1037273,22.2548077 29.1037273,16.0518636 C29.1037273,8.84351839 23.2602089,3 16.0518636,3 C8.84351839,3 3,8.84351839 3,16.0518636 C3,17.8964418 3.38264618,19.6516481 4.07289115,21.2424353" id="Oval-Copy-11" transform="translate(16.051864, 15.887421) rotate(-10.000000) translate(-16.051864, -15.887421) "></path>
                        <g id="Group-10" transform="translate(5.000000, 23.000000)" stroke-linejoin="round">
                            <path d="M13.6595804,22.5123858 L13.6595804,19.9529924 L14.2657507,19.0311314 C15.1802747,17.6403275 15.6381981,15.9988964 15.5757207,14.3355305 L15.3650457,8.7266191 C15.3395549,8.04796621 14.7819888,7.51094955 14.1028574,7.51094955 L14.1028574,7.51094955 C13.4309882,7.51094955 12.8863306,8.05560714 12.8863306,8.72747633 L12.8863306,10.3235127 L12.8863306,7.5613272 C12.8863306,6.69458894 12.1837004,5.99195875 11.3169621,5.99195875 C11.310439,5.99195875 11.303916,5.99199941 11.2973934,5.99208075 L11.2973934,5.99208075 C10.4166609,6.00306359 9.7084563,6.72015466 9.7084563,7.60095567 L9.7084563,9.83308259 L9.7084563,6.42618983 C9.7084563,5.55090135 8.99889479,4.84133983 8.1236063,4.84133983 L8.1236063,4.84133983 C7.24831782,4.84133983 6.5387563,5.55090135 6.5387563,6.42618983 L6.5387563,9.48381699 L6.5387563,2.10019457 C6.5387563,1.15488759 5.77243358,0.388564867 4.8271266,0.388564867 L4.8271266,0.388564867 C3.88181962,0.388564867 3.11549689,1.15488759 3.11549689,2.10019457 L3.11549689,9.10856189 L2.39425616,10.7385392 L2.39425616,13.3100138" id="Path-3-Copy-20"></path>
                            <path d="M4.63156644,25.2956651 L4.63156644,21.106622 L1.93211385,19.0090412 C0.713107045,18.061825 -2.47547914e-15,16.604628 -2.66453526e-15,15.0608676 L-8.8817842e-16,12.7149167 C-1.11015649e-15,10.9023283 0.980972884,9.23168578 2.56386089,8.34854225 L2.99587259,8.10750919" id="Path-3-Copy-21"></path>
                        </g>
                    </g>
                    <g id="Group-21-Copy" transform="translate(89.000000, 9.000000)">
                        <g id="Group-16" transform="translate(1.773116, 0.000000)">
                            <path d="M15.0714847,11.3416718 C23.3952358,11.3416718 30.1429694,8.80275211 30.1429694,5.67083591 C30.1429694,2.53891972 23.3952358,0 15.0714847,0 C6.74773354,0 0,2.53891972 0,5.67083591 C0,7.16291796 1.5315214,8.52040863 4.03534461,9.5328945" id="Oval-Copy-3" stroke-width="1.2" transform="translate(15.071485, 5.670836) scale(1, -1) translate(-15.071485, -5.670836) "></path>
                            <g id="Group" transform="translate(8.932767, 2.882353)" stroke-width="0.8">
                                <ellipse id="Oval-Copy-3" transform="translate(5.950000, 2.975000) rotate(-1.000000) translate(-5.950000, -2.975000) " cx="5.95" cy="2.975" rx="5.25" ry="1.575"></ellipse>
                                <path d="M8.2397407,-0.595804712 L8.2397407,-0.595804712 C9.24726702,0.103312845 9.85736338,1.24408402 9.8794776,2.47021028 L9.90855629,4.08248302 C9.92776259,5.1473794 10.4192077,6.14867043 11.2498553,6.81530213" id="Path-9" transform="translate(9.744798, 3.109749) rotate(110.000000) translate(-9.744798, -3.109749) "></path>
                            </g>
                            <path d="M30.1429694,14.1241066 C30.1429694,14.4152516 30.1429694,13.5065061 30.1429694,11.3978703 C30.1429694,8.23491654 23.3952358,5.67083591 15.0714847,5.67083591 C6.74773354,5.67083591 0,8.23491654 0,11.3978703 C0,12.4024494 0,13.3111949 0,14.1241066" id="Oval-Copy-13" stroke-width="1.2" transform="translate(15.071485, 9.923963) scale(1, -1) translate(-15.071485, -9.923963) "></path>
                        </g>
                        <g id="Group-16-Copy" transform="translate(0.000000, 10.337461)" stroke-width="1.2">
                            <path d="M29.613969,6.9920935 C29.9588669,6.54566135 30.1429694,6.07583983 30.1429694,5.59085044 C30.1429694,2.654679 23.3952358,0.274441766 15.0714847,0.274441766 C6.74773354,0.274441766 0,2.654679 0,5.59085044 C0,6.27457876 0.36589987,6.92816123 1.0323954,7.52856202 C1.1966996,7.67657258 1.71748525,7.92370825 2.59475235,8.26996904" id="Oval-Copy-3" transform="translate(15.071485, 4.272205) scale(1, -1) translate(-15.071485, -4.272205) "></path>
                            <path d="M30.1429694,10.8785016 C30.1429694,11.15145 30.1429694,10.2995012 30.1429694,8.3226551 C30.1429694,5.35738596 23.3952358,2.95356037 15.0714847,2.95356037 C6.74773354,2.95356037 0,5.35738596 0,8.3226551 C0,9.26444804 0,10.1163969 0,10.8785016" id="Oval-Copy-13" transform="translate(15.071485, 6.940867) scale(1, -1) translate(-15.071485, -6.940867) "></path>
                        </g>
                        <g id="Group-16-Copy-2" transform="translate(1.773116, 17.426006)" stroke-width="1.2">
                            <path d="M27.6836047,8.26996904 C28.4218736,7.91622648 28.8824141,7.65896682 29.0652264,7.49819005 C29.7604542,6.88676232 30.1429694,6.21919727 30.1429694,5.52011745 C30.1429694,2.58394602 23.3952358,0.20370878 15.0714847,0.20370878 C6.74773354,0.20370878 0,2.58394602 0,5.52011745 C0,5.93305897 0.133466483,6.33500442 0.386012917,6.720879" id="Oval-Copy-3" transform="translate(15.071485, 4.236839) scale(1, -1) translate(-15.071485, -4.236839) "></path>
                            <path d="M30.1429694,10.8785016 C30.1429694,11.15145 30.1429694,10.2995012 30.1429694,8.3226551 C30.1429694,5.35738596 23.3952358,2.95356037 15.0714847,2.95356037 C6.74773354,2.95356037 0,5.35738596 0,8.3226551 C0,9.26444804 0,10.1163969 0,10.8785016" id="Oval-Copy-13" transform="translate(15.071485, 6.940867) scale(1, -1) translate(-15.071485, -6.940867) "></path>
                        </g>
                    </g>
                    <path d="M18.7911151,30.0412452 C19.6054855,24.4445369 23.0931424,22.54694 29.254086,24.3484544 C38.4955013,27.0507259 53.3628336,61.1849004 81.2083565,52.6069363" id="Path-12-Copy" stroke-width="1.2" stroke-linejoin="round" stroke-dasharray="2,4" transform="translate(49.999736, 38.838234) scale(1, -1) translate(-49.999736, -38.838234) "></path>
                </g>
            </g>
        </g>
    </g>
</svg>