<?xml version="1.0" encoding="UTF-8"?>
<svg width="149px" height="69px" viewBox="0 0 149 69" version="1.1" xmlns="http://www.w3.org/2000/svg" xmlns:xlink="http://www.w3.org/1999/xlink">
    <!-- Generator: Sketch 49.2 (51160) - http://www.bohemiancoding.com/sketch -->
    <title>Group 25</title>
    <desc>Created with Sketch.</desc>
    <defs></defs>
    <g id="Dashboard" stroke="none" stroke-width="1" fill="none" fill-rule="evenodd">
        <g id="Dashboard_01" transform="translate(-846.000000, -518.000000)">
            <g id="Group-26" transform="translate(810.000000, 377.000000)">
                <g id="Group-25" transform="translate(32.000000, 141.000000)">
                    <g id="Group-2" transform="translate(130.656219, 29.631004) rotate(-15.000000) translate(-130.656219, -29.631004) translate(104.656219, 6.631004)" stroke="#000000" stroke-linecap="round">
                        <g id="Group-8-Copy" transform="translate(40.751619, 13.412200) rotate(62.000000) translate(-40.751619, -13.412200) translate(28.751619, 7.412200)">
                            <path d="M21.7443838,6.10792551 L23.1004406,2.71778367" id="Path-3-Copy-7"></path>
                            <path d="M15.6421285,4.07384041 L15.6421285,0.00567020405" id="Path-3-Copy-15"></path>
                            <path d="M9.31453847,7.43209169 L7.28045337,4.71997822" id="Path-3-Copy-16"></path>
                            <path d="M5.82819046,2.548045 L4.9848305,1.4227853" id="Path-3-Copy-22"></path>
                            <path d="M4.79152176,11.8327117 L0.407344293,9.48015941" id="Path-3-Copy-17"></path>
                        </g>
                        <g id="Group-8-Copy-2" transform="translate(7.424179, 36.293232) scale(-1, -1) rotate(62.000000) translate(-7.424179, -36.293232) translate(-1.513321, 32.636982)">
                            <path d="M16.0568838,6.10792551 L17.4129406,2.71778367" id="Path-3-Copy-7"></path>
                            <path d="M9.95462852,4.07384041 L9.95462852,0.00567020405" id="Path-3-Copy-15"></path>
                            <path d="M4.72587903,7.09614241 L2.69179393,4.38402895" id="Path-3-Copy-16"></path>
                            <path d="M1.23953103,2.21209573 L0.396171069,1.08683603" id="Path-3-Copy-22"></path>
                        </g>
                        <g id="Group-3" transform="translate(10.254548, 15.576120)">
                            <path d="M11.5188097,18.6875 L26.25,18.6875 C27.9068542,18.6875 29.25,17.3443542 29.25,15.6875 L29.25,3 C29.25,1.34314575 27.9068542,-3.04359188e-16 26.25,0 L3.8125,4.4408921e-16 C2.15564575,7.48448398e-16 0.8125,1.34314575 0.8125,3 L0.8125,15.6875 C0.8125,17.3443542 2.15564575,18.6875 3.8125,18.6875 L6.45514365,18.6875" id="Rectangle-4-Copy-22" stroke-width="1.2" stroke-linejoin="round" transform="translate(15.031250, 9.343750) scale(-1, 1) translate(-15.031250, -9.343750) "></path>
                            <path d="M28.1911641,0.89217716 L16.8034108,9.90499006 C15.7549326,10.7348058 14.2838457,10.7705573 13.1962955,9.99265294 L1.87452321,1.89440032" id="Path-3-Copy-16" stroke-width="1.2"></path>
                            <path d="" id="Path-3-Copy-27" stroke-width="2"></path>
                            <path d="" id="Path-3-Copy-28" stroke-width="2" transform="translate(5.040634, 10.461056) scale(-1, 1) translate(-5.040634, -10.461056) "></path>
                        </g>
                        <polygon id="Star" stroke-linejoin="round" transform="translate(10.427653, 6.811724) rotate(-10.000000) translate(-10.427653, -6.811724) " points="10.4276527 8.63984939 8.2785629 9.76969277 8.68900253 7.37664608 6.95035234 5.681881 9.35310781 5.3327402 10.4276527 3.15547439 11.5021976 5.3327402 13.9049531 5.681881 12.1663029 7.37664608 12.5767426 9.76969277"></polygon>
                        <polyline id="Star-Copy" stroke-linejoin="round" transform="translate(40.621914, 42.592135) rotate(20.000000) translate(-40.621914, -42.592135) " points="40.6219139 44.2720009 38.9637874 45.1437295 39.2804614 43.2973786 37.9390089 41.9897856 39.7928506 41.7204066 40.6219139 40.040541 41.4509771 41.7204066 43.3048189 41.9897856 41.9633664 43.2973786 42.2800403 45.1437295"></polyline>
                    </g>
                    <path d="M45.9372744,52.6580204 C50.2318867,61.2472911 56.6211364,64.5127727 65.1050235,62.4544651 C77.8308542,59.3670037 77.033904,43.5836982 104.987712,37.6521278" id="Path-12-Copy" stroke="#000000" stroke-width="1.2" stroke-linecap="round" stroke-linejoin="round" stroke-dasharray="2,4"></path>
                    <g id="Group-23" transform="translate(26.000000, 0.000000)">
                        <path d="M6.28148383,16.7787252 C10.7492237,16.0474071 15.3845663,14.1150265 20.1875118,10.9815831 L20.5487009,11.8108992 C21.9731873,15.0816214 22.6506062,18.6287714 22.5316671,22.1942502 L22.4327924,25.1582505 C22.3522795,27.5718142 21.5235288,29.9006733 20.0612387,31.8225161 L20.0612387,31.8225161 C18.6449332,33.6839226 16.4402854,34.7767191 14.1013208,34.7767191 L13.1345585,34.7767191 C10.7160616,34.7767191 8.42492279,33.6925889 6.89131433,31.8225161 L6.89131433,31.8225161 C5.32476973,29.9122811 4.46863296,27.5181874 4.46863296,25.0477503 L4.46863296,16.7787252" id="Path-3-Copy-17" stroke="#000000" stroke-linecap="round"></path>
                        <path d="M17.2137415,38.1573906 C22.8781006,36.8769478 26.3631388,32.5586639 27.6688561,25.2025387 C29.627432,14.168351 24.8823338,2.30988585 13.8478404,1.07836165 C2.81334686,-0.153162544 -0.758317903,10.7498899 0.312998081,19.5145495 C1.02720874,25.3576558 1.38431407,29.346958 1.38431407,31.482456" id="Path-3-Copy-17" stroke="#000000" stroke-linecap="round"></path>
                        <path d="M7.96797302,18.8914559 C7.3001314,18.718245 6.8001314,18.8914559 6.46797302,19.4110887" id="Path-3-Copy-17" stroke="#000000" stroke-width="0.8" stroke-linecap="round" transform="translate(7.217973, 19.187625) rotate(-7.000000) translate(-7.217973, -19.187625) "></path>
                        <path d="M19.967973,17.8914559 C19.3001314,17.718245 18.8001314,17.8914559 18.467973,18.4110887" id="Path-3-Copy-18" stroke="#000000" stroke-width="0.8" stroke-linecap="round" transform="translate(19.217973, 18.187625) rotate(33.000000) translate(-19.217973, -18.187625) "></path>
                        <path d="M16.1126277,26.982182 C15.8439427,29.6188913 14.2239046,31.0213976 11.2525133,31.1897008" id="Path-3-Copy-19" stroke="#000000" stroke-width="0.8" stroke-linecap="round" transform="translate(13.682571, 29.085941) rotate(33.000000) translate(-13.682571, -29.085941) "></path>
                        <path d="M11.9168025,40.9473059 C11.3185943,39.4349715 9.8278885,37.432544 7.44468514,34.9400236" id="Path-3-Copy-45" stroke="#000000" stroke-linecap="round" transform="translate(9.680744, 37.943665) rotate(33.000000) translate(-9.680744, -37.943665) "></path>
                        <path d="M19.3686637,40.6667548 C18.1433595,39.665133 16.8610533,37.8727544 15.521745,35.2896189" id="Path-3-Copy-64" stroke="#000000" stroke-linecap="round" transform="translate(17.445204, 37.978187) rotate(33.000000) translate(-17.445204, -37.978187) "></path>
                        <path d="M14.675696,25.1664582 C14.2840676,26.0292356 13.5897257,26.3214702 12.5926701,26.0431622" id="Path-3-Copy-23" stroke="#000000" stroke-width="0.5" stroke-linecap="round" transform="translate(13.634183, 25.666458) rotate(33.000000) translate(-13.634183, -25.666458) "></path>
                        <circle id="Oval" fill="#000000" cx="8" cy="21" r="1"></circle>
                        <circle id="Oval-Copy" fill="#000000" cx="18" cy="21" r="1"></circle>
                    </g>
                    <g id="Group-13" transform="translate(0.000000, 28.000000)">
                        <path d="M33.1097943,27.860378 C34.276944,26.0211969 36.5999333,20.3787472 33.5165106,15.2512251 C30.4330878,10.1237029 23.0428984,3.83605805 14.0213521,8.03721628 C4.9998058,12.2383745 4.70442345,22.3909294 6.36139973,27.1004183 C7.46605058,30.2400776 10.7420697,32.9277452 16.1894572,35.1634211" id="Path-3-Copy-19" stroke="#000000" stroke-linecap="round" transform="translate(20.314205, 20.912337) rotate(33.000000) translate(-20.314205, -20.912337) "></path>
                        <path d="M6.982864,23.056868 L10.9744504,32.3603462 C12.1381265,35.0726099 14.2999911,37.2336922 17.0126759,38.3963864 L18.5978766,39.0758254 C20.2846421,39.7987964 22.1933469,39.8023458 23.8827895,39.085653 L23.8827895,39.085653 C25.5784801,38.3663098 26.9263917,37.0134579 27.6395265,35.315147 L28.3084458,33.7221341 C29.4436887,31.0185842 29.3958759,27.9633446 28.1765914,25.2966418 L24.6941168,17.6801054 C24.2314772,16.6682644 23.3722017,15.8918758 22.3187758,15.5338932 C16.7801059,18.4466701 12.6184865,20.4089626 8.18343098,20.8598909" id="Path-3-Copy-19" stroke="#000000" stroke-linecap="round" stroke-linejoin="round" transform="translate(18.054808, 27.577259) rotate(33.000000) translate(-18.054808, -27.577259) "></path>
                        <circle id="Oval" fill="#000000" cx="13.75" cy="25.75" r="1"></circle>
                        <circle id="Oval-Copy-4" stroke="#000000" cx="13.5" cy="25.5" r="3"></circle>
                        <path d="M18.8644937,30.1976987 C18.5408136,30.9348759 17.7943759,31.3196147 16.6251807,31.3519151" id="Path-3-Copy-23" stroke="#000000" stroke-linecap="round" transform="translate(17.744837, 30.774807) rotate(33.000000) translate(-17.744837, -30.774807) "></path>
                        <path d="M20.9769731,25.5210435 C19.4290744,24.9975135 18.0170196,25.5987796 16.7408088,27.3248418" id="Path-3-Copy-68" stroke="#000000" stroke-linecap="round" transform="translate(18.858891, 26.331565) rotate(33.000000) translate(-18.858891, -26.331565) "></path>
                        <path d="M21.6993075,31.8590664 C19.5577254,35.3703619 16.8258604,36.6793211 13.5037123,35.7859438" id="Path-3-Copy-65" stroke="#000000" stroke-linecap="round" transform="translate(17.601510, 33.958404) rotate(33.000000) translate(-17.601510, -33.958404) "></path>
                        <circle id="Oval-Copy-5" stroke="#000000" cx="24.2000122" cy="27" r="3"></circle>
                        <circle id="Oval-Copy-2" fill="#000000" cx="23.9500122" cy="27.0499878" r="1"></circle>
                    </g>
                </g>
            </g>
        </g>
    </g>
</svg>