<?xml version="1.0" standalone="no"?>
<!DOCTYPE svg PUBLIC "-//W3C//DTD SVG 1.1//EN" "http://www.w3.org/Graphics/SVG/1.1/DTD/svg11.dtd" >
<svg xmlns="http://www.w3.org/2000/svg">
<metadata>Generated by IcoMoon</metadata>
<defs>
<font id="icomoon" horiz-adv-x="1024">
<font-face units-per-em="1024" ascent="960" descent="-64" />
<missing-glyph horiz-adv-x="1024" />
<glyph unicode="&#x20;" horiz-adv-x="512" d="" />
<glyph unicode="&#xe900;" glyph-name="gmail" d="M339.737 624.272c-10.997 0-19.911 8.915-19.911 19.911s8.915 19.911 19.911 19.911h427.003c18.47 0 26.986-22.966 12.982-35.008l-223.896-192.522c-27.256-23.436-67.121-24.832-95.949-3.36l-212.41 158.213v-254.268c0-36.132 29.291-65.422 65.422-65.422h398.222c36.132 0 65.422 29.291 65.422 65.422v237.816c0 10.997 8.915 19.911 19.911 19.911s19.911-8.915 19.911-19.911v-237.816c0-58.125-47.12-105.244-105.244-105.244h-398.222c-58.125 0-105.244 47.12-105.244 105.244v293.926c0 16.377 18.671 25.751 31.805 15.968l244.215-181.903c13.88-10.339 33.075-9.666 46.198 1.618l183.183 157.513h-373.307z" />
<glyph unicode="&#xe901;" glyph-name="whatsapp" d="M539.904 438.36c1.178 1.314 1.178 1.314 1.677 1.871l3.026 2.809c1.41 1.019 1.41 1.019 1.23 0.835 1.516 1.109 3.13 2.078 4.979 2.968 4.691 2.211 9.798 3.176 17.060 2.685 0.461-0.075 0.461-0.075 2.086-0.33 3.776-0.771 7.374-2.243 8.55-3.172 2.232-1.17 3.106-1.705 3.178-1.862l78.151-49.017c12.053-7.694 17.241-22.661 12.504-36.259-10.253-28.959-27.463-50.559-50.253-62.492-21.323-11.165-46.151-13.439-72.305-8.016-43.531 9.027-89.898 38.493-130.812 80.343-40.595 41.523-69.215 88.698-77.676 132.095-5.096 26.135-2.702 50.51 8.53 71.281 7.611 14.073 19.124 25.858 33.895 34.841 9.395 5.714 21.644 2.73 27.358-6.665s2.73-21.644-6.665-27.358c-8.892-5.408-15.4-12.069-19.559-19.76-6.436-11.901-7.921-27.028-4.472-44.717 6.781-34.778 31.461-75.459 67.065-111.877 35.84-36.66 75.695-61.987 110.423-69.189 17.693-3.669 33.245-2.244 45.747 4.302 11.784 6.171 21.6 17.5 28.581 33.811l-66.876 42.025-13.256-13.389c-6.069-6.13-15.396-7.655-23.102-3.776-33.269 16.746-59.893 44.216-84.382 84.627-4.773 7.876-3.522 17.998 3.026 24.475l11.564 11.414c-4.853 7.845-14.245 23.111-25.086 40.855-5.733 9.384-2.774 21.639 6.61 27.372s21.639 2.774 27.372-6.61c15.952-26.109 29.636-48.254 28.993-47.137 0.823-1.393 1.521-2.827 2.103-4.416 0.686-1.637 1.199-3.256 1.476-4.622 0.446-2.082 0.446-2.082 0.713-5.096 0.030-1.253 0.030-1.253 0-1.024 0.030-1.254 0.030-1.254-0.122-4.14-0.163-1.219-0.163-1.219-0.28-1.985-0.209-1.212-0.209-1.212-0.482-2.41l-1.245-3.599c-0.292-0.752-0.336-0.854-0.803-1.934-0.767-1.707-1.771-3.296-2.98-4.72 1.101 1.408 1.123 1.462 1.381 1.909l-1.034-1.412c-0.328-0.444-1.064-1.422-2.208-2.935-1.7-1.773-1.7-1.773-2.225-2.252l-4.303-4.256c14.874-22.010 30.289-38.128 47.531-49.437l5.32 5.349zM495.323 491.252l-1.056-1.442-0.091-0.099c0.175 0.158 0.193 0.174 1.267 1.681-0.040-0.047-0.080-0.094-0.121-0.141zM499.22 498.076c0.033 0.090 0.087 0.234 0.167 0.449-0.042-0.114-0.080-0.218-0.115-0.313l-0.052-0.136zM462.593 505.187l-0.18 0.467c-0.022 0.035-0.046 0.072-0.071 0.112 0.079-0.199 0.163-0.393 0.251-0.578zM462.045 506.607c0.031-0.101 0.064-0.201 0.098-0.301 0.039-0.089 0.079-0.174 0.118-0.257l-0.216 0.558zM559.052 411.451c0.549-0.418 0.914-0.642-0.139-0.010 0.316-0.205 0.644-0.389 1.051-0.563l-0.912 0.573zM207.646 448.427c0 144.806 102.076 268.928 242.080 298.134 10.765 2.246 21.312-4.66 23.558-15.425s-4.66-21.312-15.425-23.558c-121.634-25.374-210.39-133.299-210.39-259.151 0-52.009 15.096-101.739 43.479-145.325 3.195-4.906 4.068-10.969 2.389-16.577l-27.906-93.184 91.027 31.435c5.65 1.951 11.877 1.261 16.962-1.88 41.226-25.461 88.929-39.182 138.58-39.182 145.964 0 264.531 118.643 264.531 264.713 0 138.377-106.816 253.308-243.876 263.917-10.964 0.849-19.164 10.425-18.315 21.388s10.425 19.164 21.388 18.315c157.763-12.212 280.625-144.407 280.625-303.62 0-168.058-136.39-304.535-304.354-304.535-53.824 0-105.737 14.046-151.285 40.224l-95.164-32.864c-11.649-4.021-24.567-1.18-33.455 7.355-8.884 8.531-12.25 21.316-8.717 33.12l29.214 97.551c-29.335 48.077-44.945 102.468-44.945 159.149z" />
<glyph unicode="&#xe902;" glyph-name="Q" d="M750.114 236.362c29.715-30.087 76.51-39.001 116.205-18.965l72.996 36.843c17.53 8.848 38.914 1.81 47.762-15.721s1.81-38.914-15.721-47.762l-72.996-36.843c-70.84-35.755-154.893-17.63-205.225 39.282-59.195-36.789-129.057-58.035-203.88-58.035-213.617 0-386.788 173.171-386.788 386.788s173.171 386.788 386.788 386.788c213.617 0 386.788-173.171 386.788-386.788 0-113.099-48.543-214.861-125.93-285.587zM712.555 298.814c57.078 57.12 92.378 136.005 92.378 223.135 0 174.343-141.333 315.676-315.676 315.676s-315.676-141.333-315.676-315.676c0-174.343 141.333-315.676 315.676-315.676 61.153 0 118.244 17.389 166.599 47.491l-33.521 64.209c-24.064 46.095-79.44 66.056-127.38 45.916l-35.761-15.024c-18.104-7.606-38.946 0.905-46.552 19.009s0.905 38.946 19.009 46.552l35.761 15.024c82.030 34.462 176.784 0.307 217.96-78.567l27.182-52.068z" />
<glyph unicode="&#xe903;" glyph-name="reject" d="M378.426 290.878c35.985-30.622 82.622-49.101 133.574-49.101 113.893 0 206.222 92.329 206.222 206.222 0 50.953-18.479 97.59-49.101 133.574-1.035-2.335-2.509-4.523-4.423-6.437l-279.836-279.836c-1.914-1.914-4.102-3.389-6.437-4.423zM350.563 319.668c1.013 2.097 2.39 4.063 4.13 5.803l279.836 279.836c1.74 1.74 3.706 3.117 5.803 4.13-35.219 28.034-79.819 44.785-128.332 44.785-113.893 0-206.222-92.329-206.222-206.222 0-48.513 16.751-93.113 44.785-128.332zM512 199.111c-137.458 0-248.889 111.431-248.889 248.889s111.431 248.889 248.889 248.889c137.458 0 248.889-111.431 248.889-248.889s-111.431-248.889-248.889-248.889z" />
<glyph unicode="&#xe904;" glyph-name="facebook" d="M423.822 583.47c0 90.945 62.872 151.199 156.931 151.199l74.065-0.107c10.997-0.016 19.898-8.943 19.882-19.94s-8.943-19.898-19.94-19.882l-74.037 0.107c-72.406 0-117.080-42.813-117.080-111.377v-60.533c0-10.997-8.914-19.911-19.911-19.911h-66.205v-69.669h66.205c10.997 0 19.911-8.915 19.911-19.911v-212.292h80.628v212.292c0 10.997 8.915 19.911 19.911 19.911h78.799l0.022 69.669h-78.85c-10.997 0-19.911 8.915-19.911 19.911v51.321c0 38.358 17.713 57.107 60.6 57.107l41.632 0.022v15.518c0 10.997 8.914 19.911 19.911 19.911s19.911-8.915 19.911-19.911v-24.539c0-17.311-14.436-30.797-31.554-30.797l-49.89-0.026c-20.382 0-20.788-0.43-20.788-17.285v-31.41h67.2c8.098 0 15.925-3.024 21.837-8.549 6.179-5.775 9.727-13.784 9.727-22.254l-0.028-87.714c0-17.337-14.433-30.797-31.564-30.797h-67.143v-201.406c0-17.311-14.436-30.797-31.564-30.797h-97.144c-17.154 0-31.564 13.484-31.564 30.797v201.406h-54.552c-17.128 0-31.564 13.485-31.564 30.797v87.72c0 17.311 14.436 30.797 31.564 30.797h54.552v40.622zM654.725 631.391c-4.279-0.005-8.25-3.718-8.25-9.025v9.021l8.25 0.004z" />
<glyph unicode="&#xe905;" glyph-name="google" d="M512.002 683.804c-96.603 0-182.565-58.969-218.488-147.1-4.151-10.183-15.771-15.073-25.954-10.923s-15.073 15.771-10.923 25.954c41.978 102.987 142.423 171.891 255.364 171.891 61.353 0 119.522-19.773 168.015-57.132 8.71-6.71 10.332-19.209 3.625-27.92l-59.433-77.19c-6.71-8.715-19.215-10.338-27.928-3.626-24.34 18.75-53.42 28.635-84.28 28.635-76.288 0-138.392-62.097-138.392-138.392s62.104-138.392 138.392-138.392c50.567 0 95.973 27.531 120.159 69.763h-120.159c-10.997 0-19.911 8.915-19.911 19.911v97.411c0 10.997 8.914 19.911 19.911 19.911h255.716c10.997 0 19.911-8.915 19.911-19.911v-48.693c0-151.996-123.631-275.627-275.627-275.627s-275.627 123.631-275.627 275.627c0 10.997 8.915 19.911 19.911 19.911s19.911-8.915 19.911-19.911c0-130.003 105.802-235.804 235.804-235.804s235.804 105.802 235.804 235.804v28.782h-215.893v-57.589h130.722c13.522 0 23.111-13.19 18.94-26.052-23.637-72.902-91.832-123.355-169.573-123.355-98.28 0-178.215 79.925-178.215 178.215s79.934 178.215 178.215 178.215c32.924 0 64.456-8.821 92.134-25.627l35.308 45.857c-37.956 24.519-81.578 37.359-127.442 37.359z" />
<glyph unicode="&#xe906;" glyph-name="linkedin" d="M351.356 204.824v238.581c0 10.997 8.915 19.911 19.911 19.911s19.911-8.915 19.911-19.911v-250.423c0-15.511-12.629-27.98-28.083-27.98h-101.713c-15.454 0-28.083 12.469-28.083 27.98v322.631c0 15.509 12.629 27.98 28.083 27.98h109.885c10.997 0 19.911-8.915 19.911-19.911s-8.915-19.911-19.911-19.911h-98.146v-298.946h78.235zM312.276 731.001c47.919 0 86.977-38.553 86.975-86.108 0-47.569-39.055-86.136-86.975-86.136-47.947 0-87.029 38.562-87.029 86.136 0 47.56 39.085 86.108 87.029 86.108zM312.276 691.179c-26.074 0-47.207-20.843-47.207-46.286 0-25.46 21.135-46.313 47.207-46.313 26.038 0 47.153 20.85 47.153 46.314 0.001 25.445-21.112 46.285-47.153 46.285zM648.832 551.61c111.596 0 149.921-64.162 149.921-181.662v-176.969c0-15.511-12.629-27.98-28.083-27.98h-101.529c-15.454 0-28.083 12.469-28.083 27.98v156.861c0 47.051-4.552 57.603-24.736 57.603-25.199 0-32.863-10.855-32.863-54.835v-159.627c0-15.511-12.629-27.98-28.083-27.98h-101.491c-15.454 0-28.083 12.469-28.083 27.98v322.631c0 15.509 12.629 27.98 28.083 27.98h97.408c9.425 0 17.798-4.638 22.898-11.774 21.199 12.584 46.608 19.793 74.641 19.793zM758.931 369.948c0 98.375-25.962 141.84-110.098 141.84-31.237 0-57.256-11.834-74.784-30.688-12.318-13.249-34.494-4.534-34.494 13.557v9.112h-73.93v-298.947l78.013 0.002v147.785c0 63.599 21.93 94.658 72.686 94.658 51.33 0 64.558-30.662 64.558-97.425v-145.019h78.050v165.126z" />
<glyph unicode="&#xe907;" glyph-name="twitter" d="M749.069 684.050c15.617 9.72 34.935-5.124 29.565-22.717-4.945-16.202-12.79-31.252-23.075-44.39-6.779-8.659-19.293-10.183-27.952-3.404-4.303 3.369-6.844 8.154-7.479 13.179-8.437-2.81-17.040-5.137-25.781-6.963-6.979-1.458-14.205 0.927-18.945 6.253-16.763 18.836-39.96 29.636-64.746 29.636-49.010 0-89.202-42.321-89.202-94.983 0-7.485 0.797-14.835 2.352-21.892 2.832-12.847-7.352-24.86-20.49-24.169-47.95 2.521-94.111 15.841-135.935 38.788-9.641 5.29-13.168 17.393-7.879 27.034s17.393 13.168 27.034 7.879c29.656-16.271 61.751-26.999 95.15-31.66-0.037 1.338-0.056 2.679-0.056 4.022 0 74.209 57.548 134.805 129.024 134.805 32.269 0 62.635-12.447 85.968-34.247 18.438 4.945 36.058 12.632 52.446 22.831zM244.831 596.746c0 24.025 5.999 47.144 17.26 67.434 6.94 12.503 24.405 13.832 33.157 2.523 10.004-12.928 20.987-24.98 32.832-36.029 8.041-7.501 8.479-20.1 0.978-28.142s-20.1-8.479-28.142-0.978c-4.959 4.626-9.783 9.405-14.466 14.331-1.188-6.221-1.797-12.624-1.797-19.139 0-32.392 15.309-61.936 40.070-79.375 16.197-11.407 7.61-36.896-12.188-36.177-8.267 0.3-16.416 1.421-24.36 3.319 9.872-32.068 35.369-56.867 67.306-63.64 20.323-4.31 21.292-32.959 1.306-38.632-7.349-2.086-14.864-3.503-22.48-4.222 16.153-23.172 41.799-37.874 70.018-38.42 18.471-0.357 26.539-23.493 12.295-35.258-28.904-23.876-62.553-40.38-98.592-48.302 29.2-10.311 60.032-15.683 91.62-15.683 173.122 0 294.279 134.901 294.284 293.652l-0.355 14.873c-0.154 6.428 2.806 12.534 7.947 16.396 19.114 14.357 39.679 37.003 53.284 58.5 5.881 9.292 18.18 12.058 27.473 6.177s12.058-18.18 6.177-27.473c-14.225-22.478-34.44-45.543-54.837-62.558l0.128-5.44c0-180.322-137.975-333.95-334.101-333.95-64.096 0-125.498 19.345-178.381 55.127-17.296 11.703-7.205 38.747 13.529 36.26 7.911-0.949 15.783-1.43 23.64-1.43 30.307 0 59.556 7.112 86.027 20.464-33.595 15.302-60.043 45.191-71.463 82.781-2.216 7.295-0.087 14.44 4.464 19.34-26.89 24.908-43.535 61.23-43.535 101.018v1.448c0 9.835 6.828 17.297 15.223 19.366-9.251 18.76-14.322 39.872-14.322 61.839z" />
<glyph unicode="&#xe908;" glyph-name="vk" d="M592.611 487.755c11.206 12.524 22.326 27.505 33.203 44.412 12.633 19.637 24.265 40.784 34.588 61.941 3.615 7.409 6.803 14.279 9.53 20.426 1.615 3.641 2.703 6.196 3.351 7.769 8.311 19.388 24.245 31.428 48.085 31.428h68.46c32.79 0 48.34-22.235 40.157-49.321-6.514-29.853-25.67-65.842-57.296-108.778-6.522-8.854-18.986-10.745-27.84-4.223s-10.745 18.986-4.223 27.84c28.421 38.585 45.149 69.919 50.728 94.655-0.292 0.001-23.621 0.002-69.987 0.004-6.813 0-9.096-1.725-11.363-7.008-0.666-1.622-1.899-4.52-3.671-8.513-2.917-6.576-6.308-13.884-10.143-21.743-10.962-22.467-23.327-44.944-36.886-66.022-11.941-18.563-24.286-35.193-37.776-50.224-19.954-19.954-30.321-26.865-45.993-26.865-18.685 0-30.562 17.278-30.562 39.493v135.628c0 7.96 2.023 5.254 0.352 5.254h-101.108c2.216-2.827 4.794-6.13 6.1-7.988 10.031-14.265 15.841-30.692 17.118-54.564v-100.815c0-30.039-8.855-46.022-32.606-46.022-37.363 0-96.935 94.14-131.961 196.172-4.448 12.852-4.845 13.217-11.824 13.217h-68.46c-3.548 0-4.121 0.884-4.011 1.179 0.52-9.615 8.009-36.994 21.146-68.713 18.698-45.145 46.478-95.237 83.799-147.553 51.425-73.841 124.52-116.733 192.467-116.733 16.681 0 26.041 1.552 29.312 3.397-0.235-0.030-0.323 0.534-0.323 3.319v61.394c0 29.112 11.479 43.375 37.814 43.375 20.864 0 44.394-13.559 82.257-50.074 12.116-12.116 50.046-54.169 55.997-58.281 3.344-2.311 5.93-3.128 10.104-3.128h68.46c7.591 0 6.13-1.696 4.74 3.084-4.403 13.719-21.68 37.099-53.984 73.451-1.729 2.043-3.64 4.196-5.743 6.476-3.017 3.269-6.375 6.743-10.309 10.687-3.486 3.494-15.62 15.381-17.831 17.59-6.913 6.904-11.199 11.565-13.778 15.205-14.928 19.191-13.824 32.99-1.168 53.239 5.828 9.325 18.112 12.16 27.438 6.331s12.16-18.112 6.331-27.438c-4.644-7.43-4.338-3.607-0.682-8.335 1.371-1.919 4.623-5.456 9.999-10.825 2.022-2.019 14.19-13.941 17.883-17.641 4.274-4.284 7.978-8.115 11.386-11.809 2.472-2.679 4.758-5.255 6.557-7.39 35.954-40.449 55.057-66.302 61.973-87.87 9.398-32.148-9.926-54.578-42.809-54.578h-68.46c-12.316 0-22.788 3.31-32.744 10.19-10.439 7.214-52.692 54.060-61.257 62.629-28.422 27.407-43.778 37.127-52.308 38.492-0.020-0.936-0.040-2.061-0.040-3.38v-61.394c0-32.999-20.186-46.537-68.811-46.537-81.776 0-166.651 49.805-225.015 133.612-70.31 98.554-111.77 198.654-111.77 238.579 0 23.529 15.091 39.273 43.383 39.273h68.46c26.279 0 39.969-12.605 49.472-40.061 24.861-72.42 68.070-145.372 87.091-164.499 0.004 0.443 0.006 0.9 0.006 1.372l0.030 99.727c-0.835 15.25-4.111 24.513-9.901 32.747-1.248 1.775-8.705 11.008-10.767 14.171-4.208 6.457-6.562 13.138-6.562 20.898 0 19.47 16.277 35.647 37.331 35.647h107.581c26.596 0 39.47-17.222 39.47-45.076v-128.449c2.112 1.953 4.682 4.427 7.814 7.548zM427.026 438.849c0.002 0.003 0.011 0.060 0.027 0.171 0.028-0.073 0.001-0.121-0.027-0.171zM218.575 615.089c0.073 0.197 0.45 0.132 0.45-0.629 0-0.041 0-0.083 0.001-0.125l-0.45 0.754z" />
<glyph unicode="&#xe909;" glyph-name="history" d="M608.928 439.3c11.782 0 21.333-9.551 21.333-21.333s-9.551-21.333-21.333-21.333h-113.182c-11.782 0-21.333 9.551-21.333 21.333v111.303c0 11.782 9.551 21.333 21.333 21.333s21.333-9.551 21.333-21.333v-89.969h91.848zM512 199.111c-137.458 0-248.889 111.431-248.889 248.889s111.431 248.889 248.889 248.889c137.458 0 248.889-111.431 248.889-248.889s-111.431-248.889-248.889-248.889zM512 241.778c113.893 0 206.222 92.329 206.222 206.222s-92.329 206.222-206.222 206.222c-113.893 0-206.222-92.329-206.222-206.222s92.329-206.222 206.222-206.222z" />
<glyph unicode="&#xe90a;" glyph-name="arrow-left" d="M210.735 470.873h670.518c11.782 0 21.333-9.551 21.333-21.333s-9.551-21.333-21.333-21.333h-674.775l205.11-148.46c9.544-6.908 11.681-20.246 4.773-29.79s-20.246-11.681-29.79-4.773l-256.331 185.534c-11.767 8.517-11.767 26.046 0 34.563l74.050 53.598c9.544 6.908 22.882 4.771 29.79-4.773s4.771-22.882-4.773-29.79l-18.572-13.443zM386.571 650.815c9.544 6.908 22.882 4.771 29.79-4.773s4.771-22.882-4.773-29.79l-107.444-77.768c-9.544-6.908-22.882-4.771-29.79 4.773s-4.771 22.882 4.773 29.79l107.444 77.768z" />
<glyph unicode="&#xe90b;" glyph-name="arrow-right" d="M813.265 425.126h-670.518c-11.782 0-21.333 9.551-21.333 21.333s9.551 21.333 21.333 21.333h674.775l-205.11 148.46c-9.544 6.908-11.681 20.246-4.773 29.79s20.246 11.681 29.79 4.773l256.331-185.534c11.767-8.517 11.767-26.046 0-34.563l-74.050-53.598c-9.544-6.908-22.882-4.771-29.79 4.773s-4.771 22.882 4.773 29.79l18.572 13.443zM637.429 245.184c-9.544-6.908-22.882-4.771-29.79 4.773s-4.771 22.882 4.773 29.79l107.444 77.768c9.544 6.908 22.882 4.771 29.79-4.773s4.771-22.882-4.773-29.79l-107.444-77.768z" />
<glyph unicode="&#xe90c;" glyph-name="languages" d="M751.948 223.646h-196.319l-81.64-146.696c-5.73-10.295-18.72-13.996-29.015-8.267s-13.996 18.72-8.267 29.015l86.282 155.036c0.706 1.807 1.65 3.495 2.796 5.023l32.837 59.003c-59.857 43.425-109.624 85.046-149.264 124.997-42.882-44.959-96.689-89.157-161.307-132.613-9.777-6.575-23.033-3.979-29.608 5.798s-3.979 23.033 5.798 29.608c63.266 42.546 115.201 85.351 155.935 128.394-43.478 49.527-70.674 96.426-81.509 140.966-2.785 11.448 4.238 22.986 15.686 25.772s22.986-4.238 25.772-15.686c8.832-36.303 31.64-75.959 68.491-118.74 55.6 68.283 83.243 137.147 83.44 206.508h-320.292c-11.782 0-21.333 9.551-21.333 21.333s9.551 21.333 21.333 21.333h218.706v54.249c0 11.782 9.551 21.333 21.333 21.333s21.333-9.551 21.333-21.333v-54.249h203.523c11.782 0 21.333-9.551 21.333-21.333s-9.551-21.333-21.333-21.333h-101.937c-0.197-81.653-32.682-160.992-96.885-238.113 37.075-37.609 84.29-77.433 141.687-119.332l55.625 99.95c8.132 14.612 29.15 14.612 37.282 0l198.441-356.57c5.73-10.295 2.028-23.286-8.267-29.015s-23.286-2.028-29.015 8.267l-81.64 146.696zM728.203 266.313l-74.414 133.712-74.414-133.712h148.829z" />
<glyph unicode="&#xe90d;" glyph-name="close" d="M512 478.17l135.765 135.765c8.331 8.331 21.839 8.331 30.17 0s8.331-21.839 0-30.17l-135.765-135.765 135.765-135.765c8.331-8.331 8.331-21.839 0-30.17s-21.839-8.331-30.17 0l-135.765 135.765-135.765-135.765c-8.331-8.331-21.839-8.331-30.17 0s-8.331 21.839 0 30.17l135.765 135.765-135.765 135.765c-8.331 8.331-8.331 21.839 0 30.17s21.839 8.331 30.17 0l135.765-135.765z" />
<glyph unicode="&#xe90e;" glyph-name="plus" d="M490.667 469.333v192c0 11.782 9.551 21.333 21.333 21.333s21.333-9.551 21.333-21.333v-192h192c11.782 0 21.333-9.551 21.333-21.333s-9.551-21.333-21.333-21.333h-192v-192c0-11.782-9.551-21.333-21.333-21.333s-21.333 9.551-21.333 21.333v192h-192c-11.782 0-21.333 9.551-21.333 21.333s9.551 21.333 21.333 21.333h192z" />
<glyph unicode="&#xe90f;" glyph-name="play-stroke" d="M668.499 543.453c-9.894 6.397-12.729 19.604-6.332 29.498s19.604 12.729 29.498 6.332l45.25-29.256c55.487-35.874 71.386-109.937 35.512-165.424-9.562-14.789-22.271-27.285-37.22-36.596l-319.932-199.257c-56.086-34.931-129.869-17.781-164.8 38.304-11.82 18.978-18.085 40.889-18.085 63.248v395.412c0 66.074 53.563 119.637 119.637 119.637 22.358 0 44.269-6.265 63.248-18.085l158.977-99.013c10.001-6.229 13.059-19.386 6.83-29.387s-19.386-13.059-29.387-6.83l-158.977 99.013c-12.21 7.605-26.307 11.636-40.692 11.636-42.51 0-76.971-34.461-76.971-76.971v-395.412c0-14.385 4.031-28.481 11.635-40.691 22.473-36.084 69.943-47.117 106.027-24.644l319.932 199.257c9.618 5.99 17.794 14.030 23.946 23.545 23.080 35.698 12.851 83.348-22.847 106.428l-45.25 29.256z" />
<glyph unicode="&#xe910;" glyph-name="play" d="M715.53 362.459l-310.229-175.597c-47.248-26.744-107.23-10.121-133.974 37.127-8.36 14.77-12.754 31.452-12.754 48.423v351.193c0 54.292 44.012 98.304 98.304 98.304 16.971 0 33.654-4.394 48.423-12.754l310.229-175.597c47.248-26.743 63.87-86.726 37.127-133.974-8.781-15.513-21.614-28.346-37.127-37.127z" />
<glyph unicode="&#xe911;" glyph-name="bottom" d="M713.252 506.882c9.71 6.673 22.992 4.21 29.664-5.5s4.21-22.992-5.5-29.664l-213.333-146.601c-7.278-5.002-16.886-5.002-24.165 0l-213.333 146.601c-9.71 6.673-12.173 19.954-5.5 29.664s19.954 12.173 29.664 5.5l201.251-138.298 201.251 138.298z" />
<glyph unicode="&#xe912;" glyph-name="top" d="M713.252 389.118c9.71-6.673 22.992-4.21 29.664 5.5s4.21 22.992-5.5 29.664l-213.333 146.601c-7.278 5.002-16.886 5.002-24.165 0l-213.333-146.601c-9.71-6.673-12.173-19.954-5.5-29.664s19.954-12.173 29.664-5.5l201.251 138.298 201.251-138.298z" />
<glyph unicode="&#xe913;" glyph-name="left" d="M432.584 447.999l138.298-201.251c6.673-9.71 4.21-22.992-5.5-29.664s-22.992-4.21-29.664 5.5l-146.601 213.333c-5.002 7.278-5.002 16.886 0 24.165l146.601 213.333c6.673 9.71 19.954 12.173 29.664 5.5s12.173-19.954 5.5-29.664l-138.298-201.251z" />
<glyph unicode="&#xe914;" glyph-name="right" d="M591.416 448.001l-138.298 201.251c-6.673 9.71-4.21 22.992 5.5 29.664s22.992 4.21 29.664-5.5l146.601-213.333c5.002-7.278 5.002-16.886 0-24.165l-146.601-213.333c-6.673-9.71-19.954-12.173-29.664-5.5s-12.173 19.954-5.5 29.664l138.298 201.251z" />
<glyph unicode="&#xe915;" glyph-name="vi" d="M761.801 640.654c9.468 9.468 24.821 9.468 34.289 0s9.468-24.821 0-34.289l-351.016-351.016c-9.468-9.468-24.821-9.468-34.289 0l-182.878 182.878c-9.468 9.468-9.468 24.821 0 34.289s24.821 9.468 34.289 0l165.732-165.732 333.87 333.87z" />
<glyph unicode="&#xe916;" glyph-name="copy" d="M659.911 334.348h8.533c20.422 0 36.978 16.556 36.978 36.978v284.444c0 20.422-16.556 36.978-36.978 36.978h-227.556c-20.422 0-36.978-16.556-36.978-36.978v-22.296h157.96c10.997 0 19.911-8.915 19.911-19.911s-8.915-19.911-19.911-19.911h-206.316c-20.422 0-36.978-16.556-36.978-36.978v-284.444c0-20.422 16.556-36.978 36.978-36.978h227.556c20.422 0 36.978 16.556 36.978 36.978v282.418c0 10.997 8.915 19.911 19.911 19.911s19.911-8.915 19.911-19.911v-220.299zM659.911 294.526v-22.296c0-42.415-34.385-76.8-76.8-76.8h-227.556c-42.415 0-76.8 34.385-76.8 76.8v284.444c0 42.415 34.385 76.8 76.8 76.8h8.533v22.296c0 42.415 34.385 76.8 76.8 76.8h227.556c42.415 0 76.8-34.385 76.8-76.8v-284.444c0-42.415-34.385-76.8-76.8-76.8h-8.533zM512.302 533.459c10.997 0 19.911-8.915 19.911-19.911s-8.915-19.911-19.911-19.911h-128.302c-10.997 0-19.911 8.915-19.911 19.911s8.915 19.911 19.911 19.911h128.302zM461.921 448.126c10.997 0 19.911-8.915 19.911-19.911s-8.915-19.911-19.911-19.911h-77.921c-10.997 0-19.911 8.915-19.911 19.911s8.915 19.911 19.911 19.911h77.921z" />
<glyph unicode="&#xe917;" glyph-name="cogwheel" d="M426.839 154.233c13.38 34.183 46.663 58.085 85.161 58.085s71.781-23.902 85.161-58.085c21.717 6.284 42.608 14.96 62.336 25.846-14.698 33.629-8.061 74.052 19.155 101.269s67.64 33.854 101.269 19.155c10.886 19.728 19.562 40.619 25.846 62.336-34.183 13.38-58.085 46.663-58.085 85.161s23.902 71.781 58.085 85.161c-6.284 21.717-14.96 42.608-25.846 62.336-33.629-14.698-74.052-8.061-101.269 19.155s-33.854 67.64-19.155 101.269c-19.728 10.886-40.619 19.562-62.336 25.846-13.38-34.183-46.663-58.085-85.161-58.085s-71.781 23.902-85.161 58.085c-21.717-6.284-42.608-14.96-62.336-25.846 14.698-33.629 8.061-74.052-19.155-101.269s-67.64-33.854-101.269-19.155c-10.886-19.728-19.562-40.619-25.846-62.336 34.183-13.38 58.085-46.663 58.085-85.161s-23.902-71.781-58.085-85.161c6.284-21.717 14.96-42.608 25.846-62.336 33.629 14.698 74.052 8.061 101.269-19.155s33.854-67.64 19.155-101.269c19.728-10.886 40.619-19.562 62.336-25.846zM318.677 186.106c15.573 19.264 14.172 47.4-3.499 65.072s-45.807 19.073-65.072 3.499c-9.872-7.98-24.486-5.627-31.353 5.049-22.388 34.803-38.438 73.356-47.269 114.045-2.693 12.408 5.982 24.408 18.609 25.74 24.643 2.601 43.558 23.49 43.558 48.489s-18.915 45.888-43.558 48.489c-12.627 1.333-21.302 13.332-18.609 25.74 8.831 40.689 24.881 79.242 47.269 114.045 6.868 10.676 21.481 13.029 31.353 5.049 19.264-15.573 47.4-14.172 65.072 3.499s19.073 45.807 3.499 65.072c-7.98 9.872-5.627 24.486 5.049 31.353 34.803 22.388 73.356 38.438 114.045 47.269 12.408 2.693 24.408-5.982 25.74-18.609 2.601-24.643 23.49-43.558 48.489-43.558s45.888 18.915 48.489 43.558c1.333 12.627 13.332 21.302 25.74 18.609 40.689-8.831 79.242-24.881 114.045-47.269 10.676-6.868 13.029-21.481 5.049-31.353-15.573-19.264-14.172-47.4 3.499-65.072s45.807-19.073 65.072-3.499c9.872 7.98 24.486 5.627 31.353-5.049 22.388-34.803 38.438-73.356 47.269-114.045 2.693-12.408-5.982-24.408-18.609-25.74-24.643-2.601-43.558-23.49-43.558-48.489s18.915-45.888 43.558-48.489c12.627-1.333 21.302-13.332 18.609-25.74-8.831-40.689-24.881-79.242-47.269-114.045-6.868-10.676-21.481-13.029-31.353-5.049-19.264 15.573-47.4 14.172-65.072-3.499s-19.073-45.807-3.499-65.072c7.98-9.872 5.627-24.486-5.049-31.353-34.803-22.388-73.356-38.438-114.045-47.269-12.408-2.693-24.408 5.982-25.74 18.609-2.601 24.643-23.49 43.558-48.489 43.558s-45.888-18.915-48.489-43.558c-1.333-12.627-13.332-21.302-25.74-18.609-40.689 8.831-79.242 24.881-114.045 47.269-10.676 6.868-13.029 21.481-5.049 31.353zM512 286.477v42.667c65.643 0 118.857 53.214 118.857 118.857s-53.214 118.857-118.857 118.857c-65.643 0-118.857-53.214-118.857-118.857 0-35.576 15.695-68.547 42.408-91.013l-27.462-32.654c-36.253 30.489-57.613 75.361-57.613 123.667 0 89.207 72.317 161.524 161.524 161.524s161.524-72.317 161.524-161.524c0-89.207-72.317-161.524-161.524-161.524z" />
</font>
</defs>
</svg>
